<svg viewBox="0 0 389 143">
<path d="M55.604 14.666c4.2 0 7.3-3.2 7.3-7.3s-3.2-7.2-7.3-7.2c-4.3 0-7.5 3.1-7.5 7.2 0 4.2 3.2 7.3 7.5 7.3Zm41.6 66.3c13.9 0 23.8-11.4 23.8-28s-9.9-28-23.9-28c-6.5 0-12.1 2.9-15.5 7h-.2v-25.5h-8v73h7.7v-5.2h.2c3.5 4.3 9.4 6.7 15.9 6.7Zm140.3-1.5h8v-18.3l8-8.5h.2l17.1 26.8h9.5l-21.1-32.5 19.7-20.5h-11.2l-22 23.4h-.2v-43.4h-8v73Zm-213.9 1.4c12.4 0 21.9-8.9 21.9-20.8 0-10.6-5-16-21.3-23-7.9-3.5-10.7-6.3-10.7-10.7 0-5.4 4.2-9.3 10.1-9.3 5.3 0 9.2 3.4 10.5 9.2l9.3-2.3c-2.2-9.7-10-16-19.8-16-11.2 0-19.7 8-19.7 18.4 0 9 4.6 14.1 17.9 20.1 10.6 4.5 14.1 7.9 14.1 13.6 0 6.8-5.3 11.7-12.3 11.7-7.3 0-12-4.2-13.6-12.1l-9.2 2.3c2.6 12 10.8 18.9 22.8 18.9Zm122.9.1c6.6 0 12.3-2.6 15.3-7h.2v5.5h7.5v-37.2c0-10.7-7.3-17.3-19.2-17.3-11.1 0-19.4 6.6-21.3 17l8.1 1.6c1.4-7.1 6.3-11.3 13.2-11.3 6.5 0 10.7 3.1 10.7 8 0 4.2-3.2 6.4-13.4 8.9-13.3 3.3-18.5 7.8-18.5 16.8 0 9.2 6.7 15 17.4 15Zm35.5-1.5h8v-33.2c0-8.2 5.6-13.8 13.9-13.8 8.1 0 13.1 5.2 13.1 13.8v33.2h8v-34.3c0-12.3-7.9-20.2-20.2-20.2-5.6 0-11.6 2.5-14.8 6.2h-.2v-4.7h-7.8v53Zm126.4 1.5c10.2 0 17.9-4.7 22.5-13.8l-6.6-4c-4.6 7.8-8.7 10.5-16.1 10.5-9.7 0-16-8.4-16.2-18.3h40.1v-4.1c0-15.7-9.4-26.3-23.7-26.3-14.6 0-24.6 11.3-24.6 28s9.9 28 24.6 28Zm34.7-1.5h8v-33.2c0-8.2 5.6-13.8 13.9-13.8 8.1 0 13.1 5.2 13.1 13.8v33.2h8v-34.3c0-12.3-7.9-20.2-20.2-20.2-5.6 0-11.6 2.5-14.8 6.2h-.2v-4.7h-7.8v53Zm-50.9-30.6c.1-8.7 7.1-16.6 16.2-16.6 9.3 0 15.3 7.3 15.6 16.6h-31.8Zm-195.6 24.6c-8.3 0-15.2-6.9-15.2-15.6v-9.9c0-8.6 6.9-15.5 15.7-15.5 9.4 0 15.9 8.1 15.9 20.5s-6.5 20.5-16.4 20.5Zm50.5 0c-6.5 0-10-2.8-10-8 0-4.5 3.5-7 12.7-9.4 7-1.8 10.4-3.6 11.5-6.2h.2v11.6c0 7-6 12-14.4 12ZM81.561 134.527c-2.785 0-5.052-.912-6.8-2.735-1.747-1.836-2.62-4.287-2.62-7.351v-.646c0-2.039.386-3.856 1.158-5.451.785-1.608 1.874-2.862 3.267-3.761 1.406-.912 2.925-1.368 4.559-1.368 2.671 0 4.748.88 6.23 2.641 1.481 1.76 2.222 4.28 2.222 7.559v1.463H75.654c.05 2.026.64 3.666 1.767 4.919 1.14 1.241 2.583 1.862 4.33 1.862 1.241 0 2.292-.254 3.153-.76a7.928 7.928 0 0 0 2.26-2.014l2.147 1.672c-1.722 2.647-4.305 3.97-7.75 3.97Zm-.436-18.425c-1.419 0-2.609.52-3.571 1.558-.963 1.026-1.558 2.469-1.786 4.331h10.295v-.266c-.101-1.786-.582-3.166-1.444-4.141-.86-.988-2.025-1.482-3.494-1.482ZM98.11 108.619v4.976h3.837v2.716H98.11v12.745c0 .824.17 1.444.513 1.862.342.405.924.608 1.747.608.405 0 .963-.076 1.672-.228v2.849c-.925.253-1.824.38-2.698.38-1.57 0-2.754-.475-3.551-1.425-.798-.95-1.197-2.298-1.197-4.046v-12.745h-3.742v-2.716h3.742v-4.976h3.514ZM120.817 124.631l-2.203 2.298v7.218H115.1v-29.175h3.514v17.645l1.88-2.26 6.401-6.762h4.274l-7.997 8.586 8.927 11.966h-4.121l-7.161-9.516ZM133.547 123.681c0-2.013.393-3.824 1.178-5.432.798-1.608 1.899-2.849 3.305-3.723 1.418-.874 3.033-1.311 4.844-1.311 2.798 0 5.058.969 6.78 2.906 1.735 1.938 2.603 4.515 2.603 7.731v.247c0 2.001-.387 3.799-1.159 5.394-.76 1.583-1.855 2.818-3.286 3.704-1.418.887-3.052 1.33-4.901 1.33-2.785 0-5.046-.969-6.78-2.906-1.723-1.938-2.584-4.502-2.584-7.693v-.247Zm3.533.418c0 2.279.526 4.109 1.577 5.489 1.063 1.381 2.482 2.071 4.254 2.071 1.786 0 3.204-.697 4.255-2.09 1.051-1.405 1.577-3.368 1.577-5.888 0-2.254-.538-4.077-1.615-5.47-1.063-1.406-2.482-2.109-4.254-2.109-1.735 0-3.135.691-4.198 2.071-1.064 1.38-1.596 3.355-1.596 5.926ZM159.669 113.595l.114 2.583c1.57-1.975 3.621-2.963 6.154-2.963 4.343 0 6.534 2.451 6.572 7.351v13.581h-3.514v-13.6c-.013-1.481-.355-2.577-1.026-3.286-.658-.709-1.69-1.064-3.096-1.064-1.139 0-2.14.304-3.001.912a6.195 6.195 0 0 0-2.013 2.393v14.645h-3.514v-20.552h3.324ZM189.456 128.696c0-.95-.361-1.685-1.083-2.204-.709-.532-1.956-.987-3.741-1.367-1.773-.38-3.185-.836-4.236-1.368-1.038-.532-1.811-1.165-2.317-1.899-.494-.735-.741-1.609-.741-2.622 0-1.684.709-3.108 2.127-4.273 1.431-1.165 3.255-1.748 5.471-1.748 2.329 0 4.216.602 5.66 1.805 1.456 1.203 2.184 2.741 2.184 4.615h-3.533c0-.962-.411-1.791-1.234-2.488-.811-.696-1.837-1.045-3.077-1.045-1.279 0-2.28.279-3.002.836-.721.557-1.082 1.285-1.082 2.185 0 .848.335 1.487 1.006 1.918.672.43 1.881.842 3.628 1.235 1.76.392 3.185.861 4.274 1.405 1.089.545 1.893 1.203 2.412 1.975.532.76.798 1.691.798 2.793 0 1.836-.734 3.311-2.203 4.425-1.469 1.102-3.375 1.653-5.718 1.653-1.646 0-3.102-.291-4.368-.874-1.266-.582-2.26-1.393-2.982-2.431-.709-1.051-1.064-2.185-1.064-3.4h3.514c.063 1.177.532 2.115 1.406 2.811.886.684 2.051 1.026 3.494 1.026 1.33 0 2.394-.266 3.191-.798.811-.545 1.216-1.266 1.216-2.165ZM205.758 134.527c-2.786 0-5.053-.912-6.8-2.735-1.748-1.836-2.622-4.287-2.622-7.351v-.646c0-2.039.387-3.856 1.159-5.451.785-1.608 1.874-2.862 3.267-3.761 1.406-.912 2.925-1.368 4.559-1.368 2.672 0 4.748.88 6.23 2.641 1.481 1.76 2.222 4.28 2.222 7.559v1.463H199.85c.051 2.026.64 3.666 1.767 4.919 1.139 1.241 2.583 1.862 4.331 1.862 1.24 0 2.291-.254 3.153-.76a7.93 7.93 0 0 0 2.26-2.014l2.146 1.672c-1.722 2.647-4.305 3.97-7.749 3.97Zm-.437-18.425c-1.419 0-2.609.52-3.571 1.558-.963 1.026-1.558 2.469-1.786 4.331h10.295v-.266c-.101-1.786-.582-3.166-1.443-4.141-.861-.988-2.026-1.482-3.495-1.482ZM234.899 124.099c0 3.128-.715 5.648-2.146 7.56s-3.369 2.868-5.812 2.868c-2.495 0-4.458-.792-5.889-2.375v9.896h-3.514v-28.453h3.21l.171 2.28c1.431-1.773 3.419-2.66 5.965-2.66 2.469 0 4.419.931 5.85 2.792 1.443 1.862 2.165 4.451 2.165 7.769v.323Zm-3.514-.399c0-2.317-.494-4.147-1.481-5.489-.988-1.342-2.343-2.014-4.065-2.014-2.127 0-3.723.944-4.787 2.831v9.82c1.051 1.874 2.66 2.811 4.825 2.811 1.684 0 3.02-.665 4.008-1.995 1-1.342 1.5-3.33 1.5-5.964ZM243.831 108.619v4.976h3.837v2.716h-3.837v12.745c0 .824.171 1.444.513 1.862.342.405.924.608 1.747.608.405 0 .962-.076 1.672-.228v2.849c-.925.253-1.824.38-2.698.38-1.57 0-2.754-.475-3.551-1.425-.798-.95-1.197-2.298-1.197-4.046v-12.745h-3.742v-2.716h3.742v-4.976h3.514ZM262.53 134.147v-17.836h-3.248v-2.716h3.248v-2.108c0-2.203.589-3.907 1.766-5.11 1.178-1.203 2.843-1.804 4.996-1.804.81 0 1.614.108 2.412.323l-.19 2.849a10.084 10.084 0 0 0-1.899-.171c-1.14 0-2.02.336-2.64 1.007-.621.658-.931 1.608-.931 2.849v2.165h4.388v2.716h-4.388v17.836h-3.514ZM283.941 116.748a10.604 10.604 0 0 0-1.729-.133c-2.304 0-3.868.982-4.691 2.944v14.588h-3.514v-20.552h3.419l.057 2.374c1.152-1.836 2.786-2.754 4.9-2.754.684 0 1.203.089 1.558.266v3.267ZM298.799 134.147c-.203-.405-.367-1.127-.494-2.165-1.634 1.696-3.584 2.545-5.85 2.545-2.026 0-3.691-.57-4.996-1.71-1.291-1.152-1.937-2.608-1.937-4.368 0-2.14.81-3.799 2.431-4.977 1.634-1.19 3.926-1.785 6.876-1.785h3.419v-1.615c0-1.228-.367-2.203-1.102-2.925-.734-.734-1.817-1.102-3.248-1.102-1.253 0-2.304.317-3.153.95-.848.633-1.272 1.399-1.272 2.298h-3.533c0-1.025.361-2.013 1.082-2.963.735-.962 1.723-1.722 2.964-2.279 1.253-.557 2.627-.836 4.121-.836 2.368 0 4.223.595 5.566 1.786 1.342 1.177 2.038 2.805 2.089 4.881v9.459c0 1.887.24 3.388.722 4.502v.304h-3.685Zm-5.831-2.678a6.177 6.177 0 0 0 3.134-.855c.987-.57 1.703-1.311 2.146-2.222v-4.217h-2.754c-4.306 0-6.458 1.26-6.458 3.78 0 1.101.367 1.963 1.101 2.583.735.62 1.678.931 2.831.931ZM316.833 134.147v-27.656h7.807c2.406 0 4.533.532 6.382 1.596 1.849 1.064 3.273 2.577 4.273 4.54 1.013 1.962 1.526 4.216 1.539 6.761v1.767c0 2.608-.506 4.894-1.52 6.857-1 1.962-2.437 3.469-4.311 4.52-1.862 1.051-4.033 1.59-6.515 1.615h-7.655Zm3.647-24.655v21.673h3.837c2.811 0 4.995-.874 6.553-2.621 1.57-1.748 2.355-4.236 2.355-7.465v-1.615c0-3.14-.741-5.578-2.222-7.312-1.469-1.748-3.558-2.634-6.268-2.66h-4.255ZM363.297 134.147h-3.666l-13.922-21.312v21.312h-3.666v-27.656h3.666l13.96 21.407v-21.407h3.628v27.656ZM369.456 134.147v-27.656h9.041c3.001 0 5.255.621 6.762 1.862 1.52 1.241 2.279 3.077 2.279 5.508 0 1.292-.367 2.438-1.101 3.438-.735.988-1.735 1.754-3.001 2.298 1.494.418 2.671 1.216 3.533 2.394.873 1.165 1.31 2.558 1.31 4.178 0 2.482-.804 4.432-2.412 5.851-1.608 1.418-3.881 2.127-6.819 2.127h-9.592Zm3.647-12.935v9.953h6.021c1.697 0 3.033-.437 4.008-1.311.987-.886 1.481-2.102 1.481-3.647 0-3.33-1.811-4.995-5.432-4.995h-6.078Zm0-2.925h5.508c1.596 0 2.868-.399 3.818-1.197.962-.798 1.443-1.88 1.443-3.248 0-1.519-.443-2.621-1.329-3.305-.887-.696-2.235-1.045-4.046-1.045h-5.394v8.795Z" />
</svg>