<svg viewBox="0 0 494 288">
<path d="M194.648 52.435c14.918 0 25.929-11.366 25.929-25.93 0-14.562-11.366-25.573-25.929-25.573-15.274 0-26.64 11.011-26.64 25.574 0 14.918 11.366 25.929 26.64 25.929ZM80.987 287.57c44.043 0 77.786-31.612 77.786-73.879 0-37.651-17.759-56.831-75.655-81.694-28.06-12.432-38.006-22.377-38.006-38.006 0-19.18 14.918-33.033 35.875-33.033 18.825 0 32.677 12.077 37.295 32.678l33.032-8.17c-7.814-34.453-35.519-56.83-70.327-56.83-39.782 0-69.973 28.415-69.973 65.355 0 31.967 16.339 50.082 63.58 71.394 37.649 15.983 50.081 28.06 50.081 48.306 0 24.153-18.825 41.557-43.688 41.557-25.93 0-42.623-14.918-48.306-42.978L.003 220.44c9.235 42.623 38.36 67.131 80.984 67.131ZM220.589 279.199v-39.085h-7.118v-5.952h7.118v-4.621c0-4.828 1.29-8.56 3.871-11.197 2.581-2.636 6.23-3.954 10.947-3.954 1.776 0 3.538.236 5.286.708l-.416 6.243a22.179 22.179 0 0 0-4.162-.374c-2.498 0-4.426.735-5.786 2.206-1.36 1.443-2.04 3.524-2.04 6.243v4.746h9.615v5.952h-9.615v39.085h-7.7ZM267.076 241.071a23.11 23.11 0 0 0-3.788-.291c-5.05 0-8.477 2.15-10.281 6.451v31.968h-7.701v-45.037h7.493l.125 5.203c2.525-4.024 6.104-6.036 10.739-6.036 1.498 0 2.636.194 3.413.583v7.159ZM299.202 279.199c-.444-.888-.804-2.47-1.082-4.745-3.58 3.718-7.853 5.577-12.82 5.577-4.44 0-8.089-1.249-10.947-3.746-2.831-2.525-4.246-5.716-4.246-9.574 0-4.689 1.776-8.324 5.328-10.905 3.58-2.608 8.602-3.913 15.068-3.913h7.492v-3.538c0-2.691-.805-4.828-2.414-6.41-1.609-1.609-3.982-2.414-7.118-2.414-2.747 0-5.05.694-6.909 2.081-1.86 1.388-2.789 3.067-2.789 5.037h-7.742c0-2.248.791-4.412 2.372-6.494 1.61-2.109 3.774-3.774 6.494-4.995 2.747-1.22 5.758-1.831 9.032-1.831 5.189 0 9.255 1.304 12.196 3.913 2.941 2.58 4.468 6.146 4.579 10.697v20.729c0 4.134.527 7.423 1.581 9.865v.666h-8.075Zm-12.778-5.869c2.414 0 4.703-.625 6.868-1.873 2.164-1.249 3.732-2.872 4.703-4.87v-9.241h-6.035c-9.435 0-14.152 2.761-14.152 8.283 0 2.414.804 4.301 2.414 5.661 1.609 1.36 3.677 2.04 6.202 2.04ZM337.857 279.199v-60.605h17.107c5.272 0 9.934 1.166 13.986 3.497 4.051 2.331 7.173 5.647 9.365 9.948 2.22 4.301 3.344 9.24 3.372 14.818v3.871c0 5.716-1.11 10.725-3.33 15.026-2.192 4.301-5.342 7.603-9.449 9.907-4.079 2.303-8.838 3.482-14.277 3.538h-16.774Zm7.991-54.028v47.493h8.408c6.161 0 10.948-1.915 14.361-5.744 3.441-3.83 5.161-9.283 5.161-16.359v-3.538c0-6.882-1.623-12.223-4.87-16.025-3.219-3.829-7.797-5.772-13.736-5.827h-9.324ZM439.245 279.199h-8.033l-30.51-46.702v46.702h-8.034v-60.605h8.034l30.593 46.91v-46.91h7.95v60.605ZM452.308 279.199v-60.605h19.813c6.577 0 11.516 1.36 14.818 4.079 3.33 2.72 4.995 6.743 4.995 12.071 0 2.831-.805 5.342-2.414 7.534-1.609 2.165-3.802 3.843-6.577 5.037 3.275.915 5.856 2.664 7.743 5.244 1.914 2.553 2.872 5.606 2.872 9.158 0 5.438-1.763 9.712-5.287 12.82-3.524 3.108-8.505 4.662-14.943 4.662h-21.02Zm7.992-28.346v21.811h13.195c3.718 0 6.646-.958 8.782-2.872 2.165-1.943 3.247-4.607 3.247-7.992 0-7.298-3.968-10.947-11.904-10.947H460.3Zm0-6.41h12.071c3.496 0 6.285-.874 8.366-2.623 2.109-1.748 3.164-4.12 3.164-7.117 0-3.33-.971-5.744-2.914-7.243-1.942-1.526-4.898-2.289-8.866-2.289H460.3v19.272Z" />
</svg>