<svg viewBox="0 0 281 401">
<path d="M249.271 51.762c14.918 0 25.929-11.366 25.929-25.93C275.2 11.27 263.834.26 249.271.26c-15.273 0-26.639 11.011-26.639 25.574 0 14.918 11.366 25.929 26.639 25.929ZM135.61 286.898c44.044 0 77.787-31.612 77.787-73.879 0-37.651-17.76-56.831-75.656-81.694-28.06-12.432-38.005-22.377-38.005-38.006 0-19.18 14.918-33.033 35.874-33.033 18.825 0 32.678 12.077 37.295 32.678l33.033-8.17c-7.814-34.453-35.519-56.83-70.328-56.83-39.781 0-69.973 28.415-69.973 65.355 0 31.967 16.34 50.082 63.58 71.394 37.65 15.983 50.082 28.06 50.082 48.306 0 24.153-18.825 41.557-43.689 41.557-25.929 0-42.623-14.918-48.306-42.978l-32.678 8.169c9.235 42.623 38.361 67.131 80.984 67.131ZM7.496 399.426v-39.085H.378v-5.952h7.118v-4.62c0-4.829 1.29-8.561 3.87-11.197 2.581-2.636 6.23-3.954 10.948-3.954 1.776 0 3.538.236 5.286.707l-.416 6.244a22.094 22.094 0 0 0-4.163-.375c-2.497 0-4.426.736-5.785 2.206-1.36 1.443-2.04 3.525-2.04 6.244v4.745h9.615v5.952h-9.615v39.085h-7.7ZM53.983 361.299a22.991 22.991 0 0 0-3.788-.292c-5.05 0-8.478 2.151-10.281 6.452v31.967h-7.7v-45.037h7.492l.124 5.203c2.526-4.024 6.105-6.035 10.74-6.035 1.498 0 2.636.194 3.413.582v7.16ZM86.11 399.426c-.445-.888-.806-2.469-1.083-4.745-3.58 3.719-7.853 5.578-12.82 5.578-4.44 0-8.09-1.249-10.947-3.746-2.83-2.526-4.246-5.717-4.246-9.574 0-4.69 1.776-8.325 5.328-10.905 3.58-2.609 8.602-3.913 15.068-3.913h7.492v-3.538c0-2.692-.805-4.829-2.414-6.41-1.61-1.61-3.982-2.414-7.118-2.414-2.747 0-5.05.693-6.91 2.081-1.859 1.387-2.788 3.066-2.788 5.036H57.93c0-2.247.79-4.412 2.372-6.493 1.61-2.109 3.774-3.774 6.494-4.995 2.747-1.221 5.757-1.831 9.032-1.831 5.19 0 9.254 1.304 12.196 3.912 2.941 2.581 4.467 6.147 4.578 10.698v20.728c0 4.135.528 7.423 1.582 9.865v.666H86.11Zm-12.78-5.869c2.415 0 4.704-.624 6.868-1.873 2.165-1.249 3.733-2.872 4.704-4.87v-9.24h-6.035c-9.435 0-14.153 2.761-14.153 8.283 0 2.414.805 4.301 2.415 5.661 1.609 1.359 3.676 2.039 6.201 2.039ZM124.763 399.426v-60.604h17.108c5.272 0 9.934 1.165 13.986 3.496 4.051 2.331 7.173 5.647 9.365 9.948 2.22 4.301 3.344 9.241 3.372 14.818v3.871c0 5.717-1.11 10.726-3.33 15.027-2.193 4.301-5.342 7.603-9.449 9.906-4.079 2.303-8.838 3.483-14.277 3.538h-16.775Zm7.992-54.028v47.493h8.408c6.161 0 10.947-1.914 14.361-5.744 3.441-3.829 5.161-9.282 5.161-16.358v-3.538c0-6.882-1.623-12.224-4.87-16.025-3.219-3.83-7.798-5.772-13.736-5.828h-9.324ZM226.152 399.426h-8.033l-30.51-46.702v46.702h-8.034v-60.604h8.034l30.593 46.91v-46.91h7.95v60.604ZM239.215 399.426v-60.604h19.813c6.577 0 11.516 1.359 14.818 4.079 3.33 2.719 4.995 6.743 4.995 12.071 0 2.83-.805 5.342-2.414 7.534-1.609 2.164-3.802 3.843-6.577 5.036 3.275.916 5.856 2.664 7.742 5.245 1.915 2.553 2.873 5.605 2.873 9.157 0 5.439-1.763 9.712-5.287 12.82-3.524 3.108-8.505 4.662-14.943 4.662h-21.02Zm7.992-28.346v21.811h13.195c3.718 0 6.646-.957 8.782-2.872 2.165-1.942 3.247-4.606 3.247-7.992 0-7.298-3.968-10.947-11.904-10.947h-13.32Zm0-6.41h12.071c3.496 0 6.285-.874 8.366-2.622 2.109-1.748 3.164-4.121 3.164-7.118 0-3.33-.971-5.744-2.914-7.242-1.942-1.527-4.898-2.29-8.866-2.29h-11.821v19.272Z" />
</svg>