<svg width="16" height="16" viewBox="0 0 16 16" fill="none" xmlns="http://www.w3.org/2000/svg">
<path d="M6.22466 11.1405L7.23834 8.84755M7.23834 8.84755C7.70095 9.05498 8.24535 8.84002 8.45425 8.36751C8.66314 7.89499 8.45746 7.34378 7.99485 7.13635C7.53224 6.92891 6.98787 7.14381 6.77897 7.61633C6.57008 8.08885 6.77572 8.64011 7.23834 8.84755ZM11.1554 5.66286L11.5438 8.41699C11.5538 8.68058 11.5088 8.94393 11.4116 9.1897C11.3145 9.43547 11.1675 9.65808 10.9803 9.84288C10.9803 9.84288 5.1511 14.76 4.54316 15C4.31346 14.3844 4 6.71297 4 6.71297C4.01109 6.4492 4.07699 6.19022 4.19336 5.95308C4.30973 5.71594 4.47393 5.50603 4.67514 5.33716L6.96726 3.78491M11.1554 5.66286L6.96726 3.78491M11.1554 5.66286L12.7412 4.13866C12.8198 4.09904 12.8858 4.03761 12.9316 3.96156C12.9775 3.8855 13.0012 3.79798 13 3.70923C12.9987 3.62049 12.9727 3.53419 12.9248 3.46045C12.877 3.38671 12.8093 3.32858 12.7297 3.29287L7.70392 1.03934C7.62433 1.00368 7.53615 0.991929 7.44971 1.00545C7.36328 1.01898 7.28217 1.05722 7.21587 1.1157C7.14958 1.17418 7.10085 1.25048 7.07539 1.33566C7.04993 1.42084 7.04879 1.51138 7.07211 1.59668L6.96726 3.78491" stroke="black" stroke-linecap="round" stroke-linejoin="round"/>
</svg>
