<svg width="472" height="200" viewBox="0 0 472 200" fill="none" xmlns="http://www.w3.org/2000/svg">
<g filter="url(#filter0_d)">
<path d="M8 68H237V184C237 186.209 235.209 188 233 188H12C9.79086 188 8 186.209 8 184V68Z" fill="white"/>
</g>
<path d="M8 34C8 32.8954 8.89543 32 10 32H235C236.105 32 237 32.8954 237 34V68H8V34Z" fill="#2C2C2C"/>
<rect x="237" y="32" width="227" height="36" fill="#D4D4D4"/>
<rect x="251.5" y="38.5" width="23" height="23" rx="1.5" fill="#DDDDDD" stroke="#EEEEEE"/>
<rect x="255" y="43" width="3" height="3" fill="#050505"/>
<rect x="255" y="43" width="3" height="3" fill="#050505"/>
<rect x="261" y="43" width="3" height="3" fill="#050505"/>
<rect x="261" y="43" width="3" height="3" fill="#050505"/>
<rect x="267" y="43" width="3" height="3" fill="#050505"/>
<rect x="267" y="43" width="3" height="3" fill="#050505"/>
<rect x="255" y="49" width="3" height="3" fill="#050505"/>
<rect x="255" y="49" width="3" height="3" fill="#050505"/>
<rect x="261" y="49" width="3" height="3" fill="#050505"/>
<rect x="261" y="49" width="3" height="3" fill="#050505"/>
<rect x="267" y="49" width="3" height="3" fill="#050505"/>
<rect x="267" y="49" width="3" height="3" fill="#050505"/>
<rect x="255" y="55" width="3" height="3" fill="#050505"/>
<rect x="255" y="55" width="3" height="3" fill="#050505"/>
<rect x="261" y="55" width="3" height="3" fill="#050505"/>
<rect x="261" y="55" width="3" height="3" fill="#050505"/>
<rect x="267" y="55" width="3" height="3" fill="#050505"/>
<rect x="267" y="55" width="3" height="3" fill="#050505"/>
<path d="M286.682 52.9741C286.417 53.3537 286.046 53.6383 285.57 53.8281C285.097 54.0143 284.546 54.1074 283.916 54.1074C283.278 54.1074 282.712 53.9588 282.218 53.6616C281.724 53.3608 281.341 52.9347 281.069 52.3833C280.8 51.8319 280.662 51.1927 280.655 50.4658V49.7837C280.655 48.6056 280.929 47.6925 281.477 47.0444C282.028 46.3963 282.802 46.0723 283.797 46.0723C284.614 46.0723 285.271 46.2817 285.769 46.7007C286.266 47.116 286.571 47.7069 286.682 48.4731H285.65C285.457 47.4383 284.841 46.9209 283.803 46.9209C283.112 46.9209 282.587 47.1644 282.229 47.6514C281.875 48.1348 281.695 48.8366 281.692 49.7568V50.396C281.692 51.2733 281.892 51.9715 282.293 52.4907C282.694 53.0063 283.237 53.2642 283.921 53.2642C284.308 53.2642 284.646 53.2212 284.936 53.1353C285.226 53.0493 285.466 52.9043 285.656 52.7002V50.9438H283.846V50.106H286.682V52.9741ZM291.059 49.0801C290.909 49.055 290.746 49.0425 290.57 49.0425C289.919 49.0425 289.476 49.32 289.244 49.875V54H288.25V48.1885H289.217L289.233 48.8599C289.559 48.3407 290.021 48.0811 290.619 48.0811C290.812 48.0811 290.959 48.1061 291.059 48.1562V49.0801ZM293.057 54H292.063V48.1885H293.057V54ZM291.983 46.647C291.983 46.4858 292.031 46.3498 292.128 46.2388C292.228 46.1278 292.375 46.0723 292.568 46.0723C292.762 46.0723 292.909 46.1278 293.009 46.2388C293.109 46.3498 293.159 46.4858 293.159 46.647C293.159 46.8081 293.109 46.9424 293.009 47.0498C292.909 47.1572 292.762 47.2109 292.568 47.2109C292.375 47.2109 292.228 47.1572 292.128 47.0498C292.031 46.9424 291.983 46.8081 291.983 46.647ZM294.411 51.0459C294.411 50.1543 294.622 49.4382 295.044 48.8975C295.467 48.3532 296.02 48.0811 296.704 48.0811C297.384 48.0811 297.923 48.3138 298.321 48.7793V45.75H299.314V54H298.401L298.353 53.377C297.956 53.8639 297.402 54.1074 296.693 54.1074C296.02 54.1074 295.471 53.8317 295.044 53.2803C294.622 52.7288 294.411 52.0091 294.411 51.1211V51.0459ZM295.404 51.1587C295.404 51.8175 295.54 52.3332 295.812 52.7056C296.085 53.078 296.461 53.2642 296.94 53.2642C297.571 53.2642 298.031 52.9813 298.321 52.4155V49.7461C298.024 49.1982 297.567 48.9243 296.951 48.9243C296.464 48.9243 296.085 49.1123 295.812 49.4883C295.54 49.8643 295.404 50.4211 295.404 51.1587ZM303.552 50.8257C303.552 50.0164 303.66 49.2394 303.875 48.4946C304.093 47.7498 304.417 47.0731 304.847 46.4644C305.276 45.8556 305.722 45.4259 306.184 45.1753L306.388 45.8306C305.865 46.2316 305.436 46.8439 305.099 47.6675C304.766 48.491 304.583 49.4131 304.551 50.4336L304.546 50.8901C304.546 52.2723 304.798 53.4718 305.303 54.4888C305.608 55.0975 305.969 55.5737 306.388 55.9175L306.184 56.5244C305.708 56.2594 305.253 55.8154 304.82 55.1924C303.975 53.9749 303.552 52.5194 303.552 50.8257ZM312.098 48.2207C312.098 48.611 311.994 48.9583 311.786 49.2627C311.582 49.5671 311.305 49.8052 310.954 49.9771C311.362 50.1525 311.684 50.4085 311.92 50.7451C312.16 51.0817 312.28 51.4631 312.28 51.8892C312.28 52.5659 312.051 53.1048 311.593 53.5059C311.138 53.9069 310.538 54.1074 309.793 54.1074C309.042 54.1074 308.438 53.9069 307.983 53.5059C307.532 53.1012 307.307 52.5623 307.307 51.8892C307.307 51.4666 307.421 51.0853 307.65 50.7451C307.883 50.4049 308.204 50.1471 308.612 49.9717C308.264 49.7998 307.991 49.5617 307.79 49.2573C307.59 48.953 307.489 48.6074 307.489 48.2207C307.489 47.5618 307.701 47.0391 308.123 46.6523C308.546 46.2656 309.102 46.0723 309.793 46.0723C310.481 46.0723 311.036 46.2656 311.458 46.6523C311.885 47.0391 312.098 47.5618 312.098 48.2207ZM311.287 51.8677C311.287 51.4308 311.147 51.0745 310.868 50.7988C310.592 50.5231 310.23 50.3853 309.783 50.3853C309.335 50.3853 308.975 50.5213 308.703 50.7935C308.435 51.0656 308.3 51.4237 308.3 51.8677C308.3 52.3117 308.431 52.6608 308.692 52.915C308.957 53.1693 309.324 53.2964 309.793 53.2964C310.259 53.2964 310.624 53.1693 310.889 52.915C311.154 52.6572 311.287 52.3081 311.287 51.8677ZM309.793 46.8887C309.403 46.8887 309.086 47.0104 308.843 47.2539C308.603 47.4938 308.483 47.8215 308.483 48.2368C308.483 48.6343 308.601 48.9565 308.837 49.2036C309.077 49.4471 309.396 49.5688 309.793 49.5688C310.191 49.5688 310.508 49.4471 310.744 49.2036C310.984 48.9565 311.104 48.6343 311.104 48.2368C311.104 47.8394 310.98 47.5153 310.733 47.2646C310.486 47.014 310.173 46.8887 309.793 46.8887ZM318.65 51.1587C318.65 52.0431 318.448 52.7557 318.043 53.2964C317.639 53.8371 317.091 54.1074 316.4 54.1074C315.694 54.1074 315.139 53.8836 314.735 53.436V56.2344H313.741V48.1885H314.649L314.697 48.833C315.102 48.3317 315.664 48.0811 316.384 48.0811C317.082 48.0811 317.633 48.3442 318.038 48.8706C318.446 49.397 318.65 50.1292 318.65 51.0674V51.1587ZM317.657 51.0459C317.657 50.3906 317.517 49.8732 317.238 49.4937C316.958 49.1141 316.575 48.9243 316.088 48.9243C315.487 48.9243 315.036 49.1911 314.735 49.7246V52.5015C315.032 53.0314 315.487 53.2964 316.099 53.2964C316.575 53.2964 316.953 53.1084 317.232 52.7324C317.515 52.3529 317.657 51.7907 317.657 51.0459ZM321.782 50.3101L323.071 48.1885H324.231L322.33 51.062L324.29 54H323.141L321.798 51.8247L320.455 54H319.3L321.261 51.062L319.359 48.1885H320.509L321.782 50.3101ZM327.583 50.8794C327.583 51.6779 327.477 52.4442 327.266 53.1782C327.058 53.9087 326.737 54.5837 326.304 55.2031C325.875 55.8226 325.423 56.263 324.951 56.5244L324.741 55.9175C325.293 55.495 325.735 54.8397 326.068 53.9517C326.404 53.0601 326.576 52.0718 326.583 50.9868V50.8149C326.583 50.063 326.505 49.3647 326.347 48.7202C326.19 48.0721 325.969 47.492 325.687 46.98C325.407 46.4679 325.092 46.0687 324.741 45.7822L324.951 45.1753C325.423 45.4367 325.873 45.8735 326.299 46.4858C326.729 47.0981 327.049 47.7731 327.26 48.5107C327.475 49.2484 327.583 50.0379 327.583 50.8794Z" fill="white"/>
<path d="M406 49.5338C407.852 46.8671 413.315 43.1338 418.5 49.5338" stroke="white"/>
<path d="M418.5 49.5338C416.648 52.2004 411.185 55.9337 406 49.5337" stroke="white"/>
<circle cx="412" cy="49.5338" r="2" fill="white"/>
<rect x="437" y="48.5338" width="10" height="1" fill="white"/>
<path d="M251.944 17.1567H255.65V18H250.908V10.1797H251.944V17.1567ZM262.242 15.959H258.966L258.23 18H257.167L260.153 10.1797H261.055L264.047 18H262.989L262.242 15.959ZM259.278 15.1104H261.936L260.604 11.4526L259.278 15.1104ZM267.97 14.106L270.011 10.1797H271.182L268.485 15.0835V18H267.454V15.0835L264.758 10.1797H265.939L267.97 14.106ZM279.036 14.3423C279.036 15.1086 278.907 15.7782 278.649 16.3511C278.391 16.9204 278.026 17.3555 277.553 17.6562C277.081 17.957 276.529 18.1074 275.899 18.1074C275.283 18.1074 274.737 17.957 274.261 17.6562C273.785 17.3519 273.414 16.9204 273.149 16.3618C272.888 15.7996 272.754 15.1497 272.746 14.4121V13.8481C272.746 13.0962 272.877 12.432 273.138 11.8555C273.4 11.279 273.769 10.8385 274.245 10.5342C274.725 10.2262 275.273 10.0723 275.888 10.0723C276.515 10.0723 277.067 10.2244 277.543 10.5288C278.023 10.8296 278.391 11.2682 278.649 11.8447C278.907 12.4176 279.036 13.0854 279.036 13.8481V14.3423ZM278.01 13.8374C278.01 12.91 277.824 12.1992 277.451 11.7051C277.079 11.2074 276.558 10.9585 275.888 10.9585C275.237 10.9585 274.723 11.2074 274.347 11.7051C273.975 12.1992 273.783 12.8867 273.772 13.7676V14.3423C273.772 15.241 273.96 15.9482 274.336 16.4639C274.716 16.9759 275.237 17.2319 275.899 17.2319C276.565 17.2319 277.081 16.9902 277.446 16.5068C277.811 16.0199 277.999 15.3234 278.01 14.4175V13.8374ZM287.078 10.1797V15.4971C287.075 16.2347 286.842 16.8381 286.38 17.3071C285.922 17.7762 285.299 18.0394 284.511 18.0967L284.237 18.1074C283.381 18.1074 282.699 17.8765 282.19 17.4146C281.682 16.9526 281.424 16.3171 281.417 15.5078V10.1797H282.438V15.4756C282.438 16.0413 282.593 16.4818 282.905 16.7969C283.216 17.1084 283.66 17.2642 284.237 17.2642C284.821 17.2642 285.266 17.1084 285.574 16.7969C285.886 16.4854 286.042 16.0467 286.042 15.481V10.1797H287.078ZM295.099 11.0283H292.585V18H291.559V11.0283H289.051V10.1797H295.099V11.0283ZM306.527 16.9741C306.262 17.3537 305.891 17.6383 305.415 17.8281C304.942 18.0143 304.391 18.1074 303.761 18.1074C303.123 18.1074 302.557 17.9588 302.063 17.6616C301.569 17.3608 301.186 16.9347 300.914 16.3833C300.645 15.8319 300.507 15.1927 300.5 14.4658V13.7837C300.5 12.6056 300.774 11.6925 301.322 11.0444C301.874 10.3963 302.647 10.0723 303.642 10.0723C304.459 10.0723 305.116 10.2817 305.614 10.7007C306.111 11.116 306.416 11.7069 306.527 12.4731H305.495C305.302 11.4383 304.686 10.9209 303.648 10.9209C302.957 10.9209 302.432 11.1644 302.074 11.6514C301.72 12.1348 301.541 12.8366 301.537 13.7568V14.396C301.537 15.2733 301.737 15.9715 302.138 16.4907C302.54 17.0063 303.082 17.2642 303.766 17.2642C304.153 17.2642 304.491 17.2212 304.781 17.1353C305.071 17.0493 305.311 16.9043 305.501 16.7002V14.9438H303.691V14.106H306.527V16.9741ZM312.109 14.8364H310.272V18H309.235V10.1797H311.824C312.705 10.1797 313.382 10.3802 313.855 10.7812C314.331 11.1823 314.569 11.766 314.569 12.5322C314.569 13.0192 314.436 13.4435 314.171 13.8052C313.91 14.1668 313.545 14.4372 313.076 14.6162L314.913 17.9355V18H313.806L312.109 14.8364ZM310.272 13.9932H311.857C312.369 13.9932 312.775 13.8607 313.076 13.5957C313.38 13.3307 313.532 12.9762 313.532 12.5322C313.532 12.0488 313.387 11.6782 313.097 11.4204C312.811 11.1626 312.395 11.0319 311.851 11.0283H310.272V13.9932ZM318.116 18H317.084V10.1797H318.116V18ZM320.996 18V10.1797H323.204C323.884 10.1797 324.486 10.3301 325.008 10.6309C325.531 10.9316 325.934 11.3595 326.217 11.9146C326.503 12.4696 326.648 13.1069 326.652 13.8267V14.3262C326.652 15.0638 326.509 15.7101 326.222 16.2651C325.939 16.8201 325.533 17.2463 325.003 17.5435C324.477 17.8407 323.863 17.9928 323.161 18H320.996ZM322.027 11.0283V17.1567H323.112C323.907 17.1567 324.525 16.9097 324.965 16.4155C325.409 15.9214 325.631 15.2178 325.631 14.3047V13.8481C325.631 12.9601 325.422 12.2708 325.003 11.7803C324.588 11.2861 323.997 11.0355 323.231 11.0283H322.027Z" fill="black"/>
<circle cx="408.5" cy="11.5" r="1.5" fill="#444444"/>
<circle cx="414.5" cy="11.5" r="1.5" fill="#444444"/>
<circle cx="408.5" cy="17.5" r="1.5" fill="#444444"/>
<circle cx="414.5" cy="17.5" r="1.5" fill="#444444"/>
<rect x="441" y="8" width="1" height="11" fill="#444444"/>
<rect x="436" y="13" width="11" height="1" fill="#444444"/>
<path d="M89 80H222C224.209 80 226 81.7909 226 84V100C226 102.209 224.209 104 222 104H89V80Z" fill="#D4D4D4"/>
<path d="M89 104L25 104C22.7909 104 21 102.209 21 100V84C21 81.7909 22.7909 80 25 80H89V104Z" fill="#30C1FF"/>
<path d="M51.6816 94.9741C51.4167 95.3537 51.0461 95.6383 50.5698 95.8281C50.0972 96.0143 49.5457 96.1074 48.9155 96.1074C48.2782 96.1074 47.7124 95.9588 47.2183 95.6616C46.7241 95.3608 46.341 94.9347 46.0688 94.3833C45.8003 93.8319 45.6624 93.1927 45.6553 92.4658V91.7837C45.6553 90.6056 45.9292 89.6925 46.4771 89.0444C47.0285 88.3963 47.8019 88.0723 48.7974 88.0723C49.6138 88.0723 50.2708 88.2817 50.7686 88.7007C51.2663 89.116 51.5706 89.7069 51.6816 90.4731H50.6504C50.457 89.4383 49.8411 88.9209 48.8027 88.9209C48.1117 88.9209 47.5871 89.1644 47.229 89.6514C46.8745 90.1348 46.6955 90.8366 46.6919 91.7568V92.396C46.6919 93.2733 46.8924 93.9715 47.2935 94.4907C47.6945 95.0063 48.237 95.2642 48.9209 95.2642C49.3076 95.2642 49.646 95.2212 49.936 95.1353C50.2261 95.0493 50.466 94.9043 50.6558 94.7002V92.9438H48.8457V92.106H51.6816V94.9741ZM56.0591 91.0801C55.9087 91.055 55.7458 91.0425 55.5703 91.0425C54.9186 91.0425 54.4764 91.32 54.2437 91.875V96H53.25V90.1885H54.2168L54.2329 90.8599C54.5588 90.3407 55.0207 90.0811 55.6187 90.0811C55.812 90.0811 55.9588 90.1061 56.0591 90.1562V91.0801ZM58.0571 96H57.0635V90.1885H58.0571V96ZM56.9829 88.647C56.9829 88.4858 57.0312 88.3498 57.1279 88.2388C57.2282 88.1278 57.375 88.0723 57.5684 88.0723C57.7617 88.0723 57.9085 88.1278 58.0088 88.2388C58.109 88.3498 58.1592 88.4858 58.1592 88.647C58.1592 88.8081 58.109 88.9424 58.0088 89.0498C57.9085 89.1572 57.7617 89.2109 57.5684 89.2109C57.375 89.2109 57.2282 89.1572 57.1279 89.0498C57.0312 88.9424 56.9829 88.8081 56.9829 88.647ZM59.4106 93.0459C59.4106 92.1543 59.6219 91.4382 60.0444 90.8975C60.467 90.3532 61.0202 90.0811 61.7041 90.0811C62.3844 90.0811 62.9233 90.3138 63.3208 90.7793V87.75H64.3145V96H63.4014L63.353 95.377C62.9556 95.8639 62.4023 96.1074 61.6934 96.1074C61.0202 96.1074 60.4705 95.8317 60.0444 95.2803C59.6219 94.7288 59.4106 94.0091 59.4106 93.1211V93.0459ZM60.4043 93.1587C60.4043 93.8175 60.5404 94.3332 60.8125 94.7056C61.0846 95.078 61.4606 95.2642 61.9404 95.2642C62.5706 95.2642 63.0308 94.9813 63.3208 94.4155V91.7461C63.0236 91.1982 62.5671 90.9243 61.9512 90.9243C61.4642 90.9243 61.0846 91.1123 60.8125 91.4883C60.5404 91.8643 60.4043 92.4211 60.4043 93.1587Z" fill="white"/>
<path d="M108.66 93.5186C108.563 94.3457 108.257 94.9849 107.742 95.436C107.23 95.8836 106.548 96.1074 105.695 96.1074C104.771 96.1074 104.03 95.7762 103.472 95.1138C102.917 94.4513 102.639 93.5651 102.639 92.4551V91.7031C102.639 90.9762 102.768 90.3371 103.026 89.7856C103.287 89.2342 103.656 88.8117 104.132 88.5181C104.609 88.2209 105.16 88.0723 105.787 88.0723C106.617 88.0723 107.283 88.305 107.785 88.7705C108.286 89.2324 108.578 89.8734 108.66 90.6934H107.624C107.534 90.0703 107.339 89.6191 107.038 89.3398C106.741 89.0605 106.324 88.9209 105.787 88.9209C105.128 88.9209 104.61 89.1644 104.234 89.6514C103.862 90.1383 103.676 90.8312 103.676 91.73V92.4873C103.676 93.3359 103.853 94.0109 104.208 94.5122C104.562 95.0135 105.058 95.2642 105.695 95.2642C106.268 95.2642 106.707 95.1353 107.011 94.8774C107.319 94.616 107.523 94.1631 107.624 93.5186H108.66ZM109.654 93.0405C109.654 92.4712 109.765 91.9591 109.987 91.5044C110.212 91.0496 110.524 90.6987 110.921 90.4517C111.322 90.2046 111.779 90.0811 112.291 90.0811C113.082 90.0811 113.722 90.355 114.208 90.9028C114.699 91.4507 114.944 92.1794 114.944 93.0889V93.1587C114.944 93.7244 114.835 94.2329 114.617 94.6841C114.402 95.1317 114.092 95.4808 113.688 95.7314C113.286 95.9821 112.825 96.1074 112.302 96.1074C111.514 96.1074 110.875 95.8335 110.384 95.2856C109.897 94.7378 109.654 94.0127 109.654 93.1104V93.0405ZM110.653 93.1587C110.653 93.8032 110.801 94.3206 111.099 94.7109C111.399 95.1012 111.8 95.2964 112.302 95.2964C112.807 95.2964 113.208 95.0994 113.505 94.7056C113.802 94.3081 113.951 93.7531 113.951 93.0405C113.951 92.4032 113.799 91.8875 113.494 91.4937C113.193 91.0962 112.792 90.8975 112.291 90.8975C111.8 90.8975 111.405 91.0926 111.104 91.4829C110.803 91.8732 110.653 92.4318 110.653 93.1587ZM117.27 96H116.276V87.75H117.27V96ZM122.453 95.4253C122.066 95.88 121.499 96.1074 120.75 96.1074C120.131 96.1074 119.658 95.9284 119.333 95.5703C119.01 95.2087 118.847 94.6751 118.844 93.9697V90.1885H119.837V93.9429C119.837 94.8237 120.195 95.2642 120.912 95.2642C121.671 95.2642 122.176 94.9813 122.426 94.4155V90.1885H123.42V96H122.475L122.453 95.4253ZM125.869 90.1885L125.896 90.833C126.322 90.3317 126.897 90.0811 127.62 90.0811C128.433 90.0811 128.986 90.3926 129.28 91.0156C129.473 90.7363 129.724 90.5107 130.032 90.3389C130.343 90.167 130.71 90.0811 131.133 90.0811C132.408 90.0811 133.056 90.756 133.077 92.106V96H132.083V92.165C132.083 91.7497 131.989 91.4399 131.799 91.2358C131.609 91.0282 131.29 90.9243 130.843 90.9243C130.474 90.9243 130.168 91.0353 129.924 91.2573C129.681 91.4757 129.539 91.7712 129.5 92.1436V96H128.501V92.1919C128.501 91.3468 128.087 90.9243 127.26 90.9243C126.609 90.9243 126.163 91.2018 125.923 91.7568V96H124.929V90.1885H125.869ZM135.521 90.1885L135.553 90.9189C135.997 90.3604 136.577 90.0811 137.293 90.0811C138.522 90.0811 139.141 90.7739 139.152 92.1597V96H138.158V92.1543C138.155 91.7354 138.058 91.4256 137.868 91.2251C137.682 91.0246 137.39 90.9243 136.993 90.9243C136.67 90.9243 136.388 91.0103 136.144 91.1821C135.901 91.354 135.711 91.5796 135.575 91.8589V96H134.581V90.1885H135.521ZM144.034 94.4585C144.034 94.1899 143.932 93.9823 143.728 93.8354C143.528 93.6851 143.175 93.5562 142.67 93.4487C142.169 93.3413 141.769 93.2124 141.472 93.062C141.179 92.9116 140.96 92.7326 140.817 92.5249C140.677 92.3172 140.607 92.0701 140.607 91.7837C140.607 91.3075 140.808 90.9046 141.209 90.5752C141.614 90.2458 142.129 90.0811 142.756 90.0811C143.415 90.0811 143.948 90.2511 144.356 90.5913C144.768 90.9315 144.974 91.3665 144.974 91.8965H143.975C143.975 91.6243 143.859 91.3898 143.626 91.1929C143.397 90.9959 143.107 90.8975 142.756 90.8975C142.394 90.8975 142.111 90.9762 141.907 91.1338C141.703 91.2913 141.601 91.4972 141.601 91.7515C141.601 91.9914 141.696 92.1722 141.886 92.2939C142.076 92.4157 142.417 92.5321 142.912 92.6431C143.409 92.7541 143.812 92.8866 144.12 93.0405C144.428 93.1945 144.655 93.3807 144.802 93.5991C144.953 93.814 145.028 94.0771 145.028 94.3887C145.028 94.9079 144.82 95.325 144.405 95.6401C143.989 95.9517 143.451 96.1074 142.788 96.1074C142.323 96.1074 141.911 96.0251 141.553 95.8604C141.195 95.6956 140.914 95.4665 140.709 95.1729C140.509 94.8757 140.409 94.5552 140.409 94.2114H141.402C141.42 94.5444 141.553 94.8094 141.8 95.0063C142.05 95.1997 142.38 95.2964 142.788 95.2964C143.164 95.2964 143.465 95.2212 143.69 95.0708C143.92 94.9168 144.034 94.7127 144.034 94.4585Z" fill="white"/>
<path d="M182.776 92.8364H180.939V96H179.902V88.1797H182.491C183.372 88.1797 184.049 88.3802 184.521 88.7812C184.998 89.1823 185.236 89.766 185.236 90.5322C185.236 91.0192 185.103 91.4435 184.838 91.8052C184.577 92.1668 184.212 92.4372 183.743 92.6162L185.58 95.9355V96H184.473L182.776 92.8364ZM180.939 91.9932H182.523C183.035 91.9932 183.442 91.8607 183.743 91.5957C184.047 91.3307 184.199 90.9762 184.199 90.5322C184.199 90.0488 184.054 89.6782 183.764 89.4204C183.478 89.1626 183.062 89.0319 182.518 89.0283H180.939V91.9932ZM186.267 93.0405C186.267 92.4712 186.378 91.9591 186.6 91.5044C186.826 91.0496 187.137 90.6987 187.535 90.4517C187.936 90.2046 188.392 90.0811 188.904 90.0811C189.696 90.0811 190.335 90.355 190.822 90.9028C191.312 91.4507 191.558 92.1794 191.558 93.0889V93.1587C191.558 93.7244 191.448 94.2329 191.23 94.6841C191.015 95.1317 190.705 95.4808 190.301 95.7314C189.9 95.9821 189.438 96.1074 188.915 96.1074C188.127 96.1074 187.488 95.8335 186.998 95.2856C186.511 94.7378 186.267 94.0127 186.267 93.1104V93.0405ZM187.266 93.1587C187.266 93.8032 187.415 94.3206 187.712 94.7109C188.013 95.1012 188.414 95.2964 188.915 95.2964C189.42 95.2964 189.821 95.0994 190.118 94.7056C190.415 94.3081 190.564 93.7531 190.564 93.0405C190.564 92.4032 190.412 91.8875 190.107 91.4937C189.807 91.0962 189.406 90.8975 188.904 90.8975C188.414 90.8975 188.018 91.0926 187.717 91.4829C187.417 91.8732 187.266 92.4318 187.266 93.1587ZM197.949 94.6304L199.066 90.1885H200.06L198.368 96H197.562L196.15 91.5957L194.775 96H193.969L192.283 90.1885H193.271L194.415 94.5391L195.769 90.1885H196.569L197.949 94.6304ZM204.459 94.4585C204.459 94.1899 204.357 93.9823 204.153 93.8354C203.952 93.6851 203.6 93.5562 203.095 93.4487C202.593 93.3413 202.194 93.2124 201.897 93.062C201.603 92.9116 201.385 92.7326 201.242 92.5249C201.102 92.3172 201.032 92.0701 201.032 91.7837C201.032 91.3075 201.233 90.9046 201.634 90.5752C202.038 90.2458 202.554 90.0811 203.181 90.0811C203.84 90.0811 204.373 90.2511 204.781 90.5913C205.193 90.9315 205.399 91.3665 205.399 91.8965H204.4C204.4 91.6243 204.284 91.3898 204.051 91.1929C203.822 90.9959 203.532 90.8975 203.181 90.8975C202.819 90.8975 202.536 90.9762 202.332 91.1338C202.128 91.2913 202.026 91.4972 202.026 91.7515C202.026 91.9914 202.121 92.1722 202.311 92.2939C202.5 92.4157 202.842 92.5321 203.336 92.6431C203.834 92.7541 204.237 92.8866 204.545 93.0405C204.853 93.1945 205.08 93.3807 205.227 93.5991C205.377 93.814 205.453 94.0771 205.453 94.3887C205.453 94.9079 205.245 95.325 204.83 95.6401C204.414 95.9517 203.875 96.1074 203.213 96.1074C202.747 96.1074 202.336 96.0251 201.978 95.8604C201.619 95.6956 201.338 95.4665 201.134 95.1729C200.934 94.8757 200.833 94.5552 200.833 94.2114H201.827C201.845 94.5444 201.978 94.8094 202.225 95.0063C202.475 95.1997 202.805 95.2964 203.213 95.2964C203.589 95.2964 203.89 95.2212 204.115 95.0708C204.344 94.9168 204.459 94.7127 204.459 94.4585Z" fill="white"/>
<path d="M192.47 162H191.471V155.377L189.467 156.113V155.211L192.314 154.142H192.47V162ZM199.441 158.665C199.441 159.828 199.243 160.693 198.845 161.259C198.448 161.825 197.826 162.107 196.981 162.107C196.147 162.107 195.529 161.832 195.128 161.28C194.727 160.725 194.52 159.898 194.505 158.799V157.472C194.505 156.323 194.704 155.469 195.102 154.91C195.499 154.352 196.122 154.072 196.971 154.072C197.812 154.072 198.432 154.343 198.829 154.883C199.227 155.42 199.431 156.251 199.441 157.375V158.665ZM198.448 157.306C198.448 156.464 198.33 155.852 198.093 155.469C197.857 155.082 197.483 154.889 196.971 154.889C196.462 154.889 196.092 155.08 195.859 155.463C195.626 155.847 195.506 156.436 195.499 157.23V158.82C195.499 159.665 195.621 160.29 195.864 160.695C196.111 161.096 196.484 161.296 196.981 161.296C197.472 161.296 197.835 161.107 198.072 160.727C198.312 160.347 198.437 159.75 198.448 158.933V157.306ZM200.736 155.684C200.736 155.215 200.884 154.828 201.182 154.523C201.482 154.219 201.867 154.067 202.336 154.067C202.813 154.067 203.198 154.221 203.491 154.529C203.788 154.833 203.937 155.229 203.937 155.716V156.097C203.937 156.57 203.787 156.957 203.486 157.257C203.189 157.555 202.809 157.703 202.347 157.703C201.882 157.703 201.497 157.555 201.192 157.257C200.888 156.957 200.736 156.557 200.736 156.06V155.684ZM201.477 156.097C201.477 156.376 201.556 156.607 201.713 156.79C201.871 156.969 202.082 157.059 202.347 157.059C202.601 157.059 202.806 156.971 202.959 156.795C203.117 156.62 203.196 156.38 203.196 156.076V155.684C203.196 155.404 203.119 155.173 202.965 154.991C202.811 154.808 202.601 154.717 202.336 154.717C202.071 154.717 201.862 154.808 201.708 154.991C201.554 155.173 201.477 155.411 201.477 155.705V156.097ZM204.544 160.083C204.544 159.613 204.693 159.229 204.99 158.928C205.291 158.623 205.675 158.471 206.145 158.471C206.614 158.471 206.999 158.622 207.299 158.922C207.6 159.223 207.75 159.622 207.75 160.12V160.501C207.75 160.971 207.6 161.357 207.299 161.662C207.002 161.962 206.621 162.113 206.155 162.113C205.69 162.113 205.305 161.964 205 161.667C204.696 161.366 204.544 160.967 204.544 160.469V160.083ZM205.285 160.501C205.285 160.784 205.364 161.017 205.521 161.2C205.679 161.379 205.89 161.468 206.155 161.468C206.413 161.468 206.619 161.381 206.773 161.205C206.927 161.026 207.004 160.784 207.004 160.48V160.083C207.004 159.8 206.925 159.569 206.768 159.39C206.614 159.211 206.406 159.121 206.145 159.121C205.89 159.121 205.683 159.211 205.521 159.39C205.364 159.565 205.285 159.803 205.285 160.104V160.501ZM202.573 161.409L202.009 161.055L205.828 154.942L206.392 155.297L202.573 161.409Z" fill="#2C2C2C"/>
<path d="M192.47 162H191.471V155.377L189.467 156.113V155.211L192.314 154.142H192.47V162ZM199.441 158.665C199.441 159.828 199.243 160.693 198.845 161.259C198.448 161.825 197.826 162.107 196.981 162.107C196.147 162.107 195.529 161.832 195.128 161.28C194.727 160.725 194.52 159.898 194.505 158.799V157.472C194.505 156.323 194.704 155.469 195.102 154.91C195.499 154.352 196.122 154.072 196.971 154.072C197.812 154.072 198.432 154.343 198.829 154.883C199.227 155.42 199.431 156.251 199.441 157.375V158.665ZM198.448 157.306C198.448 156.464 198.33 155.852 198.093 155.469C197.857 155.082 197.483 154.889 196.971 154.889C196.462 154.889 196.092 155.08 195.859 155.463C195.626 155.847 195.506 156.436 195.499 157.23V158.82C195.499 159.665 195.621 160.29 195.864 160.695C196.111 161.096 196.484 161.296 196.981 161.296C197.472 161.296 197.835 161.107 198.072 160.727C198.312 160.347 198.437 159.75 198.448 158.933V157.306ZM200.736 155.684C200.736 155.215 200.884 154.828 201.182 154.523C201.482 154.219 201.867 154.067 202.336 154.067C202.813 154.067 203.198 154.221 203.491 154.529C203.788 154.833 203.937 155.229 203.937 155.716V156.097C203.937 156.57 203.787 156.957 203.486 157.257C203.189 157.555 202.809 157.703 202.347 157.703C201.882 157.703 201.497 157.555 201.192 157.257C200.888 156.957 200.736 156.557 200.736 156.06V155.684ZM201.477 156.097C201.477 156.376 201.556 156.607 201.713 156.79C201.871 156.969 202.082 157.059 202.347 157.059C202.601 157.059 202.806 156.971 202.959 156.795C203.117 156.62 203.196 156.38 203.196 156.076V155.684C203.196 155.404 203.119 155.173 202.965 154.991C202.811 154.808 202.601 154.717 202.336 154.717C202.071 154.717 201.862 154.808 201.708 154.991C201.554 155.173 201.477 155.411 201.477 155.705V156.097ZM204.544 160.083C204.544 159.613 204.693 159.229 204.99 158.928C205.291 158.623 205.675 158.471 206.145 158.471C206.614 158.471 206.999 158.622 207.299 158.922C207.6 159.223 207.75 159.622 207.75 160.12V160.501C207.75 160.971 207.6 161.357 207.299 161.662C207.002 161.962 206.621 162.113 206.155 162.113C205.69 162.113 205.305 161.964 205 161.667C204.696 161.366 204.544 160.967 204.544 160.469V160.083ZM205.285 160.501C205.285 160.784 205.364 161.017 205.521 161.2C205.679 161.379 205.89 161.468 206.155 161.468C206.413 161.468 206.619 161.381 206.773 161.205C206.927 161.026 207.004 160.784 207.004 160.48V160.083C207.004 159.8 206.925 159.569 206.768 159.39C206.614 159.211 206.406 159.121 206.145 159.121C205.89 159.121 205.683 159.211 205.521 159.39C205.364 159.565 205.285 159.803 205.285 160.104V160.501ZM202.573 161.409L202.009 161.055L205.828 154.942L206.392 155.297L202.573 161.409Z" fill="#2C2C2C"/>
<rect x="183.5" y="146.5" width="41" height="23" rx="3.5" stroke="#D4D4D4"/>
<path d="M24.2119 132.514C23.3275 132.26 22.6829 131.948 22.2783 131.58C21.8773 131.207 21.6768 130.749 21.6768 130.205C21.6768 129.589 21.922 129.08 22.4126 128.679C22.9067 128.275 23.5477 128.072 24.3354 128.072C24.8726 128.072 25.3506 128.176 25.7695 128.384C26.1921 128.591 26.5179 128.878 26.7471 129.243C26.9798 129.608 27.0962 130.008 27.0962 130.441H26.0596C26.0596 129.968 25.9092 129.598 25.6084 129.329C25.3076 129.057 24.8833 128.921 24.3354 128.921C23.827 128.921 23.4295 129.034 23.1431 129.259C22.8602 129.481 22.7188 129.791 22.7188 130.188C22.7188 130.507 22.853 130.778 23.1216 131C23.3937 131.218 23.8538 131.418 24.502 131.601C25.1536 131.784 25.6621 131.986 26.0273 132.208C26.3962 132.426 26.6683 132.682 26.8438 132.976C27.0228 133.27 27.1123 133.615 27.1123 134.013C27.1123 134.646 26.8652 135.155 26.3711 135.538C25.877 135.918 25.2163 136.107 24.3892 136.107C23.8521 136.107 23.3507 136.005 22.8853 135.801C22.4198 135.594 22.0599 135.311 21.8057 134.953C21.555 134.595 21.4297 134.188 21.4297 133.733H22.4663C22.4663 134.206 22.64 134.58 22.9873 134.856C23.3382 135.128 23.8055 135.264 24.3892 135.264C24.9334 135.264 25.3506 135.153 25.6406 134.931C25.9307 134.709 26.0757 134.407 26.0757 134.023C26.0757 133.64 25.9414 133.345 25.6729 133.137C25.4043 132.926 24.9173 132.718 24.2119 132.514ZM29.3628 136H28.3691V130.188H29.3628V136ZM28.2886 128.647C28.2886 128.486 28.3369 128.35 28.4336 128.239C28.5339 128.128 28.6807 128.072 28.874 128.072C29.0674 128.072 29.2142 128.128 29.3145 128.239C29.4147 128.35 29.4648 128.486 29.4648 128.647C29.4648 128.808 29.4147 128.942 29.3145 129.05C29.2142 129.157 29.0674 129.211 28.874 129.211C28.6807 129.211 28.5339 129.157 28.4336 129.05C28.3369 128.942 28.2886 128.808 28.2886 128.647ZM31.8926 135.189H35.2925V136H30.6787V135.27L33.8853 131.01H30.7271V130.188H35.1313V130.892L31.8926 135.189ZM38.7407 136.107C37.953 136.107 37.312 135.85 36.8179 135.334C36.3237 134.815 36.0767 134.122 36.0767 133.255V133.073C36.0767 132.496 36.1859 131.982 36.4043 131.531C36.6263 131.076 36.9342 130.722 37.3281 130.468C37.7256 130.21 38.1553 130.081 38.6172 130.081C39.3727 130.081 39.96 130.33 40.3789 130.828C40.7979 131.325 41.0073 132.038 41.0073 132.965V133.379H37.0703C37.0846 133.952 37.2511 134.416 37.5698 134.77C37.8921 135.121 38.3003 135.296 38.7944 135.296C39.1453 135.296 39.4425 135.225 39.686 135.082C39.9295 134.938 40.1426 134.749 40.3252 134.512L40.9321 134.985C40.4451 135.733 39.7147 136.107 38.7407 136.107ZM38.6172 130.897C38.2161 130.897 37.8796 131.044 37.6074 131.338C37.3353 131.628 37.167 132.036 37.1025 132.562H40.0137V132.487C39.985 131.982 39.849 131.592 39.6055 131.316C39.362 131.037 39.0326 130.897 38.6172 130.897Z" fill="#B3B3B3"/>
<path d="M31.5 156.221C31.5 156.611 31.3962 156.958 31.1885 157.263C30.9844 157.567 30.7069 157.805 30.356 157.977C30.7642 158.153 31.0864 158.409 31.3228 158.745C31.5627 159.082 31.6826 159.463 31.6826 159.889C31.6826 160.566 31.4535 161.105 30.9951 161.506C30.5404 161.907 29.9406 162.107 29.1958 162.107C28.4438 162.107 27.8405 161.907 27.3857 161.506C26.9346 161.101 26.709 160.562 26.709 159.889C26.709 159.467 26.8236 159.085 27.0527 158.745C27.2855 158.405 27.606 158.147 28.0142 157.972C27.6668 157.8 27.3929 157.562 27.1924 157.257C26.9919 156.953 26.8916 156.607 26.8916 156.221C26.8916 155.562 27.1029 155.039 27.5254 154.652C27.9479 154.266 28.5047 154.072 29.1958 154.072C29.8833 154.072 30.4383 154.266 30.8608 154.652C31.2869 155.039 31.5 155.562 31.5 156.221ZM30.689 159.868C30.689 159.431 30.5493 159.075 30.27 158.799C29.9943 158.523 29.6326 158.385 29.1851 158.385C28.7375 158.385 28.3776 158.521 28.1055 158.793C27.8369 159.066 27.7026 159.424 27.7026 159.868C27.7026 160.312 27.8333 160.661 28.0947 160.915C28.3597 161.169 28.7267 161.296 29.1958 161.296C29.6613 161.296 30.0265 161.169 30.2915 160.915C30.5565 160.657 30.689 160.308 30.689 159.868ZM29.1958 154.889C28.8055 154.889 28.4886 155.01 28.2451 155.254C28.0052 155.494 27.8853 155.821 27.8853 156.237C27.8853 156.634 28.0034 156.957 28.2397 157.204C28.4797 157.447 28.7983 157.569 29.1958 157.569C29.5933 157.569 29.9102 157.447 30.1465 157.204C30.3864 156.957 30.5063 156.634 30.5063 156.237C30.5063 155.839 30.3828 155.515 30.1357 155.265C29.8887 155.014 29.5754 154.889 29.1958 154.889Z" fill="#2C2C2C"/>
<path d="M31.5 156.221C31.5 156.611 31.3962 156.958 31.1885 157.263C30.9844 157.567 30.7069 157.805 30.356 157.977C30.7642 158.153 31.0864 158.409 31.3228 158.745C31.5627 159.082 31.6826 159.463 31.6826 159.889C31.6826 160.566 31.4535 161.105 30.9951 161.506C30.5404 161.907 29.9406 162.107 29.1958 162.107C28.4438 162.107 27.8405 161.907 27.3857 161.506C26.9346 161.101 26.709 160.562 26.709 159.889C26.709 159.467 26.8236 159.085 27.0527 158.745C27.2855 158.405 27.606 158.147 28.0142 157.972C27.6668 157.8 27.3929 157.562 27.1924 157.257C26.9919 156.953 26.8916 156.607 26.8916 156.221C26.8916 155.562 27.1029 155.039 27.5254 154.652C27.9479 154.266 28.5047 154.072 29.1958 154.072C29.8833 154.072 30.4383 154.266 30.8608 154.652C31.2869 155.039 31.5 155.562 31.5 156.221ZM30.689 159.868C30.689 159.431 30.5493 159.075 30.27 158.799C29.9943 158.523 29.6326 158.385 29.1851 158.385C28.7375 158.385 28.3776 158.521 28.1055 158.793C27.8369 159.066 27.7026 159.424 27.7026 159.868C27.7026 160.312 27.8333 160.661 28.0947 160.915C28.3597 161.169 28.7267 161.296 29.1958 161.296C29.6613 161.296 30.0265 161.169 30.2915 160.915C30.5565 160.657 30.689 160.308 30.689 159.868ZM29.1958 154.889C28.8055 154.889 28.4886 155.01 28.2451 155.254C28.0052 155.494 27.8853 155.821 27.8853 156.237C27.8853 156.634 28.0034 156.957 28.2397 157.204C28.4797 157.447 28.7983 157.569 29.1958 157.569C29.5933 157.569 29.9102 157.447 30.1465 157.204C30.3864 156.957 30.5063 156.634 30.5063 156.237C30.5063 155.839 30.3828 155.515 30.1357 155.265C29.8887 155.014 29.5754 154.889 29.1958 154.889Z" fill="#2C2C2C"/>
<rect x="22" y="147" width="62" height="22" rx="3" stroke="#30C1FF" stroke-width="2"/>
<path d="M91 150C91 147.791 92.7909 146 95 146H115V158H91V150Z" fill="#E61818"/>
<path opacity="0.3" d="M91 158H115V170H95C92.7909 170 91 168.209 91 166V158Z" fill="#E61818"/>
<rect x="91.5" y="146.5" width="85" height="23" rx="3.5" stroke="#D4D4D4"/>
<path d="M123.109 159.798H121.691L121.261 162H120.493L120.923 159.798H119.639V159.062H121.062L121.433 157.161H120.047V156.414H121.578L122.019 154.18H122.787L122.346 156.414H123.764L124.205 154.18H124.978L124.538 156.414H125.633V157.161H124.393L124.022 159.062H125.23V159.798H123.882L123.453 162H122.679L123.109 159.798ZM121.831 159.062H123.249L123.619 157.161H122.201L121.831 159.062ZM130.999 158.546H127.717V162H126.686V154.18H131.531V155.028H127.717V157.703H130.999V158.546ZM137.079 158.546H133.797V162H132.766V154.18H137.611V155.028H133.797V157.703H137.079V158.546ZM143.6 158.665C143.6 159.828 143.401 160.693 143.003 161.259C142.606 161.825 141.985 162.107 141.14 162.107C140.305 162.107 139.688 161.832 139.287 161.28C138.886 160.725 138.678 159.898 138.664 158.799V157.472C138.664 156.323 138.862 155.469 139.26 154.91C139.657 154.352 140.28 154.072 141.129 154.072C141.97 154.072 142.59 154.343 142.987 154.883C143.385 155.42 143.589 156.251 143.6 157.375V158.665ZM142.606 157.306C142.606 156.464 142.488 155.852 142.251 155.469C142.015 155.082 141.641 154.889 141.129 154.889C140.62 154.889 140.25 155.08 140.017 155.463C139.784 155.847 139.664 156.436 139.657 157.23V158.82C139.657 159.665 139.779 160.29 140.022 160.695C140.27 161.096 140.642 161.296 141.14 161.296C141.63 161.296 141.994 161.107 142.23 160.727C142.47 160.347 142.595 159.75 142.606 158.933V157.306ZM149.991 158.665C149.991 159.828 149.792 160.693 149.395 161.259C148.998 161.825 148.376 162.107 147.531 162.107C146.697 162.107 146.079 161.832 145.678 161.28C145.277 160.725 145.069 159.898 145.055 158.799V157.472C145.055 156.323 145.254 155.469 145.651 154.91C146.049 154.352 146.672 154.072 147.521 154.072C148.362 154.072 148.981 154.343 149.379 154.883C149.776 155.42 149.98 156.251 149.991 157.375V158.665ZM148.998 157.306C148.998 156.464 148.879 155.852 148.643 155.469C148.407 155.082 148.033 154.889 147.521 154.889C147.012 154.889 146.641 155.08 146.409 155.463C146.176 155.847 146.056 156.436 146.049 157.23V158.82C146.049 159.665 146.171 160.29 146.414 160.695C146.661 161.096 147.034 161.296 147.531 161.296C148.022 161.296 148.385 161.107 148.622 160.727C148.861 160.347 148.987 159.75 148.998 158.933V157.306ZM156.383 158.665C156.383 159.828 156.184 160.693 155.787 161.259C155.389 161.825 154.768 162.107 153.923 162.107C153.089 162.107 152.471 161.832 152.07 161.28C151.669 160.725 151.461 159.898 151.447 158.799V157.472C151.447 156.323 151.646 155.469 152.043 154.91C152.44 154.352 153.063 154.072 153.912 154.072C154.754 154.072 155.373 154.343 155.771 154.883C156.168 155.42 156.372 156.251 156.383 157.375V158.665ZM155.389 157.306C155.389 156.464 155.271 155.852 155.035 155.469C154.798 155.082 154.424 154.889 153.912 154.889C153.404 154.889 153.033 155.08 152.8 155.463C152.568 155.847 152.448 156.436 152.44 157.23V158.82C152.44 159.665 152.562 160.29 152.806 160.695C153.053 161.096 153.425 161.296 153.923 161.296C154.413 161.296 154.777 161.107 155.013 160.727C155.253 160.347 155.378 159.75 155.389 158.933V157.306ZM162.774 158.665C162.774 159.828 162.576 160.693 162.178 161.259C161.781 161.825 161.16 162.107 160.314 162.107C159.48 162.107 158.862 161.832 158.461 161.28C158.06 160.725 157.853 159.898 157.838 158.799V157.472C157.838 156.323 158.037 155.469 158.435 154.91C158.832 154.352 159.455 154.072 160.304 154.072C161.145 154.072 161.765 154.343 162.162 154.883C162.56 155.42 162.764 156.251 162.774 157.375V158.665ZM161.781 157.306C161.781 156.464 161.663 155.852 161.426 155.469C161.19 155.082 160.816 154.889 160.304 154.889C159.795 154.889 159.425 155.08 159.192 155.463C158.959 155.847 158.839 156.436 158.832 157.23V158.82C158.832 159.665 158.954 160.29 159.197 160.695C159.444 161.096 159.817 161.296 160.314 161.296C160.805 161.296 161.168 161.107 161.405 160.727C161.645 160.347 161.77 159.75 161.781 158.933V157.306Z" fill="#2C2C2C"/>
<path d="M123.109 159.798H121.691L121.261 162H120.493L120.923 159.798H119.639V159.062H121.062L121.433 157.161H120.047V156.414H121.578L122.019 154.18H122.787L122.346 156.414H123.764L124.205 154.18H124.978L124.538 156.414H125.633V157.161H124.393L124.022 159.062H125.23V159.798H123.882L123.453 162H122.679L123.109 159.798ZM121.831 159.062H123.249L123.619 157.161H122.201L121.831 159.062ZM130.999 158.546H127.717V162H126.686V154.18H131.531V155.028H127.717V157.703H130.999V158.546ZM137.079 158.546H133.797V162H132.766V154.18H137.611V155.028H133.797V157.703H137.079V158.546ZM143.6 158.665C143.6 159.828 143.401 160.693 143.003 161.259C142.606 161.825 141.985 162.107 141.14 162.107C140.305 162.107 139.688 161.832 139.287 161.28C138.886 160.725 138.678 159.898 138.664 158.799V157.472C138.664 156.323 138.862 155.469 139.26 154.91C139.657 154.352 140.28 154.072 141.129 154.072C141.97 154.072 142.59 154.343 142.987 154.883C143.385 155.42 143.589 156.251 143.6 157.375V158.665ZM142.606 157.306C142.606 156.464 142.488 155.852 142.251 155.469C142.015 155.082 141.641 154.889 141.129 154.889C140.62 154.889 140.25 155.08 140.017 155.463C139.784 155.847 139.664 156.436 139.657 157.23V158.82C139.657 159.665 139.779 160.29 140.022 160.695C140.27 161.096 140.642 161.296 141.14 161.296C141.63 161.296 141.994 161.107 142.23 160.727C142.47 160.347 142.595 159.75 142.606 158.933V157.306ZM149.991 158.665C149.991 159.828 149.792 160.693 149.395 161.259C148.998 161.825 148.376 162.107 147.531 162.107C146.697 162.107 146.079 161.832 145.678 161.28C145.277 160.725 145.069 159.898 145.055 158.799V157.472C145.055 156.323 145.254 155.469 145.651 154.91C146.049 154.352 146.672 154.072 147.521 154.072C148.362 154.072 148.981 154.343 149.379 154.883C149.776 155.42 149.98 156.251 149.991 157.375V158.665ZM148.998 157.306C148.998 156.464 148.879 155.852 148.643 155.469C148.407 155.082 148.033 154.889 147.521 154.889C147.012 154.889 146.641 155.08 146.409 155.463C146.176 155.847 146.056 156.436 146.049 157.23V158.82C146.049 159.665 146.171 160.29 146.414 160.695C146.661 161.096 147.034 161.296 147.531 161.296C148.022 161.296 148.385 161.107 148.622 160.727C148.861 160.347 148.987 159.75 148.998 158.933V157.306ZM156.383 158.665C156.383 159.828 156.184 160.693 155.787 161.259C155.389 161.825 154.768 162.107 153.923 162.107C153.089 162.107 152.471 161.832 152.07 161.28C151.669 160.725 151.461 159.898 151.447 158.799V157.472C151.447 156.323 151.646 155.469 152.043 154.91C152.44 154.352 153.063 154.072 153.912 154.072C154.754 154.072 155.373 154.343 155.771 154.883C156.168 155.42 156.372 156.251 156.383 157.375V158.665ZM155.389 157.306C155.389 156.464 155.271 155.852 155.035 155.469C154.798 155.082 154.424 154.889 153.912 154.889C153.404 154.889 153.033 155.08 152.8 155.463C152.568 155.847 152.448 156.436 152.44 157.23V158.82C152.44 159.665 152.562 160.29 152.806 160.695C153.053 161.096 153.425 161.296 153.923 161.296C154.413 161.296 154.777 161.107 155.013 160.727C155.253 160.347 155.378 159.75 155.389 158.933V157.306ZM162.774 158.665C162.774 159.828 162.576 160.693 162.178 161.259C161.781 161.825 161.16 162.107 160.314 162.107C159.48 162.107 158.862 161.832 158.461 161.28C158.06 160.725 157.853 159.898 157.838 158.799V157.472C157.838 156.323 158.037 155.469 158.435 154.91C158.832 154.352 159.455 154.072 160.304 154.072C161.145 154.072 161.765 154.343 162.162 154.883C162.56 155.42 162.764 156.251 162.774 157.375V158.665ZM161.781 157.306C161.781 156.464 161.663 155.852 161.426 155.469C161.19 155.082 160.816 154.889 160.304 154.889C159.795 154.889 159.425 155.08 159.192 155.463C158.959 155.847 158.839 156.436 158.832 157.23V158.82C158.832 159.665 158.954 160.29 159.197 160.695C159.444 161.096 159.817 161.296 160.314 161.296C160.805 161.296 161.168 161.107 161.405 160.727C161.645 160.347 161.77 159.75 161.781 158.933V157.306Z" fill="#2C2C2C"/>
<path d="M97.6602 133.519C97.5635 134.346 97.2573 134.985 96.7417 135.436C96.2297 135.884 95.5475 136.107 94.6953 136.107C93.7715 136.107 93.0303 135.776 92.4717 135.114C91.9167 134.451 91.6392 133.565 91.6392 132.455V131.703C91.6392 130.976 91.7681 130.337 92.0259 129.786C92.2873 129.234 92.6561 128.812 93.1323 128.518C93.6086 128.221 94.16 128.072 94.7866 128.072C95.6174 128.072 96.2834 128.305 96.7847 128.771C97.286 129.232 97.5778 129.873 97.6602 130.693H96.6235C96.534 130.07 96.3389 129.619 96.0381 129.34C95.7409 129.061 95.3237 128.921 94.7866 128.921C94.1278 128.921 93.6104 129.164 93.2344 129.651C92.862 130.138 92.6758 130.831 92.6758 131.73V132.487C92.6758 133.336 92.853 134.011 93.2075 134.512C93.562 135.014 94.0579 135.264 94.6953 135.264C95.2682 135.264 95.7069 135.135 96.0112 134.877C96.3192 134.616 96.5233 134.163 96.6235 133.519H97.6602ZM98.6538 133.041C98.6538 132.471 98.7648 131.959 98.9868 131.504C99.2124 131.05 99.5239 130.699 99.9214 130.452C100.322 130.205 100.779 130.081 101.291 130.081C102.082 130.081 102.722 130.355 103.208 130.903C103.699 131.451 103.944 132.179 103.944 133.089V133.159C103.944 133.724 103.835 134.233 103.617 134.684C103.402 135.132 103.092 135.481 102.688 135.731C102.286 135.982 101.825 136.107 101.302 136.107C100.514 136.107 99.8748 135.833 99.3843 135.286C98.8973 134.738 98.6538 134.013 98.6538 133.11V133.041ZM99.6528 133.159C99.6528 133.803 99.8014 134.321 100.099 134.711C100.399 135.101 100.8 135.296 101.302 135.296C101.807 135.296 102.208 135.099 102.505 134.706C102.802 134.308 102.951 133.753 102.951 133.041C102.951 132.403 102.799 131.888 102.494 131.494C102.193 131.096 101.792 130.897 101.291 130.897C100.8 130.897 100.405 131.093 100.104 131.483C99.8032 131.873 99.6528 132.432 99.6528 133.159ZM106.27 136H105.276V127.75H106.27V136ZM107.602 133.041C107.602 132.471 107.713 131.959 107.935 131.504C108.161 131.05 108.472 130.699 108.87 130.452C109.271 130.205 109.727 130.081 110.239 130.081C111.031 130.081 111.67 130.355 112.157 130.903C112.647 131.451 112.893 132.179 112.893 133.089V133.159C112.893 133.724 112.783 134.233 112.565 134.684C112.35 135.132 112.04 135.481 111.636 135.731C111.235 135.982 110.773 136.107 110.25 136.107C109.462 136.107 108.823 135.833 108.333 135.286C107.846 134.738 107.602 134.013 107.602 133.11V133.041ZM108.601 133.159C108.601 133.803 108.75 134.321 109.047 134.711C109.348 135.101 109.749 135.296 110.25 135.296C110.755 135.296 111.156 135.099 111.453 134.706C111.75 134.308 111.899 133.753 111.899 133.041C111.899 132.403 111.747 131.888 111.442 131.494C111.142 131.096 110.741 130.897 110.239 130.897C109.749 130.897 109.353 131.093 109.052 131.483C108.751 131.873 108.601 132.432 108.601 133.159ZM116.948 131.08C116.797 131.055 116.634 131.042 116.459 131.042C115.807 131.042 115.365 131.32 115.132 131.875V136H114.139V130.188H115.105L115.122 130.86C115.447 130.341 115.909 130.081 116.507 130.081C116.701 130.081 116.847 130.106 116.948 130.156V131.08Z" fill="#B3B3B3"/>
<defs>
<filter id="filter0_d" x="4" y="64" width="237" height="128" filterUnits="userSpaceOnUse" color-interpolation-filters="sRGB">
<feFlood flood-opacity="0" result="BackgroundImageFix"/>
<feColorMatrix in="SourceAlpha" type="matrix" values="0 0 0 0 0 0 0 0 0 0 0 0 0 0 0 0 0 0 127 0"/>
<feOffset/>
<feGaussianBlur stdDeviation="2"/>
<feColorMatrix type="matrix" values="0 0 0 0 0 0 0 0 0 0 0 0 0 0 0 0 0 0 0.25 0"/>
<feBlend mode="normal" in2="BackgroundImageFix" result="effect1_dropShadow"/>
<feBlend mode="normal" in="SourceGraphic" in2="effect1_dropShadow" result="shape"/>
</filter>
</defs>
</svg>
