<svg width="544" height="320" viewBox="0 0 544 320" fill="none" xmlns="http://www.w3.org/2000/svg">
<rect x="40" y="208" width="448" height="24" fill="#00D9FF" fill-opacity="0.25"/>
<rect x="40" y="264" width="448" height="16" fill="#00D9FF" fill-opacity="0.25"/>
<rect x="40" y="232" width="448" height="32" fill="#FFFF7A" fill-opacity="0.5"/>
<rect x="40" y="176" width="448" height="32" fill="#FFFF7A" fill-opacity="0.5"/>
<rect x="168" y="176" width="16" height="112" fill="#DB00FF" fill-opacity="0.25"/>
<rect x="224" y="176" width="16" height="112" fill="#DB00FF" fill-opacity="0.25"/>
<rect x="344" y="176" width="8" height="112" fill="#DB00FF" fill-opacity="0.25"/>
<rect x="416" y="176" width="16" height="112" fill="#DB00FF" fill-opacity="0.25"/>
<path d="M448 176.5C456.56 176.5 463.5 183.44 463.5 192C463.5 200.56 456.56 207.5 448 207.5C439.44 207.5 432.5 200.56 432.5 192C432.5 183.44 439.44 176.5 448 176.5Z" fill="white" stroke="#008484"/>
<path d="M442.853 189.1C442.853 189.515 443.188 189.85 443.603 189.85C444.017 189.85 444.353 189.515 444.353 189.1H442.853ZM447.953 193.451V192.701C447.539 192.701 447.203 193.037 447.203 193.451H447.953ZM447.203 196.116C447.203 196.53 447.539 196.866 447.953 196.866C448.367 196.866 448.703 196.53 448.703 196.116H447.203ZM444.353 189.1C444.353 187.049 445.902 185.5 447.953 185.5V184C445.073 184 442.853 186.221 442.853 189.1H444.353ZM447.953 185.5C450.004 185.5 451.553 187.049 451.553 189.1H453.053C453.053 186.221 450.832 184 447.953 184V185.5ZM451.553 189.1C451.553 191.151 450.004 192.701 447.953 192.701V194.201C450.832 194.201 453.053 191.98 453.053 189.1H451.553ZM447.203 193.451V196.116H448.703V193.451H447.203Z" fill="#008484"/>
<path d="M256 232.5C264.56 232.5 271.5 239.44 271.5 248C271.5 256.56 264.56 263.5 256 263.5C247.44 263.5 240.5 256.56 240.5 248C240.5 239.44 247.44 232.5 256 232.5Z" fill="white" stroke="#008484"/>
<path d="M250.853 245.1C250.853 245.515 251.188 245.85 251.603 245.85C252.017 245.85 252.353 245.515 252.353 245.1H250.853ZM255.953 249.451V248.701C255.539 248.701 255.203 249.037 255.203 249.451H255.953ZM255.203 252.116C255.203 252.53 255.539 252.866 255.953 252.866C256.367 252.866 256.703 252.53 256.703 252.116H255.203ZM252.353 245.1C252.353 243.049 253.902 241.5 255.953 241.5V240C253.073 240 250.853 242.221 250.853 245.1H252.353ZM255.953 241.5C258.004 241.5 259.553 243.049 259.553 245.1H261.053C261.053 242.221 258.832 240 255.953 240V241.5ZM259.553 245.1C259.553 247.151 258.004 248.701 255.953 248.701V250.201C258.832 250.201 261.053 247.98 261.053 245.1H259.553ZM255.203 249.451V252.116H256.703V249.451H255.203Z" fill="#008484"/>
<rect x="184.5" y="176.5" width="159" height="31" rx="15.5" fill="white" stroke="#008484"/>
<path d="M206.768 186.904V185.816H199.92V186.936H205.52L200.704 196.856L201.824 197.256L206.768 186.904ZM214.928 197.128V196.024H209.248C211.872 193.624 214.224 191.32 214.224 188.872C214.224 187.4 213.696 185.688 210.976 185.688C209.392 185.688 208.48 186.248 208 186.568L208.496 187.48C208.768 187.32 209.584 186.808 210.864 186.808C212.192 186.808 212.944 187.32 212.944 189.016C212.944 191.48 208 195.688 207.616 196.088V197.128H214.928ZM224.947 191.304C224.947 188.52 224.291 185.72 221.059 185.72C217.779 185.72 216.819 188.552 216.819 191.656C216.819 194.776 217.747 197.272 220.787 197.272C223.795 197.272 224.947 194.856 224.947 191.304ZM223.635 191.4C223.635 193.688 223.315 196.184 220.867 196.184C218.643 196.184 218.131 193.88 218.131 191.592C218.131 189.48 218.451 186.792 220.963 186.792C223.331 186.792 223.635 189.416 223.635 191.4ZM239.728 191.304C239.728 188.52 239.072 185.72 235.84 185.72C232.56 185.72 231.6 188.552 231.6 191.656C231.6 194.776 232.528 197.272 235.568 197.272C238.576 197.272 239.728 194.856 239.728 191.304ZM238.416 191.4C238.416 193.688 238.096 196.184 235.648 196.184C233.424 196.184 232.912 193.88 232.912 191.592C232.912 189.48 233.232 186.792 235.744 186.792C238.112 186.792 238.416 189.416 238.416 191.4ZM250.338 191.304C250.338 188.52 249.682 185.72 246.45 185.72C243.17 185.72 242.21 188.552 242.21 191.656C242.21 194.776 243.138 197.272 246.178 197.272C249.186 197.272 250.338 194.856 250.338 191.304ZM249.026 191.4C249.026 193.688 248.706 196.184 246.258 196.184C244.034 196.184 243.522 193.88 243.522 191.592C243.522 189.48 243.842 186.792 246.354 186.792C248.722 186.792 249.026 189.416 249.026 191.4ZM260.947 191.304C260.947 188.52 260.291 185.72 257.059 185.72C253.779 185.72 252.819 188.552 252.819 191.656C252.819 194.776 253.747 197.272 256.787 197.272C259.795 197.272 260.947 194.856 260.947 191.304ZM259.635 191.4C259.635 193.688 259.315 196.184 256.867 196.184C254.643 196.184 254.131 193.88 254.131 191.592C254.131 189.48 254.451 186.792 256.963 186.792C259.331 186.792 259.635 189.416 259.635 191.4Z" fill="#14555A"/>
<path d="M64.4304 198H67.9984C70.9104 198 71.9984 196.656 71.9984 194.784C71.9984 193.104 70.7984 192.256 69.6144 192.048V192C70.5584 191.664 71.1824 190.752 71.1824 189.536C71.1824 187.888 70.0784 186.688 67.5184 186.688H64.4304V198ZM65.7424 196.912V192.72H67.5184C69.4384 192.72 70.6544 193.296 70.6544 194.832C70.6544 196.56 69.3264 196.912 67.7584 196.912H65.7424ZM65.7424 191.664V187.712H67.1824C68.8784 187.712 69.8384 188.208 69.8384 189.744C69.8384 190.976 69.1344 191.664 67.6944 191.664H65.7424ZM74.2503 198H75.5143V191.568C75.9303 190.928 76.7303 190.176 77.7863 190.176C78.2983 190.176 78.5543 190.224 78.8263 190.288L79.0343 189.216C78.8743 189.168 78.5223 189.072 78.0103 189.072C76.7783 189.072 75.9143 189.776 75.5143 190.432V189.264H74.2503V198ZM82.9498 198.192C84.4218 198.192 85.2858 197.568 86.1178 196.976V198H87.3338V189.264H86.1178V195.952C85.4458 196.432 84.4218 197.04 83.3018 197.04C81.7338 197.04 81.6218 195.952 81.6218 194.576V189.264H80.3738V194.832C80.3738 196.304 80.5498 198.192 82.9498 198.192ZM92.9919 198.192C93.5839 198.192 94.3999 198.032 94.8479 197.872L94.6239 196.832C94.2559 196.96 93.6319 197.088 93.1519 197.088C92.1439 197.088 91.5839 196.752 91.5839 195.52V190.336H94.3039V189.264H91.5679V187.472H90.3359V189.264H89.0559V190.336H90.3359V195.568C90.3359 197.632 91.3599 198.192 92.9919 198.192ZM99.3669 198.192C99.9589 198.192 100.775 198.032 101.223 197.872L100.999 196.832C100.631 196.96 100.007 197.088 99.5269 197.088C98.5189 197.088 97.9589 196.752 97.9589 195.52V190.336H100.679V189.264H97.9429V187.472H96.7109V189.264H95.4309V190.336H96.7109V195.568C96.7109 197.632 97.7349 198.192 99.3669 198.192ZM106.158 198.192C108.446 198.192 110.142 196.736 110.142 193.584C110.142 190.704 108.814 189.04 106.334 189.04C103.902 189.04 102.27 190.704 102.27 193.728C102.27 196.592 103.758 198.192 106.158 198.192ZM106.238 197.152C104.19 197.152 103.55 195.456 103.55 193.664C103.55 192 104.094 190.08 106.238 190.08C108.382 190.08 108.862 192.016 108.862 193.664C108.862 195.376 108.35 197.152 106.238 197.152ZM112.328 198H113.608V189.264H112.328V198ZM112.952 187.632L114.024 186.56L112.952 185.504L111.912 186.56L112.952 187.632ZM116.313 198H117.577V191.232C118.361 190.688 119.257 190.16 120.377 190.16C121.865 190.16 122.105 191.104 122.105 192.608V198H123.337V192.368C123.337 190.896 123.177 189.04 120.697 189.04C119.337 189.04 118.489 189.584 117.577 190.256V189.264H116.313V198ZM125.938 198H127.202V191.232C127.986 190.688 128.882 190.16 130.002 190.16C131.49 190.16 131.73 191.104 131.73 192.608V198H132.962V192.368C132.962 190.896 132.802 189.04 130.322 189.04C128.962 189.04 128.114 189.584 127.202 190.256V189.264H125.938V198ZM138.539 198.192C139.131 198.192 139.947 198.032 140.395 197.872L140.171 196.832C139.803 196.96 139.179 197.088 138.699 197.088C137.691 197.088 137.131 196.752 137.131 195.52V190.336H139.851V189.264H137.115V187.472H135.883V189.264H134.603V190.336H135.883V195.568C135.883 197.632 136.907 198.192 138.539 198.192ZM145.602 198.192C146.706 198.192 147.698 198 148.354 197.728L148.13 196.704C147.314 196.96 146.658 197.104 145.81 197.104C144.146 197.104 142.77 196.576 142.738 193.872H148.498V193.408C148.498 190.496 147.49 189.04 145.266 189.04C143.138 189.04 141.458 190.4 141.458 193.808C141.458 197.136 143.058 198.192 145.602 198.192ZM142.754 192.928C142.898 190.976 143.874 190.032 145.138 190.032C146.562 190.032 147.186 191.152 147.186 192.928H142.754ZM157.376 198.128L157.648 197.184C157.104 197.04 156.304 196.528 155.504 195.552L153.712 193.344L157.424 189.264H155.968L152.288 193.392L154.752 196.512C155.872 197.92 156.784 198.096 157.376 198.128ZM150.672 198H151.936V185.936H150.672V198ZM162.242 198.192C162.834 198.192 163.65 198.032 164.098 197.872L163.874 196.832C163.506 196.96 162.882 197.088 162.402 197.088C161.394 197.088 160.834 196.752 160.834 195.52V190.336H163.554V189.264H160.818V187.472H159.586V189.264H158.306V190.336H159.586V195.568C159.586 197.632 160.61 198.192 162.242 198.192ZM165.881 198H167.401V196.496H165.881V198ZM165.881 190.768H167.401V189.264H165.881V190.768Z" fill="#333333"/>
<rect x="184" y="240.128" width="40" height="16" rx="8" fill="#B3DADA"/>
<path d="M196 236.628C202.351 236.628 207.5 241.777 207.5 248.128C207.5 254.479 202.351 259.628 196 259.628C189.649 259.628 184.5 254.479 184.5 248.128C184.5 241.777 189.649 236.628 196 236.628Z" fill="white" stroke="#008484"/>
<path d="M46.7798 253.192C48.9558 253.192 50.7798 252.168 50.7798 250.008C50.7798 246.424 45.1638 246.84 45.1638 244.296C45.1638 243.144 46.1398 242.632 47.3078 242.632C48.2038 242.632 48.9238 242.84 49.6598 243.176L50.0598 242.152C49.3718 241.784 48.5558 241.528 47.2758 241.528C45.4678 241.528 43.8997 242.504 43.8997 244.328C43.8997 248.04 49.4518 247.272 49.4518 250.104C49.4518 251.56 48.0438 252.04 46.7958 252.04C45.7238 252.04 44.8758 251.736 44.0438 251.32L43.6278 252.408C44.2838 252.808 45.3718 253.192 46.7798 253.192ZM59.5636 253.128L59.8356 252.184C59.2916 252.04 58.4916 251.528 57.6916 250.552L55.8996 248.344L59.6116 244.264H58.1556L54.4756 248.392L56.9396 251.512C58.0596 252.92 58.9716 253.096 59.5636 253.128ZM52.8596 253H54.1236V240.936H52.8596V253ZM63.4054 253.144C64.9094 253.144 65.8854 252.328 66.3174 251.992C66.4294 252.776 67.2294 253.096 67.9974 253.096C68.1094 253.096 68.2694 253.08 68.3494 253.064L68.3974 252.088C67.9814 252.088 67.4534 251.944 67.4534 251.288V246.456C67.4534 244.744 66.2854 244.04 64.3654 244.04C63.1814 244.04 62.2054 244.296 61.5334 244.584L61.8214 245.576C62.5414 245.304 63.2454 245.144 64.1894 245.144C65.5654 245.144 66.2214 245.48 66.2214 246.872V247.992L64.1414 248.024C62.7174 248.056 60.7974 248.504 60.7974 250.68C60.7974 252.264 61.8214 253.144 63.4054 253.144ZM63.6934 252.12C62.7334 252.12 62.0134 251.64 62.0134 250.632C62.0134 249.608 62.7654 249 64.1254 248.952L66.2214 248.872V251.144C65.5654 251.624 64.6534 252.12 63.6934 252.12ZM73.2575 253.192C73.8495 253.192 74.6655 253.032 75.1135 252.872L74.8895 251.832C74.5215 251.96 73.8975 252.088 73.4175 252.088C72.4095 252.088 71.8495 251.752 71.8495 250.52V245.336H74.5695V244.264H71.8335V242.472H70.6015V244.264H69.3215V245.336H70.6015V250.568C70.6015 252.632 71.6255 253.192 73.2575 253.192ZM79.6325 253.192C80.2245 253.192 81.0405 253.032 81.4885 252.872L81.2645 251.832C80.8965 251.96 80.2725 252.088 79.7925 252.088C78.7845 252.088 78.2245 251.752 78.2245 250.52V245.336H80.9445V244.264H78.2085V242.472H76.9765V244.264H75.6965V245.336H76.9765V250.568C76.9765 252.632 78.0005 253.192 79.6325 253.192ZM86.6955 253.192C87.7995 253.192 88.7915 253 89.4475 252.728L89.2235 251.704C88.4075 251.96 87.7515 252.104 86.9035 252.104C85.2395 252.104 83.8635 251.576 83.8315 248.872H89.5915V248.408C89.5915 245.496 88.5835 244.04 86.3595 244.04C84.2315 244.04 82.5515 245.4 82.5515 248.808C82.5515 252.136 84.1515 253.192 86.6955 253.192ZM83.8475 247.928C83.9915 245.976 84.9675 245.032 86.2315 245.032C87.6555 245.032 88.2795 246.152 88.2795 247.928H83.8475ZM92.1979 256.28H93.4619V245.288H95.3339V244.264H93.4619V243.656C93.4619 242.344 93.9419 241.832 95.0459 241.832C95.6379 241.832 95.9099 241.896 96.1499 241.96L96.3739 240.936C96.0219 240.824 95.6379 240.76 95.0299 240.76C93.4619 240.76 92.1979 241.544 92.1979 243.672V244.264H90.9179V245.288H92.1979V256.28ZM96.9846 253H98.2486V246.568C98.6646 245.928 99.4646 245.176 100.521 245.176C101.033 245.176 101.289 245.224 101.561 245.288L101.769 244.216C101.609 244.168 101.257 244.072 100.745 244.072C99.5126 244.072 98.6486 244.776 98.2486 245.432V244.264H96.9846V253ZM103.172 253H104.452V244.264H103.172V253ZM103.796 242.632L104.868 241.56L103.796 240.504L102.756 241.56L103.796 242.632ZM111.328 253H112.608V244.264H111.328V253ZM111.952 242.632L113.024 241.56L111.952 240.504L110.912 241.56L111.952 242.632ZM115.313 253H116.577V246.232C117.361 245.688 118.257 245.16 119.377 245.16C120.865 245.16 121.105 246.104 121.105 247.608V253H122.337V247.368C122.337 245.896 122.177 244.04 119.697 244.04C118.337 244.04 117.489 244.584 116.577 245.256V244.264H115.313V253ZM124.938 253H126.202V246.232C126.986 245.688 127.882 245.16 129.002 245.16C130.49 245.16 130.73 246.104 130.73 247.608V253H131.962V247.368C131.962 245.896 131.802 244.04 129.322 244.04C127.962 244.04 127.114 244.584 126.202 245.256V244.264H124.938V253ZM137.539 253.192C138.131 253.192 138.947 253.032 139.395 252.872L139.171 251.832C138.803 251.96 138.179 252.088 137.699 252.088C136.691 252.088 136.131 251.752 136.131 250.52V245.336H138.851V244.264H136.115V242.472H134.883V244.264H133.603V245.336H134.883V250.568C134.883 252.632 135.907 253.192 137.539 253.192ZM144.602 253.192C145.706 253.192 146.698 253 147.354 252.728L147.13 251.704C146.314 251.96 145.658 252.104 144.81 252.104C143.146 252.104 141.77 251.576 141.738 248.872H147.498V248.408C147.498 245.496 146.49 244.04 144.266 244.04C142.138 244.04 140.458 245.4 140.458 248.808C140.458 252.136 142.058 253.192 144.602 253.192ZM141.754 247.928C141.898 245.976 142.874 245.032 144.138 245.032C145.562 245.032 146.186 246.152 146.186 247.928H141.754ZM156.376 253.128L156.648 252.184C156.104 252.04 155.304 251.528 154.504 250.552L152.712 248.344L156.424 244.264H154.968L151.288 248.392L153.752 251.512C154.872 252.92 155.784 253.096 156.376 253.128ZM149.672 253H150.936V240.936H149.672V253ZM161.242 253.192C161.834 253.192 162.65 253.032 163.098 252.872L162.874 251.832C162.506 251.96 161.882 252.088 161.402 252.088C160.394 252.088 159.834 251.752 159.834 250.52V245.336H162.554V244.264H159.818V242.472H158.586V244.264H157.306V245.336H158.586V250.568C158.586 252.632 159.61 253.192 161.242 253.192ZM164.881 253H166.401V251.496H164.881V253ZM164.881 245.768H166.401V244.264H164.881V245.768Z" fill="#333333"/>
<circle cx="215" cy="248.128" r="3.5" stroke="#007272"/>
<path d="M360.691 198.14H362.419L357.411 192.06L362.099 186.828H360.435L355.955 191.98V192.22L360.691 198.14ZM354.227 198.14H355.539V186.828H354.227V198.14ZM363.922 198.14H365.186V191.708C365.602 191.068 366.402 190.316 367.458 190.316C367.97 190.316 368.226 190.364 368.498 190.428L368.706 189.356C368.546 189.308 368.194 189.212 367.682 189.212C366.45 189.212 365.586 189.916 365.186 190.572V189.404H363.922V198.14ZM374.282 198.14H375.562V189.404H374.282V198.14ZM374.906 187.772L375.978 186.7L374.906 185.644L373.866 186.7L374.906 187.772ZM384.39 198.284C385.894 198.284 386.87 197.468 387.302 197.132C387.414 197.916 388.214 198.236 388.982 198.236C389.094 198.236 389.254 198.22 389.334 198.204L389.382 197.228C388.966 197.228 388.438 197.084 388.438 196.428V191.596C388.438 189.884 387.27 189.18 385.35 189.18C384.166 189.18 383.19 189.436 382.518 189.724L382.806 190.716C383.526 190.444 384.23 190.284 385.174 190.284C386.55 190.284 387.206 190.62 387.206 192.012V193.132L385.126 193.164C383.702 193.196 381.782 193.644 381.782 195.82C381.782 197.404 382.806 198.284 384.39 198.284ZM384.678 197.26C383.718 197.26 382.998 196.78 382.998 195.772C382.998 194.748 383.75 194.14 385.11 194.092L387.206 194.012V196.284C386.55 196.764 385.638 197.26 384.678 197.26ZM385.638 188.316C386.598 188.316 387.366 187.756 387.366 186.716C387.366 185.516 386.374 185.116 385.606 185.116C384.71 185.116 383.862 185.676 383.862 186.748C383.862 187.868 384.742 188.316 385.638 188.316ZM385.622 187.66C385.046 187.66 384.646 187.276 384.646 186.7C384.646 186.124 385.014 185.804 385.606 185.804C386.134 185.804 386.582 186.156 386.582 186.732C386.566 187.308 386.214 187.66 385.622 187.66ZM391.266 198.14H392.53V191.708C392.946 191.068 393.746 190.316 394.802 190.316C395.314 190.316 395.57 190.364 395.842 190.428L396.05 189.356C395.89 189.308 395.538 189.212 395.026 189.212C393.794 189.212 392.93 189.916 392.53 190.572V189.404H391.266V198.14ZM401.117 198.332C402.221 198.332 403.213 198.14 403.869 197.868L403.645 196.844C402.829 197.1 402.173 197.244 401.325 197.244C399.661 197.244 398.285 196.716 398.253 194.012H404.013V193.548C404.013 190.636 403.005 189.18 400.781 189.18C398.653 189.18 396.973 190.54 396.973 193.948C396.973 197.276 398.573 198.332 401.117 198.332ZM398.269 193.068C398.413 191.116 399.389 190.172 400.653 190.172C402.077 190.172 402.701 191.292 402.701 193.068H398.269ZM409.164 198.332C409.756 198.332 410.572 198.172 411.02 198.012L410.796 196.972C410.428 197.1 409.804 197.228 409.324 197.228C408.316 197.228 407.756 196.892 407.756 195.66V190.476H410.476V189.404H407.74V187.612H406.508V189.404H405.228V190.476H406.508V195.708C406.508 197.772 407.532 198.332 409.164 198.332Z" fill="#333333"/>
<path d="M507.228 187.716C507.732 187.716 508.172 187.816 508.548 188.016C508.932 188.216 509.224 188.492 509.424 188.844C509.624 189.188 509.724 189.58 509.724 190.02C509.724 190.532 509.604 191.028 509.364 191.508C509.132 191.988 508.756 192.516 508.236 193.092C507.716 193.66 506.98 194.38 506.028 195.252H509.916L509.796 196.116H504.876V195.3C505.956 194.268 506.756 193.46 507.276 192.876C507.804 192.292 508.168 191.792 508.368 191.376C508.568 190.96 508.668 190.52 508.668 190.056C508.668 189.592 508.536 189.228 508.272 188.964C508.008 188.7 507.644 188.568 507.18 188.568C506.788 188.568 506.46 188.636 506.196 188.772C505.94 188.9 505.676 189.124 505.404 189.444L504.708 188.904C505.036 188.496 505.4 188.196 505.8 188.004C506.208 187.812 506.684 187.716 507.228 187.716ZM517.531 194.112H516.463V196.116H515.491V194.112H512.059V193.368L514.483 187.716L515.323 188.076L513.127 193.296H515.503L515.587 190.956H516.463V193.296H517.531V194.112ZM522.423 189.66C523.951 189.66 524.715 190.756 524.715 192.948C524.715 193.948 524.507 194.748 524.091 195.348C523.675 195.948 523.071 196.248 522.279 196.248C521.591 196.248 521.031 196.008 520.599 195.528V198.54L519.591 198.66V189.792H520.455L520.539 190.68C520.771 190.352 521.047 190.1 521.367 189.924C521.695 189.748 522.047 189.66 522.423 189.66ZM522.183 190.476C521.863 190.476 521.567 190.572 521.295 190.764C521.031 190.956 520.799 191.196 520.599 191.484V194.616C520.767 194.864 520.975 195.06 521.223 195.204C521.479 195.34 521.755 195.408 522.051 195.408C522.579 195.408 522.971 195.208 523.227 194.808C523.491 194.4 523.623 193.78 523.623 192.948C523.623 192.116 523.507 191.496 523.275 191.088C523.043 190.68 522.679 190.476 522.183 190.476ZM526.258 196.116L528.586 192.78L526.534 189.792H527.734L529.198 192.144L530.674 189.792H531.838L529.786 192.732L532.114 196.116H530.89L529.15 193.404L527.41 196.116H526.258Z" fill="black"/>
<line x1="488.5" y1="192.251" x2="499.5" y2="192.251" stroke="#B3B3B3" stroke-linecap="round" stroke-dasharray="2 3"/>
<path d="M507.228 215.716C507.732 215.716 508.172 215.816 508.548 216.016C508.932 216.216 509.224 216.492 509.424 216.844C509.624 217.188 509.724 217.58 509.724 218.02C509.724 218.532 509.604 219.028 509.364 219.508C509.132 219.988 508.756 220.516 508.236 221.092C507.716 221.66 506.98 222.38 506.028 223.252H509.916L509.796 224.116H504.876V223.3C505.956 222.268 506.756 221.46 507.276 220.876C507.804 220.292 508.168 219.792 508.368 219.376C508.568 218.96 508.668 218.52 508.668 218.056C508.668 217.592 508.536 217.228 508.272 216.964C508.008 216.7 507.644 216.568 507.18 216.568C506.788 216.568 506.46 216.636 506.196 216.772C505.94 216.9 505.676 217.124 505.404 217.444L504.708 216.904C505.036 216.496 505.4 216.196 505.8 216.004C506.208 215.812 506.684 215.716 507.228 215.716ZM517.531 222.112H516.463V224.116H515.491V222.112H512.059V221.368L514.483 215.716L515.323 216.076L513.127 221.296H515.503L515.587 218.956H516.463V221.296H517.531V222.112ZM522.423 217.66C523.951 217.66 524.715 218.756 524.715 220.948C524.715 221.948 524.507 222.748 524.091 223.348C523.675 223.948 523.071 224.248 522.279 224.248C521.591 224.248 521.031 224.008 520.599 223.528V226.54L519.591 226.66V217.792H520.455L520.539 218.68C520.771 218.352 521.047 218.1 521.367 217.924C521.695 217.748 522.047 217.66 522.423 217.66ZM522.183 218.476C521.863 218.476 521.567 218.572 521.295 218.764C521.031 218.956 520.799 219.196 520.599 219.484V222.616C520.767 222.864 520.975 223.06 521.223 223.204C521.479 223.34 521.755 223.408 522.051 223.408C522.579 223.408 522.971 223.208 523.227 222.808C523.491 222.4 523.623 221.78 523.623 220.948C523.623 220.116 523.507 219.496 523.275 219.088C523.043 218.68 522.679 218.476 522.183 218.476ZM526.258 224.116L528.586 220.78L526.534 217.792H527.734L529.198 220.144L530.674 217.792H531.838L529.786 220.732L532.114 224.116H530.89L529.15 221.404L527.41 224.116H526.258Z" fill="black"/>
<line x1="488.5" y1="220.251" x2="499.5" y2="220.251" stroke="#B3B3B3" stroke-linecap="round" stroke-dasharray="2 3"/>
<path d="M507.228 243.716C507.732 243.716 508.172 243.816 508.548 244.016C508.932 244.216 509.224 244.492 509.424 244.844C509.624 245.188 509.724 245.58 509.724 246.02C509.724 246.532 509.604 247.028 509.364 247.508C509.132 247.988 508.756 248.516 508.236 249.092C507.716 249.66 506.98 250.38 506.028 251.252H509.916L509.796 252.116H504.876V251.3C505.956 250.268 506.756 249.46 507.276 248.876C507.804 248.292 508.168 247.792 508.368 247.376C508.568 246.96 508.668 246.52 508.668 246.056C508.668 245.592 508.536 245.228 508.272 244.964C508.008 244.7 507.644 244.568 507.18 244.568C506.788 244.568 506.46 244.636 506.196 244.772C505.94 244.9 505.676 245.124 505.404 245.444L504.708 244.904C505.036 244.496 505.4 244.196 505.8 244.004C506.208 243.812 506.684 243.716 507.228 243.716ZM517.531 250.112H516.463V252.116H515.491V250.112H512.059V249.368L514.483 243.716L515.323 244.076L513.127 249.296H515.503L515.587 246.956H516.463V249.296H517.531V250.112ZM522.423 245.66C523.951 245.66 524.715 246.756 524.715 248.948C524.715 249.948 524.507 250.748 524.091 251.348C523.675 251.948 523.071 252.248 522.279 252.248C521.591 252.248 521.031 252.008 520.599 251.528V254.54L519.591 254.66V245.792H520.455L520.539 246.68C520.771 246.352 521.047 246.1 521.367 245.924C521.695 245.748 522.047 245.66 522.423 245.66ZM522.183 246.476C521.863 246.476 521.567 246.572 521.295 246.764C521.031 246.956 520.799 247.196 520.599 247.484V250.616C520.767 250.864 520.975 251.06 521.223 251.204C521.479 251.34 521.755 251.408 522.051 251.408C522.579 251.408 522.971 251.208 523.227 250.808C523.491 250.4 523.623 249.78 523.623 248.948C523.623 248.116 523.507 247.496 523.275 247.088C523.043 246.68 522.679 246.476 522.183 246.476ZM526.258 252.116L528.586 248.78L526.534 245.792H527.734L529.198 248.144L530.674 245.792H531.838L529.786 248.732L532.114 252.116H530.89L529.15 249.404L527.41 252.116H526.258Z" fill="black"/>
<line x1="488.5" y1="248.251" x2="499.5" y2="248.251" stroke="#B3B3B3" stroke-linecap="round" stroke-dasharray="2 3"/>
<path d="M416.59 311.184V312H411.826V311.184H413.854V304.836L411.97 305.976L411.526 305.268L413.986 303.732H414.874V311.184H416.59ZM421.541 306.624C421.973 306.624 422.365 306.72 422.717 306.912C423.077 307.104 423.361 307.396 423.569 307.788C423.777 308.172 423.881 308.648 423.881 309.216C423.881 309.808 423.765 310.328 423.533 310.776C423.301 311.216 422.989 311.552 422.597 311.784C422.205 312.016 421.765 312.132 421.277 312.132C420.317 312.132 419.617 311.784 419.177 311.088C418.745 310.392 418.529 309.396 418.529 308.1C418.529 307.188 418.649 306.396 418.889 305.724C419.137 305.044 419.489 304.52 419.945 304.152C420.409 303.784 420.961 303.6 421.601 303.6C422.201 303.6 422.749 303.764 423.245 304.092L422.849 304.764C422.457 304.532 422.037 304.416 421.589 304.416C420.957 304.416 420.461 304.712 420.101 305.304C419.749 305.896 419.565 306.704 419.549 307.728C419.805 307.344 420.097 307.064 420.425 306.888C420.753 306.712 421.125 306.624 421.541 306.624ZM421.277 311.316C421.789 311.316 422.177 311.136 422.441 310.776C422.713 310.408 422.849 309.9 422.849 309.252C422.849 308.044 422.361 307.44 421.385 307.44C421.001 307.44 420.653 307.548 420.341 307.764C420.037 307.972 419.777 308.256 419.561 308.616C419.577 309.552 419.721 310.236 419.993 310.668C420.265 311.1 420.693 311.316 421.277 311.316ZM428.808 305.544C430.336 305.544 431.1 306.64 431.1 308.832C431.1 309.832 430.892 310.632 430.476 311.232C430.06 311.832 429.456 312.132 428.664 312.132C427.976 312.132 427.416 311.892 426.984 311.412V314.424L425.976 314.544V305.676H426.84L426.924 306.564C427.156 306.236 427.432 305.984 427.752 305.808C428.08 305.632 428.432 305.544 428.808 305.544ZM428.568 306.36C428.248 306.36 427.952 306.456 427.68 306.648C427.416 306.84 427.184 307.08 426.984 307.368V310.5C427.152 310.748 427.36 310.944 427.608 311.088C427.864 311.224 428.14 311.292 428.436 311.292C428.964 311.292 429.356 311.092 429.612 310.692C429.876 310.284 430.008 309.664 430.008 308.832C430.008 308 429.892 307.38 429.66 306.972C429.428 306.564 429.064 306.36 428.568 306.36ZM432.644 312L434.972 308.664L432.92 305.676H434.12L435.584 308.028L437.06 305.676H438.224L436.172 308.616L438.5 312H437.276L435.536 309.288L433.796 312H432.644Z" fill="black"/>
<path d="M344.458 305.7C344.458 306.092 344.338 306.436 344.098 306.732C343.858 307.028 343.502 307.308 343.03 307.572C343.59 307.804 344.026 308.108 344.338 308.484C344.65 308.86 344.806 309.292 344.806 309.78C344.806 310.228 344.69 310.632 344.458 310.992C344.226 311.352 343.894 311.632 343.462 311.832C343.03 312.032 342.53 312.132 341.962 312.132C341.386 312.132 340.886 312.032 340.462 311.832C340.038 311.624 339.714 311.344 339.49 310.992C339.274 310.64 339.166 310.244 339.166 309.804C339.166 308.884 339.722 308.164 340.834 307.644C340.378 307.428 340.042 307.176 339.826 306.888C339.618 306.592 339.514 306.216 339.514 305.76C339.514 305.288 339.638 304.888 339.886 304.56C340.134 304.232 340.446 303.992 340.822 303.84C341.206 303.68 341.594 303.6 341.986 303.6C342.41 303.6 342.81 303.676 343.186 303.828C343.562 303.98 343.866 304.216 344.098 304.536C344.338 304.848 344.458 305.236 344.458 305.7ZM340.498 305.772C340.498 306.076 340.566 306.32 340.702 306.504C340.846 306.68 341.034 306.824 341.266 306.936C341.498 307.04 341.85 307.168 342.322 307.32C342.73 307.08 343.022 306.848 343.198 306.624C343.382 306.392 343.474 306.1 343.474 305.748C343.474 305.332 343.342 305.004 343.078 304.764C342.822 304.516 342.458 304.392 341.986 304.392C341.514 304.392 341.146 304.512 340.882 304.752C340.626 304.992 340.498 305.332 340.498 305.772ZM343.738 309.804C343.738 309.452 343.65 309.168 343.474 308.952C343.298 308.728 343.066 308.552 342.778 308.424C342.498 308.296 342.078 308.132 341.518 307.932C340.662 308.332 340.234 308.956 340.234 309.804C340.234 310.276 340.382 310.648 340.678 310.92C340.974 311.184 341.402 311.316 341.962 311.316C342.522 311.316 342.958 311.176 343.27 310.896C343.582 310.616 343.738 310.252 343.738 309.804ZM349.613 305.544C351.141 305.544 351.905 306.64 351.905 308.832C351.905 309.832 351.697 310.632 351.281 311.232C350.865 311.832 350.261 312.132 349.469 312.132C348.781 312.132 348.221 311.892 347.789 311.412V314.424L346.781 314.544V305.676H347.645L347.729 306.564C347.961 306.236 348.237 305.984 348.557 305.808C348.885 305.632 349.237 305.544 349.613 305.544ZM349.373 306.36C349.053 306.36 348.757 306.456 348.485 306.648C348.221 306.84 347.989 307.08 347.789 307.368V310.5C347.957 310.748 348.165 310.944 348.413 311.088C348.669 311.224 348.945 311.292 349.241 311.292C349.769 311.292 350.161 311.092 350.417 310.692C350.681 310.284 350.813 309.664 350.813 308.832C350.813 308 350.697 307.38 350.465 306.972C350.233 306.564 349.869 306.36 349.373 306.36ZM353.448 312L355.776 308.664L353.724 305.676H354.924L356.388 308.028L357.864 305.676H359.028L356.976 308.616L359.304 312H358.08L356.34 309.288L354.6 312H353.448Z" fill="black"/>
<line x1="424.108" y1="299.5" x2="424.108" y2="288.5" stroke="#B3B3B3" stroke-linecap="round" stroke-dasharray="2 3"/>
<line x1="348.108" y1="299.5" x2="348.108" y2="288.5" stroke="#B3B3B3" stroke-linecap="round" stroke-dasharray="2 3"/>
<path d="M223.59 311.184V312H218.826V311.184H220.854V304.836L218.97 305.976L218.526 305.268L220.986 303.732H221.874V311.184H223.59ZM228.541 306.624C228.973 306.624 229.365 306.72 229.717 306.912C230.077 307.104 230.361 307.396 230.569 307.788C230.777 308.172 230.881 308.648 230.881 309.216C230.881 309.808 230.765 310.328 230.533 310.776C230.301 311.216 229.989 311.552 229.597 311.784C229.205 312.016 228.765 312.132 228.277 312.132C227.317 312.132 226.617 311.784 226.177 311.088C225.745 310.392 225.529 309.396 225.529 308.1C225.529 307.188 225.649 306.396 225.889 305.724C226.137 305.044 226.489 304.52 226.945 304.152C227.409 303.784 227.961 303.6 228.601 303.6C229.201 303.6 229.749 303.764 230.245 304.092L229.849 304.764C229.457 304.532 229.037 304.416 228.589 304.416C227.957 304.416 227.461 304.712 227.101 305.304C226.749 305.896 226.565 306.704 226.549 307.728C226.805 307.344 227.097 307.064 227.425 306.888C227.753 306.712 228.125 306.624 228.541 306.624ZM228.277 311.316C228.789 311.316 229.177 311.136 229.441 310.776C229.713 310.408 229.849 309.9 229.849 309.252C229.849 308.044 229.361 307.44 228.385 307.44C228.001 307.44 227.653 307.548 227.341 307.764C227.037 307.972 226.777 308.256 226.561 308.616C226.577 309.552 226.721 310.236 226.993 310.668C227.265 311.1 227.693 311.316 228.277 311.316ZM235.808 305.544C237.336 305.544 238.1 306.64 238.1 308.832C238.1 309.832 237.892 310.632 237.476 311.232C237.06 311.832 236.456 312.132 235.664 312.132C234.976 312.132 234.416 311.892 233.984 311.412V314.424L232.976 314.544V305.676H233.84L233.924 306.564C234.156 306.236 234.432 305.984 234.752 305.808C235.08 305.632 235.432 305.544 235.808 305.544ZM235.568 306.36C235.248 306.36 234.952 306.456 234.68 306.648C234.416 306.84 234.184 307.08 233.984 307.368V310.5C234.152 310.748 234.36 310.944 234.608 311.088C234.864 311.224 235.14 311.292 235.436 311.292C235.964 311.292 236.356 311.092 236.612 310.692C236.876 310.284 237.008 309.664 237.008 308.832C237.008 308 236.892 307.38 236.66 306.972C236.428 306.564 236.064 306.36 235.568 306.36ZM239.644 312L241.972 308.664L239.92 305.676H241.12L242.584 308.028L244.06 305.676H245.224L243.172 308.616L245.5 312H244.276L242.536 309.288L240.796 312H239.644Z" fill="black"/>
<line x1="232.108" y1="299.5" x2="232.108" y2="288.5" stroke="#B3B3B3" stroke-linecap="round" stroke-dasharray="2 3"/>
<path d="M167.59 311.184V312H162.826V311.184H164.854V304.836L162.97 305.976L162.526 305.268L164.986 303.732H165.874V311.184H167.59ZM172.541 306.624C172.973 306.624 173.365 306.72 173.717 306.912C174.077 307.104 174.361 307.396 174.569 307.788C174.777 308.172 174.881 308.648 174.881 309.216C174.881 309.808 174.765 310.328 174.533 310.776C174.301 311.216 173.989 311.552 173.597 311.784C173.205 312.016 172.765 312.132 172.277 312.132C171.317 312.132 170.617 311.784 170.177 311.088C169.745 310.392 169.529 309.396 169.529 308.1C169.529 307.188 169.649 306.396 169.889 305.724C170.137 305.044 170.489 304.52 170.945 304.152C171.409 303.784 171.961 303.6 172.601 303.6C173.201 303.6 173.749 303.764 174.245 304.092L173.849 304.764C173.457 304.532 173.037 304.416 172.589 304.416C171.957 304.416 171.461 304.712 171.101 305.304C170.749 305.896 170.565 306.704 170.549 307.728C170.805 307.344 171.097 307.064 171.425 306.888C171.753 306.712 172.125 306.624 172.541 306.624ZM172.277 311.316C172.789 311.316 173.177 311.136 173.441 310.776C173.713 310.408 173.849 309.9 173.849 309.252C173.849 308.044 173.361 307.44 172.385 307.44C172.001 307.44 171.653 307.548 171.341 307.764C171.037 307.972 170.777 308.256 170.561 308.616C170.577 309.552 170.721 310.236 170.993 310.668C171.265 311.1 171.693 311.316 172.277 311.316ZM179.808 305.544C181.336 305.544 182.1 306.64 182.1 308.832C182.1 309.832 181.892 310.632 181.476 311.232C181.06 311.832 180.456 312.132 179.664 312.132C178.976 312.132 178.416 311.892 177.984 311.412V314.424L176.976 314.544V305.676H177.84L177.924 306.564C178.156 306.236 178.432 305.984 178.752 305.808C179.08 305.632 179.432 305.544 179.808 305.544ZM179.568 306.36C179.248 306.36 178.952 306.456 178.68 306.648C178.416 306.84 178.184 307.08 177.984 307.368V310.5C178.152 310.748 178.36 310.944 178.608 311.088C178.864 311.224 179.14 311.292 179.436 311.292C179.964 311.292 180.356 311.092 180.612 310.692C180.876 310.284 181.008 309.664 181.008 308.832C181.008 308 180.892 307.38 180.66 306.972C180.428 306.564 180.064 306.36 179.568 306.36ZM183.644 312L185.972 308.664L183.92 305.676H185.12L186.584 308.028L188.06 305.676H189.224L187.172 308.616L189.5 312H188.276L186.536 309.288L184.796 312H183.644Z" fill="black"/>
<line x1="176.108" y1="299.5" x2="176.108" y2="288.5" stroke="#B3B3B3" stroke-linecap="round" stroke-dasharray="2 3"/>
<path d="M448 16.5C456.56 16.5 463.5 23.4396 463.5 32C463.5 40.5604 456.56 47.5 448 47.5C439.44 47.5 432.5 40.5604 432.5 32C432.5 23.4396 439.44 16.5 448 16.5Z" fill="white" stroke="#008484"/>
<path d="M442.853 29.1004C442.853 29.5146 443.188 29.8504 443.603 29.8504C444.017 29.8504 444.353 29.5146 444.353 29.1004H442.853ZM447.953 33.4508V32.7008C447.539 32.7008 447.203 33.0366 447.203 33.4508H447.953ZM447.203 36.1162C447.203 36.5304 447.539 36.8662 447.953 36.8662C448.367 36.8662 448.703 36.5304 448.703 36.1162H447.203ZM444.353 29.1004C444.353 27.0494 445.902 25.5 447.953 25.5V24C445.073 24 442.853 26.221 442.853 29.1004H444.353ZM447.953 25.5C450.004 25.5 451.553 27.0494 451.553 29.1004H453.053C453.053 26.221 450.832 24 447.953 24V25.5ZM451.553 29.1004C451.553 31.1514 450.004 32.7008 447.953 32.7008V34.2008C450.832 34.2008 453.053 31.9798 453.053 29.1004H451.553ZM447.203 33.4508V36.1162H448.703V33.4508H447.203Z" fill="#008484"/>
<path d="M256 72.5C264.56 72.5 271.5 79.4396 271.5 88C271.5 96.5604 264.56 103.5 256 103.5C247.44 103.5 240.5 96.5604 240.5 88C240.5 79.4396 247.44 72.5 256 72.5Z" fill="white" stroke="#008484"/>
<path d="M250.853 85.1004C250.853 85.5146 251.188 85.8504 251.603 85.8504C252.017 85.8504 252.353 85.5146 252.353 85.1004H250.853ZM255.953 89.4508V88.7008C255.539 88.7008 255.203 89.0366 255.203 89.4508H255.953ZM255.203 92.1162C255.203 92.5304 255.539 92.8662 255.953 92.8662C256.367 92.8662 256.703 92.5304 256.703 92.1162H255.203ZM252.353 85.1004C252.353 83.0494 253.902 81.5 255.953 81.5V80C253.073 80 250.853 82.221 250.853 85.1004H252.353ZM255.953 81.5C258.004 81.5 259.553 83.0494 259.553 85.1004H261.053C261.053 82.221 258.832 80 255.953 80V81.5ZM259.553 85.1004C259.553 87.1514 258.004 88.7008 255.953 88.7008V90.2008C258.832 90.2008 261.053 87.9798 261.053 85.1004H259.553ZM255.203 89.4508V92.1162H256.703V89.4508H255.203Z" fill="#008484"/>
<rect x="184.5" y="16.5" width="159" height="31" rx="15.5" fill="white" stroke="#008484"/>
<path d="M206.768 26.9039V25.8159H199.92V26.9359H205.52L200.704 36.8559L201.824 37.2559L206.768 26.9039ZM214.928 37.1279V36.0239H209.248C211.872 33.6239 214.224 31.3199 214.224 28.8719C214.224 27.3999 213.696 25.6879 210.976 25.6879C209.392 25.6879 208.48 26.2479 208 26.5679L208.496 27.4799C208.768 27.3199 209.584 26.8079 210.864 26.8079C212.192 26.8079 212.944 27.3199 212.944 29.0159C212.944 31.4799 208 35.6879 207.616 36.0879V37.1279H214.928ZM224.947 31.3039C224.947 28.5199 224.291 25.7199 221.059 25.7199C217.779 25.7199 216.819 28.5519 216.819 31.6559C216.819 34.7759 217.747 37.2719 220.787 37.2719C223.795 37.2719 224.947 34.8559 224.947 31.3039ZM223.635 31.3999C223.635 33.6879 223.315 36.1839 220.867 36.1839C218.643 36.1839 218.131 33.8799 218.131 31.5919C218.131 29.4799 218.451 26.7919 220.963 26.7919C223.331 26.7919 223.635 29.4159 223.635 31.3999ZM239.728 31.3039C239.728 28.5199 239.072 25.7199 235.84 25.7199C232.56 25.7199 231.6 28.5519 231.6 31.6559C231.6 34.7759 232.528 37.2719 235.568 37.2719C238.576 37.2719 239.728 34.8559 239.728 31.3039ZM238.416 31.3999C238.416 33.6879 238.096 36.1839 235.648 36.1839C233.424 36.1839 232.912 33.8799 232.912 31.5919C232.912 29.4799 233.232 26.7919 235.744 26.7919C238.112 26.7919 238.416 29.4159 238.416 31.3999ZM250.338 31.3039C250.338 28.5199 249.682 25.7199 246.45 25.7199C243.17 25.7199 242.21 28.5519 242.21 31.6559C242.21 34.7759 243.138 37.2719 246.178 37.2719C249.186 37.2719 250.338 34.8559 250.338 31.3039ZM249.026 31.3999C249.026 33.6879 248.706 36.1839 246.258 36.1839C244.034 36.1839 243.522 33.8799 243.522 31.5919C243.522 29.4799 243.842 26.7919 246.354 26.7919C248.722 26.7919 249.026 29.4159 249.026 31.3999ZM260.947 31.3039C260.947 28.5199 260.291 25.7199 257.059 25.7199C253.779 25.7199 252.819 28.5519 252.819 31.6559C252.819 34.7759 253.747 37.2719 256.787 37.2719C259.795 37.2719 260.947 34.8559 260.947 31.3039ZM259.635 31.3999C259.635 33.6879 259.315 36.1839 256.867 36.1839C254.643 36.1839 254.131 33.8799 254.131 31.5919C254.131 29.4799 254.451 26.7919 256.963 26.7919C259.331 26.7919 259.635 29.4159 259.635 31.3999Z" fill="#14555A"/>
<path d="M64.4304 38H67.9984C70.9104 38 71.9984 36.656 71.9984 34.784C71.9984 33.104 70.7984 32.256 69.6144 32.048V32C70.5584 31.664 71.1824 30.752 71.1824 29.536C71.1824 27.888 70.0784 26.688 67.5184 26.688H64.4304V38ZM65.7424 36.912V32.72H67.5184C69.4384 32.72 70.6544 33.296 70.6544 34.832C70.6544 36.56 69.3264 36.912 67.7584 36.912H65.7424ZM65.7424 31.664V27.712H67.1824C68.8784 27.712 69.8384 28.208 69.8384 29.744C69.8384 30.976 69.1344 31.664 67.6944 31.664H65.7424ZM74.2503 38H75.5143V31.568C75.9303 30.928 76.7303 30.176 77.7863 30.176C78.2983 30.176 78.5543 30.224 78.8263 30.288L79.0343 29.216C78.8743 29.168 78.5223 29.072 78.0103 29.072C76.7783 29.072 75.9143 29.776 75.5143 30.432V29.264H74.2503V38ZM82.9498 38.192C84.4218 38.192 85.2858 37.568 86.1178 36.976V38H87.3338V29.264H86.1178V35.952C85.4458 36.432 84.4218 37.04 83.3018 37.04C81.7338 37.04 81.6218 35.952 81.6218 34.576V29.264H80.3738V34.832C80.3738 36.304 80.5498 38.192 82.9498 38.192ZM92.9919 38.192C93.5839 38.192 94.3999 38.032 94.8479 37.872L94.6239 36.832C94.2559 36.96 93.6319 37.088 93.1519 37.088C92.1439 37.088 91.5839 36.752 91.5839 35.52V30.336H94.3039V29.264H91.5679V27.472H90.3359V29.264H89.0559V30.336H90.3359V35.568C90.3359 37.632 91.3599 38.192 92.9919 38.192ZM99.3669 38.192C99.9589 38.192 100.775 38.032 101.223 37.872L100.999 36.832C100.631 36.96 100.007 37.088 99.5269 37.088C98.5189 37.088 97.9589 36.752 97.9589 35.52V30.336H100.679V29.264H97.9429V27.472H96.7109V29.264H95.4309V30.336H96.7109V35.568C96.7109 37.632 97.7349 38.192 99.3669 38.192ZM106.158 38.192C108.446 38.192 110.142 36.736 110.142 33.584C110.142 30.704 108.814 29.04 106.334 29.04C103.902 29.04 102.27 30.704 102.27 33.728C102.27 36.592 103.758 38.192 106.158 38.192ZM106.238 37.152C104.19 37.152 103.55 35.456 103.55 33.664C103.55 32 104.094 30.08 106.238 30.08C108.382 30.08 108.862 32.016 108.862 33.664C108.862 35.376 108.35 37.152 106.238 37.152ZM112.328 38H113.608V29.264H112.328V38ZM112.952 27.632L114.024 26.56L112.952 25.504L111.912 26.56L112.952 27.632ZM116.313 38H117.577V31.232C118.361 30.688 119.257 30.16 120.377 30.16C121.865 30.16 122.105 31.104 122.105 32.608V38H123.337V32.368C123.337 30.896 123.177 29.04 120.697 29.04C119.337 29.04 118.489 29.584 117.577 30.256V29.264H116.313V38ZM125.938 38H127.202V31.232C127.986 30.688 128.882 30.16 130.002 30.16C131.49 30.16 131.73 31.104 131.73 32.608V38H132.962V32.368C132.962 30.896 132.802 29.04 130.322 29.04C128.962 29.04 128.114 29.584 127.202 30.256V29.264H125.938V38ZM138.539 38.192C139.131 38.192 139.947 38.032 140.395 37.872L140.171 36.832C139.803 36.96 139.179 37.088 138.699 37.088C137.691 37.088 137.131 36.752 137.131 35.52V30.336H139.851V29.264H137.115V27.472H135.883V29.264H134.603V30.336H135.883V35.568C135.883 37.632 136.907 38.192 138.539 38.192ZM145.602 38.192C146.706 38.192 147.698 38 148.354 37.728L148.13 36.704C147.314 36.96 146.658 37.104 145.81 37.104C144.146 37.104 142.77 36.576 142.738 33.872H148.498V33.408C148.498 30.496 147.49 29.04 145.266 29.04C143.138 29.04 141.458 30.4 141.458 33.808C141.458 37.136 143.058 38.192 145.602 38.192ZM142.754 32.928C142.898 30.976 143.874 30.032 145.138 30.032C146.562 30.032 147.186 31.152 147.186 32.928H142.754ZM157.376 38.128L157.648 37.184C157.104 37.04 156.304 36.528 155.504 35.552L153.712 33.344L157.424 29.264H155.968L152.288 33.392L154.752 36.512C155.872 37.92 156.784 38.096 157.376 38.128ZM150.672 38H151.936V25.936H150.672V38ZM162.242 38.192C162.834 38.192 163.65 38.032 164.098 37.872L163.874 36.832C163.506 36.96 162.882 37.088 162.402 37.088C161.394 37.088 160.834 36.752 160.834 35.52V30.336H163.554V29.264H160.818V27.472H159.586V29.264H158.306V30.336H159.586V35.568C159.586 37.632 160.61 38.192 162.242 38.192ZM165.881 38H167.401V36.496H165.881V38ZM165.881 30.768H167.401V29.264H165.881V30.768Z" fill="#333333"/>
<rect x="184" y="80.1279" width="40" height="16" rx="8" fill="#B3DADA"/>
<path d="M196 76.6279C202.351 76.6279 207.5 81.7767 207.5 88.1279C207.5 94.4792 202.351 99.6279 196 99.6279C189.649 99.6279 184.5 94.4792 184.5 88.1279C184.5 81.7767 189.649 76.6279 196 76.6279Z" fill="white" stroke="#008484"/>
<path d="M46.7798 93.192C48.9558 93.192 50.7798 92.168 50.7798 90.008C50.7798 86.424 45.1638 86.84 45.1638 84.296C45.1638 83.144 46.1398 82.632 47.3078 82.632C48.2038 82.632 48.9238 82.84 49.6598 83.176L50.0598 82.152C49.3718 81.784 48.5558 81.528 47.2758 81.528C45.4678 81.528 43.8997 82.504 43.8997 84.328C43.8997 88.04 49.4518 87.272 49.4518 90.104C49.4518 91.56 48.0438 92.04 46.7958 92.04C45.7238 92.04 44.8758 91.736 44.0438 91.32L43.6278 92.408C44.2838 92.808 45.3718 93.192 46.7798 93.192ZM59.5636 93.128L59.8356 92.184C59.2916 92.04 58.4916 91.528 57.6916 90.552L55.8996 88.344L59.6116 84.264H58.1556L54.4756 88.392L56.9396 91.512C58.0596 92.92 58.9716 93.096 59.5636 93.128ZM52.8596 93H54.1236V80.936H52.8596V93ZM63.4054 93.144C64.9094 93.144 65.8854 92.328 66.3174 91.992C66.4294 92.776 67.2294 93.096 67.9974 93.096C68.1094 93.096 68.2694 93.08 68.3494 93.064L68.3974 92.088C67.9814 92.088 67.4534 91.944 67.4534 91.288V86.456C67.4534 84.744 66.2854 84.04 64.3654 84.04C63.1814 84.04 62.2054 84.296 61.5334 84.584L61.8214 85.576C62.5414 85.304 63.2454 85.144 64.1894 85.144C65.5654 85.144 66.2214 85.48 66.2214 86.872V87.992L64.1414 88.024C62.7174 88.056 60.7974 88.504 60.7974 90.68C60.7974 92.264 61.8214 93.144 63.4054 93.144ZM63.6934 92.12C62.7334 92.12 62.0134 91.64 62.0134 90.632C62.0134 89.608 62.7654 89 64.1254 88.952L66.2214 88.872V91.144C65.5654 91.624 64.6534 92.12 63.6934 92.12ZM73.2575 93.192C73.8495 93.192 74.6655 93.032 75.1135 92.872L74.8895 91.832C74.5215 91.96 73.8975 92.088 73.4175 92.088C72.4095 92.088 71.8495 91.752 71.8495 90.52V85.336H74.5695V84.264H71.8335V82.472H70.6015V84.264H69.3215V85.336H70.6015V90.568C70.6015 92.632 71.6255 93.192 73.2575 93.192ZM79.6325 93.192C80.2245 93.192 81.0405 93.032 81.4885 92.872L81.2645 91.832C80.8965 91.96 80.2725 92.088 79.7925 92.088C78.7845 92.088 78.2245 91.752 78.2245 90.52V85.336H80.9445V84.264H78.2085V82.472H76.9765V84.264H75.6965V85.336H76.9765V90.568C76.9765 92.632 78.0005 93.192 79.6325 93.192ZM86.6955 93.192C87.7995 93.192 88.7915 93 89.4475 92.728L89.2235 91.704C88.4075 91.96 87.7515 92.104 86.9035 92.104C85.2395 92.104 83.8635 91.576 83.8315 88.872H89.5915V88.408C89.5915 85.496 88.5835 84.04 86.3595 84.04C84.2315 84.04 82.5515 85.4 82.5515 88.808C82.5515 92.136 84.1515 93.192 86.6955 93.192ZM83.8475 87.928C83.9915 85.976 84.9675 85.032 86.2315 85.032C87.6555 85.032 88.2795 86.152 88.2795 87.928H83.8475ZM92.1979 96.28H93.4619V85.288H95.3339V84.264H93.4619V83.656C93.4619 82.344 93.9419 81.832 95.0459 81.832C95.6379 81.832 95.9099 81.896 96.1499 81.96L96.3739 80.936C96.0219 80.824 95.6379 80.76 95.0299 80.76C93.4619 80.76 92.1979 81.544 92.1979 83.672V84.264H90.9179V85.288H92.1979V96.28ZM96.9846 93H98.2486V86.568C98.6646 85.928 99.4646 85.176 100.521 85.176C101.033 85.176 101.289 85.224 101.561 85.288L101.769 84.216C101.609 84.168 101.257 84.072 100.745 84.072C99.5126 84.072 98.6486 84.776 98.2486 85.432V84.264H96.9846V93ZM103.172 93H104.452V84.264H103.172V93ZM103.796 82.632L104.868 81.56L103.796 80.504L102.756 81.56L103.796 82.632ZM111.328 93H112.608V84.264H111.328V93ZM111.952 82.632L113.024 81.56L111.952 80.504L110.912 81.56L111.952 82.632ZM115.313 93H116.577V86.232C117.361 85.688 118.257 85.16 119.377 85.16C120.865 85.16 121.105 86.104 121.105 87.608V93H122.337V87.368C122.337 85.896 122.177 84.04 119.697 84.04C118.337 84.04 117.489 84.584 116.577 85.256V84.264H115.313V93ZM124.938 93H126.202V86.232C126.986 85.688 127.882 85.16 129.002 85.16C130.49 85.16 130.73 86.104 130.73 87.608V93H131.962V87.368C131.962 85.896 131.802 84.04 129.322 84.04C127.962 84.04 127.114 84.584 126.202 85.256V84.264H124.938V93ZM137.539 93.192C138.131 93.192 138.947 93.032 139.395 92.872L139.171 91.832C138.803 91.96 138.179 92.088 137.699 92.088C136.691 92.088 136.131 91.752 136.131 90.52V85.336H138.851V84.264H136.115V82.472H134.883V84.264H133.603V85.336H134.883V90.568C134.883 92.632 135.907 93.192 137.539 93.192ZM144.602 93.192C145.706 93.192 146.698 93 147.354 92.728L147.13 91.704C146.314 91.96 145.658 92.104 144.81 92.104C143.146 92.104 141.77 91.576 141.738 88.872H147.498V88.408C147.498 85.496 146.49 84.04 144.266 84.04C142.138 84.04 140.458 85.4 140.458 88.808C140.458 92.136 142.058 93.192 144.602 93.192ZM141.754 87.928C141.898 85.976 142.874 85.032 144.138 85.032C145.562 85.032 146.186 86.152 146.186 87.928H141.754ZM156.376 93.128L156.648 92.184C156.104 92.04 155.304 91.528 154.504 90.552L152.712 88.344L156.424 84.264H154.968L151.288 88.392L153.752 91.512C154.872 92.92 155.784 93.096 156.376 93.128ZM149.672 93H150.936V80.936H149.672V93ZM161.242 93.192C161.834 93.192 162.65 93.032 163.098 92.872L162.874 91.832C162.506 91.96 161.882 92.088 161.402 92.088C160.394 92.088 159.834 91.752 159.834 90.52V85.336H162.554V84.264H159.818V82.472H158.586V84.264H157.306V85.336H158.586V90.568C158.586 92.632 159.61 93.192 161.242 93.192ZM164.881 93H166.401V91.496H164.881V93ZM164.881 85.768H166.401V84.264H164.881V85.768Z" fill="#333333"/>
<circle cx="215" cy="88.1279" r="3.5" stroke="#007272"/>
<path d="M360.691 38.1401H362.419L357.411 32.0601L362.099 26.8281H360.435L355.955 31.9801V32.2201L360.691 38.1401ZM354.227 38.1401H355.539V26.8281H354.227V38.1401ZM363.922 38.1401H365.186V31.7081C365.602 31.0681 366.402 30.3161 367.458 30.3161C367.97 30.3161 368.226 30.3641 368.498 30.4281L368.706 29.3561C368.546 29.3081 368.194 29.2121 367.682 29.2121C366.45 29.2121 365.586 29.9161 365.186 30.5721V29.4041H363.922V38.1401ZM374.282 38.1401H375.562V29.4041H374.282V38.1401ZM374.906 27.7721L375.978 26.7001L374.906 25.6441L373.866 26.7001L374.906 27.7721ZM384.39 38.2841C385.894 38.2841 386.87 37.4681 387.302 37.1321C387.414 37.9161 388.214 38.2361 388.982 38.2361C389.094 38.2361 389.254 38.2201 389.334 38.2041L389.382 37.2281C388.966 37.2281 388.438 37.0841 388.438 36.4281V31.5961C388.438 29.8841 387.27 29.1801 385.35 29.1801C384.166 29.1801 383.19 29.4361 382.518 29.7241L382.806 30.7161C383.526 30.4441 384.23 30.2841 385.174 30.2841C386.55 30.2841 387.206 30.6201 387.206 32.0121V33.1321L385.126 33.1641C383.702 33.1961 381.782 33.6441 381.782 35.8201C381.782 37.4041 382.806 38.2841 384.39 38.2841ZM384.678 37.2601C383.718 37.2601 382.998 36.7801 382.998 35.7721C382.998 34.7481 383.75 34.1401 385.11 34.0921L387.206 34.0121V36.2841C386.55 36.7641 385.638 37.2601 384.678 37.2601ZM385.638 28.3161C386.598 28.3161 387.366 27.7561 387.366 26.7161C387.366 25.5161 386.374 25.1161 385.606 25.1161C384.71 25.1161 383.862 25.6761 383.862 26.7481C383.862 27.8681 384.742 28.3161 385.638 28.3161ZM385.622 27.6601C385.046 27.6601 384.646 27.2761 384.646 26.7001C384.646 26.1241 385.014 25.8041 385.606 25.8041C386.134 25.8041 386.582 26.1561 386.582 26.7321C386.566 27.3081 386.214 27.6601 385.622 27.6601ZM391.266 38.1401H392.53V31.7081C392.946 31.0681 393.746 30.3161 394.802 30.3161C395.314 30.3161 395.57 30.3641 395.842 30.4281L396.05 29.3561C395.89 29.3081 395.538 29.2121 395.026 29.2121C393.794 29.2121 392.93 29.9161 392.53 30.5721V29.4041H391.266V38.1401ZM401.117 38.3321C402.221 38.3321 403.213 38.1401 403.869 37.8681L403.645 36.8441C402.829 37.1001 402.173 37.2441 401.325 37.2441C399.661 37.2441 398.285 36.7161 398.253 34.0121H404.013V33.5481C404.013 30.6361 403.005 29.1801 400.781 29.1801C398.653 29.1801 396.973 30.5401 396.973 33.9481C396.973 37.2761 398.573 38.3321 401.117 38.3321ZM398.269 33.0681C398.413 31.1161 399.389 30.1721 400.653 30.1721C402.077 30.1721 402.701 31.2921 402.701 33.0681H398.269ZM409.164 38.3321C409.756 38.3321 410.572 38.1721 411.02 38.0121L410.796 36.9721C410.428 37.1001 409.804 37.2281 409.324 37.2281C408.316 37.2281 407.756 36.8921 407.756 35.6601V30.4761H410.476V29.4041H407.74V27.6121H406.508V29.4041H405.228V30.4761H406.508V35.7081C406.508 37.7721 407.532 38.3321 409.164 38.3321Z" fill="#333333"/>
</svg>
