<svg width="168" height="48" viewBox="0 0 168 48" fill="none" xmlns="http://www.w3.org/2000/svg">
<rect x="8" y="7.99991" width="152" height="8" fill="#DB00FF" fill-opacity="0.25"/>
<rect x="8" y="31.9999" width="152" height="8" fill="#DB00FF" fill-opacity="0.25"/>
<rect x="8" y="7.99998" width="16" height="31.9999" fill="#DB00FF" fill-opacity="0.25"/>
<rect x="144" y="8" width="16" height="31.9999" fill="#DB00FF" fill-opacity="0.25"/>
<rect x="8.5" y="8.49991" width="151" height="31" rx="15.5" stroke="#007272"/>
<path d="M30.7605 30.1919C32.3765 30.1919 33.2565 29.9199 33.9925 29.6479L33.6725 28.5919C32.9685 28.8479 32.0725 29.0079 31.0165 29.0079C28.4245 29.0079 26.2485 27.6319 26.2485 24.2559C26.2485 20.9599 28.3605 19.6799 30.7285 19.6799C32.0245 19.6799 32.7605 19.9359 33.5765 20.2239L33.9765 19.1679C33.3365 18.8639 32.3445 18.5279 30.6965 18.5279C27.0485 18.5279 24.8885 20.8959 24.8885 24.4159C24.8885 27.7919 27.0165 30.1919 30.7605 30.1919ZM35.8339 29.9999H37.0979V23.2479C37.8499 22.7679 38.7939 22.1759 39.9139 22.1759C41.3699 22.1759 41.6259 23.1039 41.6259 24.6239V29.9999H42.8419V24.3679C42.8419 22.9119 42.6979 21.0559 40.2019 21.0559C38.8099 21.0559 37.8179 21.7439 37.0979 22.2719V17.9359H35.8339V29.9999ZM48.5843 30.1919C50.8723 30.1919 52.5683 28.7359 52.5683 25.5839C52.5683 22.7039 51.2403 21.0399 48.7603 21.0399C46.3283 21.0399 44.6963 22.7039 44.6963 25.7279C44.6963 28.5919 46.1843 30.1919 48.5843 30.1919ZM48.6643 29.1519C46.6163 29.1519 45.9763 27.4559 45.9763 25.6639C45.9763 23.9999 46.5203 22.0799 48.6643 22.0799C50.8083 22.0799 51.2883 24.0159 51.2883 25.6639C51.2883 27.3759 50.7763 29.1519 48.6643 29.1519ZM57.8801 30.1919C60.1681 30.1919 61.8641 28.7359 61.8641 25.5839C61.8641 22.7039 60.5361 21.0399 58.0561 21.0399C55.6241 21.0399 53.9921 22.7039 53.9921 25.7279C53.9921 28.5919 55.4801 30.1919 57.8801 30.1919ZM57.9601 29.1519C55.9121 29.1519 55.2721 27.4559 55.2721 25.6639C55.2721 23.9999 55.8161 22.0799 57.9601 22.0799C60.1041 22.0799 60.5841 24.0159 60.5841 25.6639C60.5841 27.3759 60.0721 29.1519 57.9601 29.1519ZM65.5599 30.1919C67.1119 30.1919 68.9519 29.5519 68.9519 27.6799C68.9519 24.7839 64.5839 25.3759 64.5839 23.3759C64.5839 22.6559 65.0959 22.0959 66.2959 22.0959C66.9359 22.0959 67.6559 22.2399 68.2159 22.4639L68.5039 21.4559C67.8799 21.1839 66.9999 21.0399 66.3119 21.0399C64.6799 21.0399 63.3519 21.8879 63.3519 23.4879C63.3519 26.3679 67.7519 25.8079 67.7519 27.7599C67.7519 28.6239 66.9359 29.1199 65.6559 29.1199C64.9039 29.1199 64.0879 28.9599 63.3199 28.7359L63.1119 29.8079C63.7519 30.0159 64.7439 30.1919 65.5599 30.1919ZM74.3531 30.1919C75.4571 30.1919 76.4491 29.9999 77.1051 29.7279L76.8811 28.7039C76.0651 28.9599 75.4091 29.1039 74.5611 29.1039C72.8971 29.1039 71.5211 28.5759 71.4891 25.8719H77.2491V25.4079C77.2491 22.4959 76.2411 21.0399 74.0171 21.0399C71.8891 21.0399 70.2091 22.3999 70.2091 25.8079C70.2091 29.1359 71.8091 30.1919 74.3531 30.1919ZM71.5051 24.9279C71.6491 22.9759 72.6251 22.0319 73.8891 22.0319C75.3131 22.0319 75.9371 23.1519 75.9371 24.9279H71.5051ZM83.0621 29.9999H84.3421V21.2639H83.0621V29.9999ZM83.6861 19.6319L84.7581 18.5599L83.6861 17.5039L82.6461 18.5599L83.6861 19.6319ZM86.7798 29.9999H88.0438V23.2319C88.8278 22.6879 89.7238 22.1599 90.8438 22.1599C92.3318 22.1599 92.5718 23.1039 92.5718 24.6079V29.9999H93.8038V24.3679C93.8038 22.8959 93.6438 21.0399 91.1638 21.0399C89.8038 21.0399 88.9558 21.5839 88.0438 22.2559V21.2639H86.7798V29.9999ZM100.043 29.9999H101.307V17.9359H100.043V29.9999ZM103.73 29.9999H105.01V21.2639H103.73V29.9999ZM104.354 19.6319L105.426 18.5599L104.354 17.5039L103.314 18.5599L104.354 19.6319ZM109.223 30.1919C110.775 30.1919 112.615 29.5519 112.615 27.6799C112.615 24.7839 108.247 25.3759 108.247 23.3759C108.247 22.6559 108.759 22.0959 109.959 22.0959C110.599 22.0959 111.319 22.2399 111.879 22.4639L112.167 21.4559C111.543 21.1839 110.663 21.0399 109.975 21.0399C108.343 21.0399 107.015 21.8879 107.015 23.4879C107.015 26.3679 111.415 25.8079 111.415 27.7599C111.415 28.6239 110.599 29.1199 109.319 29.1199C108.567 29.1199 107.751 28.9599 106.983 28.7359L106.775 29.8079C107.415 30.0159 108.407 30.1919 109.223 30.1919ZM117.329 30.1919C117.921 30.1919 118.737 30.0319 119.185 29.8719L118.961 28.8319C118.593 28.9599 117.969 29.0879 117.489 29.0879C116.481 29.0879 115.921 28.7519 115.921 27.5199V22.3359H118.641V21.2639H115.905V19.4719H114.673V21.2639H113.393V22.3359H114.673V27.5679C114.673 29.6319 115.697 30.1919 117.329 30.1919Z" fill="#14555A"/>
<path fill-rule="evenodd" clip-rule="evenodd" d="M132.03 21.2196C131.737 20.9267 131.263 20.9267 130.97 21.2196C130.677 21.5125 130.677 21.9873 130.97 22.2802L135.47 26.7802C135.506 26.8169 135.546 26.8489 135.587 26.8763C135.878 27.0686 136.274 27.0365 136.53 26.7802L141.03 22.2802C141.323 21.9873 141.323 21.5125 141.03 21.2196C140.737 20.9267 140.263 20.9267 139.97 21.2196L136 25.1892L132.03 21.2196Z" fill="#008484"/>
</svg>
