<svg width="104" height="112" viewBox="0 0 104 112" fill="none" xmlns="http://www.w3.org/2000/svg">
<path d="M81.6951 54.7C82.3551 54.7 82.8561 54.976 83.1981 55.528C83.5461 56.074 83.7201 56.863 83.7201 57.895C83.7201 58.933 83.5461 59.728 83.1981 60.28C82.8561 60.826 82.3551 61.099 81.6951 61.099C81.0351 61.099 80.5311 60.826 80.1831 60.28C79.8411 59.728 79.6701 58.933 79.6701 57.895C79.6701 56.863 79.8411 56.074 80.1831 55.528C80.5311 54.976 81.0351 54.7 81.6951 54.7ZM81.6951 55.312C80.8731 55.312 80.4621 56.173 80.4621 57.895C80.4621 59.623 80.8731 60.487 81.6951 60.487C82.5171 60.487 82.9281 59.623 82.9281 57.895C82.9281 56.173 82.5171 55.312 81.6951 55.312ZM81.6951 57.31C81.8631 57.31 82.0041 57.367 82.1181 57.481C82.2321 57.595 82.2891 57.733 82.2891 57.895C82.2891 58.063 82.2321 58.204 82.1181 58.318C82.0041 58.432 81.8631 58.489 81.6951 58.489C81.5271 58.489 81.3861 58.432 81.2721 58.318C81.1641 58.204 81.1101 58.063 81.1101 57.895C81.1101 57.733 81.1641 57.595 81.2721 57.481C81.3861 57.367 81.5271 57.31 81.6951 57.31ZM86.2906 60.307C86.2906 60.085 86.3656 59.899 86.5156 59.749C86.6716 59.593 86.8606 59.515 87.0826 59.515C87.3106 59.515 87.4996 59.593 87.6496 59.749C87.7996 59.899 87.8746 60.085 87.8746 60.307C87.8746 60.535 87.7996 60.724 87.6496 60.874C87.4996 61.024 87.3106 61.099 87.0826 61.099C86.8606 61.099 86.6716 61.024 86.5156 60.874C86.3656 60.718 86.2906 60.529 86.2906 60.307ZM94.0631 55.411H91.6151V57.364C91.7891 57.262 91.9601 57.193 92.1281 57.157C92.3021 57.115 92.4851 57.094 92.6771 57.094C93.1931 57.094 93.6041 57.265 93.9101 57.607C94.2221 57.949 94.3781 58.426 94.3781 59.038C94.3781 59.446 94.2911 59.806 94.1171 60.118C93.9491 60.43 93.7061 60.673 93.3881 60.847C93.0701 61.015 92.7011 61.099 92.2811 61.099C91.5911 61.099 90.9911 60.853 90.4811 60.361L90.9491 59.902C91.3271 60.286 91.7711 60.478 92.2811 60.478C92.6951 60.478 93.0161 60.352 93.2441 60.1C93.4721 59.848 93.5861 59.485 93.5861 59.011C93.5861 58.543 93.4841 58.207 93.2801 58.003C93.0761 57.793 92.8031 57.688 92.4611 57.688C92.2991 57.688 92.1521 57.703 92.0201 57.733C91.8881 57.763 91.7141 57.817 91.4981 57.895H90.8861V54.799H94.1711L94.0631 55.411Z" fill="black"/>
<path d="M23.7228 97.7C24.1008 97.7 24.4308 97.775 24.7128 97.925C25.0008 98.075 25.2198 98.282 25.3698 98.546C25.5198 98.804 25.5948 99.098 25.5948 99.428C25.5948 99.812 25.5048 100.184 25.3248 100.544C25.1508 100.904 24.8688 101.3 24.4788 101.732C24.0888 102.158 23.5368 102.698 22.8228 103.352H25.7388L25.6488 104H21.9588V103.388C22.7688 102.614 23.3688 102.008 23.7588 101.57C24.1548 101.132 24.4278 100.757 24.5778 100.445C24.7278 100.133 24.8028 99.803 24.8028 99.455C24.8028 99.107 24.7038 98.834 24.5058 98.636C24.3078 98.438 24.0348 98.339 23.6868 98.339C23.3928 98.339 23.1468 98.39 22.9488 98.492C22.7568 98.588 22.5588 98.756 22.3548 98.996L21.8328 98.591C22.0788 98.285 22.3518 98.06 22.6518 97.916C22.9578 97.772 23.3148 97.7 23.7228 97.7Z" fill="black"/>
<path d="M43.7228 97.7C44.1008 97.7 44.4338 97.772 44.7218 97.916C45.0098 98.054 45.2318 98.243 45.3878 98.483C45.5438 98.717 45.6218 98.975 45.6218 99.257C45.6218 99.617 45.5048 99.932 45.2708 100.202C45.0368 100.466 44.7518 100.631 44.4158 100.697C44.8058 100.727 45.1358 100.874 45.4058 101.138C45.6818 101.402 45.8198 101.762 45.8198 102.218C45.8198 102.572 45.7298 102.893 45.5498 103.181C45.3698 103.469 45.1148 103.694 44.7848 103.856C44.4608 104.018 44.0888 104.099 43.6688 104.099C43.3028 104.099 42.9488 104.03 42.6068 103.892C42.2708 103.754 41.9918 103.55 41.7698 103.28L42.2738 102.866C42.4418 103.064 42.6458 103.217 42.8858 103.325C43.1318 103.427 43.3868 103.478 43.6508 103.478C44.0828 103.478 44.4188 103.367 44.6588 103.145C44.9048 102.917 45.0278 102.608 45.0278 102.218C45.0278 101.432 44.5988 101.039 43.7408 101.039H43.2278L43.3178 100.436H43.6868C44.0108 100.436 44.2868 100.346 44.5148 100.166C44.7428 99.98 44.8568 99.71 44.8568 99.356C44.8568 99.026 44.7458 98.771 44.5238 98.591C44.3078 98.405 44.0288 98.312 43.6868 98.312C43.4288 98.312 43.1978 98.357 42.9938 98.447C42.7958 98.537 42.5888 98.681 42.3728 98.879L41.9588 98.42C42.4628 97.94 43.0508 97.7 43.7228 97.7Z" fill="black"/>
<path d="M48.3077 52H23.6923C19.444 52 16 55.5817 16 60C16 64.4183 19.444 68 23.6923 68H48.3077C52.556 68 56 64.4183 56 60C56 55.5817 52.556 52 48.3077 52Z" fill="#B3DADA"/>
<path d="M26.0774 56.0205V64.0205" stroke="#007272"/>
<path d="M56 60C56 53.3726 50.6274 48 44 48C37.3726 48 32 53.3726 32 60C32 66.6274 37.3726 72 44 72C50.6274 72 56 66.6274 56 60Z" fill="#008484"/>
<rect x="32" y="48" width="24" height="32" fill="#00D9FF" fill-opacity="0.5"/>
<rect x="16" y="48" width="16" height="32" fill="#FFFF7A" fill-opacity="0.5"/>
<rect x="8" y="48" width="56" height="4" fill="#DB00FF" fill-opacity="0.25"/>
<rect x="8" y="56" width="56" height="4" fill="#DB00FF" fill-opacity="0.25"/>
<rect x="8" y="64" width="56" height="4" fill="#DB00FF" fill-opacity="0.25"/>
<path d="M48.3077 12H23.6923C19.444 12 16 15.5817 16 20C16 24.4183 19.444 28 23.6923 28H48.3077C52.556 28 56 24.4183 56 20C56 15.5817 52.556 12 48.3077 12Z" fill="#B3DADA"/>
<path d="M26.0774 16.0205V24.0205" stroke="#007272"/>
<path d="M56 20C56 13.3726 50.6274 8 44 8C37.3726 8 32 13.3726 32 20C32 26.6274 37.3726 32 44 32C50.6274 32 56 26.6274 56 20Z" fill="#008484"/>
<line x1="66" y1="58" x2="78" y2="58" stroke="#B3B3B3"/>
<line x1="43.5" y1="96" x2="43.5" y2="82" stroke="#B3B3B3"/>
<line x1="24.5" y1="96" x2="24.5" y2="82" stroke="#B3B3B3"/>
</svg>
