<svg width="146" height="112" viewBox="0 0 146 112" fill="none" xmlns="http://www.w3.org/2000/svg">
<path d="M118.6 47.6C119.48 47.6 120.148 47.968 120.604 48.704C121.068 49.432 121.3 50.484 121.3 51.86C121.3 53.244 121.068 54.304 120.604 55.04C120.148 55.768 119.48 56.132 118.6 56.132C117.72 56.132 117.048 55.768 116.584 55.04C116.128 54.304 115.9 53.244 115.9 51.86C115.9 50.484 116.128 49.432 116.584 48.704C117.048 47.968 117.72 47.6 118.6 47.6ZM118.6 48.416C117.504 48.416 116.956 49.564 116.956 51.86C116.956 54.164 117.504 55.316 118.6 55.316C119.696 55.316 120.244 54.164 120.244 51.86C120.244 49.564 119.696 48.416 118.6 48.416ZM118.6 51.08C118.824 51.08 119.012 51.156 119.164 51.308C119.316 51.46 119.392 51.644 119.392 51.86C119.392 52.084 119.316 52.272 119.164 52.424C119.012 52.576 118.824 52.652 118.6 52.652C118.376 52.652 118.188 52.576 118.036 52.424C117.892 52.272 117.82 52.084 117.82 51.86C117.82 51.644 117.892 51.46 118.036 51.308C118.188 51.156 118.376 51.08 118.6 51.08ZM124.727 55.076C124.727 54.78 124.827 54.532 125.027 54.332C125.235 54.124 125.487 54.02 125.783 54.02C126.087 54.02 126.339 54.124 126.539 54.332C126.739 54.532 126.839 54.78 126.839 55.076C126.839 55.38 126.739 55.632 126.539 55.832C126.339 56.032 126.087 56.132 125.783 56.132C125.487 56.132 125.235 56.032 125.027 55.832C124.827 55.624 124.727 55.372 124.727 55.076ZM135.091 48.548H131.827V51.152C132.059 51.016 132.287 50.924 132.511 50.876C132.743 50.82 132.987 50.792 133.243 50.792C133.931 50.792 134.479 51.02 134.887 51.476C135.303 51.932 135.511 52.568 135.511 53.384C135.511 53.928 135.395 54.408 135.163 54.824C134.939 55.24 134.615 55.564 134.191 55.796C133.767 56.02 133.275 56.132 132.715 56.132C131.795 56.132 130.995 55.804 130.315 55.148L130.939 54.536C131.443 55.048 132.035 55.304 132.715 55.304C133.267 55.304 133.695 55.136 133.999 54.8C134.303 54.464 134.455 53.98 134.455 53.348C134.455 52.724 134.319 52.276 134.047 52.004C133.775 51.724 133.411 51.584 132.955 51.584C132.739 51.584 132.543 51.604 132.367 51.644C132.191 51.684 131.959 51.756 131.671 51.86H130.855V47.732H135.235L135.091 48.548Z" fill="black"/>
<path d="M118.6 58.6C119.48 58.6 120.148 58.968 120.604 59.704C121.068 60.432 121.3 61.484 121.3 62.86C121.3 64.244 121.068 65.304 120.604 66.04C120.148 66.768 119.48 67.132 118.6 67.132C117.72 67.132 117.048 66.768 116.584 66.04C116.128 65.304 115.9 64.244 115.9 62.86C115.9 61.484 116.128 60.432 116.584 59.704C117.048 58.968 117.72 58.6 118.6 58.6ZM118.6 59.416C117.504 59.416 116.956 60.564 116.956 62.86C116.956 65.164 117.504 66.316 118.6 66.316C119.696 66.316 120.244 65.164 120.244 62.86C120.244 60.564 119.696 59.416 118.6 59.416ZM118.6 62.08C118.824 62.08 119.012 62.156 119.164 62.308C119.316 62.46 119.392 62.644 119.392 62.86C119.392 63.084 119.316 63.272 119.164 63.424C119.012 63.576 118.824 63.652 118.6 63.652C118.376 63.652 118.188 63.576 118.036 63.424C117.892 63.272 117.82 63.084 117.82 62.86C117.82 62.644 117.892 62.46 118.036 62.308C118.188 62.156 118.376 62.08 118.6 62.08ZM124.727 66.076C124.727 65.78 124.827 65.532 125.027 65.332C125.235 65.124 125.487 65.02 125.783 65.02C126.087 65.02 126.339 65.124 126.539 65.332C126.739 65.532 126.839 65.78 126.839 66.076C126.839 66.38 126.739 66.632 126.539 66.832C126.339 67.032 126.087 67.132 125.783 67.132C125.487 67.132 125.235 67.032 125.027 66.832C124.827 66.624 124.727 66.372 124.727 66.076ZM135.091 59.548H131.827V62.152C132.059 62.016 132.287 61.924 132.511 61.876C132.743 61.82 132.987 61.792 133.243 61.792C133.931 61.792 134.479 62.02 134.887 62.476C135.303 62.932 135.511 63.568 135.511 64.384C135.511 64.928 135.395 65.408 135.163 65.824C134.939 66.24 134.615 66.564 134.191 66.796C133.767 67.02 133.275 67.132 132.715 67.132C131.795 67.132 130.995 66.804 130.315 66.148L130.939 65.536C131.443 66.048 132.035 66.304 132.715 66.304C133.267 66.304 133.695 66.136 133.999 65.8C134.303 65.464 134.455 64.98 134.455 64.348C134.455 63.724 134.319 63.276 134.047 63.004C133.775 62.724 133.411 62.584 132.955 62.584C132.739 62.584 132.543 62.604 132.367 62.644C132.191 62.684 131.959 62.756 131.671 62.86H130.855V58.732H135.235L135.091 59.548Z" fill="black"/>
<path d="M12.2605 42.6C13.1405 42.6 13.8085 42.968 14.2645 43.704C14.7285 44.432 14.9605 45.484 14.9605 46.86C14.9605 48.244 14.7285 49.304 14.2645 50.04C13.8085 50.768 13.1405 51.132 12.2605 51.132C11.3805 51.132 10.7085 50.768 10.2445 50.04C9.78852 49.304 9.56052 48.244 9.56052 46.86C9.56052 45.484 9.78852 44.432 10.2445 43.704C10.7085 42.968 11.3805 42.6 12.2605 42.6ZM12.2605 43.416C11.1645 43.416 10.6165 44.564 10.6165 46.86C10.6165 49.164 11.1645 50.316 12.2605 50.316C13.3565 50.316 13.9045 49.164 13.9045 46.86C13.9045 44.564 13.3565 43.416 12.2605 43.416ZM12.2605 46.08C12.4845 46.08 12.6725 46.156 12.8245 46.308C12.9765 46.46 13.0525 46.644 13.0525 46.86C13.0525 47.084 12.9765 47.272 12.8245 47.424C12.6725 47.576 12.4845 47.652 12.2605 47.652C12.0365 47.652 11.8485 47.576 11.6965 47.424C11.5525 47.272 11.4805 47.084 11.4805 46.86C11.4805 46.644 11.5525 46.46 11.6965 46.308C11.8485 46.156 12.0365 46.08 12.2605 46.08ZM18.3878 50.076C18.3878 49.78 18.4878 49.532 18.6878 49.332C18.8958 49.124 19.1478 49.02 19.4438 49.02C19.7478 49.02 19.9998 49.124 20.1998 49.332C20.3998 49.532 20.4998 49.78 20.4998 50.076C20.4998 50.38 20.3998 50.632 20.1998 50.832C19.9998 51.032 19.7478 51.132 19.4438 51.132C19.1478 51.132 18.8958 51.032 18.6878 50.832C18.4878 50.624 18.3878 50.372 18.3878 50.076ZM28.7511 43.548H25.4871V46.152C25.7191 46.016 25.9471 45.924 26.1711 45.876C26.4031 45.82 26.6471 45.792 26.9031 45.792C27.5911 45.792 28.1391 46.02 28.5471 46.476C28.9631 46.932 29.1711 47.568 29.1711 48.384C29.1711 48.928 29.0551 49.408 28.8231 49.824C28.5991 50.24 28.2751 50.564 27.8511 50.796C27.4271 51.02 26.9351 51.132 26.3751 51.132C25.4551 51.132 24.6551 50.804 23.9751 50.148L24.5991 49.536C25.1031 50.048 25.6951 50.304 26.3751 50.304C26.9271 50.304 27.3551 50.136 27.6591 49.8C27.9631 49.464 28.1151 48.98 28.1151 48.348C28.1151 47.724 27.9791 47.276 27.7071 47.004C27.4351 46.724 27.0711 46.584 26.6151 46.584C26.3991 46.584 26.2031 46.604 26.0271 46.644C25.8511 46.684 25.6191 46.756 25.3311 46.86H24.5151V42.732H28.8951L28.7511 43.548Z" fill="black"/>
<path d="M12.2605 53.6C13.1405 53.6 13.8085 53.968 14.2645 54.704C14.7285 55.432 14.9605 56.484 14.9605 57.86C14.9605 59.244 14.7285 60.304 14.2645 61.04C13.8085 61.768 13.1405 62.132 12.2605 62.132C11.3805 62.132 10.7085 61.768 10.2445 61.04C9.78852 60.304 9.56052 59.244 9.56052 57.86C9.56052 56.484 9.78852 55.432 10.2445 54.704C10.7085 53.968 11.3805 53.6 12.2605 53.6ZM12.2605 54.416C11.1645 54.416 10.6165 55.564 10.6165 57.86C10.6165 60.164 11.1645 61.316 12.2605 61.316C13.3565 61.316 13.9045 60.164 13.9045 57.86C13.9045 55.564 13.3565 54.416 12.2605 54.416ZM12.2605 57.08C12.4845 57.08 12.6725 57.156 12.8245 57.308C12.9765 57.46 13.0525 57.644 13.0525 57.86C13.0525 58.084 12.9765 58.272 12.8245 58.424C12.6725 58.576 12.4845 58.652 12.2605 58.652C12.0365 58.652 11.8485 58.576 11.6965 58.424C11.5525 58.272 11.4805 58.084 11.4805 57.86C11.4805 57.644 11.5525 57.46 11.6965 57.308C11.8485 57.156 12.0365 57.08 12.2605 57.08ZM18.3878 61.076C18.3878 60.78 18.4878 60.532 18.6878 60.332C18.8958 60.124 19.1478 60.02 19.4438 60.02C19.7478 60.02 19.9998 60.124 20.1998 60.332C20.3998 60.532 20.4998 60.78 20.4998 61.076C20.4998 61.38 20.3998 61.632 20.1998 61.832C19.9998 62.032 19.7478 62.132 19.4438 62.132C19.1478 62.132 18.8958 62.032 18.6878 61.832C18.4878 61.624 18.3878 61.372 18.3878 61.076ZM28.7511 54.548H25.4871V57.152C25.7191 57.016 25.9471 56.924 26.1711 56.876C26.4031 56.82 26.6471 56.792 26.9031 56.792C27.5911 56.792 28.1391 57.02 28.5471 57.476C28.9631 57.932 29.1711 58.568 29.1711 59.384C29.1711 59.928 29.0551 60.408 28.8231 60.824C28.5991 61.24 28.2751 61.564 27.8511 61.796C27.4271 62.02 26.9351 62.132 26.3751 62.132C25.4551 62.132 24.6551 61.804 23.9751 61.148L24.5991 60.536C25.1031 61.048 25.6951 61.304 26.3751 61.304C26.9271 61.304 27.3551 61.136 27.6591 60.8C27.9631 60.464 28.1151 59.98 28.1151 59.348C28.1151 58.724 27.9791 58.276 27.7071 58.004C27.4351 57.724 27.0711 57.584 26.6151 57.584C26.3991 57.584 26.2031 57.604 26.0271 57.644C25.8511 57.684 25.6191 57.756 25.3311 57.86H24.5151V53.732H28.8951L28.7511 54.548Z" fill="black"/>
<path d="M12.2605 64.6C13.1405 64.6 13.8085 64.968 14.2645 65.704C14.7285 66.432 14.9605 67.484 14.9605 68.86C14.9605 70.244 14.7285 71.304 14.2645 72.04C13.8085 72.768 13.1405 73.132 12.2605 73.132C11.3805 73.132 10.7085 72.768 10.2445 72.04C9.78852 71.304 9.56052 70.244 9.56052 68.86C9.56052 67.484 9.78852 66.432 10.2445 65.704C10.7085 64.968 11.3805 64.6 12.2605 64.6ZM12.2605 65.416C11.1645 65.416 10.6165 66.564 10.6165 68.86C10.6165 71.164 11.1645 72.316 12.2605 72.316C13.3565 72.316 13.9045 71.164 13.9045 68.86C13.9045 66.564 13.3565 65.416 12.2605 65.416ZM12.2605 68.08C12.4845 68.08 12.6725 68.156 12.8245 68.308C12.9765 68.46 13.0525 68.644 13.0525 68.86C13.0525 69.084 12.9765 69.272 12.8245 69.424C12.6725 69.576 12.4845 69.652 12.2605 69.652C12.0365 69.652 11.8485 69.576 11.6965 69.424C11.5525 69.272 11.4805 69.084 11.4805 68.86C11.4805 68.644 11.5525 68.46 11.6965 68.308C11.8485 68.156 12.0365 68.08 12.2605 68.08ZM18.3878 72.076C18.3878 71.78 18.4878 71.532 18.6878 71.332C18.8958 71.124 19.1478 71.02 19.4438 71.02C19.7478 71.02 19.9998 71.124 20.1998 71.332C20.3998 71.532 20.4998 71.78 20.4998 72.076C20.4998 72.38 20.3998 72.632 20.1998 72.832C19.9998 73.032 19.7478 73.132 19.4438 73.132C19.1478 73.132 18.8958 73.032 18.6878 72.832C18.4878 72.624 18.3878 72.372 18.3878 72.076ZM28.7511 65.548H25.4871V68.152C25.7191 68.016 25.9471 67.924 26.1711 67.876C26.4031 67.82 26.6471 67.792 26.9031 67.792C27.5911 67.792 28.1391 68.02 28.5471 68.476C28.9631 68.932 29.1711 69.568 29.1711 70.384C29.1711 70.928 29.0551 71.408 28.8231 71.824C28.5991 72.24 28.2751 72.564 27.8511 72.796C27.4271 73.02 26.9351 73.132 26.3751 73.132C25.4551 73.132 24.6551 72.804 23.9751 72.148L24.5991 71.536C25.1031 72.048 25.6951 72.304 26.3751 72.304C26.9271 72.304 27.3551 72.136 27.6591 71.8C27.9631 71.464 28.1151 70.98 28.1151 70.348C28.1151 69.724 27.9791 69.276 27.7071 69.004C27.4351 68.724 27.0711 68.584 26.6151 68.584C26.3991 68.584 26.2031 68.604 26.0271 68.644C25.8511 68.684 25.6191 68.756 25.3311 68.86H24.5151V64.732H28.8951L28.7511 65.548Z" fill="black"/>
<path d="M59.6303 95.6C60.1343 95.6 60.5743 95.7 60.9503 95.9C61.3343 96.1 61.6263 96.376 61.8263 96.728C62.0263 97.072 62.1263 97.464 62.1263 97.904C62.1263 98.416 62.0063 98.912 61.7663 99.392C61.5343 99.872 61.1583 100.4 60.6383 100.976C60.1183 101.544 59.3823 102.264 58.4303 103.136H62.3183L62.1983 104H57.2783V103.184C58.3583 102.152 59.1583 101.344 59.6783 100.76C60.2063 100.176 60.5703 99.676 60.7703 99.26C60.9703 98.844 61.0703 98.404 61.0703 97.94C61.0703 97.476 60.9383 97.112 60.6743 96.848C60.4103 96.584 60.0463 96.452 59.5823 96.452C59.1903 96.452 58.8623 96.52 58.5983 96.656C58.3423 96.784 58.0783 97.008 57.8063 97.328L57.1103 96.788C57.4383 96.38 57.8023 96.08 58.2023 95.888C58.6103 95.696 59.0863 95.6 59.6303 95.6Z" fill="black"/>
<path d="M79.6303 95.6C80.1343 95.6 80.5783 95.696 80.9623 95.888C81.3463 96.072 81.6423 96.324 81.8503 96.644C82.0583 96.956 82.1623 97.3 82.1623 97.676C82.1623 98.156 82.0063 98.576 81.6943 98.936C81.3823 99.288 81.0023 99.508 80.5543 99.596C81.0743 99.636 81.5143 99.832 81.8743 100.184C82.2423 100.536 82.4263 101.016 82.4263 101.624C82.4263 102.096 82.3063 102.524 82.0663 102.908C81.8263 103.292 81.4863 103.592 81.0463 103.808C80.6143 104.024 80.1183 104.132 79.5583 104.132C79.0703 104.132 78.5983 104.04 78.1423 103.856C77.6943 103.672 77.3223 103.4 77.0263 103.04L77.6983 102.488C77.9223 102.752 78.1943 102.956 78.5143 103.1C78.8423 103.236 79.1823 103.304 79.5343 103.304C80.1103 103.304 80.5583 103.156 80.8783 102.86C81.2063 102.556 81.3703 102.144 81.3703 101.624C81.3703 100.576 80.7983 100.052 79.6543 100.052H78.9703L79.0903 99.248H79.5823C80.0143 99.248 80.3823 99.128 80.6863 98.888C80.9903 98.64 81.1423 98.28 81.1423 97.808C81.1423 97.368 80.9943 97.028 80.6983 96.788C80.4103 96.54 80.0383 96.416 79.5823 96.416C79.2383 96.416 78.9303 96.476 78.6583 96.596C78.3943 96.716 78.1183 96.908 77.8303 97.172L77.2783 96.56C77.9503 95.92 78.7343 95.6 79.6303 95.6Z" fill="black"/>
<rect x="68" y="48" width="24" height="32" fill="#00D9FF" fill-opacity="0.5"/>
<rect x="52" y="48" width="16" height="32" fill="#FFFF7A" fill-opacity="0.5"/>
<rect x="44" y="48" width="56" height="4" fill="#DB00FF" fill-opacity="0.25"/>
<rect x="44" y="56" width="56" height="4" fill="#DB00FF" fill-opacity="0.25"/>
<rect x="44" y="64" width="56" height="4" fill="#DB00FF" fill-opacity="0.25"/>
<g opacity="0.5">
<path d="M84.3077 52H59.6923C55.444 52 52 55.5817 52 60C52 64.4183 55.444 68 59.6923 68H84.3077C88.556 68 92 64.4183 92 60C92 55.5817 88.556 52 84.3077 52Z" fill="#B3DADA"/>
<path d="M62.0774 56.0205V64.0205" stroke="#007272"/>
<path d="M92 60C92 53.3726 86.6274 48 80 48C73.3726 48 68 53.3726 68 60C68 66.6274 73.3726 72 80 72C86.6274 72 92 66.6274 92 60Z" fill="#008484"/>
</g>
<path d="M84.3077 12H59.6923C55.444 12 52 15.5817 52 20C52 24.4183 55.444 28 59.6923 28H84.3077C88.556 28 92 24.4183 92 20C92 15.5817 88.556 12 84.3077 12Z" fill="#B3DADA"/>
<path d="M62.0774 16.0205V24.0205" stroke="#007272"/>
<path d="M92 20C92 13.3726 86.6274 8 80 8C73.3726 8 68 13.3726 68 20C68 26.6274 73.3726 32 80 32C86.6274 32 92 26.6274 92 20Z" fill="#008484"/>
<line x1="59.5" y1="92.375" x2="59.5" y2="81.375" stroke="#B3B3B3" stroke-linecap="round" stroke-dasharray="2 3"/>
<line x1="79.5" y1="92.375" x2="79.5" y2="81.375" stroke="#B3B3B3" stroke-linecap="round" stroke-dasharray="2 3"/>
<line x1="100.5" y1="53.9156" x2="111.5" y2="53.9156" stroke="#B3B3B3" stroke-linecap="round" stroke-dasharray="2 3"/>
<line x1="100.5" y1="61.9156" x2="111.5" y2="61.9156" stroke="#B3B3B3" stroke-linecap="round" stroke-dasharray="2 3"/>
<line x1="32.5" y1="48.9156" x2="43.5" y2="48.9156" stroke="#B3B3B3" stroke-linecap="round" stroke-dasharray="2 3"/>
<line x1="32.5" y1="57.9156" x2="43.5" y2="57.9156" stroke="#B3B3B3" stroke-linecap="round" stroke-dasharray="2 3"/>
<line x1="32.5" y1="66.9156" x2="43.5" y2="66.9156" stroke="#B3B3B3" stroke-linecap="round" stroke-dasharray="2 3"/>
</svg>
