<svg width="208" height="240" viewBox="0 0 208 240" fill="none" xmlns="http://www.w3.org/2000/svg">
<rect x="48" y="120" width="104" height="40" rx="20" fill="#008484"/>
<path d="M94.832 145.192C96.448 145.192 97.328 144.92 98.064 144.648L97.744 143.592C97.04 143.848 96.144 144.008 95.088 144.008C92.496 144.008 90.32 142.632 90.32 139.256C90.32 135.96 92.432 134.68 94.8 134.68C96.096 134.68 96.832 134.936 97.648 135.224L98.048 134.168C97.408 133.864 96.416 133.528 94.768 133.528C91.12 133.528 88.96 135.896 88.96 139.416C88.96 142.792 91.088 145.192 94.832 145.192ZM99.9055 145H101.169V132.936H99.9055V145ZM106.984 145.192C109.272 145.192 110.968 143.736 110.968 140.584C110.968 137.704 109.64 136.04 107.16 136.04C104.728 136.04 103.096 137.704 103.096 140.728C103.096 143.592 104.584 145.192 106.984 145.192ZM107.064 144.152C105.016 144.152 104.376 142.456 104.376 140.664C104.376 139 104.92 137.08 107.064 137.08C109.208 137.08 109.688 139.016 109.688 140.664C109.688 142.376 109.176 144.152 107.064 144.152ZM114.664 145.192C116.216 145.192 118.056 144.552 118.056 142.68C118.056 139.784 113.688 140.376 113.688 138.376C113.688 137.656 114.2 137.096 115.4 137.096C116.04 137.096 116.76 137.24 117.32 137.464L117.608 136.456C116.984 136.184 116.104 136.04 115.416 136.04C113.784 136.04 112.456 136.888 112.456 138.488C112.456 141.368 116.856 140.808 116.856 142.76C116.856 143.624 116.04 144.12 114.76 144.12C114.008 144.12 113.192 143.96 112.424 143.736L112.216 144.808C112.856 145.016 113.848 145.192 114.664 145.192ZM123.457 145.192C124.561 145.192 125.553 145 126.209 144.728L125.985 143.704C125.169 143.96 124.513 144.104 123.665 144.104C122.001 144.104 120.625 143.576 120.593 140.872H126.353V140.408C126.353 137.496 125.345 136.04 123.121 136.04C120.993 136.04 119.313 137.4 119.313 140.808C119.313 144.136 120.913 145.192 123.457 145.192ZM120.609 139.928C120.753 137.976 121.729 137.032 122.993 137.032C124.417 137.032 125.041 138.152 125.041 139.928H120.609Z" fill="white"/>
<path fill-rule="evenodd" clip-rule="evenodd" d="M74.7803 136.03C75.0732 135.737 75.0732 135.263 74.7803 134.97C74.4874 134.677 74.0126 134.677 73.7197 134.97L69.2197 139.47C68.9268 139.763 68.9268 140.237 69.2197 140.53L73.7197 145.03C74.0126 145.323 74.4874 145.323 74.7803 145.03C75.0732 144.737 75.0732 144.263 74.7803 143.97L70.8107 140L74.7803 136.03Z" fill="white"/>
<rect x="88" y="120" width="40" height="88" fill="#00D9FF" fill-opacity="0.5"/>
<path d="M127.853 186.354C128.049 186.158 128.049 185.842 127.853 185.646L124.672 182.464C124.476 182.269 124.16 182.269 123.964 182.464C123.769 182.66 123.769 182.976 123.964 183.172L126.793 186L123.964 188.828C123.769 189.024 123.769 189.34 123.964 189.536C124.16 189.731 124.476 189.731 124.672 189.536L127.853 186.354ZM119.036 186.5H127.5V185.5H119.036V186.5Z" fill="black"/>
<path d="M87.6465 185.646C87.4513 185.842 87.4513 186.158 87.6465 186.354L90.8285 189.536C91.0238 189.731 91.3403 189.731 91.5356 189.536C91.7309 189.34 91.7309 189.024 91.5356 188.828L88.7072 186L91.5356 183.172C91.7309 182.976 91.7309 182.66 91.5356 182.464C91.3403 182.269 91.0238 182.269 90.8285 182.464L87.6465 185.646ZM96.4644 185.5H88.0001V186.5H96.4644V185.5Z" fill="black"/>
<path d="M98.3452 186H102.015L105.686 178L109.356 194L113.026 186H117.155" stroke="#333333" stroke-linecap="round" stroke-linejoin="round"/>
<rect x="48" y="120" width="16" height="88" fill="#DB00FF" fill-opacity="0.25"/>
<rect x="128" y="120" width="24" height="88" fill="#DB00FF" fill-opacity="0.25"/>
<rect x="80" y="120" width="8" height="88" fill="#DB00FF" fill-opacity="0.25"/>
<rect x="64" y="120" width="16" height="88" fill="#FFFF7A" fill-opacity="0.5"/>
<path d="M71.6303 223.6C72.1343 223.6 72.5743 223.7 72.9503 223.9C73.3343 224.1 73.6263 224.376 73.8263 224.728C74.0263 225.072 74.1263 225.464 74.1263 225.904C74.1263 226.416 74.0063 226.912 73.7663 227.392C73.5343 227.872 73.1583 228.4 72.6383 228.976C72.1183 229.544 71.3823 230.264 70.4303 231.136H74.3183L74.1983 232H69.2783V231.184C70.3583 230.152 71.1583 229.344 71.6783 228.76C72.2063 228.176 72.5703 227.676 72.7703 227.26C72.9703 226.844 73.0703 226.404 73.0703 225.94C73.0703 225.476 72.9383 225.112 72.6743 224.848C72.4103 224.584 72.0463 224.452 71.5823 224.452C71.1903 224.452 70.8623 224.52 70.5983 224.656C70.3423 224.784 70.0783 225.008 69.8063 225.328L69.1103 224.788C69.4383 224.38 69.8023 224.08 70.2023 223.888C70.6103 223.696 71.0863 223.6 71.6303 223.6Z" fill="black"/>
<path d="M139.63 223.6C140.134 223.6 140.578 223.696 140.962 223.888C141.346 224.072 141.642 224.324 141.85 224.644C142.058 224.956 142.162 225.3 142.162 225.676C142.162 226.156 142.006 226.576 141.694 226.936C141.382 227.288 141.002 227.508 140.554 227.596C141.074 227.636 141.514 227.832 141.874 228.184C142.242 228.536 142.426 229.016 142.426 229.624C142.426 230.096 142.306 230.524 142.066 230.908C141.826 231.292 141.486 231.592 141.046 231.808C140.614 232.024 140.118 232.132 139.558 232.132C139.07 232.132 138.598 232.04 138.142 231.856C137.694 231.672 137.322 231.4 137.026 231.04L137.698 230.488C137.922 230.752 138.194 230.956 138.514 231.1C138.842 231.236 139.182 231.304 139.534 231.304C140.11 231.304 140.558 231.156 140.878 230.86C141.206 230.556 141.37 230.144 141.37 229.624C141.37 228.576 140.798 228.052 139.654 228.052H138.97L139.09 227.248H139.582C140.014 227.248 140.382 227.128 140.686 226.888C140.99 226.64 141.142 226.28 141.142 225.808C141.142 225.368 140.994 225.028 140.698 224.788C140.41 224.54 140.038 224.416 139.582 224.416C139.238 224.416 138.93 224.476 138.658 224.596C138.394 224.716 138.118 224.908 137.83 225.172L137.278 224.56C137.95 223.92 138.734 223.6 139.63 223.6Z" fill="black"/>
<path d="M86.6063 231.184V232H81.8423V231.184H83.8703V224.836L81.9863 225.976L81.5423 225.268L84.0023 223.732H84.8903V231.184H86.6063Z" fill="black"/>
<path d="M55.6303 223.6C56.1343 223.6 56.5743 223.7 56.9503 223.9C57.3343 224.1 57.6263 224.376 57.8263 224.728C58.0263 225.072 58.1263 225.464 58.1263 225.904C58.1263 226.416 58.0063 226.912 57.7663 227.392C57.5343 227.872 57.1583 228.4 56.6383 228.976C56.1183 229.544 55.3823 230.264 54.4303 231.136H58.3183L58.1983 232H53.2783V231.184C54.3583 230.152 55.1583 229.344 55.6783 228.76C56.2063 228.176 56.5703 227.676 56.7703 227.26C56.9703 226.844 57.0703 226.404 57.0703 225.94C57.0703 225.476 56.9383 225.112 56.6743 224.848C56.4103 224.584 56.0463 224.452 55.5823 224.452C55.1903 224.452 54.8623 224.52 54.5983 224.656C54.3423 224.784 54.0783 225.008 53.8063 225.328L53.1103 224.788C53.4383 224.38 53.8023 224.08 54.2023 223.888C54.6103 223.696 55.0863 223.6 55.6303 223.6Z" fill="black"/>
<rect x="48" y="8" width="104" height="40" rx="20" fill="#008484"/>
<path d="M94.832 33.192C96.448 33.192 97.328 32.92 98.064 32.648L97.744 31.592C97.04 31.848 96.144 32.008 95.088 32.008C92.496 32.008 90.32 30.632 90.32 27.256C90.32 23.96 92.432 22.68 94.8 22.68C96.096 22.68 96.832 22.936 97.648 23.224L98.048 22.168C97.408 21.864 96.416 21.528 94.768 21.528C91.12 21.528 88.96 23.896 88.96 27.416C88.96 30.792 91.088 33.192 94.832 33.192ZM99.9055 33H101.169V20.936H99.9055V33ZM106.984 33.192C109.272 33.192 110.968 31.736 110.968 28.584C110.968 25.704 109.64 24.04 107.16 24.04C104.728 24.04 103.096 25.704 103.096 28.728C103.096 31.592 104.584 33.192 106.984 33.192ZM107.064 32.152C105.016 32.152 104.376 30.456 104.376 28.664C104.376 27 104.92 25.08 107.064 25.08C109.208 25.08 109.688 27.016 109.688 28.664C109.688 30.376 109.176 32.152 107.064 32.152ZM114.664 33.192C116.216 33.192 118.056 32.552 118.056 30.68C118.056 27.784 113.688 28.376 113.688 26.376C113.688 25.656 114.2 25.096 115.4 25.096C116.04 25.096 116.76 25.24 117.32 25.464L117.608 24.456C116.984 24.184 116.104 24.04 115.416 24.04C113.784 24.04 112.456 24.888 112.456 26.488C112.456 29.368 116.856 28.808 116.856 30.76C116.856 31.624 116.04 32.12 114.76 32.12C114.008 32.12 113.192 31.96 112.424 31.736L112.216 32.808C112.856 33.016 113.848 33.192 114.664 33.192ZM123.457 33.192C124.561 33.192 125.553 33 126.209 32.728L125.985 31.704C125.169 31.96 124.513 32.104 123.665 32.104C122.001 32.104 120.625 31.576 120.593 28.872H126.353V28.408C126.353 25.496 125.345 24.04 123.121 24.04C120.993 24.04 119.313 25.4 119.313 28.808C119.313 32.136 120.913 33.192 123.457 33.192ZM120.609 27.928C120.753 25.976 121.729 25.032 122.993 25.032C124.417 25.032 125.041 26.152 125.041 27.928H120.609Z" fill="white"/>
<path fill-rule="evenodd" clip-rule="evenodd" d="M74.7803 24.0303C75.0732 23.7374 75.0732 23.2626 74.7803 22.9697C74.4874 22.6768 74.0126 22.6768 73.7197 22.9697L69.2197 27.4697C68.9268 27.7626 68.9268 28.2374 69.2197 28.5303L73.7197 33.0303C74.0126 33.3232 74.4874 33.3232 74.7803 33.0303C75.0732 32.7374 75.0732 32.2626 74.7803 31.9697L70.8107 28L74.7803 24.0303Z" fill="white"/>
<rect x="48" y="64" width="104" height="40" rx="20" fill="#008484"/>
<path d="M94.832 89.192C96.448 89.192 97.328 88.92 98.064 88.648L97.744 87.592C97.04 87.848 96.144 88.008 95.088 88.008C92.496 88.008 90.32 86.632 90.32 83.256C90.32 79.96 92.432 78.68 94.8 78.68C96.096 78.68 96.832 78.936 97.648 79.224L98.048 78.168C97.408 77.864 96.416 77.528 94.768 77.528C91.12 77.528 88.96 79.896 88.96 83.416C88.96 86.792 91.088 89.192 94.832 89.192ZM99.9055 89H101.169V76.936H99.9055V89ZM106.984 89.192C109.272 89.192 110.968 87.736 110.968 84.584C110.968 81.704 109.64 80.04 107.16 80.04C104.728 80.04 103.096 81.704 103.096 84.728C103.096 87.592 104.584 89.192 106.984 89.192ZM107.064 88.152C105.016 88.152 104.376 86.456 104.376 84.664C104.376 83 104.92 81.08 107.064 81.08C109.208 81.08 109.688 83.016 109.688 84.664C109.688 86.376 109.176 88.152 107.064 88.152ZM114.664 89.192C116.216 89.192 118.056 88.552 118.056 86.68C118.056 83.784 113.688 84.376 113.688 82.376C113.688 81.656 114.2 81.096 115.4 81.096C116.04 81.096 116.76 81.24 117.32 81.464L117.608 80.456C116.984 80.184 116.104 80.04 115.416 80.04C113.784 80.04 112.456 80.888 112.456 82.488C112.456 85.368 116.856 84.808 116.856 86.76C116.856 87.624 116.04 88.12 114.76 88.12C114.008 88.12 113.192 87.96 112.424 87.736L112.216 88.808C112.856 89.016 113.848 89.192 114.664 89.192ZM123.457 89.192C124.561 89.192 125.553 89 126.209 88.728L125.985 87.704C125.169 87.96 124.513 88.104 123.665 88.104C122.001 88.104 120.625 87.576 120.593 84.872H126.353V84.408C126.353 81.496 125.345 80.04 123.121 80.04C120.993 80.04 119.313 81.4 119.313 84.808C119.313 88.136 120.913 89.192 123.457 89.192ZM120.609 83.928C120.753 81.976 121.729 81.032 122.993 81.032C124.417 81.032 125.041 82.152 125.041 83.928H120.609Z" fill="white"/>
<path fill-rule="evenodd" clip-rule="evenodd" d="M74.7803 80.0303C75.0732 79.7374 75.0732 79.2626 74.7803 78.9697C74.4874 78.6768 74.0126 78.6768 73.7197 78.9697L69.2197 83.4697C68.9268 83.7626 68.9268 84.2374 69.2197 84.5303L73.7197 89.0303C74.0126 89.3232 74.4874 89.3232 74.7803 89.0303C75.0732 88.7374 75.0732 88.2626 74.7803 87.9697L70.8107 84L74.7803 80.0303Z" fill="white"/>
<rect x="48" y="64" width="128" height="8" fill="#DB00FF" fill-opacity="0.25"/>
<rect x="48" y="96" width="128" height="8" fill="#DB00FF" fill-opacity="0.25"/>
<rect x="48" y="76" width="128" height="16" fill="#00D9FF" fill-opacity="0.5"/>
<rect x="48" y="72" width="128" height="4" fill="#FFFF7A" fill-opacity="0.5"/>
<rect x="48" y="92" width="128" height="4" fill="#FFFF7A" fill-opacity="0.5"/>
<rect x="64" y="76" width="16" height="16" fill="#DB00FF" fill-opacity="0.25"/>
<path d="M15.2578 69.6C16.1378 69.6 16.8058 69.968 17.2618 70.704C17.7258 71.432 17.9578 72.484 17.9578 73.86C17.9578 75.244 17.7258 76.304 17.2618 77.04C16.8058 77.768 16.1378 78.132 15.2578 78.132C14.3778 78.132 13.7058 77.768 13.2418 77.04C12.7858 76.304 12.5578 75.244 12.5578 73.86C12.5578 72.484 12.7858 71.432 13.2418 70.704C13.7058 69.968 14.3778 69.6 15.2578 69.6ZM15.2578 70.416C14.1618 70.416 13.6138 71.564 13.6138 73.86C13.6138 76.164 14.1618 77.316 15.2578 77.316C16.3538 77.316 16.9018 76.164 16.9018 73.86C16.9018 71.564 16.3538 70.416 15.2578 70.416ZM15.2578 73.08C15.4818 73.08 15.6698 73.156 15.8218 73.308C15.9738 73.46 16.0498 73.644 16.0498 73.86C16.0498 74.084 15.9738 74.272 15.8218 74.424C15.6698 74.576 15.4818 74.652 15.2578 74.652C15.0338 74.652 14.8458 74.576 14.6938 74.424C14.5498 74.272 14.4778 74.084 14.4778 73.86C14.4778 73.644 14.5498 73.46 14.6938 73.308C14.8458 73.156 15.0338 73.08 15.2578 73.08ZM21.3851 77.076C21.3851 76.78 21.4851 76.532 21.6851 76.332C21.8931 76.124 22.1451 76.02 22.4411 76.02C22.7451 76.02 22.9971 76.124 23.1971 76.332C23.3971 76.532 23.4971 76.78 23.4971 77.076C23.4971 77.38 23.3971 77.632 23.1971 77.832C22.9971 78.032 22.7451 78.132 22.4411 78.132C22.1451 78.132 21.8931 78.032 21.6851 77.832C21.4851 77.624 21.3851 77.372 21.3851 77.076ZM31.7485 70.548H28.4845V73.152C28.7165 73.016 28.9445 72.924 29.1685 72.876C29.4005 72.82 29.6445 72.792 29.9005 72.792C30.5885 72.792 31.1365 73.02 31.5445 73.476C31.9605 73.932 32.1685 74.568 32.1685 75.384C32.1685 75.928 32.0525 76.408 31.8205 76.824C31.5965 77.24 31.2725 77.564 30.8485 77.796C30.4245 78.02 29.9325 78.132 29.3725 78.132C28.4525 78.132 27.6525 77.804 26.9725 77.148L27.5965 76.536C28.1005 77.048 28.6925 77.304 29.3725 77.304C29.9245 77.304 30.3525 77.136 30.6565 76.8C30.9605 76.464 31.1125 75.98 31.1125 75.348C31.1125 74.724 30.9765 74.276 30.7045 74.004C30.4325 73.724 30.0685 73.584 29.6125 73.584C29.3965 73.584 29.2005 73.604 29.0245 73.644C28.8485 73.684 28.6165 73.756 28.3285 73.86H27.5125V69.732H31.8925L31.7485 70.548Z" fill="black"/>
<path d="M15.2578 90.6C16.1378 90.6 16.8058 90.968 17.2618 91.704C17.7258 92.432 17.9578 93.484 17.9578 94.86C17.9578 96.244 17.7258 97.304 17.2618 98.04C16.8058 98.768 16.1378 99.132 15.2578 99.132C14.3778 99.132 13.7058 98.768 13.2418 98.04C12.7858 97.304 12.5578 96.244 12.5578 94.86C12.5578 93.484 12.7858 92.432 13.2418 91.704C13.7058 90.968 14.3778 90.6 15.2578 90.6ZM15.2578 91.416C14.1618 91.416 13.6138 92.564 13.6138 94.86C13.6138 97.164 14.1618 98.316 15.2578 98.316C16.3538 98.316 16.9018 97.164 16.9018 94.86C16.9018 92.564 16.3538 91.416 15.2578 91.416ZM15.2578 94.08C15.4818 94.08 15.6698 94.156 15.8218 94.308C15.9738 94.46 16.0498 94.644 16.0498 94.86C16.0498 95.084 15.9738 95.272 15.8218 95.424C15.6698 95.576 15.4818 95.652 15.2578 95.652C15.0338 95.652 14.8458 95.576 14.6938 95.424C14.5498 95.272 14.4778 95.084 14.4778 94.86C14.4778 94.644 14.5498 94.46 14.6938 94.308C14.8458 94.156 15.0338 94.08 15.2578 94.08ZM21.3851 98.076C21.3851 97.78 21.4851 97.532 21.6851 97.332C21.8931 97.124 22.1451 97.02 22.4411 97.02C22.7451 97.02 22.9971 97.124 23.1971 97.332C23.3971 97.532 23.4971 97.78 23.4971 98.076C23.4971 98.38 23.3971 98.632 23.1971 98.832C22.9971 99.032 22.7451 99.132 22.4411 99.132C22.1451 99.132 21.8931 99.032 21.6851 98.832C21.4851 98.624 21.3851 98.372 21.3851 98.076ZM31.7485 91.548H28.4845V94.152C28.7165 94.016 28.9445 93.924 29.1685 93.876C29.4005 93.82 29.6445 93.792 29.9005 93.792C30.5885 93.792 31.1365 94.02 31.5445 94.476C31.9605 94.932 32.1685 95.568 32.1685 96.384C32.1685 96.928 32.0525 97.408 31.8205 97.824C31.5965 98.24 31.2725 98.564 30.8485 98.796C30.4245 99.02 29.9325 99.132 29.3725 99.132C28.4525 99.132 27.6525 98.804 26.9725 98.148L27.5965 97.536C28.1005 98.048 28.6925 98.304 29.3725 98.304C29.9245 98.304 30.3525 98.136 30.6565 97.8C30.9605 97.464 31.1125 96.98 31.1125 96.348C31.1125 95.724 30.9765 95.276 30.7045 95.004C30.4325 94.724 30.0685 94.584 29.6125 94.584C29.3965 94.584 29.2005 94.604 29.0245 94.644C28.8485 94.684 28.6165 94.756 28.3285 94.86H27.5125V90.732H31.8925L31.7485 91.548Z" fill="black"/>
<path d="M199.606 71.184V72H194.842V71.184H196.87V64.836L194.986 65.976L194.542 65.268L197.002 63.732H197.89V71.184H199.606Z" fill="black"/>
<path d="M199.606 103.184V104H194.842V103.184H196.87V96.836L194.986 97.976L194.542 97.268L197.002 95.732H197.89V103.184H199.606Z" fill="black"/>
<path d="M196.63 79.6C197.134 79.6 197.574 79.7 197.95 79.9C198.334 80.1 198.626 80.376 198.826 80.728C199.026 81.072 199.126 81.464 199.126 81.904C199.126 82.416 199.006 82.912 198.766 83.392C198.534 83.872 198.158 84.4 197.638 84.976C197.118 85.544 196.382 86.264 195.43 87.136H199.318L199.198 88H194.278V87.184C195.358 86.152 196.158 85.344 196.678 84.76C197.206 84.176 197.57 83.676 197.77 83.26C197.97 82.844 198.07 82.404 198.07 81.94C198.07 81.476 197.938 81.112 197.674 80.848C197.41 80.584 197.046 80.452 196.582 80.452C196.19 80.452 195.862 80.52 195.598 80.656C195.342 80.784 195.078 81.008 194.806 81.328L194.11 80.788C194.438 80.38 194.802 80.08 195.202 79.888C195.61 79.696 196.086 79.6 196.63 79.6Z" fill="black"/>
<line x1="176.5" y1="68.375" x2="187.5" y2="68.375" stroke="#B3B3B3" stroke-linecap="round" stroke-dasharray="2 3"/>
<line x1="36.5" y1="74.375" x2="47.5" y2="74.375" stroke="#B3B3B3" stroke-linecap="round" stroke-dasharray="2 3"/>
<line x1="36.5" y1="94.375" x2="47.5" y2="94.375" stroke="#B3B3B3" stroke-linecap="round" stroke-dasharray="2 3"/>
<line x1="176.5" y1="84.375" x2="187.5" y2="84.375" stroke="#B3B3B3" stroke-linecap="round" stroke-dasharray="2 3"/>
<line x1="176.5" y1="100.375" x2="187.5" y2="100.375" stroke="#B3B3B3" stroke-linecap="round" stroke-dasharray="2 3"/>
<line x1="139.5" y1="220.375" x2="139.5" y2="209.375" stroke="#B3B3B3" stroke-linecap="round" stroke-dasharray="2 3"/>
<line x1="84.5" y1="220.375" x2="84.5" y2="209.375" stroke="#B3B3B3" stroke-linecap="round" stroke-dasharray="2 3"/>
<line x1="55.5" y1="220.375" x2="55.5" y2="209.375" stroke="#B3B3B3" stroke-linecap="round" stroke-dasharray="2 3"/>
<line x1="71.5" y1="220.375" x2="71.5" y2="209.375" stroke="#B3B3B3" stroke-linecap="round" stroke-dasharray="2 3"/>
</svg>
