<svg fill="none" height="104" viewBox="0 0 240 104" width="240" xmlns="http://www.w3.org/2000/svg"><path d="m8 8h64v8h-64zm0 56h64v8h-64zm0-48h8v48h-8zm56 0h8v48h-8z" fill="#a5e1d2"/><path d="m88 8h64v16h-64zm0 48h64v16h-64zm0-32h16v32h-16zm48 0h16v32h-16z" fill="#007272"/><path d="m168 8h64v24h-64zm0 40h64v24h-64zm0-16h24v16h-24zm40 0h24v16h-24z" fill="#14555a"/><path d="m42.6 91.64v.81h-4.76v-.81h2.03v-6.35l-1.88 1.14-.45-.7 2.46-1.55h.89v7.45h1.72zm78.03-7.59c.5 0 .94.1 1.32.3s.68.48.88.83.3.74.3 1.18c0 .51-.12 1-.36 1.49-.24.48-.61 1-1.13 1.58-.52.57-1.26 1.29-2.21 2.16h3.89l-.12.86h-4.92v-.81a45.74 45.74 0 0 0 2.4-2.43c.53-.58.89-1.08 1.09-1.5a3 3 0 0 0 .3-1.32c0-.46-.13-.82-.4-1.09-.26-.26-.62-.4-1.09-.4-.39 0-.72.07-.98.21-.26.13-.52.35-.8.67l-.69-.54c.33-.4.7-.7 1.1-.9.4-.19.88-.29 1.42-.29zm79 0c.5 0 .95.1 1.33.3.39.18.68.43.89.75.2.31.31.65.31 1.03 0 .48-.15.9-.47 1.26a2 2 0 0 1 -1.14.66c.52.04.96.24 1.32.59.37.35.56.83.56 1.44a2.37 2.37 0 0 1 -1.38 2.18 3.75 3.75 0 0 1 -2.9.05 2.8 2.8 0 0 1 -1.12-.82l.67-.55a2.29 2.29 0 0 0 1.83.82 1.9 1.9 0 0 0 1.35-.45c.33-.3.49-.71.49-1.23 0-1.05-.57-1.57-1.72-1.57h-.68l.12-.8h.5c.42 0 .8-.13 1.1-.37.3-.25.45-.6.45-1.08 0-.44-.15-.78-.44-1.02a1.65 1.65 0 0 0 -1.12-.37c-.34 0-.65.06-.92.18s-.54.31-.83.58l-.55-.62a3.3 3.3 0 0 1 2.35-.96z" fill="#000"/></svg>