<svg fill="none" height="608" viewBox="0 0 672 608" width="672" xmlns="http://www.w3.org/2000/svg"><path d="m0 56h672v336h-672z" fill="#eee"/><path d="m0 0h672v24h-672z" fill="#dee1e6"/><circle cx="14" cy="12" fill="#c4c4c4" fill-opacity=".5" r="6"/><circle cx="30" cy="12" fill="#c4c4c4" fill-opacity=".5" r="6"/><circle cx="46" cy="12" fill="#c4c4c4" fill-opacity=".5" r="6"/><path d="m0 24h672v32h-672z" fill="#e5e5e5"/><path d="m0 24h672v32h-672z" fill="#fff"/><path d="m56 32h592v16h-592z" fill="#f1f3f4"/><path d="m0 56h672v1h-672z" fill="#e5e5e5"/><path d="m0 56h672v1h-672z" fill="#d3cfcf"/><path clip-rule="evenodd" d="m22.7803 36.0303c.2929-.2929.2929-.7677 0-1.0606s-.7677-.2929-1.0606 0l-4.5 4.5c-.2929.2929-.2929.7677 0 1.0606l4.5 4.5c.2929.2929.7677.2929 1.0606 0s.2929-.7677 0-1.0606l-3.9696-3.9697z" fill="#000" fill-rule="evenodd" opacity=".3"/><path clip-rule="evenodd" d="m39.2803 34.9697c-.2929-.2929-.7677-.2929-1.0606 0s-.2929.7677 0 1.0606l3.9696 3.9697-3.9696 3.9697c-.2929.2929-.2929.7677 0 1.0606s.7677.2929 1.0606 0l4.5-4.5c.2929-.2929.2929-.7677 0-1.0606z" fill="#000" fill-rule="evenodd" opacity=".1"/><g fill="#c4c4c4"><path d="m240 100h192v56h-192z"/><path d="m240 84h192v8h-192z"/><path d="m240 72h192v8h-192z"/><path d="m240 208h192v56h-192z"/><path d="m240 192h192v8h-192z"/><path d="m240 180h192v8h-192z"/><path d="m240 316h192v56h-192z"/><path d="m240 300h192v8h-192z"/><path d="m240 288h192v8h-192z"/></g><path d="m0 488h672v120h-672z" fill="#eee"/><path d="m0 432h672v24h-672z" fill="#dee1e6"/><circle cx="14" cy="444" fill="#c4c4c4" fill-opacity=".5" r="6"/><circle cx="30" cy="444" fill="#c4c4c4" fill-opacity=".5" r="6"/><circle cx="46" cy="444" fill="#c4c4c4" fill-opacity=".5" r="6"/><path d="m0 456h672v32h-672z" fill="#e5e5e5"/><path d="m0 456h672v32h-672z" fill="#fff"/><path d="m56 464h592v16h-592z" fill="#f1f3f4"/><path d="m0 488h672v1h-672z" fill="#e5e5e5"/><path d="m0 488h672v1h-672z" fill="#d3cfcf"/><path clip-rule="evenodd" d="m22.7803 468.03c.2929-.293.2929-.767 0-1.06s-.7677-.293-1.0606 0l-4.5 4.5c-.2929.293-.2929.767 0 1.06l4.5 4.5c.2929.293.7677.293 1.0606 0s.2929-.767 0-1.06l-3.9696-3.97z" fill="#000" fill-rule="evenodd" opacity=".3"/><path clip-rule="evenodd" d="m39.2803 466.97c-.2929-.293-.7677-.293-1.0606 0s-.2929.767 0 1.06l3.9696 3.97-3.9696 3.97c-.2929.293-.2929.767 0 1.06s.7677.293 1.0606 0l4.5-4.5c.2929-.293.2929-.767 0-1.06z" fill="#000" fill-rule="evenodd" opacity=".1"/><path d="m240 532h192v56h-192z" fill="#c4c4c4"/><path d="m240 516h192v8h-192z" fill="#c4c4c4"/><path d="m240 504h192v8h-192z" fill="#c4c4c4"/><path d="m24 532h192v56h-192z" fill="#c4c4c4"/><path d="m24 516h192v8h-192z" fill="#c4c4c4"/><path d="m24 504h192v8h-192z" fill="#c4c4c4"/><path d="m456 532h192v56h-192z" fill="#c4c4c4"/><path d="m456 516h192v8h-192z" fill="#c4c4c4"/><path d="m456 504h192v8h-192z" fill="#c4c4c4"/><path d="m336.776 132v-11.312l-3.52.096v.992h2.256v10.224z" fill="#000"/><path d="m340.888 244v-1.104h-5.68c2.624-2.4 4.976-4.704 4.976-7.152 0-1.472-.528-3.184-3.248-3.184-1.584 0-2.496.56-2.976.88l.496.912c.272-.16 1.088-.672 2.368-.672 1.328 0 2.08.512 2.08 2.208 0 2.464-4.944 6.672-5.328 7.072v1.04z" fill="#000"/><path d="m340.024 353.04c0-1.744-1.424-2.752-2.624-3.056.88-.256 2.096-1.248 2.096-2.784 0-1.744-1.264-2.64-3.104-2.64-1.088 0-1.872.288-2.368.512l.384.928s.832-.352 1.92-.352c1.024 0 1.952.384 1.952 1.664 0 1.248-1.216 2.16-2.608 2.272v1.056c1.792.112 3.104.944 3.104 2.416 0 1.728-1.28 1.952-2.56 1.952-1.12 0-2.032-.256-2.432-.384l-.304 1.056s1.008.464 2.896.464c2.048 0 3.648-.752 3.648-3.104z" fill="#000"/><path d="m120.776 564v-11.312l-3.52.096v.992h2.256v10.224z" fill="#000"/><path d="m340.888 564v-1.104h-5.68c2.624-2.4 4.976-4.704 4.976-7.152 0-1.472-.528-3.184-3.248-3.184-1.584 0-2.496.56-2.976.88l.496.912c.272-.16 1.088-.672 2.368-.672 1.328 0 2.08.512 2.08 2.208 0 2.464-4.944 6.672-5.328 7.072v1.04z" fill="#000"/><path d="m556.024 561.04c0-1.744-1.424-2.752-2.624-3.056.88-.256 2.096-1.248 2.096-2.784 0-1.744-1.264-2.64-3.104-2.64-1.088 0-1.872.288-2.368.512l.384.928s.832-.352 1.92-.352c1.024 0 1.952.384 1.952 1.664 0 1.248-1.216 2.16-2.608 2.272v1.056c1.792.112 3.104.944 3.104 2.416 0 1.728-1.28 1.952-2.56 1.952-1.12 0-2.032-.256-2.432-.384l-.304 1.056s1.008.464 2.896.464c2.048 0 3.648-.752 3.648-3.104z" fill="#000"/></svg>