<svg width="462" height="224" viewBox="0 0 462 224" fill="none" xmlns="http://www.w3.org/2000/svg">
<path d="M0 8C0 3.58172 3.58172 0 8 0H461.303V40.25H0V8Z" fill="#212121"/>
<rect y="37" width="461.303" height="40" fill="#2C2C2C"/>
<circle cx="19.125" cy="18.125" r="5.5" stroke="#535353"/>
<circle cx="39.125" cy="18.125" r="5.5" stroke="#535353"/>
<circle cx="59.125" cy="18.125" r="5.5" stroke="#535353"/>
<rect x="78" width="40" height="37.25" fill="#2C2C2C"/>
<rect x="91.4844" y="20.4844" width="5" height="5" stroke="white"/>
<rect x="91.4844" y="20.4844" width="5" height="5" stroke="white"/>
<rect x="91.4844" y="20.4844" width="5" height="5" stroke="white"/>
<rect x="91.4844" y="20.4844" width="5" height="5" stroke="white"/>
<rect x="91.4844" y="12.4844" width="5" height="5" stroke="white"/>
<rect x="91.4844" y="12.4844" width="5" height="5" stroke="white"/>
<rect x="91.4844" y="12.4844" width="5" height="5" stroke="white"/>
<rect x="91.4844" y="12.4844" width="5" height="5" stroke="white"/>
<rect x="99.4844" y="12.4844" width="5" height="5" stroke="white"/>
<rect x="99.4844" y="12.4844" width="5" height="5" stroke="white"/>
<rect x="99.4844" y="12.4844" width="5" height="5" stroke="white"/>
<rect x="99.4844" y="12.4844" width="5" height="5" stroke="white"/>
<rect x="99.4844" y="20.4844" width="5" height="5" stroke="white"/>
<rect x="99.4844" y="20.4844" width="5" height="5" stroke="white"/>
<rect x="99.4844" y="20.4844" width="5" height="5" stroke="white"/>
<rect x="99.4844" y="20.4844" width="5" height="5" stroke="white"/>
<circle cx="24" cy="57" r="12" fill="#0094FF"/>
<path d="M52.7891 56.8359L55.7578 51.125H57.4609L53.5391 58.2578V62.5H52.0391V58.2578L48.1172 51.125H49.8359L52.7891 56.8359ZM57.8047 58.1953C57.8047 57.3672 57.9661 56.6224 58.2891 55.9609C58.6172 55.2995 59.0703 54.7891 59.6484 54.4297C60.2318 54.0703 60.8958 53.8906 61.6406 53.8906C62.7917 53.8906 63.7214 54.2891 64.4297 55.0859C65.1432 55.8828 65.5 56.9427 65.5 58.2656V58.3672C65.5 59.1901 65.3411 59.9297 65.0234 60.5859C64.7109 61.237 64.2604 61.7448 63.6719 62.1094C63.0885 62.474 62.4167 62.6562 61.6562 62.6562C60.5104 62.6562 59.5807 62.2578 58.8672 61.4609C58.1589 60.6641 57.8047 59.6094 57.8047 58.2969V58.1953ZM59.2578 58.3672C59.2578 59.3047 59.474 60.0573 59.9062 60.625C60.3438 61.1927 60.9271 61.4766 61.6562 61.4766C62.3906 61.4766 62.974 61.1901 63.4062 60.6172C63.8385 60.0391 64.0547 59.2318 64.0547 58.1953C64.0547 57.2682 63.8333 56.5182 63.3906 55.9453C62.9531 55.3672 62.3698 55.0781 61.6406 55.0781C60.9271 55.0781 60.3516 55.362 59.9141 55.9297C59.4766 56.4974 59.2578 57.3099 59.2578 58.3672ZM72.5312 61.6641C71.9688 62.3255 71.1432 62.6562 70.0547 62.6562C69.1536 62.6562 68.4661 62.3958 67.9922 61.875C67.5234 61.349 67.2865 60.5729 67.2812 59.5469V54.0469H68.7266V59.5078C68.7266 60.7891 69.2474 61.4297 70.2891 61.4297C71.3932 61.4297 72.1276 61.0182 72.4922 60.1953V54.0469H73.9375V62.5H72.5625L72.5312 61.6641Z" fill="white"/>
<path d="M24.2588 57.2637L26.5488 52.5469H28.4629L25.127 58.8359V62.5H23.3906V58.8359L20.0479 52.5469H21.9688L24.2588 57.2637Z" fill="white"/>
<rect x="221.062" y="51" width="1" height="13" fill="white"/>
<rect x="215.062" y="58" width="1" height="13" transform="rotate(-90 215.062 58)" fill="white"/>
<rect x="200" y="37" width="1" height="40" fill="#C4C4C4"/>
<rect x="255.939" y="50" width="1" height="16" fill="white"/>
<rect x="255.939" y="66" width="1" height="16" transform="rotate(-90 255.939 66)" fill="white"/>
<rect x="255.939" y="51" width="1" height="7" transform="rotate(-90 255.939 51)" fill="white"/>
<rect x="261.166" y="57.7461" width="1" height="4.1875" transform="rotate(-45 261.166 57.7461)" fill="white"/>
<rect x="266.381" y="57.0391" width="1" height="4.1875" transform="rotate(45 266.381 57.0391)" fill="white"/>
<rect x="179.244" y="55.7715" width="1" height="5.99672" transform="rotate(-45 179.244 55.7715)" fill="white"/>
<rect x="187.09" y="54.9941" width="1" height="6" transform="rotate(45 187.09 54.9941)" fill="white"/>
<rect x="264.127" y="59.293" width="1" height="1" transform="rotate(45 264.127 59.293)" fill="white"/>
<rect x="270.939" y="59" width="1" height="7" fill="white"/>
<path d="M271.252 50.4375C268.877 51.1667 264.127 54.1 264.127 60" stroke="white"/>
<path d="M0 155C0 150.582 3.58172 147 8 147H461.303V187.25H0V155Z" fill="#212121"/>
<rect y="184" width="461.303" height="40" fill="#2C2C2C"/>
<circle cx="19.125" cy="165.125" r="5.5" stroke="#535353"/>
<circle cx="39.125" cy="165.125" r="5.5" stroke="#535353"/>
<circle cx="59.125" cy="165.125" r="5.5" stroke="#535353"/>
<rect x="78" y="147" width="40" height="37.25" fill="#2C2C2C"/>
<rect x="91.4844" y="167.484" width="5" height="5" stroke="white"/>
<rect x="91.4844" y="167.484" width="5" height="5" stroke="white"/>
<rect x="91.4844" y="167.484" width="5" height="5" stroke="white"/>
<rect x="91.4844" y="167.484" width="5" height="5" stroke="white"/>
<rect x="91.4844" y="159.484" width="5" height="5" stroke="white"/>
<rect x="91.4844" y="159.484" width="5" height="5" stroke="white"/>
<rect x="91.4844" y="159.484" width="5" height="5" stroke="white"/>
<rect x="91.4844" y="159.484" width="5" height="5" stroke="white"/>
<rect x="99.4844" y="159.484" width="5" height="5" stroke="white"/>
<rect x="99.4844" y="159.484" width="5" height="5" stroke="white"/>
<rect x="99.4844" y="159.484" width="5" height="5" stroke="white"/>
<rect x="99.4844" y="159.484" width="5" height="5" stroke="white"/>
<rect x="99.4844" y="167.484" width="5" height="5" stroke="white"/>
<rect x="99.4844" y="167.484" width="5" height="5" stroke="white"/>
<rect x="99.4844" y="167.484" width="5" height="5" stroke="white"/>
<rect x="99.4844" y="167.484" width="5" height="5" stroke="white"/>
<circle cx="24" cy="204" r="12" fill="#007272"/>
<path d="M49.3203 209.5V198.125H52.5312C53.5208 198.125 54.3958 198.344 55.1562 198.781C55.9167 199.219 56.5026 199.841 56.9141 200.648C57.3307 201.456 57.5417 202.383 57.5469 203.43V204.156C57.5469 205.229 57.3385 206.169 56.9219 206.977C56.5104 207.784 55.9193 208.404 55.1484 208.836C54.3828 209.268 53.4896 209.49 52.4688 209.5H49.3203ZM50.8203 199.359V208.273H52.3984C53.5547 208.273 54.4531 207.914 55.0938 207.195C55.7396 206.477 56.0625 205.453 56.0625 204.125V203.461C56.0625 202.169 55.7578 201.167 55.1484 200.453C54.5443 199.734 53.6849 199.37 52.5703 199.359H50.8203ZM68.5625 209.5H67.0547L61.3281 200.734V209.5H59.8203V198.125H61.3281L67.0703 206.93V198.125H68.5625V209.5ZM71.2266 209.5V198.125H74.9453C76.1797 198.125 77.1068 198.38 77.7266 198.891C78.3516 199.401 78.6641 200.156 78.6641 201.156C78.6641 201.688 78.513 202.159 78.2109 202.57C77.9089 202.977 77.4974 203.292 76.9766 203.516C77.5911 203.688 78.0755 204.016 78.4297 204.5C78.7891 204.979 78.9688 205.552 78.9688 206.219C78.9688 207.24 78.638 208.042 77.9766 208.625C77.3151 209.208 76.3802 209.5 75.1719 209.5H71.2266ZM72.7266 204.18V208.273H75.2031C75.901 208.273 76.4505 208.094 76.8516 207.734C77.2578 207.37 77.4609 206.87 77.4609 206.234C77.4609 204.865 76.7161 204.18 75.2266 204.18H72.7266ZM72.7266 202.977H74.9922C75.6484 202.977 76.1719 202.812 76.5625 202.484C76.9583 202.156 77.1562 201.711 77.1562 201.148C77.1562 200.523 76.974 200.07 76.6094 199.789C76.2448 199.503 75.6901 199.359 74.9453 199.359H72.7266V202.977ZM85.1641 209.5V198.125H88.8828C90.1172 198.125 91.0443 198.38 91.6641 198.891C92.2891 199.401 92.6016 200.156 92.6016 201.156C92.6016 201.688 92.4505 202.159 92.1484 202.57C91.8464 202.977 91.4349 203.292 90.9141 203.516C91.5286 203.688 92.013 204.016 92.3672 204.5C92.7266 204.979 92.9062 205.552 92.9062 206.219C92.9062 207.24 92.5755 208.042 91.9141 208.625C91.2526 209.208 90.3177 209.5 89.1094 209.5H85.1641ZM86.6641 204.18V208.273H89.1406C89.8385 208.273 90.388 208.094 90.7891 207.734C91.1953 207.37 91.3984 206.87 91.3984 206.234C91.3984 204.865 90.6536 204.18 89.1641 204.18H86.6641ZM86.6641 202.977H88.9297C89.5859 202.977 90.1094 202.812 90.5 202.484C90.8958 202.156 91.0938 201.711 91.0938 201.148C91.0938 200.523 90.9115 200.07 90.5469 199.789C90.1823 199.503 89.6276 199.359 88.8828 199.359H86.6641V202.977ZM100.125 209.5C100.042 209.333 99.974 209.036 99.9219 208.609C99.25 209.307 98.4479 209.656 97.5156 209.656C96.6823 209.656 95.9974 209.422 95.4609 208.953C94.9297 208.479 94.6641 207.88 94.6641 207.156C94.6641 206.276 94.9974 205.594 95.6641 205.109C96.3359 204.62 97.2786 204.375 98.4922 204.375H99.8984V203.711C99.8984 203.206 99.7474 202.805 99.4453 202.508C99.1432 202.206 98.6979 202.055 98.1094 202.055C97.5938 202.055 97.1615 202.185 96.8125 202.445C96.4635 202.706 96.2891 203.021 96.2891 203.391H94.8359C94.8359 202.969 94.9844 202.562 95.2812 202.172C95.5833 201.776 95.9896 201.464 96.5 201.234C97.0156 201.005 97.5807 200.891 98.1953 200.891C99.1693 200.891 99.9323 201.135 100.484 201.625C101.036 202.109 101.323 202.779 101.344 203.633V207.523C101.344 208.299 101.443 208.917 101.641 209.375V209.5H100.125ZM97.7266 208.398C98.1797 208.398 98.6094 208.281 99.0156 208.047C99.4219 207.812 99.7161 207.508 99.8984 207.133V205.398H98.7656C96.9948 205.398 96.1094 205.917 96.1094 206.953C96.1094 207.406 96.2604 207.76 96.5625 208.016C96.8646 208.271 97.2526 208.398 97.7266 208.398ZM104.977 201.047L105.023 202.109C105.669 201.297 106.513 200.891 107.555 200.891C109.341 200.891 110.242 201.898 110.258 203.914V209.5H108.812V203.906C108.807 203.297 108.667 202.846 108.391 202.555C108.12 202.263 107.695 202.117 107.117 202.117C106.648 202.117 106.237 202.242 105.883 202.492C105.529 202.742 105.253 203.07 105.055 203.477V209.5H103.609V201.047H104.977ZM114.797 205.586L113.891 206.531V209.5H112.445V197.5H113.891V204.758L114.664 203.828L117.297 201.047H119.055L115.766 204.578L119.438 209.5H117.742L114.797 205.586ZM131.023 206.531H126.258L125.188 209.5H123.641L127.984 198.125H129.297L133.648 209.5H132.109L131.023 206.531ZM126.711 205.297H130.578L128.641 199.977L126.711 205.297ZM138.531 204.43C137.245 204.06 136.307 203.607 135.719 203.07C135.135 202.529 134.844 201.862 134.844 201.07C134.844 200.174 135.201 199.435 135.914 198.852C136.633 198.263 137.565 197.969 138.711 197.969C139.492 197.969 140.188 198.12 140.797 198.422C141.411 198.724 141.885 199.141 142.219 199.672C142.557 200.203 142.727 200.784 142.727 201.414H141.219C141.219 200.727 141 200.188 140.562 199.797C140.125 199.401 139.508 199.203 138.711 199.203C137.971 199.203 137.393 199.367 136.977 199.695C136.565 200.018 136.359 200.469 136.359 201.047C136.359 201.51 136.555 201.904 136.945 202.227C137.341 202.544 138.01 202.836 138.953 203.102C139.901 203.367 140.641 203.661 141.172 203.984C141.708 204.302 142.104 204.674 142.359 205.102C142.62 205.529 142.75 206.031 142.75 206.609C142.75 207.531 142.391 208.271 141.672 208.828C140.953 209.38 139.992 209.656 138.789 209.656C138.008 209.656 137.279 209.508 136.602 209.211C135.924 208.909 135.401 208.497 135.031 207.977C134.667 207.456 134.484 206.865 134.484 206.203H135.992C135.992 206.891 136.245 207.435 136.75 207.836C137.26 208.232 137.94 208.43 138.789 208.43C139.581 208.43 140.188 208.268 140.609 207.945C141.031 207.622 141.242 207.182 141.242 206.625C141.242 206.068 141.047 205.638 140.656 205.336C140.266 205.029 139.557 204.727 138.531 204.43ZM150.961 206.531H146.195L145.125 209.5H143.578L147.922 198.125H149.234L153.586 209.5H152.047L150.961 206.531ZM146.648 205.297H150.516L148.578 199.977L146.648 205.297Z" fill="white"/>
<path d="M18.4512 206.5V202.234H19.7109C20.0879 202.234 20.4219 202.318 20.7129 202.486C21.0059 202.654 21.2324 202.893 21.3926 203.201C21.5527 203.51 21.6328 203.863 21.6328 204.262V204.476C21.6328 204.88 21.5518 205.235 21.3896 205.542C21.2295 205.849 21 206.085 20.7012 206.251C20.4043 206.417 20.0635 206.5 19.6787 206.5H18.4512ZM19.1924 202.832V205.908H19.6758C20.0645 205.908 20.3623 205.787 20.5693 205.545C20.7783 205.301 20.8848 204.951 20.8887 204.496V204.259C20.8887 203.796 20.7881 203.442 20.5869 203.198C20.3857 202.954 20.0938 202.832 19.7109 202.832H19.1924ZM25.7549 206.5H25.0137L23.1123 203.474V206.5H22.3711V202.234H23.1123L25.0195 205.272V202.234H25.7549V206.5ZM26.6309 206.5V202.234H28.0928C28.5752 202.234 28.9424 202.331 29.1943 202.524C29.4463 202.718 29.5723 203.006 29.5723 203.389C29.5723 203.584 29.5195 203.76 29.4141 203.916C29.3086 204.072 29.1543 204.193 28.9512 204.279C29.1816 204.342 29.3594 204.46 29.4844 204.634C29.6113 204.806 29.6748 205.013 29.6748 205.255C29.6748 205.655 29.5459 205.963 29.2881 206.178C29.0322 206.393 28.665 206.5 28.1865 206.5H26.6309ZM27.3721 204.575V205.908H28.1953C28.4277 205.908 28.6094 205.851 28.7402 205.735C28.8711 205.62 28.9365 205.46 28.9365 205.255C28.9365 204.812 28.71 204.585 28.2568 204.575H27.3721ZM27.3721 204.03H28.0986C28.3291 204.03 28.5088 203.979 28.6377 203.875C28.7686 203.77 28.834 203.621 28.834 203.43C28.834 203.219 28.7734 203.066 28.6523 202.973C28.5332 202.879 28.3467 202.832 28.0928 202.832H27.3721V204.03Z" fill="white"/>
<rect x="221.062" y="198" width="1" height="13" fill="white"/>
<rect x="215.062" y="205" width="1" height="13" transform="rotate(-90 215.062 205)" fill="white"/>
<rect x="200" y="184" width="1" height="40" fill="#C4C4C4"/>
<rect x="255.939" y="197" width="1" height="16" fill="white"/>
<rect x="255.939" y="213" width="1" height="16" transform="rotate(-90 255.939 213)" fill="white"/>
<rect x="255.939" y="198" width="1" height="7" transform="rotate(-90 255.939 198)" fill="white"/>
<rect x="261.166" y="204.746" width="1" height="4.1875" transform="rotate(-45 261.166 204.746)" fill="white"/>
<rect x="266.381" y="204.039" width="1" height="4.1875" transform="rotate(45 266.381 204.039)" fill="white"/>
<rect x="179.244" y="202.771" width="1" height="5.99672" transform="rotate(-45 179.244 202.771)" fill="white"/>
<rect x="187.09" y="201.994" width="1" height="6" transform="rotate(45 187.09 201.994)" fill="white"/>
<rect x="264.127" y="206.293" width="1" height="1" transform="rotate(45 264.127 206.293)" fill="white"/>
<rect x="270.939" y="206" width="1" height="7" fill="white"/>
<path d="M271.252 197.438C268.877 198.167 264.127 201.1 264.127 207" stroke="white"/>
<path d="M23.3261 189.901C23.5214 190.097 23.838 190.097 24.0332 189.901L27.2152 186.719C27.4105 186.524 27.4105 186.208 27.2152 186.012C27.02 185.817 26.7034 185.817 26.5081 186.012L23.6797 188.841L20.8513 186.012C20.656 185.817 20.3394 185.817 20.1441 186.012C19.9489 186.208 19.9489 186.524 20.1441 186.719L23.3261 189.901ZM23.1797 66.9734L23.1797 189.548L24.1797 189.548L24.1797 66.9734L23.1797 66.9734Z" fill="#DB00FF"/>
</svg>
