<svg width="296" height="120" viewBox="0 0 296 120" fill="none" xmlns="http://www.w3.org/2000/svg">
<rect x="8" y="45" width="280" height="42" fill="#222222"/>
<rect x="8" y="45" width="280" height="42" fill="#2C2C2C"/>
<path d="M8 8H284C286.209 8 288 9.79086 288 12V45H8V8Z" fill="#222222"/>
<path d="M157 66.1371C159.37 63.0151 166.363 58.6444 173 66.1371" stroke="white"/>
<path d="M173 66.1371C170.63 69.259 163.637 73.6298 157 66.1371" stroke="white"/>
<ellipse cx="164.68" cy="66.1371" rx="2.56" ry="2.34146" fill="white"/>
<path d="M198.47 70H197.471V63.3774L195.467 64.1133V63.2109L198.314 62.1421H198.47V70ZM205.441 66.6646C205.441 67.8283 205.243 68.693 204.845 69.2588C204.448 69.8245 203.826 70.1074 202.981 70.1074C202.147 70.1074 201.529 69.8317 201.128 69.2803C200.727 68.7253 200.52 67.8981 200.505 66.7988V65.4722C200.505 64.3228 200.704 63.4688 201.102 62.9102C201.499 62.3516 202.122 62.0723 202.971 62.0723C203.812 62.0723 204.432 62.3426 204.829 62.8833C205.227 63.4204 205.431 64.2511 205.441 65.3755V66.6646ZM204.448 65.3057C204.448 64.4642 204.33 63.8519 204.093 63.4688C203.857 63.082 203.483 62.8887 202.971 62.8887C202.462 62.8887 202.092 63.0802 201.859 63.4634C201.626 63.8465 201.506 64.4355 201.499 65.2305V66.8203C201.499 67.6654 201.621 68.2902 201.864 68.6948C202.111 69.0959 202.484 69.2964 202.981 69.2964C203.472 69.2964 203.835 69.1066 204.072 68.7271C204.312 68.3475 204.437 67.7495 204.448 66.9331V65.3057ZM211.833 66.6646C211.833 67.8283 211.634 68.693 211.237 69.2588C210.839 69.8245 210.218 70.1074 209.373 70.1074C208.539 70.1074 207.921 69.8317 207.52 69.2803C207.119 68.7253 206.911 67.8981 206.897 66.7988V65.4722C206.897 64.3228 207.096 63.4688 207.493 62.9102C207.891 62.3516 208.514 62.0723 209.362 62.0723C210.204 62.0723 210.823 62.3426 211.221 62.8833C211.618 63.4204 211.822 64.2511 211.833 65.3755V66.6646ZM210.839 65.3057C210.839 64.4642 210.721 63.8519 210.485 63.4688C210.249 63.082 209.874 62.8887 209.362 62.8887C208.854 62.8887 208.483 63.0802 208.25 63.4634C208.018 63.8465 207.898 64.4355 207.891 65.2305V66.8203C207.891 67.6654 208.012 68.2902 208.256 68.6948C208.503 69.0959 208.875 69.2964 209.373 69.2964C209.864 69.2964 210.227 69.1066 210.463 68.7271C210.703 68.3475 210.829 67.7495 210.839 66.9331V65.3057ZM213.127 63.6836C213.127 63.2145 213.276 62.8278 213.573 62.5234C213.874 62.2191 214.259 62.0669 214.728 62.0669C215.204 62.0669 215.589 62.2209 215.883 62.5288C216.18 62.8332 216.329 63.2288 216.329 63.7158V64.0972C216.329 64.5698 216.178 64.9565 215.877 65.2573C215.58 65.5545 215.201 65.7031 214.739 65.7031C214.273 65.7031 213.888 65.5545 213.584 65.2573C213.28 64.9565 213.127 64.5573 213.127 64.0596V63.6836ZM213.869 64.0972C213.869 64.3765 213.947 64.6074 214.105 64.79C214.263 64.9691 214.474 65.0586 214.739 65.0586C214.993 65.0586 215.197 64.9709 215.351 64.7954C215.509 64.62 215.587 64.38 215.587 64.0757V63.6836C215.587 63.4043 215.51 63.1733 215.356 62.9907C215.202 62.8081 214.993 62.7168 214.728 62.7168C214.463 62.7168 214.254 62.8081 214.1 62.9907C213.946 63.1733 213.869 63.4115 213.869 63.7051V64.0972ZM216.936 68.0825C216.936 67.6134 217.084 67.2285 217.381 66.9277C217.682 66.6234 218.067 66.4712 218.536 66.4712C219.005 66.4712 219.39 66.6216 219.691 66.9224C219.992 67.2231 220.142 67.6224 220.142 68.1201V68.5015C220.142 68.9705 219.992 69.3573 219.691 69.6616C219.394 69.9624 219.012 70.1128 218.547 70.1128C218.081 70.1128 217.696 69.9642 217.392 69.667C217.088 69.3662 216.936 68.967 216.936 68.4692V68.0825ZM217.677 68.5015C217.677 68.7843 217.756 69.0171 217.913 69.1997C218.071 69.3787 218.282 69.4683 218.547 69.4683C218.805 69.4683 219.011 69.3805 219.165 69.2051C219.319 69.026 219.396 68.7843 219.396 68.48V68.0825C219.396 67.7996 219.317 67.5687 219.159 67.3896C219.005 67.2106 218.798 67.1211 218.536 67.1211C218.282 67.1211 218.074 67.2106 217.913 67.3896C217.756 67.5651 217.677 67.8032 217.677 68.104V68.5015ZM214.964 69.4092L214.4 69.0547L218.219 62.9424L218.783 63.2969L214.964 69.4092Z" fill="white"/>
<path fill-rule="evenodd" clip-rule="evenodd" d="M270.749 69.726C269.486 69.793 268.148 70.1986 267 71.2091V61.6833C267.634 61.0228 268.68 60.2886 269.89 60.0671C271.106 59.8444 272.551 60.126 274 61.6811V70.231C273.123 69.9099 271.967 69.6613 270.749 69.726ZM266.5 60.7716C267.251 60.0622 268.381 59.3269 269.71 59.0834C271.325 58.7876 273.165 59.2328 274.874 61.1556C274.955 61.2471 275 61.3653 275 61.4878V70.9877C275 71.161 274.91 71.322 274.763 71.4131C274.615 71.5042 274.431 71.5125 274.276 71.435C273.506 71.0498 272.192 70.6508 270.801 70.7245C269.431 70.7973 267.999 71.3261 266.905 72.7813C266.845 72.8639 266.76 72.9283 266.658 72.9622C266.454 73.0303 266.229 72.96 266.1 72.7879C265.005 71.3278 263.571 70.7975 262.199 70.7247C260.808 70.6509 259.494 71.05 258.724 71.4351C258.569 71.5126 258.385 71.5043 258.237 71.4132C258.09 71.3221 258 71.1612 258 70.9879V61.4879C258 61.3654 258.045 61.2472 258.126 61.1557C259.835 59.2329 261.675 58.7878 263.29 59.0836C264.619 59.327 265.749 60.0622 266.5 60.7716ZM266 61.6834C265.366 61.0229 264.32 60.2888 263.11 60.0672C261.894 59.8445 260.449 60.1261 259 61.6812V70.2311C259.877 69.91 261.033 69.6614 262.251 69.7261C263.514 69.7931 264.852 70.1987 266 71.2093V61.6834Z" fill="white"/>
<path fill-rule="evenodd" clip-rule="evenodd" d="M270.749 69.726C269.486 69.793 268.148 70.1986 267 71.2091V61.6833C267.634 61.0228 268.68 60.2886 269.89 60.0671C271.106 59.8444 272.551 60.126 274 61.6811V70.231C273.123 69.9099 271.967 69.6613 270.749 69.726ZM266.5 60.7716C267.251 60.0622 268.381 59.3269 269.71 59.0834C271.325 58.7876 273.165 59.2328 274.874 61.1556C274.955 61.2471 275 61.3653 275 61.4878V70.9877C275 71.161 274.91 71.322 274.763 71.4131C274.615 71.5042 274.431 71.5125 274.276 71.435C273.506 71.0498 272.192 70.6508 270.801 70.7245C269.431 70.7973 267.999 71.3261 266.905 72.7813C266.845 72.8639 266.76 72.9283 266.658 72.9622C266.454 73.0303 266.229 72.96 266.1 72.7879C265.005 71.3278 263.571 70.7975 262.199 70.7247C260.808 70.6509 259.494 71.05 258.724 71.4351C258.569 71.5126 258.385 71.5043 258.237 71.4132C258.09 71.3221 258 71.1612 258 70.9879V61.4879C258 61.3654 258.045 61.2472 258.126 61.1557C259.835 59.2329 261.675 58.7878 263.29 59.0836C264.619 59.327 265.749 60.0622 266.5 60.7716ZM266 61.6834C265.366 61.0229 264.32 60.2888 263.11 60.0672C261.894 59.8445 260.449 60.1261 259 61.6812V70.2311C259.877 69.91 261.033 69.6614 262.251 69.7261C263.514 69.7931 264.852 70.1987 266 71.2093V61.6834Z" fill="white"/>
<circle cx="123" cy="66" r="12.5" stroke="white"/>
<path d="M120.5 60.8775L128.105 66L120.5 71.1225L120.5 60.8775Z" stroke="white"/>
<rect x="38" y="51" width="52" height="30" rx="4" fill="#30C1FF"/>
<path d="M53.2119 66.5142C52.3275 66.2599 51.6829 65.9484 51.2783 65.5796C50.8773 65.2072 50.6768 64.7489 50.6768 64.2046C50.6768 63.5887 50.922 63.0802 51.4126 62.6792C51.9067 62.2746 52.5477 62.0723 53.3354 62.0723C53.8726 62.0723 54.3506 62.1761 54.7695 62.3838C55.1921 62.5915 55.5179 62.8779 55.7471 63.2432C55.9798 63.6084 56.0962 64.0076 56.0962 64.4409H55.0596C55.0596 63.9683 54.9092 63.5977 54.6084 63.3291C54.3076 63.057 53.8833 62.9209 53.3354 62.9209C52.827 62.9209 52.4295 63.0337 52.1431 63.2593C51.8602 63.4813 51.7188 63.791 51.7188 64.1885C51.7188 64.5072 51.853 64.7775 52.1216 64.9995C52.3937 65.2179 52.8538 65.4185 53.502 65.6011C54.1536 65.7837 54.6621 65.986 55.0273 66.208C55.3962 66.4264 55.6683 66.6825 55.8438 66.9761C56.0228 67.2697 56.1123 67.6152 56.1123 68.0127C56.1123 68.6465 55.8652 69.1549 55.3711 69.5381C54.877 69.9176 54.2163 70.1074 53.3892 70.1074C52.8521 70.1074 52.3507 70.0054 51.8853 69.8013C51.4198 69.5936 51.0599 69.3107 50.8057 68.9526C50.555 68.5946 50.4297 68.1882 50.4297 67.7334H51.4663C51.4663 68.2061 51.64 68.5802 51.9873 68.856C52.3382 69.1281 52.8055 69.2642 53.3892 69.2642C53.9334 69.2642 54.3506 69.1532 54.6406 68.9312C54.9307 68.7091 55.0757 68.4066 55.0757 68.0234C55.0757 67.6403 54.9414 67.3449 54.6729 67.1372C54.4043 66.9259 53.9173 66.7183 53.2119 66.5142ZM58.2769 64.8921C58.7173 64.3514 59.2902 64.0811 59.9956 64.0811C61.2238 64.0811 61.8433 64.7739 61.854 66.1597V70H60.8604V66.1543C60.8568 65.7354 60.7601 65.4256 60.5703 65.2251C60.3841 65.0246 60.0923 64.9243 59.6948 64.9243C59.3726 64.9243 59.0897 65.0103 58.8462 65.1821C58.6027 65.354 58.4129 65.5796 58.2769 65.8589V70H57.2832V61.75H58.2769V64.8921ZM66.9297 70C66.8724 69.8854 66.8258 69.6813 66.79 69.3877C66.3281 69.8675 65.7767 70.1074 65.1357 70.1074C64.5628 70.1074 64.092 69.9463 63.7231 69.624C63.3579 69.2982 63.1753 68.8864 63.1753 68.3887C63.1753 67.7835 63.4045 67.3145 63.8628 66.9814C64.3247 66.6449 64.9728 66.4766 65.8071 66.4766H66.7739V66.02C66.7739 65.6727 66.6701 65.397 66.4624 65.1929C66.2547 64.9852 65.9486 64.8813 65.5439 64.8813C65.1895 64.8813 64.8923 64.9709 64.6523 65.1499C64.4124 65.3289 64.2925 65.5456 64.2925 65.7998H63.2935C63.2935 65.5098 63.3955 65.2305 63.5996 64.9619C63.8073 64.6898 64.0866 64.4749 64.4375 64.3174C64.792 64.1598 65.1805 64.0811 65.603 64.0811C66.2726 64.0811 66.7972 64.2493 67.1768 64.5859C67.5563 64.9189 67.7533 65.3791 67.7676 65.9663V68.6411C67.7676 69.1746 67.8356 69.599 67.9717 69.9141V70H66.9297ZM65.2808 69.2427C65.5923 69.2427 65.8877 69.1621 66.167 69.001C66.4463 68.8398 66.6486 68.6304 66.7739 68.3726V67.1802H65.9951C64.7777 67.1802 64.1689 67.5365 64.1689 68.249C64.1689 68.5605 64.2728 68.804 64.4805 68.9795C64.6882 69.1549 64.9549 69.2427 65.2808 69.2427ZM72.1343 65.0801C71.9839 65.055 71.821 65.0425 71.6455 65.0425C70.9938 65.0425 70.5516 65.32 70.3188 65.875V70H69.3252V64.1885H70.292L70.3081 64.8599C70.634 64.3407 71.0959 64.0811 71.6938 64.0811C71.8872 64.0811 72.034 64.1061 72.1343 64.1562V65.0801ZM75.3569 70.1074C74.5692 70.1074 73.9282 69.8496 73.4341 69.334C72.9399 68.8148 72.6929 68.1219 72.6929 67.2554V67.0728C72.6929 66.4963 72.8021 65.9824 73.0205 65.5312C73.2425 65.0765 73.5505 64.722 73.9443 64.4678C74.3418 64.21 74.7715 64.0811 75.2334 64.0811C75.9889 64.0811 76.5762 64.3299 76.9951 64.8276C77.4141 65.3254 77.6235 66.0379 77.6235 66.9653V67.3789H73.6865C73.7008 67.9518 73.8674 68.4155 74.186 68.77C74.5083 69.1209 74.9165 69.2964 75.4106 69.2964C75.7616 69.2964 76.0588 69.2248 76.3022 69.0815C76.5457 68.9383 76.7588 68.7485 76.9414 68.5122L77.5483 68.9849C77.0614 69.7332 76.3309 70.1074 75.3569 70.1074ZM75.2334 64.8975C74.8324 64.8975 74.4958 65.0443 74.2236 65.3379C73.9515 65.6279 73.7832 66.0361 73.7188 66.5625H76.6299V66.4873C76.6012 65.9824 76.4652 65.5921 76.2217 65.3164C75.9782 65.0371 75.6488 64.8975 75.2334 64.8975Z" fill="white"/>
<path d="M197.496 104.421H198.442V111.153H201.907L201.786 112H197.496V104.421ZM205.896 103.497C206.101 103.497 206.266 103.559 206.391 103.684C206.515 103.801 206.578 103.955 206.578 104.146C206.578 104.337 206.515 104.494 206.391 104.619C206.266 104.736 206.101 104.795 205.896 104.795C205.698 104.795 205.536 104.736 205.412 104.619C205.294 104.494 205.236 104.337 205.236 104.146C205.236 103.955 205.294 103.801 205.412 103.684C205.536 103.559 205.698 103.497 205.896 103.497ZM206.633 111.263H208.261V112H203.927V111.263H205.709V106.94H203.982V106.203H206.633V111.263ZM211.215 106.962C211.663 106.375 212.216 106.082 212.876 106.082C213.617 106.082 214.163 106.346 214.515 106.874C214.867 107.402 215.043 108.143 215.043 109.096C215.043 110.005 214.842 110.739 214.438 111.296C214.035 111.846 213.47 112.121 212.744 112.121C212.077 112.121 211.553 111.879 211.171 111.395L211.105 112H210.291V103.871L211.215 103.761V106.962ZM212.535 111.373C213.019 111.373 213.39 111.182 213.646 110.801C213.91 110.42 214.042 109.851 214.042 109.096C214.042 108.348 213.925 107.783 213.69 107.402C213.463 107.021 213.122 106.83 212.667 106.83C212.374 106.83 212.103 106.918 211.853 107.094C211.611 107.27 211.399 107.49 211.215 107.754V110.625C211.369 110.86 211.56 111.043 211.787 111.175C212.015 111.307 212.264 111.373 212.535 111.373ZM220.803 106.082C221.038 106.082 221.309 106.122 221.617 106.203L221.485 108.172H220.737V106.929H220.682C219.787 106.929 219.153 107.567 218.779 108.843V111.285H219.956V112H216.942V111.285H217.855V106.918H216.942V106.203H218.548L218.724 107.578C218.959 107.079 219.237 106.705 219.56 106.456C219.89 106.207 220.304 106.082 220.803 106.082ZM227.641 110.735C227.641 110.962 227.677 111.131 227.751 111.241C227.824 111.344 227.945 111.421 228.114 111.472L227.883 112.132C227.318 112.059 226.966 111.784 226.827 111.307C226.621 111.571 226.361 111.773 226.046 111.912C225.738 112.051 225.393 112.121 225.012 112.121C224.432 112.121 223.974 111.96 223.637 111.637C223.307 111.314 223.142 110.882 223.142 110.339C223.142 109.745 223.373 109.287 223.835 108.964C224.304 108.641 224.975 108.48 225.848 108.48H226.706V108.007C226.706 107.596 226.588 107.303 226.354 107.127C226.119 106.944 225.778 106.852 225.331 106.852C224.891 106.852 224.388 106.951 223.824 107.149L223.571 106.445C224.253 106.203 224.887 106.082 225.474 106.082C226.178 106.082 226.713 106.247 227.08 106.577C227.454 106.907 227.641 107.365 227.641 107.952V110.735ZM225.243 111.428C225.529 111.428 225.8 111.355 226.057 111.208C226.321 111.061 226.537 110.86 226.706 110.603V109.118H225.87C225.254 109.118 224.81 109.221 224.539 109.426C224.267 109.631 224.132 109.932 224.132 110.328C224.132 111.061 224.502 111.428 225.243 111.428ZM233.995 106.082C234.229 106.082 234.501 106.122 234.809 106.203L234.677 108.172H233.929V106.929H233.874C232.979 106.929 232.345 107.567 231.971 108.843V111.285H233.148V112H230.134V111.285H231.047V106.918H230.134V106.203H231.74L231.916 107.578C232.15 107.079 232.429 106.705 232.752 106.456C233.082 106.207 233.496 106.082 233.995 106.082ZM239.468 112.033C239.241 112.7 238.929 113.232 238.533 113.628C238.137 114.024 237.584 114.259 236.872 114.332L236.74 113.595C237.129 113.529 237.437 113.426 237.664 113.287C237.899 113.155 238.082 112.986 238.214 112.781C238.346 112.583 238.467 112.323 238.577 112H238.269L236.256 106.203H237.235L238.896 111.296L240.535 106.203H241.492L239.468 112.033ZM252.066 103.497C252.271 103.497 252.436 103.559 252.561 103.684C252.685 103.801 252.748 103.955 252.748 104.146C252.748 104.337 252.685 104.494 252.561 104.619C252.436 104.736 252.271 104.795 252.066 104.795C251.868 104.795 251.706 104.736 251.582 104.619C251.464 104.494 251.406 104.337 251.406 104.146C251.406 103.955 251.464 103.801 251.582 103.684C251.706 103.559 251.868 103.497 252.066 103.497ZM252.803 111.263H254.431V112H250.097V111.263H251.879V106.94H250.152V106.203H252.803V111.263ZM259.09 111.329C259.596 111.329 260.099 111.16 260.597 110.823L261.037 111.428C260.795 111.641 260.495 111.809 260.135 111.934C259.776 112.059 259.428 112.121 259.09 112.121C258.232 112.121 257.561 111.853 257.077 111.318C256.601 110.775 256.362 110.046 256.362 109.129C256.362 108.55 256.469 108.029 256.681 107.567C256.901 107.105 257.217 106.742 257.627 106.478C258.038 106.214 258.526 106.082 259.09 106.082C259.838 106.082 260.484 106.309 261.026 106.764L260.575 107.369C260.069 107.032 259.571 106.863 259.079 106.863C258.559 106.863 258.141 107.057 257.825 107.446C257.517 107.827 257.363 108.388 257.363 109.129C257.363 109.87 257.517 110.423 257.825 110.79C258.141 111.149 258.562 111.329 259.09 111.329ZM265.268 106.082C266.067 106.082 266.68 106.353 267.105 106.896C267.538 107.431 267.754 108.165 267.754 109.096C267.754 110.005 267.534 110.739 267.094 111.296C266.661 111.846 266.049 112.121 265.257 112.121C264.458 112.121 263.842 111.853 263.409 111.318C262.976 110.775 262.76 110.038 262.76 109.107C262.76 108.19 262.976 107.457 263.409 106.907C263.849 106.357 264.469 106.082 265.268 106.082ZM265.268 106.841C264.762 106.841 264.384 107.028 264.135 107.402C263.886 107.776 263.761 108.344 263.761 109.107C263.761 109.87 263.882 110.438 264.124 110.812C264.373 111.179 264.751 111.362 265.257 111.362C265.763 111.362 266.137 111.179 266.379 110.812C266.628 110.438 266.753 109.866 266.753 109.096C266.753 108.333 266.628 107.769 266.379 107.402C266.137 107.028 265.767 106.841 265.268 106.841ZM269.653 106.203H270.445L270.522 107.017C270.749 106.724 271.035 106.496 271.38 106.335C271.732 106.166 272.084 106.082 272.436 106.082C273.521 106.082 274.064 106.654 274.064 107.798V112H273.14V108.48C273.14 108.047 273.114 107.717 273.063 107.49C273.019 107.263 272.927 107.094 272.788 106.984C272.648 106.874 272.436 106.819 272.15 106.819C271.834 106.819 271.537 106.914 271.259 107.105C270.98 107.296 270.753 107.523 270.577 107.787V112H269.653V106.203Z" fill="black"/>
<path d="M263.084 73C263.084 72.7239 262.86 72.5 262.584 72.5L258.084 72.5C257.808 72.5 257.584 72.7239 257.584 73C257.584 73.2761 257.808 73.5 258.084 73.5L262.084 73.5L262.084 77.5C262.084 77.7761 262.308 78 262.584 78C262.86 78 263.084 77.7761 263.084 77.5L263.084 73ZM233.937 102.354L262.937 73.3536L262.23 72.6464L233.23 101.646L233.937 102.354Z" fill="#E10076"/>
</svg>
