<svg width="472" height="320" viewBox="0 0 472 320" fill="none" xmlns="http://www.w3.org/2000/svg">
<g filter="url(#filter0_d)">
<rect x="5" y="3.19141" width="461.604" height="308.578" rx="4" fill="#FCFCFC"/>
<rect x="5.5" y="3.69141" width="460.604" height="307.578" rx="3.5" stroke="#B9B9B9"/>
</g>
<path d="M33.7363 126.11C33.6396 126.937 33.3335 127.576 32.8179 128.027C32.3058 128.475 31.6237 128.699 30.7715 128.699C29.8477 128.699 29.1064 128.368 28.5479 127.705C27.9928 127.043 27.7153 126.156 27.7153 125.046V124.294C27.7153 123.568 27.8442 122.928 28.1021 122.377C28.3634 121.826 28.7323 121.403 29.2085 121.109C29.6847 120.812 30.2362 120.664 30.8628 120.664C31.6935 120.664 32.3595 120.896 32.8608 121.362C33.3621 121.824 33.654 122.465 33.7363 123.285H32.6997C32.6102 122.662 32.415 122.21 32.1143 121.931C31.8171 121.652 31.3999 121.512 30.8628 121.512C30.2039 121.512 29.6865 121.756 29.3105 122.243C28.9382 122.73 28.752 123.423 28.752 124.321V125.079C28.752 125.927 28.9292 126.602 29.2837 127.104C29.6382 127.605 30.1341 127.855 30.7715 127.855C31.3444 127.855 31.783 127.727 32.0874 127.469C32.3953 127.207 32.5994 126.754 32.6997 126.11H33.7363ZM38.5811 128.017C38.1943 128.471 37.6268 128.699 36.8784 128.699C36.259 128.699 35.7863 128.52 35.4604 128.162C35.1382 127.8 34.9753 127.266 34.9717 126.561V122.78H35.9653V126.534C35.9653 127.415 36.3234 127.855 37.0396 127.855C37.7987 127.855 38.3035 127.573 38.5542 127.007V122.78H39.5479V128.591H38.6025L38.5811 128.017ZM43.8716 123.671C43.7212 123.646 43.5583 123.634 43.3828 123.634C42.7311 123.634 42.2889 123.911 42.0562 124.466V128.591H41.0625V122.78H42.0293L42.0454 123.451C42.3713 122.932 42.8332 122.672 43.4312 122.672C43.6245 122.672 43.7713 122.697 43.8716 122.748V123.671ZM47.5991 123.671C47.4487 123.646 47.2858 123.634 47.1104 123.634C46.4587 123.634 46.0164 123.911 45.7837 124.466V128.591H44.79V122.78H45.7568L45.7729 123.451C46.0988 122.932 46.5607 122.672 47.1587 122.672C47.3521 122.672 47.4989 122.697 47.5991 122.748V123.671ZM50.8218 128.699C50.034 128.699 49.3931 128.441 48.8989 127.925C48.4048 127.406 48.1577 126.713 48.1577 125.847V125.664C48.1577 125.088 48.2669 124.574 48.4854 124.123C48.7074 123.668 49.0153 123.313 49.4092 123.059C49.8066 122.801 50.2363 122.672 50.6982 122.672C51.4538 122.672 52.041 122.921 52.46 123.419C52.8789 123.917 53.0884 124.629 53.0884 125.557V125.97H49.1514C49.1657 126.543 49.3322 127.007 49.6509 127.361C49.9731 127.712 50.3813 127.888 50.8755 127.888C51.2264 127.888 51.5236 127.816 51.7671 127.673C52.0106 127.53 52.2236 127.34 52.4062 127.104L53.0132 127.576C52.5262 128.325 51.7957 128.699 50.8218 128.699ZM50.6982 123.489C50.2972 123.489 49.9606 123.636 49.6885 123.929C49.4163 124.219 49.248 124.627 49.1836 125.154H52.0947V125.079C52.0661 124.574 51.93 124.183 51.6865 123.908C51.443 123.628 51.1136 123.489 50.6982 123.489ZM55.1831 122.78L55.2153 123.51C55.6593 122.952 56.2394 122.672 56.9556 122.672C58.1838 122.672 58.8032 123.365 58.814 124.751V128.591H57.8203V124.746C57.8167 124.327 57.7201 124.017 57.5303 123.816C57.3441 123.616 57.0522 123.516 56.6548 123.516C56.3325 123.516 56.0496 123.602 55.8062 123.773C55.5627 123.945 55.3729 124.171 55.2368 124.45V128.591H54.2432V122.78H55.1831ZM61.6606 121.373V122.78H62.7456V123.548H61.6606V127.152C61.6606 127.385 61.709 127.56 61.8057 127.678C61.9023 127.793 62.0671 127.85 62.2998 127.85C62.4144 127.85 62.5719 127.829 62.7725 127.786V128.591C62.5111 128.663 62.2568 128.699 62.0098 128.699C61.5658 128.699 61.231 128.564 61.0054 128.296C60.7798 128.027 60.667 127.646 60.667 127.152V123.548H59.6089V122.78H60.667V121.373H61.6606ZM66.9727 128.591V123.548H66.0542V122.78H66.9727V122.286C66.9727 121.638 67.1571 121.133 67.5259 120.771C67.8983 120.409 68.4229 120.229 69.0996 120.229C69.5007 120.229 70.0073 120.338 70.6196 120.556L70.4531 121.394C70.0055 121.215 69.5794 121.125 69.1748 121.125C68.7487 121.125 68.4408 121.222 68.251 121.416C68.0648 121.605 67.9717 121.892 67.9717 122.275V122.78H69.1587V123.548H67.9717V128.591H66.9727ZM71.1138 128.591H70.1147V122.78H71.1138V128.591ZM73.8101 128.591H72.8164V120.341H73.8101V128.591ZM77.8169 128.699C77.0291 128.699 76.3882 128.441 75.894 127.925C75.3999 127.406 75.1528 126.713 75.1528 125.847V125.664C75.1528 125.088 75.262 124.574 75.4805 124.123C75.7025 123.668 76.0104 123.313 76.4043 123.059C76.8018 122.801 77.2314 122.672 77.6934 122.672C78.4489 122.672 79.0361 122.921 79.4551 123.419C79.874 123.917 80.0835 124.629 80.0835 125.557V125.97H76.1465C76.1608 126.543 76.3273 127.007 76.646 127.361C76.9683 127.712 77.3765 127.888 77.8706 127.888C78.2215 127.888 78.5187 127.816 78.7622 127.673C79.0057 127.53 79.2188 127.34 79.4014 127.104L80.0083 127.576C79.5213 128.325 78.7909 128.699 77.8169 128.699ZM77.6934 123.489C77.2923 123.489 76.9557 123.636 76.6836 123.929C76.4115 124.219 76.2432 124.627 76.1787 125.154H79.0898V125.079C79.0612 124.574 78.9251 124.183 78.6816 123.908C78.4382 123.628 78.1087 123.489 77.6934 123.489Z" fill="#AAAAAA"/>
<path d="M27.9839 224.591V216.771H30.1914C30.8717 216.771 31.4733 216.921 31.9961 217.222C32.5189 217.523 32.9217 217.951 33.2046 218.506C33.491 219.061 33.6361 219.698 33.6396 220.418V220.917C33.6396 221.655 33.4964 222.301 33.21 222.856C32.9271 223.411 32.5207 223.838 31.9907 224.135C31.4644 224.432 30.8503 224.584 30.1484 224.591H27.9839ZM29.0151 217.62V223.748H30.1001C30.895 223.748 31.5127 223.501 31.9531 223.007C32.3971 222.513 32.6191 221.809 32.6191 220.896V220.439C32.6191 219.551 32.4097 218.862 31.9907 218.372C31.5754 217.877 30.9845 217.627 30.2183 217.62H29.0151ZM41.2129 224.591H40.1763L36.2393 218.565V224.591H35.2026V216.771H36.2393L40.187 222.824V216.771H41.2129V224.591ZM43.0444 224.591V216.771H45.6011C46.4497 216.771 47.0871 216.946 47.5132 217.297C47.9429 217.648 48.1577 218.167 48.1577 218.855C48.1577 219.22 48.0539 219.544 47.8462 219.827C47.6385 220.106 47.3556 220.323 46.9976 220.477C47.4201 220.595 47.7531 220.821 47.9966 221.154C48.2437 221.483 48.3672 221.877 48.3672 222.335C48.3672 223.037 48.1398 223.589 47.6851 223.99C47.2303 224.391 46.5876 224.591 45.7568 224.591H43.0444ZM44.0757 220.934V223.748H45.7783C46.2581 223.748 46.6359 223.625 46.9116 223.377C47.1909 223.127 47.3306 222.783 47.3306 222.346C47.3306 221.404 46.8185 220.934 45.7944 220.934H44.0757ZM44.0757 220.106H45.6333C46.0845 220.106 46.4443 219.994 46.7129 219.768C46.985 219.542 47.1211 219.236 47.1211 218.85C47.1211 218.42 46.9958 218.108 46.7451 217.915C46.4945 217.718 46.1131 217.62 45.6011 217.62H44.0757V220.106ZM58.1318 216.771V222.088C58.1283 222.826 57.8955 223.429 57.4336 223.898C56.9753 224.368 56.3522 224.631 55.5645 224.688L55.2905 224.699C54.4347 224.699 53.7526 224.468 53.2441 224.006C52.7357 223.544 52.4779 222.908 52.4707 222.099V216.771H53.4912V222.067C53.4912 222.633 53.647 223.073 53.9585 223.388C54.27 223.7 54.714 223.855 55.2905 223.855C55.8742 223.855 56.32 223.7 56.6279 223.388C56.9395 223.077 57.0952 222.638 57.0952 222.072V216.771H58.1318ZM62.3105 219.768L64.1851 216.771H65.3989L62.9282 220.649L65.458 224.591H64.2334L62.3105 221.541L60.377 224.591H59.1577L61.6929 220.649L59.2168 216.771H60.4253L62.3105 219.768Z" fill="#AAAAAA"/>
<path d="M274.383 165.591H273.346L269.409 159.565V165.591H268.373V157.771H269.409L273.357 163.824V157.771H274.383V165.591ZM275.795 162.632C275.795 162.062 275.906 161.55 276.128 161.096C276.354 160.641 276.666 160.29 277.063 160.043C277.464 159.796 277.921 159.672 278.433 159.672C279.224 159.672 279.863 159.946 280.35 160.494C280.841 161.042 281.086 161.771 281.086 162.68V162.75C281.086 163.316 280.977 163.824 280.758 164.275C280.543 164.723 280.234 165.072 279.829 165.323C279.428 165.573 278.966 165.699 278.443 165.699C277.656 165.699 277.016 165.425 276.526 164.877C276.039 164.329 275.795 163.604 275.795 162.702V162.632ZM276.794 162.75C276.794 163.395 276.943 163.912 277.24 164.302C277.541 164.693 277.942 164.888 278.443 164.888C278.948 164.888 279.349 164.691 279.646 164.297C279.944 163.899 280.092 163.344 280.092 162.632C280.092 161.994 279.94 161.479 279.636 161.085C279.335 160.688 278.934 160.489 278.433 160.489C277.942 160.489 277.546 160.684 277.246 161.074C276.945 161.465 276.794 162.023 276.794 162.75ZM287.392 164.888C287.746 164.888 288.056 164.78 288.321 164.565C288.586 164.351 288.733 164.082 288.761 163.76H289.701C289.683 164.093 289.569 164.41 289.357 164.71C289.146 165.011 288.863 165.251 288.509 165.43C288.158 165.609 287.785 165.699 287.392 165.699C286.6 165.699 285.97 165.436 285.501 164.909C285.035 164.379 284.803 163.656 284.803 162.739V162.573C284.803 162.007 284.907 161.504 285.114 161.063C285.322 160.623 285.619 160.281 286.006 160.038C286.396 159.794 286.856 159.672 287.386 159.672C288.038 159.672 288.579 159.868 289.008 160.258C289.442 160.648 289.673 161.155 289.701 161.778H288.761C288.733 161.402 288.589 161.094 288.332 160.854C288.077 160.611 287.762 160.489 287.386 160.489C286.881 160.489 286.489 160.671 286.21 161.037C285.934 161.398 285.796 161.923 285.796 162.61V162.798C285.796 163.468 285.934 163.984 286.21 164.345C286.486 164.707 286.88 164.888 287.392 164.888ZM290.555 162.632C290.555 162.062 290.666 161.55 290.888 161.096C291.114 160.641 291.425 160.29 291.823 160.043C292.224 159.796 292.68 159.672 293.192 159.672C293.984 159.672 294.623 159.946 295.11 160.494C295.6 161.042 295.846 161.771 295.846 162.68V162.75C295.846 163.316 295.736 163.824 295.518 164.275C295.303 164.723 294.993 165.072 294.589 165.323C294.188 165.573 293.726 165.699 293.203 165.699C292.415 165.699 291.776 165.425 291.286 164.877C290.799 164.329 290.555 163.604 290.555 162.702V162.632ZM291.554 162.75C291.554 163.395 291.703 163.912 292 164.302C292.301 164.693 292.702 164.888 293.203 164.888C293.708 164.888 294.109 164.691 294.406 164.297C294.703 163.899 294.852 163.344 294.852 162.632C294.852 161.994 294.7 161.479 294.396 161.085C294.095 160.688 293.694 160.489 293.192 160.489C292.702 160.489 292.306 160.684 292.005 161.074C291.705 161.465 291.554 162.023 291.554 162.75ZM298.026 159.78L298.053 160.424C298.479 159.923 299.054 159.672 299.777 159.672C300.59 159.672 301.143 159.984 301.437 160.607C301.63 160.328 301.881 160.102 302.189 159.93C302.5 159.758 302.868 159.672 303.29 159.672C304.565 159.672 305.213 160.347 305.234 161.697V165.591H304.241V161.756C304.241 161.341 304.146 161.031 303.956 160.827C303.766 160.619 303.448 160.516 303 160.516C302.631 160.516 302.325 160.627 302.082 160.849C301.838 161.067 301.697 161.362 301.657 161.735V165.591H300.658V161.783C300.658 160.938 300.245 160.516 299.417 160.516C298.766 160.516 298.32 160.793 298.08 161.348V165.591H297.086V159.78H298.026ZM311.647 162.75C311.647 163.634 311.445 164.347 311.041 164.888C310.636 165.428 310.088 165.699 309.397 165.699C308.692 165.699 308.137 165.475 307.732 165.027V167.826H306.738V159.78H307.646L307.694 160.424C308.099 159.923 308.661 159.672 309.381 159.672C310.079 159.672 310.631 159.936 311.035 160.462C311.443 160.988 311.647 161.721 311.647 162.659V162.75ZM310.654 162.637C310.654 161.982 310.514 161.465 310.235 161.085C309.956 160.705 309.572 160.516 309.085 160.516C308.484 160.516 308.033 160.782 307.732 161.316V164.093C308.029 164.623 308.484 164.888 309.096 164.888C309.572 164.888 309.95 164.7 310.229 164.324C310.512 163.944 310.654 163.382 310.654 162.637ZM312.652 162.632C312.652 162.062 312.763 161.55 312.985 161.096C313.21 160.641 313.522 160.29 313.919 160.043C314.32 159.796 314.777 159.672 315.289 159.672C316.08 159.672 316.72 159.946 317.207 160.494C317.697 161.042 317.942 161.771 317.942 162.68V162.75C317.942 163.316 317.833 163.824 317.615 164.275C317.4 164.723 317.09 165.072 316.686 165.323C316.285 165.573 315.823 165.699 315.3 165.699C314.512 165.699 313.873 165.425 313.382 164.877C312.895 164.329 312.652 163.604 312.652 162.702V162.632ZM313.651 162.75C313.651 163.395 313.799 163.912 314.097 164.302C314.397 164.693 314.799 164.888 315.3 164.888C315.805 164.888 316.206 164.691 316.503 164.297C316.8 163.899 316.949 163.344 316.949 162.632C316.949 161.994 316.797 161.479 316.492 161.085C316.191 160.688 315.79 160.489 315.289 160.489C314.799 160.489 314.403 160.684 314.102 161.074C313.801 161.465 313.651 162.023 313.651 162.75ZM320.128 159.78L320.161 160.51C320.605 159.952 321.185 159.672 321.901 159.672C323.129 159.672 323.749 160.365 323.759 161.751V165.591H322.766V161.746C322.762 161.327 322.665 161.017 322.476 160.816C322.289 160.616 321.998 160.516 321.6 160.516C321.278 160.516 320.995 160.602 320.751 160.773C320.508 160.945 320.318 161.171 320.182 161.45V165.591H319.188V159.78H320.128ZM327.669 165.699C326.882 165.699 326.241 165.441 325.747 164.925C325.252 164.406 325.005 163.713 325.005 162.847V162.664C325.005 162.088 325.115 161.574 325.333 161.123C325.555 160.668 325.863 160.313 326.257 160.059C326.654 159.801 327.084 159.672 327.546 159.672C328.301 159.672 328.889 159.921 329.308 160.419C329.727 160.917 329.936 161.629 329.936 162.557V162.97H325.999C326.013 163.543 326.18 164.007 326.499 164.361C326.821 164.712 327.229 164.888 327.723 164.888C328.074 164.888 328.371 164.816 328.615 164.673C328.858 164.53 329.071 164.34 329.254 164.104L329.861 164.576C329.374 165.325 328.643 165.699 327.669 165.699ZM327.546 160.489C327.145 160.489 326.808 160.636 326.536 160.929C326.264 161.219 326.096 161.627 326.031 162.154H328.942V162.079C328.914 161.574 328.778 161.183 328.534 160.908C328.291 160.628 327.961 160.489 327.546 160.489ZM332.031 159.78L332.063 160.51C332.507 159.952 333.087 159.672 333.803 159.672C335.031 159.672 335.651 160.365 335.662 161.751V165.591H334.668V161.746C334.664 161.327 334.568 161.017 334.378 160.816C334.192 160.616 333.9 160.516 333.502 160.516C333.18 160.516 332.897 160.602 332.654 160.773C332.41 160.945 332.221 161.171 332.084 161.45V165.591H331.091V159.78H332.031ZM338.508 158.373V159.78H339.593V160.548H338.508V164.152C338.508 164.385 338.557 164.56 338.653 164.678C338.75 164.793 338.915 164.85 339.147 164.85C339.262 164.85 339.42 164.829 339.62 164.786V165.591C339.359 165.663 339.104 165.699 338.857 165.699C338.413 165.699 338.079 165.564 337.853 165.296C337.627 165.027 337.515 164.646 337.515 164.152V160.548H336.457V159.78H337.515V158.373H338.508ZM344.143 164.05C344.143 163.781 344.041 163.574 343.836 163.427C343.636 163.276 343.283 163.147 342.778 163.04C342.277 162.933 341.878 162.804 341.581 162.653C341.287 162.503 341.069 162.324 340.925 162.116C340.786 161.909 340.716 161.661 340.716 161.375C340.716 160.899 340.916 160.496 341.317 160.167C341.722 159.837 342.238 159.672 342.864 159.672C343.523 159.672 344.057 159.842 344.465 160.183C344.877 160.523 345.083 160.958 345.083 161.488H344.083C344.083 161.216 343.967 160.981 343.734 160.784C343.505 160.587 343.215 160.489 342.864 160.489C342.503 160.489 342.22 160.568 342.016 160.725C341.812 160.883 341.709 161.089 341.709 161.343C341.709 161.583 341.804 161.764 341.994 161.885C342.184 162.007 342.526 162.123 343.02 162.234C343.518 162.345 343.921 162.478 344.229 162.632C344.536 162.786 344.764 162.972 344.911 163.19C345.061 163.405 345.136 163.668 345.136 163.98C345.136 164.499 344.929 164.916 344.513 165.231C344.098 165.543 343.559 165.699 342.896 165.699C342.431 165.699 342.019 165.616 341.661 165.452C341.303 165.287 341.022 165.058 340.818 164.764C340.617 164.467 340.517 164.146 340.517 163.803H341.511C341.529 164.136 341.661 164.401 341.908 164.598C342.159 164.791 342.488 164.888 342.896 164.888C343.272 164.888 343.573 164.812 343.799 164.662C344.028 164.508 344.143 164.304 344.143 164.05ZM348.896 162.632C348.896 162.062 349.007 161.55 349.229 161.096C349.455 160.641 349.766 160.29 350.164 160.043C350.565 159.796 351.021 159.672 351.533 159.672C352.325 159.672 352.964 159.946 353.451 160.494C353.941 161.042 354.187 161.771 354.187 162.68V162.75C354.187 163.316 354.077 163.824 353.859 164.275C353.644 164.723 353.334 165.072 352.93 165.323C352.529 165.573 352.067 165.699 351.544 165.699C350.756 165.699 350.117 165.425 349.626 164.877C349.139 164.329 348.896 163.604 348.896 162.702V162.632ZM349.895 162.75C349.895 163.395 350.044 163.912 350.341 164.302C350.642 164.693 351.043 164.888 351.544 164.888C352.049 164.888 352.45 164.691 352.747 164.297C353.044 163.899 353.193 163.344 353.193 162.632C353.193 161.994 353.041 161.479 352.736 161.085C352.436 160.688 352.035 160.489 351.533 160.489C351.043 160.489 350.647 160.684 350.346 161.074C350.045 161.465 349.895 162.023 349.895 162.75ZM355.921 165.591V160.548H355.003V159.78H355.921V159.184C355.921 158.561 356.088 158.079 356.421 157.739C356.754 157.399 357.225 157.229 357.833 157.229C358.063 157.229 358.29 157.259 358.516 157.32L358.462 158.125C358.294 158.093 358.115 158.077 357.925 158.077C357.603 158.077 357.354 158.172 357.178 158.362C357.003 158.548 356.915 158.817 356.915 159.167V159.78H358.156V160.548H356.915V165.591H355.921ZM365.369 164.05C365.369 163.781 365.267 163.574 365.063 163.427C364.862 163.276 364.51 163.147 364.005 163.04C363.504 162.933 363.104 162.804 362.807 162.653C362.514 162.503 362.295 162.324 362.152 162.116C362.012 161.909 361.942 161.661 361.942 161.375C361.942 160.899 362.143 160.496 362.544 160.167C362.949 159.837 363.464 159.672 364.091 159.672C364.75 159.672 365.283 159.842 365.691 160.183C366.103 160.523 366.309 160.958 366.309 161.488H365.31C365.31 161.216 365.194 160.981 364.961 160.784C364.732 160.587 364.442 160.489 364.091 160.489C363.729 160.489 363.446 160.568 363.242 160.725C363.038 160.883 362.936 161.089 362.936 161.343C362.936 161.583 363.031 161.764 363.221 161.885C363.41 162.007 363.752 162.123 364.247 162.234C364.744 162.345 365.147 162.478 365.455 162.632C365.763 162.786 365.99 162.972 366.137 163.19C366.288 163.405 366.363 163.668 366.363 163.98C366.363 164.499 366.155 164.916 365.74 165.231C365.324 165.543 364.785 165.699 364.123 165.699C363.658 165.699 363.246 165.616 362.888 165.452C362.53 165.287 362.249 165.058 362.044 164.764C361.844 164.467 361.744 164.146 361.744 163.803H362.737C362.755 164.136 362.888 164.401 363.135 164.598C363.385 164.791 363.715 164.888 364.123 164.888C364.499 164.888 364.8 164.812 365.025 164.662C365.255 164.508 365.369 164.304 365.369 164.05ZM369.005 158.373V159.78H370.09V160.548H369.005V164.152C369.005 164.385 369.054 164.56 369.15 164.678C369.247 164.793 369.412 164.85 369.645 164.85C369.759 164.85 369.917 164.829 370.117 164.786V165.591C369.856 165.663 369.602 165.699 369.354 165.699C368.91 165.699 368.576 165.564 368.35 165.296C368.125 165.027 368.012 164.646 368.012 164.152V160.548H366.954V159.78H368.012V158.373H369.005ZM373.157 164.136L374.511 159.78H375.574L373.238 166.488C372.876 167.455 372.301 167.938 371.514 167.938L371.326 167.922L370.955 167.853V167.047L371.224 167.068C371.56 167.068 371.822 167 372.008 166.864C372.198 166.728 372.353 166.479 372.475 166.118L372.695 165.527L370.622 159.78H371.707L373.157 164.136ZM377.545 165.591H376.552V157.341H377.545V165.591ZM381.552 165.699C380.764 165.699 380.124 165.441 379.629 164.925C379.135 164.406 378.888 163.713 378.888 162.847V162.664C378.888 162.088 378.997 161.574 379.216 161.123C379.438 160.668 379.746 160.313 380.14 160.059C380.537 159.801 380.967 159.672 381.429 159.672C382.184 159.672 382.771 159.921 383.19 160.419C383.609 160.917 383.819 161.629 383.819 162.557V162.97H379.882C379.896 163.543 380.063 164.007 380.381 164.361C380.704 164.712 381.112 164.888 381.606 164.888C381.957 164.888 382.254 164.816 382.498 164.673C382.741 164.53 382.954 164.34 383.137 164.104L383.744 164.576C383.257 165.325 382.526 165.699 381.552 165.699ZM381.429 160.489C381.028 160.489 380.691 160.636 380.419 160.929C380.147 161.219 379.979 161.627 379.914 162.154H382.825V162.079C382.797 161.574 382.66 161.183 382.417 160.908C382.174 160.628 381.844 160.489 381.429 160.489ZM388.357 164.05C388.357 163.781 388.255 163.574 388.051 163.427C387.851 163.276 387.498 163.147 386.993 163.04C386.492 162.933 386.093 162.804 385.795 162.653C385.502 162.503 385.283 162.324 385.14 162.116C385 161.909 384.931 161.661 384.931 161.375C384.931 160.899 385.131 160.496 385.532 160.167C385.937 159.837 386.452 159.672 387.079 159.672C387.738 159.672 388.271 159.842 388.68 160.183C389.091 160.523 389.297 160.958 389.297 161.488H388.298C388.298 161.216 388.182 160.981 387.949 160.784C387.72 160.587 387.43 160.489 387.079 160.489C386.717 160.489 386.435 160.568 386.23 160.725C386.026 160.883 385.924 161.089 385.924 161.343C385.924 161.583 386.019 161.764 386.209 161.885C386.399 162.007 386.741 162.123 387.235 162.234C387.733 162.345 388.135 162.478 388.443 162.632C388.751 162.786 388.979 162.972 389.125 163.19C389.276 163.405 389.351 163.668 389.351 163.98C389.351 164.499 389.143 164.916 388.728 165.231C388.313 165.543 387.774 165.699 387.111 165.699C386.646 165.699 386.234 165.616 385.876 165.452C385.518 165.287 385.237 165.058 385.033 164.764C384.832 164.467 384.732 164.146 384.732 163.803H385.726C385.743 164.136 385.876 164.401 386.123 164.598C386.374 164.791 386.703 164.888 387.111 164.888C387.487 164.888 387.788 164.812 388.014 164.662C388.243 164.508 388.357 164.304 388.357 164.05Z" fill="#AAAAAA"/>
<path d="M272.31 259.965H273.395V260.776H272.31V262.591H271.311V260.776H267.75V260.19L271.251 254.771H272.31V259.965ZM268.877 259.965H271.311V256.13L271.192 256.345L268.877 259.965ZM279.195 259.256C279.195 260.42 278.997 261.284 278.599 261.85C278.202 262.416 277.58 262.699 276.735 262.699C275.901 262.699 275.283 262.423 274.882 261.872C274.481 261.317 274.274 260.489 274.259 259.39V258.063C274.259 256.914 274.458 256.06 274.855 255.501C275.253 254.943 275.876 254.664 276.725 254.664C277.566 254.664 278.186 254.934 278.583 255.475C278.98 256.012 279.185 256.842 279.195 257.967V259.256ZM278.202 257.897C278.202 257.056 278.083 256.443 277.847 256.06C277.611 255.673 277.237 255.48 276.725 255.48C276.216 255.48 275.846 255.672 275.613 256.055C275.38 256.438 275.26 257.027 275.253 257.822V259.412C275.253 260.257 275.375 260.882 275.618 261.286C275.865 261.687 276.238 261.888 276.735 261.888C277.226 261.888 277.589 261.698 277.826 261.318C278.066 260.939 278.191 260.341 278.202 259.524V257.897ZM286.683 261.05C286.683 260.781 286.581 260.574 286.376 260.427C286.176 260.276 285.823 260.147 285.318 260.04C284.817 259.933 284.418 259.804 284.121 259.653C283.827 259.503 283.609 259.324 283.465 259.116C283.326 258.909 283.256 258.661 283.256 258.375C283.256 257.899 283.456 257.496 283.857 257.167C284.262 256.837 284.778 256.672 285.404 256.672C286.063 256.672 286.597 256.842 287.005 257.183C287.417 257.523 287.623 257.958 287.623 258.488H286.624C286.624 258.216 286.507 257.981 286.274 257.784C286.045 257.587 285.755 257.489 285.404 257.489C285.043 257.489 284.76 257.568 284.556 257.725C284.352 257.883 284.25 258.089 284.25 258.343C284.25 258.583 284.344 258.764 284.534 258.885C284.724 259.007 285.066 259.123 285.56 259.234C286.058 259.345 286.461 259.478 286.769 259.632C287.076 259.786 287.304 259.972 287.451 260.19C287.601 260.405 287.676 260.668 287.676 260.98C287.676 261.499 287.469 261.916 287.053 262.231C286.638 262.543 286.099 262.699 285.437 262.699C284.971 262.699 284.559 262.616 284.201 262.452C283.843 262.287 283.562 262.058 283.358 261.764C283.157 261.467 283.057 261.146 283.057 260.803H284.051C284.069 261.136 284.201 261.401 284.448 261.598C284.699 261.791 285.028 261.888 285.437 261.888C285.812 261.888 286.113 261.812 286.339 261.662C286.568 261.508 286.683 261.304 286.683 261.05ZM290.319 255.373V256.78H291.404V257.548H290.319V261.152C290.319 261.385 290.367 261.56 290.464 261.678C290.561 261.793 290.725 261.85 290.958 261.85C291.073 261.85 291.23 261.829 291.431 261.786V262.591C291.169 262.663 290.915 262.699 290.668 262.699C290.224 262.699 289.889 262.564 289.664 262.296C289.438 262.027 289.325 261.646 289.325 261.152V257.548H288.267V256.78H289.325V255.373H290.319ZM294.471 261.136L295.824 256.78H296.888L294.551 263.488C294.19 264.455 293.615 264.938 292.827 264.938L292.639 264.922L292.269 264.853V264.047L292.537 264.068C292.874 264.068 293.135 264 293.321 263.864C293.511 263.728 293.667 263.479 293.789 263.118L294.009 262.527L291.936 256.78H293.021L294.471 261.136ZM298.859 262.591H297.865V254.341H298.859V262.591ZM302.866 262.699C302.078 262.699 301.437 262.441 300.943 261.925C300.449 261.406 300.202 260.713 300.202 259.847V259.664C300.202 259.088 300.311 258.574 300.529 258.123C300.751 257.668 301.059 257.313 301.453 257.059C301.851 256.801 302.28 256.672 302.742 256.672C303.498 256.672 304.085 256.921 304.504 257.419C304.923 257.917 305.132 258.629 305.132 259.557V259.97H301.195C301.21 260.543 301.376 261.007 301.695 261.361C302.017 261.712 302.425 261.888 302.919 261.888C303.27 261.888 303.568 261.816 303.811 261.673C304.055 261.53 304.268 261.34 304.45 261.104L305.057 261.576C304.57 262.325 303.84 262.699 302.866 262.699ZM302.742 257.489C302.341 257.489 302.005 257.636 301.732 257.929C301.46 258.219 301.292 258.627 301.228 259.154H304.139V259.079C304.11 258.574 303.974 258.183 303.73 257.908C303.487 257.628 303.158 257.489 302.742 257.489ZM309.671 261.05C309.671 260.781 309.569 260.574 309.365 260.427C309.164 260.276 308.812 260.147 308.307 260.04C307.805 259.933 307.406 259.804 307.109 259.653C306.815 259.503 306.597 259.324 306.454 259.116C306.314 258.909 306.244 258.661 306.244 258.375C306.244 257.899 306.445 257.496 306.846 257.167C307.25 256.837 307.766 256.672 308.393 256.672C309.051 256.672 309.585 256.842 309.993 257.183C310.405 257.523 310.611 257.958 310.611 258.488H309.612C309.612 258.216 309.495 257.981 309.263 257.784C309.034 257.587 308.743 257.489 308.393 257.489C308.031 257.489 307.748 257.568 307.544 257.725C307.34 257.883 307.238 258.089 307.238 258.343C307.238 258.583 307.333 258.764 307.522 258.885C307.712 259.007 308.054 259.123 308.548 259.234C309.046 259.345 309.449 259.478 309.757 259.632C310.065 259.786 310.292 259.972 310.439 260.19C310.589 260.405 310.665 260.668 310.665 260.98C310.665 261.499 310.457 261.916 310.042 262.231C309.626 262.543 309.087 262.699 308.425 262.699C307.959 262.699 307.548 262.616 307.189 262.452C306.831 262.287 306.55 262.058 306.346 261.764C306.146 261.467 306.045 261.146 306.045 260.803H307.039C307.057 261.136 307.189 261.401 307.437 261.598C307.687 261.791 308.017 261.888 308.425 261.888C308.801 261.888 309.102 261.812 309.327 261.662C309.556 261.508 309.671 261.304 309.671 261.05Z" fill="#AAAAAA"/>
<path d="M29.9268 156.638L33.1807 164.759L36.4346 156.638H38.1367V166.591H36.8242V162.715L36.9473 158.532L33.6797 166.591H32.6748L29.4141 158.552L29.5439 162.715V166.591H28.2314V156.638H29.9268ZM42.6758 164.739L44.3984 159.195H45.752L42.7783 167.733C42.318 168.963 41.5866 169.579 40.584 169.579L40.3447 169.558L39.873 169.469V168.444L40.2148 168.471C40.6432 168.471 40.9759 168.385 41.2129 168.211C41.4544 168.038 41.6527 167.722 41.8076 167.261L42.0879 166.509L39.4492 159.195H40.8301L42.6758 164.739ZM54.7344 166.591H53.415L48.4043 158.921V166.591H47.085V156.638H48.4043L53.4287 164.342V156.638H54.7344V166.591ZM59.9365 166.728C58.9339 166.728 58.1182 166.4 57.4893 165.744C56.8604 165.083 56.5459 164.201 56.5459 163.098V162.866C56.5459 162.132 56.6849 161.478 56.9629 160.904C57.2454 160.325 57.6374 159.874 58.1387 159.55C58.6445 159.222 59.1914 159.058 59.7793 159.058C60.7409 159.058 61.4883 159.375 62.0215 160.008C62.5547 160.642 62.8213 161.549 62.8213 162.729V163.255H57.8105C57.8288 163.985 58.0407 164.575 58.4463 165.026C58.8564 165.472 59.376 165.696 60.0049 165.696C60.4515 165.696 60.8298 165.605 61.1396 165.422C61.4495 165.24 61.7207 164.999 61.9531 164.698L62.7256 165.299C62.1058 166.252 61.1761 166.728 59.9365 166.728ZM59.7793 160.097C59.2689 160.097 58.8405 160.284 58.4941 160.658C58.1478 161.027 57.9336 161.546 57.8516 162.216H61.5566V162.121C61.5202 161.478 61.347 160.981 61.0371 160.63C60.7272 160.275 60.3079 160.097 59.7793 160.097ZM70.8398 164.848L72.2617 159.195H73.5264L71.373 166.591H70.3477L68.5498 160.986L66.7998 166.591H65.7744L63.6279 159.195H64.8857L66.3418 164.732L68.0645 159.195H69.083L70.8398 164.848ZM80.5059 162.196H76.3291V166.591H75.0166V156.638H81.1826V157.718H76.3291V161.123H80.5059V162.196ZM83.9307 166.591H82.666V159.195H83.9307V166.591ZM82.5635 157.233C82.5635 157.028 82.625 156.855 82.748 156.713C82.8757 156.572 83.0625 156.501 83.3086 156.501C83.5547 156.501 83.7415 156.572 83.8691 156.713C83.9967 156.855 84.0605 157.028 84.0605 157.233C84.0605 157.438 83.9967 157.609 83.8691 157.746C83.7415 157.882 83.5547 157.951 83.3086 157.951C83.0625 157.951 82.8757 157.882 82.748 157.746C82.625 157.609 82.5635 157.438 82.5635 157.233ZM87.335 166.591H86.0703V156.091H87.335V166.591ZM92.4346 166.728C91.432 166.728 90.6162 166.4 89.9873 165.744C89.3584 165.083 89.0439 164.201 89.0439 163.098V162.866C89.0439 162.132 89.1829 161.478 89.4609 160.904C89.7435 160.325 90.1354 159.874 90.6367 159.55C91.1426 159.222 91.6895 159.058 92.2773 159.058C93.2389 159.058 93.9863 159.375 94.5195 160.008C95.0527 160.642 95.3193 161.549 95.3193 162.729V163.255H90.3086C90.3268 163.985 90.5387 164.575 90.9443 165.026C91.3545 165.472 91.874 165.696 92.5029 165.696C92.9495 165.696 93.3278 165.605 93.6377 165.422C93.9476 165.24 94.2188 164.999 94.4512 164.698L95.2236 165.299C94.6038 166.252 93.6742 166.728 92.4346 166.728ZM92.2773 160.097C91.7669 160.097 91.3385 160.284 90.9922 160.658C90.6458 161.027 90.4316 161.546 90.3496 162.216H94.0547V162.121C94.0182 161.478 93.8451 160.981 93.5352 160.63C93.2253 160.275 92.806 160.097 92.2773 160.097Z" fill="#2C2C2C"/>
<path d="M77.8574 258.991H73.5439V262.518H78.5547V263.591H72.2314V253.638H78.4863V254.718H73.5439V257.917H77.8574V258.991ZM84.4336 262.86C83.9414 263.439 83.2191 263.728 82.2666 263.728C81.4782 263.728 80.8766 263.5 80.4619 263.044C80.0518 262.584 79.8444 261.905 79.8398 261.007V256.195H81.1045V260.973C81.1045 262.094 81.5602 262.655 82.4717 262.655C83.4378 262.655 84.0804 262.295 84.3994 261.575V256.195H85.6641V263.591H84.4609L84.4336 262.86ZM88.2139 263.591V257.172H87.0449V256.195H88.2139V255.436C88.2139 254.643 88.4258 254.03 88.8496 253.597C89.2734 253.164 89.8727 252.948 90.6475 252.948C90.9391 252.948 91.2285 252.986 91.5156 253.064L91.4473 254.089C91.2331 254.048 91.0052 254.028 90.7637 254.028C90.3535 254.028 90.0368 254.149 89.8135 254.39C89.5902 254.627 89.4785 254.969 89.4785 255.416V256.195H91.0576V257.172H89.4785V263.591H88.2139ZM95.3643 263.728C94.3617 263.728 93.5459 263.4 92.917 262.744C92.2881 262.083 91.9736 261.201 91.9736 260.098V259.866C91.9736 259.132 92.1126 258.478 92.3906 257.904C92.6732 257.325 93.0651 256.874 93.5664 256.55C94.0723 256.222 94.6191 256.058 95.207 256.058C96.1686 256.058 96.916 256.375 97.4492 257.008C97.9824 257.642 98.249 258.549 98.249 259.729V260.255H93.2383C93.2565 260.985 93.4684 261.575 93.874 262.026C94.2842 262.472 94.8037 262.696 95.4326 262.696C95.8792 262.696 96.2575 262.605 96.5674 262.422C96.8773 262.24 97.1484 261.999 97.3809 261.698L98.1533 262.299C97.5335 263.252 96.6038 263.728 95.3643 263.728ZM95.207 257.097C94.6966 257.097 94.2682 257.284 93.9219 257.658C93.5755 258.027 93.3613 258.546 93.2793 259.216H96.9844V259.121C96.9479 258.478 96.7747 257.981 96.4648 257.63C96.1549 257.275 95.7357 257.097 95.207 257.097ZM100.908 256.195L100.942 257.015C101.485 256.377 102.216 256.058 103.137 256.058C104.171 256.058 104.875 256.455 105.249 257.248C105.495 256.892 105.814 256.605 106.206 256.386C106.603 256.167 107.07 256.058 107.607 256.058C109.23 256.058 110.055 256.917 110.082 258.635V263.591H108.817V258.71C108.817 258.182 108.697 257.788 108.455 257.528C108.214 257.264 107.808 257.131 107.238 257.131C106.769 257.131 106.379 257.273 106.069 257.555C105.759 257.833 105.579 258.209 105.529 258.683V263.591H104.258V258.745C104.258 257.669 103.731 257.131 102.679 257.131C101.849 257.131 101.282 257.485 100.977 258.191V263.591H99.7119V256.195H100.908ZM113.37 263.591H112.105V256.195H113.37V263.591ZM112.003 254.233C112.003 254.028 112.064 253.855 112.188 253.713C112.315 253.572 112.502 253.501 112.748 253.501C112.994 253.501 113.181 253.572 113.309 253.713C113.436 253.855 113.5 254.028 113.5 254.233C113.5 254.438 113.436 254.609 113.309 254.746C113.181 254.882 112.994 254.951 112.748 254.951C112.502 254.951 112.315 254.882 112.188 254.746C112.064 254.609 112.003 254.438 112.003 254.233ZM119.967 263.591C119.894 263.445 119.835 263.186 119.789 262.812C119.201 263.423 118.499 263.728 117.684 263.728C116.954 263.728 116.355 263.523 115.886 263.113C115.421 262.698 115.188 262.174 115.188 261.541C115.188 260.77 115.48 260.173 116.063 259.75C116.651 259.321 117.476 259.107 118.538 259.107H119.769V258.526C119.769 258.084 119.636 257.733 119.372 257.473C119.108 257.209 118.718 257.077 118.203 257.077C117.752 257.077 117.374 257.191 117.068 257.418C116.763 257.646 116.61 257.922 116.61 258.246H115.339C115.339 257.876 115.469 257.521 115.729 257.179C115.993 256.833 116.348 256.559 116.795 256.359C117.246 256.158 117.741 256.058 118.278 256.058C119.131 256.058 119.798 256.272 120.281 256.701C120.764 257.125 121.015 257.71 121.033 258.458V261.862C121.033 262.541 121.12 263.081 121.293 263.482V263.591H119.967ZM117.868 262.627C118.265 262.627 118.641 262.525 118.996 262.32C119.352 262.115 119.609 261.848 119.769 261.52V260.002H118.777C117.228 260.002 116.453 260.456 116.453 261.363C116.453 261.759 116.585 262.069 116.85 262.292C117.114 262.516 117.453 262.627 117.868 262.627Z" fill="#2C2C2C"/>
<circle cx="34.2832" cy="258.739" r="8" fill="#444444" stroke="#444444"/>
<rect x="34.2832" y="250.239" width="17" height="17" fill="#444444"/>
<circle cx="51.2832" cy="258.739" r="8" fill="white" stroke="#444444"/>
<path d="M9.30273 3.69141H462.303C464.236 3.69141 465.803 5.25841 465.803 7.19141V50.6914H5.80273V7.19141C5.80273 5.25841 7.36974 3.69141 9.30273 3.69141Z" fill="#2C2C2C" stroke="#2C2C2C"/>
<path d="M28.2578 30.6182H32.9746V31.6914H26.9385V21.7383H28.2578V30.6182ZM35.6475 31.6914H34.3828V24.2949H35.6475V31.6914ZM34.2803 22.333C34.2803 22.1279 34.3418 21.9548 34.4648 21.8135C34.5924 21.6722 34.7793 21.6016 35.0254 21.6016C35.2715 21.6016 35.4583 21.6722 35.5859 21.8135C35.7135 21.9548 35.7773 22.1279 35.7773 22.333C35.7773 22.5381 35.7135 22.709 35.5859 22.8457C35.4583 22.9824 35.2715 23.0508 35.0254 23.0508C34.7793 23.0508 34.5924 22.9824 34.4648 22.8457C34.3418 22.709 34.2803 22.5381 34.2803 22.333ZM43.9395 28.0752C43.9395 29.2054 43.6797 30.1146 43.1602 30.8027C42.6406 31.4863 41.9434 31.8281 41.0684 31.8281C40.1341 31.8281 39.4118 31.4977 38.9014 30.8369L38.8398 31.6914H37.6777V21.1914H38.9424V25.1084C39.4528 24.4749 40.1569 24.1582 41.0547 24.1582C41.9525 24.1582 42.6566 24.4977 43.167 25.1768C43.682 25.8558 43.9395 26.7855 43.9395 27.9658V28.0752ZM42.6748 27.9316C42.6748 27.0703 42.5085 26.4049 42.1758 25.9355C41.8431 25.4661 41.3646 25.2314 40.7402 25.2314C39.9062 25.2314 39.307 25.6188 38.9424 26.3936V29.5928C39.3298 30.3675 39.9336 30.7549 40.7539 30.7549C41.36 30.7549 41.8317 30.5202 42.1689 30.0508C42.5062 29.5814 42.6748 28.875 42.6748 27.9316ZM49.1143 25.4297C48.9229 25.3978 48.7155 25.3818 48.4922 25.3818C47.6628 25.3818 47.0999 25.735 46.8037 26.4414V31.6914H45.5391V24.2949H46.7695L46.79 25.1494C47.2048 24.4886 47.7926 24.1582 48.5537 24.1582C48.7998 24.1582 48.9867 24.1901 49.1143 24.2539V25.4297ZM54.5762 31.6914C54.5033 31.5456 54.444 31.2858 54.3984 30.9121C53.8105 31.5228 53.1087 31.8281 52.293 31.8281C51.5638 31.8281 50.9645 31.623 50.4951 31.2129C50.0303 30.7982 49.7979 30.2741 49.7979 29.6406C49.7979 28.8704 50.0895 28.2734 50.6729 27.8496C51.2607 27.4212 52.0856 27.207 53.1475 27.207H54.3779V26.626C54.3779 26.1839 54.2458 25.833 53.9814 25.5732C53.7171 25.3089 53.3275 25.1768 52.8125 25.1768C52.3613 25.1768 51.9831 25.2907 51.6777 25.5186C51.3724 25.7464 51.2197 26.0221 51.2197 26.3457H49.9482C49.9482 25.9766 50.0781 25.6211 50.3379 25.2793C50.6022 24.9329 50.9577 24.6595 51.4043 24.459C51.8555 24.2585 52.3499 24.1582 52.8877 24.1582C53.7399 24.1582 54.4076 24.3724 54.8906 24.8008C55.3737 25.2246 55.6243 25.8102 55.6426 26.5576V29.9619C55.6426 30.641 55.7292 31.181 55.9023 31.582V31.6914H54.5762ZM52.4775 30.7275C52.874 30.7275 53.25 30.625 53.6055 30.4199C53.9609 30.2148 54.2184 29.9482 54.3779 29.6201V28.1025H53.3867C51.8372 28.1025 51.0625 28.556 51.0625 29.4629C51.0625 29.8594 51.1947 30.1693 51.459 30.3926C51.7233 30.6159 52.0628 30.7275 52.4775 30.7275ZM61.2002 25.4297C61.0088 25.3978 60.8014 25.3818 60.5781 25.3818C59.7487 25.3818 59.1859 25.735 58.8896 26.4414V31.6914H57.625V24.2949H58.8555L58.876 25.1494C59.2907 24.4886 59.8786 24.1582 60.6396 24.1582C60.8857 24.1582 61.0726 24.1901 61.2002 24.2539V25.4297ZM63.7432 31.6914H62.4785V24.2949H63.7432V31.6914ZM62.376 22.333C62.376 22.1279 62.4375 21.9548 62.5605 21.8135C62.6882 21.6722 62.875 21.6016 63.1211 21.6016C63.3672 21.6016 63.554 21.6722 63.6816 21.8135C63.8092 21.9548 63.873 22.1279 63.873 22.333C63.873 22.5381 63.8092 22.709 63.6816 22.8457C63.554 22.9824 63.3672 23.0508 63.1211 23.0508C62.875 23.0508 62.6882 22.9824 62.5605 22.8457C62.4375 22.709 62.376 22.5381 62.376 22.333ZM68.8428 31.8281C67.8402 31.8281 67.0244 31.5 66.3955 30.8438C65.7666 30.1829 65.4521 29.3011 65.4521 28.1982V27.9658C65.4521 27.2321 65.5911 26.5781 65.8691 26.0039C66.1517 25.4251 66.5436 24.974 67.0449 24.6504C67.5508 24.3223 68.0977 24.1582 68.6855 24.1582C69.6471 24.1582 70.3945 24.4749 70.9277 25.1084C71.4609 25.7419 71.7275 26.6488 71.7275 27.8291V28.3555H66.7168C66.735 29.0846 66.9469 29.6748 67.3525 30.126C67.7627 30.5726 68.2822 30.7959 68.9111 30.7959C69.3577 30.7959 69.736 30.7048 70.0459 30.5225C70.3558 30.3402 70.627 30.0986 70.8594 29.7979L71.6318 30.3994C71.012 31.3519 70.0824 31.8281 68.8428 31.8281ZM68.6855 25.1973C68.1751 25.1973 67.7467 25.3841 67.4004 25.7578C67.054 26.127 66.8398 26.6465 66.7578 27.3164H70.4629V27.2207C70.4264 26.5781 70.2533 26.0814 69.9434 25.7305C69.6335 25.375 69.2142 25.1973 68.6855 25.1973ZM77.5039 29.7295C77.5039 29.3877 77.374 29.1234 77.1143 28.9365C76.859 28.7451 76.4102 28.5811 75.7676 28.4443C75.1296 28.3076 74.6214 28.1436 74.2432 27.9521C73.8695 27.7607 73.5915 27.5329 73.4092 27.2686C73.2314 27.0042 73.1426 26.6898 73.1426 26.3252C73.1426 25.7191 73.3978 25.2064 73.9082 24.7871C74.4232 24.3678 75.0794 24.1582 75.877 24.1582C76.7155 24.1582 77.3945 24.3747 77.9141 24.8076C78.4382 25.2406 78.7002 25.7943 78.7002 26.4688H77.4287C77.4287 26.1224 77.2806 25.8239 76.9844 25.5732C76.6927 25.3226 76.3236 25.1973 75.877 25.1973C75.4167 25.1973 75.0566 25.2975 74.7969 25.498C74.5371 25.6986 74.4072 25.9606 74.4072 26.2842C74.4072 26.5895 74.528 26.8197 74.7695 26.9746C75.0111 27.1296 75.4463 27.2777 76.0752 27.4189C76.7087 27.5602 77.2214 27.7288 77.6133 27.9248C78.0052 28.1208 78.2946 28.3577 78.4814 28.6357C78.6729 28.9092 78.7686 29.2441 78.7686 29.6406C78.7686 30.3014 78.5042 30.8324 77.9756 31.2334C77.4469 31.6299 76.7611 31.8281 75.918 31.8281C75.3255 31.8281 74.8014 31.7233 74.3457 31.5137C73.89 31.304 73.5322 31.0124 73.2725 30.6387C73.0173 30.2604 72.8896 29.8525 72.8896 29.415H74.1543C74.1771 29.8389 74.3457 30.1761 74.6602 30.4268C74.9792 30.6729 75.3984 30.7959 75.918 30.7959C76.3965 30.7959 76.7793 30.7002 77.0664 30.5088C77.3581 30.3128 77.5039 30.0531 77.5039 29.7295Z" fill="white"/>
<path d="M29.2871 75.3232C28.3223 75.0459 27.6191 74.7061 27.1777 74.3037C26.7402 73.8975 26.5215 73.3975 26.5215 72.8037C26.5215 72.1318 26.7891 71.5771 27.3242 71.1396C27.8633 70.6982 28.5625 70.4775 29.4219 70.4775C30.0078 70.4775 30.5293 70.5908 30.9863 70.8174C31.4473 71.0439 31.8027 71.3564 32.0527 71.7549C32.3066 72.1533 32.4336 72.5889 32.4336 73.0615H31.3027C31.3027 72.5459 31.1387 72.1416 30.8105 71.8486C30.4824 71.5518 30.0195 71.4033 29.4219 71.4033C28.8672 71.4033 28.4336 71.5264 28.1211 71.7725C27.8125 72.0146 27.6582 72.3525 27.6582 72.7861C27.6582 73.1338 27.8047 73.4287 28.0977 73.6709C28.3945 73.9092 28.8965 74.1279 29.6035 74.3271C30.3145 74.5264 30.8691 74.7471 31.2676 74.9893C31.6699 75.2275 31.9668 75.5068 32.1582 75.8271C32.3535 76.1475 32.4512 76.5244 32.4512 76.958C32.4512 77.6494 32.1816 78.2041 31.6426 78.6221C31.1035 79.0361 30.3828 79.2432 29.4805 79.2432C28.8945 79.2432 28.3477 79.1318 27.8398 78.9092C27.332 78.6826 26.9395 78.374 26.6621 77.9834C26.3887 77.5928 26.252 77.1494 26.252 76.6533H27.3828C27.3828 77.1689 27.5723 77.5771 27.9512 77.8779C28.334 78.1748 28.8438 78.3232 29.4805 78.3232C30.0742 78.3232 30.5293 78.2021 30.8457 77.96C31.1621 77.7178 31.3203 77.3877 31.3203 76.9697C31.3203 76.5518 31.1738 76.2295 30.8809 76.0029C30.5879 75.7725 30.0566 75.5459 29.2871 75.3232ZM36.3594 79.2432C35.5 79.2432 34.8008 78.9619 34.2617 78.3994C33.7227 77.833 33.4531 77.0771 33.4531 76.1318V75.9326C33.4531 75.3037 33.5723 74.7432 33.8105 74.251C34.0527 73.7549 34.3887 73.3682 34.8184 73.0908C35.252 72.8096 35.7207 72.6689 36.2246 72.6689C37.0488 72.6689 37.6895 72.9404 38.1465 73.4834C38.6035 74.0264 38.832 74.8037 38.832 75.8154V76.2666H34.5371C34.5527 76.8916 34.7344 77.3975 35.082 77.7842C35.4336 78.167 35.8789 78.3584 36.418 78.3584C36.8008 78.3584 37.125 78.2803 37.3906 78.124C37.6562 77.9678 37.8887 77.7607 38.0879 77.5029L38.75 78.0186C38.2188 78.835 37.4219 79.2432 36.3594 79.2432ZM36.2246 73.5596C35.7871 73.5596 35.4199 73.7197 35.123 74.04C34.8262 74.3564 34.6426 74.8018 34.5723 75.376H37.748V75.2939C37.7168 74.7432 37.5684 74.3174 37.3027 74.0166C37.0371 73.7119 36.6777 73.5596 36.2246 73.5596ZM44.0059 79.126C43.9434 79.001 43.8926 78.7783 43.8535 78.458C43.3496 78.9814 42.748 79.2432 42.0488 79.2432C41.4238 79.2432 40.9102 79.0674 40.5078 78.7158C40.1094 78.3604 39.9102 77.9111 39.9102 77.3682C39.9102 76.708 40.1602 76.1963 40.6602 75.833C41.1641 75.4658 41.8711 75.2822 42.7812 75.2822H43.8359V74.7842C43.8359 74.4053 43.7227 74.1045 43.4961 73.8818C43.2695 73.6553 42.9355 73.542 42.4941 73.542C42.1074 73.542 41.7832 73.6396 41.5215 73.835C41.2598 74.0303 41.1289 74.2666 41.1289 74.5439H40.0391C40.0391 74.2275 40.1504 73.9229 40.373 73.6299C40.5996 73.333 40.9043 73.0986 41.2871 72.9268C41.6738 72.7549 42.0977 72.6689 42.5586 72.6689C43.2891 72.6689 43.8613 72.8525 44.2754 73.2197C44.6895 73.583 44.9043 74.085 44.9199 74.7256V77.6436C44.9199 78.2256 44.9941 78.6885 45.1426 79.0322V79.126H44.0059ZM42.207 78.2998C42.5469 78.2998 42.8691 78.2119 43.1738 78.0361C43.4785 77.8604 43.6992 77.6318 43.8359 77.3506V76.0498H42.9863C41.6582 76.0498 40.9941 76.4385 40.9941 77.2158C40.9941 77.5557 41.1074 77.8213 41.334 78.0127C41.5605 78.2041 41.8516 78.2998 42.207 78.2998ZM49.6836 73.7588C49.5195 73.7314 49.3418 73.7178 49.1504 73.7178C48.4395 73.7178 47.957 74.0205 47.7031 74.626V79.126H46.6191V72.7861H47.6738L47.6914 73.5186C48.0469 72.9521 48.5508 72.6689 49.2031 72.6689C49.4141 72.6689 49.5742 72.6963 49.6836 72.751V73.7588ZM53.1113 78.3584C53.498 78.3584 53.8359 78.2412 54.125 78.0068C54.4141 77.7725 54.5742 77.4795 54.6055 77.1279H55.6309C55.6113 77.4912 55.4863 77.8369 55.2559 78.165C55.0254 78.4932 54.7168 78.7549 54.3301 78.9502C53.9473 79.1455 53.541 79.2432 53.1113 79.2432C52.248 79.2432 51.5605 78.9561 51.0488 78.3818C50.541 77.8037 50.2871 77.0146 50.2871 76.0146V75.833C50.2871 75.2158 50.4004 74.667 50.627 74.1865C50.8535 73.7061 51.1777 73.333 51.5996 73.0674C52.0254 72.8018 52.5273 72.6689 53.1055 72.6689C53.8164 72.6689 54.4062 72.8818 54.875 73.3076C55.3477 73.7334 55.5996 74.2861 55.6309 74.9658H54.6055C54.5742 74.5557 54.418 74.2197 54.1367 73.958C53.8594 73.6924 53.5156 73.5596 53.1055 73.5596C52.5547 73.5596 52.127 73.7588 51.8223 74.1572C51.5215 74.5518 51.3711 75.124 51.3711 75.874V76.0791C51.3711 76.8096 51.5215 77.3721 51.8223 77.7666C52.123 78.1611 52.5527 78.3584 53.1113 78.3584ZM57.9336 73.5537C58.4141 72.9639 59.0391 72.6689 59.8086 72.6689C61.1484 72.6689 61.8242 73.4248 61.8359 74.9365V79.126H60.752V74.9307C60.748 74.4736 60.6426 74.1357 60.4355 73.917C60.2324 73.6982 59.9141 73.5889 59.4805 73.5889C59.1289 73.5889 58.8203 73.6826 58.5547 73.8701C58.2891 74.0576 58.082 74.3037 57.9336 74.6084V79.126H56.8496V70.126H57.9336V73.5537Z" fill="#AAAAAA"/>
<path opacity="0.5" d="M113.945 21.7383V28.5059C113.941 29.4447 113.645 30.2126 113.057 30.8096C112.473 31.4066 111.68 31.7415 110.678 31.8145L110.329 31.8281C109.24 31.8281 108.372 31.5342 107.725 30.9463C107.077 30.3584 106.749 29.5495 106.74 28.5195V21.7383H108.039V28.4785C108.039 29.1986 108.237 29.7591 108.634 30.1602C109.03 30.5566 109.595 30.7549 110.329 30.7549C111.072 30.7549 111.639 30.5566 112.031 30.1602C112.428 29.7637 112.626 29.2054 112.626 28.4854V21.7383H113.945ZM122.066 28.0752C122.066 29.2008 121.809 30.1077 121.294 30.7959C120.779 31.484 120.082 31.8281 119.202 31.8281C118.304 31.8281 117.598 31.5433 117.083 30.9736V34.5352H115.818V24.2949H116.974L117.035 25.1152C117.55 24.4772 118.266 24.1582 119.182 24.1582C120.07 24.1582 120.772 24.4932 121.287 25.1631C121.807 25.833 122.066 26.765 122.066 27.959V28.0752ZM120.802 27.9316C120.802 27.0977 120.624 26.4391 120.269 25.9561C119.913 25.473 119.425 25.2314 118.806 25.2314C118.04 25.2314 117.466 25.571 117.083 26.25V29.7842C117.461 30.4587 118.04 30.7959 118.819 30.7959C119.425 30.7959 119.906 30.5566 120.262 30.0781C120.622 29.5951 120.802 28.8796 120.802 27.9316ZM123.372 27.9316C123.372 26.7969 123.641 25.8854 124.179 25.1973C124.716 24.5046 125.421 24.1582 126.291 24.1582C127.157 24.1582 127.843 24.4544 128.349 25.0469V21.1914H129.613V31.6914H128.451L128.39 30.8984C127.884 31.5182 127.18 31.8281 126.277 31.8281C125.421 31.8281 124.721 31.4772 124.179 30.7754C123.641 30.0736 123.372 29.1576 123.372 28.0273V27.9316ZM124.637 28.0752C124.637 28.9137 124.81 29.57 125.156 30.0439C125.503 30.5179 125.981 30.7549 126.592 30.7549C127.394 30.7549 127.979 30.3949 128.349 29.6748V26.2773C127.97 25.5801 127.389 25.2314 126.605 25.2314C125.986 25.2314 125.503 25.4707 125.156 25.9492C124.81 26.4277 124.637 27.1364 124.637 28.0752ZM136.148 31.6914C136.076 31.5456 136.016 31.2858 135.971 30.9121C135.383 31.5228 134.681 31.8281 133.865 31.8281C133.136 31.8281 132.537 31.623 132.067 31.2129C131.603 30.7982 131.37 30.2741 131.37 29.6406C131.37 28.8704 131.662 28.2734 132.245 27.8496C132.833 27.4212 133.658 27.207 134.72 27.207H135.95V26.626C135.95 26.1839 135.818 25.833 135.554 25.5732C135.289 25.3089 134.9 25.1768 134.385 25.1768C133.934 25.1768 133.555 25.2907 133.25 25.5186C132.945 25.7464 132.792 26.0221 132.792 26.3457H131.521C131.521 25.9766 131.65 25.6211 131.91 25.2793C132.174 24.9329 132.53 24.6595 132.977 24.459C133.428 24.2585 133.922 24.1582 134.46 24.1582C135.312 24.1582 135.98 24.3724 136.463 24.8008C136.946 25.2246 137.197 25.8102 137.215 26.5576V29.9619C137.215 30.641 137.301 31.181 137.475 31.582V31.6914H136.148ZM134.05 30.7275C134.446 30.7275 134.822 30.625 135.178 30.4199C135.533 30.2148 135.791 29.9482 135.95 29.6201V28.1025H134.959C133.41 28.1025 132.635 28.556 132.635 29.4629C132.635 29.8594 132.767 30.1693 133.031 30.3926C133.296 30.6159 133.635 30.7275 134.05 30.7275ZM140.913 22.5039V24.2949H142.294V25.2725H140.913V29.8594C140.913 30.1556 140.975 30.3789 141.098 30.5293C141.221 30.6751 141.43 30.748 141.727 30.748C141.872 30.748 142.073 30.7207 142.328 30.666V31.6914C141.995 31.7826 141.672 31.8281 141.357 31.8281C140.792 31.8281 140.366 31.6572 140.079 31.3154C139.792 30.9736 139.648 30.4883 139.648 29.8594V25.2725H138.302V24.2949H139.648V22.5039H140.913ZM146.847 31.8281C145.844 31.8281 145.028 31.5 144.399 30.8438C143.771 30.1829 143.456 29.3011 143.456 28.1982V27.9658C143.456 27.2321 143.595 26.5781 143.873 26.0039C144.156 25.4251 144.548 24.974 145.049 24.6504C145.555 24.3223 146.102 24.1582 146.689 24.1582C147.651 24.1582 148.398 24.4749 148.932 25.1084C149.465 25.7419 149.731 26.6488 149.731 27.8291V28.3555H144.721C144.739 29.0846 144.951 29.6748 145.356 30.126C145.767 30.5726 146.286 30.7959 146.915 30.7959C147.362 30.7959 147.74 30.7048 148.05 30.5225C148.36 30.3402 148.631 30.0986 148.863 29.7979L149.636 30.3994C149.016 31.3519 148.086 31.8281 146.847 31.8281ZM146.689 25.1973C146.179 25.1973 145.751 25.3841 145.404 25.7578C145.058 26.127 144.844 26.6465 144.762 27.3164H148.467V27.2207C148.43 26.5781 148.257 26.0814 147.947 25.7305C147.637 25.375 147.218 25.1973 146.689 25.1973ZM155.508 29.7295C155.508 29.3877 155.378 29.1234 155.118 28.9365C154.863 28.7451 154.414 28.5811 153.771 28.4443C153.133 28.3076 152.625 28.1436 152.247 27.9521C151.873 27.7607 151.595 27.5329 151.413 27.2686C151.235 27.0042 151.146 26.6898 151.146 26.3252C151.146 25.7191 151.402 25.2064 151.912 24.7871C152.427 24.3678 153.083 24.1582 153.881 24.1582C154.719 24.1582 155.398 24.3747 155.918 24.8076C156.442 25.2406 156.704 25.7943 156.704 26.4688H155.433C155.433 26.1224 155.285 25.8239 154.988 25.5732C154.697 25.3226 154.327 25.1973 153.881 25.1973C153.421 25.1973 153.061 25.2975 152.801 25.498C152.541 25.6986 152.411 25.9606 152.411 26.2842C152.411 26.5895 152.532 26.8197 152.773 26.9746C153.015 27.1296 153.45 27.2777 154.079 27.4189C154.713 27.5602 155.225 27.7288 155.617 27.9248C156.009 28.1208 156.299 28.3577 156.485 28.6357C156.677 28.9092 156.772 29.2441 156.772 29.6406C156.772 30.3014 156.508 30.8324 155.979 31.2334C155.451 31.6299 154.765 31.8281 153.922 31.8281C153.329 31.8281 152.805 31.7233 152.35 31.5137C151.894 31.304 151.536 31.0124 151.276 30.6387C151.021 30.2604 150.894 29.8525 150.894 29.415H152.158C152.181 29.8389 152.35 30.1761 152.664 30.4268C152.983 30.6729 153.402 30.7959 153.922 30.7959C154.4 30.7959 154.783 30.7002 155.07 30.5088C155.362 30.3128 155.508 30.0531 155.508 29.7295Z" fill="white"/>
<rect x="6.2207" y="98.6084" width="461.604" height="1" fill="#D4D4D4"/>
<rect x="6.2207" y="195.608" width="461.604" height="1" fill="#D4D4D4"/>
<path opacity="0.5" fill-rule="evenodd" clip-rule="evenodd" d="M446.896 32.796L447.604 32.0889L443.999 28.4844L447.533 24.9503L446.826 24.2432L442.586 28.4835L442.654 28.5533L443.293 29.1906L446.896 32.796Z" fill="white"/>
<path opacity="0.5" fill-rule="evenodd" clip-rule="evenodd" d="M439.643 24.2431L438.936 24.9502L442.54 28.5546L439.006 32.0888L439.713 32.7959L443.953 28.5556L443.884 28.4867L443.885 28.4857L439.643 24.2431Z" fill="white"/>
<path opacity="0.5" fill-rule="evenodd" clip-rule="evenodd" d="M439.643 256.243L438.936 256.95L442.54 260.555L439.006 264.089L439.713 264.796L443.953 260.556L443.884 260.487L443.885 260.486L439.643 256.243Z" fill="#333333"/>
<defs>
<filter id="filter0_d" x="2" y="0.191406" width="467.604" height="314.578" filterUnits="userSpaceOnUse" color-interpolation-filters="sRGB">
<feFlood flood-opacity="0" result="BackgroundImageFix"/>
<feColorMatrix in="SourceAlpha" type="matrix" values="0 0 0 0 0 0 0 0 0 0 0 0 0 0 0 0 0 0 127 0"/>
<feOffset/>
<feGaussianBlur stdDeviation="1.5"/>
<feColorMatrix type="matrix" values="0 0 0 0 0 0 0 0 0 0 0 0 0 0 0 0 0 0 0.25 0"/>
<feBlend mode="normal" in2="BackgroundImageFix" result="effect1_dropShadow"/>
<feBlend mode="normal" in="SourceGraphic" in2="effect1_dropShadow" result="shape"/>
</filter>
</defs>
</svg>
