<svg xmlns="http://www.w3.org/2000/svg" width="65" height="65" viewBox="0 0 65 65">
  <g fill="#D8D8D8" fill-rule="evenodd">
    <path d="M1 0L8 0 8 1 1 1 1 8 0 8 0 0 1 0zM9 0L16 0 16 1 9 1 9 8 8 8 8 0 9 0zM17 0L24 0 24 1 17 1 17 8 16 8 16 0 17 0zM25 0L32 0 32 1 25 1 25 8 24 8 24 0 25 0zM33 0L40 0 40 1 33 1 33 8 32 8 32 0 33 0zM41 0L48 0 48 1 41 1 41 8 40 8 40 0 41 0zM49 0L56 0 56 1 49 1 49 8 48 8 48 0 49 0zM57 0L64 0 64 1 57 1 57 8 56 8 56 0 57 0z"/>
    <g transform="translate(0 8)">
      <path d="M1 0L8 0 8 1 1 1 1 8 0 8 0 0 1 0zM9 0L16 0 16 1 9 1 9 8 8 8 8 0 9 0zM17 0L24 0 24 1 17 1 17 8 16 8 16 0 17 0zM25 0L32 0 32 1 25 1 25 8 24 8 24 0 25 0zM33 0L40 0 40 1 33 1 33 8 32 8 32 0 33 0zM41 0L48 0 48 1 41 1 41 8 40 8 40 0 41 0zM49 0L56 0 56 1 49 1 49 8 48 8 48 0 49 0zM57 0L64 0 64 1 57 1 57 8 56 8 56 0 57 0z"/>
    </g>
    <g transform="translate(0 16)">
      <path d="M1 0L8 0 8 1 1 1 1 8 0 8 0 0 1 0zM9 0L16 0 16 1 9 1 9 8 8 8 8 0 9 0zM17 0L24 0 24 1 17 1 17 8 16 8 16 0 17 0zM25 0L32 0 32 1 25 1 25 8 24 8 24 0 25 0zM33 0L40 0 40 1 33 1 33 8 32 8 32 0 33 0zM41 0L48 0 48 1 41 1 41 8 40 8 40 0 41 0zM49 0L56 0 56 1 49 1 49 8 48 8 48 0 49 0zM57 0L64 0 64 1 57 1 57 8 56 8 56 0 57 0z"/>
    </g>
    <g transform="translate(0 24)">
      <path d="M1 0L8 0 8 1 1 1 1 8 0 8 0 0 1 0zM9 0L16 0 16 1 9 1 9 8 8 8 8 0 9 0zM17 0L24 0 24 1 17 1 17 8 16 8 16 0 17 0zM25 0L32 0 32 1 25 1 25 8 24 8 24 0 25 0zM33 0L40 0 40 1 33 1 33 8 32 8 32 0 33 0zM41 0L48 0 48 1 41 1 41 8 40 8 40 0 41 0zM49 0L56 0 56 1 49 1 49 8 48 8 48 0 49 0zM57 0L64 0 64 1 57 1 57 8 56 8 56 0 57 0z"/>
    </g>
    <g transform="translate(0 32)">
      <path d="M1 0L8 0 8 1 1 1 1 8 0 8 0 0 1 0zM9 0L16 0 16 1 9 1 9 8 8 8 8 0 9 0zM17 0L24 0 24 1 17 1 17 8 16 8 16 0 17 0zM25 0L32 0 32 1 25 1 25 8 24 8 24 0 25 0zM33 0L40 0 40 1 33 1 33 8 32 8 32 0 33 0zM41 0L48 0 48 1 41 1 41 8 40 8 40 0 41 0zM49 0L56 0 56 1 49 1 49 8 48 8 48 0 49 0zM57 0L64 0 64 1 57 1 57 8 56 8 56 0 57 0z"/>
    </g>
    <g transform="translate(0 40)">
      <path d="M1 0L8 0 8 1 1 1 1 8 0 8 0 0 1 0zM9 0L16 0 16 1 9 1 9 8 8 8 8 0 9 0zM17 0L24 0 24 1 17 1 17 8 16 8 16 0 17 0zM25 0L32 0 32 1 25 1 25 8 24 8 24 0 25 0zM33 0L40 0 40 1 33 1 33 8 32 8 32 0 33 0zM41 0L48 0 48 1 41 1 41 8 40 8 40 0 41 0zM49 0L56 0 56 1 49 1 49 8 48 8 48 0 49 0zM57 0L64 0 64 1 57 1 57 8 56 8 56 0 57 0z"/>
    </g>
    <g transform="translate(0 48)">
      <path d="M1 0L8 0 8 1 1 1 1 8 0 8 0 0 1 0zM9 0L16 0 16 1 9 1 9 8 8 8 8 0 9 0zM17 0L24 0 24 1 17 1 17 8 16 8 16 0 17 0zM25 0L32 0 32 1 25 1 25 8 24 8 24 0 25 0zM33 0L40 0 40 1 33 1 33 8 32 8 32 0 33 0zM41 0L48 0 48 1 41 1 41 8 40 8 40 0 41 0zM49 0L56 0 56 1 49 1 49 8 48 8 48 0 49 0zM57 0L64 0 64 1 57 1 57 8 56 8 56 0 57 0z"/>
    </g>
    <g transform="translate(0 56)">
      <path d="M1 0L8 0 8 1 1 1 1 8 0 8 0 0 1 0zM9 0L16 0 16 1 9 1 9 8 8 8 8 0 9 0zM17 0L24 0 24 1 17 1 17 8 16 8 16 0 17 0zM25 0L32 0 32 1 25 1 25 8 24 8 24 0 25 0zM33 0L40 0 40 1 33 1 33 8 32 8 32 0 33 0zM41 0L48 0 48 1 41 1 41 8 40 8 40 0 41 0zM49 0L56 0 56 1 49 1 49 8 48 8 48 0 49 0zM57 0L64 0 64 1 57 1 57 8 56 8 56 0 57 0z"/>
    </g>
    <rect width="1" height="64" x="64"/>
    <rect width="65" height="1" y="64"/>
  </g>
</svg>
