<svg fill="none" height="138" viewBox="0 0 170 138" width="170" xmlns="http://www.w3.org/2000/svg" xmlns:xlink="http://www.w3.org/1999/xlink"><linearGradient id="a"><stop offset="0"/><stop offset="1" stop-opacity="0"/></linearGradient><linearGradient id="b" gradientUnits="userSpaceOnUse" x1="40" x2="176" xlink:href="#a" y1="90" y2="88.5"/><linearGradient id="c" gradientUnits="userSpaceOnUse" x1="32" x2="168" xlink:href="#a" y1="18" y2="16.5"/><path clip-rule="evenodd" d="m12.6179 8c.4142 0 .75.33579.75.75v1.18396h5.2686v-1.18396c0-.41421.3358-.75.75-.75s.75.33579.75.75v1.18396h1.6177c1.2427 0 2.25 1.00734 2.25 2.25004v2.3678 7.2025c0 1.2426-1.0073 2.25-2.25 2.25h-11.5042c-1.24264 0-2.25-1.0074-2.25-2.25v-7.2025-2.3678c0-1.2427 1.00736-2.25004 2.25-2.25004h1.6179v-1.18396c0-.41421.3358-.75.75-.75zm6.0186 3.434v.7003c0 .4142.3358.75.75.75s.75-.3358.75-.75v-.7003h1.6177c.4143 0 .75.3357.75.75v1.6178h-13.0042v-1.6178c0-.4143.33579-.75.75-.75h1.6179v.7003c0 .4142.3358.75.75.75s.75-.3358.75-.75v-.7003zm-9.1365 3.8678h13.0042v6.4525c0 .4142-.3357.75-.75.75h-11.5042c-.41421 0-.75-.3358-.75-.75z" fill="#000" fill-rule="evenodd"/><path clip-rule="evenodd" d="m14.9253 76.3745c.4142 0 .75.3358.75.75v2.1502h8.6502v-2.1502c0-.4142.3358-.75.75-.75s.75.3358.75.75v2.1502h3.55c1.2427 0 2.25 1.0073 2.25 2.25v4.3001 11.5503c0 1.2427-1.0073 2.25-2.25 2.25h-18.7505c-1.24264 0-2.25-1.0073-2.25-2.25v-11.5503-4.3001c0-1.2427 1.00736-2.25 2.25-2.25h3.5503v-2.1502c0-.4142.3358-.75.75-.75zm9.4002 4.4002v1.4249c0 .4142.3358.75.75.75s.75-.3358.75-.75v-1.4249h3.55c.4142 0 .75.3358.75.75v3.5501h-20.2505v-3.5501c0-.4142.3358-.75.75-.75h3.5503v1.4249c0 .4142.3358.75.75.75s.75-.3358.75-.75v-1.4249zm-14.4505 5.8001h20.2505v10.8003c0 .4142-.3358.75-.75.75h-18.7505c-.4142 0-.75-.3358-.75-.75z" fill="#000" fill-rule="evenodd"/><g fill="#db00ff" fill-opacity=".25"><path d="m0 0h32v8h-32z"/><path d="m0 24h32v8h-32z"/><path d="m0 0h8v32h-8z"/><path d="m24 0h8v32h-8z"/><path d="m0 68h40v8h-40z"/><path d="m0 100h40v8h-40z"/></g><path d="m32.7148 128.695c0 .426-.1132.805-.3398 1.137-.2227.332-.5254.592-.9082.779.4453.192.7969.471 1.0547.838.2617.367.3926.783.3926 1.248 0 .739-.25 1.326-.75 1.764-.4961.437-1.1504.656-1.9629.656-.8203 0-1.4785-.219-1.9746-.656-.4922-.441-.7383-1.029-.7383-1.764 0-.461.125-.877.375-1.248.2539-.371.6035-.652 1.0488-.844-.3789-.187-.6777-.447-.8965-.779-.2187-.332-.3281-.709-.3281-1.131 0-.718.2305-1.289.6914-1.711s1.0684-.632 1.8223-.632c.75 0 1.3554.21 1.8164.632.4648.422.6972.993.6972 1.711zm-.8847 3.979c0-.477-.1524-.865-.4571-1.166-.3007-.301-.6953-.451-1.1835-.451-.4883 0-.8809.148-1.1778.445-.2929.297-.4394.687-.4394 1.172 0 .484.1425.865.4277 1.142.2891.278.6895.416 1.2012.416.5078 0 .9062-.138 1.1953-.416.289-.281.4336-.662.4336-1.142zm-1.6289-5.432c-.4258 0-.7715.133-1.0371.399-.2618.261-.3926.619-.3926 1.072 0 .433.1289.785.3867 1.055.2617.265.6094.398 1.043.398s.7793-.133 1.0371-.398c.2617-.27.3926-.622.3926-1.055 0-.434-.1348-.787-.4043-1.061-.2696-.273-.6114-.41-1.0254-.41zm9.6621 4.658c0 .965-.2207 1.743-.6621 2.332-.4414.59-1.0391.885-1.793.885-.7695 0-1.375-.244-1.8164-.732v3.053h-1.084v-8.778h.9902l.0528.703c.4414-.547 1.0547-.82 1.8398-.82.7617 0 1.3633.287 1.8047.861.4453.575.668 1.373.668 2.397zm-1.084-.123c0-.715-.1523-1.279-.457-1.693s-.7227-.621-1.2539-.621c-.6563 0-1.1485.291-1.4766.873v3.029c.3242.578.8203.867 1.4883.867.5195 0 .9316-.205 1.2363-.615.3086-.414.4629-1.027.4629-1.84zm4.5-.802 1.4062-2.315h1.2657l-2.0742 3.135 2.1386 3.205h-1.2539l-1.4648-2.373-1.4649 2.373h-1.2597l2.1386-3.205-2.0742-3.135h1.2539z" fill="#000"/><path d="m36.5 120.5v-11" stroke="#b3b3b3" stroke-dasharray="2 3" stroke-linecap="round"/><path d="m24.7148 51.6953c0 .4258-.1132.8047-.3398 1.1367-.2227.3321-.5254.5918-.9082.7793.4453.1914.7969.4707 1.0547.8379.2617.3672.3926.7832.3926 1.2481 0 .7382-.25 1.3261-.75 1.7636-.4961.4375-1.1504.6563-1.9629.6563-.8203 0-1.4785-.2188-1.9746-.6563-.4922-.4414-.7383-1.0293-.7383-1.7636 0-.461.125-.877.375-1.2481.2539-.3711.6035-.6523 1.0488-.8437-.3789-.1875-.6777-.4473-.8965-.7793-.2187-.3321-.3281-.709-.3281-1.1309 0-.7187.2305-1.2891.6914-1.7109.4609-.4219 1.0684-.6328 1.8223-.6328.75 0 1.3554.2109 1.8164.6328.4648.4218.6972.9922.6972 1.7109zm-.8847 3.9785c0-.4765-.1524-.8652-.4571-1.166-.3007-.3008-.6953-.4512-1.1835-.4512-.4883 0-.8809.1485-1.1778.4454-.2929.2968-.4394.6875-.4394 1.1718 0 .4844.1425.8653.4277 1.1426.2891.2774.6895.416 1.2012.416.5078 0 .9062-.1386 1.1953-.416.289-.2812.4336-.6621.4336-1.1426zm-1.6289-5.4316c-.4258 0-.7715.1328-1.0371.3984-.2618.2617-.3926.6192-.3926 1.0723 0 .4336.1289.7851.3867 1.0547.2617.2656.6094.3984 1.043.3984s.7793-.1328 1.0371-.3984c.2617-.2696.3926-.6211.3926-1.0547s-.1348-.7871-.4043-1.0606c-.2696-.2734-.6114-.4101-1.0254-.4101zm9.6621 4.6582c0 .9648-.2207 1.7422-.6621 2.332-.4414.5899-1.0391.8848-1.793.8848-.7695 0-1.375-.2442-1.8164-.7324v3.0527h-1.084v-8.7773h.9902l.0528.7031c.4414-.5469 1.0547-.8203 1.8398-.8203.7617 0 1.3633.2871 1.8047.8613.4453.5742.668 1.373.668 2.3965zm-1.084-.1231c0-.7148-.1523-1.2793-.457-1.6933-.3047-.4141-.7227-.6211-1.2539-.6211-.6563 0-1.1485.291-1.4766.873v3.0293c.3242.5782.8203.8672 1.4883.8672.5195 0 .9316-.2051 1.2363-.6152.3086-.4141.4629-1.0274.4629-1.8399zm4.5-.8027 1.4062-2.3144h1.2657l-2.0742 3.1347 2.1386 3.2051h-1.2539l-1.4648-2.373-1.4649 2.373h-1.2597l2.1386-3.2051-2.0742-3.1347h1.2539z" fill="#000"/><path d="m28.5 43.5v-11" stroke="#b3b3b3" stroke-dasharray="2 3" stroke-linecap="round"/><path d="m0 68h8v40h-8z" fill="#db00ff" fill-opacity=".25"/><path d="m32 68h8v40h-8z" fill="#db00ff" fill-opacity=".25"/><g fill="url(#b)" opacity=".5"><path d="m49.0625 94h-1.5078l-5.7266-8.7656v8.7656h-1.5078v-11.375h1.5078l5.7422 8.8047v-8.8047h1.4922z"/><path d="m55.0078 94.1562c-1.1458 0-2.0781-.375-2.7969-1.125-.7187-.7552-1.0781-1.763-1.0781-3.0234v-.2656c0-.8386.1589-1.586.4766-2.2422.3229-.6615.7708-1.1771 1.3437-1.5469.5781-.375 1.2031-.5625 1.875-.5625 1.099 0 1.9531.362 2.5625 1.086.6094.7239.9141 1.7604.9141 3.1093v.6016h-5.7266c.0209.8333.263 1.5078.7266 2.0234.4687.5105 1.0625.7657 1.7812.7657.5105 0 .9427-.1042 1.2969-.3125.3542-.2084.6641-.4844.9297-.8282l.8828.6875c-.7083 1.0886-1.7708 1.6328-3.1875 1.6328zm-.1797-7.5781c-.5833 0-1.0729.2136-1.4687.6407-.3959.4218-.6406 1.0156-.7344 1.7812h4.2344v-.1094c-.0417-.7344-.2396-1.3021-.5938-1.7031-.3541-.4063-.8333-.6094-1.4375-.6094z"/><path d="m65.2031 94c-.0833-.1667-.151-.4635-.2031-.8906-.6719.6979-1.474 1.0468-2.4062 1.0468-.8334 0-1.5183-.2343-2.0547-.7031-.5313-.4739-.7969-1.0729-.7969-1.7969 0-.8802.3333-1.5624 1-2.0468.6719-.4896 1.6146-.7344 2.8281-.7344h1.4063v-.6641c0-.5052-.1511-.9062-.4532-1.2031-.302-.3021-.7474-.4531-1.3359-.4531-.5156 0-.9479.1302-1.2969.3906-.3489.2604-.5234.5755-.5234.9453h-1.4531c0-.4218.1484-.8281.4453-1.2187.3021-.3959.7083-.7084 1.2187-.9375.5157-.2292 1.0808-.3438 1.6953-.3438.974 0 1.737.2448 2.2891.7344.5521.4844.8385 1.1536.8594 2.0078v3.8906c0 .7761.0989 1.3933.2969 1.8516v.125zm-2.3984-1.1016c.4531 0 .8828-.1172 1.2891-.3515.4062-.2344.7005-.5391.8828-.9141v-1.7344h-1.1328c-1.7709 0-2.6563.5183-2.6563 1.5547 0 .4531.151.8073.4531 1.0625s.6901.3828 1.1641.3828z"/><path d="m72.7734 86.8438c-.2187-.0365-.4557-.0547-.7109-.0547-.9479 0-1.5911.4036-1.9297 1.2109v6h-1.4453v-8.4531h1.4063l.0234.9765c.4739-.7552 1.1458-1.1328 2.0156-1.1328.2813 0 .4948.0365.6406.1094z"/><path d="m77.4609 94.1562c-1.1458 0-2.0781-.375-2.7968-1.125-.7188-.7552-1.0782-1.763-1.0782-3.0234v-.2656c0-.8386.1589-1.586.4766-2.2422.3229-.6615.7708-1.1771 1.3437-1.5469.5782-.375 1.2032-.5625 1.875-.5625 1.099 0 1.9532.362 2.5626 1.086.6093.7239.914 1.7604.914 3.1093v.6016h-5.7266c.0209.8333.2631 1.5078.7266 2.0234.4688.5105 1.0625.7657 1.7813.7657.5104 0 .9427-.1042 1.2968-.3125.3542-.2084.6641-.4844.9297-.8282l.8828.6875c-.7083 1.0886-1.7708 1.6328-3.1875 1.6328zm-.1797-7.5781c-.5833 0-1.0729.2136-1.4687.6407-.3958.4218-.6406 1.0156-.7344 1.7812h4.2344v-.1094c-.0417-.7344-.2396-1.3021-.5937-1.7031-.3542-.4063-.8334-.6094-1.4376-.6094z"/><path d="m87.3594 91.7578c0-.3906-.1485-.6927-.4453-.9062-.2917-.2188-.8047-.4063-1.5391-.5625-.7292-.1563-1.3099-.3438-1.7422-.5625-.4271-.2188-.7448-.4792-.9531-.7813-.2031-.3021-.3047-.6614-.3047-1.0781 0-.6927.2917-1.2787.875-1.7578.5885-.4792 1.3385-.7188 2.25-.7188.9583 0 1.7344.2474 2.3281.7422.599.4948.8985 1.1276.8985 1.8984h-1.4532c0-.3958-.1692-.7369-.5078-1.0234-.3333-.2864-.7552-.4297-1.2656-.4297-.526 0-.9375.1146-1.2344.3438-.2968.2291-.4453.5286-.4453.8984 0 .349.138.612.4141.7891.276.1771.7734.3463 1.4922.5078.7239.1614 1.3099.3542 1.7578.5781.4479.224.7786.4948.9922.8125.2187.3125.3281.6953.3281 1.1484 0 .7553-.3021 1.362-.9063 1.8204-.6041.4531-1.388.6796-2.3515.6796-.6771 0-1.2761-.1197-1.7969-.3593s-.9297-.5729-1.2266-1c-.2916-.4323-.4375-.8985-.4375-1.3985h1.4453c.0261.4844.2188.8698.5782 1.1563.3646.2812.8437.4219 1.4375.4219.5469 0 .9843-.1094 1.3125-.3282.3333-.2239.5-.5208.5-.8906z"/><path d="m92.6484 83.5v2.0469h1.5782v1.1172h-1.5782v5.2421c0 .3386.0704.5938.211.7657.1406.1666.3802.25.7187.25.1667 0 .3959-.0313.6875-.0938v1.1719c-.3802.1042-.75.1562-1.1094.1562-.6458 0-1.1328-.1953-1.4609-.5859s-.4922-.9453-.4922-1.6641v-5.2421h-1.539v-1.1172h1.539v-2.0469z"/><path d="m101.258 85.5469.047 1.0625c.646-.8125 1.489-1.2188 2.531-1.2188 1.786 0 2.687 1.0078 2.703 3.0235v5.5859h-1.445v-5.5938c-.005-.6093-.146-1.0598-.422-1.3515-.271-.2917-.695-.4375-1.274-.4375-.468 0-.88.125-1.234.375s-.63.5781-.828.9844v6.0234h-1.4454v-8.4531z"/><path d="m112.227 94.1562c-1.146 0-2.079-.375-2.797-1.125-.719-.7552-1.078-1.763-1.078-3.0234v-.2656c0-.8386.158-1.586.476-2.2422.323-.6615.771-1.1771 1.344-1.5469.578-.375 1.203-.5625 1.875-.5625 1.099 0 1.953.362 2.562 1.086.61.7239.914 1.7604.914 3.1093v.6016h-5.726c.021.8333.263 1.5078.726 2.0234.469.5105 1.063.7657 1.782.7657.51 0 .942-.1042 1.297-.3125.354-.2084.664-.4844.929-.8282l.883.6875c-.708 1.0886-1.771 1.6328-3.187 1.6328zm-.18-7.5781c-.583 0-1.073.2136-1.469.6407-.396.4218-.64 1.0156-.734 1.7812h4.234v-.1094c-.042-.7344-.239-1.3021-.594-1.7031-.354-.4063-.833-.6094-1.437-.6094z"/><path d="m118.773 94h-1.445v-8.4531h1.445zm-1.562-10.6953c0-.2344.07-.4323.211-.5938.146-.1614.359-.2421.64-.2421.282 0 .495.0807.641.2421.146.1615.219.3594.219.5938s-.073.4297-.219.5859c-.146.1563-.359.2344-.641.2344-.281 0-.494-.0781-.64-.2344-.141-.1562-.211-.3515-.211-.5859z"/><path d="m120.75 89.7031c0-1.3177.305-2.3646.914-3.1406.609-.7813 1.417-1.1719 2.422-1.1719 1.031 0 1.836.3646 2.414 1.0938l.07-.9375h1.321v8.25c0 1.0937-.326 1.9557-.977 2.5859-.646.6302-1.516.9453-2.609.9453-.61 0-1.206-.1302-1.789-.3906-.584-.2604-1.029-.6172-1.336-1.0703l.75-.8672c.619.7656 1.377 1.1484 2.273 1.1484.703 0 1.25-.1979 1.641-.5937.396-.3958.594-.9531.594-1.6719v-.7266c-.579.6667-1.368 1-2.368 1-.989 0-1.791-.3984-2.406-1.1953-.609-.7968-.914-1.8828-.914-3.2578zm1.453.1641c0 .9531.195 1.7031.586 2.25.391.5417.938.8125 1.641.8125.911 0 1.58-.4141 2.008-1.2422v-3.8594c-.443-.8073-1.107-1.2109-1.993-1.2109-.703 0-1.252.2734-1.648.8203s-.594 1.3568-.594 2.4297z"/><path d="m131.523 86.5703c.641-.7864 1.474-1.1797 2.5-1.1797 1.787 0 2.688 1.0078 2.704 3.0235v5.5859h-1.446v-5.5938c-.005-.6093-.146-1.0598-.422-1.3515-.27-.2917-.695-.4375-1.273-.4375-.469 0-.88.125-1.234.375-.355.25-.631.5781-.829.9844v6.0234h-1.445v-12h1.445z"/><path d="m146.047 89.8672c0 1.2917-.297 2.3307-.891 3.1172-.594.7812-1.39 1.1718-2.39 1.1718-1.068 0-1.894-.3776-2.477-1.1328l-.07.9766h-1.328v-12h1.445v4.4766c.583-.724 1.388-1.086 2.414-1.086s1.831.388 2.414 1.1641c.589.776.883 1.8385.883 3.1875zm-1.445-.1641c0-.9843-.191-1.7448-.571-2.2812-.38-.5365-.927-.8047-1.64-.8047-.953 0-1.638.4427-2.055 1.3281v3.6563c.443.8854 1.133 1.3281 2.07 1.3281.693 0 1.232-.2682 1.617-.8047.386-.5365.579-1.3438.579-2.4219z"/><path d="m147.492 89.6953c0-.8281.162-1.5729.485-2.2344.328-.6614.781-1.1718 1.359-1.5312.583-.3594 1.247-.5391 1.992-.5391 1.151 0 2.081.3985 2.789 1.1953.714.7969 1.071 1.8568 1.071 3.1797v.1016c0 .8229-.159 1.5625-.477 2.2187-.313.6511-.763 1.1589-1.352 1.5235-.583.3646-1.255.5468-2.015.5468-1.146 0-2.076-.3984-2.789-1.1953-.709-.7968-1.063-1.8515-1.063-3.164zm1.453.1719c0 .9375.216 1.6901.649 2.2578.437.5677 1.021.8516 1.75.8516.734 0 1.317-.2865 1.75-.8594.432-.5781.648-1.3854.648-2.4219 0-.9271-.221-1.6771-.664-2.25-.437-.5781-1.021-.8672-1.75-.8672-.713 0-1.289.2839-1.726.8516-.438.5677-.657 1.3802-.657 2.4375z"/><path d="m162.219 93.1641c-.563.6614-1.388.9921-2.477.9921-.901 0-1.588-.2604-2.062-.7812-.469-.526-.706-1.3021-.711-2.3281v-5.5h1.445v5.4609c0 1.2813.521 1.9219 1.563 1.9219 1.104 0 1.838-.4115 2.203-1.2344v-6.1484h1.445v8.4531h-1.375z"/><path d="m169.914 86.8438c-.219-.0365-.456-.0547-.711-.0547-.948 0-1.591.4036-1.93 1.2109v6h-1.445v-8.4531h1.406l.024.9765c.474-.7552 1.146-1.1328 2.015-1.1328.282 0 .495.0365.641.1094z"/></g><g fill="url(#c)" opacity=".5"><path d="m41.0625 22h-1.5078l-5.7266-8.7656v8.7656h-1.5078v-11.375h1.5078l5.7422 8.8047v-8.8047h1.4922z"/><path d="m47.0078 22.1562c-1.1458 0-2.0781-.375-2.7969-1.125-.7187-.7552-1.0781-1.763-1.0781-3.0234v-.2656c0-.8386.1589-1.586.4766-2.2422.3229-.6615.7708-1.1771 1.3437-1.5469.5781-.375 1.2031-.5625 1.875-.5625 1.099 0 1.9531.362 2.5625 1.086.6094.7239.9141 1.7604.9141 3.1093v.6016h-5.7266c.0209.8333.263 1.5078.7266 2.0234.4687.5105 1.0625.7657 1.7812.7657.5105 0 .9427-.1042 1.2969-.3125.3542-.2084.6641-.4844.9297-.8282l.8828.6875c-.7083 1.0886-1.7708 1.6328-3.1875 1.6328zm-.1797-7.5781c-.5833 0-1.0729.2136-1.4687.6407-.3959.4218-.6406 1.0156-.7344 1.7812h4.2344v-.1094c-.0417-.7344-.2396-1.3021-.5938-1.7031-.3541-.4063-.8333-.6094-1.4375-.6094z"/><path d="m57.2031 22c-.0833-.1667-.151-.4635-.2031-.8906-.6719.6979-1.474 1.0468-2.4062 1.0468-.8334 0-1.5183-.2343-2.0547-.7031-.5313-.4739-.7969-1.0729-.7969-1.7969 0-.8802.3333-1.5624 1-2.0468.6719-.4896 1.6146-.7344 2.8281-.7344h1.4063v-.6641c0-.5052-.1511-.9062-.4532-1.2031-.302-.3021-.7474-.4531-1.3359-.4531-.5156 0-.9479.1302-1.2969.3906-.3489.2604-.5234.5755-.5234.9453h-1.4531c0-.4218.1484-.8281.4453-1.2187.3021-.3959.7083-.7084 1.2187-.9375.5157-.2292 1.0808-.3438 1.6953-.3438.974 0 1.737.2448 2.2891.7344.5521.4844.8385 1.1536.8594 2.0078v3.8906c0 .7761.0989 1.3933.2969 1.8516v.125zm-2.3984-1.1016c.4531 0 .8828-.1172 1.2891-.3515.4062-.2344.7005-.5391.8828-.9141v-1.7344h-1.1328c-1.7709 0-2.6563.5183-2.6563 1.5547 0 .4531.151.8073.4531 1.0625s.6901.3828 1.1641.3828z"/><path d="m64.7734 14.8438c-.2187-.0365-.4557-.0547-.7109-.0547-.9479 0-1.5911.4036-1.9297 1.2109v6h-1.4453v-8.4531h1.4063l.0234.9765c.4739-.7552 1.1458-1.1328 2.0156-1.1328.2813 0 .4948.0365.6406.1094z"/><path d="m69.4609 22.1562c-1.1458 0-2.0781-.375-2.7968-1.125-.7188-.7552-1.0782-1.763-1.0782-3.0234v-.2656c0-.8386.1589-1.586.4766-2.2422.3229-.6615.7708-1.1771 1.3437-1.5469.5782-.375 1.2032-.5625 1.875-.5625 1.099 0 1.9532.362 2.5626 1.086.6093.7239.914 1.7604.914 3.1093v.6016h-5.7266c.0209.8333.2631 1.5078.7266 2.0234.4688.5105 1.0625.7657 1.7813.7657.5104 0 .9427-.1042 1.2968-.3125.3542-.2084.6641-.4844.9297-.8282l.8828.6875c-.7083 1.0886-1.7708 1.6328-3.1875 1.6328zm-.1797-7.5781c-.5833 0-1.0729.2136-1.4687.6407-.3958.4218-.6406 1.0156-.7344 1.7812h4.2344v-.1094c-.0417-.7344-.2396-1.3021-.5937-1.7031-.3542-.4063-.8334-.6094-1.4376-.6094z"/><path d="m79.3594 19.7578c0-.3906-.1485-.6927-.4453-.9062-.2917-.2188-.8047-.4063-1.5391-.5625-.7292-.1563-1.3099-.3438-1.7422-.5625-.4271-.2188-.7448-.4792-.9531-.7813-.2031-.3021-.3047-.6614-.3047-1.0781 0-.6927.2917-1.2787.875-1.7578.5885-.4792 1.3385-.7188 2.25-.7188.9583 0 1.7344.2474 2.3281.7422.599.4948.8985 1.1276.8985 1.8984h-1.4532c0-.3958-.1692-.7369-.5078-1.0234-.3333-.2864-.7552-.4297-1.2656-.4297-.526 0-.9375.1146-1.2344.3438-.2968.2291-.4453.5286-.4453.8984 0 .349.138.612.4141.7891.276.1771.7734.3463 1.4922.5078.7239.1614 1.3099.3542 1.7578.5781.4479.224.7786.4948.9922.8125.2187.3125.3281.6953.3281 1.1484 0 .7553-.3021 1.362-.9063 1.8204-.6041.4531-1.388.6796-2.3515.6796-.6771 0-1.2761-.1197-1.7969-.3593s-.9297-.5729-1.2266-1c-.2916-.4323-.4375-.8985-.4375-1.3985h1.4453c.0261.4844.2188.8698.5782 1.1563.3646.2812.8437.4219 1.4375.4219.5469 0 .9843-.1094 1.3125-.3282.3333-.2239.5-.5208.5-.8906z"/><path d="m84.6484 11.5v2.0469h1.5782v1.1172h-1.5782v5.2421c0 .3386.0704.5938.211.7657.1406.1666.3802.25.7187.25.1667 0 .3959-.0313.6875-.0938v1.1719c-.3802.1042-.75.1562-1.1094.1562-.6458 0-1.1328-.1953-1.4609-.5859s-.4922-.9453-.4922-1.6641v-5.2421h-1.539v-1.1172h1.539v-2.0469z"/><path d="m93.2578 13.5469.0469 1.0625c.6458-.8125 1.4896-1.2188 2.5312-1.2188 1.7865 0 2.6875 1.0078 2.7032 3.0235v5.5859h-1.4453v-5.5938c-.0053-.6093-.1459-1.0598-.4219-1.3515-.2709-.2917-.6953-.4375-1.2735-.4375-.4687 0-.8802.125-1.2343.375-.3542.25-.6302.5781-.8282.9844v6.0234h-1.4453v-8.4531z"/><path d="m104.227 22.1562c-1.146 0-2.079-.375-2.797-1.125-.719-.7552-1.078-1.763-1.078-3.0234v-.2656c0-.8386.158-1.586.476-2.2422.323-.6615.771-1.1771 1.344-1.5469.578-.375 1.203-.5625 1.875-.5625 1.099 0 1.953.362 2.562 1.086.61.7239.914 1.7604.914 3.1093v.6016h-5.726c.021.8333.263 1.5078.726 2.0234.469.5105 1.063.7657 1.782.7657.51 0 .942-.1042 1.297-.3125.354-.2084.664-.4844.929-.8282l.883.6875c-.708 1.0886-1.771 1.6328-3.187 1.6328zm-.18-7.5781c-.583 0-1.073.2136-1.469.6407-.396.4218-.64 1.0156-.734 1.7812h4.234v-.1094c-.042-.7344-.239-1.3021-.594-1.7031-.354-.4063-.833-.6094-1.437-.6094z"/><path d="m110.773 22h-1.445v-8.4531h1.445zm-1.562-10.6953c0-.2344.07-.4323.211-.5938.146-.1614.359-.2421.64-.2421.282 0 .495.0807.641.2421.146.1615.219.3594.219.5938s-.073.4297-.219.5859c-.146.1563-.359.2344-.641.2344-.281 0-.494-.0781-.64-.2344-.141-.1562-.211-.3515-.211-.5859z"/><path d="m112.75 17.7031c0-1.3177.305-2.3646.914-3.1406.609-.7813 1.417-1.1719 2.422-1.1719 1.031 0 1.836.3646 2.414 1.0938l.07-.9375h1.321v8.25c0 1.0937-.326 1.9557-.977 2.5859-.646.6302-1.516.9453-2.609.9453-.61 0-1.206-.1302-1.789-.3906-.584-.2604-1.029-.6172-1.336-1.0703l.75-.8672c.619.7656 1.377 1.1484 2.273 1.1484.703 0 1.25-.1979 1.641-.5937.396-.3958.594-.9531.594-1.6719v-.7266c-.579.6667-1.368 1-2.368 1-.989 0-1.791-.3984-2.406-1.1953-.609-.7968-.914-1.8828-.914-3.2578zm1.453.1641c0 .9531.195 1.7031.586 2.25.391.5417.938.8125 1.641.8125.911 0 1.58-.4141 2.008-1.2422v-3.8594c-.443-.8073-1.107-1.2109-1.993-1.2109-.703 0-1.252.2734-1.648.8203s-.594 1.3568-.594 2.4297z"/><path d="m123.523 14.5703c.641-.7864 1.474-1.1797 2.5-1.1797 1.787 0 2.688 1.0078 2.704 3.0235v5.5859h-1.446v-5.5938c-.005-.6093-.146-1.0598-.422-1.3515-.27-.2917-.695-.4375-1.273-.4375-.469 0-.88.125-1.234.375-.355.25-.631.5781-.829.9844v6.0234h-1.445v-12h1.445z"/><path d="m138.047 17.8672c0 1.2917-.297 2.3307-.891 3.1172-.594.7812-1.39 1.1718-2.39 1.1718-1.068 0-1.894-.3776-2.477-1.1328l-.07.9766h-1.328v-12h1.445v4.4766c.583-.724 1.388-1.086 2.414-1.086s1.831.388 2.414 1.1641c.589.776.883 1.8385.883 3.1875zm-1.445-.1641c0-.9843-.191-1.7448-.571-2.2812-.38-.5365-.927-.8047-1.64-.8047-.953 0-1.638.4427-2.055 1.3281v3.6563c.443.8854 1.133 1.3281 2.07 1.3281.693 0 1.232-.2682 1.617-.8047.386-.5365.579-1.3438.579-2.4219z"/><path d="m139.492 17.6953c0-.8281.162-1.5729.485-2.2344.328-.6614.781-1.1718 1.359-1.5312.583-.3594 1.247-.5391 1.992-.5391 1.151 0 2.081.3985 2.789 1.1953.714.7969 1.071 1.8568 1.071 3.1797v.1016c0 .8229-.159 1.5625-.477 2.2187-.313.6511-.763 1.1589-1.352 1.5235-.583.3646-1.255.5468-2.015.5468-1.146 0-2.076-.3984-2.789-1.1953-.709-.7968-1.063-1.8515-1.063-3.164zm1.453.1719c0 .9375.216 1.6901.649 2.2578.437.5677 1.021.8516 1.75.8516.734 0 1.317-.2865 1.75-.8594.432-.5781.648-1.3854.648-2.4219 0-.9271-.221-1.6771-.664-2.25-.437-.5781-1.021-.8672-1.75-.8672-.713 0-1.289.2839-1.726.8516-.438.5677-.657 1.3802-.657 2.4375z"/><path d="m154.219 21.1641c-.563.6614-1.388.9921-2.477.9921-.901 0-1.588-.2604-2.062-.7812-.469-.526-.706-1.3021-.711-2.3281v-5.5h1.445v5.4609c0 1.2813.521 1.9219 1.563 1.9219 1.104 0 1.838-.4115 2.203-1.2344v-6.1484h1.445v8.4531h-1.375z"/><path d="m161.914 14.8438c-.219-.0365-.456-.0547-.711-.0547-.948 0-1.591.4036-1.93 1.2109v6h-1.445v-8.4531h1.406l.024.9765c.474-.7552 1.146-1.1328 2.015-1.1328.282 0 .495.0365.641.1094z"/></g></svg>