<svg width="170" height="138" viewBox="0 0 170 138" fill="none" xmlns="http://www.w3.org/2000/svg">
<path fill-rule="evenodd" clip-rule="evenodd" d="M12.6179 8C13.0321 8 13.3679 8.33579 13.3679 8.75V9.93396H18.6365V8.75C18.6365 8.33579 18.9723 8 19.3865 8C19.8007 8 20.1365 8.33579 20.1365 8.75V9.93396H21.7542C22.9969 9.93396 24.0042 10.9413 24.0042 12.184V14.5518V21.7543C24.0042 22.9969 22.9969 24.0043 21.7542 24.0043H10.25C9.00736 24.0043 8 22.9969 8 21.7543V14.5518V12.184C8 10.9413 9.00736 9.93396 10.25 9.93396H11.8679V8.75C11.8679 8.33579 12.2037 8 12.6179 8ZM18.6365 11.434V12.1343C18.6365 12.5485 18.9723 12.8843 19.3865 12.8843C19.8007 12.8843 20.1365 12.5485 20.1365 12.1343V11.434H21.7542C22.1685 11.434 22.5042 11.7697 22.5042 12.184V13.8018H9.5V12.184C9.5 11.7697 9.83579 11.434 10.25 11.434H11.8679V12.1343C11.8679 12.5485 12.2037 12.8843 12.6179 12.8843C13.0321 12.8843 13.3679 12.5485 13.3679 12.1343V11.434H18.6365ZM9.5 15.3018H22.5042V21.7543C22.5042 22.1685 22.1685 22.5043 21.7542 22.5043H10.25C9.83579 22.5043 9.5 22.1685 9.5 21.7543V15.3018Z" fill="black"/>
<path fill-rule="evenodd" clip-rule="evenodd" d="M14.9253 76.3745C15.3395 76.3745 15.6753 76.7103 15.6753 77.1245V79.2747H24.3255V77.1245C24.3255 76.7103 24.6613 76.3745 25.0755 76.3745C25.4897 76.3745 25.8255 76.7103 25.8255 77.1245V79.2747H29.3755C30.6182 79.2747 31.6255 80.282 31.6255 81.5247V85.8248V97.3751C31.6255 98.6178 30.6182 99.6251 29.3755 99.6251H10.625C9.38236 99.6251 8.375 98.6178 8.375 97.3751V85.8248V81.5247C8.375 80.282 9.38236 79.2747 10.625 79.2747H14.1753V77.1245C14.1753 76.7103 14.5111 76.3745 14.9253 76.3745ZM24.3255 80.7747V82.1996C24.3255 82.6138 24.6613 82.9496 25.0755 82.9496C25.4897 82.9496 25.8255 82.6138 25.8255 82.1996V80.7747H29.3755C29.7897 80.7747 30.1255 81.1105 30.1255 81.5247V85.0748H9.875V81.5247C9.875 81.1105 10.2108 80.7747 10.625 80.7747H14.1753V82.1996C14.1753 82.6138 14.5111 82.9496 14.9253 82.9496C15.3395 82.9496 15.6753 82.6138 15.6753 82.1996V80.7747H24.3255ZM9.875 86.5748H30.1255V97.3751C30.1255 97.7893 29.7897 98.1251 29.3755 98.1251H10.625C10.2108 98.1251 9.875 97.7893 9.875 97.3751V86.5748Z" fill="black"/>
<rect width="32" height="8" fill="#DB00FF" fill-opacity="0.25"/>
<rect y="24" width="32" height="8" fill="#DB00FF" fill-opacity="0.25"/>
<rect width="8" height="32" fill="#DB00FF" fill-opacity="0.25"/>
<rect x="24" width="8" height="32" fill="#DB00FF" fill-opacity="0.25"/>
<rect y="68" width="40" height="8" fill="#DB00FF" fill-opacity="0.25"/>
<rect y="100" width="40" height="8" fill="#DB00FF" fill-opacity="0.25"/>
<path d="M32.7148 128.695C32.7148 129.121 32.6016 129.5 32.375 129.832C32.1523 130.164 31.8496 130.424 31.4668 130.611C31.9121 130.803 32.2637 131.082 32.5215 131.449C32.7832 131.816 32.9141 132.232 32.9141 132.697C32.9141 133.436 32.6641 134.023 32.1641 134.461C31.668 134.898 31.0137 135.117 30.2012 135.117C29.3809 135.117 28.7227 134.898 28.2266 134.461C27.7344 134.02 27.4883 133.432 27.4883 132.697C27.4883 132.236 27.6133 131.82 27.8633 131.449C28.1172 131.078 28.4668 130.797 28.9121 130.605C28.5332 130.418 28.2344 130.158 28.0156 129.826C27.7969 129.494 27.6875 129.117 27.6875 128.695C27.6875 127.977 27.918 127.406 28.3789 126.984C28.8398 126.562 29.4473 126.352 30.2012 126.352C30.9512 126.352 31.5566 126.562 32.0176 126.984C32.4824 127.406 32.7148 127.977 32.7148 128.695ZM31.8301 132.674C31.8301 132.197 31.6777 131.809 31.373 131.508C31.0723 131.207 30.6777 131.057 30.1895 131.057C29.7012 131.057 29.3086 131.205 29.0117 131.502C28.7188 131.799 28.5723 132.189 28.5723 132.674C28.5723 133.158 28.7148 133.539 29 133.816C29.2891 134.094 29.6895 134.232 30.2012 134.232C30.709 134.232 31.1074 134.094 31.3965 133.816C31.6855 133.535 31.8301 133.154 31.8301 132.674ZM30.2012 127.242C29.7754 127.242 29.4297 127.375 29.1641 127.641C28.9023 127.902 28.7715 128.26 28.7715 128.713C28.7715 129.146 28.9004 129.498 29.1582 129.768C29.4199 130.033 29.7676 130.166 30.2012 130.166C30.6348 130.166 30.9805 130.033 31.2383 129.768C31.5 129.498 31.6309 129.146 31.6309 128.713C31.6309 128.279 31.4961 127.926 31.2266 127.652C30.957 127.379 30.6152 127.242 30.2012 127.242ZM39.8633 131.9C39.8633 132.865 39.6426 133.643 39.2012 134.232C38.7598 134.822 38.1621 135.117 37.4082 135.117C36.6387 135.117 36.0332 134.873 35.5918 134.385V137.438H34.5078V128.66H35.498L35.5508 129.363C35.9922 128.816 36.6055 128.543 37.3906 128.543C38.1523 128.543 38.7539 128.83 39.1953 129.404C39.6406 129.979 39.8633 130.777 39.8633 131.801V131.9ZM38.7793 131.777C38.7793 131.062 38.627 130.498 38.3223 130.084C38.0176 129.67 37.5996 129.463 37.0684 129.463C36.4121 129.463 35.9199 129.754 35.5918 130.336V133.365C35.916 133.943 36.4121 134.232 37.0801 134.232C37.5996 134.232 38.0117 134.027 38.3164 133.617C38.625 133.203 38.7793 132.59 38.7793 131.777ZM43.2793 130.975L44.6855 128.66H45.9512L43.877 131.795L46.0156 135H44.7617L43.2969 132.627L41.832 135H40.5723L42.7109 131.795L40.6367 128.66H41.8906L43.2793 130.975Z" fill="black"/>
<line x1="36.5" y1="120.5" x2="36.5" y2="109.5" stroke="#B3B3B3" stroke-linecap="round" stroke-dasharray="2 3"/>
<path d="M24.7148 51.6953C24.7148 52.1211 24.6016 52.5 24.375 52.832C24.1523 53.1641 23.8496 53.4238 23.4668 53.6113C23.9121 53.8027 24.2637 54.082 24.5215 54.4492C24.7832 54.8164 24.9141 55.2324 24.9141 55.6973C24.9141 56.4355 24.6641 57.0234 24.1641 57.4609C23.668 57.8984 23.0137 58.1172 22.2012 58.1172C21.3809 58.1172 20.7227 57.8984 20.2266 57.4609C19.7344 57.0195 19.4883 56.4316 19.4883 55.6973C19.4883 55.2363 19.6133 54.8203 19.8633 54.4492C20.1172 54.0781 20.4668 53.7969 20.9121 53.6055C20.5332 53.418 20.2344 53.1582 20.0156 52.8262C19.7969 52.4941 19.6875 52.1172 19.6875 51.6953C19.6875 50.9766 19.918 50.4062 20.3789 49.9844C20.8398 49.5625 21.4473 49.3516 22.2012 49.3516C22.9512 49.3516 23.5566 49.5625 24.0176 49.9844C24.4824 50.4062 24.7148 50.9766 24.7148 51.6953ZM23.8301 55.6738C23.8301 55.1973 23.6777 54.8086 23.373 54.5078C23.0723 54.207 22.6777 54.0566 22.1895 54.0566C21.7012 54.0566 21.3086 54.2051 21.0117 54.502C20.7188 54.7988 20.5723 55.1895 20.5723 55.6738C20.5723 56.1582 20.7148 56.5391 21 56.8164C21.2891 57.0938 21.6895 57.2324 22.2012 57.2324C22.709 57.2324 23.1074 57.0938 23.3965 56.8164C23.6855 56.5352 23.8301 56.1543 23.8301 55.6738ZM22.2012 50.2422C21.7754 50.2422 21.4297 50.375 21.1641 50.6406C20.9023 50.9023 20.7715 51.2598 20.7715 51.7129C20.7715 52.1465 20.9004 52.498 21.1582 52.7676C21.4199 53.0332 21.7676 53.166 22.2012 53.166C22.6348 53.166 22.9805 53.0332 23.2383 52.7676C23.5 52.498 23.6309 52.1465 23.6309 51.7129C23.6309 51.2793 23.4961 50.9258 23.2266 50.6523C22.957 50.3789 22.6152 50.2422 22.2012 50.2422ZM31.8633 54.9004C31.8633 55.8652 31.6426 56.6426 31.2012 57.2324C30.7598 57.8223 30.1621 58.1172 29.4082 58.1172C28.6387 58.1172 28.0332 57.873 27.5918 57.3848V60.4375H26.5078V51.6602H27.498L27.5508 52.3633C27.9922 51.8164 28.6055 51.543 29.3906 51.543C30.1523 51.543 30.7539 51.8301 31.1953 52.4043C31.6406 52.9785 31.8633 53.7773 31.8633 54.8008V54.9004ZM30.7793 54.7773C30.7793 54.0625 30.627 53.498 30.3223 53.084C30.0176 52.6699 29.5996 52.4629 29.0684 52.4629C28.4121 52.4629 27.9199 52.7539 27.5918 53.3359V56.3652C27.916 56.9434 28.4121 57.2324 29.0801 57.2324C29.5996 57.2324 30.0117 57.0273 30.3164 56.6172C30.625 56.2031 30.7793 55.5898 30.7793 54.7773ZM35.2793 53.9746L36.6855 51.6602H37.9512L35.877 54.7949L38.0156 58H36.7617L35.2969 55.627L33.832 58H32.5723L34.7109 54.7949L32.6367 51.6602H33.8906L35.2793 53.9746Z" fill="black"/>
<line x1="28.5" y1="43.5" x2="28.5" y2="32.5" stroke="#B3B3B3" stroke-linecap="round" stroke-dasharray="2 3"/>
<rect y="68" width="8" height="40" fill="#DB00FF" fill-opacity="0.25"/>
<rect x="32" y="68" width="8" height="40" fill="#DB00FF" fill-opacity="0.25"/>
<g opacity="0.5">
<path d="M49.0625 94H47.5547L41.8281 85.2344V94H40.3203V82.625H41.8281L47.5703 91.4297V82.625H49.0625V94Z" fill="url(#paint0_linear)"/>
<path d="M55.0078 94.1562C53.862 94.1562 52.9297 93.7812 52.2109 93.0312C51.4922 92.276 51.1328 91.2682 51.1328 90.0078V89.7422C51.1328 88.9036 51.2917 88.1562 51.6094 87.5C51.9323 86.8385 52.3802 86.3229 52.9531 85.9531C53.5312 85.5781 54.1562 85.3906 54.8281 85.3906C55.9271 85.3906 56.7812 85.7526 57.3906 86.4766C58 87.2005 58.3047 88.237 58.3047 89.5859V90.1875H52.5781C52.599 91.0208 52.8411 91.6953 53.3047 92.2109C53.7734 92.7214 54.3672 92.9766 55.0859 92.9766C55.5964 92.9766 56.0286 92.8724 56.3828 92.6641C56.737 92.4557 57.0469 92.1797 57.3125 91.8359L58.1953 92.5234C57.487 93.612 56.4245 94.1562 55.0078 94.1562ZM54.8281 86.5781C54.2448 86.5781 53.7552 86.7917 53.3594 87.2188C52.9635 87.6406 52.7188 88.2344 52.625 89H56.8594V88.8906C56.8177 88.1562 56.6198 87.5885 56.2656 87.1875C55.9115 86.7812 55.4323 86.5781 54.8281 86.5781Z" fill="url(#paint1_linear)"/>
<path d="M65.2031 94C65.1198 93.8333 65.0521 93.5365 65 93.1094C64.3281 93.8073 63.526 94.1562 62.5938 94.1562C61.7604 94.1562 61.0755 93.9219 60.5391 93.4531C60.0078 92.9792 59.7422 92.3802 59.7422 91.6562C59.7422 90.776 60.0755 90.0938 60.7422 89.6094C61.4141 89.1198 62.3568 88.875 63.5703 88.875H64.9766V88.2109C64.9766 87.7057 64.8255 87.3047 64.5234 87.0078C64.2214 86.7057 63.776 86.5547 63.1875 86.5547C62.6719 86.5547 62.2396 86.6849 61.8906 86.9453C61.5417 87.2057 61.3672 87.5208 61.3672 87.8906H59.9141C59.9141 87.4688 60.0625 87.0625 60.3594 86.6719C60.6615 86.276 61.0677 85.9635 61.5781 85.7344C62.0938 85.5052 62.6589 85.3906 63.2734 85.3906C64.2474 85.3906 65.0104 85.6354 65.5625 86.125C66.1146 86.6094 66.401 87.2786 66.4219 88.1328V92.0234C66.4219 92.7995 66.5208 93.4167 66.7188 93.875V94H65.2031ZM62.8047 92.8984C63.2578 92.8984 63.6875 92.7812 64.0938 92.5469C64.5 92.3125 64.7943 92.0078 64.9766 91.6328V89.8984H63.8438C62.0729 89.8984 61.1875 90.4167 61.1875 91.4531C61.1875 91.9062 61.3385 92.2604 61.6406 92.5156C61.9427 92.7708 62.3307 92.8984 62.8047 92.8984Z" fill="url(#paint2_linear)"/>
<path d="M72.7734 86.8438C72.5547 86.8073 72.3177 86.7891 72.0625 86.7891C71.1146 86.7891 70.4714 87.1927 70.1328 88V94H68.6875V85.5469H70.0938L70.1172 86.5234C70.5911 85.7682 71.263 85.3906 72.1328 85.3906C72.4141 85.3906 72.6276 85.4271 72.7734 85.5V86.8438Z" fill="url(#paint3_linear)"/>
<path d="M77.4609 94.1562C76.3151 94.1562 75.3828 93.7812 74.6641 93.0312C73.9453 92.276 73.5859 91.2682 73.5859 90.0078V89.7422C73.5859 88.9036 73.7448 88.1562 74.0625 87.5C74.3854 86.8385 74.8333 86.3229 75.4062 85.9531C75.9844 85.5781 76.6094 85.3906 77.2812 85.3906C78.3802 85.3906 79.2344 85.7526 79.8438 86.4766C80.4531 87.2005 80.7578 88.237 80.7578 89.5859V90.1875H75.0312C75.0521 91.0208 75.2943 91.6953 75.7578 92.2109C76.2266 92.7214 76.8203 92.9766 77.5391 92.9766C78.0495 92.9766 78.4818 92.8724 78.8359 92.6641C79.1901 92.4557 79.5 92.1797 79.7656 91.8359L80.6484 92.5234C79.9401 93.612 78.8776 94.1562 77.4609 94.1562ZM77.2812 86.5781C76.6979 86.5781 76.2083 86.7917 75.8125 87.2188C75.4167 87.6406 75.1719 88.2344 75.0781 89H79.3125V88.8906C79.2708 88.1562 79.0729 87.5885 78.7188 87.1875C78.3646 86.7812 77.8854 86.5781 77.2812 86.5781Z" fill="url(#paint4_linear)"/>
<path d="M87.3594 91.7578C87.3594 91.3672 87.2109 91.0651 86.9141 90.8516C86.6224 90.6328 86.1094 90.4453 85.375 90.2891C84.6458 90.1328 84.0651 89.9453 83.6328 89.7266C83.2057 89.5078 82.888 89.2474 82.6797 88.9453C82.4766 88.6432 82.375 88.2839 82.375 87.8672C82.375 87.1745 82.6667 86.5885 83.25 86.1094C83.8385 85.6302 84.5885 85.3906 85.5 85.3906C86.4583 85.3906 87.2344 85.638 87.8281 86.1328C88.4271 86.6276 88.7266 87.2604 88.7266 88.0312H87.2734C87.2734 87.6354 87.1042 87.2943 86.7656 87.0078C86.4323 86.7214 86.0104 86.5781 85.5 86.5781C84.974 86.5781 84.5625 86.6927 84.2656 86.9219C83.9688 87.151 83.8203 87.4505 83.8203 87.8203C83.8203 88.1693 83.9583 88.4323 84.2344 88.6094C84.5104 88.7865 85.0078 88.9557 85.7266 89.1172C86.4505 89.2786 87.0365 89.4714 87.4844 89.6953C87.9323 89.9193 88.263 90.1901 88.4766 90.5078C88.6953 90.8203 88.8047 91.2031 88.8047 91.6562C88.8047 92.4115 88.5026 93.0182 87.8984 93.4766C87.2943 93.9297 86.5104 94.1562 85.5469 94.1562C84.8698 94.1562 84.2708 94.0365 83.75 93.7969C83.2292 93.5573 82.8203 93.224 82.5234 92.7969C82.2318 92.3646 82.0859 91.8984 82.0859 91.3984H83.5312C83.5573 91.8828 83.75 92.2682 84.1094 92.5547C84.474 92.8359 84.9531 92.9766 85.5469 92.9766C86.0938 92.9766 86.5312 92.8672 86.8594 92.6484C87.1927 92.4245 87.3594 92.1276 87.3594 91.7578Z" fill="url(#paint5_linear)"/>
<path d="M92.6484 83.5V85.5469H94.2266V86.6641H92.6484V91.9062C92.6484 92.2448 92.7188 92.5 92.8594 92.6719C93 92.8385 93.2396 92.9219 93.5781 92.9219C93.7448 92.9219 93.974 92.8906 94.2656 92.8281V94C93.8854 94.1042 93.5156 94.1562 93.1562 94.1562C92.5104 94.1562 92.0234 93.9609 91.6953 93.5703C91.3672 93.1797 91.2031 92.625 91.2031 91.9062V86.6641H89.6641V85.5469H91.2031V83.5H92.6484Z" fill="url(#paint6_linear)"/>
<path d="M101.258 85.5469L101.305 86.6094C101.951 85.7969 102.794 85.3906 103.836 85.3906C105.622 85.3906 106.523 86.3984 106.539 88.4141V94H105.094V88.4062C105.089 87.7969 104.948 87.3464 104.672 87.0547C104.401 86.763 103.977 86.6172 103.398 86.6172C102.93 86.6172 102.518 86.7422 102.164 86.9922C101.81 87.2422 101.534 87.5703 101.336 87.9766V94H99.8906V85.5469H101.258Z" fill="url(#paint7_linear)"/>
<path d="M112.227 94.1562C111.081 94.1562 110.148 93.7812 109.43 93.0312C108.711 92.276 108.352 91.2682 108.352 90.0078V89.7422C108.352 88.9036 108.51 88.1562 108.828 87.5C109.151 86.8385 109.599 86.3229 110.172 85.9531C110.75 85.5781 111.375 85.3906 112.047 85.3906C113.146 85.3906 114 85.7526 114.609 86.4766C115.219 87.2005 115.523 88.237 115.523 89.5859V90.1875H109.797C109.818 91.0208 110.06 91.6953 110.523 92.2109C110.992 92.7214 111.586 92.9766 112.305 92.9766C112.815 92.9766 113.247 92.8724 113.602 92.6641C113.956 92.4557 114.266 92.1797 114.531 91.8359L115.414 92.5234C114.706 93.612 113.643 94.1562 112.227 94.1562ZM112.047 86.5781C111.464 86.5781 110.974 86.7917 110.578 87.2188C110.182 87.6406 109.938 88.2344 109.844 89H114.078V88.8906C114.036 88.1562 113.839 87.5885 113.484 87.1875C113.13 86.7812 112.651 86.5781 112.047 86.5781Z" fill="url(#paint8_linear)"/>
<path d="M118.773 94H117.328V85.5469H118.773V94ZM117.211 83.3047C117.211 83.0703 117.281 82.8724 117.422 82.7109C117.568 82.5495 117.781 82.4688 118.062 82.4688C118.344 82.4688 118.557 82.5495 118.703 82.7109C118.849 82.8724 118.922 83.0703 118.922 83.3047C118.922 83.5391 118.849 83.7344 118.703 83.8906C118.557 84.0469 118.344 84.125 118.062 84.125C117.781 84.125 117.568 84.0469 117.422 83.8906C117.281 83.7344 117.211 83.5391 117.211 83.3047Z" fill="url(#paint9_linear)"/>
<path d="M120.75 89.7031C120.75 88.3854 121.055 87.3385 121.664 86.5625C122.273 85.7812 123.081 85.3906 124.086 85.3906C125.117 85.3906 125.922 85.7552 126.5 86.4844L126.57 85.5469H127.891V93.7969C127.891 94.8906 127.565 95.7526 126.914 96.3828C126.268 97.013 125.398 97.3281 124.305 97.3281C123.695 97.3281 123.099 97.1979 122.516 96.9375C121.932 96.6771 121.487 96.3203 121.18 95.8672L121.93 95C122.549 95.7656 123.307 96.1484 124.203 96.1484C124.906 96.1484 125.453 95.9505 125.844 95.5547C126.24 95.1589 126.438 94.6016 126.438 93.8828V93.1562C125.859 93.8229 125.07 94.1562 124.07 94.1562C123.081 94.1562 122.279 93.7578 121.664 92.9609C121.055 92.1641 120.75 91.0781 120.75 89.7031ZM122.203 89.8672C122.203 90.8203 122.398 91.5703 122.789 92.1172C123.18 92.6589 123.727 92.9297 124.43 92.9297C125.341 92.9297 126.01 92.5156 126.438 91.6875V87.8281C125.995 87.0208 125.331 86.6172 124.445 86.6172C123.742 86.6172 123.193 86.8906 122.797 87.4375C122.401 87.9844 122.203 88.7943 122.203 89.8672Z" fill="url(#paint10_linear)"/>
<path d="M131.523 86.5703C132.164 85.7839 132.997 85.3906 134.023 85.3906C135.81 85.3906 136.711 86.3984 136.727 88.4141V94H135.281V88.4062C135.276 87.7969 135.135 87.3464 134.859 87.0547C134.589 86.763 134.164 86.6172 133.586 86.6172C133.117 86.6172 132.706 86.7422 132.352 86.9922C131.997 87.2422 131.721 87.5703 131.523 87.9766V94H130.078V82H131.523V86.5703Z" fill="url(#paint11_linear)"/>
<path d="M146.047 89.8672C146.047 91.1589 145.75 92.1979 145.156 92.9844C144.562 93.7656 143.766 94.1562 142.766 94.1562C141.698 94.1562 140.872 93.7786 140.289 93.0234L140.219 94H138.891V82H140.336V86.4766C140.919 85.7526 141.724 85.3906 142.75 85.3906C143.776 85.3906 144.581 85.7786 145.164 86.5547C145.753 87.3307 146.047 88.3932 146.047 89.7422V89.8672ZM144.602 89.7031C144.602 88.7188 144.411 87.9583 144.031 87.4219C143.651 86.8854 143.104 86.6172 142.391 86.6172C141.438 86.6172 140.753 87.0599 140.336 87.9453V91.6016C140.779 92.487 141.469 92.9297 142.406 92.9297C143.099 92.9297 143.638 92.6615 144.023 92.125C144.409 91.5885 144.602 90.7812 144.602 89.7031Z" fill="url(#paint12_linear)"/>
<path d="M147.492 89.6953C147.492 88.8672 147.654 88.1224 147.977 87.4609C148.305 86.7995 148.758 86.2891 149.336 85.9297C149.919 85.5703 150.583 85.3906 151.328 85.3906C152.479 85.3906 153.409 85.7891 154.117 86.5859C154.831 87.3828 155.188 88.4427 155.188 89.7656V89.8672C155.188 90.6901 155.029 91.4297 154.711 92.0859C154.398 92.737 153.948 93.2448 153.359 93.6094C152.776 93.974 152.104 94.1562 151.344 94.1562C150.198 94.1562 149.268 93.7578 148.555 92.9609C147.846 92.1641 147.492 91.1094 147.492 89.7969V89.6953ZM148.945 89.8672C148.945 90.8047 149.161 91.5573 149.594 92.125C150.031 92.6927 150.615 92.9766 151.344 92.9766C152.078 92.9766 152.661 92.6901 153.094 92.1172C153.526 91.5391 153.742 90.7318 153.742 89.6953C153.742 88.7682 153.521 88.0182 153.078 87.4453C152.641 86.8672 152.057 86.5781 151.328 86.5781C150.615 86.5781 150.039 86.862 149.602 87.4297C149.164 87.9974 148.945 88.8099 148.945 89.8672Z" fill="url(#paint13_linear)"/>
<path d="M162.219 93.1641C161.656 93.8255 160.831 94.1562 159.742 94.1562C158.841 94.1562 158.154 93.8958 157.68 93.375C157.211 92.849 156.974 92.0729 156.969 91.0469V85.5469H158.414V91.0078C158.414 92.2891 158.935 92.9297 159.977 92.9297C161.081 92.9297 161.815 92.5182 162.18 91.6953V85.5469H163.625V94H162.25L162.219 93.1641Z" fill="url(#paint14_linear)"/>
<path d="M169.914 86.8438C169.695 86.8073 169.458 86.7891 169.203 86.7891C168.255 86.7891 167.612 87.1927 167.273 88V94H165.828V85.5469H167.234L167.258 86.5234C167.732 85.7682 168.404 85.3906 169.273 85.3906C169.555 85.3906 169.768 85.4271 169.914 85.5V86.8438Z" fill="url(#paint15_linear)"/>
</g>
<g opacity="0.5">
<path d="M41.0625 22H39.5547L33.8281 13.2344V22H32.3203V10.625H33.8281L39.5703 19.4297V10.625H41.0625V22Z" fill="url(#paint16_linear)"/>
<path d="M47.0078 22.1562C45.862 22.1562 44.9297 21.7812 44.2109 21.0312C43.4922 20.276 43.1328 19.2682 43.1328 18.0078V17.7422C43.1328 16.9036 43.2917 16.1562 43.6094 15.5C43.9323 14.8385 44.3802 14.3229 44.9531 13.9531C45.5312 13.5781 46.1562 13.3906 46.8281 13.3906C47.9271 13.3906 48.7812 13.7526 49.3906 14.4766C50 15.2005 50.3047 16.237 50.3047 17.5859V18.1875H44.5781C44.599 19.0208 44.8411 19.6953 45.3047 20.2109C45.7734 20.7214 46.3672 20.9766 47.0859 20.9766C47.5964 20.9766 48.0286 20.8724 48.3828 20.6641C48.737 20.4557 49.0469 20.1797 49.3125 19.8359L50.1953 20.5234C49.487 21.612 48.4245 22.1562 47.0078 22.1562ZM46.8281 14.5781C46.2448 14.5781 45.7552 14.7917 45.3594 15.2188C44.9635 15.6406 44.7188 16.2344 44.625 17H48.8594V16.8906C48.8177 16.1562 48.6198 15.5885 48.2656 15.1875C47.9115 14.7812 47.4323 14.5781 46.8281 14.5781Z" fill="url(#paint17_linear)"/>
<path d="M57.2031 22C57.1198 21.8333 57.0521 21.5365 57 21.1094C56.3281 21.8073 55.526 22.1562 54.5938 22.1562C53.7604 22.1562 53.0755 21.9219 52.5391 21.4531C52.0078 20.9792 51.7422 20.3802 51.7422 19.6562C51.7422 18.776 52.0755 18.0938 52.7422 17.6094C53.4141 17.1198 54.3568 16.875 55.5703 16.875H56.9766V16.2109C56.9766 15.7057 56.8255 15.3047 56.5234 15.0078C56.2214 14.7057 55.776 14.5547 55.1875 14.5547C54.6719 14.5547 54.2396 14.6849 53.8906 14.9453C53.5417 15.2057 53.3672 15.5208 53.3672 15.8906H51.9141C51.9141 15.4688 52.0625 15.0625 52.3594 14.6719C52.6615 14.276 53.0677 13.9635 53.5781 13.7344C54.0938 13.5052 54.6589 13.3906 55.2734 13.3906C56.2474 13.3906 57.0104 13.6354 57.5625 14.125C58.1146 14.6094 58.401 15.2786 58.4219 16.1328V20.0234C58.4219 20.7995 58.5208 21.4167 58.7188 21.875V22H57.2031ZM54.8047 20.8984C55.2578 20.8984 55.6875 20.7812 56.0938 20.5469C56.5 20.3125 56.7943 20.0078 56.9766 19.6328V17.8984H55.8438C54.0729 17.8984 53.1875 18.4167 53.1875 19.4531C53.1875 19.9062 53.3385 20.2604 53.6406 20.5156C53.9427 20.7708 54.3307 20.8984 54.8047 20.8984Z" fill="url(#paint18_linear)"/>
<path d="M64.7734 14.8438C64.5547 14.8073 64.3177 14.7891 64.0625 14.7891C63.1146 14.7891 62.4714 15.1927 62.1328 16V22H60.6875V13.5469H62.0938L62.1172 14.5234C62.5911 13.7682 63.263 13.3906 64.1328 13.3906C64.4141 13.3906 64.6276 13.4271 64.7734 13.5V14.8438Z" fill="url(#paint19_linear)"/>
<path d="M69.4609 22.1562C68.3151 22.1562 67.3828 21.7812 66.6641 21.0312C65.9453 20.276 65.5859 19.2682 65.5859 18.0078V17.7422C65.5859 16.9036 65.7448 16.1562 66.0625 15.5C66.3854 14.8385 66.8333 14.3229 67.4062 13.9531C67.9844 13.5781 68.6094 13.3906 69.2812 13.3906C70.3802 13.3906 71.2344 13.7526 71.8438 14.4766C72.4531 15.2005 72.7578 16.237 72.7578 17.5859V18.1875H67.0312C67.0521 19.0208 67.2943 19.6953 67.7578 20.2109C68.2266 20.7214 68.8203 20.9766 69.5391 20.9766C70.0495 20.9766 70.4818 20.8724 70.8359 20.6641C71.1901 20.4557 71.5 20.1797 71.7656 19.8359L72.6484 20.5234C71.9401 21.612 70.8776 22.1562 69.4609 22.1562ZM69.2812 14.5781C68.6979 14.5781 68.2083 14.7917 67.8125 15.2188C67.4167 15.6406 67.1719 16.2344 67.0781 17H71.3125V16.8906C71.2708 16.1562 71.0729 15.5885 70.7188 15.1875C70.3646 14.7812 69.8854 14.5781 69.2812 14.5781Z" fill="url(#paint20_linear)"/>
<path d="M79.3594 19.7578C79.3594 19.3672 79.2109 19.0651 78.9141 18.8516C78.6224 18.6328 78.1094 18.4453 77.375 18.2891C76.6458 18.1328 76.0651 17.9453 75.6328 17.7266C75.2057 17.5078 74.888 17.2474 74.6797 16.9453C74.4766 16.6432 74.375 16.2839 74.375 15.8672C74.375 15.1745 74.6667 14.5885 75.25 14.1094C75.8385 13.6302 76.5885 13.3906 77.5 13.3906C78.4583 13.3906 79.2344 13.638 79.8281 14.1328C80.4271 14.6276 80.7266 15.2604 80.7266 16.0312H79.2734C79.2734 15.6354 79.1042 15.2943 78.7656 15.0078C78.4323 14.7214 78.0104 14.5781 77.5 14.5781C76.974 14.5781 76.5625 14.6927 76.2656 14.9219C75.9688 15.151 75.8203 15.4505 75.8203 15.8203C75.8203 16.1693 75.9583 16.4323 76.2344 16.6094C76.5104 16.7865 77.0078 16.9557 77.7266 17.1172C78.4505 17.2786 79.0365 17.4714 79.4844 17.6953C79.9323 17.9193 80.263 18.1901 80.4766 18.5078C80.6953 18.8203 80.8047 19.2031 80.8047 19.6562C80.8047 20.4115 80.5026 21.0182 79.8984 21.4766C79.2943 21.9297 78.5104 22.1562 77.5469 22.1562C76.8698 22.1562 76.2708 22.0365 75.75 21.7969C75.2292 21.5573 74.8203 21.224 74.5234 20.7969C74.2318 20.3646 74.0859 19.8984 74.0859 19.3984H75.5312C75.5573 19.8828 75.75 20.2682 76.1094 20.5547C76.474 20.8359 76.9531 20.9766 77.5469 20.9766C78.0938 20.9766 78.5312 20.8672 78.8594 20.6484C79.1927 20.4245 79.3594 20.1276 79.3594 19.7578Z" fill="url(#paint21_linear)"/>
<path d="M84.6484 11.5V13.5469H86.2266V14.6641H84.6484V19.9062C84.6484 20.2448 84.7188 20.5 84.8594 20.6719C85 20.8385 85.2396 20.9219 85.5781 20.9219C85.7448 20.9219 85.974 20.8906 86.2656 20.8281V22C85.8854 22.1042 85.5156 22.1562 85.1562 22.1562C84.5104 22.1562 84.0234 21.9609 83.6953 21.5703C83.3672 21.1797 83.2031 20.625 83.2031 19.9062V14.6641H81.6641V13.5469H83.2031V11.5H84.6484Z" fill="url(#paint22_linear)"/>
<path d="M93.2578 13.5469L93.3047 14.6094C93.9505 13.7969 94.7943 13.3906 95.8359 13.3906C97.6224 13.3906 98.5234 14.3984 98.5391 16.4141V22H97.0938V16.4062C97.0885 15.7969 96.9479 15.3464 96.6719 15.0547C96.401 14.763 95.9766 14.6172 95.3984 14.6172C94.9297 14.6172 94.5182 14.7422 94.1641 14.9922C93.8099 15.2422 93.5339 15.5703 93.3359 15.9766V22H91.8906V13.5469H93.2578Z" fill="url(#paint23_linear)"/>
<path d="M104.227 22.1562C103.081 22.1562 102.148 21.7812 101.43 21.0312C100.711 20.276 100.352 19.2682 100.352 18.0078V17.7422C100.352 16.9036 100.51 16.1562 100.828 15.5C101.151 14.8385 101.599 14.3229 102.172 13.9531C102.75 13.5781 103.375 13.3906 104.047 13.3906C105.146 13.3906 106 13.7526 106.609 14.4766C107.219 15.2005 107.523 16.237 107.523 17.5859V18.1875H101.797C101.818 19.0208 102.06 19.6953 102.523 20.2109C102.992 20.7214 103.586 20.9766 104.305 20.9766C104.815 20.9766 105.247 20.8724 105.602 20.6641C105.956 20.4557 106.266 20.1797 106.531 19.8359L107.414 20.5234C106.706 21.612 105.643 22.1562 104.227 22.1562ZM104.047 14.5781C103.464 14.5781 102.974 14.7917 102.578 15.2188C102.182 15.6406 101.938 16.2344 101.844 17H106.078V16.8906C106.036 16.1562 105.839 15.5885 105.484 15.1875C105.13 14.7812 104.651 14.5781 104.047 14.5781Z" fill="url(#paint24_linear)"/>
<path d="M110.773 22H109.328V13.5469H110.773V22ZM109.211 11.3047C109.211 11.0703 109.281 10.8724 109.422 10.7109C109.568 10.5495 109.781 10.4688 110.062 10.4688C110.344 10.4688 110.557 10.5495 110.703 10.7109C110.849 10.8724 110.922 11.0703 110.922 11.3047C110.922 11.5391 110.849 11.7344 110.703 11.8906C110.557 12.0469 110.344 12.125 110.062 12.125C109.781 12.125 109.568 12.0469 109.422 11.8906C109.281 11.7344 109.211 11.5391 109.211 11.3047Z" fill="url(#paint25_linear)"/>
<path d="M112.75 17.7031C112.75 16.3854 113.055 15.3385 113.664 14.5625C114.273 13.7812 115.081 13.3906 116.086 13.3906C117.117 13.3906 117.922 13.7552 118.5 14.4844L118.57 13.5469H119.891V21.7969C119.891 22.8906 119.565 23.7526 118.914 24.3828C118.268 25.013 117.398 25.3281 116.305 25.3281C115.695 25.3281 115.099 25.1979 114.516 24.9375C113.932 24.6771 113.487 24.3203 113.18 23.8672L113.93 23C114.549 23.7656 115.307 24.1484 116.203 24.1484C116.906 24.1484 117.453 23.9505 117.844 23.5547C118.24 23.1589 118.438 22.6016 118.438 21.8828V21.1562C117.859 21.8229 117.07 22.1562 116.07 22.1562C115.081 22.1562 114.279 21.7578 113.664 20.9609C113.055 20.1641 112.75 19.0781 112.75 17.7031ZM114.203 17.8672C114.203 18.8203 114.398 19.5703 114.789 20.1172C115.18 20.6589 115.727 20.9297 116.43 20.9297C117.341 20.9297 118.01 20.5156 118.438 19.6875V15.8281C117.995 15.0208 117.331 14.6172 116.445 14.6172C115.742 14.6172 115.193 14.8906 114.797 15.4375C114.401 15.9844 114.203 16.7943 114.203 17.8672Z" fill="url(#paint26_linear)"/>
<path d="M123.523 14.5703C124.164 13.7839 124.997 13.3906 126.023 13.3906C127.81 13.3906 128.711 14.3984 128.727 16.4141V22H127.281V16.4062C127.276 15.7969 127.135 15.3464 126.859 15.0547C126.589 14.763 126.164 14.6172 125.586 14.6172C125.117 14.6172 124.706 14.7422 124.352 14.9922C123.997 15.2422 123.721 15.5703 123.523 15.9766V22H122.078V10H123.523V14.5703Z" fill="url(#paint27_linear)"/>
<path d="M138.047 17.8672C138.047 19.1589 137.75 20.1979 137.156 20.9844C136.562 21.7656 135.766 22.1562 134.766 22.1562C133.698 22.1562 132.872 21.7786 132.289 21.0234L132.219 22H130.891V10H132.336V14.4766C132.919 13.7526 133.724 13.3906 134.75 13.3906C135.776 13.3906 136.581 13.7786 137.164 14.5547C137.753 15.3307 138.047 16.3932 138.047 17.7422V17.8672ZM136.602 17.7031C136.602 16.7188 136.411 15.9583 136.031 15.4219C135.651 14.8854 135.104 14.6172 134.391 14.6172C133.438 14.6172 132.753 15.0599 132.336 15.9453V19.6016C132.779 20.487 133.469 20.9297 134.406 20.9297C135.099 20.9297 135.638 20.6615 136.023 20.125C136.409 19.5885 136.602 18.7812 136.602 17.7031Z" fill="url(#paint28_linear)"/>
<path d="M139.492 17.6953C139.492 16.8672 139.654 16.1224 139.977 15.4609C140.305 14.7995 140.758 14.2891 141.336 13.9297C141.919 13.5703 142.583 13.3906 143.328 13.3906C144.479 13.3906 145.409 13.7891 146.117 14.5859C146.831 15.3828 147.188 16.4427 147.188 17.7656V17.8672C147.188 18.6901 147.029 19.4297 146.711 20.0859C146.398 20.737 145.948 21.2448 145.359 21.6094C144.776 21.974 144.104 22.1562 143.344 22.1562C142.198 22.1562 141.268 21.7578 140.555 20.9609C139.846 20.1641 139.492 19.1094 139.492 17.7969V17.6953ZM140.945 17.8672C140.945 18.8047 141.161 19.5573 141.594 20.125C142.031 20.6927 142.615 20.9766 143.344 20.9766C144.078 20.9766 144.661 20.6901 145.094 20.1172C145.526 19.5391 145.742 18.7318 145.742 17.6953C145.742 16.7682 145.521 16.0182 145.078 15.4453C144.641 14.8672 144.057 14.5781 143.328 14.5781C142.615 14.5781 142.039 14.862 141.602 15.4297C141.164 15.9974 140.945 16.8099 140.945 17.8672Z" fill="url(#paint29_linear)"/>
<path d="M154.219 21.1641C153.656 21.8255 152.831 22.1562 151.742 22.1562C150.841 22.1562 150.154 21.8958 149.68 21.375C149.211 20.849 148.974 20.0729 148.969 19.0469V13.5469H150.414V19.0078C150.414 20.2891 150.935 20.9297 151.977 20.9297C153.081 20.9297 153.815 20.5182 154.18 19.6953V13.5469H155.625V22H154.25L154.219 21.1641Z" fill="url(#paint30_linear)"/>
<path d="M161.914 14.8438C161.695 14.8073 161.458 14.7891 161.203 14.7891C160.255 14.7891 159.612 15.1927 159.273 16V22H157.828V13.5469H159.234L159.258 14.5234C159.732 13.7682 160.404 13.3906 161.273 13.3906C161.555 13.3906 161.768 13.4271 161.914 13.5V14.8438Z" fill="url(#paint31_linear)"/>
</g>
<defs>
<linearGradient id="paint0_linear" x1="40" y1="90" x2="176" y2="88.5" gradientUnits="userSpaceOnUse">
<stop/>
<stop offset="1" stop-opacity="0"/>
</linearGradient>
<linearGradient id="paint1_linear" x1="40" y1="90" x2="176" y2="88.5" gradientUnits="userSpaceOnUse">
<stop/>
<stop offset="1" stop-opacity="0"/>
</linearGradient>
<linearGradient id="paint2_linear" x1="40" y1="90" x2="176" y2="88.5" gradientUnits="userSpaceOnUse">
<stop/>
<stop offset="1" stop-opacity="0"/>
</linearGradient>
<linearGradient id="paint3_linear" x1="40" y1="90" x2="176" y2="88.5" gradientUnits="userSpaceOnUse">
<stop/>
<stop offset="1" stop-opacity="0"/>
</linearGradient>
<linearGradient id="paint4_linear" x1="40" y1="90" x2="176" y2="88.5" gradientUnits="userSpaceOnUse">
<stop/>
<stop offset="1" stop-opacity="0"/>
</linearGradient>
<linearGradient id="paint5_linear" x1="40" y1="90" x2="176" y2="88.5" gradientUnits="userSpaceOnUse">
<stop/>
<stop offset="1" stop-opacity="0"/>
</linearGradient>
<linearGradient id="paint6_linear" x1="40" y1="90" x2="176" y2="88.5" gradientUnits="userSpaceOnUse">
<stop/>
<stop offset="1" stop-opacity="0"/>
</linearGradient>
<linearGradient id="paint7_linear" x1="40" y1="90" x2="176" y2="88.5" gradientUnits="userSpaceOnUse">
<stop/>
<stop offset="1" stop-opacity="0"/>
</linearGradient>
<linearGradient id="paint8_linear" x1="40" y1="90" x2="176" y2="88.5" gradientUnits="userSpaceOnUse">
<stop/>
<stop offset="1" stop-opacity="0"/>
</linearGradient>
<linearGradient id="paint9_linear" x1="40" y1="90" x2="176" y2="88.5" gradientUnits="userSpaceOnUse">
<stop/>
<stop offset="1" stop-opacity="0"/>
</linearGradient>
<linearGradient id="paint10_linear" x1="40" y1="90" x2="176" y2="88.5" gradientUnits="userSpaceOnUse">
<stop/>
<stop offset="1" stop-opacity="0"/>
</linearGradient>
<linearGradient id="paint11_linear" x1="40" y1="90" x2="176" y2="88.5" gradientUnits="userSpaceOnUse">
<stop/>
<stop offset="1" stop-opacity="0"/>
</linearGradient>
<linearGradient id="paint12_linear" x1="40" y1="90" x2="176" y2="88.5" gradientUnits="userSpaceOnUse">
<stop/>
<stop offset="1" stop-opacity="0"/>
</linearGradient>
<linearGradient id="paint13_linear" x1="40" y1="90" x2="176" y2="88.5" gradientUnits="userSpaceOnUse">
<stop/>
<stop offset="1" stop-opacity="0"/>
</linearGradient>
<linearGradient id="paint14_linear" x1="40" y1="90" x2="176" y2="88.5" gradientUnits="userSpaceOnUse">
<stop/>
<stop offset="1" stop-opacity="0"/>
</linearGradient>
<linearGradient id="paint15_linear" x1="40" y1="90" x2="176" y2="88.5" gradientUnits="userSpaceOnUse">
<stop/>
<stop offset="1" stop-opacity="0"/>
</linearGradient>
<linearGradient id="paint16_linear" x1="32" y1="18" x2="168" y2="16.5" gradientUnits="userSpaceOnUse">
<stop/>
<stop offset="1" stop-opacity="0"/>
</linearGradient>
<linearGradient id="paint17_linear" x1="32" y1="18" x2="168" y2="16.5" gradientUnits="userSpaceOnUse">
<stop/>
<stop offset="1" stop-opacity="0"/>
</linearGradient>
<linearGradient id="paint18_linear" x1="32" y1="18" x2="168" y2="16.5" gradientUnits="userSpaceOnUse">
<stop/>
<stop offset="1" stop-opacity="0"/>
</linearGradient>
<linearGradient id="paint19_linear" x1="32" y1="18" x2="168" y2="16.5" gradientUnits="userSpaceOnUse">
<stop/>
<stop offset="1" stop-opacity="0"/>
</linearGradient>
<linearGradient id="paint20_linear" x1="32" y1="18" x2="168" y2="16.5" gradientUnits="userSpaceOnUse">
<stop/>
<stop offset="1" stop-opacity="0"/>
</linearGradient>
<linearGradient id="paint21_linear" x1="32" y1="18" x2="168" y2="16.5" gradientUnits="userSpaceOnUse">
<stop/>
<stop offset="1" stop-opacity="0"/>
</linearGradient>
<linearGradient id="paint22_linear" x1="32" y1="18" x2="168" y2="16.5" gradientUnits="userSpaceOnUse">
<stop/>
<stop offset="1" stop-opacity="0"/>
</linearGradient>
<linearGradient id="paint23_linear" x1="32" y1="18" x2="168" y2="16.5" gradientUnits="userSpaceOnUse">
<stop/>
<stop offset="1" stop-opacity="0"/>
</linearGradient>
<linearGradient id="paint24_linear" x1="32" y1="18" x2="168" y2="16.5" gradientUnits="userSpaceOnUse">
<stop/>
<stop offset="1" stop-opacity="0"/>
</linearGradient>
<linearGradient id="paint25_linear" x1="32" y1="18" x2="168" y2="16.5" gradientUnits="userSpaceOnUse">
<stop/>
<stop offset="1" stop-opacity="0"/>
</linearGradient>
<linearGradient id="paint26_linear" x1="32" y1="18" x2="168" y2="16.5" gradientUnits="userSpaceOnUse">
<stop/>
<stop offset="1" stop-opacity="0"/>
</linearGradient>
<linearGradient id="paint27_linear" x1="32" y1="18" x2="168" y2="16.5" gradientUnits="userSpaceOnUse">
<stop/>
<stop offset="1" stop-opacity="0"/>
</linearGradient>
<linearGradient id="paint28_linear" x1="32" y1="18" x2="168" y2="16.5" gradientUnits="userSpaceOnUse">
<stop/>
<stop offset="1" stop-opacity="0"/>
</linearGradient>
<linearGradient id="paint29_linear" x1="32" y1="18" x2="168" y2="16.5" gradientUnits="userSpaceOnUse">
<stop/>
<stop offset="1" stop-opacity="0"/>
</linearGradient>
<linearGradient id="paint30_linear" x1="32" y1="18" x2="168" y2="16.5" gradientUnits="userSpaceOnUse">
<stop/>
<stop offset="1" stop-opacity="0"/>
</linearGradient>
<linearGradient id="paint31_linear" x1="32" y1="18" x2="168" y2="16.5" gradientUnits="userSpaceOnUse">
<stop/>
<stop offset="1" stop-opacity="0"/>
</linearGradient>
</defs>
</svg>
