<svg width="960" height="626" viewBox="0 0 960 626" fill="none" xmlns="http://www.w3.org/2000/svg">
<line x1="8.05" y1="2.18557e-09" x2="8.04997" y2="626" stroke="#00D9FF" stroke-width="0.1"/>
<line x1="16.05" y1="2.18557e-09" x2="16.05" y2="626" stroke="#00D9FF" stroke-width="0.1"/>
<line x1="24.05" y1="2.18557e-09" x2="24.05" y2="626" stroke="#00D9FF" stroke-width="0.1"/>
<line x1="32.05" y1="2.18557e-09" x2="32.05" y2="626" stroke="#00D9FF" stroke-width="0.1"/>
<line x1="40.05" y1="2.18557e-09" x2="40.05" y2="626" stroke="#00D9FF" stroke-width="0.1"/>
<line x1="48.05" y1="2.18557e-09" x2="48.05" y2="626" stroke="#00D9FF" stroke-width="0.1"/>
<line x1="56.05" y1="2.18557e-09" x2="56.05" y2="626" stroke="#00D9FF" stroke-width="0.1"/>
<line x1="64.05" y1="2.18557e-09" x2="64.05" y2="626" stroke="#00D9FF" stroke-width="0.1"/>
<line x1="72.05" y1="2.18557e-09" x2="72.05" y2="626" stroke="#00D9FF" stroke-width="0.1"/>
<line x1="80.05" y1="2.18557e-09" x2="80.05" y2="626" stroke="#00D9FF" stroke-width="0.1"/>
<line x1="88.05" y1="2.18557e-09" x2="88.05" y2="626" stroke="#00D9FF" stroke-width="0.1"/>
<line x1="96.05" y1="2.18557e-09" x2="96.05" y2="626" stroke="#00D9FF" stroke-width="0.1"/>
<line x1="104.05" y1="2.18557e-09" x2="104.05" y2="626" stroke="#00D9FF" stroke-width="0.1"/>
<line x1="112.05" y1="2.18557e-09" x2="112.05" y2="626" stroke="#00D9FF" stroke-width="0.1"/>
<line x1="120.05" y1="2.18557e-09" x2="120.05" y2="626" stroke="#00D9FF" stroke-width="0.1"/>
<line x1="128.05" y1="2.18557e-09" x2="128.05" y2="626" stroke="#00D9FF" stroke-width="0.1"/>
<line x1="136.05" y1="2.18557e-09" x2="136.05" y2="626" stroke="#00D9FF" stroke-width="0.1"/>
<line x1="144.05" y1="2.18557e-09" x2="144.05" y2="626" stroke="#00D9FF" stroke-width="0.1"/>
<line x1="152.05" y1="2.18557e-09" x2="152.05" y2="626" stroke="#00D9FF" stroke-width="0.1"/>
<line x1="160.05" y1="2.18557e-09" x2="160.05" y2="626" stroke="#00D9FF" stroke-width="0.1"/>
<line x1="168.05" y1="2.18557e-09" x2="168.05" y2="626" stroke="#00D9FF" stroke-width="0.1"/>
<line x1="176.05" y1="2.18557e-09" x2="176.05" y2="626" stroke="#00D9FF" stroke-width="0.1"/>
<line x1="184.05" y1="2.18557e-09" x2="184.05" y2="626" stroke="#00D9FF" stroke-width="0.1"/>
<line x1="192.05" y1="2.18557e-09" x2="192.05" y2="626" stroke="#00D9FF" stroke-width="0.1"/>
<line x1="200.05" y1="2.18557e-09" x2="200.05" y2="626" stroke="#00D9FF" stroke-width="0.1"/>
<line x1="208.05" y1="2.18557e-09" x2="208.05" y2="626" stroke="#00D9FF" stroke-width="0.1"/>
<line x1="216.05" y1="2.18557e-09" x2="216.05" y2="626" stroke="#00D9FF" stroke-width="0.1"/>
<line x1="224.05" y1="2.18557e-09" x2="224.05" y2="626" stroke="#00D9FF" stroke-width="0.1"/>
<line x1="232.05" y1="2.18557e-09" x2="232.05" y2="626" stroke="#00D9FF" stroke-width="0.1"/>
<line x1="240.05" y1="2.18557e-09" x2="240.05" y2="626" stroke="#00D9FF" stroke-width="0.1"/>
<line x1="248.05" y1="2.18557e-09" x2="248.05" y2="626" stroke="#00D9FF" stroke-width="0.1"/>
<line x1="256.05" y1="2.18557e-09" x2="256.05" y2="626" stroke="#00D9FF" stroke-width="0.1"/>
<line x1="264.05" y1="2.18557e-09" x2="264.05" y2="626" stroke="#00D9FF" stroke-width="0.1"/>
<line x1="272.05" y1="2.18557e-09" x2="272.05" y2="626" stroke="#00D9FF" stroke-width="0.1"/>
<line x1="280.05" y1="2.18557e-09" x2="280.05" y2="626" stroke="#00D9FF" stroke-width="0.1"/>
<line x1="288.05" y1="2.18557e-09" x2="288.05" y2="626" stroke="#00D9FF" stroke-width="0.1"/>
<line x1="296.05" y1="2.18557e-09" x2="296.05" y2="626" stroke="#00D9FF" stroke-width="0.1"/>
<line x1="304.05" y1="2.18557e-09" x2="304.05" y2="626" stroke="#00D9FF" stroke-width="0.1"/>
<line x1="312.05" y1="2.18557e-09" x2="312.05" y2="626" stroke="#00D9FF" stroke-width="0.1"/>
<line x1="320.05" y1="2.18557e-09" x2="320.05" y2="626" stroke="#00D9FF" stroke-width="0.1"/>
<line x1="328.05" y1="2.18557e-09" x2="328.05" y2="626" stroke="#00D9FF" stroke-width="0.1"/>
<line x1="336.05" y1="2.18557e-09" x2="336.05" y2="626" stroke="#00D9FF" stroke-width="0.1"/>
<line x1="344.05" y1="2.18557e-09" x2="344.05" y2="626" stroke="#00D9FF" stroke-width="0.1"/>
<line x1="352.05" y1="2.18557e-09" x2="352.05" y2="626" stroke="#00D9FF" stroke-width="0.1"/>
<line x1="360.05" y1="2.18557e-09" x2="360.05" y2="626" stroke="#00D9FF" stroke-width="0.1"/>
<line x1="368.05" y1="2.18557e-09" x2="368.05" y2="626" stroke="#00D9FF" stroke-width="0.1"/>
<line x1="376.05" y1="2.18557e-09" x2="376.05" y2="626" stroke="#00D9FF" stroke-width="0.1"/>
<line x1="384.05" y1="2.18557e-09" x2="384.05" y2="626" stroke="#00D9FF" stroke-width="0.1"/>
<line x1="392.05" y1="2.18557e-09" x2="392.05" y2="626" stroke="#00D9FF" stroke-width="0.1"/>
<line x1="400.05" y1="2.18557e-09" x2="400.05" y2="626" stroke="#00D9FF" stroke-width="0.1"/>
<line x1="408.05" y1="2.18557e-09" x2="408.05" y2="626" stroke="#00D9FF" stroke-width="0.1"/>
<line x1="416.05" y1="2.18557e-09" x2="416.05" y2="626" stroke="#00D9FF" stroke-width="0.1"/>
<line x1="424.05" y1="2.18557e-09" x2="424.05" y2="626" stroke="#00D9FF" stroke-width="0.1"/>
<line x1="432.05" y1="2.18557e-09" x2="432.05" y2="626" stroke="#00D9FF" stroke-width="0.1"/>
<line x1="440.05" y1="2.18557e-09" x2="440.05" y2="626" stroke="#00D9FF" stroke-width="0.1"/>
<line x1="448.05" y1="2.18557e-09" x2="448.05" y2="626" stroke="#00D9FF" stroke-width="0.1"/>
<line x1="456.05" y1="2.18557e-09" x2="456.05" y2="626" stroke="#00D9FF" stroke-width="0.1"/>
<line x1="464.05" y1="2.18557e-09" x2="464.05" y2="626" stroke="#00D9FF" stroke-width="0.1"/>
<line x1="472.05" y1="2.18557e-09" x2="472.05" y2="626" stroke="#00D9FF" stroke-width="0.1"/>
<line x1="480.05" y1="2.18557e-09" x2="480.05" y2="626" stroke="#00D9FF" stroke-width="0.1"/>
<line x1="488.05" y1="2.18557e-09" x2="488.05" y2="626" stroke="#00D9FF" stroke-width="0.1"/>
<line x1="496.05" y1="2.18557e-09" x2="496.05" y2="626" stroke="#00D9FF" stroke-width="0.1"/>
<line x1="504.05" y1="2.18557e-09" x2="504.05" y2="626" stroke="#00D9FF" stroke-width="0.1"/>
<line x1="512.05" y1="2.18557e-09" x2="512.05" y2="626" stroke="#00D9FF" stroke-width="0.1"/>
<line x1="520.05" y1="2.18557e-09" x2="520.05" y2="626" stroke="#00D9FF" stroke-width="0.1"/>
<line x1="528.05" y1="2.18557e-09" x2="528.05" y2="626" stroke="#00D9FF" stroke-width="0.1"/>
<line x1="536.05" y1="2.18557e-09" x2="536.05" y2="626" stroke="#00D9FF" stroke-width="0.1"/>
<line x1="544.05" y1="2.18557e-09" x2="544.05" y2="626" stroke="#00D9FF" stroke-width="0.1"/>
<line x1="552.05" y1="2.18557e-09" x2="552.05" y2="626" stroke="#00D9FF" stroke-width="0.1"/>
<line x1="560.05" y1="2.18557e-09" x2="560.05" y2="626" stroke="#00D9FF" stroke-width="0.1"/>
<line x1="568.05" y1="2.18557e-09" x2="568.05" y2="626" stroke="#00D9FF" stroke-width="0.1"/>
<line x1="576.05" y1="2.18557e-09" x2="576.05" y2="626" stroke="#00D9FF" stroke-width="0.1"/>
<line x1="584.05" y1="2.18557e-09" x2="584.05" y2="626" stroke="#00D9FF" stroke-width="0.1"/>
<line x1="592.05" y1="2.18557e-09" x2="592.05" y2="626" stroke="#00D9FF" stroke-width="0.1"/>
<line x1="600.05" y1="2.18557e-09" x2="600.05" y2="626" stroke="#00D9FF" stroke-width="0.1"/>
<line x1="608.05" y1="2.18557e-09" x2="608.05" y2="626" stroke="#00D9FF" stroke-width="0.1"/>
<line x1="616.05" y1="2.18557e-09" x2="616.05" y2="626" stroke="#00D9FF" stroke-width="0.1"/>
<line x1="624.05" y1="2.18557e-09" x2="624.05" y2="626" stroke="#00D9FF" stroke-width="0.1"/>
<line x1="632.05" y1="2.18557e-09" x2="632.05" y2="626" stroke="#00D9FF" stroke-width="0.1"/>
<line x1="640.05" y1="2.18557e-09" x2="640.05" y2="626" stroke="#00D9FF" stroke-width="0.1"/>
<line x1="648.05" y1="2.18557e-09" x2="648.05" y2="626" stroke="#00D9FF" stroke-width="0.1"/>
<line x1="656.05" y1="2.18557e-09" x2="656.05" y2="626" stroke="#00D9FF" stroke-width="0.1"/>
<line x1="664.05" y1="2.18557e-09" x2="664.05" y2="626" stroke="#00D9FF" stroke-width="0.1"/>
<line x1="672.05" y1="2.18557e-09" x2="672.05" y2="626" stroke="#00D9FF" stroke-width="0.1"/>
<line x1="680.05" y1="2.18557e-09" x2="680.05" y2="626" stroke="#00D9FF" stroke-width="0.1"/>
<line x1="688.05" y1="2.18557e-09" x2="688.05" y2="626" stroke="#00D9FF" stroke-width="0.1"/>
<line x1="696.05" y1="2.18557e-09" x2="696.05" y2="626" stroke="#00D9FF" stroke-width="0.1"/>
<line x1="704.05" y1="2.18557e-09" x2="704.05" y2="626" stroke="#00D9FF" stroke-width="0.1"/>
<line x1="712.05" y1="2.18557e-09" x2="712.05" y2="626" stroke="#00D9FF" stroke-width="0.1"/>
<line x1="720.05" y1="2.18557e-09" x2="720.05" y2="626" stroke="#00D9FF" stroke-width="0.1"/>
<line x1="728.05" y1="2.18557e-09" x2="728.05" y2="626" stroke="#00D9FF" stroke-width="0.1"/>
<line x1="736.05" y1="2.18557e-09" x2="736.05" y2="626" stroke="#00D9FF" stroke-width="0.1"/>
<line x1="744.05" y1="2.18557e-09" x2="744.05" y2="626" stroke="#00D9FF" stroke-width="0.1"/>
<line x1="752.05" y1="2.18557e-09" x2="752.05" y2="626" stroke="#00D9FF" stroke-width="0.1"/>
<line x1="760.05" y1="2.18557e-09" x2="760.05" y2="626" stroke="#00D9FF" stroke-width="0.1"/>
<line x1="768.05" y1="2.18557e-09" x2="768.05" y2="626" stroke="#00D9FF" stroke-width="0.1"/>
<line x1="776.05" y1="2.18557e-09" x2="776.05" y2="626" stroke="#00D9FF" stroke-width="0.1"/>
<line x1="784.05" y1="2.18557e-09" x2="784.05" y2="626" stroke="#00D9FF" stroke-width="0.1"/>
<line x1="792.05" y1="2.18557e-09" x2="792.05" y2="626" stroke="#00D9FF" stroke-width="0.1"/>
<line x1="800.05" y1="2.18557e-09" x2="800.05" y2="626" stroke="#00D9FF" stroke-width="0.1"/>
<line x1="808.05" y1="2.18557e-09" x2="808.05" y2="626" stroke="#00D9FF" stroke-width="0.1"/>
<line x1="816.05" y1="2.18557e-09" x2="816.05" y2="626" stroke="#00D9FF" stroke-width="0.1"/>
<line x1="824.05" y1="2.18557e-09" x2="824.05" y2="626" stroke="#00D9FF" stroke-width="0.1"/>
<line x1="832.05" y1="2.18557e-09" x2="832.05" y2="626" stroke="#00D9FF" stroke-width="0.1"/>
<line x1="840.05" y1="2.18557e-09" x2="840.05" y2="626" stroke="#00D9FF" stroke-width="0.1"/>
<line x1="848.05" y1="2.18557e-09" x2="848.05" y2="626" stroke="#00D9FF" stroke-width="0.1"/>
<line x1="856.05" y1="2.18557e-09" x2="856.05" y2="626" stroke="#00D9FF" stroke-width="0.1"/>
<line x1="864.05" y1="2.18557e-09" x2="864.05" y2="626" stroke="#00D9FF" stroke-width="0.1"/>
<line x1="872.05" y1="2.18557e-09" x2="872.05" y2="626" stroke="#00D9FF" stroke-width="0.1"/>
<line x1="880.05" y1="2.18557e-09" x2="880.05" y2="626" stroke="#00D9FF" stroke-width="0.1"/>
<line x1="888.05" y1="2.18557e-09" x2="888.05" y2="626" stroke="#00D9FF" stroke-width="0.1"/>
<line x1="896.05" y1="2.18557e-09" x2="896.05" y2="626" stroke="#00D9FF" stroke-width="0.1"/>
<line x1="904.05" y1="2.18557e-09" x2="904.05" y2="626" stroke="#00D9FF" stroke-width="0.1"/>
<line x1="912.05" y1="2.18557e-09" x2="912.05" y2="626" stroke="#00D9FF" stroke-width="0.1"/>
<line x1="920.05" y1="2.18557e-09" x2="920.05" y2="626" stroke="#00D9FF" stroke-width="0.1"/>
<line x1="928.05" y1="2.18557e-09" x2="928.05" y2="626" stroke="#00D9FF" stroke-width="0.1"/>
<line x1="936.05" y1="2.18557e-09" x2="936.05" y2="626" stroke="#00D9FF" stroke-width="0.1"/>
<line x1="944.05" y1="2.18557e-09" x2="944.05" y2="626" stroke="#00D9FF" stroke-width="0.1"/>
<line x1="952.05" y1="2.18557e-09" x2="952.05" y2="626" stroke="#00D9FF" stroke-width="0.1"/>
<line y1="7.95" x2="960" y2="7.95" stroke="#00D9FF" stroke-width="0.1"/>
<line y1="15.95" x2="960" y2="15.95" stroke="#00D9FF" stroke-width="0.1"/>
<line y1="23.95" x2="960" y2="23.95" stroke="#00D9FF" stroke-width="0.1"/>
<line y1="31.95" x2="960" y2="31.95" stroke="#00D9FF" stroke-width="0.1"/>
<line y1="39.95" x2="960" y2="39.95" stroke="#00D9FF" stroke-width="0.1"/>
<line y1="47.95" x2="960" y2="47.95" stroke="#00D9FF" stroke-width="0.1"/>
<line y1="55.95" x2="960" y2="55.95" stroke="#00D9FF" stroke-width="0.1"/>
<line y1="63.95" x2="960" y2="63.95" stroke="#00D9FF" stroke-width="0.1"/>
<line y1="71.95" x2="960" y2="71.95" stroke="#00D9FF" stroke-width="0.1"/>
<line y1="79.95" x2="960" y2="79.95" stroke="#00D9FF" stroke-width="0.1"/>
<line y1="87.95" x2="960" y2="87.95" stroke="#00D9FF" stroke-width="0.1"/>
<line y1="95.95" x2="960" y2="95.95" stroke="#00D9FF" stroke-width="0.1"/>
<line y1="103.95" x2="960" y2="103.95" stroke="#00D9FF" stroke-width="0.1"/>
<line y1="111.95" x2="960" y2="111.95" stroke="#00D9FF" stroke-width="0.1"/>
<line y1="119.95" x2="960" y2="119.95" stroke="#00D9FF" stroke-width="0.1"/>
<line y1="127.95" x2="960" y2="127.95" stroke="#00D9FF" stroke-width="0.1"/>
<line y1="135.95" x2="960" y2="135.95" stroke="#00D9FF" stroke-width="0.1"/>
<line y1="143.95" x2="960" y2="143.95" stroke="#00D9FF" stroke-width="0.1"/>
<line y1="151.95" x2="960" y2="151.95" stroke="#00D9FF" stroke-width="0.1"/>
<line y1="159.95" x2="960" y2="159.95" stroke="#00D9FF" stroke-width="0.1"/>
<line y1="167.95" x2="960" y2="167.95" stroke="#00D9FF" stroke-width="0.1"/>
<line y1="175.95" x2="960" y2="175.95" stroke="#00D9FF" stroke-width="0.1"/>
<line y1="183.95" x2="960" y2="183.95" stroke="#00D9FF" stroke-width="0.1"/>
<line y1="191.95" x2="960" y2="191.95" stroke="#00D9FF" stroke-width="0.1"/>
<line y1="199.95" x2="960" y2="199.95" stroke="#00D9FF" stroke-width="0.1"/>
<line y1="207.95" x2="960" y2="207.95" stroke="#00D9FF" stroke-width="0.1"/>
<line y1="215.95" x2="960" y2="215.95" stroke="#00D9FF" stroke-width="0.1"/>
<line y1="223.95" x2="960" y2="223.95" stroke="#00D9FF" stroke-width="0.1"/>
<line y1="231.95" x2="960" y2="231.95" stroke="#00D9FF" stroke-width="0.1"/>
<line y1="239.95" x2="960" y2="239.95" stroke="#00D9FF" stroke-width="0.1"/>
<line y1="247.95" x2="960" y2="247.95" stroke="#00D9FF" stroke-width="0.1"/>
<line y1="255.95" x2="960" y2="255.95" stroke="#00D9FF" stroke-width="0.1"/>
<line y1="263.95" x2="960" y2="263.95" stroke="#00D9FF" stroke-width="0.1"/>
<line y1="271.95" x2="960" y2="271.95" stroke="#00D9FF" stroke-width="0.1"/>
<line y1="279.95" x2="960" y2="279.95" stroke="#00D9FF" stroke-width="0.1"/>
<line y1="287.95" x2="960" y2="287.95" stroke="#00D9FF" stroke-width="0.1"/>
<line y1="295.95" x2="960" y2="295.95" stroke="#00D9FF" stroke-width="0.1"/>
<line y1="303.95" x2="960" y2="303.95" stroke="#00D9FF" stroke-width="0.1"/>
<line y1="311.95" x2="960" y2="311.95" stroke="#00D9FF" stroke-width="0.1"/>
<line y1="319.95" x2="960" y2="319.95" stroke="#00D9FF" stroke-width="0.1"/>
<line y1="327.95" x2="960" y2="327.95" stroke="#00D9FF" stroke-width="0.1"/>
<line y1="335.95" x2="960" y2="335.95" stroke="#00D9FF" stroke-width="0.1"/>
<line y1="343.95" x2="960" y2="343.95" stroke="#00D9FF" stroke-width="0.1"/>
<line y1="351.95" x2="960" y2="351.95" stroke="#00D9FF" stroke-width="0.1"/>
<line y1="359.95" x2="960" y2="359.95" stroke="#00D9FF" stroke-width="0.1"/>
<line y1="367.95" x2="960" y2="367.95" stroke="#00D9FF" stroke-width="0.1"/>
<line y1="375.95" x2="960" y2="375.95" stroke="#00D9FF" stroke-width="0.1"/>
<line y1="383.95" x2="960" y2="383.95" stroke="#00D9FF" stroke-width="0.1"/>
<line y1="391.95" x2="960" y2="391.95" stroke="#00D9FF" stroke-width="0.1"/>
<line y1="399.95" x2="960" y2="399.95" stroke="#00D9FF" stroke-width="0.1"/>
<line y1="407.95" x2="960" y2="407.95" stroke="#00D9FF" stroke-width="0.1"/>
<line y1="415.95" x2="960" y2="415.95" stroke="#00D9FF" stroke-width="0.1"/>
<line y1="423.95" x2="960" y2="423.95" stroke="#00D9FF" stroke-width="0.1"/>
<line y1="431.95" x2="960" y2="431.95" stroke="#00D9FF" stroke-width="0.1"/>
<line y1="439.95" x2="960" y2="439.95" stroke="#00D9FF" stroke-width="0.1"/>
<line y1="447.95" x2="960" y2="447.95" stroke="#00D9FF" stroke-width="0.1"/>
<line y1="455.95" x2="960" y2="455.95" stroke="#00D9FF" stroke-width="0.1"/>
<line y1="463.95" x2="960" y2="463.95" stroke="#00D9FF" stroke-width="0.1"/>
<line y1="471.95" x2="960" y2="471.95" stroke="#00D9FF" stroke-width="0.1"/>
<line y1="479.95" x2="960" y2="479.95" stroke="#00D9FF" stroke-width="0.1"/>
<line y1="487.95" x2="960" y2="487.95" stroke="#00D9FF" stroke-width="0.1"/>
<line y1="495.95" x2="960" y2="495.95" stroke="#00D9FF" stroke-width="0.1"/>
<line y1="503.95" x2="960" y2="503.95" stroke="#00D9FF" stroke-width="0.1"/>
<line y1="511.95" x2="960" y2="511.95" stroke="#00D9FF" stroke-width="0.1"/>
<line y1="519.95" x2="960" y2="519.95" stroke="#00D9FF" stroke-width="0.1"/>
<line y1="527.95" x2="960" y2="527.95" stroke="#00D9FF" stroke-width="0.1"/>
<line y1="535.95" x2="960" y2="535.95" stroke="#00D9FF" stroke-width="0.1"/>
<line y1="543.95" x2="960" y2="543.95" stroke="#00D9FF" stroke-width="0.1"/>
<line y1="551.95" x2="960" y2="551.95" stroke="#00D9FF" stroke-width="0.1"/>
<line y1="559.95" x2="960" y2="559.95" stroke="#00D9FF" stroke-width="0.1"/>
<line y1="567.95" x2="960" y2="567.95" stroke="#00D9FF" stroke-width="0.1"/>
<line y1="575.95" x2="960" y2="575.95" stroke="#00D9FF" stroke-width="0.1"/>
<line y1="583.95" x2="960" y2="583.95" stroke="#00D9FF" stroke-width="0.1"/>
<line y1="591.95" x2="960" y2="591.95" stroke="#00D9FF" stroke-width="0.1"/>
<line y1="599.95" x2="960" y2="599.95" stroke="#00D9FF" stroke-width="0.1"/>
<line y1="607.95" x2="960" y2="607.95" stroke="#00D9FF" stroke-width="0.1"/>
<line y1="615.95" x2="960" y2="615.95" stroke="#00D9FF" stroke-width="0.1"/>
<line y1="623.95" x2="960" y2="623.95" stroke="#00D9FF" stroke-width="0.1"/>
<rect x="88.5" y="264.5" width="159" height="31" rx="15.5" fill="white" stroke="#008484"/>
<path d="M110.768 274.904V273.816H103.92V274.936H109.52L104.704 284.856L105.824 285.256L110.768 274.904ZM118.928 285.128V284.024H113.248C115.872 281.624 118.224 279.32 118.224 276.872C118.224 275.4 117.696 273.688 114.976 273.688C113.392 273.688 112.48 274.248 112 274.568L112.496 275.48C112.768 275.32 113.584 274.808 114.864 274.808C116.192 274.808 116.944 275.32 116.944 277.016C116.944 279.48 112 283.688 111.616 284.088V285.128H118.928ZM128.947 279.304C128.947 276.52 128.291 273.72 125.059 273.72C121.779 273.72 120.819 276.552 120.819 279.656C120.819 282.776 121.747 285.272 124.787 285.272C127.795 285.272 128.947 282.856 128.947 279.304ZM127.635 279.4C127.635 281.688 127.315 284.184 124.867 284.184C122.643 284.184 122.131 281.88 122.131 279.592C122.131 277.48 122.451 274.792 124.963 274.792C127.331 274.792 127.635 277.416 127.635 279.4ZM143.728 279.304C143.728 276.52 143.072 273.72 139.84 273.72C136.56 273.72 135.6 276.552 135.6 279.656C135.6 282.776 136.528 285.272 139.568 285.272C142.576 285.272 143.728 282.856 143.728 279.304ZM142.416 279.4C142.416 281.688 142.096 284.184 139.648 284.184C137.424 284.184 136.912 281.88 136.912 279.592C136.912 277.48 137.232 274.792 139.744 274.792C142.112 274.792 142.416 277.416 142.416 279.4ZM154.338 279.304C154.338 276.52 153.682 273.72 150.45 273.72C147.17 273.72 146.21 276.552 146.21 279.656C146.21 282.776 147.138 285.272 150.178 285.272C153.186 285.272 154.338 282.856 154.338 279.304ZM153.026 279.4C153.026 281.688 152.706 284.184 150.258 284.184C148.034 284.184 147.522 281.88 147.522 279.592C147.522 277.48 147.842 274.792 150.354 274.792C152.722 274.792 153.026 277.416 153.026 279.4ZM164.947 279.304C164.947 276.52 164.291 273.72 161.059 273.72C157.779 273.72 156.819 276.552 156.819 279.656C156.819 282.776 157.747 285.272 160.787 285.272C163.795 285.272 164.947 282.856 164.947 279.304ZM163.635 279.4C163.635 281.688 163.315 284.184 160.867 284.184C158.643 284.184 158.131 281.88 158.131 279.592C158.131 277.48 158.451 274.792 160.963 274.792C163.331 274.792 163.635 277.416 163.635 279.4Z" fill="#14555A"/>
<path d="M88.696 256H92.264C95.176 256 96.264 254.656 96.264 252.784C96.264 251.104 95.064 250.256 93.88 250.048V250C94.824 249.664 95.448 248.752 95.448 247.536C95.448 245.888 94.344 244.688 91.784 244.688H88.696V256ZM90.008 254.912V250.72H91.784C93.704 250.72 94.92 251.296 94.92 252.832C94.92 254.56 93.592 254.912 92.024 254.912H90.008ZM90.008 249.664V245.712H91.448C93.144 245.712 94.104 246.208 94.104 247.744C94.104 248.976 93.4 249.664 91.96 249.664H90.008ZM98.5159 256H99.7799V249.568C100.196 248.928 100.996 248.176 102.052 248.176C102.564 248.176 102.82 248.224 103.092 248.288L103.3 247.216C103.14 247.168 102.788 247.072 102.276 247.072C101.044 247.072 100.18 247.776 99.7799 248.432V247.264H98.5159V256ZM107.215 256.192C108.687 256.192 109.551 255.568 110.383 254.976V256H111.599V247.264H110.383V253.952C109.711 254.432 108.687 255.04 107.567 255.04C105.999 255.04 105.887 253.952 105.887 252.576V247.264H104.639V252.832C104.639 254.304 104.815 256.192 107.215 256.192ZM117.258 256.192C117.85 256.192 118.666 256.032 119.114 255.872L118.89 254.832C118.522 254.96 117.898 255.088 117.418 255.088C116.41 255.088 115.85 254.752 115.85 253.52V248.336H118.57V247.264H115.834V245.472H114.602V247.264H113.322V248.336H114.602V253.568C114.602 255.632 115.626 256.192 117.258 256.192ZM123.633 256.192C124.225 256.192 125.041 256.032 125.489 255.872L125.265 254.832C124.897 254.96 124.273 255.088 123.793 255.088C122.785 255.088 122.225 254.752 122.225 253.52V248.336H124.945V247.264H122.209V245.472H120.977V247.264H119.697V248.336H120.977V253.568C120.977 255.632 122.001 256.192 123.633 256.192ZM130.424 256.192C132.712 256.192 134.408 254.736 134.408 251.584C134.408 248.704 133.08 247.04 130.6 247.04C128.168 247.04 126.536 248.704 126.536 251.728C126.536 254.592 128.024 256.192 130.424 256.192ZM130.504 255.152C128.456 255.152 127.816 253.456 127.816 251.664C127.816 250 128.36 248.08 130.504 248.08C132.648 248.08 133.128 250.016 133.128 251.664C133.128 253.376 132.616 255.152 130.504 255.152ZM136.594 256H137.874V247.264H136.594V256ZM137.218 245.632L138.29 244.56L137.218 243.504L136.178 244.56L137.218 245.632ZM140.578 256H141.842V249.232C142.626 248.688 143.522 248.16 144.642 248.16C146.13 248.16 146.37 249.104 146.37 250.608V256H147.602V250.368C147.602 248.896 147.442 247.04 144.962 247.04C143.602 247.04 142.754 247.584 141.842 248.256V247.264H140.578V256ZM150.203 256H151.467V249.232C152.251 248.688 153.147 248.16 154.267 248.16C155.755 248.16 155.995 249.104 155.995 250.608V256H157.227V250.368C157.227 248.896 157.067 247.04 154.587 247.04C153.227 247.04 152.379 247.584 151.467 248.256V247.264H150.203V256ZM162.804 256.192C163.396 256.192 164.212 256.032 164.66 255.872L164.436 254.832C164.068 254.96 163.444 255.088 162.964 255.088C161.956 255.088 161.396 254.752 161.396 253.52V248.336H164.116V247.264H161.38V245.472H160.148V247.264H158.868V248.336H160.148V253.568C160.148 255.632 161.172 256.192 162.804 256.192ZM169.867 256.192C170.971 256.192 171.963 256 172.619 255.728L172.395 254.704C171.579 254.96 170.923 255.104 170.075 255.104C168.411 255.104 167.035 254.576 167.003 251.872H172.763V251.408C172.763 248.496 171.755 247.04 169.531 247.04C167.403 247.04 165.723 248.4 165.723 251.808C165.723 255.136 167.323 256.192 169.867 256.192ZM167.019 250.928C167.163 248.976 168.139 248.032 169.403 248.032C170.827 248.032 171.451 249.152 171.451 250.928H167.019ZM181.642 256.128L181.914 255.184C181.37 255.04 180.57 254.528 179.77 253.552L177.978 251.344L181.69 247.264H180.234L176.554 251.392L179.018 254.512C180.138 255.92 181.05 256.096 181.642 256.128ZM174.938 256H176.202V243.936H174.938V256ZM186.508 256.192C187.1 256.192 187.916 256.032 188.364 255.872L188.14 254.832C187.772 254.96 187.148 255.088 186.668 255.088C185.66 255.088 185.1 254.752 185.1 253.52V248.336H187.82V247.264H185.084V245.472H183.852V247.264H182.572V248.336H183.852V253.568C183.852 255.632 184.876 256.192 186.508 256.192ZM190.147 256H191.667V254.496H190.147V256ZM190.147 248.768H191.667V247.264H190.147V248.768Z" fill="#333333"/>
<rect x="248" y="240" width="16" height="71.8719" fill="#00D9FF" fill-opacity="0.25"/>
<rect x="72" y="240" width="16" height="71.8719" fill="#00D9FF" fill-opacity="0.25"/>
<rect x="72" y="296" width="192" height="16" fill="#DB00FF" fill-opacity="0.25"/>
<path d="M88.4304 165H91.9984C94.9104 165 95.9984 163.656 95.9984 161.784C95.9984 160.104 94.7984 159.256 93.6144 159.048V159C94.5584 158.664 95.1824 157.752 95.1824 156.536C95.1824 154.888 94.0784 153.688 91.5184 153.688H88.4304V165ZM89.7424 163.912V159.72H91.5184C93.4384 159.72 94.6544 160.296 94.6544 161.832C94.6544 163.56 93.3264 163.912 91.7584 163.912H89.7424ZM89.7424 158.664V154.712H91.1824C92.8784 154.712 93.8384 155.208 93.8384 156.744C93.8384 157.976 93.1344 158.664 91.6944 158.664H89.7424ZM98.2503 165H99.5143V158.568C99.9303 157.928 100.73 157.176 101.786 157.176C102.298 157.176 102.554 157.224 102.826 157.288L103.034 156.216C102.874 156.168 102.522 156.072 102.01 156.072C100.778 156.072 99.9143 156.776 99.5143 157.432V156.264H98.2503V165ZM106.95 165.192C108.422 165.192 109.286 164.568 110.118 163.976V165H111.334V156.264H110.118V162.952C109.446 163.432 108.422 164.04 107.302 164.04C105.734 164.04 105.622 162.952 105.622 161.576V156.264H104.374V161.832C104.374 163.304 104.55 165.192 106.95 165.192ZM116.992 165.192C117.584 165.192 118.4 165.032 118.848 164.872L118.624 163.832C118.256 163.96 117.632 164.088 117.152 164.088C116.144 164.088 115.584 163.752 115.584 162.52V157.336H118.304V156.264H115.568V154.472H114.336V156.264H113.056V157.336H114.336V162.568C114.336 164.632 115.36 165.192 116.992 165.192ZM123.367 165.192C123.959 165.192 124.775 165.032 125.223 164.872L124.999 163.832C124.631 163.96 124.007 164.088 123.527 164.088C122.519 164.088 121.959 163.752 121.959 162.52V157.336H124.679V156.264H121.943V154.472H120.711V156.264H119.431V157.336H120.711V162.568C120.711 164.632 121.735 165.192 123.367 165.192ZM130.158 165.192C132.446 165.192 134.142 163.736 134.142 160.584C134.142 157.704 132.814 156.04 130.334 156.04C127.902 156.04 126.27 157.704 126.27 160.728C126.27 163.592 127.758 165.192 130.158 165.192ZM130.238 164.152C128.19 164.152 127.55 162.456 127.55 160.664C127.55 159 128.094 157.08 130.238 157.08C132.382 157.08 132.862 159.016 132.862 160.664C132.862 162.376 132.35 164.152 130.238 164.152ZM136.328 165H137.608V156.264H136.328V165ZM136.952 154.632L138.024 153.56L136.952 152.504L135.912 153.56L136.952 154.632ZM140.313 165H141.577V158.232C142.361 157.688 143.257 157.16 144.377 157.16C145.865 157.16 146.105 158.104 146.105 159.608V165H147.337V159.368C147.337 157.896 147.177 156.04 144.697 156.04C143.337 156.04 142.489 156.584 141.577 157.256V156.264H140.313V165ZM149.938 165H151.202V158.232C151.986 157.688 152.882 157.16 154.002 157.16C155.49 157.16 155.73 158.104 155.73 159.608V165H156.962V159.368C156.962 157.896 156.802 156.04 154.322 156.04C152.962 156.04 152.114 156.584 151.202 157.256V156.264H149.938V165ZM162.539 165.192C163.131 165.192 163.947 165.032 164.395 164.872L164.171 163.832C163.803 163.96 163.179 164.088 162.699 164.088C161.691 164.088 161.131 163.752 161.131 162.52V157.336H163.851V156.264H161.115V154.472H159.883V156.264H158.603V157.336H159.883V162.568C159.883 164.632 160.907 165.192 162.539 165.192ZM169.602 165.192C170.706 165.192 171.698 165 172.354 164.728L172.13 163.704C171.314 163.96 170.658 164.104 169.81 164.104C168.146 164.104 166.77 163.576 166.738 160.872H172.498V160.408C172.498 157.496 171.49 156.04 169.266 156.04C167.138 156.04 165.458 157.4 165.458 160.808C165.458 164.136 167.058 165.192 169.602 165.192ZM166.754 159.928C166.898 157.976 167.874 157.032 169.138 157.032C170.562 157.032 171.186 158.152 171.186 159.928H166.754ZM181.376 165.128L181.648 164.184C181.104 164.04 180.304 163.528 179.504 162.552L177.712 160.344L181.424 156.264H179.968L176.288 160.392L178.752 163.512C179.872 164.92 180.784 165.096 181.376 165.128ZM174.672 165H175.936V152.936H174.672V165ZM186.242 165.192C186.834 165.192 187.65 165.032 188.098 164.872L187.874 163.832C187.506 163.96 186.882 164.088 186.402 164.088C185.394 164.088 184.834 163.752 184.834 162.52V157.336H187.554V156.264H184.818V154.472H183.586V156.264H182.306V157.336H183.586V162.568C183.586 164.632 184.61 165.192 186.242 165.192ZM189.881 165H191.401V163.496H189.881V165ZM189.881 157.768H191.401V156.264H189.881V157.768Z" fill="#333333"/>
<rect x="208.5" y="144.5" width="159" height="31" rx="15.5" fill="white" stroke="#008484"/>
<path d="M230.768 155.904V154.816H223.92V155.936H229.52L224.704 165.856L225.824 166.256L230.768 155.904ZM238.928 166.128V165.024H233.248C235.872 162.624 238.224 160.32 238.224 157.872C238.224 156.4 237.696 154.688 234.976 154.688C233.392 154.688 232.48 155.248 232 155.568L232.496 156.48C232.768 156.32 233.584 155.808 234.864 155.808C236.192 155.808 236.944 156.32 236.944 158.016C236.944 160.48 232 164.688 231.616 165.088V166.128H238.928ZM248.947 160.304C248.947 157.52 248.291 154.72 245.059 154.72C241.779 154.72 240.819 157.552 240.819 160.656C240.819 163.776 241.747 166.272 244.787 166.272C247.795 166.272 248.947 163.856 248.947 160.304ZM247.635 160.4C247.635 162.688 247.315 165.184 244.867 165.184C242.643 165.184 242.131 162.88 242.131 160.592C242.131 158.48 242.451 155.792 244.963 155.792C247.331 155.792 247.635 158.416 247.635 160.4ZM263.728 160.304C263.728 157.52 263.072 154.72 259.84 154.72C256.56 154.72 255.6 157.552 255.6 160.656C255.6 163.776 256.528 166.272 259.568 166.272C262.576 166.272 263.728 163.856 263.728 160.304ZM262.416 160.4C262.416 162.688 262.096 165.184 259.648 165.184C257.424 165.184 256.912 162.88 256.912 160.592C256.912 158.48 257.232 155.792 259.744 155.792C262.112 155.792 262.416 158.416 262.416 160.4ZM274.338 160.304C274.338 157.52 273.682 154.72 270.45 154.72C267.17 154.72 266.21 157.552 266.21 160.656C266.21 163.776 267.138 166.272 270.178 166.272C273.186 166.272 274.338 163.856 274.338 160.304ZM273.026 160.4C273.026 162.688 272.706 165.184 270.258 165.184C268.034 165.184 267.522 162.88 267.522 160.592C267.522 158.48 267.842 155.792 270.354 155.792C272.722 155.792 273.026 158.416 273.026 160.4ZM284.947 160.304C284.947 157.52 284.291 154.72 281.059 154.72C277.779 154.72 276.819 157.552 276.819 160.656C276.819 163.776 277.747 166.272 280.787 166.272C283.795 166.272 284.947 163.856 284.947 160.304ZM283.635 160.4C283.635 162.688 283.315 165.184 280.867 165.184C278.643 165.184 278.131 162.88 278.131 160.592C278.131 158.48 278.451 155.792 280.963 155.792C283.331 155.792 283.635 158.416 283.635 160.4Z" fill="#14555A"/>
<rect x="368" y="144" width="16" height="48.1279" fill="#00D9FF" fill-opacity="0.25"/>
<rect x="72" y="144" width="16" height="48.1279" fill="#00D9FF" fill-opacity="0.25"/>
<rect x="72" y="176.128" width="312" height="16" fill="#DB00FF" fill-opacity="0.25"/>
<rect x="192.225" y="144" width="16" height="47.888" fill="#00D9FF" fill-opacity="0.25"/>
</svg>
