<svg fill="none" height="192" viewBox="0 0 328 192" width="328" xmlns="http://www.w3.org/2000/svg"><g fill-opacity=".25"><path d="m184 108h16v76h-16zm-176 0h16v76h-16z" fill="#00d9ff"/><path d="m8 168h192v16h-192z" fill="#db00ff"/><path d="m310 16h16v48.13h-16zm-302 0h16v48.13h-16z" fill="#00d9ff"/><path d="m8 48h318v16h-318z" fill="#db00ff"/><path d="m134.22 0h16v47.89h-16zm-2.22 108h16v28h-16z" fill="#00d9ff"/></g><rect fill="#fff" height="31" rx="15.5" stroke="#007272" width="159" x="150.5" y="16.5"/><path d="m167.46 25.4v1.3h6.14l-5.08 11.3h1.76l5.06-11.61v-.99zm12.62 11.3 2.32-2.37c1.8-1.86 3.44-3.42 3.44-5.42 0-2.16-1.62-3.65-4-3.65-2.12 0-3.55 1.08-3.9 2.95l1.33.5c.32-1.44 1.19-2.14 2.57-2.14 1.5 0 2.45.9 2.45 2.34 0 1.37-.74 2.23-2.94 4.46l-3.52 3.6v1.03h8.02v-1.3zm12.55 1.44c2.87 0 4.4-2.26 4.4-6.44s-1.53-6.44-4.4-6.44c-2.86 0-4.39 2.26-4.39 6.44s1.53 6.44 4.4 6.44zm0-1.36c-1.87 0-2.82-1.71-2.82-5.08s.95-5.08 2.82-5.08c1.88 0 2.83 1.71 2.83 5.08s-.95 5.08-2.83 5.08zm14.95 1.36c2.86 0 4.39-2.26 4.39-6.44s-1.53-6.44-4.4-6.44c-2.86 0-4.39 2.26-4.39 6.44s1.53 6.44 4.4 6.44zm0-1.36c-1.88 0-2.83-1.71-2.83-5.08s.95-5.08 2.83-5.08c1.87 0 2.82 1.71 2.82 5.08s-.95 5.08-2.82 5.08zm10.79 1.36c2.86 0 4.4-2.26 4.4-6.44s-1.54-6.44-4.4-6.44-4.4 2.26-4.4 6.44 1.54 6.44 4.4 6.44zm0-1.36c-1.87 0-2.83-1.71-2.83-5.08s.96-5.08 2.83-5.08 2.82 1.71 2.82 5.08-.95 5.08-2.82 5.08zm10.8 1.36c2.85 0 4.38-2.26 4.38-6.44s-1.53-6.44-4.39-6.44-4.39 2.26-4.39 6.44 1.53 6.44 4.4 6.44zm0-1.36c-1.88 0-2.83-1.71-2.83-5.08s.95-5.08 2.82-5.08 2.83 1.71 2.83 5.08-.96 5.08-2.83 5.08z" fill="#14555a"/><path d="m31.79 31.32c1.08-.47 1.7-1.38 1.7-2.7 0-1.98-1.43-3.22-3.68-3.22h-4.34v12.6h4.99c2.23 0 3.81-1.44 3.81-3.5 0-1.58-1-2.8-2.48-3.18zm-2.4-4.6c1.55 0 2.45.73 2.45 2.03s-.88 2.03-2.44 2.03h-2.3v-4.07h2.3zm.53 9.91h-2.83v-4.53h2.8c1.83 0 2.73.77 2.73 2.28 0 1.44-1 2.25-2.7 2.25zm10.42-7.77a2.7 2.7 0 0 0 -2.58 1.67v-1.53h-1.38v9h1.56v-5.22c0-1.71 1.01-2.54 2.34-2.54.35 0 .6.02.81.06v-1.35c-.14-.06-.4-.1-.75-.1zm8.08.14v5.2c0 1.62-.92 2.67-2.34 2.67-1.35 0-2.1-.8-2.1-2.22v-5.65h-1.56v5.72c0 2.15 1.2 3.42 3.2 3.42 1.38 0 2.46-.6 3-1.65v1.51h1.36v-9zm7.49 7.85c-.92 0-1.39-.43-1.39-1.3v-5.25h2.3v-1.3h-2.3v-2.8h-1.56v2.8h-1.53v1.3h1.53v5.29c0 1.64.97 2.55 2.68 2.55.52 0 1.02-.07 1.31-.18v-1.26c-.25.1-.63.15-1.04.15zm6.52 0c-.92 0-1.39-.43-1.39-1.3v-5.25h2.3v-1.3h-2.3v-2.8h-1.56v2.8h-1.53v1.3h1.53v5.29c0 1.64.97 2.55 2.68 2.55.52 0 1.03-.07 1.31-.18v-1.26c-.25.1-.63.15-1.04.15zm6.8 1.3c2.55 0 4.44-1.86 4.44-4.65s-1.9-4.64-4.43-4.64c-2.54 0-4.43 1.85-4.43 4.64s1.9 4.64 4.43 4.64zm0-1.3c-1.65 0-2.85-1.33-2.85-3.35s1.2-3.35 2.86-3.35 2.86 1.33 2.86 3.35-1.2 3.35-2.86 3.35zm7.32-9.18c.58 0 1.05-.49 1.05-1.06 0-.58-.47-1.05-1.05-1.05-.57 0-1.06.47-1.06 1.05 0 .57.49 1.06 1.06 1.06zm-.79 10.33h1.57v-9h-1.57zm8.4-9.14c-1.36 0-2.44.6-2.98 1.63v-1.49h-1.38v9h1.56v-5.2c0-1.62.92-2.67 2.36-2.67 1.33 0 2.07.8 2.07 2.22v5.65h1.57v-5.72c0-2.15-1.2-3.42-3.2-3.42zm9.6 0c-1.34 0-2.42.6-2.96 1.63v-1.49h-1.4v9h1.57v-5.2c0-1.62.92-2.67 2.36-2.67 1.33 0 2.07.8 2.07 2.22v5.65h1.56v-5.72c0-2.15-1.19-3.42-3.2-3.42zm9.03 7.99c-.92 0-1.39-.43-1.39-1.3v-5.25h2.3v-1.3h-2.3v-2.8h-1.56v2.8h-1.54v1.3h1.53v5.29c0 1.64.97 2.55 2.68 2.55.52 0 1.03-.07 1.31-.18v-1.26c-.25.1-.63.15-1.04.15zm10.88-3.24c0-2.88-1.62-4.75-4.2-4.75-2.57 0-4.3 1.89-4.3 4.64 0 2.74 1.8 4.64 4.5 4.64 1.7 0 3-.68 3.7-1.92l-1.1-.76a2.78 2.78 0 0 1 -2.58 1.42c-1.53 0-2.86-.95-2.99-2.95h6.95c.02-.05.02-.25.02-.32zm-4.2-3.48c1.53 0 2.49 1 2.69 2.67h-5.42c.2-1.73 1.26-2.67 2.73-2.67zm11.64 7.87h1.93l-3.89-5.02 3.62-3.98h-1.96l-3.78 4.43v-8.03h-1.57v12.6h1.57v-2.66l1.17-1.3 2.9 3.96zm6.87-1.15c-.92 0-1.39-.43-1.39-1.3v-5.25h2.3v-1.3h-2.3v-2.8h-1.56v2.8h-1.53v1.3h1.53v5.29c0 1.64.97 2.55 2.68 2.55.52 0 1.03-.07 1.31-.18v-1.26c-.25.1-.63.15-1.04.15zm3.86-4.4c.57 0 1.04-.48 1.04-1.06 0-.57-.47-1.04-1.04-1.04-.58 0-1.07.47-1.07 1.04 0 .58.49 1.07 1.07 1.07zm0 5.66c.57 0 1.04-.49 1.04-1.06 0-.58-.47-1.05-1.04-1.05-.58 0-1.07.47-1.07 1.05 0 .57.49 1.06 1.07 1.06zm-100.08 81.21c1.08-.47 1.69-1.38 1.69-2.7 0-1.98-1.42-3.22-3.67-3.22h-4.34v12.6h4.99c2.23 0 3.81-1.44 3.81-3.5 0-1.58-1-2.8-2.48-3.18zm-2.4-4.6c1.55 0 2.45.73 2.45 2.03s-.88 2.03-2.45 2.03h-2.3v-4.07h2.3zm.53 9.91h-2.83v-4.53h2.79c1.84 0 2.74.77 2.74 2.28 0 1.44-1 2.25-2.7 2.25zm10.42-7.77a2.7 2.7 0 0 0 -2.58 1.67v-1.53h-1.38v9h1.56v-5.22c0-1.71 1.01-2.54 2.34-2.54.35 0 .6.02.81.06v-1.35c-.14-.06-.4-.1-.75-.1zm8.08.14v5.2c0 1.62-.92 2.67-2.34 2.67-1.35 0-2.1-.8-2.1-2.22v-5.65h-1.55v5.72c0 2.15 1.19 3.42 3.2 3.42 1.37 0 2.45-.6 3-1.65v1.51h1.36v-9h-1.56zm7.49 7.85c-.92 0-1.39-.43-1.39-1.3v-5.25h2.3v-1.3h-2.3v-2.8h-1.56v2.8h-1.53v1.3h1.53v5.29c0 1.64.97 2.55 2.68 2.55.52 0 1.02-.07 1.31-.18v-1.26c-.25.1-.63.15-1.04.15zm6.52 0c-.92 0-1.39-.43-1.39-1.3v-5.25h2.3v-1.3h-2.3v-2.8h-1.56v2.8h-1.53v1.3h1.53v5.29c0 1.64.97 2.55 2.68 2.55.52 0 1.02-.07 1.31-.18v-1.26c-.25.1-.63.15-1.04.15zm6.8 1.3c2.55 0 4.44-1.86 4.44-4.65s-1.9-4.64-4.43-4.64c-2.54 0-4.43 1.85-4.43 4.64s1.89 4.64 4.43 4.64zm0-1.3c-1.65 0-2.85-1.33-2.85-3.35s1.2-3.35 2.86-3.35c1.65 0 2.86 1.33 2.86 3.35s-1.2 3.35-2.86 3.35zm7.32-9.18c.58 0 1.05-.49 1.05-1.06 0-.58-.47-1.05-1.05-1.05-.57 0-1.06.47-1.06 1.05 0 .57.49 1.06 1.06 1.06zm-.79 10.33h1.57v-9h-1.57zm8.4-9.14c-1.36 0-2.44.6-2.98 1.63v-1.49h-1.38v9h1.56v-5.2c0-1.62.92-2.67 2.36-2.67 1.33 0 2.07.8 2.07 2.22v5.65h1.57v-5.72c0-2.15-1.2-3.42-3.2-3.42zm9.6 0c-1.34 0-2.42.6-2.96 1.63v-1.49h-1.39v9h1.57v-5.2c0-1.62.91-2.67 2.35-2.67 1.34 0 2.07.8 2.07 2.22v5.65h1.57v-5.72c0-2.15-1.19-3.42-3.2-3.42zm9.03 7.99c-.92 0-1.39-.43-1.39-1.3v-5.25h2.3v-1.3h-2.3v-2.8h-1.56v2.8h-1.53v1.3h1.53v5.29c0 1.64.97 2.55 2.68 2.55.52 0 1.02-.07 1.31-.18v-1.26c-.25.1-.63.15-1.04.15zm10.88-3.24c0-2.88-1.62-4.75-4.2-4.75-2.57 0-4.3 1.89-4.3 4.64 0 2.74 1.8 4.64 4.5 4.64 1.7 0 3-.68 3.7-1.92l-1.1-.76a2.78 2.78 0 0 1 -2.58 1.42c-1.53 0-2.86-.95-2.99-2.95h6.95c.02-.05.02-.25.02-.32zm-4.2-3.48c1.53 0 2.49 1 2.68 2.67h-5.41c.2-1.73 1.26-2.67 2.73-2.67zm11.64 7.87h1.93l-3.89-5.02 3.62-3.98h-1.96l-3.78 4.43v-8.03h-1.57v12.6h1.57v-2.66l1.17-1.3zm6.87-1.15c-.92 0-1.39-.43-1.39-1.3v-5.25h2.3v-1.3h-2.3v-2.8h-1.56v2.8h-1.53v1.3h1.53v5.29c0 1.64.97 2.55 2.68 2.55.52 0 1.02-.07 1.31-.18v-1.26c-.25.1-.63.15-1.04.15zm3.86-4.4c.57 0 1.04-.48 1.04-1.06 0-.57-.47-1.04-1.04-1.04-.58 0-1.07.47-1.07 1.04 0 .58.49 1.07 1.06 1.07zm0 5.66c.57 0 1.04-.49 1.04-1.06 0-.58-.47-1.05-1.04-1.05-.58 0-1.07.47-1.07 1.05 0 .57.49 1.06 1.06 1.06z" fill="#333"/><rect fill="#fff" height="31" rx="15.5" stroke="#007272" width="159" x="24.5" y="136.5"/><path d="m41.46 145.4v1.3h6.14l-5.08 11.3h1.76l5.06-11.61v-.99zm12.62 11.3 2.32-2.37c1.8-1.86 3.44-3.42 3.44-5.42 0-2.16-1.62-3.65-4-3.65-2.12 0-3.54 1.08-3.9 2.95l1.33.5c.32-1.44 1.19-2.14 2.57-2.14 1.5 0 2.45.9 2.45 2.34 0 1.37-.74 2.23-2.93 4.46l-3.53 3.6v1.03h8.03v-1.3zm12.55 1.44c2.87 0 4.4-2.26 4.4-6.44s-1.53-6.44-4.4-6.44c-2.86 0-4.39 2.26-4.39 6.44s1.53 6.44 4.4 6.44zm0-1.36c-1.87 0-2.82-1.71-2.82-5.08s.95-5.08 2.82-5.08c1.88 0 2.83 1.71 2.83 5.08s-.95 5.08-2.83 5.08zm14.95 1.36c2.86 0 4.39-2.26 4.39-6.44s-1.53-6.44-4.4-6.44c-2.86 0-4.39 2.26-4.39 6.44s1.53 6.44 4.4 6.44zm0-1.36c-1.88 0-2.83-1.71-2.83-5.08s.95-5.08 2.83-5.08c1.87 0 2.82 1.71 2.82 5.08s-.95 5.08-2.82 5.08zm10.79 1.36c2.86 0 4.4-2.26 4.4-6.44s-1.54-6.44-4.4-6.44-4.4 2.26-4.4 6.44 1.54 6.44 4.4 6.44zm0-1.36c-1.87 0-2.83-1.71-2.83-5.08s.96-5.08 2.83-5.08 2.82 1.71 2.82 5.08-.95 5.08-2.82 5.08zm10.8 1.36c2.85 0 4.38-2.26 4.38-6.44s-1.53-6.44-4.39-6.44-4.39 2.26-4.39 6.44 1.53 6.44 4.4 6.44zm0-1.36c-1.88 0-2.83-1.71-2.83-5.08s.95-5.08 2.82-5.08 2.83 1.71 2.83 5.08-.96 5.08-2.83 5.08z" fill="#14555a"/></svg>