<svg width="168" height="48" viewBox="0 0 168 48" fill="none" xmlns="http://www.w3.org/2000/svg">
<rect y="-0.000198364" width="168" height="8" fill="#FFFF7A" fill-opacity="0.75"/>
<rect y="40" width="168" height="8" fill="#FFFF7A" fill-opacity="0.75"/>
<rect x="160" y="8.00002" width="8" height="31.9999" fill="#FFFF7A" fill-opacity="0.75"/>
<rect y="8.00008" width="8" height="31.9999" fill="#FFFF7A" fill-opacity="0.75"/>
<rect x="8.5" y="8.49976" width="151" height="31" rx="15.5" stroke="#007272"/>
<path d="M30.7605 30.1918C32.3765 30.1918 33.2565 29.9198 33.9925 29.6478L33.6725 28.5918C32.9685 28.8478 32.0725 29.0078 31.0165 29.0078C28.4245 29.0078 26.2485 27.6318 26.2485 24.2558C26.2485 20.9598 28.3605 19.6798 30.7285 19.6798C32.0245 19.6798 32.7605 19.9358 33.5765 20.2238L33.9765 19.1678C33.3365 18.8638 32.3445 18.5278 30.6965 18.5278C27.0485 18.5278 24.8885 20.8958 24.8885 24.4158C24.8885 27.7918 27.0165 30.1918 30.7605 30.1918ZM35.8339 29.9998H37.0979V23.2478C37.8499 22.7678 38.7939 22.1758 39.9139 22.1758C41.3699 22.1758 41.6259 23.1038 41.6259 24.6238V29.9998H42.8419V24.3678C42.8419 22.9118 42.6979 21.0558 40.2019 21.0558C38.8099 21.0558 37.8179 21.7438 37.0979 22.2718V17.9358H35.8339V29.9998ZM48.5843 30.1918C50.8723 30.1918 52.5683 28.7358 52.5683 25.5838C52.5683 22.7038 51.2403 21.0398 48.7603 21.0398C46.3283 21.0398 44.6963 22.7038 44.6963 25.7278C44.6963 28.5918 46.1843 30.1918 48.5843 30.1918ZM48.6643 29.1518C46.6163 29.1518 45.9763 27.4558 45.9763 25.6638C45.9763 23.9998 46.5203 22.0798 48.6643 22.0798C50.8083 22.0798 51.2883 24.0158 51.2883 25.6638C51.2883 27.3758 50.7763 29.1518 48.6643 29.1518ZM57.8801 30.1918C60.1681 30.1918 61.8641 28.7358 61.8641 25.5838C61.8641 22.7038 60.5361 21.0398 58.0561 21.0398C55.6241 21.0398 53.9921 22.7038 53.9921 25.7278C53.9921 28.5918 55.4801 30.1918 57.8801 30.1918ZM57.9601 29.1518C55.9121 29.1518 55.2721 27.4558 55.2721 25.6638C55.2721 23.9998 55.8161 22.0798 57.9601 22.0798C60.1041 22.0798 60.5841 24.0158 60.5841 25.6638C60.5841 27.3758 60.0721 29.1518 57.9601 29.1518ZM65.5599 30.1918C67.1119 30.1918 68.9519 29.5518 68.9519 27.6798C68.9519 24.7838 64.5839 25.3758 64.5839 23.3758C64.5839 22.6558 65.0959 22.0958 66.2959 22.0958C66.9359 22.0958 67.6559 22.2398 68.2159 22.4638L68.5039 21.4558C67.8799 21.1838 66.9999 21.0398 66.3119 21.0398C64.6799 21.0398 63.3519 21.8878 63.3519 23.4878C63.3519 26.3678 67.7519 25.8078 67.7519 27.7598C67.7519 28.6238 66.9359 29.1198 65.6559 29.1198C64.9039 29.1198 64.0879 28.9598 63.3199 28.7358L63.1119 29.8078C63.7519 30.0158 64.7439 30.1918 65.5599 30.1918ZM74.3531 30.1918C75.4571 30.1918 76.4491 29.9998 77.1051 29.7278L76.8811 28.7038C76.0651 28.9598 75.4091 29.1038 74.5611 29.1038C72.8971 29.1038 71.5211 28.5758 71.4891 25.8718H77.2491V25.4078C77.2491 22.4958 76.2411 21.0398 74.0171 21.0398C71.8891 21.0398 70.2091 22.3998 70.2091 25.8078C70.2091 29.1358 71.8091 30.1918 74.3531 30.1918ZM71.5051 24.9278C71.6491 22.9758 72.6251 22.0318 73.8891 22.0318C75.3131 22.0318 75.9371 23.1518 75.9371 24.9278H71.5051ZM83.0621 29.9998H84.3421V21.2638H83.0621V29.9998ZM83.6861 19.6318L84.7581 18.5598L83.6861 17.5038L82.6461 18.5598L83.6861 19.6318ZM86.7798 29.9998H88.0438V23.2318C88.8278 22.6878 89.7238 22.1598 90.8438 22.1598C92.3318 22.1598 92.5718 23.1038 92.5718 24.6078V29.9998H93.8038V24.3678C93.8038 22.8958 93.6438 21.0398 91.1638 21.0398C89.8038 21.0398 88.9558 21.5838 88.0438 22.2558V21.2638H86.7798V29.9998ZM100.043 29.9998H101.307V17.9358H100.043V29.9998ZM103.73 29.9998H105.01V21.2638H103.73V29.9998ZM104.354 19.6318L105.426 18.5598L104.354 17.5038L103.314 18.5598L104.354 19.6318ZM109.223 30.1918C110.775 30.1918 112.615 29.5518 112.615 27.6798C112.615 24.7838 108.247 25.3758 108.247 23.3758C108.247 22.6558 108.759 22.0958 109.959 22.0958C110.599 22.0958 111.319 22.2398 111.879 22.4638L112.167 21.4558C111.543 21.1838 110.663 21.0398 109.975 21.0398C108.343 21.0398 107.015 21.8878 107.015 23.4878C107.015 26.3678 111.415 25.8078 111.415 27.7598C111.415 28.6238 110.599 29.1198 109.319 29.1198C108.567 29.1198 107.751 28.9598 106.983 28.7358L106.775 29.8078C107.415 30.0158 108.407 30.1918 109.223 30.1918ZM117.329 30.1918C117.921 30.1918 118.737 30.0318 119.185 29.8718L118.961 28.8318C118.593 28.9598 117.969 29.0878 117.489 29.0878C116.481 29.0878 115.921 28.7518 115.921 27.5198V22.3358H118.641V21.2638H115.905V19.4718H114.673V21.2638H113.393V22.3358H114.673V27.5678C114.673 29.6318 115.697 30.1918 117.329 30.1918Z" fill="#14555A"/>
<path fill-rule="evenodd" clip-rule="evenodd" d="M132.03 21.2194C131.737 20.9265 131.263 20.9265 130.97 21.2194C130.677 21.5123 130.677 21.9872 130.97 22.2801L135.47 26.7801C135.506 26.8167 135.546 26.8487 135.587 26.8762C135.878 27.0684 136.274 27.0364 136.53 26.7801L141.03 22.2801C141.323 21.9872 141.323 21.5123 141.03 21.2194C140.737 20.9265 140.263 20.9265 139.97 21.2194L136 25.1891L132.03 21.2194Z" fill="#008484"/>
</svg>
