<svg width="114" height="192" fill="none" xmlns="http://www.w3.org/2000/svg">
  <path fill="#F6BFFF" d="M8 24h8v8H8zM8 12h8v4H8zM8 40h8v16H8zM8 64h8v24H8zM8 96h8v32H8zM8 136h8v48H8z"/>
  <path d="M28.204 55.184V56H23.44v-.816h2.028v-6.348l-1.884 1.14-.444-.708 2.46-1.536h.888v7.452h1.716zm4.951-4.56c.432 0 .824.096 1.176.288.36.192.644.484.852.876.208.384.312.86.312 1.428 0 .592-.116 1.112-.348 1.56-.232.44-.544.776-.936 1.008a2.542 2.542 0 0 1-1.32.348c-.96 0-1.66-.348-2.1-1.044-.432-.696-.648-1.692-.648-2.988 0-.912.12-1.704.36-2.376.248-.68.6-1.204 1.056-1.572.464-.368 1.016-.552 1.656-.552.6 0 1.148.164 1.644.492l-.396.672a2.432 2.432 0 0 0-1.26-.348c-.632 0-1.128.296-1.488.888-.352.592-.536 1.4-.552 2.424.256-.384.548-.664.876-.84.328-.176.7-.264 1.116-.264zm-.264 4.692c.512 0 .9-.18 1.164-.54.272-.368.408-.876.408-1.524 0-1.208-.488-1.812-1.464-1.812-.384 0-.732.108-1.044.324a2.683 2.683 0 0 0-.78.852c.016.936.16 1.62.432 2.052.272.432.7.648 1.284.648zm7.532-5.772c1.528 0 2.292 1.096 2.292 3.288 0 1-.208 1.8-.624 2.4-.416.6-1.02.9-1.812.9-.688 0-1.248-.24-1.68-.72v3.012l-1.008.12v-8.868h.864l.084.888c.232-.328.508-.58.828-.756a2.2 2.2 0 0 1 1.056-.264zm-.24.816c-.32 0-.616.096-.888.288a2.985 2.985 0 0 0-.696.72V54.5c.168.248.376.444.624.588.256.136.532.204.828.204.528 0 .92-.2 1.176-.6.264-.408.396-1.028.396-1.86 0-.832-.116-1.452-.348-1.86-.232-.408-.596-.612-1.092-.612zM44.258 56l2.328-3.336-2.052-2.988h1.2l1.464 2.352 1.476-2.352h1.164l-2.052 2.94L50.114 56H48.89l-1.74-2.712L45.41 56h-1.152zM62.636 51.824c0 1.568-.36 2.656-1.08 3.264-.72.608-1.608.912-2.664.912h-1.896v-8.268h1.764c1.16 0 2.096.292 2.808.876.712.584 1.068 1.656 1.068 3.216zm-1.116 0c0-.896-.124-1.58-.372-2.052-.24-.48-.54-.796-.9-.948-.36-.16-.772-.24-1.236-.24h-.972v6.576h.984c.712 0 1.304-.244 1.776-.732.48-.496.72-1.364.72-2.604zm3.68 1.368c.023.696.203 1.22.54 1.572.343.352.775.528 1.295.528.312 0 .596-.044.852-.132.264-.096.544-.24.84-.432l.468.672a3.36 3.36 0 0 1-1.02.54 3.516 3.516 0 0 1-1.14.192c-.912 0-1.624-.296-2.136-.888-.504-.6-.756-1.4-.756-2.4 0-.632.112-1.196.336-1.692.224-.504.544-.896.96-1.176.416-.288.9-.432 1.452-.432.8 0 1.428.28 1.884.84.464.552.696 1.308.696 2.268 0 .184-.008.364-.024.54H65.2zm1.703-2.82c-.488 0-.884.176-1.188.528-.304.344-.476.852-.516 1.524h3.288c-.008-.664-.152-1.172-.432-1.524-.28-.352-.664-.528-1.152-.528zm8.42-3.36c.6 0 1.172.112 1.716.336l-.324.756a3.334 3.334 0 0 0-1.356-.264c-.88 0-1.32.348-1.32 1.044v1.284h2.136l-.108.804h-2.028V56h-1.02v-5.028h-1.5v-.804h1.5v-1.26c0-.568.216-1.024.648-1.368.44-.352.992-.528 1.656-.528zm7.999 7.608c0 .248.04.432.12.552.08.112.212.196.396.252l-.252.72c-.616-.08-1-.38-1.152-.9a2.173 2.173 0 0 1-.852.66 2.706 2.706 0 0 1-1.128.228c-.632 0-1.132-.176-1.5-.528-.36-.352-.54-.824-.54-1.416 0-.648.252-1.148.756-1.5.512-.352 1.244-.528 2.196-.528h.936v-.516c0-.448-.128-.768-.384-.96-.256-.2-.628-.3-1.116-.3-.48 0-1.028.108-1.644.324l-.276-.768c.744-.264 1.436-.396 2.076-.396.768 0 1.352.18 1.752.54.408.36.612.86.612 1.5v3.036zm-2.616.756c.312 0 .608-.08.888-.24.288-.16.524-.38.708-.66v-1.62h-.912c-.672 0-1.156.112-1.452.336-.296.224-.444.552-.444.984 0 .8.404 1.2 1.212 1.2zm6.283-1.212c0 .408.084.708.252.9.176.184.448.276.816.276.336 0 .66-.096.972-.288a2.29 2.29 0 0 0 .744-.72v-4.656h1.008V56h-.864l-.084-.852a2.591 2.591 0 0 1-.924.732c-.36.168-.728.252-1.104.252-.6 0-1.056-.16-1.368-.48-.304-.32-.456-.78-.456-1.38v-4.596h1.008v4.488zm8.66.276c0 .568.348.852 1.044.852.328 0 .68-.072 1.056-.216l.264.732c-.4.216-.9.324-1.5.324-.568 0-1.024-.156-1.368-.468-.336-.312-.504-.736-.504-1.272v-6.456h-1.944v-.804h2.952v7.308zm9.751 1.236a2.57 2.57 0 0 1-.792.336 3.57 3.57 0 0 1-.912.12c-.664 0-1.184-.172-1.56-.516-.376-.352-.564-.812-.564-1.38v-3.768h-1.452v-.792h1.452v-1.428l1.008-.12v1.548h2.196l-.132.792h-2.064v3.756c0 .36.096.628.288.804.192.176.5.264.924.264.432 0 .836-.1 1.212-.3l.396.684zM62.84 88h-1.008l-.252-4.32a49.48 49.48 0 0 1-.072-2.988l-1.392 5.82h-1.044l-1.488-5.82c.016.288.024.672.024 1.152 0 .736-.016 1.348-.048 1.836L57.344 88h-.984l.468-8.268h1.452l1.344 5.664 1.284-5.664h1.464L62.84 88zm2.36-2.808c.023.696.203 1.22.54 1.572.343.352.775.528 1.295.528.312 0 .596-.044.852-.132.264-.096.544-.24.84-.432l.468.672a3.36 3.36 0 0 1-1.02.54 3.516 3.516 0 0 1-1.14.192c-.912 0-1.624-.296-2.136-.888-.504-.6-.756-1.4-.756-2.4 0-.632.112-1.196.336-1.692.224-.504.544-.896.96-1.176.416-.288.9-.432 1.452-.432.8 0 1.428.28 1.884.84.464.552.696 1.308.696 2.268 0 .184-.008.364-.024.54H65.2zm1.703-2.82c-.488 0-.884.176-1.188.528-.304.344-.476.852-.516 1.524h3.288c-.008-.664-.152-1.172-.432-1.524-.28-.352-.664-.528-1.152-.528zm9.488-3.24V88h-.888l-.096-.828c-.232.32-.5.56-.804.72-.304.16-.632.24-.984.24-.8 0-1.404-.292-1.812-.876-.4-.584-.6-1.388-.6-2.412 0-.632.1-1.196.3-1.692.2-.504.484-.896.852-1.176a2.11 2.11 0 0 1 1.32-.432c.696 0 1.264.252 1.704.756v-3.288l1.008.12zm-2.448 3.228c-.528 0-.936.208-1.224.624-.28.416-.42 1.036-.42 1.86 0 .816.128 1.436.384 1.86.264.416.644.624 1.14.624.6 0 1.12-.336 1.56-1.008v-3.144a1.813 1.813 0 0 0-.636-.6 1.574 1.574 0 0 0-.804-.216zm7.243-3.636a.73.73 0 0 1 .54.204.66.66 0 0 1 .204.504.7.7 0 0 1-.204.516c-.136.128-.316.192-.54.192a.74.74 0 0 1-.528-.192.723.723 0 0 1-.192-.516c0-.208.064-.376.192-.504a.714.714 0 0 1 .528-.204zm.804 8.472h1.776V88h-4.728v-.804h1.944V82.48h-1.884v-.804h2.892v5.52zm5-1.032c0 .408.083.708.251.9.176.184.448.276.816.276.336 0 .66-.096.972-.288a2.29 2.29 0 0 0 .744-.72v-4.656h1.008V88h-.864l-.084-.852a2.591 2.591 0 0 1-.924.732c-.36.168-.728.252-1.104.252-.6 0-1.056-.16-1.368-.48-.304-.32-.456-.78-.456-1.38v-4.596h1.008v4.488zm10.35-4.62c.36 0 .653.128.877.384.232.248.348.704.348 1.368V88h-.924v-4.536c0-.44-.028-.736-.084-.888-.056-.16-.192-.24-.408-.24-.408 0-.776.252-1.104.756V88h-.936v-4.536c0-.44-.028-.736-.084-.888-.056-.16-.192-.24-.408-.24-.408 0-.776.252-1.104.756V88h-.924v-6.324h.78l.072.744a2.64 2.64 0 0 1 .6-.648 1.3 1.3 0 0 1 .768-.228c.592 0 .972.28 1.14.84.192-.272.396-.48.612-.624.216-.144.476-.216.78-.216zM57.632 119.732h1.032v7.344h3.78l-.132.924h-4.68v-8.268zm11.3 6.888c0 .248.04.432.12.552.08.112.211.196.395.252l-.252.72c-.616-.08-1-.38-1.152-.9a2.173 2.173 0 0 1-.852.66 2.706 2.706 0 0 1-1.128.228c-.632 0-1.132-.176-1.5-.528-.36-.352-.54-.824-.54-1.416 0-.648.252-1.148.756-1.5.512-.352 1.244-.528 2.196-.528h.936v-.516c0-.448-.128-.768-.384-.96-.256-.2-.628-.3-1.116-.3-.48 0-1.028.108-1.644.324l-.276-.768c.744-.264 1.436-.396 2.076-.396.768 0 1.352.18 1.752.54.408.36.612.86.612 1.5v3.036zm-2.617.756c.312 0 .608-.08.888-.24.288-.16.524-.38.708-.66v-1.62H67c-.672 0-1.156.112-1.452.336-.296.224-.444.552-.444.984 0 .8.404 1.2 1.212 1.2zm9.548-5.832c.256 0 .552.044.888.132l-.144 2.148h-.816v-1.356h-.06c-.976 0-1.668.696-2.076 2.088v2.664h1.284v.78H71.65v-.78h.996v-4.764h-.996v-.78h1.752l.192 1.5c.256-.544.56-.952.912-1.224.36-.272.812-.408 1.356-.408zm8.37.42c-.24.08-.5.132-.78.156-.28.016-.635.024-1.067.024.736.336 1.104.868 1.104 1.596 0 .64-.212 1.16-.636 1.56-.424.392-1.004.588-1.74.588-.376 0-.692-.044-.948-.132a.894.894 0 0 0-.24.276.746.746 0 0 0-.084.336c0 .36.28.54.84.54h1.14c.416 0 .792.076 1.128.228.344.144.612.348.804.612.2.264.3.556.3.876 0 .616-.264 1.088-.792 1.416-.52.336-1.26.504-2.22.504-.976 0-1.664-.152-2.064-.456-.4-.304-.6-.788-.6-1.452h.912c0 .264.048.472.144.624.104.16.28.276.528.348.256.08.616.12 1.08.12.68 0 1.18-.088 1.5-.264.328-.176.492-.436.492-.78 0-.288-.132-.512-.396-.672-.264-.152-.604-.228-1.02-.228H80.49c-.52 0-.916-.112-1.188-.336a1.09 1.09 0 0 1-.228-1.452c.12-.2.292-.372.516-.516-.36-.184-.628-.416-.804-.696-.168-.288-.252-.636-.252-1.044 0-.424.104-.8.312-1.128a2.16 2.16 0 0 1 .888-.78 2.913 2.913 0 0 1 1.32-.288c.72 0 1.268-.04 1.644-.12.376-.08.788-.216 1.236-.408l.3.948zm-3.191.324c-.488 0-.856.132-1.104.396-.248.256-.372.608-.372 1.056 0 .448.124.808.372 1.08.256.264.632.396 1.128.396.448 0 .788-.128 1.02-.384.24-.264.36-.632.36-1.104 0-.96-.468-1.44-1.404-1.44zm5.743 2.904c.024.696.204 1.22.54 1.572.344.352.776.528 1.296.528.312 0 .596-.044.852-.132.264-.096.544-.24.84-.432l.468.672a3.358 3.358 0 0 1-1.02.54 3.516 3.516 0 0 1-1.14.192c-.912 0-1.624-.296-2.136-.888-.504-.6-.756-1.4-.756-2.4 0-.632.112-1.196.336-1.692.224-.504.544-.896.96-1.176.416-.288.9-.432 1.452-.432.8 0 1.428.28 1.884.84.464.552.696 1.308.696 2.268 0 .184-.008.364-.024.54h-4.248zm1.704-2.82c-.488 0-.884.176-1.188.528-.304.344-.476.852-.516 1.524h3.288c-.008-.664-.152-1.172-.432-1.524-.28-.352-.664-.528-1.152-.528zM57.788 175.732l1.812 3.18 1.824-3.18h1.116l-2.34 3.804L62.828 184h-1.2l-2.052-3.732L57.488 184h-1.116l2.592-4.404-2.376-3.864h1.2zm6.907 4.08h4.2v.864h-4.2v-.864zm7.328-4.08h1.032v7.344h3.78l-.132.924h-4.68v-8.268zm11.299 6.888c0 .248.04.432.12.552.08.112.212.196.396.252l-.252.72c-.616-.08-1-.38-1.152-.9a2.173 2.173 0 0 1-.852.66 2.706 2.706 0 0 1-1.128.228c-.632 0-1.132-.176-1.5-.528-.36-.352-.54-.824-.54-1.416 0-.648.252-1.148.756-1.5.512-.352 1.244-.528 2.196-.528h.936v-.516c0-.448-.128-.768-.384-.96-.256-.2-.628-.3-1.116-.3-.48 0-1.028.108-1.644.324l-.276-.768c.744-.264 1.436-.396 2.076-.396.768 0 1.352.18 1.752.54.408.36.612.86.612 1.5v3.036zm-2.616.756c.312 0 .608-.08.888-.24.288-.16.524-.38.708-.66v-1.62h-.912c-.672 0-1.156.112-1.452.336-.296.224-.444.552-.444.984 0 .8.404 1.2 1.212 1.2zm9.547-5.832c.256 0 .552.044.888.132l-.144 2.148h-.816v-1.356h-.06c-.976 0-1.668.696-2.076 2.088v2.664h1.284v.78h-3.288v-.78h.996v-4.764h-.996v-.78h1.752l.192 1.5c.256-.544.56-.952.912-1.224.36-.272.812-.408 1.356-.408zm8.372.42c-.24.08-.5.132-.78.156-.28.016-.636.024-1.068.024.736.336 1.104.868 1.104 1.596 0 .64-.212 1.16-.636 1.56-.424.392-1.004.588-1.74.588-.376 0-.692-.044-.948-.132a.894.894 0 0 0-.24.276.746.746 0 0 0-.084.336c0 .36.28.54.84.54h1.14c.416 0 .792.076 1.128.228.344.144.612.348.804.612.2.264.3.556.3.876 0 .616-.264 1.088-.792 1.416-.52.336-1.26.504-2.22.504-.976 0-1.664-.152-2.064-.456-.4-.304-.6-.788-.6-1.452h.912c0 .264.048.472.144.624.104.16.28.276.528.348.256.08.616.12 1.08.12.68 0 1.18-.088 1.5-.264.328-.176.492-.436.492-.78 0-.288-.132-.512-.396-.672-.264-.152-.604-.228-1.02-.228H94.88c-.52 0-.916-.112-1.188-.336a1.09 1.09 0 0 1-.228-1.452c.12-.2.292-.372.516-.516-.36-.184-.628-.416-.804-.696-.168-.288-.252-.636-.252-1.044 0-.424.104-.8.312-1.128a2.16 2.16 0 0 1 .888-.78 2.913 2.913 0 0 1 1.32-.288c.72 0 1.268-.04 1.644-.12.376-.08.788-.216 1.236-.408l.3.948zm-3.192.324c-.488 0-.856.132-1.104.396-.248.256-.372.608-.372 1.056 0 .448.124.808.372 1.08.256.264.632.396 1.128.396.448 0 .788-.128 1.02-.384.24-.264.36-.632.36-1.104 0-.96-.468-1.44-1.404-1.44zm5.743 2.904c.024.696.204 1.22.54 1.572.344.352.776.528 1.296.528.312 0 .596-.044.852-.132.264-.096.544-.24.84-.432l.468.672a3.36 3.36 0 0 1-1.02.54 3.516 3.516 0 0 1-1.14.192c-.912 0-1.624-.296-2.136-.888-.504-.6-.756-1.4-.756-2.4 0-.632.112-1.196.336-1.692.224-.504.544-.896.96-1.176.416-.288.9-.432 1.452-.432.8 0 1.428.28 1.884.84.464.552.696 1.308.696 2.268 0 .184-.008.364-.024.54h-4.248zm1.704-2.82c-.488 0-.884.176-1.188.528-.304.344-.476.852-.516 1.524h3.288c-.008-.664-.152-1.172-.432-1.524-.28-.352-.664-.528-1.152-.528zM62.444 29.708c0 .48-.12.904-.36 1.272-.24.36-.588.644-1.044.852-.456.2-.996.3-1.62.3-.6 0-1.148-.088-1.644-.264a3.681 3.681 0 0 1-1.26-.78l.624-.708c.304.288.64.508 1.008.66.376.152.804.228 1.284.228.544 0 1-.132 1.368-.396.368-.264.552-.644.552-1.14 0-.28-.052-.512-.156-.696-.104-.184-.288-.348-.552-.492-.256-.144-.62-.284-1.092-.42-.896-.264-1.564-.572-2.004-.924-.44-.36-.66-.848-.66-1.464 0-.408.112-.776.336-1.104.224-.328.54-.58.948-.756a3.352 3.352 0 0 1 1.392-.276c.544 0 1.028.08 1.452.24.432.16.828.396 1.188.708l-.624.672a2.918 2.918 0 0 0-1.98-.744c-.48 0-.876.104-1.188.312-.312.208-.468.512-.468.912 0 .24.064.444.192.612.128.168.34.324.636.468.296.144.712.292 1.248.444.776.224 1.372.516 1.788.876.424.36.636.896.636 1.608zm6.115-4.164c.36 0 .652.128.876.384.232.248.348.704.348 1.368V32h-.924v-4.536c0-.44-.028-.736-.084-.888-.056-.16-.192-.24-.408-.24-.408 0-.776.252-1.104.756V32h-.936v-4.536c0-.44-.028-.736-.084-.888-.056-.16-.192-.24-.408-.24-.408 0-.776.252-1.104.756V32h-.924v-6.324h.78l.072.744a2.64 2.64 0 0 1 .6-.648 1.3 1.3 0 0 1 .768-.228c.592 0 .972.28 1.14.84.192-.272.396-.48.612-.624.216-.144.476-.216.78-.216zm7.568 5.076c0 .248.04.432.12.552.08.112.212.196.396.252l-.252.72c-.616-.08-1-.38-1.152-.9a2.173 2.173 0 0 1-.852.66 2.706 2.706 0 0 1-1.128.228c-.632 0-1.132-.176-1.5-.528-.36-.352-.54-.824-.54-1.416 0-.648.252-1.148.756-1.5.512-.352 1.244-.528 2.196-.528h.936v-.516c0-.448-.128-.768-.384-.96-.256-.2-.628-.3-1.116-.3-.48 0-1.028.108-1.644.324l-.276-.768c.744-.264 1.436-.396 2.076-.396.768 0 1.352.18 1.752.54.408.36.612.86.612 1.5v3.036zm-2.616.756c.312 0 .608-.08.888-.24.288-.16.524-.38.708-.66v-1.62h-.912c-.672 0-1.156.112-1.452.336-.296.224-.444.552-.444.984 0 .8.404 1.2 1.212 1.2zm7.747-.936c0 .568.348.852 1.044.852.328 0 .68-.072 1.056-.216l.264.732c-.4.216-.9.324-1.5.324-.568 0-1.024-.156-1.368-.468-.336-.312-.504-.736-.504-1.272v-6.456h-1.944v-.804h2.952v7.308zm7.195 0c0 .568.348.852 1.044.852.328 0 .68-.072 1.056-.216l.264.732c-.4.216-.9.324-1.5.324-.568 0-1.024-.156-1.368-.468-.336-.312-.504-.736-.504-1.272v-6.456h-1.944v-.804h2.952v7.308zM60.104 16H59.06V8.632h-2.58v-.9h6.228l-.108.9h-2.496V16zm6.691-9.276a.73.73 0 0 1 .54.204.66.66 0 0 1 .204.504.7.7 0 0 1-.204.516c-.136.128-.316.192-.54.192a.74.74 0 0 1-.528-.192.723.723 0 0 1-.192-.516c0-.208.064-.376.192-.504a.714.714 0 0 1 .528-.204zm.804 8.472h1.776V16h-4.728v-.804h1.944V10.48h-1.884v-.804H67.6v5.52zm3.992-5.52h.864l.084.888c.248-.32.56-.568.936-.744a2.646 2.646 0 0 1 1.152-.276c1.184 0 1.776.624 1.776 1.872V16h-1.008v-3.84c0-.472-.028-.832-.084-1.08-.048-.248-.148-.432-.3-.552-.152-.12-.384-.18-.696-.18a1.69 1.69 0 0 0-.972.312 2.743 2.743 0 0 0-.744.744V16H71.59V9.676zm10.243 6.36c-.248.728-.588 1.308-1.02 1.74-.432.432-1.036.688-1.812.768l-.144-.804c.424-.072.76-.184 1.008-.336.256-.144.456-.328.6-.552.144-.216.276-.5.396-.852h-.336L78.33 9.676h1.068l1.812 5.556 1.788-5.556h1.044l-2.208 6.36zM25.228 79.6c.504 0 .944.1 1.32.3.384.2.676.476.876.828.2.344.3.736.3 1.176a3.29 3.29 0 0 1-.36 1.488c-.232.48-.608 1.008-1.128 1.584-.52.568-1.256 1.288-2.208 2.16h3.888l-.12.864h-4.92v-.816c1.08-1.032 1.88-1.84 2.4-2.424.528-.584.892-1.084 1.092-1.5.2-.416.3-.856.3-1.32 0-.464-.132-.828-.396-1.092-.264-.264-.628-.396-1.092-.396-.392 0-.72.068-.984.204-.256.128-.52.352-.792.672l-.696-.54c.328-.408.692-.708 1.092-.9.408-.192.884-.288 1.428-.288zm10.303 6.396h-1.068V88h-.972v-2.004H30.06v-.744l2.424-5.652.84.36-2.196 5.22h2.376l.084-2.34h.876v2.34h1.068v.816zm4.892-4.452c1.528 0 2.292 1.096 2.292 3.288 0 1-.208 1.8-.624 2.4-.416.6-1.02.9-1.812.9-.688 0-1.248-.24-1.68-.72v3.012l-1.008.12v-8.868h.864l.084.888c.232-.328.508-.58.828-.756a2.2 2.2 0 0 1 1.056-.264zm-.24.816c-.32 0-.616.096-.888.288a2.985 2.985 0 0 0-.696.72V86.5c.168.248.376.444.624.588.256.136.532.204.828.204.528 0 .92-.2 1.176-.6.264-.408.396-1.028.396-1.86 0-.832-.116-1.452-.348-1.86-.232-.408-.596-.612-1.092-.612zM44.258 88l2.328-3.336-2.052-2.988h1.2l1.464 2.352 1.476-2.352h1.164l-2.052 2.94L50.114 88H48.89l-1.74-2.712L45.41 88h-1.152zM25.228 119.6c.504 0 .948.096 1.332.288.384.184.68.436.888.756.208.312.312.656.312 1.032 0 .48-.156.9-.468 1.26a2.006 2.006 0 0 1-1.14.66c.52.04.96.236 1.32.588.368.352.552.832.552 1.44 0 .472-.12.9-.36 1.284s-.58.684-1.02.9c-.432.216-.928.324-1.488.324a3.75 3.75 0 0 1-1.416-.276 2.792 2.792 0 0 1-1.116-.816l.672-.552c.224.264.496.468.816.612.328.136.668.204 1.02.204.576 0 1.024-.148 1.344-.444.328-.304.492-.716.492-1.236 0-1.048-.572-1.572-1.716-1.572h-.684l.12-.804h.492c.432 0 .8-.12 1.104-.36.304-.248.456-.608.456-1.08 0-.44-.148-.78-.444-1.02-.288-.248-.66-.372-1.116-.372-.344 0-.652.06-.924.18-.264.12-.54.312-.828.576l-.552-.612c.672-.64 1.456-.96 2.352-.96zm7.195 0c.504 0 .944.1 1.32.3.384.2.676.476.876.828.2.344.3.736.3 1.176a3.29 3.29 0 0 1-.36 1.488c-.232.48-.608 1.008-1.128 1.584-.52.568-1.256 1.288-2.208 2.16h3.888l-.12.864h-4.92v-.816c1.08-1.032 1.88-1.84 2.4-2.424.528-.584.892-1.084 1.092-1.5.2-.416.3-.856.3-1.32 0-.464-.132-.828-.396-1.092-.264-.264-.628-.396-1.092-.396-.392 0-.72.068-.984.204-.256.128-.52.352-.792.672l-.696-.54c.328-.408.692-.708 1.092-.9.408-.192.884-.288 1.428-.288zm8 1.944c1.528 0 2.292 1.096 2.292 3.288 0 1-.208 1.8-.624 2.4-.416.6-1.02.9-1.812.9-.688 0-1.248-.24-1.68-.72v3.012l-1.008.12v-8.868h.864l.084.888c.232-.328.508-.58.828-.756a2.2 2.2 0 0 1 1.056-.264zm-.24.816c-.32 0-.616.096-.888.288a2.985 2.985 0 0 0-.696.72v3.132c.168.248.376.444.624.588.256.136.532.204.828.204.528 0 .92-.2 1.176-.6.264-.408.396-1.028.396-1.86 0-.832-.116-1.452-.348-1.86-.232-.408-.596-.612-1.092-.612zm4.075 5.64l2.328-3.336-2.052-2.988h1.2l1.464 2.352 1.476-2.352h1.164l-2.052 2.94L50.114 128H48.89l-1.74-2.712L45.41 128h-1.152zM28.336 181.996h-1.068V184h-.972v-2.004h-3.432v-.744l2.424-5.652.84.36-2.196 5.22h2.376l.084-2.34h.876v2.34h1.068v.816zm6.931-4.296c0 .392-.12.736-.36 1.032-.24.296-.596.576-1.068.84.56.232.996.536 1.308.912.312.376.468.808.468 1.296 0 .448-.116.852-.348 1.212-.232.36-.564.64-.996.84-.432.2-.932.3-1.5.3-.576 0-1.076-.1-1.5-.3-.424-.208-.748-.488-.972-.84a2.226 2.226 0 0 1-.324-1.188c0-.92.556-1.64 1.668-2.16-.456-.216-.792-.468-1.008-.756-.208-.296-.312-.672-.312-1.128 0-.472.124-.872.372-1.2.248-.328.56-.568.936-.72.384-.16.772-.24 1.164-.24.424 0 .824.076 1.2.228.376.152.68.388.912.708.24.312.36.7.36 1.164zm-3.96.072c0 .304.068.548.204.732.144.176.332.32.564.432.232.104.584.232 1.056.384.408-.24.7-.472.876-.696.184-.232.276-.524.276-.876 0-.416-.132-.744-.396-.984-.256-.248-.62-.372-1.092-.372-.472 0-.84.12-1.104.36-.256.24-.384.58-.384 1.02zm3.24 4.032c0-.352-.088-.636-.264-.852a1.79 1.79 0 0 0-.696-.528 17.1 17.1 0 0 0-1.26-.492c-.856.4-1.284 1.024-1.284 1.872 0 .472.148.844.444 1.116.296.264.724.396 1.284.396s.996-.14 1.308-.42c.312-.28.468-.644.468-1.092zm5.876-4.26c1.528 0 2.292 1.096 2.292 3.288 0 1-.208 1.8-.624 2.4-.416.6-1.02.9-1.812.9-.688 0-1.248-.24-1.68-.72v3.012l-1.008.12v-8.868h.864l.084.888c.232-.328.508-.58.828-.756a2.2 2.2 0 0 1 1.056-.264zm-.24.816c-.32 0-.616.096-.888.288a2.985 2.985 0 0 0-.696.72v3.132c.168.248.376.444.624.588.256.136.532.204.828.204.528 0 .92-.2 1.176-.6.264-.408.396-1.028.396-1.86 0-.832-.116-1.452-.348-1.86-.232-.408-.596-.612-1.092-.612zm4.075 5.64l2.328-3.336-2.052-2.988h1.2l1.464 2.352 1.476-2.352h1.164l-2.052 2.94L50.114 184H48.89l-1.74-2.712L45.41 184h-1.152zM28.072 25.7c0 .392-.12.736-.36 1.032-.24.296-.596.576-1.068.84.56.232.996.536 1.308.912.312.376.468.808.468 1.296 0 .448-.116.852-.348 1.212-.232.36-.564.64-.996.84-.432.2-.932.3-1.5.3-.576 0-1.076-.1-1.5-.3-.424-.208-.748-.488-.972-.84a2.226 2.226 0 0 1-.324-1.188c0-.92.556-1.64 1.668-2.16-.456-.216-.792-.468-1.008-.756-.208-.296-.312-.672-.312-1.128 0-.472.124-.872.372-1.2.248-.328.56-.568.936-.72.384-.16.772-.24 1.164-.24.424 0 .824.076 1.2.228.376.152.68.388.912.708.24.312.36.7.36 1.164zm-3.96.072c0 .304.068.548.204.732.144.176.332.32.564.432.232.104.584.232 1.056.384.408-.24.7-.472.876-.696.184-.232.276-.524.276-.876 0-.416-.132-.744-.396-.984-.256-.248-.62-.372-1.092-.372-.472 0-.84.12-1.104.36-.256.24-.384.58-.384 1.02zm3.24 4.032c0-.352-.088-.636-.264-.852a1.79 1.79 0 0 0-.696-.528 17.1 17.1 0 0 0-1.26-.492c-.856.4-1.284 1.024-1.284 1.872 0 .472.148.844.444 1.116.296.264.724.396 1.284.396s.996-.14 1.308-.42c.312-.28.468-.644.468-1.092zm5.875-4.26c1.528 0 2.292 1.096 2.292 3.288 0 1-.208 1.8-.624 2.4-.416.6-1.02.9-1.812.9-.688 0-1.248-.24-1.68-.72v3.012l-1.008.12v-8.868h.864l.084.888c.232-.328.508-.58.828-.756a2.2 2.2 0 0 1 1.056-.264zm-.24.816c-.32 0-.616.096-.888.288a2.985 2.985 0 0 0-.696.72V30.5c.168.248.376.444.624.588.256.136.532.204.828.204.528 0 .92-.2 1.176-.6.264-.408.396-1.028.396-1.86 0-.832-.116-1.452-.348-1.86-.232-.408-.596-.612-1.092-.612zM37.063 32l2.328-3.336-2.052-2.988h1.2l1.464 2.352 1.476-2.352h1.164l-2.052 2.94L42.919 32h-1.224l-1.74-2.712L38.215 32h-1.152zM28.336 13.996h-1.068V16h-.972v-2.004h-3.432v-.744L25.288 7.6l.84.36-2.196 5.22h2.376l.084-2.34h.876v2.34h1.068v.816zm4.891-4.452c1.528 0 2.292 1.096 2.292 3.288 0 1-.208 1.8-.624 2.4-.416.6-1.02.9-1.812.9-.688 0-1.248-.24-1.68-.72v3.012l-1.008.12V9.676h.864l.084.888c.232-.328.508-.58.828-.756a2.2 2.2 0 0 1 1.056-.264zm-.24.816c-.32 0-.616.096-.888.288a2.985 2.985 0 0 0-.696.72V14.5c.168.248.376.444.624.588.256.136.532.204.828.204.528 0 .92-.2 1.176-.6.264-.408.396-1.028.396-1.86 0-.832-.116-1.452-.348-1.86-.232-.408-.596-.612-1.092-.612zM37.063 16l2.328-3.336-2.052-2.988h1.2l1.464 2.352 1.476-2.352h1.164l-2.052 2.94L42.919 16h-1.224l-1.74-2.712L38.215 16h-1.152z" fill="#000"/>
</svg>
