<svg fill="none" height="48" viewBox="0 0 168 48" width="168" xmlns="http://www.w3.org/2000/svg"><rect fill="#fbfcf9" height="31" rx="15.5" stroke="#007272" width="162" x=".5" y="8.5"/><rect fill="#fff" height="31" rx="15.5" stroke="#007272" width="162" x=".5" y="8.5"/><path clip-rule="evenodd" d="m135.28 21.22a.75.75 0 1 0 -1.06 1.06l4.5 4.5a.75.75 0 0 0 1.06 0l4.5-4.5a.75.75 0 0 0 -1.06-1.06l-3.97 3.97z" fill="#14555a" fill-rule="evenodd"/><path d="m23 30.14c2.36 0 4.03-1.17 4.77-2.97l-1.35-.86c-.61 1.53-1.7 2.41-3.45 2.41-2.49 0-4.23-2.03-4.23-5.02s1.74-5.02 4.23-5.02c1.8 0 2.95.84 3.47 2.5l1.4-.65c-.5-2-2.35-3.27-4.84-3.27-3.5 0-5.92 2.59-5.92 6.44s2.41 6.44 5.92 6.44zm11.3-9.28c-1.22 0-2.21.5-2.75 1.35v-4.81h-1.59v12.6h1.59v-5.24c0-1.6.92-2.63 2.36-2.63 1.33 0 2.05.8 2.05 2.25v5.62h1.58v-5.72c0-2.1-1.26-3.42-3.24-3.42zm9.35 9.28c2.54 0 4.43-1.85 4.43-4.64s-1.9-4.64-4.43-4.64c-2.54 0-4.43 1.85-4.43 4.64s1.89 4.64 4.43 4.64zm0-1.3c-1.66 0-2.86-1.32-2.86-3.34s1.2-3.35 2.86-3.35c1.65 0 2.86 1.33 2.86 3.35s-1.2 3.35-2.86 3.35zm10.26 1.3c2.54 0 4.43-1.85 4.43-4.64s-1.89-4.64-4.43-4.64c-2.53 0-4.42 1.85-4.42 4.64s1.89 4.64 4.42 4.64zm0-1.3c-1.65 0-2.86-1.32-2.86-3.34s1.2-3.35 2.86-3.35 2.87 1.33 2.87 3.35-1.21 3.35-2.87 3.35zm9.19 1.3c1.94 0 3.26-1.06 3.26-2.66 0-1.28-.81-2.14-2.36-2.54l-1.2-.29c-.93-.23-1.32-.6-1.32-1.26 0-.77.63-1.27 1.6-1.27.95 0 1.58.41 1.87 1.2l1.17-.68c-.43-1.15-1.5-1.78-3.04-1.78-1.85 0-3.08 1.04-3.08 2.59 0 1.22.81 2.09 2.36 2.46l1.13.3c.96.23 1.4.62 1.4 1.3 0 .87-.68 1.37-1.8 1.37-1.09 0-1.88-.46-2.31-1.36l-1.1.79c.63 1.19 1.83 1.83 3.42 1.83zm13.16-4.53c0-2.88-1.62-4.75-4.2-4.75-2.57 0-4.3 1.89-4.3 4.64 0 2.74 1.8 4.64 4.5 4.64 1.7 0 3.01-.68 3.71-1.92l-1.11-.76a2.78 2.78 0 0 1 -2.58 1.42c-1.53 0-2.86-.95-2.98-2.95h6.94c.02-.05.02-.25.02-.32zm-4.2-3.48c1.54 0 2.5 1 2.69 2.67h-5.42c.2-1.73 1.26-2.67 2.74-2.67zm11.25-2.46c.57 0 1.04-.49 1.04-1.06 0-.58-.47-1.05-1.04-1.05-.58 0-1.07.47-1.07 1.05 0 .57.49 1.06 1.07 1.06zm-.81 10.33h1.57v-9h-1.57zm8.4-9.14c-1.36 0-2.44.6-2.98 1.63v-1.49h-1.38v9h1.56v-5.2c0-1.62.92-2.67 2.36-2.67 1.33 0 2.07.8 2.07 2.22v5.65h1.57v-5.72c0-2.15-1.19-3.42-3.2-3.42zm11.17 9.28c.37 0 .64-.05.77-.1v-1.24a1.3 1.3 0 0 1 -.3.04c-.3 0-.55-.16-.55-.6v-10.84h-1.56v10.94c0 1.12.66 1.8 1.64 1.8zm3.6-10.47c.58 0 1.05-.49 1.05-1.06 0-.58-.47-1.05-1.05-1.05-.57 0-1.06.47-1.06 1.05 0 .57.49 1.06 1.06 1.06zm-.77 10.33h1.57v-9h-1.57zm7 .14c1.95 0 3.26-1.06 3.26-2.66 0-1.28-.8-2.14-2.35-2.54l-1.21-.29c-.92-.23-1.31-.6-1.31-1.26 0-.77.63-1.27 1.6-1.27.95 0 1.58.41 1.87 1.2l1.17-.68c-.43-1.15-1.51-1.78-3.04-1.78-1.86 0-3.08 1.04-3.08 2.59 0 1.22.81 2.09 2.36 2.46l1.13.3c.96.23 1.39.62 1.39 1.3 0 .87-.67 1.37-1.78 1.37-1.1 0-1.9-.46-2.33-1.36l-1.1.79c.64 1.19 1.84 1.83 3.43 1.83zm8.55-1.3c-.92 0-1.39-.42-1.39-1.29v-5.25h2.3v-1.3h-2.3v-2.8h-1.56v2.8h-1.53v1.3h1.53v5.29c0 1.64.97 2.55 2.68 2.55.52 0 1.03-.07 1.31-.18v-1.26c-.25.1-.63.15-1.04.15z" fill="#14555a"/><g fill="#db00ff" fill-opacity=".25"><path d="m0 8h163v8h-163zm0 24h163v8h-163z"/><path d="m0 8h16v32h-16zm147 0h16v32h-16z"/></g></svg>