<svg width="192" height="240" viewBox="0 0 192 240" fill="none" xmlns="http://www.w3.org/2000/svg">
<rect x="48" y="128" width="96" height="40" rx="20" fill="#008484"/>
<path d="M73.344 153H74.608V140.936H73.344V153ZM78.8741 153.144C80.3781 153.144 81.3541 152.328 81.7861 151.992C81.8981 152.776 82.6981 153.096 83.4661 153.096C83.5781 153.096 83.7381 153.08 83.8181 153.064L83.8661 152.088C83.4501 152.088 82.9221 151.944 82.9221 151.288V146.456C82.9221 144.744 81.7541 144.04 79.8341 144.04C78.6501 144.04 77.6741 144.296 77.0021 144.584L77.2901 145.576C78.0101 145.304 78.7141 145.144 79.6581 145.144C81.0341 145.144 81.6901 145.48 81.6901 146.872V147.992L79.6101 148.024C78.1861 148.056 76.2661 148.504 76.2661 150.68C76.2661 152.264 77.2901 153.144 78.8741 153.144ZM79.1621 152.12C78.2021 152.12 77.4821 151.64 77.4821 150.632C77.4821 149.608 78.2341 149 79.5941 148.952L81.6901 148.872V151.144C81.0341 151.624 80.1221 152.12 79.1621 152.12ZM88.0953 153.192C90.5913 153.192 92.5593 151.928 92.5593 148.376C92.5593 145.56 91.3113 144.104 88.9913 144.104C88.3193 144.104 87.8073 144.216 87.4873 144.392L87.5993 145.32C87.9353 145.208 88.3353 145.128 88.7993 145.128C90.8313 145.128 91.2633 146.776 91.2633 148.312C91.2633 150.552 90.3673 152.12 88.3193 152.12C87.6473 152.12 86.9273 151.96 86.5753 151.864V140.936H85.3273V152.712C86.0312 152.968 87.0713 153.192 88.0953 153.192ZM98.0549 153.192C99.1589 153.192 100.151 153 100.807 152.728L100.583 151.704C99.7669 151.96 99.1109 152.104 98.2629 152.104C96.5989 152.104 95.2229 151.576 95.1909 148.872H100.951V148.408C100.951 145.496 99.9429 144.04 97.7189 144.04C95.5909 144.04 93.9109 145.4 93.9109 148.808C93.9109 152.136 95.5109 153.192 98.0549 153.192ZM95.2069 147.928C95.3509 145.976 96.3269 145.032 97.5909 145.032C99.0149 145.032 99.6389 146.152 99.6389 147.928H95.2069ZM102.75 153H104.014V140.936H102.75V153Z" fill="white"/>
<path fill-rule="evenodd" clip-rule="evenodd" d="M118.28 142.97C117.987 142.677 117.513 142.677 117.22 142.97C116.927 143.263 116.927 143.737 117.22 144.03L121.189 148L117.22 151.97C116.927 152.263 116.927 152.737 117.22 153.03C117.513 153.323 117.987 153.323 118.28 153.03L122.78 148.53C123.073 148.237 123.073 147.763 122.78 147.47L118.28 142.97Z" fill="white"/>
<rect x="48" y="16" width="96" height="40" rx="20" fill="#008484"/>
<path d="M73.344 41H74.608V28.936H73.344V41ZM78.8741 41.144C80.3781 41.144 81.3541 40.328 81.7861 39.992C81.8981 40.776 82.6981 41.096 83.4661 41.096C83.5781 41.096 83.7381 41.08 83.8181 41.064L83.8661 40.088C83.4501 40.088 82.9221 39.944 82.9221 39.288V34.456C82.9221 32.744 81.7541 32.04 79.8341 32.04C78.6501 32.04 77.6741 32.296 77.0021 32.584L77.2901 33.576C78.0101 33.304 78.7141 33.144 79.6581 33.144C81.0341 33.144 81.6901 33.48 81.6901 34.872V35.992L79.6101 36.024C78.1861 36.056 76.2661 36.504 76.2661 38.68C76.2661 40.264 77.2901 41.144 78.8741 41.144ZM79.1621 40.12C78.2021 40.12 77.4821 39.64 77.4821 38.632C77.4821 37.608 78.2341 37 79.5941 36.952L81.6901 36.872V39.144C81.0341 39.624 80.1221 40.12 79.1621 40.12ZM88.0953 41.192C90.5913 41.192 92.5593 39.928 92.5593 36.376C92.5593 33.56 91.3113 32.104 88.9913 32.104C88.3193 32.104 87.8073 32.216 87.4873 32.392L87.5993 33.32C87.9353 33.208 88.3353 33.128 88.7993 33.128C90.8313 33.128 91.2633 34.776 91.2633 36.312C91.2633 38.552 90.3673 40.12 88.3193 40.12C87.6473 40.12 86.9273 39.96 86.5753 39.864V28.936H85.3273V40.712C86.0312 40.968 87.0713 41.192 88.0953 41.192ZM98.0549 41.192C99.1589 41.192 100.151 41 100.807 40.728L100.583 39.704C99.7669 39.96 99.1109 40.104 98.2629 40.104C96.5989 40.104 95.2229 39.576 95.1909 36.872H100.951V36.408C100.951 33.496 99.9429 32.04 97.7189 32.04C95.5909 32.04 93.9109 33.4 93.9109 36.808C93.9109 40.136 95.5109 41.192 98.0549 41.192ZM95.2069 35.928C95.3509 33.976 96.3269 33.032 97.5909 33.032C99.0149 33.032 99.6389 34.152 99.6389 35.928H95.2069ZM102.75 41H104.014V28.936H102.75V41Z" fill="white"/>
<path fill-rule="evenodd" clip-rule="evenodd" d="M118.28 30.9697C117.987 30.6768 117.513 30.6768 117.22 30.9697C116.927 31.2626 116.927 31.7374 117.22 32.0303L121.189 36L117.22 39.9697C116.927 40.2626 116.927 40.7374 117.22 41.0303C117.513 41.3232 117.987 41.3232 118.28 41.0303L122.78 36.5303C123.073 36.2374 123.073 35.7626 122.78 35.4697L118.28 30.9697Z" fill="white"/>
<rect x="72" y="128" width="32" height="88" fill="#00D9FF" fill-opacity="0.5"/>
<path d="M103.87 194.354C104.065 194.158 104.065 193.842 103.87 193.646L100.688 190.464C100.492 190.269 100.176 190.269 99.9804 190.464C99.7852 190.66 99.7852 190.976 99.9804 191.172L102.809 194L99.9804 196.828C99.7852 197.024 99.7852 197.34 99.9804 197.536C100.176 197.731 100.492 197.731 100.688 197.536L103.87 194.354ZM96.8697 194.5H103.516V193.5H96.8697V194.5Z" fill="black"/>
<path d="M72.1465 193.646C71.9513 193.842 71.9513 194.158 72.1465 194.354L75.3285 197.536C75.5238 197.731 75.8403 197.731 76.0356 197.536C76.2309 197.34 76.2309 197.024 76.0356 196.828L73.2072 194L76.0356 191.172C76.2309 190.976 76.2309 190.66 76.0356 190.464C75.8403 190.269 75.5238 190.269 75.3285 190.464L72.1465 193.646ZM79.1464 193.5H72.5001V194.5H79.1464V193.5Z" fill="black"/>
<path d="M80.6232 194H83.5051L86.3869 186L89.2688 202L92.1507 194H95.3928" stroke="#333333" stroke-linecap="round" stroke-linejoin="round"/>
<rect x="48" y="128" width="24" height="88" fill="#DB00FF" fill-opacity="0.25"/>
<rect x="128" y="128" width="16" height="88" fill="#DB00FF" fill-opacity="0.25"/>
<rect x="104" y="128" width="8" height="88" fill="#DB00FF" fill-opacity="0.25"/>
<rect x="112" y="128" width="16" height="88" fill="#FFFF7A" fill-opacity="0.5"/>
<path d="M119.723 221.7C120.101 221.7 120.431 221.775 120.713 221.925C121.001 222.075 121.22 222.282 121.37 222.546C121.52 222.804 121.595 223.098 121.595 223.428C121.595 223.812 121.505 224.184 121.325 224.544C121.151 224.904 120.869 225.3 120.479 225.732C120.089 226.158 119.537 226.698 118.823 227.352H121.739L121.649 228H117.959V227.388C118.769 226.614 119.369 226.008 119.759 225.57C120.155 225.132 120.428 224.757 120.578 224.445C120.728 224.133 120.803 223.803 120.803 223.455C120.803 223.107 120.704 222.834 120.506 222.636C120.308 222.438 120.035 222.339 119.687 222.339C119.393 222.339 119.147 222.39 118.949 222.492C118.757 222.588 118.559 222.756 118.355 222.996L117.833 222.591C118.079 222.285 118.352 222.06 118.652 221.916C118.958 221.772 119.315 221.7 119.723 221.7Z" fill="black"/>
<path d="M135.723 221.7C136.101 221.7 136.431 221.775 136.713 221.925C137.001 222.075 137.22 222.282 137.37 222.546C137.52 222.804 137.595 223.098 137.595 223.428C137.595 223.812 137.505 224.184 137.325 224.544C137.151 224.904 136.869 225.3 136.479 225.732C136.089 226.158 135.537 226.698 134.823 227.352H137.739L137.649 228H133.959V227.388C134.769 226.614 135.369 226.008 135.759 225.57C136.155 225.132 136.428 224.757 136.578 224.445C136.728 224.133 136.803 223.803 136.803 223.455C136.803 223.107 136.704 222.834 136.506 222.636C136.308 222.438 136.035 222.339 135.687 222.339C135.393 222.339 135.147 222.39 134.949 222.492C134.757 222.588 134.559 222.756 134.355 222.996L133.833 222.591C134.079 222.285 134.352 222.06 134.652 221.916C134.958 221.772 135.315 221.7 135.723 221.7Z" fill="black"/>
<path d="M109.955 227.388V228H106.382V227.388H107.903V222.627L106.49 223.482L106.157 222.951L108.002 221.799H108.668V227.388H109.955Z" fill="black"/>
<path d="M59.7228 221.7C60.1008 221.7 60.4338 221.772 60.7218 221.916C61.0098 222.054 61.2318 222.243 61.3878 222.483C61.5438 222.717 61.6218 222.975 61.6218 223.257C61.6218 223.617 61.5048 223.932 61.2708 224.202C61.0368 224.466 60.7518 224.631 60.4158 224.697C60.8058 224.727 61.1358 224.874 61.4058 225.138C61.6818 225.402 61.8198 225.762 61.8198 226.218C61.8198 226.572 61.7298 226.893 61.5498 227.181C61.3698 227.469 61.1148 227.694 60.7848 227.856C60.4608 228.018 60.0888 228.099 59.6688 228.099C59.3028 228.099 58.9488 228.03 58.6068 227.892C58.2708 227.754 57.9918 227.55 57.7698 227.28L58.2738 226.866C58.4418 227.064 58.6458 227.217 58.8858 227.325C59.1318 227.427 59.3868 227.478 59.6508 227.478C60.0828 227.478 60.4188 227.367 60.6588 227.145C60.9048 226.917 61.0278 226.608 61.0278 226.218C61.0278 225.432 60.5988 225.039 59.7408 225.039H59.2278L59.3178 224.436H59.6868C60.0108 224.436 60.2868 224.346 60.5148 224.166C60.7428 223.98 60.8568 223.71 60.8568 223.356C60.8568 223.026 60.7458 222.771 60.5238 222.591C60.3078 222.405 60.0288 222.312 59.6868 222.312C59.4288 222.312 59.1978 222.357 58.9938 222.447C58.7958 222.537 58.5888 222.681 58.3728 222.879L57.9588 222.42C58.4628 221.94 59.0508 221.7 59.7228 221.7Z" fill="black"/>
<rect x="47.9016" y="72" width="96" height="40" rx="20" fill="#008484"/>
<path d="M73.2456 97H74.5096V84.936H73.2456V97ZM78.7757 97.144C80.2797 97.144 81.2557 96.328 81.6877 95.992C81.7997 96.776 82.5997 97.096 83.3677 97.096C83.4797 97.096 83.6397 97.08 83.7197 97.064L83.7677 96.088C83.3517 96.088 82.8237 95.944 82.8237 95.288V90.456C82.8237 88.744 81.6557 88.04 79.7357 88.04C78.5517 88.04 77.5757 88.296 76.9037 88.584L77.1917 89.576C77.9117 89.304 78.6157 89.144 79.5597 89.144C80.9357 89.144 81.5917 89.48 81.5917 90.872V91.992L79.5117 92.024C78.0877 92.056 76.1677 92.504 76.1677 94.68C76.1677 96.264 77.1917 97.144 78.7757 97.144ZM79.0637 96.12C78.1037 96.12 77.3837 95.64 77.3837 94.632C77.3837 93.608 78.1357 93 79.4957 92.952L81.5917 92.872V95.144C80.9357 95.624 80.0237 96.12 79.0637 96.12ZM87.9969 97.192C90.4929 97.192 92.4609 95.928 92.4609 92.376C92.4609 89.56 91.2129 88.104 88.8929 88.104C88.2209 88.104 87.7089 88.216 87.3889 88.392L87.5009 89.32C87.8369 89.208 88.2369 89.128 88.7009 89.128C90.7329 89.128 91.1649 90.776 91.1649 92.312C91.1649 94.552 90.2689 96.12 88.2209 96.12C87.5489 96.12 86.8289 95.96 86.4769 95.864V84.936H85.2289V96.712C85.9329 96.968 86.9729 97.192 87.9969 97.192ZM97.9565 97.192C99.0605 97.192 100.052 97 100.708 96.728L100.484 95.704C99.6685 95.96 99.0125 96.104 98.1645 96.104C96.5005 96.104 95.1245 95.576 95.0925 92.872H100.852V92.408C100.852 89.496 99.8445 88.04 97.6205 88.04C95.4925 88.04 93.8125 89.4 93.8125 92.808C93.8125 96.136 95.4125 97.192 97.9565 97.192ZM95.1085 91.928C95.2525 89.976 96.2285 89.032 97.4925 89.032C98.9165 89.032 99.5405 90.152 99.5405 91.928H95.1085ZM102.652 97H103.916V84.936H102.652V97Z" fill="white"/>
<path fill-rule="evenodd" clip-rule="evenodd" d="M118.182 86.9697C117.889 86.6768 117.414 86.6768 117.121 86.9697C116.828 87.2626 116.828 87.7374 117.121 88.0303L121.091 92L117.121 95.9697C116.828 96.2626 116.828 96.7374 117.121 97.0303C117.414 97.3232 117.889 97.3232 118.182 97.0303L122.682 92.5303C122.975 92.2374 122.975 91.7626 122.682 91.4697L118.182 86.9697Z" fill="white"/>
<rect x="32" y="72" width="128" height="8" fill="#DB00FF" fill-opacity="0.25"/>
<rect x="32" y="104" width="128" height="8" fill="#DB00FF" fill-opacity="0.25"/>
<rect x="32" y="84" width="128" height="16" fill="#00D9FF" fill-opacity="0.5"/>
<rect x="32" y="80" width="128" height="4" fill="#FFFF7A" fill-opacity="0.5"/>
<rect x="32" y="100" width="128" height="4" fill="#FFFF7A" fill-opacity="0.5"/>
<rect x="112" y="84" width="16" height="16" fill="#DB00FF" fill-opacity="0.25"/>
<path d="M12.0561 78.7C12.7161 78.7 13.2171 78.976 13.5591 79.528C13.9071 80.074 14.0811 80.863 14.0811 81.895C14.0811 82.933 13.9071 83.728 13.5591 84.28C13.2171 84.826 12.7161 85.099 12.0561 85.099C11.3961 85.099 10.8921 84.826 10.5441 84.28C10.2021 83.728 10.0311 82.933 10.0311 81.895C10.0311 80.863 10.2021 80.074 10.5441 79.528C10.8921 78.976 11.3961 78.7 12.0561 78.7ZM12.0561 79.312C11.2341 79.312 10.8231 80.173 10.8231 81.895C10.8231 83.623 11.2341 84.487 12.0561 84.487C12.8781 84.487 13.2891 83.623 13.2891 81.895C13.2891 80.173 12.8781 79.312 12.0561 79.312ZM12.0561 81.31C12.2241 81.31 12.3651 81.367 12.4791 81.481C12.5931 81.595 12.6501 81.733 12.6501 81.895C12.6501 82.063 12.5931 82.204 12.4791 82.318C12.3651 82.432 12.2241 82.489 12.0561 82.489C11.8881 82.489 11.7471 82.432 11.6331 82.318C11.5251 82.204 11.4711 82.063 11.4711 81.895C11.4711 81.733 11.5251 81.595 11.6331 81.481C11.7471 81.367 11.8881 81.31 12.0561 81.31ZM16.6516 84.307C16.6516 84.085 16.7266 83.899 16.8766 83.749C17.0326 83.593 17.2216 83.515 17.4436 83.515C17.6716 83.515 17.8606 83.593 18.0106 83.749C18.1606 83.899 18.2356 84.085 18.2356 84.307C18.2356 84.535 18.1606 84.724 18.0106 84.874C17.8606 85.024 17.6716 85.099 17.4436 85.099C17.2216 85.099 17.0326 85.024 16.8766 84.874C16.7266 84.718 16.6516 84.529 16.6516 84.307ZM24.424 79.411H21.976V81.364C22.15 81.262 22.321 81.193 22.489 81.157C22.663 81.115 22.846 81.094 23.038 81.094C23.554 81.094 23.965 81.265 24.271 81.607C24.583 81.949 24.739 82.426 24.739 83.038C24.739 83.446 24.652 83.806 24.478 84.118C24.31 84.43 24.067 84.673 23.749 84.847C23.431 85.015 23.062 85.099 22.642 85.099C21.952 85.099 21.352 84.853 20.842 84.361L21.31 83.902C21.688 84.286 22.132 84.478 22.642 84.478C23.056 84.478 23.377 84.352 23.605 84.1C23.833 83.848 23.947 83.485 23.947 83.011C23.947 82.543 23.845 82.207 23.641 82.003C23.437 81.793 23.164 81.688 22.822 81.688C22.66 81.688 22.513 81.703 22.381 81.733C22.249 81.763 22.075 81.817 21.859 81.895H21.247V78.799H24.532L24.424 79.411Z" fill="black"/>
<path d="M12.0561 98.7C12.7161 98.7 13.2171 98.976 13.5591 99.528C13.9071 100.074 14.0811 100.863 14.0811 101.895C14.0811 102.933 13.9071 103.728 13.5591 104.28C13.2171 104.826 12.7161 105.099 12.0561 105.099C11.3961 105.099 10.8921 104.826 10.5441 104.28C10.2021 103.728 10.0311 102.933 10.0311 101.895C10.0311 100.863 10.2021 100.074 10.5441 99.528C10.8921 98.976 11.3961 98.7 12.0561 98.7ZM12.0561 99.312C11.2341 99.312 10.8231 100.173 10.8231 101.895C10.8231 103.623 11.2341 104.487 12.0561 104.487C12.8781 104.487 13.2891 103.623 13.2891 101.895C13.2891 100.173 12.8781 99.312 12.0561 99.312ZM12.0561 101.31C12.2241 101.31 12.3651 101.367 12.4791 101.481C12.5931 101.595 12.6501 101.733 12.6501 101.895C12.6501 102.063 12.5931 102.204 12.4791 102.318C12.3651 102.432 12.2241 102.489 12.0561 102.489C11.8881 102.489 11.7471 102.432 11.6331 102.318C11.5251 102.204 11.4711 102.063 11.4711 101.895C11.4711 101.733 11.5251 101.595 11.6331 101.481C11.7471 101.367 11.8881 101.31 12.0561 101.31ZM16.6516 104.307C16.6516 104.085 16.7266 103.899 16.8766 103.749C17.0326 103.593 17.2216 103.515 17.4436 103.515C17.6716 103.515 17.8606 103.593 18.0106 103.749C18.1606 103.899 18.2356 104.085 18.2356 104.307C18.2356 104.535 18.1606 104.724 18.0106 104.874C17.8606 105.024 17.6716 105.099 17.4436 105.099C17.2216 105.099 17.0326 105.024 16.8766 104.874C16.7266 104.718 16.6516 104.529 16.6516 104.307ZM24.424 99.411H21.976V101.364C22.15 101.262 22.321 101.193 22.489 101.157C22.663 101.115 22.846 101.094 23.038 101.094C23.554 101.094 23.965 101.265 24.271 101.607C24.583 101.949 24.739 102.426 24.739 103.038C24.739 103.446 24.652 103.806 24.478 104.118C24.31 104.43 24.067 104.673 23.749 104.847C23.431 105.015 23.062 105.099 22.642 105.099C21.952 105.099 21.352 104.853 20.842 104.361L21.31 103.902C21.688 104.286 22.132 104.478 22.642 104.478C23.056 104.478 23.377 104.352 23.605 104.1C23.833 103.848 23.947 103.485 23.947 103.011C23.947 102.543 23.845 102.207 23.641 102.003C23.437 101.793 23.164 101.688 22.822 101.688C22.66 101.688 22.513 101.703 22.381 101.733C22.249 101.763 22.075 101.817 21.859 101.895H21.247V98.799H24.532L24.424 99.411Z" fill="black"/>
<path d="M172.955 79.388V80H169.382V79.388H170.903V74.627L169.49 75.482L169.157 74.951L171.002 73.799H171.668V79.388H172.955Z" fill="black"/>
<path d="M172.955 111.388V112H169.382V111.388H170.903V106.627L169.49 107.482L169.157 106.951L171.002 105.799H171.668V111.388H172.955Z" fill="black"/>
<path d="M170.723 89.7C171.101 89.7 171.431 89.775 171.713 89.925C172.001 90.075 172.22 90.282 172.37 90.546C172.52 90.804 172.595 91.098 172.595 91.428C172.595 91.812 172.505 92.184 172.325 92.544C172.151 92.904 171.869 93.3 171.479 93.732C171.089 94.158 170.537 94.698 169.823 95.352H172.739L172.649 96H168.959V95.388C169.769 94.614 170.369 94.008 170.759 93.57C171.155 93.132 171.428 92.757 171.578 92.445C171.728 92.133 171.803 91.803 171.803 91.455C171.803 91.107 171.704 90.834 171.506 90.636C171.308 90.438 171.035 90.339 170.687 90.339C170.393 90.339 170.147 90.39 169.949 90.492C169.757 90.588 169.559 90.756 169.355 90.996L168.833 90.591C169.079 90.285 169.352 90.06 169.652 89.916C169.958 89.772 170.315 89.7 170.723 89.7Z" fill="black"/>
</svg>
