<svg width="432" height="120" viewBox="0 0 432 120" fill="none" xmlns="http://www.w3.org/2000/svg">
<rect x="16" y="16" width="96" height="40" rx="20" fill="#008484"/>
<path d="M40.696 41H44.264C47.176 41 48.264 39.656 48.264 37.784C48.264 36.104 47.064 35.256 45.88 35.048V35C46.824 34.664 47.448 33.752 47.448 32.536C47.448 30.888 46.344 29.688 43.784 29.688H40.696V41ZM42.008 39.912V35.72H43.784C45.704 35.72 46.92 36.296 46.92 37.832C46.92 39.56 45.592 39.912 44.024 39.912H42.008ZM42.008 34.664V30.712H43.448C45.144 30.712 46.104 31.208 46.104 32.744C46.104 33.976 45.4 34.664 43.96 34.664H42.008ZM52.7612 41.192C54.2332 41.192 55.0972 40.568 55.9292 39.976V41H57.1452V32.264H55.9292V38.952C55.2572 39.432 54.2332 40.04 53.1132 40.04C51.5452 40.04 51.4332 38.952 51.4332 37.576V32.264H50.1852V37.832C50.1852 39.304 50.3612 41.192 52.7612 41.192ZM62.5367 41.192C63.1287 41.192 63.9447 41.032 64.3927 40.872L64.1687 39.832C63.8007 39.96 63.1767 40.088 62.6967 40.088C61.6887 40.088 61.1287 39.752 61.1287 38.52V33.336H63.8487V32.264H61.1127V30.472H59.8807V32.264H58.6007V33.336H59.8807V38.568C59.8807 40.632 60.9047 41.192 62.5367 41.192ZM68.645 41.192C69.237 41.192 70.053 41.032 70.501 40.872L70.277 39.832C69.909 39.96 69.285 40.088 68.805 40.088C67.797 40.088 67.237 39.752 67.237 38.52V33.336H69.957V32.264H67.221V30.472H65.989V32.264H64.709V33.336H65.989V38.568C65.989 40.632 67.013 41.192 68.645 41.192ZM75.1693 41.192C77.4573 41.192 79.1533 39.736 79.1533 36.584C79.1533 33.704 77.8253 32.04 75.3453 32.04C72.9133 32.04 71.2813 33.704 71.2813 36.728C71.2813 39.592 72.7693 41.192 75.1693 41.192ZM75.2493 40.152C73.2013 40.152 72.5613 38.456 72.5613 36.664C72.5613 35 73.1053 33.08 75.2493 33.08C77.3933 33.08 77.8733 35.016 77.8733 36.664C77.8733 38.376 77.3613 40.152 75.2493 40.152ZM81.0732 41H82.3372V34.232C83.1212 33.688 84.0172 33.16 85.1372 33.16C86.6252 33.16 86.8652 34.104 86.8652 35.608V41H88.0972V35.368C88.0972 33.896 87.9372 32.04 85.4572 32.04C84.0972 32.04 83.2492 32.584 82.3372 33.256V32.264H81.0732V41Z" fill="white"/>
<rect x="128" y="16" width="96" height="40" rx="20" fill="#008484"/>
<path d="M152.696 41H156.264C159.176 41 160.264 39.656 160.264 37.784C160.264 36.104 159.064 35.256 157.88 35.048V35C158.824 34.664 159.448 33.752 159.448 32.536C159.448 30.888 158.344 29.688 155.784 29.688H152.696V41ZM154.008 39.912V35.72H155.784C157.704 35.72 158.92 36.296 158.92 37.832C158.92 39.56 157.592 39.912 156.024 39.912H154.008ZM154.008 34.664V30.712H155.448C157.144 30.712 158.104 31.208 158.104 32.744C158.104 33.976 157.4 34.664 155.96 34.664H154.008ZM164.761 41.192C166.233 41.192 167.097 40.568 167.929 39.976V41H169.145V32.264H167.929V38.952C167.257 39.432 166.233 40.04 165.113 40.04C163.545 40.04 163.433 38.952 163.433 37.576V32.264H162.185V37.832C162.185 39.304 162.361 41.192 164.761 41.192ZM174.537 41.192C175.129 41.192 175.945 41.032 176.393 40.872L176.169 39.832C175.801 39.96 175.177 40.088 174.697 40.088C173.689 40.088 173.129 39.752 173.129 38.52V33.336H175.849V32.264H173.113V30.472H171.881V32.264H170.601V33.336H171.881V38.568C171.881 40.632 172.905 41.192 174.537 41.192ZM180.645 41.192C181.237 41.192 182.053 41.032 182.501 40.872L182.277 39.832C181.909 39.96 181.285 40.088 180.805 40.088C179.797 40.088 179.237 39.752 179.237 38.52V33.336H181.957V32.264H179.221V30.472H177.989V32.264H176.709V33.336H177.989V38.568C177.989 40.632 179.013 41.192 180.645 41.192ZM187.169 41.192C189.457 41.192 191.153 39.736 191.153 36.584C191.153 33.704 189.825 32.04 187.345 32.04C184.913 32.04 183.281 33.704 183.281 36.728C183.281 39.592 184.769 41.192 187.169 41.192ZM187.249 40.152C185.201 40.152 184.561 38.456 184.561 36.664C184.561 35 185.105 33.08 187.249 33.08C189.393 33.08 189.873 35.016 189.873 36.664C189.873 38.376 189.361 40.152 187.249 40.152ZM193.073 41H194.337V34.232C195.121 33.688 196.017 33.16 197.137 33.16C198.625 33.16 198.865 34.104 198.865 35.608V41H200.097V35.368C200.097 33.896 199.937 32.04 197.457 32.04C196.097 32.04 195.249 32.584 194.337 33.256V32.264H193.073V41Z" fill="white"/>
<rect x="248" y="16" width="96" height="40" rx="20" fill="#008484"/>
<path d="M272.696 41H276.264C279.176 41 280.264 39.656 280.264 37.784C280.264 36.104 279.064 35.256 277.88 35.048V35C278.824 34.664 279.448 33.752 279.448 32.536C279.448 30.888 278.344 29.688 275.784 29.688H272.696V41ZM274.008 39.912V35.72H275.784C277.704 35.72 278.92 36.296 278.92 37.832C278.92 39.56 277.592 39.912 276.024 39.912H274.008ZM274.008 34.664V30.712H275.448C277.144 30.712 278.104 31.208 278.104 32.744C278.104 33.976 277.4 34.664 275.96 34.664H274.008ZM284.761 41.192C286.233 41.192 287.097 40.568 287.929 39.976V41H289.145V32.264H287.929V38.952C287.257 39.432 286.233 40.04 285.113 40.04C283.545 40.04 283.433 38.952 283.433 37.576V32.264H282.185V37.832C282.185 39.304 282.361 41.192 284.761 41.192ZM294.537 41.192C295.129 41.192 295.945 41.032 296.393 40.872L296.169 39.832C295.801 39.96 295.177 40.088 294.697 40.088C293.689 40.088 293.129 39.752 293.129 38.52V33.336H295.849V32.264H293.113V30.472H291.881V32.264H290.601V33.336H291.881V38.568C291.881 40.632 292.905 41.192 294.537 41.192ZM300.645 41.192C301.237 41.192 302.053 41.032 302.501 40.872L302.277 39.832C301.909 39.96 301.285 40.088 300.805 40.088C299.797 40.088 299.237 39.752 299.237 38.52V33.336H301.957V32.264H299.221V30.472H297.989V32.264H296.709V33.336H297.989V38.568C297.989 40.632 299.013 41.192 300.645 41.192ZM307.169 41.192C309.457 41.192 311.153 39.736 311.153 36.584C311.153 33.704 309.825 32.04 307.345 32.04C304.913 32.04 303.281 33.704 303.281 36.728C303.281 39.592 304.769 41.192 307.169 41.192ZM307.249 40.152C305.201 40.152 304.561 38.456 304.561 36.664C304.561 35 305.105 33.08 307.249 33.08C309.393 33.08 309.873 35.016 309.873 36.664C309.873 38.376 309.361 40.152 307.249 40.152ZM313.073 41H314.337V34.232C315.121 33.688 316.017 33.16 317.137 33.16C318.625 33.16 318.865 34.104 318.865 35.608V41H320.097V35.368C320.097 33.896 319.937 32.04 317.457 32.04C316.097 32.04 315.249 32.584 314.337 33.256V32.264H313.073V41Z" fill="white"/>
<path d="M113.983 111.925H115.099L116.803 109.237L118.483 111.925H119.623L117.343 108.553L119.455 105.373H118.399L116.803 107.905L115.219 105.373H114.115L116.263 108.577L113.983 111.925ZM125.787 111.925V111.097H121.527C123.495 109.297 125.259 107.569 125.259 105.733C125.259 104.629 124.863 103.345 122.823 103.345C121.635 103.345 120.951 103.765 120.591 104.005L120.963 104.689C121.167 104.569 121.779 104.185 122.739 104.185C123.735 104.185 124.299 104.569 124.299 105.841C124.299 107.689 120.591 110.845 120.303 111.145V111.925H125.787Z" fill="black"/>
<path d="M230.188 111.925H231.304L233.008 109.237L234.688 111.925H235.828L233.548 108.553L235.66 105.373H234.604L233.008 107.905L231.424 105.373H230.32L232.468 108.577L230.188 111.925ZM241.344 109.705C241.344 108.397 240.276 107.641 239.376 107.413C240.036 107.221 240.948 106.477 240.948 105.325C240.948 104.017 240 103.345 238.62 103.345C237.804 103.345 237.216 103.561 236.844 103.729L237.132 104.425C237.132 104.425 237.756 104.161 238.572 104.161C239.34 104.161 240.036 104.449 240.036 105.409C240.036 106.345 239.124 107.029 238.08 107.113V107.905C239.424 107.989 240.408 108.613 240.408 109.717C240.408 111.013 239.448 111.181 238.488 111.181C237.648 111.181 236.964 110.989 236.664 110.893L236.436 111.685C236.436 111.685 237.192 112.033 238.608 112.033C240.144 112.033 241.344 111.469 241.344 109.705Z" fill="black"/>
<path d="M353.743 111.925H354.859L356.563 109.237L358.243 111.925H359.383L357.103 108.553L359.215 105.373H358.159L356.563 107.905L354.979 105.373H353.875L356.023 108.577L353.743 111.925ZM366.135 109.657V108.817H364.671V103.441H363.255L359.979 108.817V109.657H363.723V111.925H364.671V109.657H366.135ZM363.723 108.817H360.915L363.723 104.161V108.817Z" fill="black"/>
<path d="M7.13119 111.925H8.24719L9.95119 109.237L11.6312 111.925H12.7712L10.4912 108.553L12.6032 105.373H11.5472L9.95119 107.905L8.36719 105.373H7.26319L9.41119 108.577L7.13119 111.925ZM15.8515 111.925V103.441L13.2115 103.513V104.257H14.9035V111.925H15.8515Z" fill="black"/>
<path d="M407.405 66.9624H408.521L410.225 64.2744L411.905 66.9624H413.045L410.765 63.5904L412.877 60.4104H411.821L410.225 62.9424L408.641 60.4104H407.537L409.685 63.6144L407.405 66.9624ZM419.209 66.9624V66.1344H414.949C416.917 64.3344 418.681 62.6064 418.681 60.7704C418.681 59.6664 418.285 58.3824 416.245 58.3824C415.057 58.3824 414.373 58.8024 414.013 59.0424L414.385 59.7264C414.589 59.6064 415.201 59.2224 416.161 59.2224C417.157 59.2224 417.721 59.6064 417.721 60.8784C417.721 62.7264 414.013 65.8824 413.725 66.1824V66.9624H419.209Z" fill="black"/>
<path d="M406.975 14.9624H408.091L409.795 12.2744L411.475 14.9624H412.615L410.335 11.5904L412.447 8.4104H411.391L409.795 10.9424L408.211 8.4104H407.107L409.255 11.6144L406.975 14.9624ZM415.695 14.9624V6.4784L413.055 6.5504V7.2944H414.747V14.9624H415.695Z" fill="black"/>
<rect x="8" y="8" width="8" height="80" fill="#DB00FF" fill-opacity="0.25"/>
<rect x="112" y="8" width="8" height="80" fill="#DB00FF" fill-opacity="0.25"/>
<rect x="120" y="8" width="8" height="80" fill="#00D9FF" fill-opacity="0.25"/>
<rect x="224" y="8" width="8" height="80" fill="#DB00FF" fill-opacity="0.25"/>
<rect x="240" y="8" width="8" height="80" fill="#DB00FF" fill-opacity="0.25"/>
<rect x="232" y="8" width="8" height="80" fill="#00D9FF" fill-opacity="0.25"/>
<rect x="344" y="8" width="8" height="80" fill="#DB00FF" fill-opacity="0.25"/>
<rect x="360" y="8" width="8" height="80" fill="#DB00FF" fill-opacity="0.25"/>
<rect x="352" y="8" width="8" height="80" fill="#00D9FF" fill-opacity="0.25"/>
<rect x="368" y="8" width="8" height="80" fill="#00D9FF" fill-opacity="0.25"/>
<rect x="8" y="8" width="384" height="8" fill="#DB00FF" fill-opacity="0.25"/>
<rect x="8" y="64" width="384" height="8" fill="#DB00FF" fill-opacity="0.25"/>
<rect x="8" y="56" width="384" height="8" fill="#00D9FF" fill-opacity="0.25"/>
<line x1="392.5" y1="11.5" x2="403.5" y2="11.5" stroke="#B3B3B3" stroke-linecap="round" stroke-dasharray="2 3"/>
<line x1="392.5" y1="64.5" x2="403.5" y2="64.5" stroke="#B3B3B3" stroke-linecap="round" stroke-dasharray="2 3"/>
<line x1="359.5" y1="99.5" x2="359.5" y2="88.5" stroke="#B3B3B3" stroke-linecap="round" stroke-dasharray="2 3"/>
<line x1="236.5" y1="99.5" x2="236.5" y2="88.5" stroke="#B3B3B3" stroke-linecap="round" stroke-dasharray="2 3"/>
<line x1="120.5" y1="99.5" x2="120.5" y2="88.5" stroke="#B3B3B3" stroke-linecap="round" stroke-dasharray="2 3"/>
<line x1="12.5" y1="99.5" x2="12.5" y2="88.5" stroke="#B3B3B3" stroke-linecap="round" stroke-dasharray="2 3"/>
</svg>
