<svg fill="none" height="400" width="230" xmlns="http://www.w3.org/2000/svg" xmlns:xlink="http://www.w3.org/1999/xlink"><filter id="a" color-interpolation-filters="sRGB" filterUnits="userSpaceOnUse" height="350" width="218" x="6" y="38"><feFlood flood-opacity="0" result="BackgroundImageFix"/><feColorMatrix in="SourceAlpha" values="0 0 0 0 0 0 0 0 0 0 0 0 0 0 0 0 0 0 127 0"/><feOffset/><feGaussianBlur stdDeviation="2"/><feColorMatrix values="0 0 0 0 0 0 0 0 0 0 0 0 0 0 0 0 0 0 0.25 0"/><feBlend in2="BackgroundImageFix" result="effect1_dropShadow"/><feBlend in="SourceGraphic" in2="effect1_dropShadow" result="shape"/></filter><path d="m.5.5h229v399h-229z" fill="#fcfcfc" stroke="#e5e5e5"/><rect fill="#f8f8f8" filter="url(#a)" height="342" rx="4" width="210" x="10" y="42"/><path d="m19.885 21.395h-2.742v7.605h-1.12v-7.605h-2.736v-.926h6.598v.925zm6.088 3.662h-3.698v3.023h4.295v.92h-5.42v-8.531h5.362v.925h-4.237v2.743h3.698zm4.78-1.319 2.046-3.27h1.324l-2.695 4.232 2.76 4.3h-1.336l-2.098-3.328-2.11 3.328h-1.33l2.766-4.3-2.701-4.231h1.318l2.057 3.27zm10.636-2.343h-2.742v7.605h-1.12v-7.605h-2.736v-.926h6.598v.925zm-5.357 44.732h-3.199v8.873h-1.306v-8.873h-3.192v-1.08h7.697zm3.664 9.01c-1.002 0-1.818-.328-2.447-.985-.629-.66-.943-1.542-.943-2.645v-.233c0-.733.139-1.387.417-1.962a3.283 3.283 0 0 1 1.175-1.353 2.958 2.958 0 0 1 1.641-.492c.962 0 1.709.317 2.242.95.534.633.8 1.54.8 2.72v.527h-5.01c.018.73.23 1.32.635 1.77.41.447.93.67 1.559.67.446 0 .825-.09 1.134-.273.31-.182.581-.424.814-.725l.772.602c-.62.953-1.55 1.429-2.789 1.429zm-.157-6.631c-.51 0-.939.187-1.285.56-.346.37-.56.89-.643 1.559h3.705v-.096c-.036-.642-.21-1.139-.52-1.49-.309-.355-.728-.533-1.257-.533zm6.993 1.798 1.64-2.7h1.477l-2.42 3.657 2.497 3.739h-1.463l-1.71-2.769-1.708 2.769h-1.47l2.495-3.74-2.42-3.657h1.463l1.62 2.7zm6.18-4.492v1.791h1.38v.978h-1.38v4.587c0 .296.061.52.184.67.123.146.333.219.63.219.145 0 .346-.028.601-.082v1.025a3.669 3.669 0 0 1 -.97.137c-.566 0-.992-.171-1.28-.513-.286-.342-.43-.827-.43-1.456v-4.587h-1.346v-.978h1.346v-1.79h1.265zm9.468 4.752c-1.126-.324-1.946-.72-2.461-1.19a2.294 2.294 0 0 1 -.766-1.75c0-.784.312-1.431.937-1.941.629-.515 1.444-.773 2.447-.773.683 0 1.292.132 1.825.397.538.264.953.629 1.244 1.093.296.465.445.973.445 1.525h-1.32c0-.602-.191-1.073-.574-1.415-.383-.347-.923-.52-1.62-.52-.647 0-1.153.144-1.518.43-.36.284-.54.678-.54 1.183 0 .406.171.75.513 1.033.346.278.932.533 1.757.765.83.233 1.476.49 1.941.773.47.278.816.604 1.04.977.227.374.341.814.341 1.32 0 .806-.314 1.453-.943 1.941-.63.483-1.47.725-2.523.725-.683 0-1.321-.13-1.914-.39-.592-.264-1.05-.624-1.374-1.08a2.64 2.64 0 0 1 -.478-1.552h1.319c0 .602.221 1.078.663 1.429.447.346 1.041.52 1.784.52.693 0 1.224-.142 1.593-.424.37-.283.554-.668.554-1.156 0-.487-.171-.863-.513-1.128-.342-.268-.962-.533-1.86-.792zm6.897-4.751v1.79h1.381v.978h-1.38v4.587c0 .296.06.52.184.67.123.146.332.219.629.219.145 0 .346-.028.601-.082v1.025a3.669 3.669 0 0 1 -.97.137c-.566 0-.992-.171-1.279-.513s-.43-.827-.43-1.456v-4.587h-1.347v-.978h1.347v-1.79zm5.284 7.334 1.723-5.544h1.353l-2.973 8.539c-.46 1.23-1.192 1.845-2.195 1.845l-.239-.02-.471-.09v-1.024l.341.027c.429 0 .761-.087.998-.26.242-.173.44-.49.595-.95l.28-.752-2.638-7.315h1.38zm5.585 1.853h-1.264v-10.5h1.264zm5.1.137c-1.003 0-1.819-.328-2.447-.985-.63-.66-.944-1.542-.944-2.645v-.233c0-.733.14-1.387.417-1.962a3.283 3.283 0 0 1 1.176-1.353 2.958 2.958 0 0 1 1.64-.492c.962 0 1.71.317 2.243.95s.8 1.54.8 2.72v.527h-5.011c.018.73.23 1.32.636 1.77.41.447.93.67 1.558.67.447 0 .825-.09 1.135-.273.31-.182.581-.424.814-.725l.772.602c-.62.953-1.55 1.429-2.79 1.429zm-.157-6.631c-.51 0-.94.187-1.285.56-.347.37-.561.89-.643 1.559h3.705v-.096c-.036-.642-.21-1.139-.52-1.49-.31-.355-.729-.533-1.257-.533zm8.818 4.532c0-.342-.13-.606-.39-.793-.255-.191-.704-.355-1.346-.492-.638-.137-1.147-.3-1.525-.492-.373-.192-.651-.42-.834-.684a1.65 1.65 0 0 1 -.266-.943c0-.606.255-1.119.765-1.538.515-.42 1.172-.63 1.97-.63.838 0 1.517.217 2.036.65.524.433.786.987.786 1.661h-1.271c0-.346-.148-.645-.445-.895-.291-.25-.66-.376-1.107-.376-.46 0-.82.1-1.08.3-.26.201-.39.463-.39.787 0 .305.121.535.363.69.241.155.676.303 1.305.445.634.14 1.146.31 1.538.505.392.196.682.433.869.711.191.274.287.609.287 1.005 0 .661-.265 1.192-.793 1.593-.529.397-1.215.595-2.058.595-.592 0-1.116-.105-1.572-.315a2.593 2.593 0 0 1 -1.073-.875 2.146 2.146 0 0 1 -.383-1.223h1.264c.023.423.192.76.506 1.011.32.246.739.37 1.258.37.479 0 .861-.096 1.148-.288.292-.196.438-.455.438-.779zm-27.961 28.854c.44-.541 1.013-.811 1.718-.811 1.228 0 1.848.693 1.859 2.079v3.84h-.994v-3.846c-.003-.419-.1-.728-.29-.929-.186-.2-.478-.301-.875-.301-.323 0-.606.086-.85.258a1.755 1.755 0 0 0 -.568.677v4.141h-.994v-8.25h.994zm7.782 5.108h-.999v-6.623l-2.003.736v-.902l2.847-1.069h.155zm-7.782 24.892c.44-.541 1.013-.811 1.718-.811 1.228 0 1.848.693 1.859 2.079v3.84h-.994v-3.846c-.003-.419-.1-.728-.29-.929-.186-.2-.478-.301-.875-.301-.323 0-.606.086-.85.258a1.755 1.755 0 0 0 -.568.677v4.141h-.994v-8.25h.994zm7.782 5.108h-.999v-6.623l-2.003.736v-.902l2.847-1.069h.155zm9.588-2.917h-2.621v-.811h2.62v.811zm8.889-.569c-.885-.254-1.53-.566-1.934-.934a1.804 1.804 0 0 1 -.601-1.375c0-.616.245-1.125.736-1.526.494-.404 1.135-.607 1.922-.607.537 0 1.016.104 1.434.312.423.207.749.494.978.859.233.365.35.765.35 1.198h-1.037c0-.473-.15-.843-.452-1.112-.3-.272-.725-.408-1.273-.408-.508 0-.906.113-1.192.338-.283.222-.424.532-.424.929 0 .319.134.59.403.812.272.218.732.418 1.38.601.652.183 1.16.385 1.525.607.37.218.641.474.817.768.179.294.268.639.268 1.037 0 .633-.247 1.142-.74 1.525-.495.38-1.156.569-1.983.569a3.705 3.705 0 0 1 -1.504-.306c-.465-.207-.825-.49-1.08-.848a2.077 2.077 0 0 1 -.375-1.22h1.036c0 .473.174.847.521 1.123.351.272.819.408 1.402.408.544 0 .962-.111 1.252-.333s.435-.524.435-.908c0-.383-.135-.678-.403-.886-.269-.211-.756-.419-1.461-.623zm5.006-2.326.027.645c.426-.501 1-.752 1.724-.752.813 0 1.366.312 1.659.935a2.21 2.21 0 0 1 .752-.677c.312-.172.679-.258 1.101-.258 1.275 0 1.923.675 1.945 2.025v3.894h-.994v-3.835c0-.415-.095-.725-.285-.929-.189-.208-.508-.312-.956-.312-.368 0-.675.111-.918.333-.244.219-.385.514-.424.887v3.856h-1v-3.808c0-.845-.413-1.268-1.24-1.268-.652 0-1.098.278-1.338.833v4.243h-.993v-5.812zm12.3 5.812c-.058-.115-.104-.319-.14-.612-.462.48-1.013.719-1.654.719-.573 0-1.044-.161-1.413-.483a1.586 1.586 0 0 1 -.548-1.235c0-.605.229-1.075.688-1.408.462-.336 1.11-.504 1.944-.504h.967v-.457c0-.347-.104-.623-.312-.827-.207-.208-.514-.312-.918-.312-.355 0-.652.09-.892.269s-.36.396-.36.65h-.999c0-.29.102-.57.306-.838a2.13 2.13 0 0 1 .838-.645 2.849 2.849 0 0 1 1.166-.236c.669 0 1.194.168 1.574.505.379.333.576.793.59 1.38v2.675c0 .534.068.958.205 1.273v.086zm-1.649-.757c.311 0 .607-.081.886-.242a1.47 1.47 0 0 0 .607-.628v-1.193h-.779c-1.217 0-1.826.356-1.826 1.069 0 .312.104.555.311.73.208.176.475.264.801.264zm5.124.757h-.994v-8.25h.994zm2.674 0h-.993v-8.25h.993zm-49.714 24.892c.44-.541 1.013-.811 1.718-.811 1.228 0 1.848.693 1.859 2.079v3.84h-.994v-3.846c-.003-.419-.1-.728-.29-.929-.186-.2-.478-.301-.875-.301-.323 0-.606.086-.85.258a1.755 1.755 0 0 0 -.568.677v4.141h-.994v-8.25h.994zm10.087 5.108h-5.124v-.714l2.706-3.008c.402-.455.677-.824.828-1.107.154-.286.23-.581.23-.886 0-.408-.123-.743-.37-1.004-.247-.262-.576-.392-.988-.392-.494 0-.88.141-1.155.424-.272.279-.408.67-.408 1.171h-.994c0-.72.231-1.302.693-1.746.465-.444 1.087-.666 1.864-.666.727 0 1.301.192 1.724.575.422.38.634.886.634 1.52 0 .77-.49 1.687-1.472 2.75l-2.095 2.272h3.926v.811zm-9.889 29.157h3.706v.843h-4.742v-7.82h1.036zm7.138.95c-.787 0-1.428-.257-1.922-.773-.495-.519-.742-1.212-.742-2.079v-.182c0-.577.11-1.091.328-1.542.222-.455.53-.809.924-1.063a2.323 2.323 0 0 1 1.289-.387c.755 0 1.343.249 1.762.747.419.497.628 1.21.628 2.137v.414h-3.937c.014.573.18 1.037.5 1.391.322.351.73.526 1.224.526.351 0 .648-.071.892-.214.243-.144.456-.333.639-.57l.607.473c-.487.748-1.218 1.122-2.192 1.122zm-.123-5.21c-.401 0-.738.147-1.01.441-.272.29-.44.698-.505 1.224h2.912v-.075c-.03-.505-.165-.895-.409-1.171-.243-.279-.573-.419-.988-.419zm7.133 5.103c-.058-.115-.104-.319-.14-.612-.462.48-1.013.719-1.654.719-.573 0-1.044-.161-1.413-.483a1.584 1.584 0 0 1 -.548-1.235c0-.605.23-1.075.688-1.408.462-.336 1.11-.504 1.944-.504h.967v-.457c0-.347-.104-.623-.312-.827-.207-.208-.513-.312-.918-.312-.354 0-.652.09-.892.269s-.36.396-.36.65h-.998c0-.29.102-.57.306-.838.207-.272.487-.487.838-.645a2.846 2.846 0 0 1 1.165-.236c.67 0 1.194.168 1.574.505.38.333.576.793.59 1.38v2.675c0 .534.069.958.205 1.273v.086zm-1.65-.757c.312 0 .608-.081.887-.242.28-.161.482-.371.607-.628v-1.193h-.779c-1.217 0-1.826.356-1.826 1.069 0 .312.104.555.312.73.207.176.474.264.8.264zm3.804-2.197c0-.892.21-1.608.633-2.149.423-.544.976-.816 1.66-.816.68 0 1.22.233 1.617.698v-3.029h.993v8.25h-.913l-.048-.623c-.398.487-.95.73-1.66.73-.673 0-1.223-.275-1.649-.827-.422-.551-.633-1.271-.633-2.159zm.993.113c0 .659.136 1.174.408 1.547.273.372.649.558 1.128.558.63 0 1.09-.283 1.38-.848v-2.67c-.296-.548-.753-.822-1.369-.822-.487 0-.866.188-1.139.564-.272.376-.408.933-.408 1.671zm-18.331 32.841v-7.82h2.556c.849 0 1.486.175 1.912.526.43.351.645.87.645 1.558a1.6 1.6 0 0 1 -.311.972c-.208.279-.491.496-.85.65.423.118.756.343 1 .676.247.33.37.724.37 1.182 0 .702-.227 1.253-.682 1.654-.454.401-1.097.602-1.928.602zm1.031-3.658v2.815h1.703c.48 0 .857-.124 1.133-.371.28-.251.419-.594.419-1.031 0-.942-.512-1.413-1.536-1.413zm0-.827h1.558c.45 0 .81-.113 1.08-.338.271-.226.407-.532.407-.919 0-.429-.125-.741-.376-.934-.25-.197-.632-.296-1.144-.296h-1.524v2.487zm5.403 1.526c0-.57.111-1.082.333-1.537a2.53 2.53 0 0 1 .935-1.052 2.558 2.558 0 0 1 1.37-.371c.79 0 1.43.274 1.917.822.49.548.736 1.276.736 2.186v.07c0 .565-.11 1.074-.328 1.525a2.44 2.44 0 0 1 -.929 1.047 2.557 2.557 0 0 1 -1.386.376c-.787 0-1.427-.274-1.917-.821-.487-.548-.73-1.273-.73-2.176v-.069zm1 .118c0 .644.148 1.162.445 1.552.3.39.702.585 1.203.585.505 0 .906-.197 1.203-.59.298-.398.446-.953.446-1.665 0-.638-.152-1.153-.456-1.547a1.433 1.433 0 0 0 -1.204-.597c-.49 0-.886.196-1.186.586-.301.39-.452.949-.452 1.676zm5.295-.113c0-.892.212-1.608.634-2.149.422-.544.976-.816 1.66-.816.68 0 1.219.233 1.616.698v-3.029h.994v8.25h-.913l-.048-.623c-.398.487-.951.73-1.66.73-.673 0-1.223-.275-1.649-.827-.422-.551-.634-1.271-.634-2.159zm.994.113c0 .659.136 1.174.408 1.547.272.372.648.558 1.128.558.63 0 1.09-.283 1.38-.848v-2.67c-.297-.548-.753-.822-1.37-.822-.486 0-.866.188-1.138.564s-.408.933-.408 1.671zm7.358 1.385 1.354-4.356h1.063l-2.336 6.709c-.362.967-.936 1.45-1.724 1.45l-.188-.016-.37-.07v-.805l.268.021c.336 0 .598-.068.784-.204.19-.136.345-.385.467-.747l.22-.59-2.073-5.748h1.085zm-21.081 31.456v-7.82h2.556c.849 0 1.486.175 1.912.526.43.351.645.87.645 1.558a1.6 1.6 0 0 1 -.311.972c-.208.279-.491.496-.85.65.423.118.756.343 1 .676.247.33.37.724.37 1.182 0 .702-.227 1.253-.682 1.654-.454.401-1.097.602-1.928.602zm1.031-3.658v2.815h1.703c.48 0 .857-.124 1.133-.371.28-.251.419-.594.419-1.031 0-.942-.512-1.413-1.536-1.413zm0-.827h1.558c.45 0 .81-.113 1.08-.338.271-.226.407-.532.407-.919 0-.429-.125-.741-.376-.934-.25-.197-.632-.296-1.144-.296h-1.524v2.487zm5.403 1.526c0-.57.111-1.082.333-1.537a2.53 2.53 0 0 1 .935-1.052 2.558 2.558 0 0 1 1.37-.371c.79 0 1.43.274 1.917.822.49.548.736 1.276.736 2.186v.07c0 .565-.11 1.074-.328 1.525a2.44 2.44 0 0 1 -.929 1.047 2.557 2.557 0 0 1 -1.386.376c-.787 0-1.427-.274-1.917-.821-.487-.548-.73-1.273-.73-2.176v-.069zm1 .118c0 .644.148 1.162.445 1.552.3.39.702.585 1.203.585.505 0 .906-.197 1.203-.59.298-.398.446-.953.446-1.665 0-.638-.152-1.153-.456-1.547a1.433 1.433 0 0 0 -1.204-.597c-.49 0-.886.196-1.186.586-.301.39-.452.949-.452 1.676zm5.295-.113c0-.892.212-1.608.634-2.149.422-.544.976-.816 1.66-.816.68 0 1.219.233 1.616.698v-3.029h.994v8.25h-.913l-.048-.623c-.398.487-.951.73-1.66.73-.673 0-1.223-.275-1.649-.827-.422-.551-.634-1.271-.634-2.159zm.994.113c0 .659.136 1.174.408 1.547.272.372.648.558 1.128.558.63 0 1.09-.283 1.38-.848v-2.67c-.297-.548-.753-.822-1.37-.822-.486 0-.866.188-1.138.564s-.408.933-.408 1.671zm7.358 1.385 1.354-4.356h1.063l-2.336 6.709c-.362.967-.936 1.45-1.724 1.45l-.188-.016-.37-.07v-.805l.268.021c.336 0 .598-.068.784-.204.19-.136.345-.385.467-.747l.22-.59-2.073-5.748h1.085zm6.193 1.456v-7.82h2.208c.68 0 1.281.15 1.804.451s.926.729 1.209 1.284c.286.555.431 1.192.435 1.912v.499c0 .738-.143 1.384-.43 1.939-.283.555-.69.981-1.219 1.278-.526.298-1.14.45-1.842.457zm1.031-6.972v6.129h1.085c.795 0 1.413-.247 1.853-.741.444-.495.666-1.198.666-2.111v-.457c0-.888-.21-1.577-.628-2.068-.415-.494-1.006-.745-1.772-.752zm8.444 7.079c-.788 0-1.429-.257-1.923-.773-.494-.519-.741-1.212-.741-2.079v-.182c0-.577.109-1.091.327-1.542.222-.455.53-.809.924-1.063a2.324 2.324 0 0 1 1.289-.387c.756 0 1.343.249 1.762.747.419.497.628 1.21.628 2.137v.414h-3.937c.015.573.181 1.037.5 1.391.322.351.73.526 1.224.526.351 0 .649-.071.892-.214.244-.144.457-.333.639-.57l.607.473c-.487.748-1.217 1.122-2.191 1.122zm-.124-5.21c-.401 0-.737.147-1.01.441-.272.29-.44.698-.504 1.224h2.911v-.075c-.029-.505-.165-.895-.409-1.171-.243-.279-.572-.419-.988-.419zm4.48-.709.027.645c.426-.501 1-.752 1.724-.752.812 0 1.366.312 1.659.935a2.21 2.21 0 0 1 .752-.677c.312-.172.679-.258 1.101-.258 1.275 0 1.923.675 1.945 2.025v3.894h-.994v-3.835c0-.415-.095-.725-.285-.929-.189-.208-.508-.312-.956-.312-.368 0-.675.111-.918.333-.244.219-.385.514-.424.887v3.856h-.999v-3.808c0-.845-.414-1.268-1.241-1.268-.652 0-1.098.278-1.338.833v4.243h-.993v-5.812zm9.791 5.812h-.993v-5.812h.993zm-1.074-7.353c0-.161.048-.297.145-.408.1-.111.247-.167.44-.167.194 0 .341.056.441.167s.15.247.15.408a.57.57 0 0 1 -.15.403c-.1.107-.247.161-.441.161-.193 0-.34-.054-.44-.161a.58.58 0 0 1 -.145-.403zm-49.822 37.353v-7.82h2.556c.849 0 1.486.175 1.912.526.43.351.645.87.645 1.558a1.6 1.6 0 0 1 -.311.972c-.208.279-.491.496-.85.65.423.118.756.343 1 .676.247.33.37.724.37 1.182 0 .702-.227 1.253-.682 1.654-.454.401-1.097.602-1.928.602zm1.031-3.658v2.815h1.703c.48 0 .857-.124 1.133-.371.28-.251.419-.594.419-1.031 0-.942-.512-1.413-1.536-1.413zm0-.827h1.558c.45 0 .81-.113 1.08-.338.271-.226.407-.532.407-.919 0-.429-.125-.741-.376-.934-.25-.197-.632-.296-1.144-.296h-1.524v2.487zm5.403 1.526c0-.57.111-1.082.333-1.537a2.53 2.53 0 0 1 .935-1.052 2.558 2.558 0 0 1 1.37-.371c.79 0 1.43.274 1.917.822.49.548.736 1.276.736 2.186v.07c0 .565-.11 1.074-.328 1.525a2.44 2.44 0 0 1 -.929 1.047 2.557 2.557 0 0 1 -1.386.376c-.787 0-1.427-.274-1.917-.821-.487-.548-.73-1.273-.73-2.176v-.069zm1 .118c0 .644.148 1.162.445 1.552.3.39.702.585 1.203.585.505 0 .906-.197 1.203-.59.298-.398.446-.953.446-1.665 0-.638-.152-1.153-.456-1.547a1.433 1.433 0 0 0 -1.204-.597c-.49 0-.886.196-1.186.586-.301.39-.452.949-.452 1.676zm5.295-.113c0-.892.212-1.608.634-2.149.422-.544.976-.816 1.66-.816.68 0 1.219.233 1.616.698v-3.029h.994v8.25h-.913l-.048-.623c-.398.487-.951.73-1.66.73-.673 0-1.223-.275-1.649-.827-.422-.551-.634-1.271-.634-2.159zm.994.113c0 .659.136 1.174.408 1.547.272.372.648.558 1.128.558.63 0 1.09-.283 1.38-.848v-2.67c-.297-.548-.753-.822-1.37-.822-.486 0-.866.188-1.138.564s-.408.933-.408 1.671zm7.358 1.385 1.354-4.356h1.063l-2.336 6.709c-.362.967-.936 1.45-1.724 1.45l-.188-.016-.37-.07v-.805l.268.021c.336 0 .598-.068.784-.204.19-.136.345-.385.467-.747l.22-.59-2.073-5.748h1.085zm7.525-6.364 2.557 6.381 2.556-6.381h1.338v7.82h-1.031v-3.045l.096-3.288-2.567 6.333h-.79l-2.562-6.316.102 3.271v3.045h-1.03v-7.82zm10.528 7.927c-.788 0-1.429-.257-1.923-.773-.494-.519-.742-1.212-.742-2.079v-.182c0-.577.11-1.091.328-1.542.222-.455.53-.809.924-1.063a2.321 2.321 0 0 1 1.289-.387c.756 0 1.343.249 1.762.747.419.497.628 1.21.628 2.137v.414h-3.937c.014.573.181 1.037.5 1.391.322.351.73.526 1.224.526.351 0 .648-.071.892-.214.243-.144.456-.333.639-.57l.607.473c-.487.748-1.218 1.122-2.191 1.122zm-.124-5.21c-.401 0-.738.147-1.01.441-.272.29-.44.698-.505 1.224h2.911v-.075c-.028-.505-.164-.895-.408-1.171-.243-.279-.573-.419-.988-.419zm3.303 2.149c0-.892.211-1.608.634-2.149.423-.544.976-.816 1.66-.816.68 0 1.219.233 1.616.698v-3.029h.994v8.25h-.913l-.048-.623c-.398.487-.951.73-1.66.73-.673 0-1.223-.275-1.649-.827-.423-.551-.634-1.271-.634-2.159zm.994.113c0 .659.136 1.174.408 1.547.272.372.648.558 1.128.558.63 0 1.09-.283 1.38-.848v-2.67c-.297-.548-.753-.822-1.369-.822-.487 0-.867.188-1.139.564s-.408.933-.408 1.671zm6.536 2.841h-.993v-5.812h.993zm-1.074-7.353c0-.161.049-.297.145-.408.101-.111.247-.167.441-.167.193 0 .34.056.44.167s.151.247.151.408a.57.57 0 0 1 -.151.403c-.1.107-.247.161-.44.161-.194 0-.34-.054-.441-.161a.585.585 0 0 1 -.145-.403zm6.258 6.778c-.387.455-.955.682-1.703.682-.62 0-1.092-.179-1.418-.537-.322-.361-.485-.895-.489-1.6v-3.782h.994v3.755c0 .881.358 1.321 1.074 1.321.759 0 1.264-.283 1.515-.848v-4.228h.993v5.812h-.945zm3.416-5.237.026.645c.427-.501 1.001-.752 1.725-.752.812 0 1.366.312 1.659.935a2.21 2.21 0 0 1 .752-.677c.312-.172.679-.258 1.101-.258 1.275 0 1.923.675 1.945 2.025v3.894h-.994v-3.835c0-.415-.095-.725-.285-.929-.19-.208-.508-.312-.956-.312-.369 0-.675.111-.918.333-.244.219-.385.514-.425.887v3.856h-.999v-3.808c0-.845-.413-1.268-1.24-1.268-.652 0-1.098.278-1.338.833v4.243h-.993v-5.812zm-56.139 32.326c-.885-.254-1.53-.566-1.934-.934a1.804 1.804 0 0 1 -.601-1.375c0-.616.245-1.125.736-1.526.494-.404 1.135-.607 1.922-.607.538 0 1.016.104 1.434.312.423.207.749.494.978.859.233.365.35.765.35 1.198h-1.037c0-.473-.15-.843-.452-1.112-.3-.272-.725-.408-1.273-.408-.508 0-.905.113-1.192.338-.283.222-.424.532-.424.929 0 .319.134.59.403.812.272.218.732.418 1.38.601.652.183 1.16.385 1.525.607.37.218.641.474.817.768.179.294.268.639.268 1.037 0 .633-.247 1.142-.74 1.525-.495.38-1.156.569-1.983.569a3.705 3.705 0 0 1 -1.504-.306c-.465-.207-.825-.49-1.08-.848a2.076 2.076 0 0 1 -.375-1.22h1.036c0 .473.174.847.521 1.123.351.272.819.408 1.402.408.544 0 .962-.111 1.252-.333s.435-.524.435-.908c0-.383-.135-.678-.403-.886-.269-.211-.756-.419-1.461-.623zm5.006-2.326.027.645c.426-.501 1-.752 1.724-.752.813 0 1.366.312 1.66.935.193-.28.443-.505.751-.677.312-.172.679-.258 1.101-.258 1.275 0 1.923.675 1.945 2.025v3.894h-.994v-3.835c0-.415-.095-.725-.285-.929-.19-.208-.508-.312-.956-.312-.368 0-.675.111-.918.333-.243.219-.385.514-.424.887v3.856h-1v-3.808c0-.845-.413-1.268-1.24-1.268-.652 0-1.098.278-1.337.833v4.243h-.994v-5.812zm12.3 5.812c-.058-.115-.104-.319-.14-.612-.462.48-1.013.719-1.654.719-.573 0-1.044-.161-1.413-.483a1.585 1.585 0 0 1 -.548-1.235c0-.605.23-1.075.688-1.408.462-.336 1.11-.504 1.944-.504h.967v-.457c0-.347-.104-.623-.312-.827-.207-.208-.513-.312-.918-.312-.355 0-.652.09-.892.269s-.36.396-.36.65h-.999c0-.29.102-.57.306-.838.208-.272.487-.487.838-.645a2.846 2.846 0 0 1 1.166-.236c.67 0 1.194.168 1.574.505.38.333.576.793.59 1.38v2.675c0 .534.069.958.205 1.273v.086zm-1.65-.757c.312 0 .608-.081.887-.242.28-.161.482-.371.607-.628v-1.193h-.779c-1.217 0-1.826.356-1.826 1.069 0 .312.104.555.311.73.208.176.475.264.8.264zm5.125.757h-.994v-8.25h.994zm2.675 0h-.994v-8.25h.993v8.25zm5.671-7.219v1.407h1.085v.769h-1.084v3.604c0 .232.049.408.145.526.097.114.262.172.495.172.114 0 .272-.022.472-.065v.806a2.864 2.864 0 0 1 -.762.107c-.444 0-.78-.134-1.005-.402-.225-.269-.338-.65-.338-1.144v-3.604h-1.058v-.769h1.058v-1.407h.993zm4.662 7.326c-.787 0-1.428-.257-1.922-.773-.494-.519-.742-1.212-.742-2.079v-.182c0-.577.11-1.091.328-1.542.222-.455.53-.809.924-1.063a2.323 2.323 0 0 1 1.289-.387c.755 0 1.343.249 1.762.747.419.497.628 1.21.628 2.137v.414h-3.937c.014.573.18 1.037.5 1.391.322.351.73.526 1.224.526.351 0 .648-.071.892-.214.243-.144.456-.333.639-.57l.607.473c-.487.748-1.218 1.122-2.192 1.122zm-.123-5.21a1.32 1.32 0 0 0 -1.01.441c-.272.29-.44.698-.505 1.224h2.911v-.075c-.028-.505-.164-.895-.408-1.171-.243-.279-.573-.419-.988-.419zm5.495 1.413 1.289-2.122h1.16l-1.902 2.874 1.961 2.938h-1.15l-1.342-2.175-1.343 2.175h-1.155l1.961-2.938-1.902-2.874h1.15zm4.855-3.529v1.407h1.085v.769h-1.085v3.604c0 .232.048.408.145.526.097.114.261.172.494.172.115 0 .272-.022.473-.065v.806a2.87 2.87 0 0 1 -.763.107c-.444 0-.779-.134-1.004-.402-.226-.269-.339-.65-.339-1.144v-3.604h-1.058v-.769h1.058v-1.407zm-44.016 33.733c-.885-.254-1.53-.566-1.934-.934a1.804 1.804 0 0 1 -.601-1.375c0-.616.245-1.125.736-1.526.494-.404 1.135-.607 1.922-.607.538 0 1.016.104 1.434.312.423.207.749.494.978.859.233.365.35.765.35 1.198h-1.037c0-.473-.15-.843-.452-1.112-.3-.272-.725-.408-1.273-.408-.508 0-.905.113-1.192.338-.283.222-.424.532-.424.929 0 .319.134.59.403.812.272.218.732.418 1.38.601.652.183 1.16.385 1.525.607.37.218.641.474.817.768.179.294.268.639.268 1.037 0 .633-.247 1.142-.74 1.525-.495.38-1.156.569-1.983.569a3.705 3.705 0 0 1 -1.504-.306c-.465-.207-.825-.49-1.08-.848a2.076 2.076 0 0 1 -.375-1.22h1.036c0 .473.174.847.521 1.123.351.272.819.408 1.402.408.544 0 .962-.111 1.252-.333s.435-.524.435-.908c0-.383-.135-.678-.403-.886-.269-.211-.756-.419-1.461-.623zm5.006-2.326.027.645c.426-.501 1-.752 1.724-.752.813 0 1.366.312 1.66.935.193-.28.443-.505.751-.677.312-.172.679-.258 1.101-.258 1.275 0 1.923.675 1.945 2.025v3.894h-.994v-3.835c0-.415-.095-.725-.285-.929-.19-.208-.508-.312-.956-.312-.368 0-.675.111-.918.333-.243.219-.385.514-.424.887v3.856h-1v-3.808c0-.845-.413-1.268-1.24-1.268-.652 0-1.098.278-1.337.833v4.243h-.994v-5.812zm12.3 5.812c-.058-.115-.104-.319-.14-.612-.462.48-1.013.719-1.654.719-.573 0-1.044-.161-1.413-.483a1.585 1.585 0 0 1 -.548-1.235c0-.605.23-1.075.688-1.408.462-.336 1.11-.504 1.944-.504h.967v-.457c0-.347-.104-.623-.312-.827-.207-.208-.513-.312-.918-.312-.355 0-.652.09-.892.269s-.36.396-.36.65h-.999c0-.29.102-.57.306-.838.208-.272.487-.487.838-.645a2.846 2.846 0 0 1 1.166-.236c.67 0 1.194.168 1.574.505.38.333.576.793.59 1.38v2.675c0 .534.069.958.205 1.273v.086zm-1.65-.757c.312 0 .608-.081.887-.242.28-.161.482-.371.607-.628v-1.193h-.779c-1.217 0-1.826.356-1.826 1.069 0 .312.104.555.311.73.208.176.475.264.8.264zm5.125.757h-.994v-8.25h.994zm2.675 0h-.994v-8.25h.993v8.25zm9.667-6.972h-2.513v6.972h-1.026v-6.972h-2.508v-.848h6.047zm2.879 7.079c-.787 0-1.428-.257-1.922-.773-.495-.519-.742-1.212-.742-2.079v-.182c0-.577.11-1.091.328-1.542.222-.455.53-.809.924-1.063a2.321 2.321 0 0 1 1.289-.387c.755 0 1.343.249 1.762.747.418.497.628 1.21.628 2.137v.414h-3.937c.014.573.181 1.037.499 1.391.323.351.731.526 1.225.526.351 0 .648-.071.892-.214.243-.144.456-.333.639-.57l.607.473c-.487.748-1.218 1.122-2.192 1.122zm-.123-5.21c-.401 0-.738.147-1.01.441-.272.29-.44.698-.505 1.224h2.911v-.075c-.028-.505-.164-.895-.408-1.171-.243-.279-.573-.419-.988-.419zm5.494 1.413 1.29-2.122h1.16l-1.902 2.874 1.961 2.938h-1.15l-1.342-2.175-1.343 2.175h-1.155l1.96-2.938-1.901-2.874h1.149zm4.856-3.529v1.407h1.085v.769h-1.085v3.604c0 .232.048.408.145.526.097.114.261.172.494.172.115 0 .272-.022.473-.065v.806a2.87 2.87 0 0 1 -.763.107c-.444 0-.779-.134-1.004-.402-.226-.269-.339-.65-.339-1.144v-3.604h-1.058v-.769h1.058v-1.407zm5.135 7.219v-7.82h2.207c.681 0 1.282.15 1.805.451s.926.729 1.208 1.284c.287.555.432 1.192.435 1.912v.499c0 .738-.143 1.384-.429 1.939-.283.555-.69.981-1.219 1.278-.527.298-1.141.45-1.843.457zm1.031-6.972v6.129h1.085c.795 0 1.412-.247 1.853-.741.444-.495.666-1.198.666-2.111v-.457c0-.888-.21-1.577-.628-2.068-.416-.494-1.007-.745-1.773-.752zm8.443 7.079c-.787 0-1.428-.257-1.923-.773-.494-.519-.741-1.212-.741-2.079v-.182c0-.577.109-1.091.328-1.542.222-.455.53-.809.924-1.063a2.321 2.321 0 0 1 1.289-.387c.755 0 1.343.249 1.761.747.419.497.629 1.21.629 2.137v.414h-3.937c.014.573.181 1.037.499 1.391.323.351.731.526 1.225.526.351 0 .648-.071.892-.214.243-.144.456-.333.639-.57l.607.473c-.487.748-1.218 1.122-2.192 1.122zm-.123-5.21c-.401 0-.738.147-1.01.441-.272.29-.44.698-.505 1.224h2.911v-.075c-.028-.505-.164-.895-.408-1.171-.243-.279-.573-.419-.988-.419zm4.479-.709.027.645c.426-.501 1.001-.752 1.724-.752.813 0 1.366.312 1.66.935a2.2 2.2 0 0 1 .752-.677c.311-.172.678-.258 1.101-.258 1.275 0 1.923.675 1.944 2.025v3.894h-.993v-3.835c0-.415-.095-.725-.285-.929-.19-.208-.509-.312-.956-.312-.369 0-.675.111-.919.333-.243.219-.385.514-.424.887v3.856h-.999v-3.808c0-.845-.413-1.268-1.241-1.268-.651 0-1.097.278-1.337.833v4.243h-.994v-5.812zm9.792 5.812h-.994v-5.812h.994zm-1.074-7.353c0-.161.048-.297.145-.408.1-.111.247-.167.44-.167s.34.056.44.167a.584.584 0 0 1 .151.408c0 .161-.05.295-.151.403-.1.107-.247.161-.44.161s-.34-.054-.44-.161a.58.58 0 0 1 -.145-.403zm-73.912 33.867c-.885-.254-1.53-.566-1.934-.934a1.804 1.804 0 0 1 -.601-1.375c0-.616.245-1.125.736-1.526.494-.404 1.135-.607 1.922-.607.538 0 1.016.104 1.434.312.423.207.749.494.978.859.233.365.35.765.35 1.198h-1.037c0-.473-.15-.843-.452-1.112-.3-.272-.725-.408-1.273-.408-.508 0-.905.113-1.192.338-.283.222-.424.532-.424.929 0 .319.134.59.403.812.272.218.732.418 1.38.601.652.183 1.16.385 1.525.607.37.218.641.474.817.768.179.294.268.639.268 1.037 0 .633-.247 1.142-.74 1.525-.495.38-1.156.569-1.983.569a3.705 3.705 0 0 1 -1.504-.306c-.465-.207-.825-.49-1.08-.848a2.076 2.076 0 0 1 -.375-1.22h1.036c0 .473.174.847.521 1.123.351.272.819.408 1.402.408.544 0 .962-.111 1.252-.333s.435-.524.435-.908c0-.383-.135-.678-.403-.886-.269-.211-.756-.419-1.461-.623zm5.006-2.326.027.645c.426-.501 1-.752 1.724-.752.813 0 1.366.312 1.66.935.193-.28.443-.505.751-.677.312-.172.679-.258 1.101-.258 1.275 0 1.923.675 1.945 2.025v3.894h-.994v-3.835c0-.415-.095-.725-.285-.929-.19-.208-.508-.312-.956-.312-.368 0-.675.111-.918.333-.243.219-.385.514-.424.887v3.856h-1v-3.808c0-.845-.413-1.268-1.24-1.268-.652 0-1.098.278-1.337.833v4.243h-.994v-5.812zm12.3 5.812c-.058-.115-.104-.319-.14-.612-.462.48-1.013.719-1.654.719-.573 0-1.044-.161-1.413-.483a1.585 1.585 0 0 1 -.548-1.235c0-.605.23-1.075.688-1.408.462-.336 1.11-.504 1.944-.504h.967v-.457c0-.347-.104-.623-.312-.827-.207-.208-.513-.312-.918-.312-.355 0-.652.09-.892.269s-.36.396-.36.65h-.999c0-.29.102-.57.306-.838.208-.272.487-.487.838-.645a2.846 2.846 0 0 1 1.166-.236c.67 0 1.194.168 1.574.505.38.333.576.793.59 1.38v2.675c0 .534.069.958.205 1.273v.086zm-1.65-.757c.312 0 .608-.081.887-.242.28-.161.482-.371.607-.628v-1.193h-.779c-1.217 0-1.826.356-1.826 1.069 0 .312.104.555.311.73.208.176.475.264.8.264zm5.125.757h-.994v-8.25h.994zm2.675 0h-.994v-8.25h.993v8.25zm9.667-6.972h-2.513v6.972h-1.026v-6.972h-2.508v-.848h6.047zm2.879 7.079c-.787 0-1.428-.257-1.922-.773-.495-.519-.742-1.212-.742-2.079v-.182c0-.577.11-1.091.328-1.542.222-.455.53-.809.924-1.063a2.321 2.321 0 0 1 1.289-.387c.755 0 1.343.249 1.762.747.418.497.628 1.21.628 2.137v.414h-3.937c.014.573.181 1.037.499 1.391.323.351.731.526 1.225.526.351 0 .648-.071.892-.214.243-.144.456-.333.639-.57l.607.473c-.487.748-1.218 1.122-2.192 1.122zm-.123-5.21c-.401 0-.738.147-1.01.441-.272.29-.44.698-.505 1.224h2.911v-.075c-.028-.505-.164-.895-.408-1.171-.243-.279-.573-.419-.988-.419zm5.494 1.413 1.29-2.122h1.16l-1.902 2.874 1.961 2.938h-1.15l-1.342-2.175-1.343 2.175h-1.155l1.96-2.938-1.901-2.874h1.149zm4.856-3.529v1.407h1.085v.769h-1.085v3.604c0 .232.048.408.145.526.097.114.261.172.494.172.115 0 .272-.022.473-.065v.806a2.87 2.87 0 0 1 -.763.107c-.444 0-.779-.134-1.004-.402-.226-.269-.339-.65-.339-1.144v-3.604h-1.058v-.769h1.058v-1.407zm6.467-.601 2.556 6.381 2.557-6.381h1.337v7.82h-1.031v-3.045l.097-3.288-2.568 6.333h-.789l-2.562-6.316.102 3.271v3.045h-1.031v-7.82zm10.527 7.927c-.788 0-1.429-.257-1.923-.773-.494-.519-.741-1.212-.741-2.079v-.182c0-.577.109-1.091.328-1.542a2.58 2.58 0 0 1 .923-1.063 2.327 2.327 0 0 1 1.29-.387c.755 0 1.342.249 1.761.747.419.497.629 1.21.629 2.137v.414h-3.937c.014.573.18 1.037.499 1.391a1.59 1.59 0 0 0 1.225.526c.351 0 .648-.071.891-.214.244-.144.457-.333.64-.57l.606.473c-.487.748-1.217 1.122-2.191 1.122zm-.123-5.21a1.32 1.32 0 0 0 -1.01.441c-.272.29-.441.698-.505 1.224h2.911v-.075c-.029-.505-.165-.895-.408-1.171-.244-.279-.573-.419-.988-.419zm3.303 2.149c0-.892.211-1.608.634-2.149.422-.544.975-.816 1.659-.816.681 0 1.219.233 1.617.698v-3.029h.994v8.25h-.914l-.048-.623c-.397.487-.951.73-1.66.73-.673 0-1.222-.275-1.648-.827-.423-.551-.634-1.271-.634-2.159zm.993.113c0 .659.136 1.174.409 1.547.272.372.648.558 1.128.558.63 0 1.09-.283 1.38-.848v-2.67c-.297-.548-.754-.822-1.37-.822-.487 0-.866.188-1.138.564-.273.376-.409.933-.409 1.671zm6.537 2.841h-.994v-5.812h.994zm-1.074-7.353c0-.161.048-.297.145-.408.1-.111.247-.167.44-.167.194 0 .34.056.441.167.1.111.15.247.15.408a.57.57 0 0 1 -.15.403c-.101.107-.247.161-.441.161-.193 0-.34-.054-.44-.161a.58.58 0 0 1 -.145-.403zm6.257 6.778c-.387.455-.954.682-1.703.682-.619 0-1.092-.179-1.417-.537-.323-.361-.486-.895-.489-1.6v-3.782h.993v3.755c0 .881.358 1.321 1.075 1.321.759 0 1.264-.283 1.514-.848v-4.228h.994v5.812h-.945zm3.416-5.237.027.645c.426-.501 1.001-.752 1.724-.752.813 0 1.366.312 1.66.935a2.2 2.2 0 0 1 .752-.677c.311-.172.678-.258 1.101-.258 1.275 0 1.923.675 1.944 2.025v3.894h-.994v-3.835c0-.415-.094-.725-.284-.929-.19-.208-.509-.312-.956-.312-.369 0-.675.111-.919.333-.243.219-.385.514-.424.887v3.856h-.999v-3.808c0-.845-.414-1.268-1.241-1.268-.651 0-1.097.278-1.337.833v4.243h-.994v-5.812z" fill="#454545"/><path d="m27.92 108 5.7-14.14h2.78l5.04 14.14h-2.3l-1.72-4.94h-5.34l-1.94 4.94zm4.78-6.6h4.18l-1.98-6.1zm14.352 11.2c-1.467 0-2.673-.207-3.62-.62l.38-1.8c1.2.387 2.313.58 3.34.58.88 0 1.566-.187 2.06-.56.506-.373.76-1.053.76-2.04v-.82c-.4.293-.773.5-1.12.62s-.8.18-1.36.18c-3.24 0-4.86-1.773-4.86-5.32 0-2.04.513-3.553 1.54-4.54s2.407-1.48 4.14-1.48c1.187 0 2.427.167 3.72.5v11.2c0 1.36-.453 2.38-1.36 3.06-.907.693-2.113 1.04-3.62 1.04zm.74-6.1c.706 0 1.426-.247 2.16-.74v-6.92a7.065 7.065 0 0 0 -1.8-.26c-2.307 0-3.46 1.367-3.46 4.1 0 1.347.267 2.32.8 2.92s1.3.9 2.3.9zm-19.872 31.5 5.7-14.14h2.78l5.04 14.14h-2.3l-1.72-4.94h-5.34l-1.94 4.94zm4.78-6.6h4.18l-1.98-6.1zm14.352 11.2c-1.467 0-2.673-.207-3.62-.62l.38-1.8c1.2.387 2.313.58 3.34.58.88 0 1.566-.187 2.06-.56.506-.373.76-1.053.76-2.04v-.82c-.4.293-.773.5-1.12.62s-.8.18-1.36.18c-3.24 0-4.86-1.773-4.86-5.32 0-2.04.513-3.553 1.54-4.54s2.407-1.48 4.14-1.48c1.187 0 2.427.167 3.72.5v11.2c0 1.36-.453 2.38-1.36 3.06-.907.693-2.113 1.04-3.62 1.04zm.74-6.1c.706 0 1.426-.247 2.16-.74v-6.92a7.079 7.079 0 0 0 -1.8-.26c-2.307 0-3.46 1.367-3.46 4.1 0 1.347.267 2.32.8 2.92s1.3.9 2.3.9zm-19.872 31.5 5.7-14.14h2.78l5.04 14.14h-2.3l-1.72-4.94h-5.34l-1.94 4.94zm4.78-6.6h4.18l-1.98-6.1zm14.352 11.2c-1.467 0-2.673-.207-3.62-.62l.38-1.8c1.2.387 2.313.58 3.34.58.88 0 1.566-.187 2.06-.56.506-.373.76-1.053.76-2.04v-.82c-.4.293-.773.5-1.12.62s-.8.18-1.36.18c-3.24 0-4.86-1.773-4.86-5.32 0-2.04.513-3.553 1.54-4.54s2.407-1.48 4.14-1.48c1.187 0 2.427.167 3.72.5v11.2c0 1.36-.453 2.38-1.36 3.06-.907.693-2.113 1.04-3.62 1.04zm.74-6.1c.706 0 1.426-.247 2.16-.74v-6.92a7.079 7.079 0 0 0 -1.8-.26c-2.307 0-3.46 1.367-3.46 4.1 0 1.347.267 2.32.8 2.92s1.3.9 2.3.9zm-19.872 31.5 5.7-14.14h2.78l5.04 14.14h-2.3l-1.72-4.94h-5.34l-1.94 4.94zm4.78-6.6h4.18l-1.98-6.1zm14.352 11.2c-1.467 0-2.673-.207-3.62-.62l.38-1.8c1.2.387 2.313.58 3.34.58.88 0 1.566-.187 2.06-.56.506-.373.76-1.053.76-2.04v-.82c-.4.293-.773.5-1.12.62s-.8.18-1.36.18c-3.24 0-4.86-1.773-4.86-5.32 0-2.04.513-3.553 1.54-4.54s2.407-1.48 4.14-1.48c1.187 0 2.427.167 3.72.5v11.2c0 1.36-.453 2.38-1.36 3.06-.907.693-2.113 1.04-3.62 1.04zm.74-6.1c.706 0 1.426-.247 2.16-.74v-6.92a7.079 7.079 0 0 0 -1.8-.26c-2.307 0-3.46 1.367-3.46 4.1 0 1.347.267 2.32.8 2.92s1.3.9 2.3.9zm-16.792 30.5 4.64-11.312h1.712l4.112 11.312h-1.424l-1.504-4.224h-4.464l-1.68 4.224zm3.472-5.28h3.712l-1.76-5.104zm11.502 8.96c-1.088 0-1.994-.16-2.72-.48l.256-1.12c.907.309 1.76.464 2.56.464.736 0 1.318-.165 1.744-.496.427-.331.64-.928.64-1.792v-.88a3.56 3.56 0 0 1 -.96.576c-.309.107-.698.16-1.168.16-2.485 0-3.728-1.429-3.728-4.288 0-1.632.39-2.837 1.168-3.616.779-.779 1.83-1.168 3.152-1.168.822 0 1.744.123 2.768.368v9.12c0 1.045-.33 1.829-.992 2.352-.65.533-1.557.8-2.72.8zm.48-4.592c.672 0 1.334-.261 1.984-.784v-5.92a5.885 5.885 0 0 0 -1.6-.24c-1.994 0-2.992 1.2-2.992 3.6 0 2.229.87 3.344 2.608 3.344zm-15.518 30.912 4.56-11.312h2.224l4.032 11.312h-1.84l-1.376-3.952h-4.272l-1.552 3.952zm3.824-5.28h3.344l-1.584-4.88zm11.482 8.96c-1.174 0-2.14-.165-2.896-.496l.304-1.44c.96.309 1.85.464 2.672.464.703 0 1.253-.149 1.647-.448.406-.299.608-.843.608-1.632v-.656c-.32.235-.618.4-.895.496-.278.096-.64.144-1.089.144-2.592 0-3.888-1.419-3.888-4.256 0-1.632.411-2.843 1.233-3.632.82-.789 1.925-1.184 3.311-1.184.95 0 1.942.133 2.976.4v8.96c0 1.088-.362 1.904-1.087 2.448-.726.555-1.691.832-2.896.832zm.592-4.88c.565 0 1.14-.197 1.727-.592v-5.536a5.636 5.636 0 0 0 -1.44-.208c-1.845 0-2.768 1.093-2.768 3.28 0 1.077.214 1.856.64 2.336.427.48 1.04.72 1.84.72zm-15.898 31.2 4.56-11.312h2.224l4.032 11.312h-1.84l-1.376-3.952h-4.272l-1.552 3.952zm3.824-5.28h3.344l-1.584-4.88zm11.482 8.96c-1.174 0-2.14-.165-2.896-.496l.304-1.44c.96.309 1.85.464 2.672.464.703 0 1.253-.149 1.647-.448.406-.299.608-.843.608-1.632v-.656c-.32.235-.618.4-.895.496-.278.096-.64.144-1.089.144-2.592 0-3.888-1.419-3.888-4.256 0-1.632.411-2.843 1.233-3.632.82-.789 1.925-1.184 3.311-1.184.95 0 1.942.133 2.976.4v8.96c0 1.088-.362 1.904-1.087 2.448-.726.555-1.691.832-2.896.832zm.592-4.88c.565 0 1.14-.197 1.727-.592v-5.536a5.636 5.636 0 0 0 -1.44-.208c-1.845 0-2.768 1.093-2.768 3.28 0 1.077.214 1.856.64 2.336.427.48 1.04.72 1.84.72zm-14.834 31.2 4.06-9.898h1.498l3.598 9.898h-1.246l-1.316-3.696h-3.906l-1.47 3.696zm3.038-4.62h3.248l-1.54-4.466zm10.065 7.84c-.952 0-1.746-.14-2.38-.42l.224-.98c.793.271 1.54.406 2.24.406.644 0 1.152-.145 1.526-.434.373-.289.56-.812.56-1.568v-.77c-.29.233-.57.401-.84.504-.271.093-.612.14-1.022.14-2.175 0-3.262-1.251-3.262-3.752 0-1.428.34-2.483 1.022-3.164.68-.681 1.6-1.022 2.758-1.022.718 0 1.526.107 2.422.322v7.98c0 .915-.29 1.601-.868 2.058-.57.467-1.363.7-2.38.7zm.42-4.018c.588 0 1.166-.229 1.736-.686v-5.18a5.15 5.15 0 0 0 -1.4-.21c-1.746 0-2.618 1.05-2.618 3.15 0 1.951.76 2.926 2.282 2.926zm-13.523 30.798 4.06-9.898h1.498l3.598 9.898h-1.246l-1.316-3.696h-3.906l-1.47 3.696zm3.038-4.62h3.248l-1.54-4.466zm10.065 7.84c-.952 0-1.746-.14-2.38-.42l.224-.98c.793.271 1.54.406 2.24.406.644 0 1.152-.145 1.526-.434.373-.289.56-.812.56-1.568v-.77c-.29.233-.57.401-.84.504-.271.093-.612.14-1.022.14-2.175 0-3.262-1.251-3.262-3.752 0-1.428.34-2.483 1.022-3.164.68-.681 1.6-1.022 2.758-1.022.718 0 1.526.107 2.422.322v7.98c0 .915-.29 1.601-.868 2.058-.57.467-1.363.7-2.38.7zm.42-4.018c.588 0 1.166-.229 1.736-.686v-5.18a5.15 5.15 0 0 0 -1.4-.21c-1.746 0-2.618 1.05-2.618 3.15 0 1.951.76 2.926 2.282 2.926zm-13.579 30.798 3.99-9.898h1.946l3.528 9.898h-1.61l-1.204-3.458h-3.738l-1.358 3.458zm3.346-4.62h2.926l-1.386-4.27zm10.046 7.84c-1.026 0-1.871-.145-2.534-.434l.266-1.26c.84.271 1.62.406 2.338.406.616 0 1.097-.131 1.442-.392.355-.261.532-.737.532-1.428v-.574c-.28.205-.541.35-.784.434-.242.084-.56.126-.952.126-2.268 0-3.402-1.241-3.402-3.724 0-1.428.36-2.487 1.078-3.178.719-.691 1.685-1.036 2.898-1.036.831 0 1.699.117 2.604.35v7.84c0 .952-.317 1.666-.952 2.142-.634.485-1.479.728-2.534.728zm.518-4.27c.495 0 .999-.173 1.512-.518v-4.844a4.958 4.958 0 0 0 -1.26-.182c-1.614 0-2.422.957-2.422 2.87 0 .943.187 1.624.56 2.044.374.42.91.63 1.61.63z" fill="#000"/><rect fill="#30c1ff" height="24" rx="2" width="24" x="193" y="13"/><g fill="#fff"><circle cx="201.5" cy="21.5" r="1.5"/><circle cx="208.5" cy="21.5" r="1.5"/><circle cx="201.5" cy="28.5" r="1.5"/><circle cx="208.5" cy="28.5" r="1.5"/></g></svg>