<svg width="400" height="200" viewBox="0 0 400 200" fill="none" xmlns="http://www.w3.org/2000/svg"><g clip-path="url(#clip0)"><path d="M392 120H8v24h384v-24z" fill="#DB00FF" fill-opacity=".25"/><path d="M392 8H8v32h384V8zM392 72H8v32h384V72z" fill="#00D9FF" fill-opacity=".25"/><path d="M392 168H8v24h384v-24z" fill="#DB00FF" fill-opacity=".25"/><path d="M28.66 14.8v7.88H21.2V14.8h-3.12V33h3.12v-7.83h7.46V33h3.12V14.8h-3.12zm18.66 11.88c0-4.18-2.4-6.89-6.16-6.89-3.75 0-6.32 2.7-6.32 6.71 0 3.93 2.6 6.73 6.55 6.73 2.76 0 4.58-1.09 5.51-2.75l-2-1.38a3.86 3.86 0 01-3.51 1.8c-1.69 0-3.43-1.12-3.61-3.52h9.46c.03-.13.08-.52.08-.7zm-6.16-4.55c1.87 0 2.99 1.2 3.27 3.25H37.8c.29-2.08 1.54-3.25 3.36-3.25zm15.17-2.36c-1.69 0-3.12.9-3.8 2.34V20h-2.67v13h3.04v-7.3c0-2.22 1.27-3.3 3.35-3.3.5 0 .94.04 1.28.12V19.9c-.21-.06-.65-.13-1.2-.13zm14.93 6.91c0-4.18-2.4-6.89-6.16-6.89-3.74 0-6.32 2.7-6.32 6.71 0 3.93 2.6 6.73 6.55 6.73 2.76 0 4.58-1.09 5.52-2.75l-2-1.38a3.86 3.86 0 01-3.52 1.8c-1.69 0-3.43-1.12-3.61-3.52h9.46c.03-.13.08-.52.08-.7zm-6.16-4.55c1.87 0 2.99 1.2 3.28 3.25h-6.63c.28-2.08 1.53-3.25 3.35-3.25zm16.49-3.43c1.06 0 1.97-.88 1.97-1.95a2 2 0 00-1.97-1.98 1.96 1.96 0 000 3.93zM80.08 33h3.04V20h-3.04v13zm10.94.23c2.96 0 4.91-1.58 4.91-4 0-1.92-1.14-3.15-3.64-3.74l-1.64-.42c-1.04-.23-1.56-.73-1.56-1.5 0-.9.76-1.44 1.93-1.44 1.25 0 2 .5 2.36 1.59l2.27-1.3c-.65-1.7-2.32-2.65-4.63-2.65-2.89 0-4.73 1.53-4.73 3.95 0 1.87 1.17 3.1 3.5 3.66l1.62.4c1.2.28 1.71.72 1.71 1.58 0 .99-.78 1.5-2.08 1.5-1.4 0-2.44-.59-3.14-1.76l-2.03 1.48c1.04 1.74 2.78 2.65 5.15 2.65zm24.09-3.12v-5.43c0-3.15-1.98-4.91-5.52-4.91-2.6 0-4.37 1.01-5.15 2.9l2.32 1.18c.41-1.1 1.38-1.72 2.68-1.72 1.64 0 2.62.91 2.62 2.4v.33l-3.4.52c-3.2.47-4.7 1.8-4.7 4.08 0 2.27 1.7 3.77 4.36 3.77a4.7 4.7 0 004-1.92c.19 1.22 1.04 1.92 2.32 1.92.54 0 1.09-.07 1.38-.23l.02-1.95c-.65 0-.94-.29-.94-.94zm-6.3.91c-1.14 0-1.97-.7-1.97-1.66 0-1.17.78-1.82 2.55-2.08l2.67-.42v.47c0 2.29-1.22 3.7-3.25 3.7zm22.4-11.25a4.6 4.6 0 00-3.74 1.63v-6.6h-3.02V33h3.02v-7.51c0-2.06 1.07-3.28 2.84-3.28 1.53 0 2.41.91 2.41 2.6V33h3.02v-8.48c0-2.86-1.82-4.75-4.53-4.75zm12.2 10.76l2.28-2.37c2.45-2.54 5.13-5.1 5.13-8.13 0-3.23-2.4-5.44-5.88-5.44-3.15 0-5.28 1.61-5.8 4.27l2.6.96c.42-1.85 1.56-2.76 3.2-2.76 1.77 0 2.96 1.12 2.96 2.97 0 2.02-1.43 3.35-4.29 6.29l-4.57 4.76V33h11.8v-2.47h-7.44zm23.66-10.76a4.6 4.6 0 00-3.75 1.63v-6.6h-3.01V33h3.01v-7.51c0-2.06 1.07-3.28 2.84-3.28 1.53 0 2.41.91 2.41 2.6V33h3.02v-8.48c0-2.86-1.82-4.75-4.52-4.75zm19.39 6.91c0-4.18-2.4-6.89-6.16-6.89-3.75 0-6.32 2.7-6.32 6.71 0 3.93 2.6 6.73 6.55 6.73 2.76 0 4.58-1.09 5.51-2.75l-2-1.38a3.86 3.86 0 01-3.51 1.8c-1.69 0-3.43-1.12-3.61-3.52h9.46c.03-.13.08-.52.08-.7zm-6.16-4.55c1.87 0 2.99 1.2 3.27 3.25h-6.63c.29-2.08 1.54-3.25 3.36-3.25zm19.28 7.98v-5.43c0-3.15-1.98-4.91-5.51-4.91-2.6 0-4.37 1.01-5.15 2.9l2.31 1.18c.42-1.1 1.38-1.72 2.68-1.72 1.64 0 2.63.91 2.63 2.4v.33l-3.4.52c-3.2.47-4.71 1.8-4.71 4.08 0 2.27 1.71 3.77 4.36 3.77a4.7 4.7 0 004-1.92c.19 1.22 1.05 1.92 2.32 1.92.55 0 1.1-.07 1.38-.23l.03-1.95c-.65 0-.94-.29-.94-.94zm-6.3.91c-1.14 0-1.97-.7-1.97-1.66 0-1.17.78-1.82 2.55-2.08l2.68-.42v.47c0 2.29-1.22 3.7-3.25 3.7zm19.36-16.22v6.94a5.05 5.05 0 00-4.19-1.97c-3.46 0-6.11 2.86-6.11 6.73 0 3.87 2.65 6.73 6.11 6.73 1.95 0 3.56-.85 4.52-2.5V33h2.7V14.8h-3.03zm-3.75 15.99c-2.1 0-3.5-1.74-3.5-4.29s1.4-4.29 3.5-4.29c2.21 0 3.75 1.77 3.75 4.29s-1.54 4.29-3.75 4.29zM220.6 18.7c1.07 0 1.98-.88 1.98-1.95a2 2 0 00-1.98-1.98 1.96 1.96 0 000 3.93zM219.1 33h3.03V20h-3.04v13zm13.3-13.23c-1.93 0-3.46.83-4.19 2.18V20h-2.68v13h3.05v-7.49c0-2.05 1.04-3.3 2.8-3.3 1.54 0 2.42.94 2.42 2.57V33h3.04v-8.45c0-2.94-1.71-4.78-4.44-4.78zm17 .23v2.1a4.84 4.84 0 00-4.32-2.33c-3.33 0-5.82 2.73-5.82 6.4 0 3.63 2.5 6.36 5.82 6.36 1.67 0 3.04-.65 3.98-1.84v1.35c0 2.31-1.56 3.69-3.8 3.69a5.94 5.94 0 01-3.97-1.46l-1.33 2.27a8.27 8.27 0 005.3 1.63c4.22 0 6.84-2.36 6.84-6.21V20h-2.7zm-3.85 10.09c-1.95 0-3.28-1.59-3.28-3.93 0-2.36 1.33-3.95 3.28-3.95 2.05 0 3.51 1.64 3.51 3.95 0 2.32-1.46 3.93-3.51 3.93zm26.21.02v-5.43c0-3.15-1.97-4.91-5.5-4.91-2.6 0-4.38 1.01-5.15 2.9l2.3 1.18c.42-1.1 1.39-1.72 2.69-1.72 1.63 0 2.62.91 2.62 2.4v.33l-3.4.52c-3.2.47-4.7 1.8-4.7 4.08 0 2.27 1.7 3.77 4.36 3.77a4.7 4.7 0 004-1.92c.19 1.22 1.04 1.92 2.32 1.92.54 0 1.09-.07 1.38-.23l.02-1.95c-.65 0-.94-.29-.94-.94zm-6.29.91c-1.14 0-1.97-.7-1.97-1.66 0-1.17.78-1.82 2.55-2.08l2.67-.42v.47c0 2.29-1.22 3.7-3.25 3.7zm12.49 2.21c.62 0 1.2-.07 1.43-.2v-2.3c-.16.03-.29.06-.44.06-.4 0-.65-.23-.65-.73V14.8h-3.05v15.55c0 1.69 1.15 2.88 2.7 2.88zm5.71-14.53c1.07 0 1.98-.88 1.98-1.95a2 2 0 00-1.98-1.98 1.96 1.96 0 000 3.93zm-1.5 14.3h3.03V20h-3.04v13zm16.03-13v2.1a4.84 4.84 0 00-4.32-2.33c-3.32 0-5.82 2.73-5.82 6.4 0 3.63 2.5 6.36 5.82 6.36 1.67 0 3.05-.65 3.98-1.84v1.35c0 2.31-1.56 3.69-3.8 3.69a5.94 5.94 0 01-3.97-1.46l-1.33 2.27a8.27 8.27 0 005.3 1.63c4.22 0 6.84-2.36 6.84-6.21V20h-2.7zm-3.85 10.09c-1.95 0-3.28-1.59-3.28-3.93 0-2.36 1.33-3.95 3.28-3.95 2.05 0 3.51 1.64 3.51 3.95 0 2.32-1.46 3.93-3.5 3.93zm16.5-10.32c-1.92 0-3.45.83-4.18 2.18V20h-2.68v13h3.04v-7.49c0-2.05 1.04-3.3 2.81-3.3 1.54 0 2.42.94 2.42 2.57V33h3.04v-8.45c0-2.94-1.71-4.78-4.44-4.78zm19.32 6.91c0-4.18-2.4-6.89-6.16-6.89-3.75 0-6.32 2.7-6.32 6.71 0 3.93 2.6 6.73 6.55 6.73 2.76 0 4.58-1.09 5.51-2.75l-2-1.38a3.86 3.86 0 01-3.5 1.8c-1.7 0-3.44-1.12-3.62-3.52h9.46c.03-.13.08-.52.08-.7zM324 22.13c1.87 0 2.99 1.2 3.27 3.25h-6.63c.29-2.08 1.54-3.25 3.36-3.25zm18.42-7.33v6.94a5.05 5.05 0 00-4.18-1.97c-3.46 0-6.11 2.86-6.11 6.73 0 3.87 2.65 6.73 6.1 6.73 1.96 0 3.57-.85 4.53-2.5V33h2.7V14.8h-3.04zm-3.74 15.99c-2.1 0-3.51-1.74-3.51-4.29s1.4-4.29 3.5-4.29c2.22 0 3.75 1.77 3.75 4.29s-1.53 4.29-3.74 4.29zm22.01 0c-1.35 0-2-.6-2-1.87v-6.48h3.33V20h-3.33v-4.06h-3.04V20h-2.1v2.44h2.1v6.58c0 2.7 1.61 4.21 4.5 4.21.9 0 1.61-.07 2.1-.28v-2.4c-.41.16-.96.24-1.56.24zm10 2.44c3.78 0 6.56-2.75 6.56-6.73 0-3.98-2.78-6.73-6.55-6.73s-6.56 2.75-6.56 6.73c0 3.98 2.79 6.73 6.56 6.73zm0-2.44c-2.07 0-3.5-1.72-3.5-4.29 0-2.57 1.43-4.29 3.5-4.29 2.09 0 3.52 1.72 3.52 4.29 0 2.57-1.43 4.29-3.51 4.29zm-347.03 32c-1.35 0-2-.6-2-1.87v-6.48H25V52h-3.33v-4.06h-3.04V52h-2.11v2.44h2.1v6.58c0 2.7 1.62 4.21 4.5 4.21.91 0 1.62-.07 2.11-.28v-2.4c-.42.16-.96.24-1.56.24zm10.8-11.02a4.6 4.6 0 00-3.74 1.63v-6.6h-3.01V65h3.01v-7.51c0-2.06 1.07-3.28 2.84-3.28 1.53 0 2.41.91 2.41 2.6V65H39v-8.48c0-2.86-1.82-4.75-4.52-4.75zm19.4 6.91c0-4.18-2.4-6.89-6.16-6.89-3.75 0-6.32 2.7-6.32 6.71 0 3.93 2.6 6.73 6.55 6.73 2.76 0 4.58-1.09 5.51-2.75l-2-1.38a3.86 3.86 0 01-3.51 1.8c-1.69 0-3.43-1.12-3.61-3.52h9.46c.03-.13.08-.52.08-.7zm-6.16-4.55c1.87 0 2.99 1.2 3.27 3.25h-6.63c.29-2.08 1.54-3.25 3.36-3.25zM71.99 52v2.1a4.84 4.84 0 00-4.31-2.33c-3.33 0-5.83 2.73-5.83 6.4 0 3.63 2.5 6.36 5.83 6.36 1.66 0 3.04-.65 3.98-1.84v1.35c0 2.31-1.56 3.69-3.8 3.69a5.94 5.94 0 01-3.98-1.46l-1.32 2.27a8.27 8.27 0 005.3 1.63c4.21 0 6.84-2.36 6.84-6.21V52H72zm-3.84 10.09c-1.95 0-3.28-1.59-3.28-3.93 0-2.36 1.33-3.95 3.28-3.95 2.05 0 3.5 1.64 3.5 3.95 0 2.32-1.45 3.93-3.5 3.93zm16.11-10.32c-1.69 0-3.12.9-3.8 2.34V52H77.8v13h3.04v-7.3c0-2.22 1.27-3.3 3.35-3.3.5 0 .94.04 1.28.12V51.9c-.21-.06-.65-.13-1.2-.13zm5.07-1.07c1.07 0 1.98-.88 1.98-1.95a2 2 0 00-1.98-1.98 1.96 1.96 0 000 3.93zM87.83 65h3.03V52h-3.04v13zm16.16-18.2v6.94a5.05 5.05 0 00-4.19-1.97c-3.45 0-6.1 2.86-6.1 6.73 0 3.87 2.65 6.73 6.1 6.73 1.95 0 3.56-.85 4.53-2.5V65h2.7V46.8H104zm-3.74 15.99c-2.11 0-3.51-1.74-3.51-4.29s1.4-4.29 3.5-4.29c2.22 0 3.75 1.77 3.75 4.29s-1.53 4.29-3.74 4.29zm23.13-11.02c-1.74 0-3.2.67-4.19 1.97V46.8h-3.04V65h2.7v-2.26a5.01 5.01 0 004.53 2.5c3.46 0 6.08-2.87 6.08-6.74s-2.62-6.73-6.08-6.73zm-.44 11.02c-2.21 0-3.75-1.8-3.75-4.29 0-2.5 1.54-4.29 3.75-4.29 2.03 0 3.5 1.8 3.5 4.29 0 2.5-1.45 4.29-3.5 4.29zm21.01-4.1c0-4.2-2.39-6.9-6.16-6.9-3.74 0-6.32 2.7-6.32 6.71 0 3.93 2.6 6.73 6.56 6.73 2.75 0 4.57-1.09 5.5-2.75l-2-1.38a3.86 3.86 0 01-3.5 1.8c-1.7 0-3.44-1.12-3.62-3.52h9.47c.02-.13.07-.52.07-.7zm-6.16-4.56c1.87 0 3 1.2 3.28 3.25h-6.63c.28-2.08 1.53-3.25 3.35-3.25zm14.6 11.1c2.74 0 4.56-1.14 5.34-3.17l-2.27-1.35a3.05 3.05 0 01-3.04 2.08c-2.1 0-3.48-1.69-3.48-4.29 0-2.47 1.38-4.29 3.48-4.29 1.46 0 2.58.75 3.02 2.21l2.52-1.17c-.65-2.24-2.8-3.48-5.54-3.48-3.85 0-6.52 2.78-6.52 6.73 0 3.95 2.73 6.73 6.5 6.73zm18.4-3.12v-5.43c0-3.15-1.98-4.91-5.51-4.91-2.6 0-4.37 1.01-5.15 2.9l2.31 1.18c.42-1.1 1.38-1.72 2.68-1.72 1.64 0 2.63.91 2.63 2.4v.33l-3.41.52c-3.2.47-4.7 1.8-4.7 4.08 0 2.27 1.7 3.77 4.36 3.77a4.7 4.7 0 004-1.92c.19 1.22 1.04 1.92 2.32 1.92.55 0 1.1-.07 1.38-.23l.02-1.95c-.65 0-.93-.29-.93-.94zm-6.3.91c-1.14 0-1.97-.7-1.97-1.66 0-1.17.78-1.82 2.55-2.08l2.68-.42v.47c0 2.29-1.23 3.7-3.25 3.7zM182.24 52v7.49c0 2.05-1.04 3.3-2.83 3.3-1.51 0-2.4-.94-2.4-2.57V52h-3.04v8.45c0 2.94 1.72 4.78 4.45 4.78 1.92 0 3.43-.8 4.16-2.13V65h2.7V52h-3.04zm10.66 13.23c2.96 0 4.91-1.58 4.91-4 0-1.92-1.14-3.15-3.64-3.74l-1.64-.42c-1.04-.23-1.56-.73-1.56-1.5 0-.9.76-1.44 1.93-1.44 1.24 0 2 .5 2.36 1.59l2.26-1.3c-.65-1.7-2.31-2.65-4.62-2.65-2.89 0-4.74 1.53-4.74 3.95 0 1.87 1.17 3.1 3.51 3.66l1.62.4c1.2.28 1.71.72 1.71 1.58 0 .99-.78 1.5-2.08 1.5-1.4 0-2.44-.59-3.14-1.76l-2.03 1.48c1.04 1.74 2.78 2.65 5.15 2.65zm19.42-6.55c0-4.18-2.4-6.89-6.17-6.89-3.74 0-6.31 2.7-6.31 6.71 0 3.93 2.6 6.73 6.55 6.73 2.75 0 4.57-1.09 5.51-2.75l-2-1.38a3.86 3.86 0 01-3.51 1.8c-1.7 0-3.43-1.12-3.62-3.52h9.47c.02-.13.08-.52.08-.7zm-6.17-4.55c1.88 0 3 1.2 3.28 3.25h-6.63c.29-2.08 1.53-3.25 3.35-3.25zm16.5-3.43c1.06 0 1.97-.88 1.97-1.95a2 2 0 00-1.98-1.98c-1.06 0-1.95.91-1.95 1.98 0 1.07.88 1.95 1.95 1.95zM221.11 65h3.04V52h-3.04v13zm12.56-2.21c-1.36 0-2-.6-2-1.87v-6.48H235V52h-3.33v-4.06h-3.04V52h-2.1v2.44h2.1v6.58c0 2.7 1.61 4.21 4.5 4.21.91 0 1.61-.07 2.1-.28v-2.4c-.41.16-.96.24-1.55.24zm3.78-8.35h2.5l2.18-7.64h-3.5l-1.18 7.64zm9.5 10.8c2.97 0 4.92-1.6 4.92-4.01 0-1.92-1.14-3.15-3.64-3.74l-1.64-.42c-1.04-.23-1.56-.73-1.56-1.5 0-.9.76-1.44 1.93-1.44 1.25 0 2 .5 2.36 1.59l2.27-1.3c-.65-1.7-2.32-2.65-4.63-2.65-2.89 0-4.73 1.53-4.73 3.95 0 1.87 1.17 3.1 3.5 3.66l1.62.4c1.2.28 1.71.72 1.71 1.58 0 .99-.78 1.5-2.08 1.5-1.4 0-2.44-.59-3.14-1.76l-2.03 1.48c1.04 1.74 2.78 2.65 5.15 2.65zm-226.54 32c.62 0 1.2-.08 1.43-.21v-2.3c-.16.03-.29.06-.44.06-.4 0-.65-.23-.65-.73V78.8h-3.04v15.55c0 1.69 1.14 2.88 2.7 2.88zm5.71-14.54c1.07 0 1.98-.88 1.98-1.95a2 2 0 00-1.98-1.98c-1.06 0-1.95.91-1.95 1.98 0 1.07.89 1.95 1.95 1.95zM24.63 97h3.04V84h-3.04v13zm13.3-13.23c-1.92 0-3.46.83-4.18 2.18V84h-2.68v13h3.04v-7.49c0-2.05 1.04-3.3 2.8-3.3 1.54 0 2.43.94 2.43 2.57V97h3.04v-8.45c0-2.94-1.72-4.78-4.45-4.78zm19.32 6.91c0-4.18-2.4-6.89-6.17-6.89-3.74 0-6.31 2.7-6.31 6.71 0 3.93 2.6 6.73 6.55 6.73 2.75 0 4.57-1.09 5.5-2.75l-2-1.38a3.86 3.86 0 01-3.5 1.8c-1.7 0-3.43-1.12-3.62-3.52h9.47c.02-.13.08-.52.08-.7zm-6.17-4.55c1.88 0 3 1.2 3.28 3.25h-6.63c.29-2.08 1.53-3.25 3.35-3.25zm8.44 4.3h6.5v-2.45h-6.5v2.44zm16.14-6.66a4.6 4.6 0 00-3.74 1.63v-6.6H68.9V97h3.02v-7.51c0-2.06 1.06-3.28 2.83-3.28 1.53 0 2.42.91 2.42 2.6V97h3.01v-8.48c0-2.86-1.82-4.75-4.52-4.75zm19.4 6.91c0-4.18-2.4-6.89-6.17-6.89-3.74 0-6.32 2.7-6.32 6.71 0 3.93 2.6 6.73 6.55 6.73 2.76 0 4.58-1.09 5.52-2.75l-2-1.38a3.86 3.86 0 01-3.52 1.8c-1.69 0-3.43-1.12-3.61-3.52h9.46c.03-.13.08-.52.08-.7zm-6.17-4.55c1.87 0 2.99 1.2 3.28 3.25h-6.63c.28-2.08 1.53-3.25 3.35-3.25zm10.5-3.43c1.06 0 1.97-.88 1.97-1.95a2 2 0 00-1.97-1.98 1.96 1.96 0 000 3.93zM97.88 97h3.04V84h-3.04v13zm16.03-13v2.1a4.84 4.84 0 00-4.31-2.33c-3.33 0-5.83 2.73-5.83 6.4 0 3.63 2.5 6.36 5.83 6.36 1.66 0 3.04-.65 3.98-1.84v1.35c0 2.31-1.56 3.69-3.8 3.69a5.94 5.94 0 01-3.98-1.46l-1.32 2.27a8.27 8.27 0 005.3 1.63c4.21 0 6.84-2.36 6.84-6.21V84h-2.7zm-3.84 10.09c-1.95 0-3.28-1.59-3.28-3.93 0-2.36 1.33-3.95 3.28-3.95 2.05 0 3.5 1.64 3.5 3.95 0 2.32-1.45 3.93-3.5 3.93zm16.42-10.32a4.6 4.6 0 00-3.74 1.63v-6.6h-3.02V97h3.02v-7.51c0-2.06 1.06-3.28 2.83-3.28 1.54 0 2.42.91 2.42 2.6V97h3.02v-8.48c0-2.86-1.82-4.75-4.53-4.75zm13.6 11.02c-1.36 0-2-.6-2-1.87v-6.48h3.32V84h-3.33v-4.06h-3.04V84h-2.1v2.44h2.1v6.58c0 2.7 1.61 4.21 4.5 4.21.91 0 1.61-.07 2.1-.28v-2.4c-.41.16-.96.24-1.55.24zm11.8-12.09c1.07 0 1.98-.88 1.98-1.95a2 2 0 00-1.98-1.98c-1.06 0-1.95.91-1.95 1.98 0 1.07.89 1.95 1.95 1.95zM150.4 97h3.04V84h-3.05v13zm10.94.23c2.96 0 4.91-1.58 4.91-4 0-1.92-1.14-3.15-3.64-3.74l-1.64-.42c-1.04-.23-1.56-.73-1.56-1.5 0-.9.76-1.44 1.93-1.44 1.24 0 2 .5 2.36 1.59l2.26-1.3c-.65-1.7-2.31-2.65-4.62-2.65-2.89 0-4.74 1.53-4.74 3.95 0 1.87 1.17 3.1 3.51 3.66l1.62.4c1.2.28 1.71.72 1.71 1.58 0 .99-.78 1.5-2.08 1.5-1.4 0-2.44-.59-3.14-1.76l-2.03 1.48c1.04 1.74 2.78 2.65 5.15 2.65zm22.65-10.14a3.87 3.87 0 002.6-3.82c0-3.04-2.47-4.68-5.7-4.68-3.11 0-5.04 1.51-5.53 4.21l2.47.7c.29-1.55 1.3-2.49 3.07-2.49 1.53 0 2.73.88 2.73 2.44 0 1.64-1.07 2.66-2.63 2.66h-1.56v2.39H181c2.1 0 3.49 1.27 3.49 3.14 0 1.85-1.51 3.1-3.41 3.1-1.92 0-3.28-1.02-3.72-2.89l-2.65 1.02c.73 2.67 2.86 4.34 6.37 4.34 3.9 0 6.45-2.4 6.45-5.57 0-2.5-1.28-4.03-3.54-4.55zm11.15 7.44l2.28-2.37c2.45-2.54 5.13-5.1 5.13-8.13 0-3.23-2.4-5.44-5.88-5.44-3.15 0-5.28 1.61-5.8 4.27l2.6.96c.42-1.85 1.56-2.76 3.2-2.76 1.77 0 2.96 1.12 2.96 2.97 0 2.02-1.43 3.35-4.29 6.29l-4.57 4.76V97h11.8v-2.47h-7.44zm24.1-10.76c-1.95 0-3.56.85-4.52 2.5V84H212v17.94h3.03v-6.68a5.05 5.05 0 004.19 1.97c3.46 0 6.08-2.86 6.08-6.73 0-3.87-2.62-6.73-6.08-6.73zm-.44 11.02c-2.21 0-3.75-1.77-3.75-4.29s1.54-4.29 3.75-4.29c2.1 0 3.5 1.74 3.5 4.29s-1.42 4.29-3.5 4.29zm10.9-12.09c1.07 0 1.98-.88 1.98-1.95a2 2 0 00-1.98-1.98 1.96 1.96 0 000 3.93zm-1.5 14.3h3.03V84h-3.04v13zm18.37 0l-4.94-6.5 4.68-6.5h-3.49l-2.83 4.42-2.83-4.42h-3.57l4.68 6.53-4.94 6.47h3.57l3.01-4.29 3 4.29h3.66zm12.77-6.32c0-4.18-2.4-6.89-6.16-6.89-3.75 0-6.32 2.7-6.32 6.71 0 3.93 2.6 6.73 6.55 6.73 2.76 0 4.58-1.09 5.51-2.75l-2-1.38a3.86 3.86 0 01-3.5 1.8c-1.7 0-3.44-1.12-3.62-3.52h9.46c.03-.13.08-.52.08-.7zm-6.16-4.55c1.87 0 2.99 1.2 3.27 3.25h-6.63c.29-2.08 1.54-3.25 3.36-3.25zm11.56 11.1c.62 0 1.2-.07 1.43-.2v-2.3c-.16.03-.29.06-.44.06-.4 0-.65-.23-.65-.73V78.8h-3.05v15.55c0 1.69 1.15 2.88 2.7 2.88zm8.42 0c2.96 0 4.91-1.58 4.91-4 0-1.92-1.14-3.15-3.64-3.74l-1.64-.42c-1.04-.23-1.56-.73-1.56-1.5 0-.9.76-1.44 1.93-1.44 1.24 0 2 .5 2.36 1.59l2.26-1.3c-.65-1.7-2.31-2.65-4.62-2.65-2.89 0-4.74 1.53-4.74 3.95 0 1.87 1.17 3.1 3.51 3.66l1.62.4c1.2.28 1.71.72 1.71 1.58 0 .99-.78 1.5-2.08 1.5-1.4 0-2.44-.59-3.14-1.76L268 94.58c1.04 1.74 2.78 2.65 5.15 2.65zm18.34 3.07l1.95-1.97c-2.97-2.73-4.16-6.43-4.16-10.43s1.53-7.72 4.16-10.43l-1.95-1.97c-3 2.57-5.3 7.3-5.3 12.4 0 5.28 2.3 10.09 5.3 12.4zm8.96-5.77l2.28-2.37c2.45-2.54 5.13-5.1 5.13-8.13 0-3.23-2.4-5.44-5.88-5.44-3.15 0-5.28 1.61-5.8 4.27l2.6.96c.42-1.85 1.56-2.76 3.2-2.76 1.77 0 2.96 1.12 2.96 2.97 0 2.02-1.43 3.35-4.29 6.29l-4.57 4.76V97h11.8v-2.47h-7.43zm17.35-10.76c-1.69 0-3.12.9-3.8 2.34V84h-2.67v13h3.04v-7.3c0-2.22 1.28-3.3 3.36-3.3.49 0 .93.04 1.27.12V83.9c-.2-.06-.65-.13-1.2-.13zm14.93 6.91c0-4.18-2.39-6.89-6.16-6.89-3.74 0-6.32 2.7-6.32 6.71 0 3.93 2.6 6.73 6.56 6.73 2.75 0 4.57-1.09 5.5-2.75l-2-1.38a3.86 3.86 0 01-3.5 1.8c-1.7 0-3.44-1.12-3.62-3.52h9.47c.02-.13.07-.52.07-.7zm-6.16-4.55c1.87 0 3 1.2 3.28 3.25h-6.63c.28-2.08 1.53-3.25 3.35-3.25zm23.26-2.34a4.3 4.3 0 00-4.03 2.42c-.6-1.56-1.95-2.42-4.05-2.42-1.7 0-3.05.83-3.77 2.06V84h-2.68v13h3.01v-7.7c0-1.9 1-3.09 2.66-3.09 1.58 0 2.41.88 2.41 2.57V97h3.02v-7.8c0-1.9.99-2.99 2.65-2.99 1.59 0 2.42.88 2.42 2.57V97h3.02v-8.45c0-3.02-1.64-4.76-4.66-4.76zm8.75 16.51c3-2.31 5.3-7.12 5.3-12.4 0-5.1-2.3-9.83-5.3-12.4l-1.95 1.97a14.92 14.92 0 014.16 10.43c0 4-1.2 7.7-4.16 10.43l1.95 1.97zm9.74-3.14c1.07 0 1.98-.89 1.98-1.95a2 2 0 00-1.98-1.98c-1.06 0-1.95.91-1.95 1.98 0 1.06.89 1.95 1.95 1.95zM24.91 125.4v5.65h-5.85v-5.65h-1.62V138h1.62v-5.62h5.85V138h1.62v-12.6h-1.62zm12.26 8.2c0-2.87-1.62-4.74-4.2-4.74-2.57 0-4.3 1.89-4.3 4.64 0 2.74 1.8 4.64 4.5 4.64 1.7 0 3-.68 3.71-1.92l-1.12-.76a2.78 2.78 0 01-2.57 1.42c-1.53 0-2.86-.95-2.99-2.95h6.95c.02-.05.02-.25.02-.32zm-4.2-3.47c1.53 0 2.49 1 2.69 2.67h-5.42c.2-1.73 1.26-2.67 2.73-2.67zm9.95-1.27a2.7 2.7 0 00-2.57 1.67V129h-1.39v9h1.57v-5.22c0-1.71 1-2.54 2.34-2.54.34 0 .6.02.81.06v-1.35c-.14-.06-.4-.1-.76-.1zm10.14 4.75c0-2.88-1.62-4.75-4.2-4.75-2.57 0-4.3 1.89-4.3 4.64 0 2.74 1.8 4.64 4.5 4.64 1.7 0 3-.68 3.71-1.92l-1.11-.76a2.78 2.78 0 01-2.58 1.42c-1.53 0-2.86-.95-2.99-2.95h6.95c.02-.05.02-.25.02-.32zm-4.2-3.48c1.54 0 2.49 1 2.69 2.67h-5.42c.2-1.73 1.26-2.67 2.74-2.67zm11.24-2.46c.58 0 1.05-.49 1.05-1.06 0-.58-.47-1.05-1.05-1.05-.57 0-1.06.47-1.06 1.05 0 .57.49 1.06 1.06 1.06zM59.31 138h1.57v-9H59.3v9zm7 .14c1.95 0 3.26-1.06 3.26-2.66 0-1.28-.8-2.14-2.35-2.54l-1.21-.29c-.92-.23-1.31-.6-1.31-1.26 0-.77.63-1.27 1.6-1.27.95 0 1.58.41 1.87 1.2l1.17-.68c-.43-1.15-1.51-1.78-3.04-1.78-1.86 0-3.08 1.04-3.08 2.59 0 1.22.81 2.09 2.36 2.46l1.13.3c.96.23 1.39.62 1.39 1.3 0 .87-.67 1.37-1.78 1.37-1.1 0-1.9-.46-2.33-1.36l-1.1.79c.64 1.19 1.84 1.83 3.43 1.83zm16.18-1.74v-4.21c0-2.13-1.3-3.33-3.61-3.33-1.68 0-2.85.66-3.35 1.92l1.2.63c.35-.84 1.07-1.3 2.11-1.3 1.28 0 2.09.74 2.09 1.95v.34l-2.63.38c-2.1.32-3.17 1.26-3.17 2.8 0 1.56 1.19 2.56 2.99 2.56a3.4 3.4 0 002.9-1.44c0 .89.52 1.44 1.33 1.44.34 0 .61-.05.77-.14l.02-1c-.45 0-.65-.17-.65-.6zm-4.17.54c-1 0-1.68-.56-1.68-1.39 0-.97.63-1.5 2.02-1.69l2.27-.32v.64c0 1.68-1.01 2.76-2.61 2.76zm15.34-8.08a3.6 3.6 0 00-3.33 2V129h-1.4v12.42h1.58v-4.95a3.59 3.59 0 003.15 1.67c2.4 0 4.23-1.9 4.23-4.64 0-2.74-1.82-4.64-4.23-4.64zm-.18 7.99c-1.73 0-2.97-1.42-2.97-3.35 0-1.93 1.24-3.35 2.97-3.35 1.7 0 2.82 1.39 2.82 3.35 0 1.96-1.13 3.35-2.82 3.35zm13.15-.45v-4.21c0-2.13-1.3-3.33-3.62-3.33-1.67 0-2.84.66-3.35 1.92l1.2.63c.35-.84 1.07-1.3 2.11-1.3 1.28 0 2.1.74 2.1 1.95v.34l-2.64.38c-2.1.32-3.16 1.26-3.16 2.8 0 1.56 1.18 2.56 2.98 2.56a3.4 3.4 0 002.9-1.44c0 .89.52 1.44 1.33 1.44.35 0 .62-.05.78-.14l.02-1c-.45 0-.65-.17-.65-.6zm-4.18.54c-.99 0-1.67-.56-1.67-1.39 0-.97.63-1.5 2.01-1.69l2.27-.32v.64c0 1.68-1 2.76-2.6 2.76zm10.44-8.08a2.7 2.7 0 00-2.58 1.67V129h-1.38v9h1.56v-5.22c0-1.71 1.01-2.54 2.34-2.54.34 0 .6.02.81.06v-1.35c-.14-.06-.4-.1-.75-.1zm8.82 7.54v-4.21c0-2.13-1.3-3.33-3.62-3.33-1.67 0-2.84.66-3.35 1.92l1.21.63c.34-.84 1.06-1.3 2.1-1.3 1.28 0 2.1.74 2.1 1.95v.34l-2.63.38c-2.11.32-3.17 1.26-3.17 2.8 0 1.56 1.19 2.56 2.99 2.56a3.4 3.4 0 002.9-1.44c0 .89.52 1.44 1.33 1.44.34 0 .6-.05.77-.14l.02-1c-.45 0-.65-.17-.65-.6zm-4.18.54c-.99 0-1.67-.56-1.67-1.39 0-.97.63-1.5 2.02-1.69l2.26-.32v.64c0 1.68-1 2.76-2.6 2.76zM131 129v1.76a3.47 3.47 0 00-3.24-1.9c-2.4 0-4.12 1.85-4.12 4.42 0 2.6 1.73 4.45 4.12 4.45a3.5 3.5 0 003.04-1.57v1.21c0 1.78-1.18 2.9-3 2.9-1.2 0-2.2-.42-2.94-1.05l-.7 1.17a5.67 5.67 0 003.64 1.17c2.8 0 4.57-1.63 4.57-4.26V129h-1.37zm-3.06 7.43c-1.6 0-2.72-1.3-2.72-3.15 0-1.85 1.1-3.13 2.72-3.13 1.66 0 2.86 1.32 2.86 3.13 0 1.82-1.2 3.15-2.86 3.15zm10.51-7.57a2.7 2.7 0 00-2.57 1.67V129h-1.39v9h1.57v-5.22c0-1.71 1-2.54 2.34-2.54.34 0 .6.02.81.06v-1.35c-.14-.06-.4-.1-.76-.1zm8.83 7.54v-4.21c0-2.13-1.3-3.33-3.62-3.33-1.67 0-2.84.66-3.35 1.92l1.2.63c.35-.84 1.07-1.3 2.12-1.3 1.27 0 2.08.74 2.08 1.95v.34l-2.63.38c-2.1.32-3.16 1.26-3.16 2.8 0 1.56 1.19 2.56 2.99 2.56a3.4 3.4 0 002.9-1.44c0 .89.51 1.44 1.32 1.44.35 0 .62-.05.78-.14l.02-1c-.45 0-.65-.17-.65-.6zm-4.18.54c-.99 0-1.67-.56-1.67-1.39 0-.97.63-1.5 2.02-1.69l2.26-.32v.64c0 1.68-1 2.76-2.6 2.76zm11.2-8.08a3.6 3.6 0 00-3.34 2V129h-1.38v12.42h1.56v-4.95a3.59 3.59 0 003.15 1.67c2.41 0 4.23-1.9 4.23-4.64 0-2.74-1.82-4.64-4.23-4.64zm-.19 7.99c-1.73 0-2.97-1.42-2.97-3.35 0-1.93 1.24-3.35 2.97-3.35 1.71 0 2.83 1.39 2.83 3.35 0 1.96-1.14 3.35-2.83 3.35zm10.5-8c-1.22 0-2.2.51-2.75 1.36v-4.81h-1.58V138h1.58v-5.24c0-1.6.92-2.63 2.36-2.63 1.33 0 2.05.8 2.05 2.25V138h1.59v-5.72c0-2.1-1.26-3.42-3.24-3.42zm13.8 0c-1.23 0-2.22.51-2.76 1.36v-4.81h-1.59V138h1.59v-5.24c0-1.6.92-2.63 2.36-2.63 1.33 0 2.05.8 2.05 2.25V138h1.58v-5.72c0-2.1-1.26-3.42-3.24-3.42zm13.4 4.76c0-2.88-1.62-4.75-4.2-4.75-2.56 0-4.3 1.89-4.3 4.64 0 2.74 1.8 4.64 4.5 4.64 1.7 0 3.01-.68 3.71-1.92l-1.11-.76a2.78 2.78 0 01-2.58 1.42c-1.53 0-2.86-.95-2.98-2.95h6.94c.02-.05.02-.25.02-.32zm-4.2-3.48c1.54 0 2.5 1 2.7 2.67h-5.43c.2-1.73 1.26-2.67 2.74-2.67zm12.98 6.27v-4.21c0-2.13-1.3-3.33-3.61-3.33-1.68 0-2.85.66-3.35 1.92l1.2.63c.35-.84 1.07-1.3 2.11-1.3 1.28 0 2.09.74 2.09 1.95v.34l-2.63.38c-2.1.32-3.17 1.26-3.17 2.8 0 1.56 1.19 2.56 2.99 2.56a3.4 3.4 0 002.9-1.44c0 .89.52 1.44 1.33 1.44.34 0 .61-.05.77-.14l.02-1c-.45 0-.65-.17-.65-.6zm-4.17.54c-1 0-1.68-.56-1.68-1.39 0-.97.63-1.5 2.02-1.69l2.27-.32v.64c0 1.68-1.01 2.76-2.61 2.76zm13.46-11.54v5.13a3.59 3.59 0 00-3.16-1.67c-2.4 0-4.2 1.9-4.2 4.64 0 2.74 1.8 4.64 4.2 4.64a3.6 3.6 0 003.33-2V138h1.4v-12.6h-1.57zm-2.97 11.45c-1.72 0-2.83-1.39-2.83-3.35 0-1.96 1.15-3.35 2.83-3.35 1.72 0 2.97 1.42 2.97 3.35 0 1.93-1.25 3.35-2.97 3.35zm7.78-9.18c.58 0 1.05-.49 1.05-1.06 0-.58-.47-1.05-1.05-1.05-.57 0-1.06.47-1.06 1.05 0 .57.49 1.06 1.06 1.06zM213.9 138h1.57v-9h-1.57v9zm8.4-9.14c-1.36 0-2.44.6-2.98 1.63V129h-1.38v9h1.56v-5.2c0-1.62.92-2.67 2.36-2.67 1.33 0 2.07.8 2.07 2.22V138h1.57v-5.72c0-2.15-1.19-3.42-3.2-3.42zm12.24.14v1.76a3.47 3.47 0 00-3.24-1.9c-2.4 0-4.13 1.85-4.13 4.42 0 2.6 1.73 4.45 4.13 4.45a3.5 3.5 0 003.04-1.57v1.21c0 1.78-1.19 2.9-3 2.9-1.21 0-2.2-.42-2.94-1.05l-.7 1.17a5.67 5.67 0 003.63 1.17c2.81 0 4.58-1.63 4.58-4.26V129h-1.37zm-3.06 7.43c-1.6 0-2.72-1.3-2.72-3.15 0-1.85 1.1-3.13 2.72-3.13 1.65 0 2.86 1.32 2.86 3.13 0 1.82-1.2 3.15-2.86 3.15zm17.68-.03v-4.21c0-2.13-1.3-3.33-3.62-3.33-1.67 0-2.84.66-3.34 1.92l1.2.63c.34-.84 1.06-1.3 2.1-1.3 1.29 0 2.1.74 2.1 1.95v.34l-2.63.38c-2.1.32-3.17 1.26-3.17 2.8 0 1.56 1.19 2.56 2.99 2.56a3.4 3.4 0 002.9-1.44c0 .89.52 1.44 1.33 1.44.34 0 .61-.05.77-.14l.02-1c-.45 0-.65-.17-.65-.6zm-4.17.54c-1 0-1.68-.56-1.68-1.39 0-.97.63-1.5 2.02-1.69l2.27-.32v.64c0 1.68-1.01 2.76-2.61 2.76zm8.23 1.2c.38 0 .65-.05.78-.1v-1.23a1.3 1.3 0 01-.3.04c-.3 0-.55-.16-.55-.6V125.4h-1.56v10.94c0 1.12.66 1.8 1.63 1.8zm3.6-10.47c.58 0 1.05-.49 1.05-1.06 0-.58-.47-1.05-1.04-1.05-.58 0-1.06.47-1.06 1.05 0 .57.48 1.06 1.06 1.06zm-.78 10.33h1.56v-9h-1.56v9zm11.02-9v1.76a3.47 3.47 0 00-3.24-1.9c-2.4 0-4.13 1.85-4.13 4.42 0 2.6 1.73 4.45 4.13 4.45a3.5 3.5 0 003.04-1.57v1.21c0 1.78-1.19 2.9-3 2.9-1.21 0-2.2-.42-2.94-1.05l-.7 1.17a5.67 5.67 0 003.63 1.17c2.81 0 4.57-1.63 4.57-4.26V129h-1.36zm-3.06 7.43c-1.6 0-2.72-1.3-2.72-3.15 0-1.85 1.1-3.13 2.72-3.13 1.65 0 2.86 1.32 2.86 3.13 0 1.82-1.2 3.15-2.86 3.15zm10.9-7.57c-1.34 0-2.43.6-2.96 1.63V129h-1.4v9h1.58v-5.2c0-1.62.91-2.67 2.35-2.67 1.34 0 2.07.8 2.07 2.22V138h1.57v-5.72c0-2.15-1.19-3.42-3.2-3.42zm13.38 4.75c0-2.88-1.62-4.75-4.2-4.75-2.57 0-4.3 1.89-4.3 4.64 0 2.74 1.8 4.64 4.5 4.64 1.7 0 3.01-.68 3.71-1.92l-1.11-.76a2.78 2.78 0 01-2.58 1.42c-1.53 0-2.86-.95-2.98-2.95h6.94c.02-.05.02-.25.02-.32zm-4.2-3.48c1.54 0 2.5 1 2.69 2.67h-5.42c.2-1.73 1.26-2.67 2.74-2.67zm12.98-4.73v5.13a3.59 3.59 0 00-3.15-1.67c-2.41 0-4.21 1.9-4.21 4.64 0 2.74 1.8 4.64 4.21 4.64a3.6 3.6 0 003.33-2V138h1.39v-12.6h-1.57zm-2.97 11.45c-1.7 0-2.82-1.39-2.82-3.35 0-1.96 1.15-3.35 2.82-3.35 1.73 0 2.97 1.42 2.97 3.35 0 1.93-1.24 3.35-2.97 3.35zm14.6 0c-.91 0-1.38-.43-1.38-1.3v-5.25h2.3V129h-2.3v-2.8h-1.57v2.8h-1.53v1.3h1.53v5.29c0 1.64.97 2.55 2.68 2.55.53 0 1.03-.07 1.32-.18v-1.26c-.25.1-.63.15-1.05.15zm6.81 1.3c2.54 0 4.43-1.86 4.43-4.65s-1.89-4.64-4.43-4.64-4.43 1.85-4.43 4.64c0 2.79 1.9 4.64 4.43 4.64zm0-1.3c-1.65 0-2.86-1.33-2.86-3.35s1.2-3.35 2.86-3.35 2.87 1.33 2.87 3.35-1.21 3.35-2.87 3.35zm14.13 0c-.92 0-1.39-.43-1.39-1.3v-5.25h2.3V129h-2.3v-2.8h-1.56v2.8h-1.53v1.3h1.53v5.29c0 1.64.97 2.55 2.68 2.55.52 0 1.02-.07 1.31-.18v-1.26c-.25.1-.63.15-1.04.15zm7.1-8c-1.23 0-2.22.51-2.76 1.36v-4.81h-1.58V138h1.58v-5.24c0-1.6.92-2.63 2.36-2.63 1.33 0 2.05.8 2.05 2.25V138h1.59v-5.72c0-2.1-1.26-3.42-3.24-3.42zm13.41 4.76c0-2.88-1.62-4.75-4.2-4.75-2.57 0-4.3 1.89-4.3 4.64 0 2.74 1.8 4.64 4.5 4.64 1.7 0 3.01-.68 3.71-1.92l-1.11-.76a2.78 2.78 0 01-2.58 1.42c-1.53 0-2.86-.95-2.99-2.95h6.95c.02-.05.02-.25.02-.32zm-4.2-3.48c1.54 0 2.49 1 2.69 2.67h-5.42c.2-1.73 1.26-2.67 2.74-2.67zM24.07 153v1.76a3.47 3.47 0 00-3.24-1.9c-2.39 0-4.12 1.85-4.12 4.42 0 2.6 1.73 4.45 4.12 4.45a3.5 3.5 0 003.05-1.57v1.21c0 1.78-1.2 2.9-3.01 2.9-1.2 0-2.2-.42-2.93-1.05l-.7 1.17a5.67 5.67 0 003.63 1.17c2.8 0 4.57-1.63 4.57-4.26V153h-1.37zM21 160.43c-1.6 0-2.71-1.3-2.71-3.15 0-1.85 1.1-3.13 2.71-3.13 1.66 0 2.87 1.32 2.87 3.13 0 1.82-1.21 3.15-2.87 3.15zm10.52-7.57a2.7 2.7 0 00-2.58 1.67V153h-1.38v9h1.56v-5.22c0-1.71 1.01-2.54 2.34-2.54.34 0 .6.02.81.06v-1.35c-.14-.06-.4-.1-.75-.1zm3.29-1.2a1.04 1.04 0 000-2.1c-.58 0-1.07.47-1.07 1.05 0 .57.5 1.06 1.07 1.06zM34 162h1.57v-9h-1.57v9zm11.02-12.6v5.13a3.59 3.59 0 00-3.15-1.67c-2.4 0-4.2 1.9-4.2 4.64 0 2.74 1.8 4.64 4.2 4.64a3.6 3.6 0 003.33-2V162h1.4v-12.6h-1.58zm-2.97 11.45c-1.7 0-2.82-1.39-2.82-3.35 0-1.96 1.15-3.35 2.82-3.35 1.73 0 2.97 1.42 2.97 3.35 0 1.93-1.24 3.35-2.97 3.35zm15.56-8c-1.35 0-2.47.6-3.15 1.68v-5.13H52.9V162h1.39v-1.85a3.6 3.6 0 003.33 2c2.41 0 4.23-1.91 4.23-4.65s-1.82-4.64-4.23-4.64zm-.18 8c-1.71 0-2.97-1.42-2.97-3.35 0-1.93 1.26-3.35 2.97-3.35 1.67 0 2.83 1.4 2.83 3.35 0 1.94-1.14 3.35-2.83 3.35zm14.29-3.24c0-2.88-1.62-4.75-4.2-4.75-2.57 0-4.3 1.89-4.3 4.64 0 2.74 1.8 4.64 4.5 4.64 1.7 0 3-.68 3.7-1.92l-1.1-.76a2.78 2.78 0 01-2.58 1.42c-1.53 0-2.86-.95-2.99-2.95h6.95c.02-.05.02-.25.02-.32zm-4.2-3.48c1.53 0 2.49 1 2.69 2.67H64.8c.2-1.73 1.26-2.67 2.73-2.67zm9.99 8.01c1.76 0 3.06-.8 3.6-2.2l-1.17-.7a2.42 2.42 0 01-2.41 1.6c-1.7 0-2.85-1.34-2.85-3.34 0-1.94 1.16-3.35 2.85-3.35 1.17 0 2.05.61 2.43 1.73l1.3-.61c-.5-1.53-1.91-2.41-3.73-2.41-2.61 0-4.41 1.89-4.41 4.64 0 2.74 1.83 4.64 4.39 4.64zm12.3-1.74v-4.21c0-2.13-1.3-3.33-3.61-3.33-1.68 0-2.85.66-3.35 1.92l1.2.63c.35-.84 1.07-1.3 2.11-1.3 1.28 0 2.09.74 2.09 1.95v.34l-2.63.38c-2.1.32-3.17 1.26-3.17 2.8 0 1.56 1.19 2.56 2.99 2.56a3.4 3.4 0 002.9-1.44c0 .89.52 1.44 1.33 1.44.34 0 .61-.05.77-.14l.02-1c-.45 0-.65-.17-.65-.6zm-4.17.54c-1 0-1.68-.56-1.68-1.39 0-.97.63-1.5 2.02-1.69l2.27-.32v.64c0 1.68-1.01 2.76-2.61 2.76zM98 153v5.2c0 1.62-.92 2.67-2.34 2.67-1.35 0-2.1-.8-2.1-2.22V153h-1.56v5.72c0 2.15 1.2 3.42 3.2 3.42 1.38 0 2.46-.6 3-1.65V162h1.36v-9h-1.56zm6.7 9.14c1.94 0 3.25-1.06 3.25-2.66 0-1.28-.8-2.14-2.35-2.54l-1.21-.29c-.92-.23-1.31-.6-1.31-1.26 0-.77.63-1.27 1.6-1.27.95 0 1.58.41 1.87 1.2l1.17-.68c-.43-1.15-1.51-1.78-3.04-1.78-1.86 0-3.08 1.04-3.08 2.59 0 1.22.81 2.09 2.36 2.46l1.13.3c.96.23 1.39.62 1.39 1.3 0 .87-.67 1.37-1.78 1.37-1.1 0-1.9-.46-2.33-1.36l-1.1.79c.64 1.19 1.84 1.83 3.43 1.83zm13.16-4.53c0-2.88-1.62-4.75-4.2-4.75-2.57 0-4.3 1.89-4.3 4.64 0 2.74 1.8 4.64 4.5 4.64 1.7 0 3.01-.68 3.71-1.92l-1.11-.76a2.78 2.78 0 01-2.58 1.42c-1.53 0-2.86-.95-2.99-2.95h6.95c.02-.05.02-.25.02-.32zm-4.2-3.48c1.54 0 2.49 1 2.69 2.67h-5.42c.2-1.73 1.26-2.67 2.74-2.67zm11.24-2.46c.58 0 1.05-.49 1.05-1.06 0-.58-.47-1.05-1.05-1.05-.57 0-1.06.47-1.06 1.05 0 .57.49 1.06 1.06 1.06zm-.79 10.33h1.57v-9h-1.57v9zm7.8-1.15c-.92 0-1.39-.43-1.39-1.3v-5.25h2.3V153h-2.3v-2.8h-1.56v2.8h-1.53v1.3h1.53v5.29c0 1.64.97 2.55 2.68 2.55.52 0 1.02-.07 1.31-.18v-1.26c-.25.1-.63.15-1.04.15zm2.8-6.55h1.2l1.33-4.9h-1.82l-.72 4.9zm5.92 7.84c1.94 0 3.25-1.06 3.25-2.66 0-1.28-.8-2.14-2.35-2.54l-1.21-.29c-.92-.23-1.31-.6-1.31-1.26 0-.77.63-1.27 1.6-1.27.95 0 1.58.41 1.87 1.2l1.17-.68c-.43-1.15-1.51-1.78-3.04-1.78-1.86 0-3.08 1.04-3.08 2.59 0 1.22.81 2.09 2.36 2.46l1.13.3c.96.23 1.39.62 1.39 1.3 0 .87-.67 1.37-1.78 1.37-1.1 0-1.9-.46-2.33-1.36l-1.1.79c.64 1.19 1.84 1.83 3.43 1.83zm10.95 0c.38 0 .65-.05.78-.1v-1.23a1.3 1.3 0 01-.3.04c-.3 0-.55-.16-.55-.6V149.4h-1.56v10.94c0 1.12.66 1.8 1.63 1.8zm3.6-10.47c.59 0 1.05-.49 1.05-1.06 0-.58-.47-1.05-1.04-1.05-.58 0-1.06.47-1.06 1.05 0 .57.48 1.06 1.06 1.06zm-.78 10.33h1.56v-9h-1.56v9zm8.39-9.14c-1.35 0-2.43.6-2.97 1.63V153h-1.39v9h1.57v-5.2c0-1.62.92-2.67 2.36-2.67 1.33 0 2.07.8 2.07 2.22V162H166v-5.72c0-2.15-1.19-3.42-3.2-3.42zm13.38 4.75c0-2.88-1.62-4.75-4.2-4.75-2.57 0-4.3 1.89-4.3 4.64 0 2.74 1.8 4.64 4.5 4.64 1.7 0 3-.68 3.7-1.92l-1.1-.76a2.78 2.78 0 01-2.58 1.42c-1.53 0-2.86-.95-2.99-2.95h6.95c.02-.05.02-.25.02-.32zm-4.2-3.48c1.53 0 2.49 1 2.69 2.67h-5.42c.2-1.73 1.26-2.67 2.73-2.67zm5.81 3.12h4.5v-1.3h-4.5v1.3zm10.81-4.4c-1.22 0-2.21.51-2.75 1.36v-4.81h-1.58V162h1.58v-5.24c0-1.6.92-2.63 2.36-2.63 1.33 0 2.05.8 2.05 2.25V162h1.58v-5.72c0-2.1-1.26-3.42-3.24-3.42zm13.42 4.76c0-2.88-1.62-4.75-4.2-4.75-2.57 0-4.3 1.89-4.3 4.64 0 2.74 1.8 4.64 4.5 4.64 1.7 0 3-.68 3.7-1.92l-1.1-.76a2.78 2.78 0 01-2.58 1.42c-1.53 0-2.86-.95-2.99-2.95H202c.02-.05.02-.25.02-.32zm-4.2-3.48c1.53 0 2.49 1 2.68 2.67h-5.41c.2-1.73 1.26-2.67 2.73-2.67zm7.09-2.46c.58 0 1.04-.49 1.04-1.06 0-.58-.46-1.05-1.04-1.05-.58 0-1.06.47-1.06 1.05 0 .57.48 1.06 1.06 1.06zm-.8 10.33h1.57v-9h-1.56v9zm11.03-9v1.76a3.47 3.47 0 00-3.24-1.9c-2.4 0-4.12 1.85-4.12 4.42 0 2.6 1.72 4.45 4.12 4.45a3.5 3.5 0 003.04-1.57v1.21c0 1.78-1.19 2.9-3 2.9-1.21 0-2.2-.42-2.94-1.05l-.7 1.17a5.67 5.67 0 003.63 1.17c2.81 0 4.58-1.63 4.58-4.26V153h-1.37zm-3.06 7.43c-1.6 0-2.72-1.3-2.72-3.15 0-1.85 1.1-3.13 2.72-3.13 1.65 0 2.86 1.32 2.86 3.13 0 1.82-1.2 3.15-2.86 3.15zm10.89-7.57c-1.22 0-2.22.5-2.75 1.35v-4.81h-1.59V162h1.59v-5.24c0-1.6.91-2.63 2.35-2.63 1.34 0 2.06.8 2.06 2.25V162h1.58v-5.72c0-2.1-1.26-3.42-3.24-3.42zm9.06 7.99c-.92 0-1.39-.43-1.39-1.3v-5.25h2.3V153h-2.3v-2.8h-1.57v2.8h-1.53v1.3h1.53v5.29c0 1.64.98 2.55 2.69 2.55.52 0 1.02-.07 1.31-.18v-1.26c-.25.1-.63.15-1.04.15zm8-9.18c.58 0 1.05-.49 1.05-1.06 0-.58-.47-1.05-1.05-1.05-.57 0-1.06.47-1.06 1.05 0 .57.49 1.06 1.06 1.06zm-.79 10.33h1.57v-9h-1.57v9zm7 .14c1.95 0 3.26-1.06 3.26-2.66 0-1.28-.8-2.14-2.35-2.54l-1.21-.29c-.92-.23-1.31-.6-1.31-1.26 0-.77.63-1.27 1.6-1.27.95 0 1.58.41 1.87 1.2l1.17-.68c-.43-1.15-1.51-1.78-3.04-1.78-1.86 0-3.08 1.04-3.08 2.59 0 1.22.8 2.09 2.36 2.46l1.13.3c.96.23 1.39.62 1.39 1.3 0 .87-.67 1.37-1.78 1.37-1.1 0-1.9-.46-2.33-1.36l-1.1.79c.64 1.19 1.84 1.83 3.43 1.83zM258 160.7l2.33-2.37c1.8-1.86 3.44-3.42 3.44-5.42 0-2.16-1.63-3.65-4-3.65-2.13 0-3.55 1.08-3.9 2.95l1.32.5c.33-1.44 1.2-2.14 2.58-2.14 1.5 0 2.45.9 2.45 2.34 0 1.37-.74 2.23-2.94 4.46l-3.52 3.6V162h8.02v-1.3H258zm16.99-2.9h-1.87v-8.4h-2.16l-4.83 8.71v.97h5.42V162h1.57v-2.92h1.87v-1.27zm-7.2 0l3.76-6.78v6.79h-3.76zm18.11-4.94a3.6 3.6 0 00-3.33 2V153h-1.39v12.42h1.57v-4.95a3.59 3.59 0 003.15 1.67c2.41 0 4.23-1.9 4.23-4.64 0-2.74-1.82-4.64-4.23-4.64zm-.18 7.99c-1.73 0-2.97-1.42-2.97-3.35 0-1.93 1.24-3.35 2.97-3.35 1.71 0 2.83 1.39 2.83 3.35 0 1.96-1.14 3.35-2.83 3.35zm7.27-9.18c.57 0 1.04-.49 1.04-1.06 0-.58-.47-1.05-1.04-1.05-.58 0-1.06.47-1.06 1.05 0 .57.48 1.06 1.06 1.06zm-.8 10.33h1.57v-9h-1.56v9zm11.76 0l-3.44-4.5 3.26-4.5h-1.83l-2.27 3.38-2.27-3.38h-1.89l3.26 4.48-3.44 4.52h1.86l2.43-3.37 2.44 3.37h1.9zm8.71-4.4c0-2.87-1.62-4.74-4.2-4.74-2.56 0-4.3 1.89-4.3 4.64 0 2.74 1.8 4.64 4.5 4.64 1.7 0 3.01-.68 3.72-1.92l-1.12-.76a2.78 2.78 0 01-2.57 1.42c-1.54 0-2.87-.95-3-2.95h6.95c.02-.05.02-.25.02-.32zm-4.2-3.47c1.54 0 2.5 1 2.7 2.67h-5.43c.2-1.73 1.26-2.67 2.74-2.67zm7.76 8.01c.38 0 .65-.05.78-.1v-1.23a1.3 1.3 0 01-.3.04c-.3 0-.55-.16-.55-.6V149.4h-1.56v10.94c0 1.12.66 1.8 1.63 1.8zm5.48 0c1.94 0 3.26-1.06 3.26-2.66 0-1.28-.81-2.14-2.36-2.54l-1.2-.29c-.92-.23-1.32-.6-1.32-1.26 0-.77.63-1.27 1.6-1.27.96 0 1.59.41 1.88 1.2l1.16-.68c-.43-1.15-1.5-1.78-3.04-1.78-1.85 0-3.07 1.04-3.07 2.59 0 1.22.8 2.09 2.35 2.46l1.14.3c.95.23 1.38.62 1.38 1.3 0 .87-.66 1.37-1.78 1.37-1.1 0-1.89-.46-2.32-1.36l-1.1.79c.63 1.19 1.84 1.83 3.42 1.83zM20.61 188.11l1-1.01a10.19 10.19 0 01-3.13-7.4 10.6 10.6 0 013.14-7.4l-1.01-1a11.43 11.43 0 00-3.71 8.4c0 3.35 1.53 6.64 3.7 8.4zm7.05-14.71h-1a4.9 4.9 0 01-3.36 2.03v1.3a5.7 5.7 0 002.8-1.04V186h1.56v-12.6zm4.02 12.7a1.04 1.04 0 000-2.1c-.58 0-1.06.47-1.06 1.05 0 .57.48 1.06 1.06 1.06zm8-8.02c-1.05 0-1.95.38-2.56 1.03l.56-4.41h5.02v-1.3h-6.36l-.86 6.84 1.37.43a2.66 2.66 0 012.4-1.3c1.58 0 2.7 1.1 2.7 2.69 0 1.67-1.1 2.77-2.7 2.77-1.45 0-2.53-.81-2.87-2.09l-1.33.54c.57 1.8 2.05 2.86 4.2 2.86 2.51 0 4.26-1.67 4.26-4.08 0-2.4-1.59-3.98-3.84-3.98zm10-1.22a2.7 2.7 0 00-2.58 1.67V177h-1.39v9h1.57v-5.22c0-1.71 1-2.54 2.34-2.54.34 0 .6.02.81.06v-1.35c-.14-.06-.4-.1-.76-.1zm10.13 4.75c0-2.88-1.62-4.75-4.2-4.75-2.57 0-4.3 1.89-4.3 4.64 0 2.74 1.8 4.64 4.5 4.64 1.7 0 3-.68 3.71-1.92l-1.11-.76a2.78 2.78 0 01-2.58 1.42c-1.53 0-2.86-.95-2.99-2.95h6.95c.02-.05.02-.25.02-.32zm-4.2-3.48c1.54 0 2.49 1 2.69 2.67h-5.42c.2-1.73 1.26-2.67 2.74-2.67zm15.7-1.27c-1.35 0-2.41.68-2.88 1.74-.4-1.11-1.32-1.74-2.74-1.74a2.9 2.9 0 00-2.7 1.6V177h-1.38v9h1.58v-5.33c0-1.51.8-2.54 2.1-2.54 1.27 0 1.93.72 1.93 2.11V186h1.59v-5.5c0-1.45.8-2.37 2.1-2.37 1.26 0 1.93.72 1.93 2.11V186h1.58v-5.87c0-2.05-1.13-3.27-3.11-3.27zm5.78 11.25c2.18-1.77 3.7-5.06 3.7-8.41 0-3.3-1.52-6.53-3.7-8.4l-1.01 1a10.6 10.6 0 013.13 7.4c0 2.74-1.11 5.54-3.13 7.4l1 1zm6.78-2c.57 0 1.04-.49 1.04-1.06 0-.58-.47-1.05-1.04-1.05-.58 0-1.06.47-1.06 1.05 0 .57.48 1.06 1.06 1.06zm7.93-.11h1.62v-12.6H91.8V186zm8.07-1.15c-.91 0-1.38-.43-1.38-1.3v-5.25h2.3V177h-2.3v-2.8h-1.57v2.8H95.4v1.3h1.53v5.29c0 1.64.97 2.55 2.68 2.55.53 0 1.03-.07 1.32-.18v-1.26c-.25.1-.63.15-1.05.15zm17-7.85l-1.74 7.33-2.1-7.33h-1.59l-2.08 7.25-1.73-7.25h-1.64l2.47 9h1.63l2.1-7 2.15 7H116l2.46-9h-1.58zm4.05-1.33c.58 0 1.05-.49 1.05-1.06 0-.58-.47-1.05-1.05-1.05-.57 0-1.06.47-1.06 1.05 0 .57.49 1.06 1.06 1.06zm-.79 10.33h1.57v-9h-1.57v9zm5.8.14c.38 0 .65-.05.77-.1v-1.23a1.3 1.3 0 01-.3.04c-.29 0-.54-.16-.54-.6V173.4h-1.57v10.94c0 1.12.67 1.8 1.64 1.8zm4.27 0c.38 0 .65-.05.78-.1v-1.23a1.3 1.3 0 01-.31.04c-.29 0-.54-.16-.54-.6V173.4h-1.57v10.94c0 1.12.67 1.8 1.64 1.8zm13.64-1.74v-4.21c0-2.13-1.3-3.33-3.62-3.33-1.67 0-2.84.66-3.34 1.92l1.2.63c.34-.84 1.06-1.3 2.1-1.3 1.28 0 2.1.74 2.1 1.95v.34l-2.63.38c-2.1.32-3.17 1.26-3.17 2.8 0 1.56 1.19 2.56 2.99 2.56a3.4 3.4 0 002.9-1.44c0 .89.52 1.44 1.33 1.44.34 0 .6-.05.77-.14l.02-1c-.45 0-.65-.17-.65-.6zm-4.18.54c-.98 0-1.67-.56-1.67-1.39 0-.97.63-1.5 2.02-1.69l2.27-.32v.64c0 1.68-1.01 2.76-2.62 2.76zm8.24 1.2c.38 0 .65-.05.78-.1v-1.23a1.3 1.3 0 01-.3.04c-.3 0-.55-.16-.55-.6V173.4h-1.57v10.94c0 1.12.67 1.8 1.64 1.8zm12.6-9.14l-1.74 7.33-2.1-7.33h-1.59l-2.09 7.25-1.72-7.25h-1.64l2.46 9h1.64l2.1-7 2.15 7h1.66l2.46-9h-1.58zm9.66 7.4v-4.21c0-2.13-1.3-3.33-3.62-3.33-1.68 0-2.85.66-3.35 1.92l1.2.63c.35-.84 1.07-1.3 2.11-1.3 1.28 0 2.09.74 2.09 1.95v.34l-2.63.38c-2.1.32-3.17 1.26-3.17 2.8 0 1.56 1.2 2.56 3 2.56a3.4 3.4 0 002.89-1.44c0 .89.52 1.44 1.33 1.44.34 0 .61-.05.78-.14l.01-1c-.45 0-.64-.17-.64-.6zm-4.18.54c-.99 0-1.67-.56-1.67-1.39 0-.97.63-1.5 2.01-1.69l2.27-.32v.64c0 1.68-1 2.76-2.61 2.76zM178.2 177l-2.6 7.43-2.62-7.43h-1.67l3.5 9.22-.23.59c-.41 1.03-.97 1.46-1.83 1.46-.4 0-.92-.07-1.16-.15v1.28c.38.07.85.16 1.26.16 1.53 0 2.42-.64 3.14-2.53l3.85-10.03h-1.64zm5.75 9.14c1.94 0 3.26-1.06 3.26-2.66 0-1.28-.81-2.14-2.36-2.54l-1.2-.29c-.93-.23-1.32-.6-1.32-1.26 0-.77.63-1.27 1.6-1.27.95 0 1.58.41 1.87 1.2l1.17-.68c-.43-1.15-1.51-1.78-3.04-1.78-1.85 0-3.08 1.04-3.08 2.59 0 1.22.81 2.09 2.36 2.46l1.13.3c.96.23 1.39.62 1.39 1.3 0 .87-.67 1.37-1.78 1.37-1.1 0-1.9-.46-2.32-1.36l-1.1.79c.63 1.19 1.83 1.83 3.42 1.83zm13.9-9.28c-1.34 0-2.46.59-3.14 1.67v-5.13h-1.57V186h1.39v-1.85a3.6 3.6 0 003.33 2c2.41 0 4.23-1.91 4.23-4.65s-1.82-4.64-4.23-4.64zm-.17 7.99c-1.71 0-2.97-1.42-2.97-3.35 0-1.93 1.26-3.35 2.97-3.35 1.67 0 2.82 1.4 2.82 3.35 0 1.94-1.13 3.35-2.82 3.35zm10.13-8a2.7 2.7 0 00-2.58 1.68V177h-1.38v9h1.56v-5.22c0-1.71 1.01-2.54 2.34-2.54.35 0 .6.02.81.06v-1.35c-.14-.06-.4-.1-.75-.1zm10.13 4.76c0-2.88-1.62-4.75-4.2-4.75-2.57 0-4.3 1.89-4.3 4.64 0 2.74 1.8 4.64 4.5 4.64 1.7 0 3.01-.68 3.71-1.92l-1.11-.76a2.78 2.78 0 01-2.58 1.42c-1.53 0-2.86-.95-2.98-2.95h6.94c.02-.05.02-.25.02-.32zm-4.2-3.48c1.54 0 2.5 1 2.69 2.67h-5.42c.2-1.73 1.26-2.67 2.74-2.67zm12.98 6.27v-4.21c0-2.13-1.3-3.33-3.62-3.33-1.67 0-2.84.66-3.34 1.92l1.2.63c.34-.84 1.06-1.3 2.1-1.3 1.29 0 2.1.74 2.1 1.95v.34l-2.63.38c-2.1.32-3.17 1.26-3.17 2.8 0 1.56 1.19 2.56 2.99 2.56a3.4 3.4 0 002.9-1.44c0 .89.52 1.44 1.33 1.44.34 0 .61-.05.77-.14l.02-1c-.45 0-.65-.17-.65-.6zm-4.17.54c-1 0-1.68-.56-1.68-1.39 0-.97.63-1.5 2.02-1.69l2.27-.32v.64c0 1.68-1.01 2.76-2.61 2.76zm12.12 1.06h1.93l-3.9-5.02 3.63-3.98h-1.97l-3.78 4.43v-8.03h-1.56V186h1.56v-2.66l1.17-1.3 2.92 3.96zm11.3.14c2.54 0 4.43-1.85 4.43-4.64 0-2.79-1.89-4.64-4.43-4.64s-4.43 1.85-4.43 4.64c0 2.79 1.9 4.64 4.43 4.64zm0-1.3c-1.65 0-2.86-1.32-2.86-3.34 0-2.02 1.2-3.35 2.86-3.35s2.86 1.33 2.86 3.35-1.2 3.35-2.86 3.35zm10.57-7.98c-1.35 0-2.43.6-2.97 1.63V177h-1.38v9h1.56v-5.2c0-1.62.92-2.67 2.36-2.67 1.33 0 2.07.8 2.07 2.22V186h1.57v-5.72c0-2.15-1.2-3.42-3.2-3.42zm13.17 7.99c-.91 0-1.38-.43-1.38-1.3v-5.25h2.3V177h-2.3v-2.8h-1.57v2.8h-1.53v1.3h1.53v5.29c0 1.64.97 2.55 2.68 2.55.52 0 1.03-.07 1.32-.18v-1.26c-.25.1-.63.15-1.05.15zm7.1-8c-1.22 0-2.21.51-2.75 1.36v-4.81h-1.59V186h1.59v-5.24c0-1.6.92-2.63 2.36-2.63 1.33 0 2.05.8 2.05 2.25V186h1.58v-5.72c0-2.1-1.26-3.42-3.24-3.42zm13.41 4.76c0-2.88-1.62-4.75-4.2-4.75-2.56 0-4.3 1.89-4.3 4.64 0 2.74 1.8 4.64 4.5 4.64 1.7 0 3.01-.68 3.71-1.92l-1.11-.76a2.78 2.78 0 01-2.57 1.42c-1.54 0-2.87-.95-3-2.95h6.95c.02-.05.02-.25.02-.32zm-4.2-3.48c1.54 0 2.5 1 2.7 2.67h-5.43c.2-1.73 1.26-2.67 2.74-2.67zm17.13-1.13v1.76a3.47 3.47 0 00-3.24-1.9c-2.4 0-4.12 1.85-4.12 4.42 0 2.6 1.73 4.45 4.12 4.45a3.5 3.5 0 003.04-1.57v1.21c0 1.78-1.18 2.9-3 2.9-1.2 0-2.2-.42-2.94-1.05l-.7 1.17a5.67 5.67 0 003.64 1.17c2.8 0 4.57-1.63 4.57-4.26V177h-1.37zm-3.06 7.43c-1.6 0-2.72-1.3-2.72-3.15 0-1.85 1.1-3.13 2.72-3.13 1.66 0 2.86 1.32 2.86 3.13 0 1.82-1.2 3.15-2.86 3.15zm10.51-7.57a2.7 2.7 0 00-2.57 1.67V177h-1.39v9h1.57v-5.22c0-1.71 1-2.54 2.34-2.54.34 0 .6.02.81.06v-1.35c-.14-.06-.4-.1-.76-.1zm3.3-1.2a1.04 1.04 0 000-2.1c-.58 0-1.07.47-1.07 1.05 0 .57.49 1.06 1.06 1.06zm-.8 10.34h1.57v-9h-1.57v9zm11.02-12.6v5.13a3.59 3.59 0 00-3.15-1.67c-2.4 0-4.2 1.9-4.2 4.64 0 2.74 1.8 4.64 4.2 4.64a3.6 3.6 0 003.33-2V186h1.39v-12.6h-1.57zm-2.97 11.45c-1.7 0-2.82-1.39-2.82-3.35 0-1.96 1.15-3.35 2.82-3.35 1.73 0 2.97 1.42 2.97 3.35 0 1.93-1.24 3.35-2.97 3.35zm7.8 1.26c.57 0 1.04-.49 1.04-1.06 0-.58-.47-1.05-1.05-1.05-.57 0-1.06.47-1.06 1.05 0 .57.49 1.06 1.06 1.06z" fill="#000"/></g><defs><clipPath id="clip0"><path fill="#fff" d="M0 0h400v200H0z"/></clipPath></defs></svg>
