<svg width="296" height="48" viewBox="0 0 296 48" fill="none" xmlns="http://www.w3.org/2000/svg"><rect x="96.5" y="8.5" width="162" height="31" rx="15.5" fill="#FBFCF9" stroke="#007272"/><rect x="96.5" y="8.5" width="162" height="31" rx="15.5" fill="#fff" stroke="#007272"/><path fill-rule="evenodd" clip-rule="evenodd" d="M231.28 21.22a.75.75 0 10-1.06 1.06l4.5 4.5a.74.74 0 001.06 0l4.5-4.5a.75.75 0 10-1.06-1.06l-3.97 3.97-3.97-3.97z" fill="#14555A"/><path d="M119 30.14c2.36 0 4.03-1.17 4.77-2.97l-1.35-.86c-.61 1.53-1.7 2.41-3.45 2.41-2.49 0-4.23-2.03-4.23-5.02 0-2.99 1.74-5.02 4.23-5.02 1.8 0 2.95.84 3.47 2.5l1.4-.65c-.5-2-2.35-3.27-4.84-3.27-3.5 0-5.92 2.59-5.92 6.44 0 3.85 2.41 6.44 5.92 6.44zm11.3-9.28c-1.22 0-2.21.5-2.75 1.35V17.4h-1.58V30h1.58v-5.24c0-1.6.92-2.63 2.36-2.63 1.33 0 2.05.8 2.05 2.25V30h1.58v-5.72c0-2.1-1.26-3.42-3.24-3.42zm9.35 9.28c2.54 0 4.43-1.85 4.43-4.64 0-2.79-1.9-4.64-4.43-4.64-2.54 0-4.43 1.85-4.43 4.64 0 2.79 1.89 4.64 4.43 4.64zm0-1.3c-1.66 0-2.86-1.32-2.86-3.34 0-2.02 1.2-3.35 2.86-3.35 1.65 0 2.86 1.33 2.86 3.35s-1.2 3.35-2.86 3.35zm10.26 1.3c2.54 0 4.43-1.85 4.43-4.64 0-2.79-1.89-4.64-4.43-4.64-2.53 0-4.42 1.85-4.42 4.64 0 2.79 1.88 4.64 4.42 4.64zm0-1.3c-1.65 0-2.86-1.32-2.86-3.34 0-2.02 1.2-3.35 2.86-3.35s2.87 1.33 2.87 3.35-1.21 3.35-2.87 3.35zm9.19 1.3c1.94 0 3.26-1.06 3.26-2.66 0-1.28-.81-2.14-2.36-2.54l-1.2-.29c-.93-.23-1.32-.6-1.32-1.26 0-.77.63-1.27 1.6-1.27.95 0 1.58.41 1.87 1.2l1.17-.68c-.43-1.15-1.5-1.78-3.04-1.78-1.85 0-3.08 1.04-3.08 2.59 0 1.22.81 2.09 2.36 2.46l1.13.3c.96.23 1.4.62 1.4 1.3 0 .87-.67 1.37-1.8 1.37-1.09 0-1.88-.46-2.31-1.36l-1.1.79c.63 1.19 1.83 1.83 3.42 1.83zm13.16-4.53c0-2.88-1.62-4.75-4.2-4.75-2.57 0-4.3 1.89-4.3 4.64 0 2.74 1.8 4.64 4.5 4.64 1.7 0 3.01-.68 3.71-1.92l-1.11-.76a2.78 2.78 0 01-2.58 1.42c-1.53 0-2.86-.95-2.98-2.95h6.94c.02-.05.02-.25.02-.32zm-4.2-3.48c1.54 0 2.5 1 2.69 2.67h-5.42c.2-1.73 1.26-2.67 2.74-2.67zm11.25-2.46c.57 0 1.04-.49 1.04-1.06 0-.58-.47-1.05-1.04-1.05-.58 0-1.07.47-1.07 1.05 0 .57.49 1.06 1.06 1.06zM178.5 30h1.57v-9h-1.57v9zm8.4-9.14c-1.35 0-2.44.6-2.97 1.63V21h-1.4v9h1.58v-5.2c0-1.62.91-2.67 2.35-2.67 1.34 0 2.07.8 2.07 2.22V30h1.57v-5.72c0-2.15-1.19-3.42-3.2-3.42zm11.17 9.28c.37 0 .64-.05.77-.1V28.8a1.3 1.3 0 01-.3.04c-.3 0-.55-.16-.55-.6V17.4h-1.56v10.94c0 1.12.66 1.8 1.64 1.8zm3.6-10.47c.58 0 1.05-.49 1.05-1.06 0-.58-.47-1.05-1.05-1.05-.57 0-1.06.47-1.06 1.05 0 .57.49 1.06 1.06 1.06zM200.9 30h1.57v-9h-1.57v9zm7 .14c1.95 0 3.26-1.06 3.26-2.66 0-1.28-.8-2.14-2.35-2.54l-1.21-.29c-.92-.23-1.31-.6-1.31-1.26 0-.77.63-1.27 1.6-1.27.95 0 1.58.41 1.87 1.2l1.17-.68c-.43-1.15-1.51-1.78-3.04-1.78-1.86 0-3.08 1.04-3.08 2.59 0 1.22.81 2.09 2.36 2.46l1.13.3c.96.23 1.39.62 1.39 1.3 0 .87-.67 1.37-1.78 1.37-1.1 0-1.9-.46-2.33-1.36l-1.1.79c.64 1.19 1.84 1.83 3.43 1.83zm8.55-1.3c-.92 0-1.39-.42-1.39-1.29V22.3h2.3V21h-2.3v-2.8h-1.56V21h-1.53v1.3h1.53v5.29c0 1.64.97 2.55 2.68 2.55.52 0 1.03-.07 1.31-.18V28.7c-.25.1-.63.15-1.04.15z" fill="#14555A"/><path fill="#FFFF7A" fill-opacity=".5" d="M34 16h63v16H34z"/><path fill="#00D9FF" fill-opacity=".25" d="M96.93 16h16v16h-16zM243 16h16v16h-16z"/><path fill="#DB00FF" fill-opacity=".25" d="M34 8h225v8H34zM34 32h225v8H34z"/><path d="M5.39 29l2.33-3.34-2.06-2.98h1.2l1.47 2.35 1.47-2.35h1.17l-2.05 2.94L11.24 29h-1.22l-1.74-2.71L6.54 29H5.39zm9.75-8.4c.5 0 .94.1 1.32.3.38.2.68.48.88.83.2.34.3.73.3 1.17 0 .52-.12 1.01-.36 1.5-.24.47-.61 1-1.13 1.58-.52.56-1.26 1.28-2.21 2.16h3.89l-.12.86h-4.92v-.82a45.74 45.74 0 002.4-2.42c.53-.58.89-1.08 1.09-1.5a3 3 0 00.3-1.32c0-.46-.13-.83-.4-1.1-.26-.26-.62-.39-1.09-.39-.39 0-.72.07-.98.2s-.52.36-.8.68l-.69-.54c.33-.41.7-.71 1.1-.9.4-.2.88-.29 1.42-.29zM276.03 16l2.33-3.34-2.05-2.98h1.2l1.46 2.35 1.48-2.35h1.16l-2.05 2.94 2.33 3.38h-1.23l-1.74-2.71-1.74 2.71h-1.15zm12.73-.82V16h-4.77v-.82h2.03V8.84l-1.88 1.14-.45-.71 2.46-1.54h.9v7.45h1.7zM276.03 40l2.33-3.34-2.05-2.98h1.2l1.46 2.35 1.48-2.35h1.16l-2.05 2.94 2.33 3.38h-1.23l-1.74-2.71-1.74 2.71h-1.15zm12.73-.82V40h-4.77v-.82h2.03v-6.34l-1.88 1.14-.45-.71 2.46-1.54h.9v7.45h1.7z" fill="#000"/><path fill="#FF5400" fill-opacity=".5" d="M227 16h16v16h-16z"/><path stroke="#B3B3B3" stroke-linecap="round" stroke-dasharray="2 3" d="M22.5 24.18h11M259.5 12.5h11M259.5 35.5h11"/><path d="M35.65 27.69V16.4h-1.62V29h7.1v-1.31h-5.48zm13.9-.3v-4.2c0-2.13-1.3-3.33-3.62-3.33-1.67 0-2.84.66-3.35 1.92l1.21.63c.34-.84 1.06-1.3 2.1-1.3 1.28 0 2.1.74 2.1 1.95v.34l-2.63.38c-2.11.32-3.17 1.26-3.17 2.8 0 1.56 1.19 2.56 2.99 2.56a3.4 3.4 0 002.9-1.44c0 .89.52 1.44 1.33 1.44.34 0 .6-.05.77-.14l.02-1c-.45 0-.65-.17-.65-.6zm-4.18.55c-.99 0-1.67-.56-1.67-1.39 0-.97.63-1.5 2.02-1.69l2.26-.32v.64c0 1.68-1 2.76-2.6 2.76zm11.2-8.08c-1.36 0-2.47.59-3.16 1.67V16.4h-1.56V29h1.38v-1.85a3.6 3.6 0 003.33 2c2.42 0 4.23-1.91 4.23-4.65s-1.81-4.64-4.23-4.64zm-.19 7.99c-1.7 0-2.97-1.42-2.97-3.35 0-1.93 1.26-3.35 2.97-3.35 1.68 0 2.83 1.4 2.83 3.35 0 1.94-1.13 3.35-2.83 3.35zm14.3-3.24c0-2.88-1.63-4.75-4.2-4.75-2.58 0-4.3 1.89-4.3 4.64 0 2.74 1.8 4.64 4.5 4.64 1.69 0 3-.68 3.7-1.92l-1.11-.76a2.78 2.78 0 01-2.58 1.42c-1.53 0-2.86-.95-2.99-2.95h6.95c.02-.05.02-.25.02-.32zm-4.2-3.48c1.53 0 2.48 1 2.68 2.67h-5.42c.2-1.73 1.26-2.67 2.74-2.67zm7.75 8.01c.38 0 .65-.05.77-.1V27.8a1.3 1.3 0 01-.3.04c-.29 0-.54-.16-.54-.6V16.4h-1.57v10.94c0 1.12.67 1.8 1.64 1.8zm3.6-5.68c.58 0 1.05-.49 1.05-1.07 0-.57-.47-1.04-1.04-1.04-.58 0-1.07.47-1.07 1.04 0 .58.49 1.07 1.07 1.07zm0 5.65c.58 0 1.05-.49 1.05-1.06 0-.58-.47-1.05-1.04-1.05-.58 0-1.07.47-1.07 1.05 0 .57.49 1.06 1.07 1.06z" fill="#333"/></svg>
