<svg width="400" height="200" viewBox="0 0 400 200" fill="none" xmlns="http://www.w3.org/2000/svg">
<rect x="8" y="120" width="384" height="24" fill="#DB00FF" fill-opacity="0.25"/>
<rect x="8" y="8" width="384" height="32" fill="#00D9FF" fill-opacity="0.25"/>
<rect x="8" y="72" width="384" height="32" fill="#00D9FF" fill-opacity="0.25"/>
<rect x="8" y="168" width="384" height="24" fill="#DB00FF" fill-opacity="0.25"/>
<path d="M23.0398 136H24.3518V130.864H30.5598V136H31.8718V124.688H30.5598V129.776H24.3518V124.688H23.0398V136ZM38.5705 136.192C39.6745 136.192 40.6665 136 41.3225 135.728L41.0985 134.704C40.2825 134.96 39.6265 135.104 38.7785 135.104C37.1145 135.104 35.7385 134.576 35.7065 131.872H41.4665V131.408C41.4665 128.496 40.4585 127.04 38.2345 127.04C36.1065 127.04 34.4265 128.4 34.4265 131.808C34.4265 135.136 36.0265 136.192 38.5705 136.192ZM35.7225 130.928C35.8665 128.976 36.8425 128.032 38.1065 128.032C39.5305 128.032 40.1545 129.152 40.1545 130.928H35.7225ZM43.6409 136H44.9049V129.568C45.3209 128.928 46.1209 128.176 47.1769 128.176C47.6889 128.176 47.9449 128.224 48.2169 128.288L48.4249 127.216C48.2649 127.168 47.9129 127.072 47.4009 127.072C46.1689 127.072 45.3049 127.776 44.9049 128.432V127.264H43.6409V136ZM53.4924 136.192C54.5964 136.192 55.5884 136 56.2444 135.728L56.0204 134.704C55.2044 134.96 54.5484 135.104 53.7004 135.104C52.0364 135.104 50.6604 134.576 50.6284 131.872H56.3884V131.408C56.3884 128.496 55.3804 127.04 53.1564 127.04C51.0284 127.04 49.3484 128.4 49.3484 131.808C49.3484 135.136 50.9484 136.192 53.4924 136.192ZM50.6444 130.928C50.7884 128.976 51.7644 128.032 53.0284 128.032C54.4524 128.032 55.0764 129.152 55.0764 130.928H50.6444ZM62.7346 136H64.0146V127.264H62.7346V136ZM63.3586 125.632L64.4306 124.56L63.3586 123.504L62.3186 124.56L63.3586 125.632ZM68.495 136.192C70.047 136.192 71.887 135.552 71.887 133.68C71.887 130.784 67.519 131.376 67.519 129.376C67.519 128.656 68.031 128.096 69.231 128.096C69.871 128.096 70.591 128.24 71.151 128.464L71.439 127.456C70.815 127.184 69.935 127.04 69.247 127.04C67.615 127.04 66.287 127.888 66.287 129.488C66.287 132.368 70.687 131.808 70.687 133.76C70.687 134.624 69.871 135.12 68.591 135.12C67.839 135.12 67.023 134.96 66.255 134.736L66.047 135.808C66.687 136.016 67.679 136.192 68.495 136.192ZM80.0148 136.144C81.5188 136.144 82.4948 135.328 82.9268 134.992C83.0388 135.776 83.8388 136.096 84.6068 136.096C84.7188 136.096 84.8788 136.08 84.9588 136.064L85.0068 135.088C84.5908 135.088 84.0628 134.944 84.0628 134.288V129.456C84.0628 127.744 82.8948 127.04 80.9748 127.04C79.7908 127.04 78.8148 127.296 78.1428 127.584L78.4308 128.576C79.1508 128.304 79.8548 128.144 80.7988 128.144C82.1748 128.144 82.8308 128.48 82.8308 129.872V130.992L80.7508 131.024C79.3268 131.056 77.4068 131.504 77.4068 133.68C77.4068 135.264 78.4308 136.144 80.0148 136.144ZM80.3028 135.12C79.3428 135.12 78.6228 134.64 78.6228 133.632C78.6228 132.608 79.3748 132 80.7348 131.952L82.8308 131.872V134.144C82.1748 134.624 81.2628 135.12 80.3028 135.12ZM91.0628 139.52H92.3268V136.032C92.7268 136.096 93.4308 136.176 93.9908 136.176C96.2948 136.176 98.2948 135.008 98.2948 131.488C98.2948 128.64 96.9828 127.072 94.8868 127.072C93.8148 127.072 93.0948 127.456 92.3268 127.984V127.264H91.0628V139.52ZM93.9748 135.12C93.2868 135.12 92.5828 134.976 92.3268 134.944V128.992C92.7908 128.688 93.5908 128.16 94.6308 128.16C96.5028 128.16 97.0148 129.952 97.0148 131.568C97.0148 133.632 96.1988 135.12 93.9748 135.12ZM102.452 136.144C103.956 136.144 104.932 135.328 105.364 134.992C105.476 135.776 106.276 136.096 107.044 136.096C107.156 136.096 107.316 136.08 107.396 136.064L107.444 135.088C107.028 135.088 106.5 134.944 106.5 134.288V129.456C106.5 127.744 105.332 127.04 103.412 127.04C102.228 127.04 101.252 127.296 100.58 127.584L100.868 128.576C101.588 128.304 102.292 128.144 103.236 128.144C104.612 128.144 105.268 128.48 105.268 129.872V130.992L103.188 131.024C101.764 131.056 99.8443 131.504 99.8443 133.68C99.8443 135.264 100.868 136.144 102.452 136.144ZM102.74 135.12C101.78 135.12 101.06 134.64 101.06 133.632C101.06 132.608 101.812 132 103.172 131.952L105.268 131.872V134.144C104.612 134.624 103.7 135.12 102.74 135.12ZM109.328 136H110.592V129.568C111.008 128.928 111.808 128.176 112.864 128.176C113.376 128.176 113.632 128.224 113.904 128.288L114.112 127.216C113.952 127.168 113.6 127.072 113.088 127.072C111.856 127.072 110.992 127.776 110.592 128.432V127.264H109.328V136ZM117.468 136.144C118.972 136.144 119.948 135.328 120.38 134.992C120.492 135.776 121.292 136.096 122.06 136.096C122.172 136.096 122.332 136.08 122.412 136.064L122.46 135.088C122.044 135.088 121.516 134.944 121.516 134.288V129.456C121.516 127.744 120.348 127.04 118.428 127.04C117.244 127.04 116.268 127.296 115.596 127.584L115.884 128.576C116.604 128.304 117.308 128.144 118.252 128.144C119.628 128.144 120.284 128.48 120.284 129.872V130.992L118.204 131.024C116.78 131.056 114.86 131.504 114.86 133.68C114.86 135.264 115.884 136.144 117.468 136.144ZM117.756 135.12C116.796 135.12 116.076 134.64 116.076 133.632C116.076 132.608 116.828 132 118.188 131.952L120.284 131.872V134.144C119.628 134.624 118.716 135.12 117.756 135.12ZM127.24 139.68C129.512 139.68 130.952 138.656 130.952 136.528V127.408C130.088 127.2 129 127.04 128.184 127.04C125.688 127.04 123.864 128.416 123.864 131.824C123.864 135.488 125.944 136.112 127.592 136.112C128.584 136.112 129.096 135.872 129.72 135.376V136.256C129.72 138.128 128.616 138.544 127.336 138.544C126.408 138.544 125.528 138.336 124.776 138.08L124.52 139.2C125.176 139.488 126.296 139.68 127.24 139.68ZM127.72 135.088C126.104 135.088 125.112 134.144 125.112 131.744C125.112 129.664 125.848 128.144 128.104 128.144C128.888 128.144 129.48 128.32 129.704 128.384V134.304C129.224 134.688 128.68 135.088 127.72 135.088ZM133.625 136H134.889V129.568C135.305 128.928 136.105 128.176 137.161 128.176C137.673 128.176 137.929 128.224 138.201 128.288L138.409 127.216C138.249 127.168 137.897 127.072 137.385 127.072C136.153 127.072 135.289 127.776 134.889 128.432V127.264H133.625V136ZM141.765 136.144C143.269 136.144 144.245 135.328 144.677 134.992C144.789 135.776 145.589 136.096 146.357 136.096C146.469 136.096 146.629 136.08 146.709 136.064L146.757 135.088C146.341 135.088 145.813 134.944 145.813 134.288V129.456C145.813 127.744 144.645 127.04 142.725 127.04C141.541 127.04 140.565 127.296 139.893 127.584L140.181 128.576C140.901 128.304 141.605 128.144 142.549 128.144C143.925 128.144 144.581 128.48 144.581 129.872V130.992L142.501 131.024C141.077 131.056 139.157 131.504 139.157 133.68C139.157 135.264 140.181 136.144 141.765 136.144ZM142.053 135.12C141.093 135.12 140.373 134.64 140.373 133.632C140.373 132.608 141.125 132 142.485 131.952L144.581 131.872V134.144C143.925 134.624 143.013 135.12 142.053 135.12ZM148.641 139.52H149.905V136.032C150.305 136.096 151.009 136.176 151.569 136.176C153.873 136.176 155.873 135.008 155.873 131.488C155.873 128.64 154.561 127.072 152.465 127.072C151.393 127.072 150.673 127.456 149.905 127.984V127.264H148.641V139.52ZM151.553 135.12C150.865 135.12 150.161 134.976 149.905 134.944V128.992C150.369 128.688 151.169 128.16 152.209 128.16C154.081 128.16 154.593 129.952 154.593 131.568C154.593 133.632 153.777 135.12 151.553 135.12ZM158.078 136H159.342V129.248C160.094 128.768 161.038 128.176 162.158 128.176C163.614 128.176 163.87 129.104 163.87 130.624V136H165.086V130.368C165.086 128.912 164.942 127.056 162.446 127.056C161.054 127.056 160.062 127.744 159.342 128.272V123.936H158.078V136ZM173.571 136H175.283L177.299 129.6L177.603 128.416L177.875 129.616L179.635 136H181.331L184.339 127.264H183.075L180.515 135.088L178.435 127.264H176.819L174.451 135.088L172.195 127.264H170.867L173.571 136ZM185.907 136H187.187V127.264H185.907V136ZM186.531 125.632L187.603 124.56L186.531 123.504L185.491 124.56L186.531 125.632ZM192.867 136.192C193.459 136.192 194.275 136.032 194.723 135.872L194.499 134.832C194.131 134.96 193.507 135.088 193.027 135.088C192.019 135.088 191.459 134.752 191.459 133.52V128.336H194.179V127.264H191.443V125.472H190.211V127.264H188.931V128.336H190.211V133.568C190.211 135.632 191.235 136.192 192.867 136.192ZM196.266 136H197.53V129.248C198.282 128.768 199.226 128.176 200.346 128.176C201.802 128.176 202.058 129.104 202.058 130.624V136H203.274V130.368C203.274 128.912 203.13 127.056 200.634 127.056C199.242 127.056 198.25 127.744 197.53 128.272V123.936H196.266V136ZM212.015 136.144C213.519 136.144 214.495 135.328 214.927 134.992C215.039 135.776 215.839 136.096 216.607 136.096C216.719 136.096 216.879 136.08 216.959 136.064L217.007 135.088C216.591 135.088 216.063 134.944 216.063 134.288V129.456C216.063 127.744 214.895 127.04 212.975 127.04C211.791 127.04 210.815 127.296 210.143 127.584L210.431 128.576C211.151 128.304 211.855 128.144 212.799 128.144C214.175 128.144 214.831 128.48 214.831 129.872V130.992L212.751 131.024C211.327 131.056 209.407 131.504 209.407 133.68C209.407 135.264 210.431 136.144 212.015 136.144ZM212.303 135.12C211.343 135.12 210.623 134.64 210.623 133.632C210.623 132.608 211.375 132 212.735 131.952L214.831 131.872V134.144C214.175 134.624 213.263 135.12 212.303 135.12ZM218.891 136H220.155V123.936H218.891V136ZM222.844 136H224.124V127.264H222.844V136ZM223.468 125.632L224.54 124.56L223.468 123.504L222.428 124.56L223.468 125.632ZM229.724 139.68C231.996 139.68 233.436 138.656 233.436 136.528V127.408C232.572 127.2 231.484 127.04 230.668 127.04C228.172 127.04 226.348 128.416 226.348 131.824C226.348 135.488 228.428 136.112 230.076 136.112C231.068 136.112 231.58 135.872 232.204 135.376V136.256C232.204 138.128 231.1 138.544 229.82 138.544C228.892 138.544 228.012 138.336 227.26 138.08L227.004 139.2C227.66 139.488 228.78 139.68 229.724 139.68ZM230.204 135.088C228.588 135.088 227.596 134.144 227.596 131.744C227.596 129.664 228.332 128.144 230.588 128.144C231.372 128.144 231.964 128.32 232.188 128.384V134.304C231.708 134.688 231.164 135.088 230.204 135.088ZM236.11 136H237.374V129.232C238.158 128.688 239.054 128.16 240.174 128.16C241.662 128.16 241.902 129.104 241.902 130.608V136H243.134V130.368C243.134 128.896 242.974 127.04 240.494 127.04C239.134 127.04 238.286 127.584 237.374 128.256V127.264H236.11V136ZM245.735 136H247.015V127.264H245.735V136ZM246.359 125.632L247.431 124.56L246.359 123.504L245.319 124.56L246.359 125.632ZM249.719 136H250.983V129.232C251.767 128.688 252.663 128.16 253.783 128.16C255.271 128.16 255.511 129.104 255.511 130.608V136H256.743V130.368C256.743 128.896 256.583 127.04 254.103 127.04C252.743 127.04 251.895 127.584 250.983 128.256V127.264H249.719V136ZM262.24 139.68C264.512 139.68 265.952 138.656 265.952 136.528V127.408C265.088 127.2 264 127.04 263.184 127.04C260.688 127.04 258.864 128.416 258.864 131.824C258.864 135.488 260.944 136.112 262.592 136.112C263.584 136.112 264.096 135.872 264.72 135.376V136.256C264.72 138.128 263.616 138.544 262.336 138.544C261.408 138.544 260.528 138.336 259.776 138.08L259.52 139.2C260.176 139.488 261.296 139.68 262.24 139.68ZM262.72 135.088C261.104 135.088 260.112 134.144 260.112 131.744C260.112 129.664 260.848 128.144 263.104 128.144C263.888 128.144 264.48 128.32 264.704 128.384V134.304C264.224 134.688 263.68 135.088 262.72 135.088ZM275.773 136.192C276.365 136.192 277.181 136.032 277.629 135.872L277.405 134.832C277.037 134.96 276.413 135.088 275.933 135.088C274.925 135.088 274.365 134.752 274.365 133.52V128.336H277.085V127.264H274.349V125.472H273.117V127.264H271.837V128.336H273.117V133.568C273.117 135.632 274.141 136.192 275.773 136.192ZM282.564 136.192C284.852 136.192 286.548 134.736 286.548 131.584C286.548 128.704 285.22 127.04 282.74 127.04C280.308 127.04 278.676 128.704 278.676 131.728C278.676 134.592 280.164 136.192 282.564 136.192ZM282.644 135.152C280.596 135.152 279.956 133.456 279.956 131.664C279.956 130 280.5 128.08 282.644 128.08C284.788 128.08 285.268 130.016 285.268 131.664C285.268 133.376 284.756 135.152 282.644 135.152ZM295.883 136.192C296.475 136.192 297.291 136.032 297.739 135.872L297.515 134.832C297.147 134.96 296.523 135.088 296.043 135.088C295.035 135.088 294.475 134.752 294.475 133.52V128.336H297.195V127.264H294.459V125.472H293.227V127.264H291.947V128.336H293.227V133.568C293.227 135.632 294.251 136.192 295.883 136.192ZM299.282 136H300.546V129.248C301.298 128.768 302.242 128.176 303.362 128.176C304.818 128.176 305.074 129.104 305.074 130.624V136H306.29V130.368C306.29 128.912 306.146 127.056 303.65 127.056C302.258 127.056 301.266 127.744 300.546 128.272V123.936H299.282V136ZM312.571 136.192C313.675 136.192 314.667 136 315.323 135.728L315.099 134.704C314.283 134.96 313.627 135.104 312.779 135.104C311.115 135.104 309.739 134.576 309.707 131.872H315.467V131.408C315.467 128.496 314.459 127.04 312.235 127.04C310.107 127.04 308.427 128.4 308.427 131.808C308.427 135.136 310.027 136.192 312.571 136.192ZM309.723 130.928C309.867 128.976 310.843 128.032 312.107 128.032C313.531 128.032 314.155 129.152 314.155 130.928H309.723ZM324.709 139.68C326.981 139.68 328.421 138.656 328.421 136.528V127.408C327.557 127.2 326.469 127.04 325.653 127.04C323.157 127.04 321.333 128.416 321.333 131.824C321.333 135.488 323.413 136.112 325.061 136.112C326.053 136.112 326.565 135.872 327.189 135.376V136.256C327.189 138.128 326.085 138.544 324.805 138.544C323.877 138.544 322.997 138.336 322.245 138.08L321.989 139.2C322.645 139.488 323.765 139.68 324.709 139.68ZM325.189 135.088C323.573 135.088 322.581 134.144 322.581 131.744C322.581 129.664 323.317 128.144 325.573 128.144C326.357 128.144 326.949 128.32 327.173 128.384V134.304C326.693 134.688 326.149 135.088 325.189 135.088ZM331.094 136H332.358V129.568C332.774 128.928 333.574 128.176 334.63 128.176C335.142 128.176 335.398 128.224 335.67 128.288L335.878 127.216C335.718 127.168 335.366 127.072 334.854 127.072C333.622 127.072 332.758 127.776 332.358 128.432V127.264H331.094V136ZM337.282 136H338.562V127.264H337.282V136ZM337.906 125.632L338.978 124.56L337.906 123.504L336.866 124.56L337.906 125.632ZM344.274 136.16C345.378 136.16 346.018 135.728 346.642 135.168V136H347.906V123.936H346.642V127.264C346.066 127.104 345.634 127.04 345.106 127.04C342.578 127.04 340.77 128.496 340.77 131.824C340.77 135.44 342.898 136.16 344.274 136.16ZM344.434 135.088C343.106 135.088 342.05 134.064 342.05 131.744C342.05 129.872 342.738 128.08 345.026 128.08C345.794 128.08 346.402 128.256 346.642 128.352V134.112C346.242 134.464 345.426 135.088 344.434 135.088ZM25.4078 160.192C27.9038 160.192 29.8718 158.928 29.8718 155.376C29.8718 152.56 28.6238 151.104 26.3038 151.104C25.6318 151.104 25.1198 151.216 24.7998 151.392L24.9118 152.32C25.2478 152.208 25.6478 152.128 26.1118 152.128C28.1438 152.128 28.5758 153.776 28.5758 155.312C28.5758 157.552 27.6798 159.12 25.6318 159.12C24.9598 159.12 24.2398 158.96 23.8878 158.864V147.936H22.6398V159.712C23.3438 159.968 24.3838 160.192 25.4078 160.192ZM35.7424 160.192C36.8464 160.192 37.8384 160 38.4944 159.728L38.2704 158.704C37.4544 158.96 36.7984 159.104 35.9504 159.104C34.2864 159.104 32.9104 158.576 32.8784 155.872H38.6384V155.408C38.6384 152.496 37.6304 151.04 35.4064 151.04C33.2784 151.04 31.5984 152.4 31.5984 155.808C31.5984 159.136 33.1984 160.192 35.7424 160.192ZM32.8944 154.928C33.0384 152.976 34.0144 152.032 35.2784 152.032C36.7024 152.032 37.3264 153.152 37.3264 154.928H32.8944ZM44.6688 160.192C45.6448 160.192 46.2368 160.032 46.7648 159.856L46.5728 158.832C46.0288 158.976 45.5648 159.104 44.7968 159.104C42.4128 159.104 41.6128 157.904 41.6128 155.744C41.6128 153.312 42.6368 152.144 44.4608 152.144C45.3408 152.144 46.0448 152.432 46.3968 152.576L46.7808 151.568C46.3488 151.328 45.5488 151.04 44.4608 151.04C41.9168 151.04 40.3168 152.672 40.3168 155.808C40.3168 158.784 41.7088 160.192 44.6688 160.192ZM50.7179 160.144C52.2219 160.144 53.1979 159.328 53.6299 158.992C53.7419 159.776 54.5419 160.096 55.3099 160.096C55.4219 160.096 55.5819 160.08 55.6619 160.064L55.7099 159.088C55.2939 159.088 54.7659 158.944 54.7659 158.288V153.456C54.7659 151.744 53.5979 151.04 51.6779 151.04C50.4939 151.04 49.5179 151.296 48.8459 151.584L49.1339 152.576C49.8539 152.304 50.5579 152.144 51.5019 152.144C52.8779 152.144 53.5339 152.48 53.5339 153.872V154.992L51.4539 155.024C50.0299 155.056 48.1099 155.504 48.1099 157.68C48.1099 159.264 49.1339 160.144 50.7179 160.144ZM51.0059 159.12C50.0459 159.12 49.3259 158.64 49.3259 157.632C49.3259 156.608 50.0779 156 51.4379 155.952L53.5339 155.872V158.144C52.8779 158.624 51.9659 159.12 51.0059 159.12ZM60.106 160.192C61.578 160.192 62.442 159.568 63.274 158.976V160H64.49V151.264H63.274V157.952C62.602 158.432 61.578 159.04 60.458 159.04C58.89 159.04 58.778 157.952 58.778 156.576V151.264H57.53V156.832C57.53 158.304 57.706 160.192 60.106 160.192ZM68.9481 160.192C70.5001 160.192 72.3401 159.552 72.3401 157.68C72.3401 154.784 67.9721 155.376 67.9721 153.376C67.9721 152.656 68.4841 152.096 69.6841 152.096C70.3241 152.096 71.0441 152.24 71.6041 152.464L71.8921 151.456C71.2681 151.184 70.3881 151.04 69.7001 151.04C68.0681 151.04 66.7401 151.888 66.7401 153.488C66.7401 156.368 71.1401 155.808 71.1401 157.76C71.1401 158.624 70.3241 159.12 69.0441 159.12C68.2921 159.12 67.4761 158.96 66.7081 158.736L66.5001 159.808C67.1401 160.016 68.1321 160.192 68.9481 160.192ZM78.008 160.192C79.112 160.192 80.104 160 80.76 159.728L80.536 158.704C79.72 158.96 79.064 159.104 78.216 159.104C76.552 159.104 75.176 158.576 75.144 155.872H80.904V155.408C80.904 152.496 79.896 151.04 77.672 151.04C75.544 151.04 73.864 152.4 73.864 155.808C73.864 159.136 75.464 160.192 78.008 160.192ZM75.16 154.928C75.304 152.976 76.28 152.032 77.544 152.032C78.968 152.032 79.592 153.152 79.592 154.928H75.16ZM87.2503 160H88.5303V151.264H87.2503V160ZM87.8743 149.632L88.9463 148.56L87.8743 147.504L86.8343 148.56L87.8743 149.632ZM94.2106 160.192C94.8026 160.192 95.6186 160.032 96.0666 159.872L95.8426 158.832C95.4746 158.96 94.8506 159.088 94.3706 159.088C93.3626 159.088 92.8026 158.752 92.8026 157.52V152.336H95.5226V151.264H92.7866V149.472H91.5546V151.264H90.2746V152.336H91.5546V157.568C91.5546 159.632 92.5786 160.192 94.2106 160.192ZM97.0336 151.136H97.9776C98.3296 150.528 98.6176 149.808 98.6176 148.56V147.92H97.4656V149.168C97.4656 149.792 97.2416 150.64 97.0336 151.136ZM102.464 160.192C104.016 160.192 105.856 159.552 105.856 157.68C105.856 154.784 101.488 155.376 101.488 153.376C101.488 152.656 102 152.096 103.2 152.096C103.84 152.096 104.56 152.24 105.12 152.464L105.408 151.456C104.784 151.184 103.904 151.04 103.216 151.04C101.584 151.04 100.256 151.888 100.256 153.488C100.256 156.368 104.656 155.808 104.656 157.76C104.656 158.624 103.84 159.12 102.56 159.12C101.808 159.12 100.992 158.96 100.224 158.736L100.016 159.808C100.656 160.016 101.648 160.192 102.464 160.192ZM112.032 160H113.296V147.936H112.032V160ZM115.985 160H117.265V151.264H115.985V160ZM116.609 149.632L117.681 148.56L116.609 147.504L115.569 148.56L116.609 149.632ZM119.969 160H121.233V153.232C122.017 152.688 122.913 152.16 124.033 152.16C125.521 152.16 125.761 153.104 125.761 154.608V160H126.993V154.368C126.993 152.896 126.833 151.04 124.353 151.04C122.993 151.04 122.145 151.584 121.233 152.256V151.264H119.969V160ZM133.258 160.192C134.362 160.192 135.354 160 136.01 159.728L135.786 158.704C134.97 158.96 134.314 159.104 133.466 159.104C131.802 159.104 130.426 158.576 130.394 155.872H136.154V155.408C136.154 152.496 135.146 151.04 132.922 151.04C130.794 151.04 129.114 152.4 129.114 155.808C129.114 159.136 130.714 160.192 133.258 160.192ZM130.41 154.928C130.554 152.976 131.53 152.032 132.794 152.032C134.218 152.032 134.842 153.152 134.842 154.928H130.41ZM142.5 160H143.764V153.248C144.516 152.768 145.46 152.176 146.58 152.176C148.036 152.176 148.292 153.104 148.292 154.624V160H149.508V154.368C149.508 152.912 149.364 151.056 146.868 151.056C145.476 151.056 144.484 151.744 143.764 152.272V147.936H142.5V160ZM155.789 160.192C156.893 160.192 157.885 160 158.541 159.728L158.317 158.704C157.501 158.96 156.845 159.104 155.997 159.104C154.333 159.104 152.957 158.576 152.925 155.872H158.685V155.408C158.685 152.496 157.677 151.04 155.453 151.04C153.325 151.04 151.645 152.4 151.645 155.808C151.645 159.136 153.245 160.192 155.789 160.192ZM152.941 154.928C153.085 152.976 154.061 152.032 155.325 152.032C156.749 152.032 157.373 153.152 157.373 154.928H152.941ZM160.86 160H162.14V151.264H160.86V160ZM161.484 149.632L162.556 148.56L161.484 147.504L160.444 148.56L161.484 149.632ZM167.74 163.68C170.012 163.68 171.452 162.656 171.452 160.528V151.408C170.588 151.2 169.5 151.04 168.684 151.04C166.188 151.04 164.364 152.416 164.364 155.824C164.364 159.488 166.444 160.112 168.092 160.112C169.084 160.112 169.596 159.872 170.22 159.376V160.256C170.22 162.128 169.116 162.544 167.836 162.544C166.908 162.544 166.028 162.336 165.276 162.08L165.02 163.2C165.676 163.488 166.796 163.68 167.74 163.68ZM168.22 159.088C166.604 159.088 165.612 158.144 165.612 155.744C165.612 153.664 166.348 152.144 168.604 152.144C169.388 152.144 169.98 152.32 170.204 152.384V158.304C169.724 158.688 169.18 159.088 168.22 159.088ZM174.125 160H175.389V153.248C176.141 152.768 177.085 152.176 178.205 152.176C179.661 152.176 179.917 153.104 179.917 154.624V160H181.133V154.368C181.133 152.912 180.989 151.056 178.493 151.056C177.101 151.056 176.109 151.744 175.389 152.272V147.936H174.125V160ZM186.726 160.192C187.318 160.192 188.134 160.032 188.582 159.872L188.358 158.832C187.99 158.96 187.366 159.088 186.886 159.088C185.878 159.088 185.318 158.752 185.318 157.52V152.336H188.038V151.264H185.302V149.472H184.07V151.264H182.79V152.336H184.07V157.568C184.07 159.632 185.094 160.192 186.726 160.192ZM194.297 160H195.577V151.264H194.297V160ZM194.921 149.632L195.993 148.56L194.921 147.504L193.881 148.56L194.921 149.632ZM200.058 160.192C201.61 160.192 203.45 159.552 203.45 157.68C203.45 154.784 199.082 155.376 199.082 153.376C199.082 152.656 199.594 152.096 200.794 152.096C201.434 152.096 202.154 152.24 202.714 152.464L203.002 151.456C202.378 151.184 201.498 151.04 200.81 151.04C199.178 151.04 197.85 151.888 197.85 153.488C197.85 156.368 202.25 155.808 202.25 157.76C202.25 158.624 201.434 159.12 200.154 159.12C199.402 159.12 198.586 158.96 197.818 158.736L197.61 159.808C198.25 160.016 199.242 160.192 200.058 160.192ZM216.169 160V158.896H210.489C213.113 156.496 215.465 154.192 215.465 151.744C215.465 150.272 214.937 148.56 212.217 148.56C210.633 148.56 209.721 149.12 209.241 149.44L209.737 150.352C210.009 150.192 210.825 149.68 212.105 149.68C213.433 149.68 214.185 150.192 214.185 151.888C214.185 154.352 209.241 158.56 208.857 158.96V160H216.169ZM225.5 156.976V155.856H223.548V148.688H221.66L217.292 155.856V156.976H222.284V160H223.548V156.976H225.5ZM222.284 155.856H218.54L222.284 149.648V155.856ZM227.36 163.52H228.624V160.032C229.024 160.096 229.728 160.176 230.288 160.176C232.592 160.176 234.592 159.008 234.592 155.488C234.592 152.64 233.28 151.072 231.184 151.072C230.112 151.072 229.392 151.456 228.624 151.984V151.264H227.36V163.52ZM230.272 159.12C229.584 159.12 228.88 158.976 228.624 158.944V152.992C229.088 152.688 229.888 152.16 230.928 152.16C232.8 152.16 233.312 153.952 233.312 155.568C233.312 157.632 232.496 159.12 230.272 159.12ZM236.797 160H238.077V151.264H236.797V160ZM237.421 149.632L238.493 148.56L237.421 147.504L236.381 148.56L237.421 149.632ZM239.79 160H241.278L243.549 156.416L245.79 160H247.31L244.27 155.504L247.086 151.264H245.678L243.549 154.64L241.438 151.264H239.965L242.83 155.536L239.79 160ZM252.649 160.192C253.753 160.192 254.745 160 255.401 159.728L255.177 158.704C254.361 158.96 253.705 159.104 252.857 159.104C251.193 159.104 249.817 158.576 249.785 155.872H255.545V155.408C255.545 152.496 254.537 151.04 252.313 151.04C250.185 151.04 248.505 152.4 248.505 155.808C248.505 159.136 250.105 160.192 252.649 160.192ZM249.801 154.928C249.945 152.976 250.921 152.032 252.185 152.032C253.609 152.032 254.233 153.152 254.233 154.928H249.801ZM257.719 160H258.983V147.936H257.719V160ZM263.448 160.192C265 160.192 266.84 159.552 266.84 157.68C266.84 154.784 262.472 155.376 262.472 153.376C262.472 152.656 262.984 152.096 264.184 152.096C264.824 152.096 265.544 152.24 266.104 152.464L266.392 151.456C265.768 151.184 264.888 151.04 264.2 151.04C262.568 151.04 261.24 151.888 261.24 153.488C261.24 156.368 265.64 155.808 265.64 157.76C265.64 158.624 264.824 159.12 263.544 159.12C262.792 159.12 261.976 158.96 261.208 158.736L261 159.808C261.64 160.016 262.632 160.192 263.448 160.192ZM276.648 161.648C275.016 160.032 273.72 157.68 273.72 154.368C273.72 150.624 275.304 148.608 276.664 147.408L275.976 146.64C274.36 147.808 272.504 150.272 272.504 154.368C272.504 158.352 274.184 160.848 275.976 162.432L276.648 161.648ZM281.167 160V148.688L277.647 148.784V149.776H279.903V160H281.167ZM283.979 160H285.499V158.496H283.979V160ZM294.034 156.592C294.034 154.528 292.69 153.28 290.594 153.28C290.098 153.28 289.666 153.28 289.154 153.312V149.776H293.634V148.688H287.938V154.512C288.578 154.448 289.138 154.416 289.698 154.4C289.906 154.4 290.13 154.384 290.354 154.384C291.714 154.384 292.77 155.088 292.77 156.784C292.77 158.16 291.73 158.976 290.29 158.976C289.202 158.976 288.466 158.848 287.858 158.688L287.538 159.808C287.954 159.936 288.85 160.144 290.29 160.144C292.482 160.144 294.034 158.912 294.034 156.592ZM296.297 160H297.561V153.568C297.977 152.928 298.777 152.176 299.833 152.176C300.345 152.176 300.601 152.224 300.873 152.288L301.081 151.216C300.921 151.168 300.569 151.072 300.057 151.072C298.825 151.072 297.961 151.776 297.561 152.432V151.264H296.297V160ZM306.149 160.192C307.253 160.192 308.245 160 308.901 159.728L308.677 158.704C307.861 158.96 307.205 159.104 306.357 159.104C304.693 159.104 303.317 158.576 303.285 155.872H309.045V155.408C309.045 152.496 308.037 151.04 305.813 151.04C303.685 151.04 302.005 152.4 302.005 155.808C302.005 159.136 303.605 160.192 306.149 160.192ZM303.301 154.928C303.445 152.976 304.421 152.032 305.685 152.032C307.109 152.032 307.733 153.152 307.733 154.928H303.301ZM311.219 160H312.483V153.296C313.251 152.672 314.163 152.16 315.123 152.16C316.563 152.16 316.771 153.248 316.771 154.608V160H318.019V154.368C318.019 154 317.987 153.6 317.923 153.232C318.691 152.672 319.555 152.176 320.563 152.176C322.099 152.176 322.307 153.248 322.307 154.608V160H323.571V154.368C323.571 152.896 323.395 151.056 320.899 151.056C319.475 151.056 318.483 151.76 317.715 152.352C317.411 151.632 316.595 151.056 315.395 151.056C314.227 151.056 313.331 151.616 312.483 152.288V151.264H311.219V160ZM326.172 162.432C327.964 160.848 329.628 158.352 329.628 154.368C329.628 150.272 327.772 147.808 326.172 146.64L325.468 147.408C326.828 148.608 328.412 150.624 328.412 154.368C328.412 157.68 327.132 160.032 325.484 161.648L326.172 162.432ZM331.542 160H333.062V158.496H331.542V160ZM340.024 160H341.336V148.688H340.024V160ZM347.351 160.192C347.943 160.192 348.759 160.032 349.207 159.872L348.983 158.832C348.615 158.96 347.991 159.088 347.511 159.088C346.503 159.088 345.943 158.752 345.943 157.52V152.336H348.663V151.264H345.927V149.472H344.695V151.264H343.415V152.336H344.695V157.568C344.695 159.632 345.719 160.192 347.351 160.192ZM24.3838 184H26.0958L28.1118 177.6L28.4158 176.416L28.6878 177.616L30.4478 184H32.1438L35.1518 175.264H33.8878L31.3278 183.088L29.2478 175.264H27.6318L25.2638 183.088L23.0078 175.264H21.6798L24.3838 184ZM36.719 184H37.999V175.264H36.719V184ZM37.343 173.632L38.415 172.56L37.343 171.504L36.303 172.56L37.343 173.632ZM40.7034 184H41.9674V171.936H40.7034V184ZM44.6565 184H45.9205V171.936H44.6565V184ZM54.7335 184.144C56.2375 184.144 57.2135 183.328 57.6455 182.992C57.7575 183.776 58.5575 184.096 59.3255 184.096C59.4375 184.096 59.5975 184.08 59.6775 184.064L59.7255 183.088C59.3095 183.088 58.7815 182.944 58.7815 182.288V177.456C58.7815 175.744 57.6135 175.04 55.6935 175.04C54.5095 175.04 53.5335 175.296 52.8615 175.584L53.1495 176.576C53.8695 176.304 54.5735 176.144 55.5175 176.144C56.8935 176.144 57.5495 176.48 57.5495 177.872V178.992L55.4695 179.024C54.0455 179.056 52.1255 179.504 52.1255 181.68C52.1255 183.264 53.1495 184.144 54.7335 184.144ZM55.0215 183.12C54.0615 183.12 53.3415 182.64 53.3415 181.632C53.3415 180.608 54.0935 180 55.4535 179.952L57.5495 179.872V182.144C56.8935 182.624 55.9815 183.12 55.0215 183.12ZM61.6096 184H62.8736V171.936H61.6096V184ZM67.2588 184H68.9708L70.9868 177.6L71.2908 176.416L71.5628 177.616L73.3228 184H75.0188L78.0268 175.264H76.7628L74.2028 183.088L72.1228 175.264H70.5068L68.1388 183.088L65.8828 175.264H64.5548L67.2588 184ZM81.546 184.144C83.05 184.144 84.026 183.328 84.458 182.992C84.57 183.776 85.37 184.096 86.138 184.096C86.25 184.096 86.41 184.08 86.49 184.064L86.538 183.088C86.122 183.088 85.594 182.944 85.594 182.288V177.456C85.594 175.744 84.426 175.04 82.506 175.04C81.322 175.04 80.346 175.296 79.674 175.584L79.962 176.576C80.682 176.304 81.386 176.144 82.33 176.144C83.706 176.144 84.362 176.48 84.362 177.872V178.992L82.282 179.024C80.858 179.056 78.938 179.504 78.938 181.68C78.938 183.264 79.962 184.144 81.546 184.144ZM81.834 183.12C80.874 183.12 80.154 182.64 80.154 181.632C80.154 180.608 80.906 180 82.266 179.952L84.362 179.872V182.144C83.706 182.624 82.794 183.12 81.834 183.12ZM89.5741 187.52H90.7901L95.0621 175.264H93.7661L91.6221 181.536L91.1101 183.072L90.6141 181.504L88.7261 175.264H87.3501L90.1661 184H90.7581L89.5741 187.52ZM98.37 184.192C99.922 184.192 101.762 183.552 101.762 181.68C101.762 178.784 97.394 179.376 97.394 177.376C97.394 176.656 97.906 176.096 99.106 176.096C99.746 176.096 100.466 176.24 101.026 176.464L101.314 175.456C100.69 175.184 99.81 175.04 99.122 175.04C97.49 175.04 96.162 175.888 96.162 177.488C96.162 180.368 100.562 179.808 100.562 181.76C100.562 182.624 99.746 183.12 98.466 183.12C97.714 183.12 96.898 182.96 96.13 182.736L95.922 183.808C96.562 184.016 97.554 184.192 98.37 184.192ZM110.658 184.192C113.154 184.192 115.122 182.928 115.122 179.376C115.122 176.56 113.874 175.104 111.554 175.104C110.882 175.104 110.37 175.216 110.05 175.392L110.162 176.32C110.498 176.208 110.898 176.128 111.362 176.128C113.394 176.128 113.826 177.776 113.826 179.312C113.826 181.552 112.93 183.12 110.882 183.12C110.21 183.12 109.49 182.96 109.138 182.864V171.936H107.89V183.712C108.594 183.968 109.634 184.192 110.658 184.192ZM117.328 184H118.592V177.568C119.008 176.928 119.808 176.176 120.864 176.176C121.376 176.176 121.632 176.224 121.904 176.288L122.112 175.216C121.952 175.168 121.6 175.072 121.088 175.072C119.856 175.072 118.992 175.776 118.592 176.432V175.264H117.328V184ZM127.18 184.192C128.284 184.192 129.276 184 129.932 183.728L129.708 182.704C128.892 182.96 128.236 183.104 127.388 183.104C125.724 183.104 124.348 182.576 124.316 179.872H130.076V179.408C130.076 176.496 129.068 175.04 126.844 175.04C124.716 175.04 123.036 176.4 123.036 179.808C123.036 183.136 124.636 184.192 127.18 184.192ZM124.332 178.928C124.476 176.976 125.452 176.032 126.716 176.032C128.14 176.032 128.764 177.152 128.764 178.928H124.332ZM134.202 184.144C135.706 184.144 136.682 183.328 137.114 182.992C137.226 183.776 138.026 184.096 138.794 184.096C138.906 184.096 139.066 184.08 139.146 184.064L139.194 183.088C138.778 183.088 138.25 182.944 138.25 182.288V177.456C138.25 175.744 137.082 175.04 135.162 175.04C133.978 175.04 133.002 175.296 132.33 175.584L132.618 176.576C133.338 176.304 134.042 176.144 134.986 176.144C136.362 176.144 137.018 176.48 137.018 177.872V178.992L134.938 179.024C133.514 179.056 131.594 179.504 131.594 181.68C131.594 183.264 132.618 184.144 134.202 184.144ZM134.49 183.12C133.53 183.12 132.81 182.64 132.81 181.632C132.81 180.608 133.562 180 134.922 179.952L137.018 179.872V182.144C136.362 182.624 135.45 183.12 134.49 183.12ZM147.782 184.128L148.054 183.184C147.51 183.04 146.71 182.528 145.91 181.552L144.118 179.344L147.83 175.264H146.374L142.694 179.392L145.158 182.512C146.278 183.92 147.19 184.096 147.782 184.128ZM141.078 184H142.342V171.936H141.078V184ZM157.236 184.192C159.524 184.192 161.22 182.736 161.22 179.584C161.22 176.704 159.892 175.04 157.412 175.04C154.98 175.04 153.348 176.704 153.348 179.728C153.348 182.592 154.836 184.192 157.236 184.192ZM157.316 183.152C155.268 183.152 154.628 181.456 154.628 179.664C154.628 178 155.172 176.08 157.316 176.08C159.46 176.08 159.94 178.016 159.94 179.664C159.94 181.376 159.428 183.152 157.316 183.152ZM163.407 184H164.671V177.232C165.455 176.688 166.351 176.16 167.471 176.16C168.959 176.16 169.199 177.104 169.199 178.608V184H170.431V178.368C170.431 176.896 170.271 175.04 167.791 175.04C166.431 175.04 165.583 175.584 164.671 176.256V175.264H163.407V184ZM180.179 184.192C180.771 184.192 181.587 184.032 182.035 183.872L181.811 182.832C181.443 182.96 180.819 183.088 180.339 183.088C179.331 183.088 178.771 182.752 178.771 181.52V176.336H181.491V175.264H178.755V173.472H177.523V175.264H176.243V176.336H177.523V181.568C177.523 183.632 178.547 184.192 180.179 184.192ZM183.578 184H184.842V177.248C185.594 176.768 186.538 176.176 187.658 176.176C189.114 176.176 189.37 177.104 189.37 178.624V184H190.586V178.368C190.586 176.912 190.442 175.056 187.946 175.056C186.554 175.056 185.562 175.744 184.842 176.272V171.936H183.578V184ZM196.867 184.192C197.971 184.192 198.963 184 199.619 183.728L199.395 182.704C198.579 182.96 197.923 183.104 197.075 183.104C195.411 183.104 194.035 182.576 194.003 179.872H199.763V179.408C199.763 176.496 198.755 175.04 196.531 175.04C194.403 175.04 192.723 176.4 192.723 179.808C192.723 183.136 194.323 184.192 196.867 184.192ZM194.019 178.928C194.163 176.976 195.139 176.032 196.403 176.032C197.827 176.032 198.451 177.152 198.451 178.928H194.019ZM209.006 187.68C211.278 187.68 212.718 186.656 212.718 184.528V175.408C211.854 175.2 210.766 175.04 209.95 175.04C207.454 175.04 205.63 176.416 205.63 179.824C205.63 183.488 207.71 184.112 209.358 184.112C210.35 184.112 210.862 183.872 211.486 183.376V184.256C211.486 186.128 210.382 186.544 209.102 186.544C208.174 186.544 207.294 186.336 206.542 186.08L206.286 187.2C206.942 187.488 208.062 187.68 209.006 187.68ZM209.486 183.088C207.87 183.088 206.878 182.144 206.878 179.744C206.878 177.664 207.614 176.144 209.87 176.144C210.654 176.144 211.246 176.32 211.47 176.384V182.304C210.99 182.688 210.446 183.088 209.486 183.088ZM215.391 184H216.655V177.568C217.071 176.928 217.871 176.176 218.927 176.176C219.439 176.176 219.695 176.224 219.967 176.288L220.175 175.216C220.015 175.168 219.663 175.072 219.151 175.072C217.919 175.072 217.055 175.776 216.655 176.432V175.264H215.391V184ZM221.578 184H222.858V175.264H221.578V184ZM222.202 173.632L223.274 172.56L222.202 171.504L221.162 172.56L222.202 173.632ZM228.571 184.16C229.675 184.16 230.315 183.728 230.939 183.168V184H232.203V171.936H230.939V175.264C230.363 175.104 229.931 175.04 229.403 175.04C226.875 175.04 225.067 176.496 225.067 179.824C225.067 183.44 227.195 184.16 228.571 184.16ZM228.731 183.088C227.403 183.088 226.347 182.064 226.347 179.744C226.347 177.872 227.035 176.08 229.323 176.08C230.091 176.08 230.699 176.256 230.939 176.352V182.112C230.539 182.464 229.723 183.088 228.731 183.088Z" fill="black"/>
<path d="M23.3238 32H25.4838V25.76H32.7238V32H34.8838V17.86H32.7238V24.04H25.4838V17.86H23.3238V32ZM43.1911 32.24C44.6111 32.24 45.9111 32 46.8711 31.64L46.5111 30.02C45.4311 30.34 44.5511 30.5 43.5111 30.5C41.5911 30.5 39.9511 29.92 39.9311 27.04H47.1111V26.3C47.1111 22.74 45.8311 20.8 42.7711 20.8C40.0311 20.8 37.8311 22.42 37.8311 26.74C37.8311 30.96 39.9311 32.24 43.1911 32.24ZM39.9911 25.58C40.1311 23.44 41.2111 22.38 42.6511 22.38C44.2511 22.38 44.9511 23.64 44.9511 25.58H39.9911ZM49.6034 32H51.7034V24.16C52.1834 23.44 53.1834 22.64 54.4234 22.64C55.0434 22.64 55.3234 22.68 55.7634 22.78L56.0634 21.02C55.8034 20.94 55.3634 20.84 54.7234 20.84C53.2834 20.84 52.2034 21.76 51.7034 22.54V21.08H49.6034V32ZM62.4684 32.24C63.8884 32.24 65.1884 32 66.1484 31.64L65.7884 30.02C64.7084 30.34 63.8284 30.5 62.7884 30.5C60.8684 30.5 59.2284 29.92 59.2084 27.04H66.3884V26.3C66.3884 22.74 65.1084 20.8 62.0484 20.8C59.3084 20.8 57.1084 22.42 57.1084 26.74C57.1084 30.96 59.2084 32.24 62.4684 32.24ZM59.2684 25.58C59.4084 23.44 60.4884 22.38 61.9284 22.38C63.5284 22.38 64.2284 23.64 64.2284 25.58H59.2684ZM73.8613 32H75.9813V21.08H73.8613V32ZM74.9013 19.3L76.5013 17.7L74.9013 16.1L73.3213 17.7L74.9013 19.3ZM81.5747 32.24C83.6147 32.24 86.0947 31.48 86.0947 29C86.0947 25.3 80.6347 26 80.6347 23.82C80.6347 23.08 81.2147 22.5 82.5947 22.5C83.4347 22.5 84.3947 22.68 85.1347 22.94L85.5547 21.36C84.6747 21 83.5147 20.8 82.5747 20.8C80.3947 20.8 78.5747 21.86 78.5747 23.98C78.5747 27.66 84.0747 27 84.0747 29.1C84.0747 29.96 83.2547 30.52 81.6747 30.52C80.7947 30.52 79.7347 30.34 78.6547 30.08L78.3547 31.76C79.2347 32.04 80.5747 32.24 81.5747 32.24ZM95.9325 32.18C97.6725 32.18 98.7925 31.32 99.4725 30.8C99.6725 31.78 100.773 32.12 101.893 32.12C102.033 32.12 102.253 32.1 102.393 32.08L102.473 30.48C101.912 30.46 101.333 30.32 101.333 29.64V23.94C101.333 21.72 99.8925 20.8 97.2725 20.8C95.6725 20.8 94.4525 21.12 93.4325 21.54L93.8725 23.12C94.8125 22.8 95.7725 22.6 96.9325 22.6C98.5325 22.6 99.2925 23 99.2925 24.5V25.68L96.9125 25.72C95.0125 25.74 92.5725 26.3 92.5725 29.06C92.5725 31.08 93.9125 32.18 95.9325 32.18ZM96.4725 30.52C95.4125 30.52 94.6125 30.02 94.6125 28.92C94.6125 27.8 95.4725 27.16 96.9725 27.12L99.2925 27.02V29.54C98.5125 30.04 97.4525 30.52 96.4725 30.52ZM109.662 32H111.762V23.78C112.582 23.28 113.682 22.66 114.962 22.66C116.582 22.66 116.902 23.56 116.902 25.34V32H118.942V25.04C118.942 23.02 118.762 20.82 115.542 20.82C113.882 20.82 112.602 21.68 111.762 22.3V16.92H109.662V32ZM129.525 28.18C129.525 26.1 127.945 24.9 126.445 24.44C127.465 24.08 128.825 23.02 128.825 21.08C128.825 18.82 127.065 17.7 124.725 17.7C123.365 17.7 122.345 18 121.565 18.38L122.165 19.88C122.165 19.88 123.265 19.46 124.605 19.46C125.845 19.46 126.805 19.96 126.805 21.32C126.805 22.82 125.525 23.72 123.645 23.86V25.46C126.065 25.6 127.425 26.44 127.425 28.18C127.425 30.04 126.065 30.38 124.465 30.38C123.125 30.38 122.045 30.12 121.445 29.94L121.005 31.66C121.005 31.66 122.265 32.18 124.665 32.18C127.285 32.18 129.525 31.3 129.525 28.18ZM137.182 32H139.282V23.78C140.102 23.28 141.202 22.66 142.482 22.66C144.102 22.66 144.422 23.56 144.422 25.34V32H146.462V25.04C146.462 23.02 146.282 20.82 143.062 20.82C141.402 20.82 140.122 21.68 139.282 22.3V16.92H137.182V32ZM154.285 32.24C155.705 32.24 157.005 32 157.965 31.64L157.605 30.02C156.525 30.34 155.645 30.5 154.605 30.5C152.685 30.5 151.045 29.92 151.025 27.04H158.205V26.3C158.205 22.74 156.925 20.8 153.865 20.8C151.125 20.8 148.925 22.42 148.925 26.74C148.925 30.96 151.025 32.24 154.285 32.24ZM151.085 25.58C151.225 23.44 152.305 22.38 153.745 22.38C155.345 22.38 156.045 23.64 156.045 25.58H151.085ZM163.237 32.18C164.977 32.18 166.097 31.32 166.777 30.8C166.977 31.78 168.077 32.12 169.197 32.12C169.337 32.12 169.557 32.1 169.697 32.08L169.777 30.48C169.217 30.46 168.637 30.32 168.637 29.64V23.94C168.637 21.72 167.197 20.8 164.577 20.8C162.977 20.8 161.757 21.12 160.737 21.54L161.177 23.12C162.117 22.8 163.077 22.6 164.237 22.6C165.837 22.6 166.597 23 166.597 24.5V25.68L164.217 25.72C162.317 25.74 159.877 26.3 159.877 29.06C159.877 31.08 161.217 32.18 163.237 32.18ZM163.777 30.52C162.717 30.52 161.917 30.02 161.917 28.92C161.917 27.8 162.777 27.16 164.277 27.12L166.597 27.02V29.54C165.817 30.04 164.757 30.52 163.777 30.52ZM175.886 32.2C177.266 32.2 178.026 31.64 178.706 31.02V32H180.806V16.92H178.706V21.04C177.986 20.86 177.506 20.8 176.906 20.8C173.726 20.8 171.346 22.58 171.346 26.74C171.346 31.18 174.026 32.2 175.886 32.2ZM176.226 30.44C174.706 30.44 173.446 29.36 173.446 26.62C173.446 24.4 174.286 22.48 176.886 22.48C177.746 22.48 178.446 22.68 178.706 22.78V29.46C178.206 29.84 177.266 30.44 176.226 30.44ZM183.959 32H186.079V21.08H183.959V32ZM184.999 19.3L186.599 17.7L184.999 16.1L183.419 17.7L184.999 19.3ZM189.232 32H191.332V23.76C192.192 23.18 193.232 22.62 194.532 22.62C196.152 22.62 196.472 23.54 196.472 25.32V32H198.532V25.02C198.532 23.02 198.292 20.8 195.212 20.8C193.512 20.8 192.432 21.48 191.332 22.28V21.08H189.232V32ZM205.396 36.6C208.256 36.6 210.376 35.32 210.376 32.5V21.3C209.136 20.98 207.696 20.8 206.656 20.8C203.396 20.8 200.976 22.54 200.976 26.82C200.976 31.32 203.616 32.14 205.836 32.14C207.016 32.14 207.576 31.88 208.316 31.34V32.16C208.316 34.28 207.056 34.76 205.496 34.76C204.396 34.76 203.216 34.52 202.156 34.18L201.776 35.98C202.696 36.38 204.256 36.6 205.396 36.6ZM206.136 30.5C204.216 30.5 203.036 29.48 203.036 26.68C203.036 24.24 203.936 22.58 206.496 22.58C207.336 22.58 207.996 22.76 208.296 22.84V29.76C207.736 30.14 207.076 30.5 206.136 30.5ZM221.011 32.18C222.751 32.18 223.871 31.32 224.551 30.8C224.751 31.78 225.851 32.12 226.971 32.12C227.111 32.12 227.331 32.1 227.471 32.08L227.551 30.48C226.991 30.46 226.411 30.32 226.411 29.64V23.94C226.411 21.72 224.971 20.8 222.351 20.8C220.751 20.8 219.531 21.12 218.511 21.54L218.951 23.12C219.891 22.8 220.851 22.6 222.011 22.6C223.611 22.6 224.371 23 224.371 24.5V25.68L221.991 25.72C220.091 25.74 217.651 26.3 217.651 29.06C217.651 31.08 218.991 32.18 221.011 32.18ZM221.551 30.52C220.491 30.52 219.691 30.02 219.691 28.92C219.691 27.8 220.551 27.16 222.051 27.12L224.371 27.02V29.54C223.591 30.04 222.531 30.52 221.551 30.52ZM229.76 32H231.86V16.92H229.76V32ZM235.014 32H237.134V21.08H235.014V32ZM236.054 19.3L237.654 17.7L236.054 16.1L234.474 17.7L236.054 19.3ZM244.087 36.6C246.947 36.6 249.067 35.32 249.067 32.5V21.3C247.827 20.98 246.387 20.8 245.347 20.8C242.087 20.8 239.667 22.54 239.667 26.82C239.667 31.32 242.307 32.14 244.527 32.14C245.707 32.14 246.267 31.88 247.007 31.34V32.16C247.007 34.28 245.747 34.76 244.187 34.76C243.087 34.76 241.907 34.52 240.847 34.18L240.467 35.98C241.387 36.38 242.947 36.6 244.087 36.6ZM244.827 30.5C242.907 30.5 241.727 29.48 241.727 26.68C241.727 24.24 242.627 22.58 245.187 22.58C246.027 22.58 246.687 22.76 246.987 22.84V29.76C246.427 30.14 245.767 30.5 244.827 30.5ZM252.182 32H254.282V23.76C255.142 23.18 256.182 22.62 257.482 22.62C259.102 22.62 259.422 23.54 259.422 25.32V32H261.482V25.02C261.482 23.02 261.242 20.8 258.162 20.8C256.462 20.8 255.382 21.48 254.282 22.28V21.08H252.182V32ZM264.545 32H266.665V21.08H264.545V32ZM265.585 19.3L267.185 17.7L265.585 16.1L264.005 17.7L265.585 19.3ZM269.818 32H271.918V23.76C272.778 23.18 273.818 22.62 275.118 22.62C276.738 22.62 277.058 23.54 277.058 25.32V32H279.118V25.02C279.118 23.02 278.878 20.8 275.798 20.8C274.098 20.8 273.018 21.48 271.918 22.28V21.08H269.818V32ZM285.982 36.6C288.842 36.6 290.962 35.32 290.962 32.5V21.3C289.722 20.98 288.282 20.8 287.242 20.8C283.982 20.8 281.562 22.54 281.562 26.82C281.562 31.32 284.202 32.14 286.422 32.14C287.602 32.14 288.162 31.88 288.902 31.34V32.16C288.902 34.28 287.642 34.76 286.082 34.76C284.982 34.76 283.802 34.52 282.742 34.18L282.362 35.98C283.282 36.38 284.842 36.6 285.982 36.6ZM286.722 30.5C284.802 30.5 283.622 29.48 283.622 26.68C283.622 24.24 284.522 22.58 287.082 22.58C287.922 22.58 288.582 22.76 288.882 22.84V29.76C288.322 30.14 287.662 30.5 286.722 30.5ZM303.017 32.24C303.837 32.24 304.957 32.06 305.617 31.82L305.337 30.12C304.777 30.3 303.977 30.44 303.337 30.44C302.177 30.44 301.597 30.08 301.597 28.76V22.74H304.997V21.08H301.577V18.84H299.517V21.08H297.917V22.74H299.517V28.86C299.517 31.48 300.877 32.24 303.017 32.24ZM311.914 32.24C314.934 32.24 317.154 30.38 317.154 26.5C317.154 22.92 315.474 20.8 312.134 20.8C308.974 20.8 306.874 22.92 306.874 26.66C306.874 30.18 308.754 32.24 311.914 32.24ZM312.054 30.54C309.714 30.54 308.974 28.7 308.974 26.58C308.974 24.58 309.614 22.48 312.034 22.48C314.474 22.48 315.034 24.6 315.034 26.58C315.034 28.62 314.434 30.54 312.054 30.54ZM328.622 32.24C329.442 32.24 330.562 32.06 331.222 31.82L330.942 30.12C330.382 30.3 329.582 30.44 328.942 30.44C327.782 30.44 327.202 30.08 327.202 28.76V22.74H330.602V21.08H327.182V18.84H325.122V21.08H323.522V22.74H325.122V28.86C325.122 31.48 326.482 32.24 328.622 32.24ZM333.119 32H335.219V23.78C336.039 23.28 337.139 22.66 338.419 22.66C340.039 22.66 340.359 23.56 340.359 25.34V32H342.399V25.04C342.399 23.02 342.219 20.82 338.999 20.82C337.339 20.82 336.059 21.68 335.219 22.3V16.92H333.119V32ZM350.222 32.24C351.642 32.24 352.942 32 353.902 31.64L353.542 30.02C352.462 30.34 351.582 30.5 350.542 30.5C348.622 30.5 346.982 29.92 346.962 27.04H354.142V26.3C354.142 22.74 352.862 20.8 349.802 20.8C347.062 20.8 344.862 22.42 344.862 26.74C344.862 30.96 346.962 32.24 350.222 32.24ZM347.022 25.58C347.162 23.44 348.242 22.38 349.682 22.38C351.282 22.38 351.982 23.64 351.982 25.58H347.022ZM26.7238 68.6C29.5838 68.6 31.7038 67.32 31.7038 64.5V53.3C30.4638 52.98 29.0238 52.8 27.9838 52.8C24.7238 52.8 22.3038 54.54 22.3038 58.82C22.3038 63.32 24.9438 64.14 27.1638 64.14C28.3438 64.14 28.9038 63.88 29.6438 63.34V64.16C29.6438 66.28 28.3838 66.76 26.8238 66.76C25.7238 66.76 24.5438 66.52 23.4838 66.18L23.1038 67.98C24.0238 68.38 25.5838 68.6 26.7238 68.6ZM27.4638 62.5C25.5438 62.5 24.3638 61.48 24.3638 58.68C24.3638 56.24 25.2638 54.58 27.8238 54.58C28.6638 54.58 29.3238 54.76 29.6238 54.84V61.76C29.0638 62.14 28.4038 62.5 27.4638 62.5ZM34.8183 64H36.9183V56.16C37.3983 55.44 38.3983 54.64 39.6383 54.64C40.2583 54.64 40.5383 54.68 40.9783 54.78L41.2783 53.02C41.0183 52.94 40.5783 52.84 39.9383 52.84C38.4983 52.84 37.4183 53.76 36.9183 54.54V53.08H34.8183V64ZM42.9433 64H45.0633V53.08H42.9433V64ZM43.9833 51.3L45.5833 49.7L43.9833 48.1L42.4033 49.7L43.9833 51.3ZM52.1167 64.2C53.4967 64.2 54.2567 63.64 54.9367 63.02V64H57.0367V48.92H54.9367V53.04C54.2167 52.86 53.7367 52.8 53.1367 52.8C49.9567 52.8 47.5767 54.58 47.5767 58.74C47.5767 63.18 50.2567 64.2 52.1167 64.2ZM52.4567 62.44C50.9367 62.44 49.6767 61.36 49.6767 58.62C49.6767 56.4 50.5167 54.48 53.1167 54.48C53.9767 54.48 54.6767 54.68 54.9367 54.78V61.46C54.4367 61.84 53.4967 62.44 52.4567 62.44ZM68.8098 64.24C72.0698 64.24 74.6498 62.66 74.6498 58.16C74.6498 54.54 72.9498 52.86 70.0298 52.86C68.9898 52.86 68.3098 53.06 67.6898 53.38L67.7898 54.84C68.3298 54.64 68.9098 54.5 69.6298 54.5C71.9298 54.5 72.5098 56.14 72.5098 58.06C72.5098 60.7 71.4298 62.52 69.1298 62.52C68.3698 62.52 67.5898 62.34 67.1698 62.24V48.92H65.0898V63.6C66.0098 63.92 67.3898 64.24 68.8098 64.24ZM81.9216 64.24C83.3416 64.24 84.6416 64 85.6016 63.64L85.2416 62.02C84.1616 62.34 83.2816 62.5 82.2416 62.5C80.3216 62.5 78.6816 61.92 78.6616 59.04H85.8416V58.3C85.8416 54.74 84.5616 52.8 81.5016 52.8C78.7616 52.8 76.5616 54.42 76.5616 58.74C76.5616 62.96 78.6616 64.24 81.9216 64.24ZM78.7216 57.58C78.8616 55.44 79.9416 54.38 81.3816 54.38C82.9816 54.38 83.6816 55.64 83.6816 57.58H78.7216ZM93.3539 64.24C94.6139 64.24 95.3539 64.04 96.1339 63.82L95.8139 62.18C95.0339 62.36 94.4739 62.48 93.5739 62.48C90.7139 62.48 89.8339 61.14 89.8339 58.7C89.8339 55.78 91.0739 54.56 93.1939 54.56C94.2539 54.56 95.0739 54.88 95.5939 55.08L96.1739 53.5C95.5539 53.16 94.5339 52.8 93.1339 52.8C89.7739 52.8 87.6939 54.82 87.6939 58.78C87.6939 62.44 89.3939 64.24 93.3539 64.24ZM101.011 64.18C102.751 64.18 103.871 63.32 104.551 62.8C104.751 63.78 105.851 64.12 106.971 64.12C107.111 64.12 107.331 64.1 107.471 64.08L107.551 62.48C106.991 62.46 106.411 62.32 106.411 61.64V55.94C106.411 53.72 104.971 52.8 102.351 52.8C100.751 52.8 99.5306 53.12 98.5106 53.54L98.9506 55.12C99.8906 54.8 100.851 54.6 102.011 54.6C103.611 54.6 104.371 55 104.371 56.5V57.68L101.991 57.72C100.091 57.74 97.6506 58.3 97.6506 61.06C97.6506 63.08 98.9906 64.18 101.011 64.18ZM101.551 62.52C100.491 62.52 99.6906 62.02 99.6906 60.92C99.6906 59.8 100.551 59.16 102.051 59.12L104.371 59.02V61.54C103.591 62.04 102.531 62.52 101.551 62.52ZM112.94 64.24C114.8 64.24 115.88 63.46 116.86 62.76V64H118.92V53.08H116.86V61.26C116.12 61.76 114.96 62.38 113.66 62.38C111.94 62.38 111.76 61.34 111.76 59.68V53.08H109.68V60C109.68 61.98 109.94 64.24 112.94 64.24ZM124.524 64.24C126.564 64.24 129.044 63.48 129.044 61C129.044 57.3 123.584 58 123.584 55.82C123.584 55.08 124.164 54.5 125.544 54.5C126.384 54.5 127.344 54.68 128.084 54.94L128.504 53.36C127.624 53 126.464 52.8 125.524 52.8C123.344 52.8 121.524 53.86 121.524 55.98C121.524 59.66 127.024 59 127.024 61.1C127.024 61.96 126.204 62.52 124.624 62.52C123.744 62.52 122.684 62.34 121.604 62.08L121.304 63.76C122.184 64.04 123.524 64.24 124.524 64.24ZM136.101 64.24C137.521 64.24 138.821 64 139.781 63.64L139.421 62.02C138.341 62.34 137.461 62.5 136.421 62.5C134.501 62.5 132.861 61.92 132.841 59.04H140.021V58.3C140.021 54.74 138.741 52.8 135.681 52.8C132.941 52.8 130.741 54.42 130.741 58.74C130.741 62.96 132.841 64.24 136.101 64.24ZM132.901 57.58C133.041 55.44 134.121 54.38 135.561 54.38C137.161 54.38 137.861 55.64 137.861 57.58H132.901ZM147.494 64H149.614V53.08H147.494V64ZM148.534 51.3L150.134 49.7L148.534 48.1L146.954 49.7L148.534 51.3ZM156.728 64.24C157.548 64.24 158.668 64.06 159.328 63.82L159.048 62.12C158.488 62.3 157.688 62.44 157.048 62.44C155.888 62.44 155.308 62.08 155.308 60.76V54.74H158.708V53.08H155.288V50.84H153.228V53.08H151.628V54.74H153.228V60.86C153.228 63.48 154.588 64.24 156.728 64.24ZM160.505 53.32H161.925C162.465 52.52 162.865 51.5 162.865 50.04V48.9H161.085V50.8C161.085 51.46 160.885 52.56 160.505 53.32ZM167.708 64.24C169.748 64.24 172.228 63.48 172.228 61C172.228 57.3 166.768 58 166.768 55.82C166.768 55.08 167.348 54.5 168.728 54.5C169.567 54.5 170.528 54.68 171.268 54.94L171.688 53.36C170.808 53 169.648 52.8 168.708 52.8C166.528 52.8 164.708 53.86 164.708 55.98C164.708 59.66 170.208 59 170.208 61.1C170.208 61.96 169.388 62.52 167.808 62.52C166.928 62.52 165.868 62.34 164.788 62.08L164.488 63.76C165.368 64.04 166.708 64.24 167.708 64.24ZM179.525 64H181.625V48.92H179.525V64ZM184.779 64H186.899V53.08H184.779V64ZM185.819 51.3L187.419 49.7L185.819 48.1L184.239 49.7L185.819 51.3ZM190.053 64H192.153V55.76C193.013 55.18 194.053 54.62 195.353 54.62C196.973 54.62 197.293 55.54 197.293 57.32V64H199.353V57.02C199.353 55.02 199.113 52.8 196.033 52.8C194.333 52.8 193.253 53.48 192.153 54.28V53.08H190.053V64ZM207.156 64.24C208.576 64.24 209.876 64 210.836 63.64L210.476 62.02C209.396 62.34 208.516 62.5 207.476 62.5C205.556 62.5 203.916 61.92 203.896 59.04H211.076V58.3C211.076 54.74 209.796 52.8 206.736 52.8C203.996 52.8 201.796 54.42 201.796 58.74C201.796 62.96 203.896 64.24 207.156 64.24ZM203.956 57.58C204.096 55.44 205.176 54.38 206.616 54.38C208.216 54.38 208.916 55.64 208.916 57.58H203.956ZM213.708 57.86H219.668V56.12H213.708V57.86ZM222.963 64H225.063V55.78C225.883 55.28 226.983 54.66 228.263 54.66C229.883 54.66 230.203 55.56 230.203 57.34V64H232.243V57.04C232.243 55.02 232.063 52.82 228.843 52.82C227.183 52.82 225.903 53.68 225.063 54.3V48.92H222.963V64ZM240.066 64.24C241.486 64.24 242.786 64 243.746 63.64L243.386 62.02C242.306 62.34 241.426 62.5 240.386 62.5C238.466 62.5 236.826 61.92 236.806 59.04H243.986V58.3C243.986 54.74 242.706 52.8 239.646 52.8C236.906 52.8 234.706 54.42 234.706 58.74C234.706 62.96 236.806 64.24 240.066 64.24ZM236.866 57.58C237.006 55.44 238.086 54.38 239.526 54.38C241.126 54.38 241.826 55.64 241.826 57.58H236.866ZM246.478 64H248.598V53.08H246.478V64ZM247.518 51.3L249.118 49.7L247.518 48.1L245.938 49.7L247.518 51.3ZM255.552 68.6C258.412 68.6 260.532 67.32 260.532 64.5V53.3C259.292 52.98 257.852 52.8 256.812 52.8C253.552 52.8 251.132 54.54 251.132 58.82C251.132 63.32 253.772 64.14 255.992 64.14C257.172 64.14 257.732 63.88 258.472 63.34V64.16C258.472 66.28 257.212 66.76 255.652 66.76C254.552 66.76 253.372 66.52 252.312 66.18L251.932 67.98C252.852 68.38 254.412 68.6 255.552 68.6ZM256.292 62.5C254.372 62.5 253.192 61.48 253.192 58.68C253.192 56.24 254.092 54.58 256.652 54.58C257.492 54.58 258.152 54.76 258.452 54.84V61.76C257.892 62.14 257.232 62.5 256.292 62.5ZM263.646 64H265.746V55.78C266.566 55.28 267.666 54.66 268.946 54.66C270.566 54.66 270.886 55.56 270.886 57.34V64H272.926V57.04C272.926 55.02 272.746 52.82 269.526 52.82C267.866 52.82 266.586 53.68 265.746 54.3V48.92H263.646V64ZM279.97 64.24C280.79 64.24 281.91 64.06 282.57 63.82L282.29 62.12C281.73 62.3 280.93 62.44 280.29 62.44C279.13 62.44 278.55 62.08 278.55 60.76V54.74H281.95V53.08H278.53V50.84H276.47V53.08H274.87V54.74H276.47V60.86C276.47 63.48 277.83 64.24 279.97 64.24ZM289.447 64H291.567V53.08H289.447V64ZM290.487 51.3L292.087 49.7L290.487 48.1L288.907 49.7L290.487 51.3ZM297.161 64.24C299.201 64.24 301.681 63.48 301.681 61C301.681 57.3 296.221 58 296.221 55.82C296.221 55.08 296.801 54.5 298.181 54.5C299.021 54.5 299.981 54.68 300.721 54.94L301.141 53.36C300.261 53 299.101 52.8 298.161 52.8C295.981 52.8 294.161 53.86 294.161 55.98C294.161 59.66 299.661 59 299.661 61.1C299.661 61.96 298.841 62.52 297.261 62.52C296.381 62.52 295.321 62.34 294.241 62.08L293.941 63.76C294.821 64.04 296.161 64.24 297.161 64.24ZM316.478 60.18C316.478 58.1 314.898 56.9 313.398 56.44C314.418 56.08 315.778 55.02 315.778 53.08C315.778 50.82 314.018 49.7 311.678 49.7C310.318 49.7 309.298 50 308.518 50.38L309.118 51.88C309.118 51.88 310.218 51.46 311.558 51.46C312.798 51.46 313.758 51.96 313.758 53.32C313.758 54.82 312.478 55.72 310.598 55.86V57.46C313.018 57.6 314.378 58.44 314.378 60.18C314.378 62.04 313.018 62.38 311.418 62.38C310.078 62.38 308.998 62.12 308.398 61.94L307.958 63.66C307.958 63.66 309.218 64.18 311.618 64.18C314.238 64.18 316.478 63.3 316.478 60.18ZM327.594 64V62.24H320.914C323.894 59.58 326.854 56.82 326.854 53.8C326.854 51.92 326.154 49.7 322.534 49.7C320.474 49.7 319.414 50.3 318.714 50.76L319.434 52.24C319.894 52 320.814 51.48 322.334 51.48C323.854 51.48 324.734 52.08 324.734 53.98C324.734 56.72 319.034 61.66 318.254 62.42V64H327.594ZM22.9238 100.4H25.0038V96.06C25.4838 96.12 26.2238 96.22 26.9038 96.22C29.8438 96.22 32.4838 94.72 32.4838 90.26C32.4838 86.62 30.7238 84.82 28.1438 84.82C26.8038 84.82 25.9438 85.28 25.0038 85.94V85.08H22.9238V100.4ZM26.8638 94.54C26.1238 94.54 25.2638 94.38 25.0038 94.34V87.42C25.5638 87.12 26.4238 86.6 27.5638 86.6C29.6638 86.6 30.3638 88.38 30.3638 90.36C30.3638 92.8 29.3638 94.54 26.8638 94.54ZM35.0331 96H37.1531V85.08H35.0331V96ZM36.0731 83.3L37.6731 81.7L36.0731 80.1L34.4931 81.7L36.0731 83.3ZM39.0666 96H41.5266L44.1066 91.8L46.6666 96H49.1866L45.2866 90.38L48.8866 85.08H46.5266L44.1266 89.04L41.7266 85.08H39.3066L42.9266 90.42L39.0666 96ZM55.7302 96.24C57.1502 96.24 58.4502 96 59.4102 95.64L59.0502 94.02C57.9702 94.34 57.0902 94.5 56.0502 94.5C54.1302 94.5 52.4902 93.92 52.4702 91.04H59.6502V90.3C59.6502 86.74 58.3702 84.8 55.3102 84.8C52.5702 84.8 50.3702 86.42 50.3702 90.74C50.3702 94.96 52.4702 96.24 55.7302 96.24ZM52.5302 89.58C52.6702 87.44 53.7502 86.38 55.1902 86.38C56.7902 86.38 57.4902 87.64 57.4902 89.58H52.5302ZM62.1425 96H64.2425V80.92H62.1425V96ZM69.8364 96.24C71.8764 96.24 74.3564 95.48 74.3564 93C74.3564 89.3 68.8964 90 68.8964 87.82C68.8964 87.08 69.4764 86.5 70.8564 86.5C71.6964 86.5 72.6564 86.68 73.3964 86.94L73.8164 85.36C72.9364 85 71.7764 84.8 70.8364 84.8C68.6564 84.8 66.8364 85.86 66.8364 87.98C66.8364 91.66 72.3364 91 72.3364 93.1C72.3364 93.96 71.5164 94.52 69.9364 94.52C69.0564 94.52 67.9964 94.34 66.9164 94.08L66.6164 95.76C67.4964 96.04 68.8364 96.24 69.8364 96.24ZM86.5742 97.86C84.4142 95.8 82.9342 92.8 82.9342 89C82.9342 84.78 84.6942 82.18 86.6142 80.5L85.5142 79.38C83.1742 80.98 80.9942 84.22 80.9942 89.02C80.9942 93.82 83.0742 97.04 85.5142 99.04L86.5742 97.86ZM97.2622 96V94.24H90.5822C93.5622 91.58 96.5222 88.82 96.5222 85.8C96.5222 83.92 95.8222 81.7 92.2022 81.7C90.1422 81.7 89.0822 82.3 88.3822 82.76L89.1022 84.24C89.5622 84 90.4822 83.48 92.0022 83.48C93.5222 83.48 94.4022 84.08 94.4022 85.98C94.4022 88.72 88.7022 93.66 87.9222 94.42V96H97.2622ZM99.662 96H101.762V88.16C102.242 87.44 103.242 86.64 104.482 86.64C105.102 86.64 105.382 86.68 105.822 86.78L106.122 85.02C105.862 84.94 105.422 84.84 104.782 84.84C103.342 84.84 102.262 85.76 101.762 86.54V85.08H99.662V96ZM112.527 96.24C113.947 96.24 115.247 96 116.207 95.64L115.847 94.02C114.767 94.34 113.887 94.5 112.847 94.5C110.927 94.5 109.287 93.92 109.267 91.04H116.447V90.3C116.447 86.74 115.167 84.8 112.107 84.8C109.367 84.8 107.167 86.42 107.167 90.74C107.167 94.96 109.267 96.24 112.527 96.24ZM109.327 89.58C109.467 87.44 110.547 86.38 111.987 86.38C113.587 86.38 114.287 87.64 114.287 89.58H109.327ZM118.939 96H121.039V87.8C121.879 87.16 122.959 86.64 124.019 86.64C125.599 86.64 125.879 87.68 125.879 89.32V96H127.959V89C127.959 88.6 127.919 88.16 127.859 87.76C128.719 87.18 129.759 86.64 130.859 86.64C132.519 86.64 132.799 87.72 132.799 89.32V96H134.899V89.02C134.899 87.18 134.759 84.82 131.499 84.82C129.839 84.82 128.519 85.7 127.579 86.44C127.199 85.5 126.159 84.82 124.659 84.82C123.219 84.82 122.059 85.52 121.039 86.32V85.08H118.939V96ZM137.963 99.04C140.423 97.04 142.503 93.82 142.503 89.02C142.503 84.22 140.303 80.98 137.983 79.38L136.883 80.5C138.803 82.18 140.543 84.78 140.543 89C140.543 92.8 139.063 95.8 136.923 97.86L137.963 99.04Z" fill="black"/>
</svg>
