<svg viewBox="0 0 24 24" fill="none" xmlns="http://www.w3.org/2000/svg"><g clip-path="url(#clip0)" fill-rule="evenodd" clip-rule="evenodd" fill="#000"><path d="M9.28 15.78a.75.75 0 1 0-1.06-1.06L1.5 21.44v-3.19a.75.75 0 0 0-1.5 0v5a.748.748 0 0 0 .75.75h5a.75.75 0 0 0 0-1.5H2.56l6.72-6.72zM23.943.463A.748.748 0 0 0 23.25 0h-5a.75.75 0 0 0 0 1.5h3.19l-6.72 6.72a.75.75 0 0 0 1.06 1.06l6.72-6.72v3.19a.75.75 0 0 0 1.5 0v-5a.747.747 0 0 0-.057-.287zM.463.057A.748.748 0 0 0 0 .75v5a.75.75 0 0 0 1.5 0V2.56l6.72 6.72a.75.75 0 0 0 1.06-1.06L2.56 1.5h3.19a.75.75 0 0 0 0-1.5h-5a.748.748 0 0 0-.287.057zM15.78 14.72a.75.75 0 1 0-1.06 1.06l6.72 6.72h-3.19a.75.75 0 0 0 0 1.5h5a.747.747 0 0 0 .75-.75v-5a.75.75 0 0 0-1.5 0v3.19l-6.72-6.72z"/></g><defs><clipPath id="clip0"><path fill="#fff" d="M0 0h24v24H0z"/></clipPath></defs></svg>