<svg width="24" height="25" viewBox="0 0 24 25" fill="none" xmlns="http://www.w3.org/2000/svg"><path fill-rule="evenodd" clip-rule="evenodd" d="M3 0a3 3 0 1 0 0 6 3 3 0 0 0 0-6zM1.5 3a1.5 1.5 0 1 1 3 0 1.5 1.5 0 0 1-3 0zM3 9a3 3 0 1 0 0 6 3 3 0 0 0 0-6zm-1.5 3a1.5 1.5 0 1 1 3 0 1.5 1.5 0 0 1-3 0zM0 21a3 3 0 1 1 6 0 3 3 0 0 1-6 0zm3-1.5a1.5 1.5 0 1 0 0 3 1.5 1.5 0 0 0 0-3zM8.25 2.252a.75.75 0 0 0 0 1.5h15a.75.75 0 0 0 0-1.5h-15zm-.75 9.75a.75.75 0 0 1 .75-.75h15a.75.75 0 0 1 0 1.5h-15a.75.75 0 0 1-.75-.75zm.75 8.25a.75.75 0 0 0 0 1.5h15a.75.75 0 0 0 0-1.5h-15z" fill="#000"/></svg>