<?xml version="1.0" encoding="utf-8"?>
<svg version="1.1" xmlns="http://www.w3.org/2000/svg" xmlns:xlink="http://www.w3.org/1999/xlink" x="0px" y="0px"
	 viewBox="0 0 24 24" style="enable-background:new 0 0 24 24;" xml:space="preserve">
<path d="M9.1,18.9V8.4c0-0.1,0-0.2,0.1-0.2c0,0,0,0,0.1,0c0.1,0,0.1,0,0.2,0.1l4.7,6V5.1h0.7v10.5c0,0.1,0,0.2-0.1,0.2
	c0,0,0,0-0.1,0c-0.1,0-0.1,0-0.2-0.1L9.8,9.8v9.1H9.1z M16.8,15.8c-0.1,0-0.2-0.1-0.2-0.2l0,0V8.4c0-0.1,0.1-0.2,0.2-0.2l0,0H19
	c0.8,0,1.3,0.1,1.7,0.4c0.5,0.3,0.7,0.9,0.7,1.6c0,0.6-0.2,1.1-0.6,1.5l0,0l0,0c0.1,0.1,0.3,0.1,0.4,0.2c0.5,0.4,0.7,0.9,0.7,1.5
	c0,0.4-0.1,0.7-0.2,1.1c-0.1,0.3-0.3,0.5-0.6,0.7c-0.6,0.4-1.2,0.5-1.9,0.5H16.8z M17.3,15.1h2c2,0,2-1.2,2-1.6
	c0-0.8-0.7-1.4-1.7-1.4h-2.3L17.3,15.1L17.3,15.1z M17.3,11.5h2.3c0.3,0,1.2-0.1,1.2-1.2c0-0.6-0.2-0.9-0.4-1
	C19.9,9,19.5,8.9,19,8.9h-1.7L17.3,11.5L17.3,11.5z M2.2,15.8c-0.1,0-0.2-0.1-0.2-0.2l0,0V8.4c0-0.1,0.1-0.2,0.2-0.2l0,0h2.1
	c0.5,0,0.9,0.1,1.3,0.2c0.5,0.2,0.9,0.5,1.2,0.9c0.8,0.9,0.8,2.2,0.8,2.7c0,0.6-0.1,1.7-0.8,2.6c-0.3,0.4-0.7,0.7-1.2,0.9
	c-0.4,0.2-0.9,0.2-1.3,0.2H2.2z M2.7,15.1h1.6c0.8,0,1.5-0.3,2-0.9C6.9,13.5,7,12.5,7,12c0-0.3,0-1.5-0.7-2.3
	c-0.5-0.6-1.2-0.9-2-0.9H2.7V15.1z"/>
</svg>
