<svg width="16" height="16" viewBox="0 0 16 16" fill="none" xmlns="http://www.w3.org/2000/svg">
<path d="M14.9998 7.99074C14.9071 7.9145 14.8067 7.84815 14.7003 7.79275L14.6714 7.77833L14.6966 7.75661C14.8482 7.61539 14.967 7.44251 15.0445 7.25021C15.122 7.05791 15.1564 6.85089 15.1452 6.64381C15.1442 6.10218 14.9596 5.69806 14.5915 5.44235C14.2811 5.22252 13.8519 5.11504 13.2788 5.11606L11.635 5.11902C11.5893 5.11972 11.5457 5.13825 11.5134 5.17068C11.4812 5.20311 11.4628 5.24688 11.4623 5.29265L11.472 10.6909C11.4721 10.7369 11.4904 10.781 11.5229 10.8134C11.5554 10.8458 11.5994 10.864 11.6453 10.8639L13.5234 10.8606C14.1146 10.8595 14.5902 10.7322 14.9322 10.4825C15.1284 10.3403 15.2845 10.1496 15.3854 9.92912C15.4971 9.6807 15.552 9.41045 15.5462 9.13807C15.5476 8.9179 15.4991 8.70029 15.4045 8.50157C15.3099 8.30285 15.1715 8.1282 14.9998 7.99074ZM11.9965 5.65647L13.2798 5.65416C13.734 5.65334 14.0694 5.72855 14.2859 5.8798C14.423 5.97705 14.6108 6.1645 14.6117 6.64475C14.6132 7.5041 13.9357 7.57391 13.7302 7.57426L11.9999 7.57738L11.9965 5.65647ZM13.5225 10.3262L12.0048 10.3289L12.0009 8.11178L13.7312 8.10868C14.481 8.10733 15.008 8.53235 15.0091 9.13904C15.0096 9.43154 15.0112 10.3235 13.5225 10.3262Z" fill="black"/>
<path d="M4.10256 5.98839C3.86076 5.69405 3.54931 5.46496 3.19656 5.32198C2.87475 5.19666 2.53215 5.13357 2.18689 5.13603L0.626033 5.13884C0.579762 5.13975 0.535707 5.15886 0.503388 5.19204C0.471068 5.22522 0.45308 5.26981 0.45331 5.31616L0.462995 10.7108C0.46309 10.7568 0.481405 10.8008 0.513913 10.8332C0.546422 10.8657 0.590462 10.8839 0.63635 10.8838L2.19719 10.881C2.54263 10.884 2.88534 10.8196 3.20619 10.6914C3.55895 10.5498 3.86992 10.3205 4.10979 10.0252C4.66013 9.34545 4.7415 8.48948 4.74069 8.03812C4.73999 7.65553 4.67698 6.69137 4.10256 5.98839ZM3.69466 9.68657C3.51052 9.90237 3.28016 10.0738 3.02073 10.1881C2.7613 10.3023 2.47947 10.3565 2.19624 10.3466L0.999445 10.3487L0.991074 5.67628L2.18785 5.67414C2.47115 5.66226 2.75344 5.71499 3.01342 5.82836C3.2734 5.94172 3.50428 6.11275 3.68864 6.32854C4.16552 6.91269 4.20312 7.78642 4.20358 8.03908C4.20426 8.41832 4.14065 9.13691 3.69466 9.68657Z" fill="black"/>
<path d="M10.1709 2.7998L10.1851 10.7294C10.1859 10.7639 10.1754 10.7977 10.1553 10.8257C10.1352 10.8537 10.1065 10.8745 10.0737 10.8848C10.0578 10.8918 10.0406 10.8956 10.0232 10.8958C9.99713 10.8958 9.9714 10.8896 9.94819 10.8777C9.92497 10.8658 9.90493 10.8485 9.88972 10.8273L6.35255 6.33098L6.36488 13.1988L5.82777 13.1998L5.81351 5.25221C5.81351 5.21737 5.8247 5.18346 5.84542 5.15548C5.86615 5.12751 5.89531 5.10695 5.92859 5.09686C5.94465 5.09065 5.96189 5.08815 5.97904 5.08954C6.00478 5.0892 6.03024 5.09486 6.05341 5.10608C6.07658 5.1173 6.09683 5.13377 6.11254 5.15419L9.64969 9.65417L9.63739 2.80076L10.1709 2.7998Z" fill="black"/>
<path d="M14.9998 7.99074C14.9071 7.9145 14.8067 7.84815 14.7003 7.79275L14.6714 7.77833L14.6966 7.75661C14.8482 7.61539 14.967 7.44251 15.0445 7.25021C15.122 7.05791 15.1564 6.85089 15.1452 6.64381C15.1442 6.10218 14.9596 5.69806 14.5915 5.44235C14.2811 5.22252 13.8519 5.11504 13.2788 5.11606L11.635 5.11902C11.5893 5.11972 11.5457 5.13825 11.5134 5.17068C11.4812 5.20311 11.4628 5.24688 11.4623 5.29265L11.472 10.6909C11.4721 10.7369 11.4904 10.781 11.5229 10.8134C11.5554 10.8458 11.5994 10.864 11.6453 10.8639L13.5234 10.8606C14.1146 10.8595 14.5902 10.7322 14.9322 10.4825C15.1284 10.3403 15.2845 10.1496 15.3854 9.92912C15.4971 9.6807 15.552 9.41045 15.5462 9.13807C15.5476 8.9179 15.4991 8.70029 15.4045 8.50157C15.3099 8.30285 15.1715 8.1282 14.9998 7.99074ZM11.9965 5.65647L13.2798 5.65416C13.734 5.65334 14.0694 5.72855 14.2859 5.8798C14.423 5.97705 14.6108 6.1645 14.6117 6.64475C14.6132 7.5041 13.9357 7.57391 13.7302 7.57426L11.9999 7.57738L11.9965 5.65647ZM13.5225 10.3262L12.0048 10.3289L12.0009 8.11178L13.7312 8.10868C14.481 8.10733 15.008 8.53235 15.0091 9.13904C15.0096 9.43154 15.0112 10.3235 13.5225 10.3262Z" stroke="black" stroke-width="0.5"/>
<path d="M4.10256 5.98839C3.86076 5.69405 3.54931 5.46496 3.19656 5.32198C2.87475 5.19666 2.53215 5.13357 2.18689 5.13603L0.626033 5.13884C0.579762 5.13975 0.535707 5.15886 0.503388 5.19204C0.471068 5.22522 0.45308 5.26981 0.45331 5.31616L0.462995 10.7108C0.46309 10.7568 0.481405 10.8008 0.513913 10.8332C0.546422 10.8657 0.590462 10.8839 0.63635 10.8838L2.19719 10.881C2.54263 10.884 2.88534 10.8196 3.20619 10.6914C3.55895 10.5498 3.86992 10.3205 4.10979 10.0252C4.66013 9.34545 4.7415 8.48948 4.74069 8.03812C4.73999 7.65553 4.67698 6.69137 4.10256 5.98839ZM3.69466 9.68657C3.51052 9.90237 3.28016 10.0738 3.02073 10.1881C2.7613 10.3023 2.47947 10.3565 2.19624 10.3466L0.999445 10.3487L0.991074 5.67628L2.18785 5.67414C2.47115 5.66226 2.75344 5.71499 3.01342 5.82836C3.2734 5.94172 3.50428 6.11275 3.68864 6.32854C4.16552 6.91269 4.20312 7.78642 4.20358 8.03908C4.20426 8.41832 4.14065 9.13691 3.69466 9.68657Z" stroke="black" stroke-width="0.5"/>
<path d="M10.1709 2.7998L10.1851 10.7294C10.1859 10.7639 10.1754 10.7977 10.1553 10.8257C10.1352 10.8537 10.1065 10.8745 10.0737 10.8848C10.0578 10.8918 10.0406 10.8956 10.0232 10.8958C9.99713 10.8958 9.9714 10.8896 9.94819 10.8777C9.92497 10.8658 9.90493 10.8485 9.88972 10.8273L6.35255 6.33098L6.36488 13.1988L5.82777 13.1998L5.81351 5.25221C5.81351 5.21737 5.8247 5.18346 5.84542 5.15548C5.86615 5.12751 5.89531 5.10695 5.92859 5.09686C5.94465 5.09065 5.96189 5.08815 5.97904 5.08954C6.00478 5.0892 6.03024 5.09486 6.05341 5.10608C6.07658 5.1173 6.09683 5.13377 6.11254 5.15419L9.64969 9.65417L9.63739 2.80076L10.1709 2.7998Z" stroke="black" stroke-width="0.5"/>
</svg>
