<svg width="792" height="216" viewBox="0 0 792 216" fill="none" xmlns="http://www.w3.org/2000/svg">
<rect width="792" height="216" fill="white"/>
<rect width="792" height="216" fill="#f4fbf9"/>
<path d="M57.168 80H60.624V70.592H70.512V67.904H60.624V60.128H71.216V57.376H57.168V80ZM75.1218 80H78.5138V62.528H75.1218V80ZM76.7858 59.68L79.3458 57.12L76.7858 54.56L74.2578 57.12L76.7858 59.68ZM83.5593 80H86.9193V66.816C88.2953 65.888 89.9593 64.992 92.0393 64.992C94.6313 64.992 95.1433 66.464 95.1433 69.312V80H98.4393V68.832C98.4393 65.632 98.0553 62.08 93.1273 62.08C90.4073 62.08 88.6793 63.168 86.9193 64.448V62.528H83.5593V80ZM107.405 80.288C110.189 80.288 111.981 78.912 113.069 78.08C113.389 79.648 115.149 80.192 116.941 80.192C117.165 80.192 117.517 80.16 117.741 80.128L117.869 77.568C116.972 77.536 116.045 77.312 116.045 76.224V67.104C116.045 63.552 113.741 62.08 109.549 62.08C106.989 62.08 105.036 62.592 103.405 63.264L104.109 65.792C105.613 65.28 107.149 64.96 109.005 64.96C111.565 64.96 112.781 65.6 112.781 68V69.888L108.973 69.952C105.933 69.984 102.029 70.88 102.029 75.296C102.029 78.528 104.173 80.288 107.405 80.288ZM108.269 77.632C106.573 77.632 105.293 76.832 105.293 75.072C105.293 73.28 106.669 72.256 109.069 72.192L112.781 72.032V76.064C111.533 76.864 109.837 77.632 108.269 77.632ZM121.403 80H124.763V66.816C126.139 65.888 127.803 64.992 129.883 64.992C132.475 64.992 132.987 66.464 132.987 69.312V80H136.283V68.832C136.283 65.632 135.899 62.08 130.971 62.08C128.251 62.08 126.523 63.168 124.763 64.448V62.528H121.403V80ZM145.088 80.384C148.352 80.384 152.32 79.168 152.32 75.2C152.32 69.28 143.584 70.4 143.584 66.912C143.584 65.728 144.512 64.8 146.72 64.8C148.064 64.8 149.6 65.088 150.784 65.504L151.456 62.976C150.048 62.4 148.192 62.08 146.688 62.08C143.2 62.08 140.288 63.776 140.288 67.168C140.288 73.056 149.088 72 149.088 75.36C149.088 76.736 147.776 77.632 145.248 77.632C143.84 77.632 142.144 77.344 140.416 76.928L139.936 79.616C141.344 80.064 143.488 80.384 145.088 80.384ZM156.028 80H159.42V62.528H156.028V80ZM157.692 59.68L160.252 57.12L157.692 54.56L155.164 57.12L157.692 59.68ZM172.05 80.384C174.322 80.384 176.402 80 177.938 79.424L177.362 76.832C175.634 77.344 174.226 77.6 172.562 77.6C169.49 77.6 166.866 76.672 166.834 72.064H178.322V70.88C178.322 65.184 176.274 62.08 171.378 62.08C166.994 62.08 163.474 64.672 163.474 71.584C163.474 78.336 166.834 80.384 172.05 80.384ZM166.93 69.728C167.154 66.304 168.882 64.608 171.186 64.608C173.746 64.608 174.866 66.624 174.866 69.728H166.93ZM182.309 80H185.669V67.456C186.437 66.304 188.037 65.024 190.021 65.024C191.013 65.024 191.461 65.088 192.165 65.248L192.645 62.432C192.229 62.304 191.525 62.144 190.501 62.144C188.197 62.144 186.469 63.616 185.669 64.864V62.528H182.309V80ZM195.309 80H198.701V62.528H195.309V80ZM196.973 59.68L199.533 57.12L196.973 54.56L194.445 57.12L196.973 59.68ZM203.747 80H207.107V66.816C208.483 65.888 210.147 64.992 212.227 64.992C214.819 64.992 215.331 66.464 215.331 69.312V80H218.627V68.832C218.627 65.632 218.243 62.08 213.315 62.08C210.595 62.08 208.867 63.168 207.107 64.448V62.528H203.747V80ZM229.608 87.36C234.184 87.36 237.576 85.312 237.576 80.8V62.88C235.592 62.368 233.288 62.08 231.624 62.08C226.408 62.08 222.536 64.864 222.536 71.712C222.536 78.912 226.76 80.224 230.312 80.224C232.2 80.224 233.096 79.808 234.28 78.944V80.256C234.28 83.648 232.264 84.416 229.768 84.416C228.008 84.416 226.12 84.032 224.424 83.488L223.816 86.368C225.288 87.008 227.784 87.36 229.608 87.36ZM230.792 77.6C227.72 77.6 225.832 75.968 225.832 71.488C225.832 67.584 227.272 64.928 231.368 64.928C232.712 64.928 233.768 65.216 234.248 65.344V76.416C233.352 77.024 232.296 77.6 230.792 77.6ZM246.463 80.384C249.727 80.384 253.695 79.168 253.695 75.2C253.695 69.28 244.959 70.4 244.959 66.912C244.959 65.728 245.887 64.8 248.095 64.8C249.439 64.8 250.975 65.088 252.159 65.504L252.831 62.976C251.423 62.4 249.567 62.08 248.063 62.08C244.575 62.08 241.663 63.776 241.663 67.168C241.663 73.056 250.463 72 250.463 75.36C250.463 76.736 249.151 77.632 246.623 77.632C245.215 77.632 243.519 77.344 241.791 76.928L241.311 79.616C242.719 80.064 244.863 80.384 246.463 80.384ZM263.227 80.384C268.443 80.384 272.571 77.856 272.571 70.656C272.571 64.864 269.851 62.176 265.179 62.176C263.515 62.176 262.427 62.496 261.435 63.008L261.595 65.344C262.459 65.024 263.387 64.8 264.539 64.8C268.219 64.8 269.147 67.424 269.147 70.496C269.147 74.72 267.419 77.632 263.739 77.632C262.523 77.632 261.275 77.344 260.603 77.184V55.872H257.275V79.36C258.747 79.872 260.955 80.384 263.227 80.384ZM284.206 80.384C286.478 80.384 288.558 80 290.094 79.424L289.518 76.832C287.79 77.344 286.382 77.6 284.718 77.6C281.646 77.6 279.022 76.672 278.99 72.064H290.478V70.88C290.478 65.184 288.43 62.08 283.534 62.08C279.15 62.08 275.63 64.672 275.63 71.584C275.63 78.336 278.99 80.384 284.206 80.384ZM279.086 69.728C279.31 66.304 281.038 64.608 283.342 64.608C285.902 64.608 287.022 66.624 287.022 69.728H279.086ZM298.274 80H302.562L309.026 62.528H305.538L301.666 73.728L300.482 77.44L299.426 73.792L295.97 62.528H292.354L298.274 80ZM311.747 80H315.139V62.528H311.747V80ZM313.411 59.68L315.971 57.12L313.411 54.56L310.883 57.12L313.411 59.68ZM324.088 80.384C327.352 80.384 331.32 79.168 331.32 75.2C331.32 69.28 322.584 70.4 322.584 66.912C322.584 65.728 323.512 64.8 325.72 64.8C327.064 64.8 328.6 65.088 329.784 65.504L330.456 62.976C329.048 62.4 327.192 62.08 325.688 62.08C322.2 62.08 319.288 63.776 319.288 67.168C319.288 73.056 328.088 72 328.088 75.36C328.088 76.736 326.776 77.632 324.248 77.632C322.84 77.632 321.144 77.344 319.416 76.928L318.936 79.616C320.344 80.064 322.488 80.384 324.088 80.384Z" fill="#14555A"/>
<path d="M213.888 151V149.896H208.208C210.832 147.496 213.184 145.192 213.184 142.744C213.184 141.272 212.656 139.56 209.936 139.56C208.352 139.56 207.44 140.12 206.96 140.44L207.456 141.352C207.728 141.192 208.544 140.68 209.824 140.68C211.152 140.68 211.904 141.192 211.904 142.888C211.904 145.352 206.96 149.56 206.576 149.96V151H213.888ZM215.651 151H217.171V149.496H215.651V151ZM224.134 151H230.838V149.912H225.446V145.864H230.118V144.776H225.446V140.76H230.47V139.688H224.134V151ZM235.99 154.68C238.262 154.68 239.702 153.656 239.702 151.528V142.408C238.838 142.2 237.75 142.04 236.934 142.04C234.438 142.04 232.614 143.416 232.614 146.824C232.614 150.488 234.694 151.112 236.342 151.112C237.334 151.112 237.846 150.872 238.47 150.376V151.256C238.47 153.128 237.366 153.544 236.086 153.544C235.158 153.544 234.278 153.336 233.526 153.08L233.27 154.2C233.926 154.488 235.046 154.68 235.99 154.68ZM236.47 150.088C234.854 150.088 233.862 149.144 233.862 146.744C233.862 144.664 234.598 143.144 236.854 143.144C237.638 143.144 238.23 143.32 238.454 143.384V149.304C237.974 149.688 237.43 150.088 236.47 150.088ZM246.039 151.192C247.143 151.192 248.135 151 248.791 150.728L248.567 149.704C247.751 149.96 247.095 150.104 246.247 150.104C244.583 150.104 243.207 149.576 243.175 146.872H248.935V146.408C248.935 143.496 247.927 142.04 245.703 142.04C243.575 142.04 241.895 143.4 241.895 146.808C241.895 150.136 243.495 151.192 246.039 151.192ZM243.191 145.928C243.335 143.976 244.311 143.032 245.575 143.032C246.999 143.032 247.623 144.152 247.623 145.928H243.191ZM251.11 151H252.374V144.232C253.158 143.688 254.054 143.16 255.174 143.16C256.662 143.16 256.902 144.104 256.902 145.608V151H258.134V145.368C258.134 143.896 257.974 142.04 255.494 142.04C254.134 142.04 253.286 142.584 252.374 143.256V142.264H251.11V151ZM267.439 151.128L267.711 150.184C267.167 150.04 266.367 149.528 265.567 148.552L263.775 146.344L267.487 142.264H266.031L262.351 146.392L264.815 149.512C265.935 150.92 266.847 151.096 267.439 151.128ZM260.735 151H261.999V138.936H260.735V151ZM271.28 151.144C272.784 151.144 273.76 150.328 274.192 149.992C274.304 150.776 275.104 151.096 275.872 151.096C275.984 151.096 276.144 151.08 276.224 151.064L276.272 150.088C275.856 150.088 275.328 149.944 275.328 149.288V144.456C275.328 142.744 274.16 142.04 272.24 142.04C271.056 142.04 270.08 142.296 269.408 142.584L269.696 143.576C270.416 143.304 271.12 143.144 272.064 143.144C273.44 143.144 274.096 143.48 274.096 144.872V145.992L272.016 146.024C270.592 146.056 268.672 146.504 268.672 148.68C268.672 150.264 269.696 151.144 271.28 151.144ZM271.568 150.12C270.608 150.12 269.888 149.64 269.888 148.632C269.888 147.608 270.64 147 272 146.952L274.096 146.872V149.144C273.44 149.624 272.528 150.12 271.568 150.12ZM278.157 154.52H279.421V151.032C279.821 151.096 280.525 151.176 281.085 151.176C283.389 151.176 285.389 150.008 285.389 146.488C285.389 143.64 284.077 142.072 281.981 142.072C280.909 142.072 280.189 142.456 279.421 142.984V142.264H278.157V154.52ZM281.069 150.12C280.381 150.12 279.677 149.976 279.421 149.944V143.992C279.885 143.688 280.685 143.16 281.725 143.16C283.597 143.16 284.109 144.952 284.109 146.568C284.109 148.632 283.293 150.12 281.069 150.12ZM287.594 151H288.874V142.264H287.594V151ZM288.218 140.632L289.29 139.56L288.218 138.504L287.178 139.56L288.218 140.632ZM294.554 151.192C295.146 151.192 295.962 151.032 296.41 150.872L296.186 149.832C295.818 149.96 295.194 150.088 294.714 150.088C293.706 150.088 293.146 149.752 293.146 148.52V143.336H295.866V142.264H293.13V140.472H291.898V142.264H290.618V143.336H291.898V148.568C291.898 150.632 292.922 151.192 294.554 151.192ZM299.905 151.144C301.409 151.144 302.385 150.328 302.817 149.992C302.929 150.776 303.729 151.096 304.497 151.096C304.609 151.096 304.769 151.08 304.849 151.064L304.897 150.088C304.481 150.088 303.953 149.944 303.953 149.288V144.456C303.953 142.744 302.785 142.04 300.865 142.04C299.681 142.04 298.705 142.296 298.033 142.584L298.321 143.576C299.041 143.304 299.745 143.144 300.689 143.144C302.065 143.144 302.721 143.48 302.721 144.872V145.992L300.641 146.024C299.217 146.056 297.297 146.504 297.297 148.68C297.297 150.264 298.321 151.144 299.905 151.144ZM300.193 150.12C299.233 150.12 298.513 149.64 298.513 148.632C298.513 147.608 299.265 147 300.625 146.952L302.721 146.872V149.144C302.065 149.624 301.153 150.12 300.193 150.12ZM306.782 151H308.046V138.936H306.782V151ZM314.907 151H316.187V142.264H314.907V151ZM315.531 140.632L316.603 139.56L315.531 138.504L314.491 139.56L315.531 140.632ZM325.783 151.192C328.279 151.192 330.247 149.928 330.247 146.376C330.247 143.56 328.999 142.104 326.679 142.104C326.007 142.104 325.495 142.216 325.175 142.392L325.287 143.32C325.623 143.208 326.023 143.128 326.487 143.128C328.519 143.128 328.951 144.776 328.951 146.312C328.951 148.552 328.055 150.12 326.007 150.12C325.335 150.12 324.615 149.96 324.263 149.864V138.936H323.015V150.712C323.719 150.968 324.759 151.192 325.783 151.192ZM335.845 151.192C338.133 151.192 339.829 149.736 339.829 146.584C339.829 143.704 338.501 142.04 336.021 142.04C333.589 142.04 331.957 143.704 331.957 146.728C331.957 149.592 333.445 151.192 335.845 151.192ZM335.925 150.152C333.877 150.152 333.237 148.456 333.237 146.664C333.237 145 333.781 143.08 335.925 143.08C338.069 143.08 338.549 145.016 338.549 146.664C338.549 148.376 338.037 150.152 335.925 150.152ZM342.016 151H343.28V138.936H342.016V151ZM345.969 151H347.249V142.264H345.969V151ZM346.593 140.632L347.665 139.56L346.593 138.504L345.553 139.56L346.593 140.632ZM352.849 154.68C355.121 154.68 356.561 153.656 356.561 151.528V142.408C355.697 142.2 354.609 142.04 353.793 142.04C351.297 142.04 349.473 143.416 349.473 146.824C349.473 150.488 351.553 151.112 353.201 151.112C354.193 151.112 354.705 150.872 355.329 150.376V151.256C355.329 153.128 354.225 153.544 352.945 153.544C352.017 153.544 351.137 153.336 350.385 153.08L350.129 154.2C350.785 154.488 351.905 154.68 352.849 154.68ZM353.329 150.088C351.713 150.088 350.721 149.144 350.721 146.744C350.721 144.664 351.457 143.144 353.713 143.144C354.497 143.144 355.089 143.32 355.313 143.384V149.304C354.833 149.688 354.289 150.088 353.329 150.088Z" fill="#14555A"/>
<path d="M606.672 147.976V146.856H604.72V139.688H602.832L598.464 146.856V147.976H603.456V151H604.72V147.976H606.672ZM603.456 146.856H599.712L603.456 140.648V146.856ZM608.292 151H609.812V149.496H608.292V151ZM616.774 151H619.926C623.702 151 626.15 149.272 626.15 145.304C626.15 141.4 623.478 139.688 619.83 139.688H616.774V151ZM618.086 149.912V140.776H619.782C622.79 140.776 624.79 142.28 624.79 145.48C624.79 148.424 623.03 149.912 620.102 149.912H618.086ZM628.485 151H629.765V142.264H628.485V151ZM629.109 140.632L630.181 139.56L629.109 138.504L628.069 139.56L629.109 140.632ZM632.469 151H633.733V144.232C634.517 143.688 635.413 143.16 636.533 143.16C638.021 143.16 638.261 144.104 638.261 145.608V151H639.493V145.368C639.493 143.896 639.333 142.04 636.853 142.04C635.493 142.04 634.645 142.584 633.733 143.256V142.264H632.469V151ZM645.758 151.192C646.862 151.192 647.854 151 648.51 150.728L648.286 149.704C647.47 149.96 646.814 150.104 645.966 150.104C644.302 150.104 642.926 149.576 642.894 146.872H648.654V146.408C648.654 143.496 647.646 142.04 645.422 142.04C643.294 142.04 641.614 143.4 641.614 146.808C641.614 150.136 643.214 151.192 645.758 151.192ZM642.91 145.928C643.054 143.976 644.03 143.032 645.294 143.032C646.718 143.032 647.342 144.152 647.342 145.928H642.91ZM655 151H656.264V144.296C657.032 143.672 657.944 143.16 658.904 143.16C660.344 143.16 660.552 144.248 660.552 145.608V151H661.8V145.368C661.8 145 661.768 144.6 661.704 144.232C662.472 143.672 663.336 143.176 664.344 143.176C665.88 143.176 666.088 144.248 666.088 145.608V151H667.352V145.368C667.352 143.896 667.176 142.056 664.68 142.056C663.256 142.056 662.264 142.76 661.496 143.352C661.192 142.632 660.376 142.056 659.176 142.056C658.008 142.056 657.112 142.616 656.264 143.288V142.264H655V151ZM672.465 151.192C673.937 151.192 674.801 150.568 675.633 149.976V151H676.849V142.264H675.633V148.952C674.961 149.432 673.937 150.04 672.817 150.04C671.249 150.04 671.137 148.952 671.137 147.576V142.264H669.889V147.832C669.889 149.304 670.065 151.192 672.465 151.192ZM679.532 151H680.796V138.936H679.532V151ZM683.485 151H684.765V142.264H683.485V151ZM684.109 140.632L685.181 139.56L684.109 138.504L683.069 139.56L684.109 140.632ZM690.365 154.68C692.637 154.68 694.077 153.656 694.077 151.528V142.408C693.213 142.2 692.125 142.04 691.309 142.04C688.813 142.04 686.989 143.416 686.989 146.824C686.989 150.488 689.069 151.112 690.717 151.112C691.709 151.112 692.221 150.872 692.845 150.376V151.256C692.845 153.128 691.741 153.544 690.461 153.544C689.533 153.544 688.653 153.336 687.901 153.08L687.645 154.2C688.301 154.488 689.421 154.68 690.365 154.68ZM690.845 150.088C689.229 150.088 688.237 149.144 688.237 146.744C688.237 144.664 688.973 143.144 691.229 143.144C692.013 143.144 692.605 143.32 692.829 143.384V149.304C692.349 149.688 691.805 150.088 690.845 150.088ZM696.75 151H698.014V144.248C698.766 143.768 699.71 143.176 700.83 143.176C702.286 143.176 702.542 144.104 702.542 145.624V151H703.758V145.368C703.758 143.912 703.614 142.056 701.118 142.056C699.726 142.056 698.734 142.744 698.014 143.272V138.936H696.75V151ZM710.039 151.192C711.143 151.192 712.135 151 712.791 150.728L712.567 149.704C711.751 149.96 711.095 150.104 710.247 150.104C708.583 150.104 707.207 149.576 707.175 146.872H712.935V146.408C712.935 143.496 711.927 142.04 709.703 142.04C707.575 142.04 705.895 143.4 705.895 146.808C705.895 150.136 707.495 151.192 710.039 151.192ZM707.191 145.928C707.335 143.976 708.311 143.032 709.575 143.032C710.999 143.032 711.623 144.152 711.623 145.928H707.191ZM718.086 151.192C718.678 151.192 719.494 151.032 719.942 150.872L719.718 149.832C719.35 149.96 718.726 150.088 718.246 150.088C717.238 150.088 716.678 149.752 716.678 148.52V143.336H719.398V142.264H716.662V140.472H715.43V142.264H714.15V143.336H715.43V148.568C715.43 150.632 716.454 151.192 718.086 151.192ZM725.149 151.192C726.253 151.192 727.245 151 727.901 150.728L727.677 149.704C726.861 149.96 726.205 150.104 725.357 150.104C723.693 150.104 722.317 149.576 722.285 146.872H728.045V146.408C728.045 143.496 727.037 142.04 724.813 142.04C722.685 142.04 721.005 143.4 721.005 146.808C721.005 150.136 722.605 151.192 725.149 151.192ZM722.301 145.928C722.445 143.976 723.421 143.032 724.685 143.032C726.109 143.032 726.733 144.152 726.733 145.928H722.301ZM730.219 151H731.483V144.568C731.899 143.928 732.699 143.176 733.755 143.176C734.267 143.176 734.523 143.224 734.795 143.288L735.003 142.216C734.843 142.168 734.491 142.072 733.979 142.072C732.747 142.072 731.883 142.776 731.483 143.432V142.264H730.219V151Z" fill="#14555A"/>
<path d="M428.264 147.944C428.264 146.28 427 145.32 425.8 144.952C426.616 144.664 427.704 143.816 427.704 142.264C427.704 140.456 426.296 139.56 424.424 139.56C423.336 139.56 422.52 139.8 421.896 140.104L422.376 141.304C422.376 141.304 423.256 140.968 424.328 140.968C425.32 140.968 426.088 141.368 426.088 142.456C426.088 143.656 425.064 144.376 423.56 144.488V145.768C425.496 145.88 426.584 146.552 426.584 147.944C426.584 149.432 425.496 149.704 424.216 149.704C423.144 149.704 422.28 149.496 421.8 149.352L421.448 150.728C421.448 150.728 422.456 151.144 424.376 151.144C426.472 151.144 428.264 150.44 428.264 147.944ZM430.181 151H432.117V149.176H430.181V151ZM438.725 151H442.165C446.037 151 448.485 149.256 448.485 145.304C448.485 141.384 445.797 139.688 442.069 139.688H438.725V151ZM440.453 149.608V141.08H442.021C444.949 141.08 446.725 142.488 446.725 145.48C446.725 148.2 445.189 149.608 442.341 149.608H440.453ZM450.608 151H452.304V142.264H450.608V151ZM451.44 140.84L452.72 139.56L451.44 138.28L450.176 139.56L451.44 140.84ZM454.827 151H456.507V144.408C457.195 143.944 458.027 143.496 459.067 143.496C460.363 143.496 460.619 144.232 460.619 145.656V151H462.267V145.416C462.267 143.816 462.075 142.04 459.611 142.04C458.251 142.04 457.387 142.584 456.507 143.224V142.264H454.827V151ZM472.382 151.192C474.798 151.192 476.574 149.704 476.574 146.6C476.574 145.352 476.318 144.328 475.806 143.56L476.798 142.456L476.174 141.848L475.214 142.904C474.558 142.344 473.678 142.04 472.558 142.04C470.03 142.04 468.35 143.736 468.35 146.728C468.35 147.928 468.622 148.92 469.134 149.656L468.062 150.84L468.686 151.448L469.71 150.312C470.382 150.888 471.278 151.192 472.382 151.192ZM470.03 146.664C470.03 145.064 470.542 143.384 472.478 143.384C473.262 143.384 473.79 143.656 474.158 144.088L470.302 148.376C470.11 147.88 470.03 147.288 470.03 146.664ZM472.494 149.832C471.71 149.832 471.134 149.576 470.75 149.144L474.606 144.872C474.814 145.416 474.878 146.056 474.878 146.664C474.878 148.296 474.398 149.832 472.494 149.832ZM485.836 151.144L486.124 149.896C485.42 149.704 484.7 149.208 483.964 148.312L482.332 146.328L485.884 142.264H484.012L480.508 146.424L482.908 149.496C484.028 150.936 485.02 151.096 485.836 151.144ZM478.78 151H480.46V138.936H478.78V151ZM491.065 151.192C493.481 151.192 495.257 149.704 495.257 146.6C495.257 143.736 493.913 142.04 491.241 142.04C488.713 142.04 487.033 143.736 487.033 146.728C487.033 149.544 488.537 151.192 491.065 151.192ZM491.177 149.832C489.305 149.832 488.713 148.36 488.713 146.664C488.713 145.064 489.225 143.384 491.161 143.384C493.113 143.384 493.561 145.08 493.561 146.664C493.561 148.296 493.081 149.832 491.177 149.832ZM497.28 151H498.96V144.408C499.648 143.944 500.48 143.496 501.52 143.496C502.816 143.496 503.072 144.232 503.072 145.656V151H504.72V145.416C504.72 143.816 504.528 142.04 502.064 142.04C500.704 142.04 499.84 142.584 498.96 143.224V142.264H497.28V151ZM510.69 151.192C513.106 151.192 514.882 149.704 514.882 146.6C514.882 143.736 513.538 142.04 510.866 142.04C508.338 142.04 506.658 143.736 506.658 146.728C506.658 149.544 508.162 151.192 510.69 151.192ZM510.802 149.832C508.93 149.832 508.338 148.36 508.338 146.664C508.338 145.064 508.85 143.384 510.786 143.384C512.738 143.384 513.186 145.08 513.186 146.664C513.186 148.296 512.706 149.832 510.802 149.832ZM516.905 151H518.585V144.44C519.257 143.928 520.121 143.512 520.969 143.512C522.233 143.512 522.457 144.344 522.457 145.656V151H524.121V145.4C524.121 145.08 524.089 144.728 524.041 144.408C524.729 143.944 525.561 143.512 526.441 143.512C527.769 143.512 527.993 144.376 527.993 145.656V151H529.673V145.416C529.673 143.944 529.561 142.056 526.953 142.056C525.625 142.056 524.569 142.76 523.817 143.352C523.513 142.6 522.681 142.056 521.481 142.056C520.329 142.056 519.401 142.616 518.585 143.256V142.264H516.905V151ZM532.123 151H533.819V142.264H532.123V151ZM532.955 140.84L534.235 139.56L532.955 138.28L531.691 139.56L532.955 140.84Z" fill="#14555A"/>
<rect x="421" y="158" width="115" height="2" fill="#FF5400"/>
<path d="M60.776 151V139.688L57.256 139.784V140.776H59.512V151H60.776ZM63.5884 151H65.1084V149.496H63.5884V151ZM74.679 151H76.503L80.983 139.688H79.655L75.623 149.96L72.039 139.688H70.599L74.679 151ZM85.5393 151.192C86.6433 151.192 87.6353 151 88.2913 150.728L88.0673 149.704C87.2513 149.96 86.5953 150.104 85.7473 150.104C84.0833 150.104 82.7073 149.576 82.6753 146.872H88.4353V146.408C88.4353 143.496 87.4273 142.04 85.2033 142.04C83.0753 142.04 81.3953 143.4 81.3953 146.808C81.3953 150.136 82.9953 151.192 85.5393 151.192ZM82.6913 145.928C82.8353 143.976 83.8113 143.032 85.0753 143.032C86.4993 143.032 87.1233 144.152 87.1233 145.928H82.6913ZM90.6096 151H91.8736V138.936H90.6096V151ZM97.4588 154.68C99.7308 154.68 101.171 153.656 101.171 151.528V142.408C100.307 142.2 99.2188 142.04 98.4028 142.04C95.9068 142.04 94.0828 143.416 94.0828 146.824C94.0828 150.488 96.1628 151.112 97.8108 151.112C98.8028 151.112 99.3148 150.872 99.9388 150.376V151.256C99.9388 153.128 98.8348 153.544 97.5548 153.544C96.6268 153.544 95.7468 153.336 94.9948 153.08L94.7388 154.2C95.3948 154.488 96.5148 154.68 97.4588 154.68ZM97.9388 150.088C96.3228 150.088 95.3307 149.144 95.3307 146.744C95.3307 144.664 96.0668 143.144 98.3228 143.144C99.1068 143.144 99.6988 143.32 99.9228 143.384V149.304C99.4428 149.688 98.8988 150.088 97.9388 150.088ZM110.736 151.192C113.232 151.192 115.2 149.928 115.2 146.376C115.2 143.56 113.952 142.104 111.632 142.104C110.96 142.104 110.448 142.216 110.128 142.392L110.24 143.32C110.576 143.208 110.976 143.128 111.44 143.128C113.472 143.128 113.904 144.776 113.904 146.312C113.904 148.552 113.008 150.12 110.96 150.12C110.288 150.12 109.568 149.96 109.216 149.864V138.936H107.968V150.712C108.672 150.968 109.712 151.192 110.736 151.192ZM120.799 151.192C123.087 151.192 124.783 149.736 124.783 146.584C124.783 143.704 123.455 142.04 120.975 142.04C118.543 142.04 116.911 143.704 116.911 146.728C116.911 149.592 118.399 151.192 120.799 151.192ZM120.879 150.152C118.831 150.152 118.191 148.456 118.191 146.664C118.191 145 118.735 143.08 120.879 143.08C123.023 143.08 123.503 145.016 123.503 146.664C123.503 148.376 122.991 150.152 120.879 150.152ZM126.969 151H128.233V138.936H126.969V151ZM130.922 151H132.202V142.264H130.922V151ZM131.546 140.632L132.618 139.56L131.546 138.504L130.506 139.56L131.546 140.632ZM137.803 154.68C140.075 154.68 141.515 153.656 141.515 151.528V142.408C140.651 142.2 139.563 142.04 138.747 142.04C136.251 142.04 134.427 143.416 134.427 146.824C134.427 150.488 136.507 151.112 138.155 151.112C139.147 151.112 139.659 150.872 140.283 150.376V151.256C140.283 153.128 139.179 153.544 137.899 153.544C136.971 153.544 136.091 153.336 135.339 153.08L135.083 154.2C135.739 154.488 136.859 154.68 137.803 154.68ZM138.283 150.088C136.667 150.088 135.674 149.144 135.674 146.744C135.674 144.664 136.411 143.144 138.667 143.144C139.451 143.144 140.043 143.32 140.267 143.384V149.304C139.787 149.688 139.243 150.088 138.283 150.088Z" fill="#14555A"/>
</svg>
