<svg height="600pt" preserveAspectRatio="xMidYMid meet" viewBox="0 0 600 600" width="600pt" xmlns="http://www.w3.org/2000/svg"><g transform="matrix(.1 0 0 -.1 0 600)"><path d="m3523 3570c1-594-1-1080-4-1080-5 0-272 335-391 490-15 19-82 105-150 190-68 86-228 289-356 452-133 169-242 298-254 301-13 4-28-2-42-16l-22-22 3-960c1-528 2-1098 2-1267l1-308h85 86l-3 1085c-2 597-1 1085 2 1085 3-1 46-53 95-116 50-63 100-127 112-142 11-15 110-139 218-277 108-137 208-263 221-280 13-16 128-163 256-325 148-187 240-296 253-298 11-1 29 4 40 12 20 14 20 26 18 873-1 472-3 1044-3 1271v412h-85-85z"/><path d="m4123 3902c-17-12-18-63-18-897 0-872 0-884 20-900 18-13 67-15 400-11 209 2 396 7 415 11 285 57 440 224 457 490 11 185-65 344-210 435-31 19-56 37-57 40 0 3 11 17 23 31 79 84 118 192 118 323-1 255-117 405-364 468-75 19-112 21-424 22-266 1-347-2-360-12zm688-166c124-17 215-67 256-142 33-60 44-177 23-258-26-106-89-167-194-191-32-7-159-11-336-10h-285l-3 302c-3 279-2 302 14 305 30 5 477 1 525-6zm109-778c8-3 31-8 50-12 94-22 189-96 231-183 20-41 24-62 24-143-1-81-5-104-27-152-44-94-114-147-243-184-49-14-116-18-370-21l-310-3-2 342c-1 189-1 348 1 353 4 10 609 12 646 3z"/><path d="m621 3891-22-22 2-871 1-871 22-22c21-21 26-21 336-19 300 2 320 3 411 27 98 26 174 59 244 107 249 172 378 510 341 894-38 403-245 675-583 768-70 19-110 22-405 26-322 4-327 3-347-17zm678-164c209-53 360-185 430-377 48-131 56-193 55-390-1-138-4-165-28-245-36-119-78-196-150-273s-196-151-279-168c-10-2-28-6-40-10s-131-8-265-9c-210-1-243 1-246 15-6 23-7 1450-1 1460 5 9 487 6 524-3z"/></g></svg>