<svg width="1283" height="246" fill="none" xmlns="http://www.w3.org/2000/svg"><path fill="#fff" d="M0 0h1282.55v245.57H0z"/><path d="M1248.56 113.03H205.614l7 .006 1035.946.922" stroke="#CCC" stroke-width="3.5" stroke-linecap="round" stroke-linejoin="round"/><path d="M422.442 43.762c-2.112 0-3.72-.864-4.56-2.448l1.464-1.056c.576 1.2 1.632 1.824 3.096 1.824 1.488 0 2.376-.672 2.376-1.824 0-.912-.576-1.44-1.848-1.752l-1.512-.384c-2.064-.504-3.144-1.656-3.144-3.288 0-2.064 1.632-3.456 4.104-3.456 2.04 0 3.48.84 4.056 2.376l-1.56.912c-.384-1.056-1.224-1.608-2.496-1.608-1.296 0-2.136.672-2.136 1.704 0 .864.528 1.368 1.752 1.68l1.608.384c2.064.528 3.144 1.68 3.144 3.384 0 2.136-1.752 3.552-4.344 3.552Zm19.663-12.384c2.64 0 4.152 1.632 4.152 4.368v7.824h-2.112v-7.68c0-1.848-.888-2.808-2.568-2.808-1.728 0-2.808 1.224-2.808 3.144v7.344h-2.112v-7.68c0-1.848-.888-2.808-2.568-2.808-1.728 0-2.808 1.368-2.808 3.384v7.104h-2.112v-12h1.848v1.944c.648-1.296 1.92-2.136 3.6-2.136 1.896 0 3.12.84 3.648 2.328.624-1.416 2.04-2.328 3.84-2.328Zm16.204 10.056c0 .576.264.792.864.792l-.024 1.344c-.216.12-.576.192-1.032.192-1.08 0-1.776-.744-1.776-1.92-.72 1.152-2.208 1.92-3.864 1.92-2.4 0-3.984-1.344-3.984-3.408s1.416-3.312 4.224-3.744l3.504-.504v-.456c0-1.608-1.08-2.592-2.784-2.592-1.392 0-2.352.6-2.808 1.728l-1.608-.84c.672-1.68 2.232-2.568 4.464-2.568 3.096 0 4.824 1.608 4.824 4.44v5.616Zm-5.568.72c2.136 0 3.48-1.44 3.48-3.672v-.864l-3.024.432c-1.848.264-2.688.96-2.688 2.256 0 1.104.912 1.848 2.232 1.848Zm10.983 1.608c-1.296 0-2.184-.912-2.184-2.4V26.77h2.088v14.472c0 .576.336.792.72.792.168 0 .312-.024.408-.048v1.632c-.168.072-.528.144-1.032.144Zm5.695 0c-1.296 0-2.184-.912-2.184-2.4V26.77h2.088v14.472c0 .576.336.792.72.792.168 0 .312-.024.408-.048v1.632c-.168.072-.528.144-1.032.144Z" fill="#4BBED2"/><path d="M638.652 31.378c2.64 0 4.152 1.632 4.152 4.368v7.824h-2.112v-7.68c0-1.848-.888-2.808-2.568-2.808-1.728 0-2.808 1.224-2.808 3.144v7.344h-2.112v-7.68c0-1.848-.888-2.808-2.568-2.808-1.728 0-2.808 1.368-2.808 3.384v7.104h-2.112v-12h1.848v1.944c.648-1.296 1.92-2.136 3.6-2.136 1.896 0 3.12.84 3.648 2.328.624-1.416 2.04-2.328 3.84-2.328Zm17.716 6.336c0 .096 0 .36-.024.432h-9.264c.168 2.664 1.944 3.936 3.984 3.936 1.728 0 2.784-.792 3.432-1.896l1.488 1.008c-.936 1.656-2.688 2.568-4.944 2.568-3.6 0-6-2.544-6-6.192 0-3.672 2.304-6.192 5.736-6.192s5.592 2.496 5.592 6.336Zm-5.592-4.632c-1.968 0-3.384 1.248-3.648 3.552h7.224c-.264-2.232-1.536-3.552-3.576-3.552Zm17.299-6.312h2.088v16.8h-1.848v-2.472c-.888 1.704-2.472 2.664-4.44 2.664-3.216 0-5.616-2.544-5.616-6.192s2.4-6.192 5.616-6.192c1.8 0 3.288.792 4.2 2.232v-6.84Zm-3.96 15.264c2.304 0 3.96-1.896 3.96-4.464 0-2.568-1.656-4.464-3.96-4.464-2.232 0-3.768 1.848-3.768 4.464 0 2.616 1.488 4.464 3.768 4.464Zm10.386-12.24a1.434 1.434 0 0 1-1.416-1.416c0-.768.648-1.392 1.416-1.392.768 0 1.392.624 1.392 1.392 0 .768-.624 1.416-1.392 1.416Zm-1.056 13.776v-12h2.088v12h-2.088Zm13.229-12h2.088v12h-1.824v-2.016c-.72 1.392-2.16 2.208-3.984 2.208-2.688 0-4.272-1.704-4.272-4.56V31.57h2.088v7.536c0 1.896.984 2.952 2.784 2.952 1.896 0 3.12-1.392 3.12-3.552V31.57Zm17.908-.192c2.64 0 4.152 1.632 4.152 4.368v7.824h-2.112v-7.68c0-1.848-.888-2.808-2.568-2.808-1.728 0-2.808 1.224-2.808 3.144v7.344h-2.112v-7.68c0-1.848-.888-2.808-2.568-2.808-1.728 0-2.808 1.368-2.808 3.384v7.104h-2.112v-12h1.848v1.944c.648-1.296 1.92-2.136 3.6-2.136 1.896 0 3.12.84 3.648 2.328.624-1.416 2.04-2.328 3.84-2.328Z" fill="#FF5400"/><path d="M866.679 43.762c-1.296 0-2.184-.912-2.184-2.4V26.77h2.088v14.472c0 .576.336.792.72.792.168 0 .312-.024.408-.048v1.632c-.168.072-.528.144-1.032.144Zm12.655-2.328c0 .576.264.792.864.792l-.024 1.344c-.216.12-.576.192-1.032.192-1.08 0-1.776-.744-1.776-1.92-.72 1.152-2.208 1.92-3.864 1.92-2.4 0-3.984-1.344-3.984-3.408s1.416-3.312 4.224-3.744l3.504-.504v-.456c0-1.608-1.08-2.592-2.784-2.592-1.392 0-2.352.6-2.808 1.728l-1.608-.84c.672-1.68 2.232-2.568 4.464-2.568 3.096 0 4.824 1.608 4.824 4.44v5.616Zm-5.568.72c2.136 0 3.48-1.44 3.48-3.672v-.864l-3.024.432c-1.848.264-2.688.96-2.688 2.256 0 1.104.912 1.848 2.232 1.848Zm13.911-10.776c.48 0 .816.048 1.008.12v1.8a6.537 6.537 0 0 0-1.08-.072c-1.776 0-3.12 1.104-3.12 3.384v6.96h-2.088v-12h1.848v2.04c.6-1.416 1.896-2.232 3.432-2.232Zm12.001.192h1.824v11.064c0 3.504-2.352 5.688-6.096 5.688-2.064 0-3.624-.6-4.848-1.56l.936-1.56c.984.84 2.304 1.392 3.912 1.392 2.424 0 4.008-1.488 4.008-3.864v-1.608c-.888 1.344-2.304 2.088-4.056 2.088-3.192 0-5.496-2.472-5.496-5.928 0-3.432 2.304-5.904 5.496-5.904 1.944 0 3.48.912 4.32 2.544V31.57Zm-4.08 9.912c2.208 0 3.816-1.776 3.816-4.2 0-2.424-1.608-4.176-3.816-4.176-2.16 0-3.624 1.704-3.624 4.176 0 2.472 1.488 4.2 3.624 4.2Zm19.561-3.768c0 .096 0 .36-.024.432h-9.264c.168 2.664 1.944 3.936 3.984 3.936 1.728 0 2.784-.792 3.432-1.896l1.488 1.008c-.936 1.656-2.688 2.568-4.944 2.568-3.6 0-6-2.544-6-6.192 0-3.672 2.304-6.192 5.736-6.192s5.592 2.496 5.592 6.336Zm-5.592-4.632c-1.968 0-3.384 1.248-3.648 3.552h7.224c-.264-2.232-1.536-3.552-3.576-3.552Z" fill="#14555A"/><path d="M43.664 34.596c1.968.504 3.312 2.136 3.312 4.248 0 2.736-2.112 4.656-5.088 4.656H35.24V26.7h5.784c3 0 4.896 1.656 4.896 4.296 0 1.752-.816 2.976-2.256 3.6Zm-3.192-6.144H37.4v5.424h3.072c2.088 0 3.264-.984 3.264-2.712 0-1.728-1.2-2.712-3.264-2.712Zm.696 13.224c2.28 0 3.6-1.08 3.6-3 0-2.016-1.2-3.048-3.648-3.048H37.4v6.048h3.768Zm13.896-10.368c.48 0 .816.048 1.008.12v1.8a6.537 6.537 0 0 0-1.08-.072c-1.776 0-3.12 1.104-3.12 3.384v6.96h-2.088v-12h1.848v2.04c.6-1.416 1.896-2.232 3.432-2.232Zm13.512 6.336c0 .096 0 .36-.023.432h-9.264c.167 2.664 1.944 3.936 3.983 3.936 1.729 0 2.785-.792 3.432-1.896l1.489 1.008c-.936 1.656-2.689 2.568-4.944 2.568-3.6 0-6-2.544-6-6.192 0-3.672 2.303-6.192 5.735-6.192 3.432 0 5.592 2.496 5.592 6.336Zm-5.591-4.632c-1.968 0-3.385 1.248-3.648 3.552h7.224c-.265-2.232-1.537-3.552-3.577-3.552Zm17.298 8.352c0 .576.264.792.864.792l-.024 1.344c-.216.12-.576.192-1.032.192-1.08 0-1.776-.744-1.776-1.92-.72 1.152-2.208 1.92-3.864 1.92-2.4 0-3.984-1.344-3.984-3.408s1.416-3.312 4.224-3.744l3.504-.504v-.456c0-1.608-1.08-2.592-2.784-2.592-1.392 0-2.352.6-2.808 1.728l-1.608-.84c.672-1.68 2.232-2.568 4.464-2.568 3.096 0 4.824 1.608 4.824 4.44v5.616Zm-5.568.72c2.136 0 3.48-1.44 3.48-3.672v-.864l-3.024.432c-1.848.264-2.688.96-2.688 2.256 0 1.104.912 1.848 2.232 1.848ZM90.882 43.5l-3.888-5.28-1.56 1.728V43.5h-2.088V26.7h2.088v10.704l5.04-5.904h2.616l-4.824 5.304L93.45 43.5h-2.568Zm10.424-12.192c3.216 0 5.64 2.544 5.64 6.192s-2.424 6.192-5.64 6.192c-1.8 0-3.288-.792-4.2-2.232v6.6h-2.088V31.5h1.848v2.472c.888-1.704 2.472-2.664 4.44-2.664Zm-.24 10.656c2.256 0 3.768-1.848 3.768-4.464 0-2.616-1.488-4.464-3.768-4.464-2.304 0-3.96 1.896-3.96 4.464 0 2.568 1.656 4.464 3.96 4.464Zm13.626 1.728c-3.384 0-5.904-2.472-5.904-6.192s2.52-6.192 5.904-6.192 5.904 2.472 5.904 6.192-2.52 6.192-5.904 6.192Zm0-1.728c2.208 0 3.816-1.776 3.816-4.464 0-2.688-1.608-4.464-3.816-4.464-2.208 0-3.816 1.776-3.816 4.464 0 2.688 1.608 4.464 3.816 4.464Zm9.751-12.24a1.434 1.434 0 0 1-1.416-1.416c0-.768.648-1.392 1.416-1.392.768 0 1.392.624 1.392 1.392 0 .768-.624 1.416-1.392 1.416ZM123.387 43.5v-12h2.088v12h-2.088Zm11.189-12.192c2.688 0 4.272 1.704 4.272 4.56V43.5h-2.088v-7.536c0-1.896-.984-2.952-2.76-2.952-1.92 0-3.144 1.392-3.144 3.552V43.5h-2.088v-12h1.848v1.992c.72-1.368 2.16-2.184 3.96-2.184Zm12.028 10.656c.552 0 1.056-.072 1.392-.192v1.68c-.384.144-1.056.24-1.752.24-2.28 0-3.576-1.224-3.576-3.408v-7.056h-2.04V31.5h2.04v-3.744h2.088V31.5h3.072v1.728h-3.072v7.008c0 1.152.624 1.728 1.848 1.728Zm7.64 1.728c-2.112 0-3.72-.864-4.56-2.448l1.464-1.056c.576 1.2 1.632 1.824 3.096 1.824 1.488 0 2.376-.672 2.376-1.824 0-.912-.576-1.44-1.848-1.752l-1.512-.384c-2.064-.504-3.144-1.656-3.144-3.288 0-2.064 1.632-3.456 4.104-3.456 2.04 0 3.48.84 4.056 2.376l-1.56.912c-.384-1.056-1.224-1.608-2.496-1.608-1.296 0-2.136.672-2.136 1.704 0 .864.528 1.368 1.752 1.68l1.608.384c2.064.528 3.144 1.68 3.144 3.384 0 2.136-1.752 3.552-4.344 3.552Zm8.191-7.584a1.434 1.434 0 0 1-1.416-1.416c0-.768.648-1.392 1.416-1.392.768 0 1.392.624 1.392 1.392 0 .768-.624 1.416-1.392 1.416Zm0 7.536a1.434 1.434 0 0 1-1.416-1.416c0-.768.648-1.392 1.416-1.392.768 0 1.392.624 1.392 1.392 0 .768-.624 1.416-1.392 1.416ZM95.15 181l-3.744-7.224h-2.928V181h-2.16v-16.8h5.664c3.552 0 5.544 1.728 5.544 4.8 0 2.544-1.368 4.176-3.888 4.632L97.622 181H95.15Zm-6.672-15.048v6.072h3.12c2.544 0 3.768-.984 3.768-3.024 0-2.064-1.224-3.048-3.768-3.048h-3.12Zm19.868 12.912c0 .576.264.792.864.792l-.024 1.344c-.216.12-.576.192-1.032.192-1.08 0-1.776-.744-1.776-1.92-.72 1.152-2.208 1.92-3.864 1.92-2.4 0-3.984-1.344-3.984-3.408s1.416-3.312 4.224-3.744l3.504-.504v-.456c0-1.608-1.08-2.592-2.784-2.592-1.392 0-2.352.6-2.808 1.728l-1.608-.84c.672-1.68 2.232-2.568 4.464-2.568 3.096 0 4.824 1.608 4.824 4.44v5.616Zm-5.568.72c2.136 0 3.48-1.44 3.48-3.672v-.864l-3.024.432c-1.848.264-2.688.96-2.688 2.256 0 1.104.912 1.848 2.232 1.848Zm14.439-10.776c2.688 0 4.272 1.704 4.272 4.56V181h-2.088v-7.536c0-1.896-.984-2.952-2.76-2.952-1.92 0-3.144 1.392-3.144 3.552V181h-2.088v-12h1.848v1.992c.72-1.368 2.16-2.184 3.96-2.184Zm16.324.192h1.824v11.064c0 3.504-2.352 5.688-6.096 5.688-2.064 0-3.624-.6-4.848-1.56l.936-1.56c.984.84 2.304 1.392 3.912 1.392 2.424 0 4.008-1.488 4.008-3.864v-1.608c-.888 1.344-2.304 2.088-4.056 2.088-3.192 0-5.496-2.472-5.496-5.928 0-3.432 2.304-5.904 5.496-5.904 1.944 0 3.48.912 4.32 2.544V169Zm-4.08 9.912c2.208 0 3.816-1.776 3.816-4.2 0-2.424-1.608-4.176-3.816-4.176-2.16 0-3.624 1.704-3.624 4.176 0 2.472 1.488 4.2 3.624 4.2Zm19.561-3.768c0 .096 0 .36-.024.432h-9.264c.168 2.664 1.944 3.936 3.984 3.936 1.728 0 2.784-.792 3.432-1.896l1.488 1.008c-.936 1.656-2.688 2.568-4.944 2.568-3.6 0-6-2.544-6-6.192 0-3.672 2.304-6.192 5.736-6.192s5.592 2.496 5.592 6.336Zm-5.592-4.632c-1.968 0-3.384 1.248-3.648 3.552h7.224c-.264-2.232-1.536-3.552-3.576-3.552Zm11.947 10.68c-2.112 0-3.72-.864-4.56-2.448l1.464-1.056c.576 1.2 1.632 1.824 3.096 1.824 1.488 0 2.376-.672 2.376-1.824 0-.912-.576-1.44-1.848-1.752l-1.512-.384c-2.064-.504-3.144-1.656-3.144-3.288 0-2.064 1.632-3.456 4.104-3.456 2.04 0 3.48.84 4.056 2.376l-1.56.912c-.384-1.056-1.224-1.608-2.496-1.608-1.296 0-2.136.672-2.136 1.704 0 .864.528 1.368 1.752 1.68l1.608.384c2.064.528 3.144 1.68 3.144 3.384 0 2.136-1.752 3.552-4.344 3.552Zm8.191-7.584a1.434 1.434 0 0 1-1.416-1.416c0-.768.648-1.392 1.416-1.392.768 0 1.392.624 1.392 1.392 0 .768-.624 1.416-1.392 1.416Zm0 7.536a1.434 1.434 0 0 1-1.416-1.416c0-.768.648-1.392 1.416-1.392.768 0 1.392.624 1.392 1.392 0 .768-.624 1.416-1.392 1.416Z" fill="#1D1D1D"/><path d="M528.376 196.478c2.64 0 4.152 1.632 4.152 4.368v7.824h-2.112v-7.68c0-1.848-.888-2.808-2.568-2.808-1.728 0-2.808 1.224-2.808 3.144v7.344h-2.112v-7.68c0-1.848-.888-2.808-2.568-2.808-1.728 0-2.808 1.368-2.808 3.384v7.104h-2.112v-12h1.848v1.944c.648-1.296 1.92-2.136 3.6-2.136 1.896 0 3.12.84 3.648 2.328.624-1.416 2.04-2.328 3.84-2.328Zm17.716 6.336c0 .096 0 .36-.024.432h-9.264c.168 2.664 1.944 3.936 3.984 3.936 1.728 0 2.784-.792 3.432-1.896l1.488 1.008c-.936 1.656-2.688 2.568-4.944 2.568-3.6 0-6-2.544-6-6.192 0-3.672 2.304-6.192 5.736-6.192s5.592 2.496 5.592 6.336Zm-5.592-4.632c-1.968 0-3.384 1.248-3.648 3.552h7.224c-.264-2.232-1.536-3.552-3.576-3.552Zm17.299-6.312h2.088v16.8h-1.848v-2.472c-.888 1.704-2.472 2.664-4.44 2.664-3.216 0-5.616-2.544-5.616-6.192s2.4-6.192 5.616-6.192c1.8 0 3.288.792 4.2 2.232v-6.84Zm-3.96 15.264c2.304 0 3.96-1.896 3.96-4.464 0-2.568-1.656-4.464-3.96-4.464-2.232 0-3.768 1.848-3.768 4.464 0 2.616 1.488 4.464 3.768 4.464Zm10.385-12.24a1.434 1.434 0 0 1-1.416-1.416c0-.768.648-1.392 1.416-1.392.768 0 1.392.624 1.392 1.392 0 .768-.624 1.416-1.392 1.416Zm-1.056 13.776v-12h2.088v12h-2.088Zm13.229-12h2.088v12h-1.824v-2.016c-.72 1.392-2.16 2.208-3.984 2.208-2.688 0-4.272-1.704-4.272-4.56v-7.632h2.088v7.536c0 1.896.984 2.952 2.784 2.952 1.896 0 3.12-1.392 3.12-3.552v-6.936Zm17.909-.192c2.64 0 4.152 1.632 4.152 4.368v7.824h-2.112v-7.68c0-1.848-.888-2.808-2.568-2.808-1.728 0-2.808 1.224-2.808 3.144v7.344h-2.112v-7.68c0-1.848-.888-2.808-2.568-2.808-1.728 0-2.808 1.368-2.808 3.384v7.104h-2.112v-12h1.848v1.944c.648-1.296 1.92-2.136 3.6-2.136 1.896 0 3.12.84 3.648 2.328.624-1.416 2.04-2.328 3.84-2.328Z" fill="#FF5400"/><path d="M307.4 208.862c-2.112 0-3.72-.864-4.56-2.448l1.464-1.056c.576 1.2 1.632 1.824 3.096 1.824 1.488 0 2.376-.672 2.376-1.824 0-.912-.576-1.44-1.848-1.752l-1.512-.384c-2.064-.504-3.144-1.656-3.144-3.288 0-2.064 1.632-3.456 4.104-3.456 2.04 0 3.48.84 4.056 2.376l-1.56.912c-.384-1.056-1.224-1.608-2.496-1.608-1.296 0-2.136.672-2.136 1.704 0 .864.528 1.368 1.752 1.68l1.608.384c2.064.528 3.144 1.68 3.144 3.384 0 2.136-1.752 3.552-4.344 3.552Zm19.664-12.384c2.64 0 4.152 1.632 4.152 4.368v7.824h-2.112v-7.68c0-1.848-.888-2.808-2.568-2.808-1.729 0-2.808 1.224-2.808 3.144v7.344h-2.112v-7.68c0-1.848-.888-2.808-2.568-2.808-1.728 0-2.808 1.368-2.808 3.384v7.104h-2.112v-12h1.848v1.944c.648-1.296 1.92-2.136 3.6-2.136 1.896 0 3.12.84 3.648 2.328.624-1.416 2.04-2.328 3.84-2.328Zm16.204 10.056c0 .576.264.792.864.792l-.024 1.344c-.216.12-.576.192-1.032.192-1.08 0-1.776-.744-1.776-1.92-.72 1.152-2.208 1.92-3.864 1.92-2.4 0-3.984-1.344-3.984-3.408s1.416-3.312 4.224-3.744l3.504-.504v-.456c0-1.608-1.08-2.592-2.784-2.592-1.392 0-2.352.6-2.808 1.728l-1.608-.84c.672-1.68 2.232-2.568 4.464-2.568 3.096 0 4.824 1.608 4.824 4.44v5.616Zm-5.568.72c2.136 0 3.48-1.44 3.48-3.672v-.864l-3.024.432c-1.848.264-2.688.96-2.688 2.256 0 1.104.912 1.848 2.232 1.848Zm10.983 1.608c-1.296 0-2.184-.912-2.184-2.4V191.87h2.088v14.472c0 .576.336.792.72.792.168 0 .312-.024.408-.048v1.632c-.168.072-.528.144-1.032.144Zm5.695 0c-1.296 0-2.184-.912-2.184-2.4V191.87h2.088v14.472c0 .576.336.792.72.792.168 0 .312-.024.408-.048v1.632c-.168.072-.528.144-1.032.144Z" fill="#4BBED2"/><path d="M754.792 208.862c-1.296 0-2.184-.912-2.184-2.4V191.87h2.088v14.472c0 .576.336.792.72.792.168 0 .312-.024.408-.048v1.632c-.168.072-.528.144-1.032.144Zm12.655-2.328c0 .576.264.792.864.792l-.024 1.344c-.216.12-.576.192-1.032.192-1.08 0-1.776-.744-1.776-1.92-.72 1.152-2.208 1.92-3.864 1.92-2.4 0-3.984-1.344-3.984-3.408s1.416-3.312 4.224-3.744l3.504-.504v-.456c0-1.608-1.08-2.592-2.784-2.592-1.392 0-2.352.6-2.808 1.728l-1.608-.84c.672-1.68 2.232-2.568 4.464-2.568 3.096 0 4.824 1.608 4.824 4.44v5.616Zm-5.568.72c2.136 0 3.48-1.44 3.48-3.672v-.864l-3.024.432c-1.848.264-2.688.96-2.688 2.256 0 1.104.912 1.848 2.232 1.848Zm13.911-10.776c.48 0 .816.048 1.008.12v1.8a6.537 6.537 0 0 0-1.08-.072c-1.776 0-3.12 1.104-3.12 3.384v6.96h-2.088v-12h1.848v2.04c.6-1.416 1.896-2.232 3.432-2.232Zm12.001.192h1.824v11.064c0 3.504-2.352 5.688-6.096 5.688-2.064 0-3.624-.6-4.848-1.56l.936-1.56c.984.84 2.304 1.392 3.912 1.392 2.424 0 4.008-1.488 4.008-3.864v-1.608c-.888 1.344-2.304 2.088-4.056 2.088-3.192 0-5.496-2.472-5.496-5.928 0-3.432 2.304-5.904 5.496-5.904 1.944 0 3.48.912 4.32 2.544v-2.352Zm-4.08 9.912c2.208 0 3.816-1.776 3.816-4.2 0-2.424-1.608-4.176-3.816-4.176-2.16 0-3.624 1.704-3.624 4.176 0 2.472 1.488 4.2 3.624 4.2Zm19.561-3.768c0 .096 0 .36-.024.432h-9.264c.168 2.664 1.944 3.936 3.984 3.936 1.728 0 2.784-.792 3.432-1.896l1.488 1.008c-.936 1.656-2.688 2.568-4.944 2.568-3.6 0-6-2.544-6-6.192 0-3.672 2.304-6.192 5.736-6.192s5.592 2.496 5.592 6.336Zm-5.592-4.632c-1.968 0-3.384 1.248-3.648 3.552h7.224c-.264-2.232-1.536-3.552-3.576-3.552ZM1046.79 208.862c-1.29 0-2.18-.912-2.18-2.4V191.87h2.09v14.472c0 .576.33.792.72.792.16 0 .31-.024.4-.048v1.632c-.16.072-.52.144-1.03.144Zm12.66-2.328c0 .576.26.792.86.792l-.02 1.344c-.22.12-.58.192-1.03.192-1.08 0-1.78-.744-1.78-1.92-.72 1.152-2.21 1.92-3.86 1.92-2.4 0-3.99-1.344-3.99-3.408s1.42-3.312 4.23-3.744l3.5-.504v-.456c0-1.608-1.08-2.592-2.78-2.592-1.4 0-2.36.6-2.81 1.728l-1.61-.84c.67-1.68 2.23-2.568 4.46-2.568 3.1 0 4.83 1.608 4.83 4.44v5.616Zm-5.57.72c2.14 0 3.48-1.44 3.48-3.672v-.864l-3.02.432c-1.85.264-2.69.96-2.69 2.256 0 1.104.91 1.848 2.23 1.848Zm13.91-10.776c.48 0 .82.048 1.01.12v1.8a6.604 6.604 0 0 0-1.08-.072c-1.78 0-3.12 1.104-3.12 3.384v6.96h-2.09v-12h1.85v2.04c.6-1.416 1.89-2.232 3.43-2.232Zm12 .192h1.83v11.064c0 3.504-2.36 5.688-6.1 5.688-2.06 0-3.62-.6-4.85-1.56l.94-1.56c.98.84 2.3 1.392 3.91 1.392 2.42 0 4.01-1.488 4.01-3.864v-1.608c-.89 1.344-2.31 2.088-4.06 2.088-3.19 0-5.49-2.472-5.49-5.928 0-3.432 2.3-5.904 5.49-5.904 1.95 0 3.48.912 4.32 2.544v-2.352Zm-4.08 9.912c2.21 0 3.82-1.776 3.82-4.2 0-2.424-1.61-4.176-3.82-4.176-2.16 0-3.62 1.704-3.62 4.176 0 2.472 1.49 4.2 3.62 4.2Zm19.56-3.768c0 .096 0 .36-.02.432h-9.27c.17 2.664 1.95 3.936 3.99 3.936 1.73 0 2.78-.792 3.43-1.896l1.49 1.008c-.94 1.656-2.69 2.568-4.95 2.568-3.6 0-6-2.544-6-6.192 0-3.672 2.31-6.192 5.74-6.192s5.59 2.496 5.59 6.336Zm-5.59-4.632c-1.97 0-3.38 1.248-3.65 3.552h7.23c-.27-2.232-1.54-3.552-3.58-3.552Z" fill="#28B482"/><path d="M431.571 74.436v1.278h-1.872v2.916h-1.566v-2.916h-5.418v-.972l4.824-8.712h2.16v8.406h1.872Zm-7.2 0h3.762V67.65l-3.762 6.786Zm13.565 4.338c-2.862 0-4.392-2.268-4.392-6.444s1.53-6.444 4.392-6.444 4.392 2.268 4.392 6.444-1.53 6.444-4.392 6.444Zm0-1.368c1.872 0 2.826-1.71 2.826-5.076 0-3.366-.954-5.076-2.826-5.076s-2.826 1.71-2.826 5.076c0 3.366.954 5.076 2.826 5.076Zm14.591-3.168c0 .072 0 .27-.018.324h-6.948c.126 1.998 1.458 2.952 2.988 2.952 1.296 0 2.088-.594 2.574-1.422l1.116.756c-.702 1.242-2.016 1.926-3.708 1.926-2.7 0-4.5-1.908-4.5-4.644 0-2.754 1.728-4.644 4.302-4.644s4.194 1.872 4.194 4.752Zm-4.194-3.474c-1.476 0-2.538.936-2.736 2.664h5.418c-.198-1.674-1.152-2.664-2.682-2.664Zm15.692-1.278c1.98 0 3.114 1.224 3.114 3.276v5.868h-1.584v-5.76c0-1.386-.666-2.106-1.926-2.106-1.296 0-2.106.918-2.106 2.358v5.508h-1.584v-5.76c0-1.386-.666-2.106-1.926-2.106-1.296 0-2.106 1.026-2.106 2.538v5.328h-1.584v-9h1.386v1.458c.486-.972 1.44-1.602 2.7-1.602 1.422 0 2.34.63 2.736 1.746.468-1.062 1.53-1.746 2.88-1.746ZM649.579 78.774c-2.844 0-4.41-2.106-4.41-5.796 0-4.41 1.656-7.092 4.662-7.092 2.034 0 3.348 1.062 3.672 2.592l-1.368.522c-.306-1.206-1.152-1.8-2.304-1.8-2.142 0-3.132 2.358-3.132 5.31.342-.828 1.386-1.926 3.204-1.926 2.16 0 3.816 1.674 3.816 4.05 0 2.358-1.8 4.14-4.14 4.14Zm0-1.314c1.548 0 2.61-1.116 2.61-2.79 0-1.638-1.062-2.772-2.61-2.772-1.566 0-2.628 1.134-2.628 2.772 0 1.674 1.062 2.79 2.628 2.79Zm10.649 1.314c-2.862 0-4.392-2.268-4.392-6.444s1.53-6.444 4.392-6.444 4.392 2.268 4.392 6.444-1.53 6.444-4.392 6.444Zm0-1.368c1.872 0 2.826-1.71 2.826-5.076 0-3.366-.954-5.076-2.826-5.076s-2.826 1.71-2.826 5.076c0 3.366.954 5.076 2.826 5.076Zm14.591-3.168c0 .072 0 .27-.018.324h-6.948c.126 1.998 1.458 2.952 2.988 2.952 1.296 0 2.088-.594 2.574-1.422l1.116.756c-.702 1.242-2.016 1.926-3.708 1.926-2.7 0-4.5-1.908-4.5-4.644 0-2.754 1.728-4.644 4.302-4.644s4.194 1.872 4.194 4.752Zm-4.194-3.474c-1.476 0-2.538.936-2.736 2.664h5.418c-.198-1.674-1.152-2.664-2.682-2.664Zm15.692-1.278c1.98 0 3.114 1.224 3.114 3.276v5.868h-1.584v-5.76c0-1.386-.666-2.106-1.926-2.106-1.296 0-2.106.918-2.106 2.358v5.508h-1.584v-5.76c0-1.386-.666-2.106-1.926-2.106-1.296 0-2.106 1.026-2.106 2.538v5.328h-1.584v-9h1.386v1.458c.486-.972 1.44-1.602 2.7-1.602 1.422 0 2.34.63 2.736 1.746.468-1.062 1.53-1.746 2.88-1.746ZM869.052 66.03h7.884v.99c0 .018-5.058 11.592-5.058 11.61h-1.764l5.076-11.304h-6.138V66.03Zm12.971 11.304h5.778v1.296h-8.028v-1.026l3.528-3.6c2.196-2.232 2.934-3.096 2.934-4.464 0-1.44-.954-2.34-2.448-2.34-1.386 0-2.25.702-2.574 2.142l-1.332-.504c.36-1.872 1.782-2.952 3.906-2.952 2.376 0 3.996 1.494 3.996 3.654 0 1.998-1.638 3.564-3.438 5.418l-2.322 2.376Zm16.355-3.096c0 .072 0 .27-.018.324h-6.948c.126 1.998 1.458 2.952 2.988 2.952 1.296 0 2.088-.594 2.574-1.422l1.116.756c-.702 1.242-2.016 1.926-3.708 1.926-2.7 0-4.5-1.908-4.5-4.644 0-2.754 1.728-4.644 4.302-4.644s4.194 1.872 4.194 4.752Zm-4.194-3.474c-1.476 0-2.538.936-2.736 2.664h5.418c-.198-1.674-1.152-2.664-2.682-2.664Zm15.692-1.278c1.98 0 3.114 1.224 3.114 3.276v5.868h-1.584v-5.76c0-1.386-.666-2.106-1.926-2.106-1.296 0-2.106.918-2.106 2.358v5.508h-1.584v-5.76c0-1.386-.666-2.106-1.926-2.106-1.296 0-2.106 1.026-2.106 2.538v5.328h-1.584v-9h1.386v1.458c.486-.972 1.44-1.602 2.7-1.602 1.422 0 2.34.63 2.736 1.746.468-1.062 1.53-1.746 2.88-1.746ZM1233.4 76.974V75.57l7.51-3.24-7.51-3.24v-1.404l9 3.996v1.296l-9 3.996ZM216.4 78.774c-2.862 0-4.392-2.268-4.392-6.444s1.53-6.444 4.392-6.444 4.392 2.268 4.392 6.444-1.53 6.444-4.392 6.444Zm0-1.368c1.872 0 2.826-1.71 2.826-5.076 0-3.366-.954-5.076-2.826-5.076s-2.826 1.71-2.826 5.076c0 3.366.954 5.076 2.826 5.076Z" fill="#737373"/><rect x="228" y="166" width="212" height="13" rx="6.5" fill="#4BBED2"/><rect x="450" y="166" width="212" height="13" rx="6.5" fill="#FF5400"/><rect x="672" y="166" width="212" height="13" rx="6.5" fill="#28B482"/><rect x="894" y="166" width="357" height="13" rx="6.5" fill="#28B482"/><path d="M217 102v21" stroke="#000" stroke-width="5" stroke-linecap="round"/><path d="M445 102v21" stroke="#4BBED2" stroke-width="5" stroke-linecap="round"/><path d="M668 102v21" stroke="#FF5400" stroke-width="5" stroke-linecap="round"/><path d="M887 102v21" stroke="#14555A" stroke-width="5" stroke-linecap="round"/></svg>