<svg viewBox="0 0 480 400" fill="none" xmlns="http://www.w3.org/2000/svg">
<rect x="125" y="8" width="240" height="48" rx="4" fill="#14555A"/>
<path d="M240.049 32.7734H236.475L235.672 35H234.512L237.77 26.4688H238.754L242.018 35H240.863L240.049 32.7734ZM236.814 31.8477H239.715L238.262 27.8574L236.814 31.8477ZM248.352 31.9004C248.352 32.8652 248.131 33.6426 247.689 34.2324C247.248 34.8223 246.65 35.1172 245.896 35.1172C245.127 35.1172 244.521 34.873 244.08 34.3848V37.4375H242.996V28.6602H243.986L244.039 29.3633C244.48 28.8164 245.094 28.543 245.879 28.543C246.641 28.543 247.242 28.8301 247.684 29.4043C248.129 29.9785 248.352 30.7773 248.352 31.8008V31.9004ZM247.268 31.7773C247.268 31.0625 247.115 30.498 246.811 30.084C246.506 29.6699 246.088 29.4629 245.557 29.4629C244.9 29.4629 244.408 29.7539 244.08 30.3359V33.3652C244.404 33.9434 244.9 34.2324 245.568 34.2324C246.088 34.2324 246.5 34.0273 246.805 33.6172C247.113 33.2031 247.268 32.5898 247.268 31.7773ZM255.09 31.9004C255.09 32.8652 254.869 33.6426 254.428 34.2324C253.986 34.8223 253.389 35.1172 252.635 35.1172C251.865 35.1172 251.26 34.873 250.818 34.3848V37.4375H249.734V28.6602H250.725L250.777 29.3633C251.219 28.8164 251.832 28.543 252.617 28.543C253.379 28.543 253.98 28.8301 254.422 29.4043C254.867 29.9785 255.09 30.7773 255.09 31.8008V31.9004ZM254.006 31.7773C254.006 31.0625 253.854 30.498 253.549 30.084C253.244 29.6699 252.826 29.4629 252.295 29.4629C251.639 29.4629 251.146 29.7539 250.818 30.3359V33.3652C251.143 33.9434 251.639 34.2324 252.307 34.2324C252.826 34.2324 253.238 34.0273 253.543 33.6172C253.852 33.2031 254.006 32.5898 254.006 31.7773Z" fill="white"/>
<rect x="125" y="88" width="119" height="56" rx="4" fill="#008484"/>
<path d="M172.875 112.395H170.133V120H169.014V112.395H166.277V111.469H172.875V112.395ZM175.055 114.428C175.535 113.838 176.16 113.543 176.93 113.543C178.27 113.543 178.945 114.299 178.957 115.811V120H177.873V115.805C177.869 115.348 177.764 115.01 177.557 114.791C177.354 114.572 177.035 114.463 176.602 114.463C176.25 114.463 175.941 114.557 175.676 114.744C175.41 114.932 175.203 115.178 175.055 115.482V120H173.971V111H175.055V114.428ZM183.211 120.117C182.352 120.117 181.652 119.836 181.113 119.273C180.574 118.707 180.305 117.951 180.305 117.006V116.807C180.305 116.178 180.424 115.617 180.662 115.125C180.904 114.629 181.24 114.242 181.67 113.965C182.104 113.684 182.572 113.543 183.076 113.543C183.9 113.543 184.541 113.814 184.998 114.357C185.455 114.9 185.684 115.678 185.684 116.689V117.141H181.389C181.404 117.766 181.586 118.271 181.934 118.658C182.285 119.041 182.73 119.232 183.27 119.232C183.652 119.232 183.977 119.154 184.242 118.998C184.508 118.842 184.74 118.635 184.939 118.377L185.602 118.893C185.07 119.709 184.273 120.117 183.211 120.117ZM183.076 114.434C182.639 114.434 182.271 114.594 181.975 114.914C181.678 115.23 181.494 115.676 181.424 116.25H184.6V116.168C184.568 115.617 184.42 115.191 184.154 114.891C183.889 114.586 183.529 114.434 183.076 114.434ZM187.963 113.66L187.992 114.363C188.457 113.816 189.084 113.543 189.873 113.543C190.76 113.543 191.363 113.883 191.684 114.562C191.895 114.258 192.168 114.012 192.504 113.824C192.844 113.637 193.244 113.543 193.705 113.543C195.096 113.543 195.803 114.279 195.826 115.752V120H194.742V115.816C194.742 115.363 194.639 115.025 194.432 114.803C194.225 114.576 193.877 114.463 193.389 114.463C192.986 114.463 192.652 114.584 192.387 114.826C192.121 115.064 191.967 115.387 191.924 115.793V120H190.834V115.846C190.834 114.924 190.383 114.463 189.48 114.463C188.77 114.463 188.283 114.766 188.021 115.371V120H186.938V113.66H187.963ZM200.098 120.117C199.238 120.117 198.539 119.836 198 119.273C197.461 118.707 197.191 117.951 197.191 117.006V116.807C197.191 116.178 197.311 115.617 197.549 115.125C197.791 114.629 198.127 114.242 198.557 113.965C198.99 113.684 199.459 113.543 199.963 113.543C200.787 113.543 201.428 113.814 201.885 114.357C202.342 114.9 202.57 115.678 202.57 116.689V117.141H198.275C198.291 117.766 198.473 118.271 198.82 118.658C199.172 119.041 199.617 119.232 200.156 119.232C200.539 119.232 200.863 119.154 201.129 118.998C201.395 118.842 201.627 118.635 201.826 118.377L202.488 118.893C201.957 119.709 201.16 120.117 200.098 120.117ZM199.963 114.434C199.525 114.434 199.158 114.594 198.861 114.914C198.564 115.23 198.381 115.676 198.311 116.25H201.486V116.168C201.455 115.617 201.307 115.191 201.041 114.891C200.775 114.586 200.416 114.434 199.963 114.434Z" fill="white"/>
<rect x="125" y="174" width="240" height="48" rx="4" fill="#A5E1D2"/>
<path d="M232.602 202V193.469H235.391C236.316 193.469 237.012 193.66 237.477 194.043C237.945 194.426 238.18 194.992 238.18 195.742C238.18 196.141 238.066 196.494 237.84 196.803C237.613 197.107 237.305 197.344 236.914 197.512C237.375 197.641 237.738 197.887 238.004 198.25C238.273 198.609 238.408 199.039 238.408 199.539C238.408 200.305 238.16 200.906 237.664 201.344C237.168 201.781 236.467 202 235.561 202H232.602ZM233.727 198.01V201.08H235.584C236.107 201.08 236.52 200.945 236.82 200.676C237.125 200.402 237.277 200.027 237.277 199.551C237.277 198.523 236.719 198.01 235.602 198.01H233.727ZM233.727 197.107H235.426C235.918 197.107 236.311 196.984 236.604 196.738C236.9 196.492 237.049 196.158 237.049 195.736C237.049 195.268 236.912 194.928 236.639 194.717C236.365 194.502 235.949 194.395 235.391 194.395H233.727V197.107ZM239.621 198.771C239.621 198.15 239.742 197.592 239.984 197.096C240.23 196.6 240.57 196.217 241.004 195.947C241.441 195.678 241.939 195.543 242.498 195.543C243.361 195.543 244.059 195.842 244.59 196.439C245.125 197.037 245.393 197.832 245.393 198.824V198.9C245.393 199.518 245.273 200.072 245.035 200.564C244.801 201.053 244.463 201.434 244.021 201.707C243.584 201.98 243.08 202.117 242.51 202.117C241.65 202.117 240.953 201.818 240.418 201.221C239.887 200.623 239.621 199.832 239.621 198.848V198.771ZM240.711 198.9C240.711 199.604 240.873 200.168 241.197 200.594C241.525 201.02 241.963 201.232 242.51 201.232C243.061 201.232 243.498 201.018 243.822 200.588C244.146 200.154 244.309 199.549 244.309 198.771C244.309 198.076 244.143 197.514 243.811 197.084C243.482 196.65 243.045 196.434 242.498 196.434C241.963 196.434 241.531 196.646 241.203 197.072C240.875 197.498 240.711 198.107 240.711 198.9ZM246.488 198.777C246.488 197.805 246.719 197.023 247.18 196.434C247.641 195.84 248.244 195.543 248.99 195.543C249.732 195.543 250.32 195.797 250.754 196.305V193H251.838V202H250.842L250.789 201.32C250.355 201.852 249.752 202.117 248.979 202.117C248.244 202.117 247.645 201.816 247.18 201.215C246.719 200.613 246.488 199.828 246.488 198.859V198.777ZM247.572 198.9C247.572 199.619 247.721 200.182 248.018 200.588C248.314 200.994 248.725 201.197 249.248 201.197C249.936 201.197 250.438 200.889 250.754 200.271V197.359C250.43 196.762 249.932 196.463 249.26 196.463C248.729 196.463 248.314 196.668 248.018 197.078C247.721 197.488 247.572 198.096 247.572 198.9ZM255.6 200.412L257.076 195.66H258.236L255.688 202.979C255.293 204.033 254.666 204.561 253.807 204.561L253.602 204.543L253.197 204.467V203.588L253.49 203.611C253.857 203.611 254.143 203.537 254.346 203.389C254.553 203.24 254.723 202.969 254.855 202.574L255.096 201.93L252.834 195.66H254.018L255.6 200.412Z" fill="#00343E"/>
<rect x="248.5" y="91.5" width="117" height="49" rx="4.5" fill="#D2F0E9" stroke="#00343E" stroke-dasharray="2 2"/>
<path d="M281.998 119.432C281.998 119.244 282.053 119.088 282.162 118.963C282.275 118.838 282.443 118.775 282.666 118.775C282.889 118.775 283.057 118.838 283.17 118.963C283.287 119.088 283.346 119.244 283.346 119.432C283.346 119.611 283.287 119.762 283.17 119.883C283.057 120.004 282.889 120.064 282.666 120.064C282.443 120.064 282.275 120.004 282.162 119.883C282.053 119.762 281.998 119.611 281.998 119.432ZM284.875 116.777C284.875 115.805 285.105 115.023 285.566 114.434C286.027 113.84 286.631 113.543 287.377 113.543C288.119 113.543 288.707 113.797 289.141 114.305V111H290.225V120H289.229L289.176 119.32C288.742 119.852 288.139 120.117 287.365 120.117C286.631 120.117 286.031 119.816 285.566 119.215C285.105 118.613 284.875 117.828 284.875 116.859V116.777ZM285.959 116.9C285.959 117.619 286.107 118.182 286.404 118.588C286.701 118.994 287.111 119.197 287.635 119.197C288.322 119.197 288.824 118.889 289.141 118.271V115.359C288.816 114.762 288.318 114.463 287.646 114.463C287.115 114.463 286.701 114.668 286.404 115.078C286.107 115.488 285.959 116.096 285.959 116.9ZM292.938 113.66L292.973 114.457C293.457 113.848 294.09 113.543 294.871 113.543C296.211 113.543 296.887 114.299 296.898 115.811V120H295.814V115.805C295.811 115.348 295.705 115.01 295.498 114.791C295.295 114.572 294.977 114.463 294.543 114.463C294.191 114.463 293.883 114.557 293.617 114.744C293.352 114.932 293.145 115.178 292.996 115.482V120H291.912V113.66H292.938ZM303.9 116.9C303.9 117.869 303.678 118.648 303.232 119.238C302.787 119.824 302.189 120.117 301.439 120.117C300.639 120.117 300.02 119.834 299.582 119.268L299.529 120H298.533V111H299.617V114.357C300.055 113.814 300.658 113.543 301.428 113.543C302.197 113.543 302.801 113.834 303.238 114.416C303.68 114.998 303.9 115.795 303.9 116.807V116.9ZM302.816 116.777C302.816 116.039 302.674 115.469 302.389 115.066C302.104 114.664 301.693 114.463 301.158 114.463C300.443 114.463 299.93 114.795 299.617 115.459V118.201C299.949 118.865 300.467 119.197 301.17 119.197C301.689 119.197 302.094 118.996 302.383 118.594C302.672 118.191 302.816 117.586 302.816 116.777ZM307.527 116.818H304.668V115.934H307.527V116.818ZM312.279 118.318C312.279 118.025 312.168 117.799 311.945 117.639C311.727 117.475 311.342 117.334 310.791 117.217C310.244 117.1 309.809 116.959 309.484 116.795C309.164 116.631 308.926 116.436 308.77 116.209C308.617 115.982 308.541 115.713 308.541 115.4C308.541 114.881 308.76 114.441 309.197 114.082C309.639 113.723 310.201 113.543 310.885 113.543C311.604 113.543 312.186 113.729 312.631 114.1C313.08 114.471 313.305 114.945 313.305 115.523H312.215C312.215 115.227 312.088 114.971 311.834 114.756C311.584 114.541 311.268 114.434 310.885 114.434C310.49 114.434 310.182 114.52 309.959 114.691C309.736 114.863 309.625 115.088 309.625 115.365C309.625 115.627 309.729 115.824 309.936 115.957C310.143 116.09 310.516 116.217 311.055 116.338C311.598 116.459 312.037 116.604 312.373 116.771C312.709 116.939 312.957 117.143 313.117 117.381C313.281 117.615 313.363 117.902 313.363 118.242C313.363 118.809 313.137 119.264 312.684 119.607C312.23 119.947 311.643 120.117 310.92 120.117C310.412 120.117 309.963 120.027 309.572 119.848C309.182 119.668 308.875 119.418 308.652 119.098C308.434 118.773 308.324 118.424 308.324 118.049H309.408C309.428 118.412 309.572 118.701 309.842 118.916C310.115 119.127 310.475 119.232 310.92 119.232C311.33 119.232 311.658 119.15 311.904 118.986C312.154 118.818 312.279 118.596 312.279 118.318ZM316.246 112.125V113.66H317.43V114.498H316.246V118.43C316.246 118.684 316.299 118.875 316.404 119.004C316.51 119.129 316.689 119.191 316.943 119.191C317.068 119.191 317.24 119.168 317.459 119.121V120C317.174 120.078 316.896 120.117 316.627 120.117C316.143 120.117 315.777 119.971 315.531 119.678C315.285 119.385 315.162 118.969 315.162 118.43V114.498H314.008V113.66H315.162V112.125H316.246ZM320.775 118.412L322.252 113.66H323.412L320.863 120.979C320.469 122.033 319.842 122.561 318.982 122.561L318.777 122.543L318.373 122.467V121.588L318.666 121.611C319.033 121.611 319.318 121.537 319.521 121.389C319.729 121.24 319.898 120.969 320.031 120.574L320.271 119.93L318.01 113.66H319.193L320.775 118.412ZM325.562 120H324.479V111H325.562V120ZM329.934 120.117C329.074 120.117 328.375 119.836 327.836 119.273C327.297 118.707 327.027 117.951 327.027 117.006V116.807C327.027 116.178 327.146 115.617 327.385 115.125C327.627 114.629 327.963 114.242 328.393 113.965C328.826 113.684 329.295 113.543 329.799 113.543C330.623 113.543 331.264 113.814 331.721 114.357C332.178 114.9 332.406 115.678 332.406 116.689V117.141H328.111C328.127 117.766 328.309 118.271 328.656 118.658C329.008 119.041 329.453 119.232 329.992 119.232C330.375 119.232 330.699 119.154 330.965 118.998C331.23 118.842 331.463 118.635 331.662 118.377L332.324 118.893C331.793 119.709 330.996 120.117 329.934 120.117ZM329.799 114.434C329.361 114.434 328.994 114.594 328.697 114.914C328.4 115.23 328.217 115.676 328.146 116.25H331.322V116.168C331.291 115.617 331.143 115.191 330.877 114.891C330.611 114.586 330.252 114.434 329.799 114.434Z" fill="#00343E"/>
<path d="M397.617 282.777C397.617 281.805 397.848 281.023 398.309 280.434C398.77 279.84 399.373 279.543 400.119 279.543C400.861 279.543 401.449 279.797 401.883 280.305V277H402.967V286H401.971L401.918 285.32C401.484 285.852 400.881 286.117 400.107 286.117C399.373 286.117 398.773 285.816 398.309 285.215C397.848 284.613 397.617 283.828 397.617 282.859V282.777ZM398.701 282.9C398.701 283.619 398.85 284.182 399.146 284.588C399.443 284.994 399.854 285.197 400.377 285.197C401.064 285.197 401.566 284.889 401.883 284.271V281.359C401.559 280.762 401.061 280.463 400.389 280.463C399.857 280.463 399.443 280.668 399.146 281.078C398.85 281.488 398.701 282.096 398.701 282.9ZM405.68 279.66L405.715 280.457C406.199 279.848 406.832 279.543 407.613 279.543C408.953 279.543 409.629 280.299 409.641 281.811V286H408.557V281.805C408.553 281.348 408.447 281.01 408.24 280.791C408.037 280.572 407.719 280.463 407.285 280.463C406.934 280.463 406.625 280.557 406.359 280.744C406.094 280.932 405.887 281.178 405.738 281.482V286H404.654V279.66H405.68ZM416.643 282.9C416.643 283.869 416.42 284.648 415.975 285.238C415.529 285.824 414.932 286.117 414.182 286.117C413.381 286.117 412.762 285.834 412.324 285.268L412.271 286H411.275V277H412.359V280.357C412.797 279.814 413.4 279.543 414.17 279.543C414.939 279.543 415.543 279.834 415.98 280.416C416.422 280.998 416.643 281.795 416.643 282.807V282.9ZM415.559 282.777C415.559 282.039 415.416 281.469 415.131 281.066C414.846 280.664 414.436 280.463 413.9 280.463C413.186 280.463 412.672 280.795 412.359 281.459V284.201C412.691 284.865 413.209 285.197 413.912 285.197C414.432 285.197 414.836 284.996 415.125 284.594C415.414 284.191 415.559 283.586 415.559 282.777ZM420.27 282.818H417.41V281.934H420.27V282.818ZM425.244 285.373C424.822 285.869 424.203 286.117 423.387 286.117C422.711 286.117 422.195 285.922 421.84 285.531C421.488 285.137 421.311 284.555 421.307 283.785V279.66H422.391V283.756C422.391 284.717 422.781 285.197 423.562 285.197C424.391 285.197 424.941 284.889 425.215 284.271V279.66H426.299V286H425.268L425.244 285.373ZM429.129 286H428.045V279.66H429.129V286ZM427.957 277.979C427.957 277.803 428.01 277.654 428.115 277.533C428.225 277.412 428.385 277.352 428.596 277.352C428.807 277.352 428.967 277.412 429.076 277.533C429.186 277.654 429.24 277.803 429.24 277.979C429.24 278.154 429.186 278.301 429.076 278.418C428.967 278.535 428.807 278.594 428.596 278.594C428.385 278.594 428.225 278.535 428.115 278.418C428.01 278.301 427.957 278.154 427.957 277.979ZM433.125 282.818H430.266V281.934H433.125V282.818ZM435.363 286H434.279V277H435.363V286ZM438.281 286H437.197V279.66H438.281V286ZM437.109 277.979C437.109 277.803 437.162 277.654 437.268 277.533C437.377 277.412 437.537 277.352 437.748 277.352C437.959 277.352 438.119 277.412 438.229 277.533C438.338 277.654 438.393 277.803 438.393 277.979C438.393 278.154 438.338 278.301 438.229 278.418C438.119 278.535 437.959 278.594 437.748 278.594C437.537 278.594 437.377 278.535 437.268 278.418C437.162 278.301 437.109 278.154 437.109 277.979ZM445.389 282.9C445.389 283.869 445.166 284.648 444.721 285.238C444.275 285.824 443.678 286.117 442.928 286.117C442.127 286.117 441.508 285.834 441.07 285.268L441.018 286H440.021V277H441.105V280.357C441.543 279.814 442.146 279.543 442.916 279.543C443.686 279.543 444.289 279.834 444.727 280.416C445.168 280.998 445.389 281.795 445.389 282.807V282.9ZM444.305 282.777C444.305 282.039 444.162 281.469 443.877 281.066C443.592 280.664 443.182 280.463 442.646 280.463C441.932 280.463 441.418 280.795 441.105 281.459V284.201C441.438 284.865 441.955 285.197 442.658 285.197C443.178 285.197 443.582 284.996 443.871 284.594C444.16 284.191 444.305 283.586 444.305 282.777Z" fill="#00343E"/>
<path d="M396.012 116.777C396.012 115.805 396.242 115.023 396.703 114.434C397.164 113.84 397.768 113.543 398.514 113.543C399.256 113.543 399.844 113.797 400.277 114.305V111H401.361V120H400.365L400.312 119.32C399.879 119.852 399.275 120.117 398.502 120.117C397.768 120.117 397.168 119.816 396.703 119.215C396.242 118.613 396.012 117.828 396.012 116.859V116.777ZM397.096 116.9C397.096 117.619 397.244 118.182 397.541 118.588C397.838 118.994 398.248 119.197 398.771 119.197C399.459 119.197 399.961 118.889 400.277 118.271V115.359C399.953 114.762 399.455 114.463 398.783 114.463C398.252 114.463 397.838 114.668 397.541 115.078C397.244 115.488 397.096 116.096 397.096 116.9ZM404.074 113.66L404.109 114.457C404.594 113.848 405.227 113.543 406.008 113.543C407.348 113.543 408.023 114.299 408.035 115.811V120H406.951V115.805C406.947 115.348 406.842 115.01 406.635 114.791C406.432 114.572 406.113 114.463 405.68 114.463C405.328 114.463 405.02 114.557 404.754 114.744C404.488 114.932 404.281 115.178 404.133 115.482V120H403.049V113.66H404.074ZM415.037 116.9C415.037 117.869 414.814 118.648 414.369 119.238C413.924 119.824 413.326 120.117 412.576 120.117C411.775 120.117 411.156 119.834 410.719 119.268L410.666 120H409.67V111H410.754V114.357C411.191 113.814 411.795 113.543 412.564 113.543C413.334 113.543 413.938 113.834 414.375 114.416C414.816 114.998 415.037 115.795 415.037 116.807V116.9ZM413.953 116.777C413.953 116.039 413.811 115.469 413.525 115.066C413.24 114.664 412.83 114.463 412.295 114.463C411.58 114.463 411.066 114.795 410.754 115.459V118.201C411.086 118.865 411.604 119.197 412.307 119.197C412.826 119.197 413.23 118.996 413.52 118.594C413.809 118.191 413.953 117.586 413.953 116.777ZM418.664 116.818H415.805V115.934H418.664V116.818ZM421.195 112.125V113.66H422.379V114.498H421.195V118.43C421.195 118.684 421.248 118.875 421.354 119.004C421.459 119.129 421.639 119.191 421.893 119.191C422.018 119.191 422.189 119.168 422.408 119.121V120C422.123 120.078 421.846 120.117 421.576 120.117C421.092 120.117 420.727 119.971 420.48 119.678C420.234 119.385 420.111 118.969 420.111 118.43V114.498H418.957V113.66H420.111V112.125H421.195ZM424.734 114.428C425.215 113.838 425.84 113.543 426.609 113.543C427.949 113.543 428.625 114.299 428.637 115.811V120H427.553V115.805C427.549 115.348 427.443 115.01 427.236 114.791C427.033 114.572 426.715 114.463 426.281 114.463C425.93 114.463 425.621 114.557 425.355 114.744C425.09 114.932 424.883 115.178 424.734 115.482V120H423.65V111H424.734V114.428ZM432.891 120.117C432.031 120.117 431.332 119.836 430.793 119.273C430.254 118.707 429.984 117.951 429.984 117.006V116.807C429.984 116.178 430.104 115.617 430.342 115.125C430.584 114.629 430.92 114.242 431.35 113.965C431.783 113.684 432.252 113.543 432.756 113.543C433.58 113.543 434.221 113.814 434.678 114.357C435.135 114.9 435.363 115.678 435.363 116.689V117.141H431.068C431.084 117.766 431.266 118.271 431.613 118.658C431.965 119.041 432.41 119.232 432.949 119.232C433.332 119.232 433.656 119.154 433.922 118.998C434.188 118.842 434.42 118.635 434.619 118.377L435.281 118.893C434.75 119.709 433.953 120.117 432.891 120.117ZM432.756 114.434C432.318 114.434 431.951 114.594 431.654 114.914C431.357 115.23 431.174 115.676 431.104 116.25H434.279V116.168C434.248 115.617 434.1 115.191 433.834 114.891C433.568 114.586 433.209 114.434 432.756 114.434ZM437.643 113.66L437.672 114.363C438.137 113.816 438.764 113.543 439.553 113.543C440.439 113.543 441.043 113.883 441.363 114.562C441.574 114.258 441.848 114.012 442.184 113.824C442.523 113.637 442.924 113.543 443.385 113.543C444.775 113.543 445.482 114.279 445.506 115.752V120H444.422V115.816C444.422 115.363 444.318 115.025 444.111 114.803C443.904 114.576 443.557 114.463 443.068 114.463C442.666 114.463 442.332 114.584 442.066 114.826C441.801 115.064 441.646 115.387 441.604 115.793V120H440.514V115.846C440.514 114.924 440.062 114.463 439.16 114.463C438.449 114.463 437.963 114.766 437.701 115.371V120H436.617V113.66H437.643ZM449.777 120.117C448.918 120.117 448.219 119.836 447.68 119.273C447.141 118.707 446.871 117.951 446.871 117.006V116.807C446.871 116.178 446.99 115.617 447.229 115.125C447.471 114.629 447.807 114.242 448.236 113.965C448.67 113.684 449.139 113.543 449.643 113.543C450.467 113.543 451.107 113.814 451.564 114.357C452.021 114.9 452.25 115.678 452.25 116.689V117.141H447.955C447.971 117.766 448.152 118.271 448.5 118.658C448.852 119.041 449.297 119.232 449.836 119.232C450.219 119.232 450.543 119.154 450.809 118.998C451.074 118.842 451.307 118.635 451.506 118.377L452.168 118.893C451.637 119.709 450.84 120.117 449.777 120.117ZM449.643 114.434C449.205 114.434 448.838 114.594 448.541 114.914C448.244 115.23 448.061 115.676 447.99 116.25H451.166V116.168C451.135 115.617 450.986 115.191 450.721 114.891C450.455 114.586 450.096 114.434 449.643 114.434ZM455.766 116.818H452.906V115.934H455.766V116.818ZM460.74 119.373C460.318 119.869 459.699 120.117 458.883 120.117C458.207 120.117 457.691 119.922 457.336 119.531C456.984 119.137 456.807 118.555 456.803 117.785V113.66H457.887V117.756C457.887 118.717 458.277 119.197 459.059 119.197C459.887 119.197 460.438 118.889 460.711 118.271V113.66H461.795V120H460.764L460.74 119.373ZM464.625 120H463.541V113.66H464.625V120ZM463.453 111.979C463.453 111.803 463.506 111.654 463.611 111.533C463.721 111.412 463.881 111.352 464.092 111.352C464.303 111.352 464.463 111.412 464.572 111.533C464.682 111.654 464.736 111.803 464.736 111.979C464.736 112.154 464.682 112.301 464.572 112.418C464.463 112.535 464.303 112.594 464.092 112.594C463.881 112.594 463.721 112.535 463.611 112.418C463.506 112.301 463.453 112.154 463.453 111.979Z" fill="#00343E"/>
<rect x="125" y="287" width="240" height="48" rx="4" fill="#A5E1D2"/>
<path d="M219.506 311.66V315H218.381V306.469H221.527C222.461 306.469 223.191 306.707 223.719 307.184C224.25 307.66 224.516 308.291 224.516 309.076C224.516 309.904 224.256 310.543 223.736 310.992C223.221 311.438 222.48 311.66 221.516 311.66H219.506ZM219.506 310.74H221.527C222.129 310.74 222.59 310.6 222.91 310.318C223.23 310.033 223.391 309.623 223.391 309.088C223.391 308.58 223.23 308.174 222.91 307.869C222.59 307.564 222.15 307.406 221.592 307.395H219.506V310.74ZM228.846 309.633C228.682 309.605 228.504 309.592 228.312 309.592C227.602 309.592 227.119 309.895 226.865 310.5V315H225.781V308.66H226.836L226.854 309.393C227.209 308.826 227.713 308.543 228.365 308.543C228.576 308.543 228.736 308.57 228.846 308.625V309.633ZM229.443 311.771C229.443 311.15 229.564 310.592 229.807 310.096C230.053 309.6 230.393 309.217 230.826 308.947C231.264 308.678 231.762 308.543 232.32 308.543C233.184 308.543 233.881 308.842 234.412 309.439C234.947 310.037 235.215 310.832 235.215 311.824V311.9C235.215 312.518 235.096 313.072 234.857 313.564C234.623 314.053 234.285 314.434 233.844 314.707C233.406 314.98 232.902 315.117 232.332 315.117C231.473 315.117 230.775 314.818 230.24 314.221C229.709 313.623 229.443 312.832 229.443 311.848V311.771ZM230.533 311.9C230.533 312.604 230.695 313.168 231.02 313.594C231.348 314.02 231.785 314.232 232.332 314.232C232.883 314.232 233.32 314.018 233.645 313.588C233.969 313.154 234.131 312.549 234.131 311.771C234.131 311.076 233.965 310.514 233.633 310.084C233.305 309.65 232.867 309.434 232.32 309.434C231.785 309.434 231.354 309.646 231.025 310.072C230.697 310.498 230.533 311.107 230.533 311.9ZM241.93 311.9C241.93 312.865 241.709 313.643 241.268 314.232C240.826 314.822 240.229 315.117 239.475 315.117C238.705 315.117 238.1 314.873 237.658 314.385V317.438H236.574V308.66H237.564L237.617 309.363C238.059 308.816 238.672 308.543 239.457 308.543C240.219 308.543 240.82 308.83 241.262 309.404C241.707 309.979 241.93 310.777 241.93 311.801V311.9ZM240.846 311.777C240.846 311.062 240.693 310.498 240.389 310.084C240.084 309.67 239.666 309.463 239.135 309.463C238.479 309.463 237.986 309.754 237.658 310.336V313.365C237.982 313.943 238.479 314.232 239.146 314.232C239.666 314.232 240.078 314.027 240.383 313.617C240.691 313.203 240.846 312.59 240.846 311.777ZM245.943 315.117C245.084 315.117 244.385 314.836 243.846 314.273C243.307 313.707 243.037 312.951 243.037 312.006V311.807C243.037 311.178 243.156 310.617 243.395 310.125C243.637 309.629 243.973 309.242 244.402 308.965C244.836 308.684 245.305 308.543 245.809 308.543C246.633 308.543 247.273 308.814 247.73 309.357C248.188 309.9 248.416 310.678 248.416 311.689V312.141H244.121C244.137 312.766 244.318 313.271 244.666 313.658C245.018 314.041 245.463 314.232 246.002 314.232C246.385 314.232 246.709 314.154 246.975 313.998C247.24 313.842 247.473 313.635 247.672 313.377L248.334 313.893C247.803 314.709 247.006 315.117 245.943 315.117ZM245.809 309.434C245.371 309.434 245.004 309.594 244.707 309.914C244.41 310.23 244.227 310.676 244.156 311.25H247.332V311.168C247.301 310.617 247.152 310.191 246.887 309.891C246.621 309.586 246.262 309.434 245.809 309.434ZM252.74 309.633C252.576 309.605 252.398 309.592 252.207 309.592C251.496 309.592 251.014 309.895 250.76 310.5V315H249.676V308.66H250.73L250.748 309.393C251.104 308.826 251.607 308.543 252.26 308.543C252.471 308.543 252.631 308.57 252.74 308.625V309.633ZM255.506 307.125V308.66H256.689V309.498H255.506V313.43C255.506 313.684 255.559 313.875 255.664 314.004C255.77 314.129 255.949 314.191 256.203 314.191C256.328 314.191 256.5 314.168 256.719 314.121V315C256.434 315.078 256.156 315.117 255.887 315.117C255.402 315.117 255.037 314.971 254.791 314.678C254.545 314.385 254.422 313.969 254.422 313.43V309.498H253.268V308.66H254.422V307.125H255.506ZM259.139 315H258.055V308.66H259.139V315ZM257.967 306.979C257.967 306.803 258.02 306.654 258.125 306.533C258.234 306.412 258.395 306.352 258.605 306.352C258.816 306.352 258.977 306.412 259.086 306.533C259.195 306.654 259.25 306.803 259.25 306.979C259.25 307.154 259.195 307.301 259.086 307.418C258.977 307.535 258.816 307.594 258.605 307.594C258.395 307.594 258.234 307.535 258.125 307.418C258.02 307.301 257.967 307.154 257.967 306.979ZM263.51 315.117C262.65 315.117 261.951 314.836 261.412 314.273C260.873 313.707 260.604 312.951 260.604 312.006V311.807C260.604 311.178 260.723 310.617 260.961 310.125C261.203 309.629 261.539 309.242 261.969 308.965C262.402 308.684 262.871 308.543 263.375 308.543C264.199 308.543 264.84 308.814 265.297 309.357C265.754 309.9 265.982 310.678 265.982 311.689V312.141H261.688C261.703 312.766 261.885 313.271 262.232 313.658C262.584 314.041 263.029 314.232 263.568 314.232C263.951 314.232 264.275 314.154 264.541 313.998C264.807 313.842 265.039 313.635 265.238 313.377L265.9 313.893C265.369 314.709 264.572 315.117 263.51 315.117ZM263.375 309.434C262.938 309.434 262.57 309.594 262.273 309.914C261.977 310.23 261.793 310.676 261.723 311.25H264.898V311.168C264.867 310.617 264.719 310.191 264.453 309.891C264.188 309.586 263.828 309.434 263.375 309.434ZM270.934 313.318C270.934 313.025 270.822 312.799 270.6 312.639C270.381 312.475 269.996 312.334 269.445 312.217C268.898 312.1 268.463 311.959 268.139 311.795C267.818 311.631 267.58 311.436 267.424 311.209C267.271 310.982 267.195 310.713 267.195 310.4C267.195 309.881 267.414 309.441 267.852 309.082C268.293 308.723 268.855 308.543 269.539 308.543C270.258 308.543 270.84 308.729 271.285 309.1C271.734 309.471 271.959 309.945 271.959 310.523H270.869C270.869 310.227 270.742 309.971 270.488 309.756C270.238 309.541 269.922 309.434 269.539 309.434C269.145 309.434 268.836 309.52 268.613 309.691C268.391 309.863 268.279 310.088 268.279 310.365C268.279 310.627 268.383 310.824 268.59 310.957C268.797 311.09 269.17 311.217 269.709 311.338C270.252 311.459 270.691 311.604 271.027 311.771C271.363 311.939 271.611 312.143 271.771 312.381C271.936 312.615 272.018 312.902 272.018 313.242C272.018 313.809 271.791 314.264 271.338 314.607C270.885 314.947 270.297 315.117 269.574 315.117C269.066 315.117 268.617 315.027 268.227 314.848C267.836 314.668 267.529 314.418 267.307 314.098C267.088 313.773 266.979 313.424 266.979 313.049H268.062C268.082 313.412 268.227 313.701 268.496 313.916C268.77 314.127 269.129 314.232 269.574 314.232C269.984 314.232 270.312 314.15 270.559 313.986C270.809 313.818 270.934 313.596 270.934 313.318Z" fill="#00343E"/>
<rect x="12.5" y="175.5" width="81" height="217" rx="4.5" fill="#D2F0E9" stroke="#00343E" stroke-dasharray="2 2"/>
<path d="M29.6172 280.293C29.5117 281.195 29.1777 281.893 28.6152 282.385C28.0566 282.873 27.3125 283.117 26.3828 283.117C25.375 283.117 24.5664 282.756 23.957 282.033C23.3516 281.311 23.0488 280.344 23.0488 279.133V278.312C23.0488 277.52 23.1895 276.822 23.4707 276.221C23.7559 275.619 24.1582 275.158 24.6777 274.838C25.1973 274.514 25.7988 274.352 26.4824 274.352C27.3887 274.352 28.1152 274.605 28.6621 275.113C29.209 275.617 29.5273 276.316 29.6172 277.211H28.4863C28.3887 276.531 28.1758 276.039 27.8477 275.734C27.5234 275.43 27.0684 275.277 26.4824 275.277C25.7637 275.277 25.1992 275.543 24.7891 276.074C24.3828 276.605 24.1797 277.361 24.1797 278.342V279.168C24.1797 280.094 24.373 280.83 24.7598 281.377C25.1465 281.924 25.6875 282.197 26.3828 282.197C27.0078 282.197 27.4863 282.057 27.8184 281.775C28.1543 281.49 28.377 280.996 28.4863 280.293H29.6172ZM30.7012 279.771C30.7012 279.15 30.8223 278.592 31.0645 278.096C31.3105 277.6 31.6504 277.217 32.084 276.947C32.5215 276.678 33.0195 276.543 33.5781 276.543C34.4414 276.543 35.1387 276.842 35.6699 277.439C36.2051 278.037 36.4727 278.832 36.4727 279.824V279.9C36.4727 280.518 36.3535 281.072 36.1152 281.564C35.8809 282.053 35.543 282.434 35.1016 282.707C34.6641 282.98 34.1602 283.117 33.5898 283.117C32.7305 283.117 32.0332 282.818 31.498 282.221C30.9668 281.623 30.7012 280.832 30.7012 279.848V279.771ZM31.791 279.9C31.791 280.604 31.9531 281.168 32.2773 281.594C32.6055 282.02 33.043 282.232 33.5898 282.232C34.1406 282.232 34.5781 282.018 34.9023 281.588C35.2266 281.154 35.3887 280.549 35.3887 279.771C35.3887 279.076 35.2227 278.514 34.8906 278.084C34.5625 277.65 34.125 277.434 33.5781 277.434C33.043 277.434 32.6113 277.646 32.2832 278.072C31.9551 278.498 31.791 279.107 31.791 279.9ZM38.8516 276.66L38.8809 277.363C39.3457 276.816 39.9727 276.543 40.7617 276.543C41.6484 276.543 42.252 276.883 42.5723 277.562C42.7832 277.258 43.0566 277.012 43.3926 276.824C43.7324 276.637 44.1328 276.543 44.5938 276.543C45.9844 276.543 46.6914 277.279 46.7148 278.752V283H45.6309V278.816C45.6309 278.363 45.5273 278.025 45.3203 277.803C45.1133 277.576 44.7656 277.463 44.2773 277.463C43.875 277.463 43.541 277.584 43.2754 277.826C43.0098 278.064 42.8555 278.387 42.8125 278.793V283H41.7227V278.846C41.7227 277.924 41.2715 277.463 40.3691 277.463C39.6582 277.463 39.1719 277.766 38.9102 278.371V283H37.8262V276.66H38.8516ZM53.7109 279.9C53.7109 280.865 53.4902 281.643 53.0488 282.232C52.6074 282.822 52.0098 283.117 51.2559 283.117C50.4863 283.117 49.8809 282.873 49.4395 282.385V285.438H48.3555V276.66H49.3457L49.3984 277.363C49.8398 276.816 50.4531 276.543 51.2383 276.543C52 276.543 52.6016 276.83 53.043 277.404C53.4883 277.979 53.7109 278.777 53.7109 279.801V279.9ZM52.627 279.777C52.627 279.062 52.4746 278.498 52.1699 278.084C51.8652 277.67 51.4473 277.463 50.916 277.463C50.2598 277.463 49.7676 277.754 49.4395 278.336V281.365C49.7637 281.943 50.2598 282.232 50.9277 282.232C51.4473 282.232 51.8594 282.027 52.1641 281.617C52.4727 281.203 52.627 280.59 52.627 279.777ZM54.8066 279.771C54.8066 279.15 54.9277 278.592 55.1699 278.096C55.416 277.6 55.7559 277.217 56.1895 276.947C56.627 276.678 57.125 276.543 57.6836 276.543C58.5469 276.543 59.2441 276.842 59.7754 277.439C60.3105 278.037 60.5781 278.832 60.5781 279.824V279.9C60.5781 280.518 60.459 281.072 60.2207 281.564C59.9863 282.053 59.6484 282.434 59.207 282.707C58.7695 282.98 58.2656 283.117 57.6953 283.117C56.8359 283.117 56.1387 282.818 55.6035 282.221C55.0723 281.623 54.8066 280.832 54.8066 279.848V279.771ZM55.8965 279.9C55.8965 280.604 56.0586 281.168 56.3828 281.594C56.7109 282.02 57.1484 282.232 57.6953 282.232C58.2461 282.232 58.6836 282.018 59.0078 281.588C59.332 281.154 59.4941 280.549 59.4941 279.771C59.4941 279.076 59.3281 278.514 58.9961 278.084C58.668 277.65 58.2305 277.434 57.6836 277.434C57.1484 277.434 56.7168 277.646 56.3887 278.072C56.0605 278.498 55.8965 279.107 55.8965 279.9ZM62.9629 276.66L62.998 277.457C63.4824 276.848 64.1152 276.543 64.8965 276.543C66.2363 276.543 66.9121 277.299 66.9238 278.811V283H65.8398V278.805C65.8359 278.348 65.7305 278.01 65.5234 277.791C65.3203 277.572 65.002 277.463 64.5684 277.463C64.2168 277.463 63.9082 277.557 63.6426 277.744C63.377 277.932 63.1699 278.178 63.0215 278.482V283H61.9375V276.66H62.9629ZM71.1895 283.117C70.3301 283.117 69.6309 282.836 69.0918 282.273C68.5527 281.707 68.2832 280.951 68.2832 280.006V279.807C68.2832 279.178 68.4023 278.617 68.6406 278.125C68.8828 277.629 69.2188 277.242 69.6484 276.965C70.082 276.684 70.5508 276.543 71.0547 276.543C71.8789 276.543 72.5195 276.814 72.9766 277.357C73.4336 277.9 73.6621 278.678 73.6621 279.689V280.141H69.3672C69.3828 280.766 69.5645 281.271 69.9121 281.658C70.2637 282.041 70.709 282.232 71.248 282.232C71.6309 282.232 71.9551 282.154 72.2207 281.998C72.4863 281.842 72.7188 281.635 72.918 281.377L73.5801 281.893C73.0488 282.709 72.252 283.117 71.1895 283.117ZM71.0547 277.434C70.6172 277.434 70.25 277.594 69.9531 277.914C69.6562 278.23 69.4727 278.676 69.4023 279.25H72.5781V279.168C72.5469 278.617 72.3984 278.191 72.1328 277.891C71.8672 277.586 71.5078 277.434 71.0547 277.434ZM75.9473 276.66L75.9824 277.457C76.4668 276.848 77.0996 276.543 77.8809 276.543C79.2207 276.543 79.8965 277.299 79.9082 278.811V283H78.8242V278.805C78.8203 278.348 78.7148 278.01 78.5078 277.791C78.3047 277.572 77.9863 277.463 77.5527 277.463C77.2012 277.463 76.8926 277.557 76.627 277.744C76.3613 277.932 76.1543 278.178 76.0059 278.482V283H74.9219V276.66H75.9473ZM83.0137 275.125V276.66H84.1973V277.498H83.0137V281.43C83.0137 281.684 83.0664 281.875 83.1719 282.004C83.2773 282.129 83.457 282.191 83.7109 282.191C83.8359 282.191 84.0078 282.168 84.2266 282.121V283C83.9414 283.078 83.6641 283.117 83.3945 283.117C82.9102 283.117 82.5449 282.971 82.2988 282.678C82.0527 282.385 81.9297 281.969 81.9297 281.43V277.498H80.7754V276.66H81.9297V275.125H83.0137Z" fill="#00343E"/>
<rect x="13" y="88" width="80" height="56" rx="4" fill="#008484"/>
<path d="M38.4883 104.395H35.7461V112H34.627V104.395H31.8906V103.469H38.4883V104.395ZM40.668 106.428C41.1484 105.838 41.7734 105.543 42.543 105.543C43.8828 105.543 44.5586 106.299 44.5703 107.811V112H43.4863V107.805C43.4824 107.348 43.377 107.01 43.1699 106.791C42.9668 106.572 42.6484 106.463 42.2148 106.463C41.8633 106.463 41.5547 106.557 41.2891 106.744C41.0234 106.932 40.8164 107.178 40.668 107.482V112H39.584V103H40.668V106.428ZM48.8242 112.117C47.9648 112.117 47.2656 111.836 46.7266 111.273C46.1875 110.707 45.918 109.951 45.918 109.006V108.807C45.918 108.178 46.0371 107.617 46.2754 107.125C46.5176 106.629 46.8535 106.242 47.2832 105.965C47.7168 105.684 48.1855 105.543 48.6895 105.543C49.5137 105.543 50.1543 105.814 50.6113 106.357C51.0684 106.9 51.2969 107.678 51.2969 108.689V109.141H47.002C47.0176 109.766 47.1992 110.271 47.5469 110.658C47.8984 111.041 48.3438 111.232 48.8828 111.232C49.2656 111.232 49.5898 111.154 49.8555 110.998C50.1211 110.842 50.3535 110.635 50.5527 110.377L51.2148 110.893C50.6836 111.709 49.8867 112.117 48.8242 112.117ZM48.6895 106.434C48.252 106.434 47.8848 106.594 47.5879 106.914C47.291 107.23 47.1074 107.676 47.0371 108.25H50.2129V108.168C50.1816 107.617 50.0332 107.191 49.7676 106.891C49.502 106.586 49.1426 106.434 48.6895 106.434ZM53.5762 105.66L53.6055 106.363C54.0703 105.816 54.6973 105.543 55.4863 105.543C56.373 105.543 56.9766 105.883 57.2969 106.562C57.5078 106.258 57.7812 106.012 58.1172 105.824C58.457 105.637 58.8574 105.543 59.3184 105.543C60.709 105.543 61.416 106.279 61.4395 107.752V112H60.3555V107.816C60.3555 107.363 60.252 107.025 60.0449 106.803C59.8379 106.576 59.4902 106.463 59.002 106.463C58.5996 106.463 58.2656 106.584 58 106.826C57.7344 107.064 57.5801 107.387 57.5371 107.793V112H56.4473V107.846C56.4473 106.924 55.9961 106.463 55.0938 106.463C54.3828 106.463 53.8965 106.766 53.6348 107.371V112H52.5508V105.66H53.5762ZM65.7109 112.117C64.8516 112.117 64.1523 111.836 63.6133 111.273C63.0742 110.707 62.8047 109.951 62.8047 109.006V108.807C62.8047 108.178 62.9238 107.617 63.1621 107.125C63.4043 106.629 63.7402 106.242 64.1699 105.965C64.6035 105.684 65.0723 105.543 65.5762 105.543C66.4004 105.543 67.041 105.814 67.498 106.357C67.9551 106.9 68.1836 107.678 68.1836 108.689V109.141H63.8887C63.9043 109.766 64.0859 110.271 64.4336 110.658C64.7852 111.041 65.2305 111.232 65.7695 111.232C66.1523 111.232 66.4766 111.154 66.7422 110.998C67.0078 110.842 67.2402 110.635 67.4395 110.377L68.1016 110.893C67.5703 111.709 66.7734 112.117 65.7109 112.117ZM65.5762 106.434C65.1387 106.434 64.7715 106.594 64.4746 106.914C64.1777 107.23 63.9941 107.676 63.9238 108.25H67.0996V108.168C67.0684 107.617 66.9199 107.191 66.6543 106.891C66.3887 106.586 66.0293 106.434 65.5762 106.434ZM69.1797 108.777C69.1797 107.805 69.4102 107.023 69.8711 106.434C70.332 105.84 70.9355 105.543 71.6816 105.543C72.4238 105.543 73.0117 105.797 73.4453 106.305V103H74.5293V112H73.5332L73.4805 111.32C73.0469 111.852 72.4434 112.117 71.6699 112.117C70.9355 112.117 70.3359 111.816 69.8711 111.215C69.4102 110.613 69.1797 109.828 69.1797 108.859V108.777ZM70.2637 108.9C70.2637 109.619 70.4121 110.182 70.709 110.588C71.0059 110.994 71.416 111.197 71.9395 111.197C72.627 111.197 73.1289 110.889 73.4453 110.271V107.359C73.1211 106.762 72.623 106.463 71.9512 106.463C71.4199 106.463 71.0059 106.668 70.709 107.078C70.4121 107.488 70.2637 108.096 70.2637 108.9ZM29.6172 123.293C29.5117 124.195 29.1777 124.893 28.6152 125.385C28.0566 125.873 27.3125 126.117 26.3828 126.117C25.375 126.117 24.5664 125.756 23.957 125.033C23.3516 124.311 23.0488 123.344 23.0488 122.133V121.312C23.0488 120.52 23.1895 119.822 23.4707 119.221C23.7559 118.619 24.1582 118.158 24.6777 117.838C25.1973 117.514 25.7988 117.352 26.4824 117.352C27.3887 117.352 28.1152 117.605 28.6621 118.113C29.209 118.617 29.5273 119.316 29.6172 120.211H28.4863C28.3887 119.531 28.1758 119.039 27.8477 118.734C27.5234 118.43 27.0684 118.277 26.4824 118.277C25.7637 118.277 25.1992 118.543 24.7891 119.074C24.3828 119.605 24.1797 120.361 24.1797 121.342V122.168C24.1797 123.094 24.373 123.83 24.7598 124.377C25.1465 124.924 25.6875 125.197 26.3828 125.197C27.0078 125.197 27.4863 125.057 27.8184 124.775C28.1543 124.49 28.377 123.996 28.4863 123.293H29.6172ZM30.7012 122.771C30.7012 122.15 30.8223 121.592 31.0645 121.096C31.3105 120.6 31.6504 120.217 32.084 119.947C32.5215 119.678 33.0195 119.543 33.5781 119.543C34.4414 119.543 35.1387 119.842 35.6699 120.439C36.2051 121.037 36.4727 121.832 36.4727 122.824V122.9C36.4727 123.518 36.3535 124.072 36.1152 124.564C35.8809 125.053 35.543 125.434 35.1016 125.707C34.6641 125.98 34.1602 126.117 33.5898 126.117C32.7305 126.117 32.0332 125.818 31.498 125.221C30.9668 124.623 30.7012 123.832 30.7012 122.848V122.771ZM31.791 122.9C31.791 123.604 31.9531 124.168 32.2773 124.594C32.6055 125.02 33.043 125.232 33.5898 125.232C34.1406 125.232 34.5781 125.018 34.9023 124.588C35.2266 124.154 35.3887 123.549 35.3887 122.771C35.3887 122.076 35.2227 121.514 34.8906 121.084C34.5625 120.65 34.125 120.434 33.5781 120.434C33.043 120.434 32.6113 120.646 32.2832 121.072C31.9551 121.498 31.791 122.107 31.791 122.9ZM38.8516 119.66L38.8809 120.363C39.3457 119.816 39.9727 119.543 40.7617 119.543C41.6484 119.543 42.252 119.883 42.5723 120.562C42.7832 120.258 43.0566 120.012 43.3926 119.824C43.7324 119.637 44.1328 119.543 44.5938 119.543C45.9844 119.543 46.6914 120.279 46.7148 121.752V126H45.6309V121.816C45.6309 121.363 45.5273 121.025 45.3203 120.803C45.1133 120.576 44.7656 120.463 44.2773 120.463C43.875 120.463 43.541 120.584 43.2754 120.826C43.0098 121.064 42.8555 121.387 42.8125 121.793V126H41.7227V121.846C41.7227 120.924 41.2715 120.463 40.3691 120.463C39.6582 120.463 39.1719 120.766 38.9102 121.371V126H37.8262V119.66H38.8516ZM53.7109 122.9C53.7109 123.865 53.4902 124.643 53.0488 125.232C52.6074 125.822 52.0098 126.117 51.2559 126.117C50.4863 126.117 49.8809 125.873 49.4395 125.385V128.438H48.3555V119.66H49.3457L49.3984 120.363C49.8398 119.816 50.4531 119.543 51.2383 119.543C52 119.543 52.6016 119.83 53.043 120.404C53.4883 120.979 53.7109 121.777 53.7109 122.801V122.9ZM52.627 122.777C52.627 122.062 52.4746 121.498 52.1699 121.084C51.8652 120.67 51.4473 120.463 50.916 120.463C50.2598 120.463 49.7676 120.754 49.4395 121.336V124.365C49.7637 124.943 50.2598 125.232 50.9277 125.232C51.4473 125.232 51.8594 125.027 52.1641 124.617C52.4727 124.203 52.627 123.59 52.627 122.777ZM54.8066 122.771C54.8066 122.15 54.9277 121.592 55.1699 121.096C55.416 120.6 55.7559 120.217 56.1895 119.947C56.627 119.678 57.125 119.543 57.6836 119.543C58.5469 119.543 59.2441 119.842 59.7754 120.439C60.3105 121.037 60.5781 121.832 60.5781 122.824V122.9C60.5781 123.518 60.459 124.072 60.2207 124.564C59.9863 125.053 59.6484 125.434 59.207 125.707C58.7695 125.98 58.2656 126.117 57.6953 126.117C56.8359 126.117 56.1387 125.818 55.6035 125.221C55.0723 124.623 54.8066 123.832 54.8066 122.848V122.771ZM55.8965 122.9C55.8965 123.604 56.0586 124.168 56.3828 124.594C56.7109 125.02 57.1484 125.232 57.6953 125.232C58.2461 125.232 58.6836 125.018 59.0078 124.588C59.332 124.154 59.4941 123.549 59.4941 122.771C59.4941 122.076 59.3281 121.514 58.9961 121.084C58.668 120.65 58.2305 120.434 57.6836 120.434C57.1484 120.434 56.7168 120.646 56.3887 121.072C56.0605 121.498 55.8965 122.107 55.8965 122.9ZM62.9629 119.66L62.998 120.457C63.4824 119.848 64.1152 119.543 64.8965 119.543C66.2363 119.543 66.9121 120.299 66.9238 121.811V126H65.8398V121.805C65.8359 121.348 65.7305 121.01 65.5234 120.791C65.3203 120.572 65.002 120.463 64.5684 120.463C64.2168 120.463 63.9082 120.557 63.6426 120.744C63.377 120.932 63.1699 121.178 63.0215 121.482V126H61.9375V119.66H62.9629ZM71.1895 126.117C70.3301 126.117 69.6309 125.836 69.0918 125.273C68.5527 124.707 68.2832 123.951 68.2832 123.006V122.807C68.2832 122.178 68.4023 121.617 68.6406 121.125C68.8828 120.629 69.2188 120.242 69.6484 119.965C70.082 119.684 70.5508 119.543 71.0547 119.543C71.8789 119.543 72.5195 119.814 72.9766 120.357C73.4336 120.9 73.6621 121.678 73.6621 122.689V123.141H69.3672C69.3828 123.766 69.5645 124.271 69.9121 124.658C70.2637 125.041 70.709 125.232 71.248 125.232C71.6309 125.232 71.9551 125.154 72.2207 124.998C72.4863 124.842 72.7188 124.635 72.918 124.377L73.5801 124.893C73.0488 125.709 72.252 126.117 71.1895 126.117ZM71.0547 120.434C70.6172 120.434 70.25 120.594 69.9531 120.914C69.6562 121.23 69.4727 121.676 69.4023 122.25H72.5781V122.168C72.5469 121.617 72.3984 121.191 72.1328 120.891C71.8672 120.586 71.5078 120.434 71.0547 120.434ZM75.9473 119.66L75.9824 120.457C76.4668 119.848 77.0996 119.543 77.8809 119.543C79.2207 119.543 79.8965 120.299 79.9082 121.811V126H78.8242V121.805C78.8203 121.348 78.7148 121.01 78.5078 120.791C78.3047 120.572 77.9863 120.463 77.5527 120.463C77.2012 120.463 76.8926 120.557 76.627 120.744C76.3613 120.932 76.1543 121.178 76.0059 121.482V126H74.9219V119.66H75.9473ZM83.0137 118.125V119.66H84.1973V120.498H83.0137V124.43C83.0137 124.684 83.0664 124.875 83.1719 125.004C83.2773 125.129 83.457 125.191 83.7109 125.191C83.8359 125.191 84.0078 125.168 84.2266 125.121V126C83.9414 126.078 83.6641 126.117 83.3945 126.117C82.9102 126.117 82.5449 125.971 82.2988 125.678C82.0527 125.385 81.9297 124.969 81.9297 124.43V120.498H80.7754V119.66H81.9297V118.125H83.0137Z" fill="white"/>
<rect x="125" y="344" width="240" height="48" rx="4" fill="#A5E1D2"/>
<path d="M234.502 368.549H232.498V372H231.367V363.469H234.191C235.152 363.469 235.891 363.688 236.406 364.125C236.926 364.562 237.186 365.199 237.186 366.035C237.186 366.566 237.041 367.029 236.752 367.424C236.467 367.818 236.068 368.113 235.557 368.309L237.561 371.93V372H236.354L234.502 368.549ZM232.498 367.629H234.227C234.785 367.629 235.229 367.484 235.557 367.195C235.889 366.906 236.055 366.52 236.055 366.035C236.055 365.508 235.896 365.104 235.58 364.822C235.268 364.541 234.814 364.398 234.221 364.395H232.498V367.629ZM241.229 372.117C240.369 372.117 239.67 371.836 239.131 371.273C238.592 370.707 238.322 369.951 238.322 369.006V368.807C238.322 368.178 238.441 367.617 238.68 367.125C238.922 366.629 239.258 366.242 239.688 365.965C240.121 365.684 240.59 365.543 241.094 365.543C241.918 365.543 242.559 365.814 243.016 366.357C243.473 366.9 243.701 367.678 243.701 368.689V369.141H239.406C239.422 369.766 239.604 370.271 239.951 370.658C240.303 371.041 240.748 371.232 241.287 371.232C241.67 371.232 241.994 371.154 242.26 370.998C242.525 370.842 242.758 370.635 242.957 370.377L243.619 370.893C243.088 371.709 242.291 372.117 241.229 372.117ZM241.094 366.434C240.656 366.434 240.289 366.594 239.992 366.914C239.695 367.23 239.512 367.676 239.441 368.25H242.617V368.168C242.586 367.617 242.438 367.191 242.172 366.891C241.906 366.586 241.547 366.434 241.094 366.434ZM248.652 370.318C248.652 370.025 248.541 369.799 248.318 369.639C248.1 369.475 247.715 369.334 247.164 369.217C246.617 369.1 246.182 368.959 245.857 368.795C245.537 368.631 245.299 368.436 245.143 368.209C244.99 367.982 244.914 367.713 244.914 367.4C244.914 366.881 245.133 366.441 245.57 366.082C246.012 365.723 246.574 365.543 247.258 365.543C247.977 365.543 248.559 365.729 249.004 366.1C249.453 366.471 249.678 366.945 249.678 367.523H248.588C248.588 367.227 248.461 366.971 248.207 366.756C247.957 366.541 247.641 366.434 247.258 366.434C246.863 366.434 246.555 366.52 246.332 366.691C246.109 366.863 245.998 367.088 245.998 367.365C245.998 367.627 246.102 367.824 246.309 367.957C246.516 368.09 246.889 368.217 247.428 368.338C247.971 368.459 248.41 368.604 248.746 368.771C249.082 368.939 249.33 369.143 249.49 369.381C249.654 369.615 249.736 369.902 249.736 370.242C249.736 370.809 249.51 371.264 249.057 371.607C248.604 371.947 248.016 372.117 247.293 372.117C246.785 372.117 246.336 372.027 245.945 371.848C245.555 371.668 245.248 371.418 245.025 371.098C244.807 370.773 244.697 370.424 244.697 370.049H245.781C245.801 370.412 245.945 370.701 246.215 370.916C246.488 371.127 246.848 371.232 247.293 371.232C247.703 371.232 248.031 371.15 248.277 370.986C248.527 370.818 248.652 370.596 248.652 370.318ZM253.779 372.117C252.92 372.117 252.221 371.836 251.682 371.273C251.143 370.707 250.873 369.951 250.873 369.006V368.807C250.873 368.178 250.992 367.617 251.23 367.125C251.473 366.629 251.809 366.242 252.238 365.965C252.672 365.684 253.141 365.543 253.645 365.543C254.469 365.543 255.109 365.814 255.566 366.357C256.023 366.9 256.252 367.678 256.252 368.689V369.141H251.957C251.973 369.766 252.154 370.271 252.502 370.658C252.854 371.041 253.299 371.232 253.838 371.232C254.221 371.232 254.545 371.154 254.811 370.998C255.076 370.842 255.309 370.635 255.508 370.377L256.17 370.893C255.639 371.709 254.842 372.117 253.779 372.117ZM253.645 366.434C253.207 366.434 252.84 366.594 252.543 366.914C252.246 367.23 252.062 367.676 251.992 368.25H255.168V368.168C255.137 367.617 254.988 367.191 254.723 366.891C254.457 366.586 254.098 366.434 253.645 366.434ZM258.982 364.125V365.66H260.166V366.498H258.982V370.43C258.982 370.684 259.035 370.875 259.141 371.004C259.246 371.129 259.426 371.191 259.68 371.191C259.805 371.191 259.977 371.168 260.195 371.121V372C259.91 372.078 259.633 372.117 259.363 372.117C258.879 372.117 258.514 371.971 258.268 371.678C258.021 371.385 257.898 370.969 257.898 370.43V366.498H256.744V365.66H257.898V364.125H258.982Z" fill="#00343E"/>
<rect x="125" y="231" width="116" height="48" rx="4" fill="#A5E1D2"/>
<path d="M170.076 256.773H166.502L165.699 259H164.539L167.797 250.469H168.781L172.045 259H170.891L170.076 256.773ZM166.842 255.848H169.742L168.289 251.857L166.842 255.848ZM174.049 252.66L174.084 253.457C174.568 252.848 175.201 252.543 175.982 252.543C177.322 252.543 177.998 253.299 178.01 254.811V259H176.926V254.805C176.922 254.348 176.816 254.01 176.609 253.791C176.406 253.572 176.088 253.463 175.654 253.463C175.303 253.463 174.994 253.557 174.729 253.744C174.463 253.932 174.256 254.178 174.107 254.482V259H173.023V252.66H174.049ZM182.188 258.232C182.574 258.232 182.912 258.115 183.201 257.881C183.49 257.646 183.65 257.354 183.682 257.002H184.707C184.688 257.365 184.562 257.711 184.332 258.039C184.102 258.367 183.793 258.629 183.406 258.824C183.023 259.02 182.617 259.117 182.188 259.117C181.324 259.117 180.637 258.83 180.125 258.256C179.617 257.678 179.363 256.889 179.363 255.889V255.707C179.363 255.09 179.477 254.541 179.703 254.061C179.93 253.58 180.254 253.207 180.676 252.941C181.102 252.676 181.604 252.543 182.182 252.543C182.893 252.543 183.482 252.756 183.951 253.182C184.424 253.607 184.676 254.16 184.707 254.84H183.682C183.65 254.43 183.494 254.094 183.213 253.832C182.936 253.566 182.592 253.434 182.182 253.434C181.631 253.434 181.203 253.633 180.898 254.031C180.598 254.426 180.447 254.998 180.447 255.748V255.953C180.447 256.684 180.598 257.246 180.898 257.641C181.199 258.035 181.629 258.232 182.188 258.232ZM187.01 253.428C187.49 252.838 188.115 252.543 188.885 252.543C190.225 252.543 190.9 253.299 190.912 254.811V259H189.828V254.805C189.824 254.348 189.719 254.01 189.512 253.791C189.309 253.572 188.99 253.463 188.557 253.463C188.205 253.463 187.896 253.557 187.631 253.744C187.365 253.932 187.158 254.178 187.01 254.482V259H185.926V250H187.01V253.428ZM192.248 255.771C192.248 255.15 192.369 254.592 192.611 254.096C192.857 253.6 193.197 253.217 193.631 252.947C194.068 252.678 194.566 252.543 195.125 252.543C195.988 252.543 196.686 252.842 197.217 253.439C197.752 254.037 198.02 254.832 198.02 255.824V255.9C198.02 256.518 197.9 257.072 197.662 257.564C197.428 258.053 197.09 258.434 196.648 258.707C196.211 258.98 195.707 259.117 195.137 259.117C194.277 259.117 193.58 258.818 193.045 258.221C192.514 257.623 192.248 256.832 192.248 255.848V255.771ZM193.338 255.9C193.338 256.604 193.5 257.168 193.824 257.594C194.152 258.02 194.59 258.232 195.137 258.232C195.688 258.232 196.125 258.018 196.449 257.588C196.773 257.154 196.936 256.549 196.936 255.771C196.936 255.076 196.77 254.514 196.438 254.084C196.109 253.65 195.672 253.434 195.125 253.434C194.59 253.434 194.158 253.646 193.83 254.072C193.502 254.498 193.338 255.107 193.338 255.9ZM202.443 253.633C202.279 253.605 202.102 253.592 201.91 253.592C201.199 253.592 200.717 253.895 200.463 254.5V259H199.379V252.66H200.434L200.451 253.393C200.807 252.826 201.311 252.543 201.963 252.543C202.174 252.543 202.334 252.57 202.443 252.625V253.633Z" fill="#00343E"/>
<rect x="249" y="231" width="116" height="48" rx="4" fill="#A5E1D2"/>
<path d="M283.318 251.395H280.576V259H279.457V251.395H276.721V250.469H283.318V251.395ZM286.066 257.412L287.543 252.66H288.703L286.154 259.979C285.76 261.033 285.133 261.561 284.273 261.561L284.068 261.543L283.664 261.467V260.588L283.957 260.611C284.324 260.611 284.609 260.537 284.812 260.389C285.02 260.24 285.189 259.969 285.322 259.574L285.562 258.93L283.301 252.66H284.484L286.066 257.412ZM295.031 255.9C295.031 256.865 294.811 257.643 294.369 258.232C293.928 258.822 293.33 259.117 292.576 259.117C291.807 259.117 291.201 258.873 290.76 258.385V261.438H289.676V252.66H290.666L290.719 253.363C291.16 252.816 291.773 252.543 292.559 252.543C293.32 252.543 293.922 252.83 294.363 253.404C294.809 253.979 295.031 254.777 295.031 255.801V255.9ZM293.947 255.777C293.947 255.062 293.795 254.498 293.49 254.084C293.186 253.67 292.768 253.463 292.236 253.463C291.58 253.463 291.088 253.754 290.76 254.336V257.365C291.084 257.943 291.58 258.232 292.248 258.232C292.768 258.232 293.18 258.027 293.484 257.617C293.793 257.203 293.947 256.59 293.947 255.777ZM296.127 255.771C296.127 255.15 296.248 254.592 296.49 254.096C296.736 253.6 297.076 253.217 297.51 252.947C297.947 252.678 298.445 252.543 299.004 252.543C299.867 252.543 300.564 252.842 301.096 253.439C301.631 254.037 301.898 254.832 301.898 255.824V255.9C301.898 256.518 301.779 257.072 301.541 257.564C301.307 258.053 300.969 258.434 300.527 258.707C300.09 258.98 299.586 259.117 299.016 259.117C298.156 259.117 297.459 258.818 296.924 258.221C296.393 257.623 296.127 256.832 296.127 255.848V255.771ZM297.217 255.9C297.217 256.604 297.379 257.168 297.703 257.594C298.031 258.02 298.469 258.232 299.016 258.232C299.566 258.232 300.004 258.018 300.328 257.588C300.652 257.154 300.814 256.549 300.814 255.771C300.814 255.076 300.648 254.514 300.316 254.084C299.988 253.65 299.551 253.434 299.004 253.434C298.469 253.434 298.037 253.646 297.709 254.072C297.381 254.498 297.217 255.107 297.217 255.9ZM303 255.777C303 254.789 303.229 254.004 303.686 253.422C304.143 252.836 304.748 252.543 305.502 252.543C306.275 252.543 306.879 252.816 307.312 253.363L307.365 252.66H308.355V258.848C308.355 259.668 308.111 260.314 307.623 260.787C307.139 261.26 306.486 261.496 305.666 261.496C305.209 261.496 304.762 261.398 304.324 261.203C303.887 261.008 303.553 260.74 303.322 260.4L303.885 259.75C304.35 260.324 304.918 260.611 305.59 260.611C306.117 260.611 306.527 260.463 306.82 260.166C307.117 259.869 307.266 259.451 307.266 258.912V258.367C306.832 258.867 306.24 259.117 305.49 259.117C304.748 259.117 304.146 258.818 303.686 258.221C303.229 257.623 303 256.809 303 255.777ZM304.09 255.9C304.09 256.615 304.236 257.178 304.529 257.588C304.822 257.994 305.232 258.197 305.76 258.197C306.443 258.197 306.945 257.887 307.266 257.266V254.371C306.934 253.766 306.436 253.463 305.771 253.463C305.244 253.463 304.832 253.668 304.535 254.078C304.238 254.488 304.09 255.096 304.09 255.9ZM313.061 253.633C312.896 253.605 312.719 253.592 312.527 253.592C311.816 253.592 311.334 253.895 311.08 254.5V259H309.996V252.66H311.051L311.068 253.393C311.424 252.826 311.928 252.543 312.58 252.543C312.791 252.543 312.951 252.57 313.061 252.625V253.633ZM317.742 259C317.68 258.875 317.629 258.652 317.59 258.332C317.086 258.855 316.484 259.117 315.785 259.117C315.16 259.117 314.646 258.941 314.244 258.59C313.846 258.234 313.646 257.785 313.646 257.242C313.646 256.582 313.896 256.07 314.396 255.707C314.9 255.34 315.607 255.156 316.518 255.156H317.572V254.658C317.572 254.279 317.459 253.979 317.232 253.756C317.006 253.529 316.672 253.416 316.23 253.416C315.844 253.416 315.52 253.514 315.258 253.709C314.996 253.904 314.865 254.141 314.865 254.418H313.775C313.775 254.102 313.887 253.797 314.109 253.504C314.336 253.207 314.641 252.973 315.023 252.801C315.41 252.629 315.834 252.543 316.295 252.543C317.025 252.543 317.598 252.727 318.012 253.094C318.426 253.457 318.641 253.959 318.656 254.6V257.518C318.656 258.1 318.73 258.562 318.879 258.906V259H317.742ZM315.943 258.174C316.283 258.174 316.605 258.086 316.91 257.91C317.215 257.734 317.436 257.506 317.572 257.225V255.924H316.723C315.395 255.924 314.73 256.312 314.73 257.09C314.73 257.43 314.844 257.695 315.07 257.887C315.297 258.078 315.588 258.174 315.943 258.174ZM325.711 255.9C325.711 256.865 325.49 257.643 325.049 258.232C324.607 258.822 324.01 259.117 323.256 259.117C322.486 259.117 321.881 258.873 321.439 258.385V261.438H320.355V252.66H321.346L321.398 253.363C321.84 252.816 322.453 252.543 323.238 252.543C324 252.543 324.602 252.83 325.043 253.404C325.488 253.979 325.711 254.777 325.711 255.801V255.9ZM324.627 255.777C324.627 255.062 324.475 254.498 324.17 254.084C323.865 253.67 323.447 253.463 322.916 253.463C322.26 253.463 321.768 253.754 321.439 254.336V257.365C321.764 257.943 322.26 258.232 322.928 258.232C323.447 258.232 323.859 258.027 324.164 257.617C324.473 257.203 324.627 256.59 324.627 255.777ZM328.178 253.428C328.658 252.838 329.283 252.543 330.053 252.543C331.393 252.543 332.068 253.299 332.08 254.811V259H330.996V254.805C330.992 254.348 330.887 254.01 330.68 253.791C330.477 253.572 330.158 253.463 329.725 253.463C329.373 253.463 329.064 253.557 328.799 253.744C328.533 253.932 328.326 254.178 328.178 254.482V259H327.094V250H328.178V253.428ZM335.777 257.412L337.254 252.66H338.414L335.865 259.979C335.471 261.033 334.844 261.561 333.984 261.561L333.779 261.543L333.375 261.467V260.588L333.668 260.611C334.035 260.611 334.32 260.537 334.523 260.389C334.73 260.24 334.9 259.969 335.033 259.574L335.273 258.93L333.012 252.66H334.195L335.777 257.412Z" fill="#00343E"/>
<line x1="14" y1="73" x2="388" y2="73" stroke="#008484" stroke-width="2" stroke-linecap="square" stroke-dasharray="4 4"/>
<line x1="14" y1="161" x2="388" y2="161" stroke="#008484" stroke-width="2" stroke-linecap="square" stroke-dasharray="4 4"/>
<path d="M108 391L108 73" stroke="#008484" stroke-width="2" stroke-linecap="square" stroke-dasharray="4 4"/>
<rect x="388" y="176" width="1" height="215" fill="#008484"/>
<rect x="373" y="176" width="16" height="1" fill="#008484"/>
<rect x="373" y="391" width="16" height="1" fill="#008484"/>
<path d="M388 88H389V143H388V88Z" fill="#008484"/>
<rect x="373" y="88" width="16" height="1" fill="#008484"/>
<rect x="373" y="143" width="16" height="1" fill="#008484"/>
<circle cx="108" cy="115" r="14" fill="white"/>
<circle cx="108" cy="115" r="9" fill="#008484"/>
<path d="M109.848 115.354C110.043 115.158 110.043 114.842 109.848 114.646L106.666 111.464C106.471 111.269 106.154 111.269 105.959 111.464C105.764 111.66 105.764 111.976 105.959 112.172L108.787 115L105.959 117.828C105.764 118.024 105.764 118.34 105.959 118.536C106.154 118.731 106.471 118.731 106.666 118.536L109.848 115.354ZM99 115.5H109.494V114.5H99V115.5Z" fill="white"/>
<circle cx="53" cy="162" r="14" transform="rotate(-90 53 162)" fill="white"/>
<circle cx="53" cy="162" r="9" transform="rotate(-90 53 162)" fill="#008484"/>
<path d="M53.3536 160.152C53.1583 159.957 52.8417 159.957 52.6464 160.152L49.4645 163.334C49.2692 163.529 49.2692 163.846 49.4645 164.041C49.6597 164.236 49.9763 164.236 50.1716 164.041L53 161.213L55.8284 164.041C56.0237 164.236 56.3403 164.236 56.5355 164.041C56.7308 163.846 56.7308 163.529 56.5355 163.334L53.3536 160.152ZM53.5 171L53.5 160.506L52.5 160.506L52.5 171L53.5 171Z" fill="white"/>
<circle cx="244" cy="160" r="14" transform="rotate(-90 244 160)" fill="white"/>
<circle cx="244" cy="160" r="9" transform="rotate(-90 244 160)" fill="#008484"/>
<path d="M244.354 158.152C244.158 157.957 243.842 157.957 243.646 158.152L240.464 161.334C240.269 161.529 240.269 161.846 240.464 162.041C240.66 162.236 240.976 162.236 241.172 162.041L244 159.213L246.828 162.041C247.024 162.236 247.34 162.236 247.536 162.041C247.731 161.846 247.731 161.529 247.536 161.334L244.354 158.152ZM244.5 169L244.5 158.506L243.5 158.506L243.5 169L244.5 169Z" fill="white"/>
<circle cx="245" cy="72" r="14" transform="rotate(-90 245 72)" fill="white"/>
<circle cx="245" cy="72" r="9" transform="rotate(-90 245 72)" fill="#008484"/>
<path d="M245.354 70.152C245.158 69.9567 244.842 69.9567 244.646 70.152L241.464 73.334C241.269 73.5292 241.269 73.8458 241.464 74.0411C241.66 74.2363 241.976 74.2363 242.172 74.0411L245 71.2126L247.828 74.0411C248.024 74.2363 248.34 74.2363 248.536 74.0411C248.731 73.8458 248.731 73.5292 248.536 73.334L245.354 70.152ZM245.5 81L245.5 70.5055L244.5 70.5055L244.5 81L245.5 81Z" fill="white"/>
</svg>
