<svg xmlns="http://www.w3.org/2000/svg" width="304" height="96" viewBox="0 0 304 96">
  <g fill="none" fill-rule="evenodd">
    <rect width="304" height="96" fill="#F3F3F3" opacity=".5"/>
    <g transform="translate(7 8)">
      <path fill="#444444" d="M37,35.898 L37,26 L38.554,26 L41.942,35.212 L45.75,26 L47.22,26 L47.22,35.898 L46.058,35.898 L46.058,29.248 L46.114,27.722 L46.072,27.722 L42.74,35.898 L41.074,35.898 L38.12,27.694 L38.078,27.694 L38.148,29.066 L38.148,35.898 L37,35.898 Z M53.086,36.066 C50.86,36.066 49.46,35.142 49.46,32.23 C49.46,29.248 50.93,28.058 52.792,28.058 C54.738,28.058 55.62,29.332 55.62,31.88 L55.62,32.286 L50.58,32.286 C50.608,34.652 51.812,35.114 53.268,35.114 C54.01,35.114 54.584,34.988 55.298,34.764 L55.494,35.66 C54.92,35.898 54.052,36.066 53.086,36.066 Z M50.594,31.46 L54.472,31.46 C54.472,29.906 53.926,28.926 52.68,28.926 C51.574,28.926 50.72,29.752 50.594,31.46 Z M57.524,35.898 L57.524,28.254 L58.63,28.254 L58.63,29.122 C59.428,28.534 60.17,28.058 61.36,28.058 C63.53,28.058 63.67,29.682 63.67,30.97 L63.67,35.898 L62.592,35.898 L62.592,31.18 C62.592,29.864 62.382,29.038 61.08,29.038 C60.1,29.038 59.316,29.5 58.63,29.976 L58.63,35.898 L57.524,35.898 Z M66.96,38.978 L67.996,35.898 L67.478,35.898 L65.014,28.254 L66.218,28.254 L67.87,33.714 L68.304,35.086 L68.752,33.742 L70.628,28.254 L71.762,28.254 L68.024,38.978 L66.96,38.978 Z" opacity=".653"/>
      <g stroke="#333333" transform="translate(10 26)" stroke-linecap="round" stroke-linejoin="round">
        <path stroke-width="2" d="M0 1L18 1M0 6L18 6M0 11L18 11"/>
      </g>
    </g>
    <g transform="translate(103 8)">
      <path fill="#444444" d="M37,35.898 L37,26 L38.554,26 L41.942,35.212 L45.75,26 L47.22,26 L47.22,35.898 L46.058,35.898 L46.058,29.248 L46.114,27.722 L46.072,27.722 L42.74,35.898 L41.074,35.898 L38.12,27.694 L38.078,27.694 L38.148,29.066 L38.148,35.898 L37,35.898 Z M53.086,36.066 C50.86,36.066 49.46,35.142 49.46,32.23 C49.46,29.248 50.93,28.058 52.792,28.058 C54.738,28.058 55.62,29.332 55.62,31.88 L55.62,32.286 L50.58,32.286 C50.608,34.652 51.812,35.114 53.268,35.114 C54.01,35.114 54.584,34.988 55.298,34.764 L55.494,35.66 C54.92,35.898 54.052,36.066 53.086,36.066 Z M50.594,31.46 L54.472,31.46 C54.472,29.906 53.926,28.926 52.68,28.926 C51.574,28.926 50.72,29.752 50.594,31.46 Z M57.524,35.898 L57.524,28.254 L58.63,28.254 L58.63,29.122 C59.428,28.534 60.17,28.058 61.36,28.058 C63.53,28.058 63.67,29.682 63.67,30.97 L63.67,35.898 L62.592,35.898 L62.592,31.18 C62.592,29.864 62.382,29.038 61.08,29.038 C60.1,29.038 59.316,29.5 58.63,29.976 L58.63,35.898 L57.524,35.898 Z M66.96,38.978 L67.996,35.898 L67.478,35.898 L65.014,28.254 L66.218,28.254 L67.87,33.714 L68.304,35.086 L68.752,33.742 L70.628,28.254 L71.762,28.254 L68.024,38.978 L66.96,38.978 Z" opacity=".653"/>
      <g stroke="#333333" transform="translate(10 26)" stroke-linecap="round" stroke-linejoin="round">
        <path stroke-width="2" d="M0 1L18 1M0 6L18 6M0 11L18 11"/>
      </g>
    </g>
    <path fill="#A5E1D2" d="M140,48 L140,56 L104,56 L104,48 L104,32 L104,24 L140,24 L140,32 L140,48 Z M132,48 L132,32 L112,32 L112,48 L132,48 Z" opacity=".5"/>
    <g transform="translate(199 8)">
      <path fill="#444444" d="M37,35.898 L37,26 L38.554,26 L41.942,35.212 L45.75,26 L47.22,26 L47.22,35.898 L46.058,35.898 L46.058,29.248 L46.114,27.722 L46.072,27.722 L42.74,35.898 L41.074,35.898 L38.12,27.694 L38.078,27.694 L38.148,29.066 L38.148,35.898 L37,35.898 Z M53.086,36.066 C50.86,36.066 49.46,35.142 49.46,32.23 C49.46,29.248 50.93,28.058 52.792,28.058 C54.738,28.058 55.62,29.332 55.62,31.88 L55.62,32.286 L50.58,32.286 C50.608,34.652 51.812,35.114 53.268,35.114 C54.01,35.114 54.584,34.988 55.298,34.764 L55.494,35.66 C54.92,35.898 54.052,36.066 53.086,36.066 Z M50.594,31.46 L54.472,31.46 C54.472,29.906 53.926,28.926 52.68,28.926 C51.574,28.926 50.72,29.752 50.594,31.46 Z M57.524,35.898 L57.524,28.254 L58.63,28.254 L58.63,29.122 C59.428,28.534 60.17,28.058 61.36,28.058 C63.53,28.058 63.67,29.682 63.67,30.97 L63.67,35.898 L62.592,35.898 L62.592,31.18 C62.592,29.864 62.382,29.038 61.08,29.038 C60.1,29.038 59.316,29.5 58.63,29.976 L58.63,35.898 L57.524,35.898 Z M66.96,38.978 L67.996,35.898 L67.478,35.898 L65.014,28.254 L66.218,28.254 L67.87,33.714 L68.304,35.086 L68.752,33.742 L70.628,28.254 L71.762,28.254 L68.024,38.978 L66.96,38.978 Z" opacity=".653"/>
      <g stroke="#333333" transform="translate(10 26)" stroke-linecap="round" stroke-linejoin="round">
        <path stroke-width="2" d="M0 1L18 1M0 6L18 6M0 11L18 11"/>
      </g>
    </g>
    <g fill="#28B482" transform="translate(208 32)" opacity=".5">
      <rect width="20" height="2"/>
      <rect width="20" height="3" y="4"/>
      <rect width="20" height="3" y="9"/>
      <rect width="20" height="2" y="14"/>
    </g>
    <text fill="#00343E" font-family="FedraSansStd-Medium, Fedra Sans Std" font-size="14" font-weight="400">
      <tspan x="119.312" y="83">1</tspan>
    </text>
    <text fill="#00343E" font-family="FedraSansStd-Medium, Fedra Sans Std" font-size="14" font-weight="400">
      <tspan x="214.136" y="83">2</tspan>
    </text>
  </g>
</svg>
