<svg xmlns="http://www.w3.org/2000/svg" width="31" height="31" viewBox="0 0 31 31">
  <g fill="none" fill-rule="evenodd">
    <g fill="#E9E9E9">
      <rect width="1" height="1"/>
      <rect width="1" height="1" x="2"/>
      <rect width="1" height="1" x="4"/>
      <rect width="1" height="1" x="6"/>
      <rect width="1" height="1" x="8"/>
      <rect width="1" height="1" x="10"/>
      <rect width="1" height="1" x="12"/>
      <rect width="1" height="1" x="14"/>
      <rect width="1" height="1" x="16"/>
      <rect width="1" height="1" x="18"/>
      <rect width="1" height="1" x="20"/>
      <rect width="1" height="1" x="22"/>
      <rect width="1" height="1" x="24"/>
      <rect width="1" height="1" x="26"/>
      <rect width="1" height="1" x="28"/>
      <rect width="1" height="1" x="30"/>
    </g>
    <g fill="#F3F3F3" transform="translate(0 8)">
      <rect width="1" height="1"/>
      <rect width="1" height="1" x="2"/>
      <rect width="1" height="1" x="4"/>
      <rect width="1" height="1" x="6"/>
      <rect width="1" height="1" x="8"/>
      <rect width="1" height="1" x="10"/>
      <rect width="1" height="1" x="12"/>
      <rect width="1" height="1" x="14"/>
      <rect width="1" height="1" x="16"/>
      <rect width="1" height="1" x="18"/>
      <rect width="1" height="1" x="20"/>
      <rect width="1" height="1" x="22"/>
      <rect width="1" height="1" x="24"/>
      <rect width="1" height="1" x="26"/>
      <rect width="1" height="1" x="28"/>
      <rect width="1" height="1" x="30"/>
    </g>
    <g fill="#F3F3F3" transform="translate(0 16)">
      <rect width="1" height="1"/>
      <rect width="1" height="1" x="2"/>
      <rect width="1" height="1" x="4"/>
      <rect width="1" height="1" x="6"/>
      <rect width="1" height="1" x="8"/>
      <rect width="1" height="1" x="10"/>
      <rect width="1" height="1" x="12"/>
      <rect width="1" height="1" x="14"/>
      <rect width="1" height="1" x="16"/>
      <rect width="1" height="1" x="18"/>
      <rect width="1" height="1" x="20"/>
      <rect width="1" height="1" x="22"/>
      <rect width="1" height="1" x="24"/>
      <rect width="1" height="1" x="26"/>
      <rect width="1" height="1" x="28"/>
      <rect width="1" height="1" x="30"/>
    </g>
    <g fill="#F3F3F3" transform="translate(0 24)">
      <rect width="1" height="1"/>
      <rect width="1" height="1" x="2"/>
      <rect width="1" height="1" x="4"/>
      <rect width="1" height="1" x="6"/>
      <rect width="1" height="1" x="8"/>
      <rect width="1" height="1" x="10"/>
      <rect width="1" height="1" x="12"/>
      <rect width="1" height="1" x="14"/>
      <rect width="1" height="1" x="16"/>
      <rect width="1" height="1" x="18"/>
      <rect width="1" height="1" x="20"/>
      <rect width="1" height="1" x="22"/>
      <rect width="1" height="1" x="24"/>
      <rect width="1" height="1" x="26"/>
      <rect width="1" height="1" x="28"/>
      <rect width="1" height="1" x="30"/>
    </g>
    <g fill="#E9E9E9" transform="rotate(90 .5 .5)">
      <rect width="1" height="1"/>
      <rect width="1" height="1" x="2"/>
      <rect width="1" height="1" x="4"/>
      <rect width="1" height="1" x="6"/>
      <rect width="1" height="1" x="8"/>
      <rect width="1" height="1" x="10"/>
      <rect width="1" height="1" x="12"/>
      <rect width="1" height="1" x="14"/>
      <rect width="1" height="1" x="16"/>
      <rect width="1" height="1" x="18"/>
      <rect width="1" height="1" x="20"/>
      <rect width="1" height="1" x="22"/>
      <rect width="1" height="1" x="24"/>
      <rect width="1" height="1" x="26"/>
      <rect width="1" height="1" x="28"/>
      <rect width="1" height="1" x="30"/>
    </g>
    <g fill="#F3F3F3" transform="rotate(90 4.5 4.5)">
      <rect width="1" height="1"/>
      <rect width="1" height="1" x="2"/>
      <rect width="1" height="1" x="4"/>
      <rect width="1" height="1" x="6"/>
      <rect width="1" height="1" x="8"/>
      <rect width="1" height="1" x="10"/>
      <rect width="1" height="1" x="12"/>
      <rect width="1" height="1" x="14"/>
      <rect width="1" height="1" x="16"/>
      <rect width="1" height="1" x="18"/>
      <rect width="1" height="1" x="20"/>
      <rect width="1" height="1" x="22"/>
      <rect width="1" height="1" x="24"/>
      <rect width="1" height="1" x="26"/>
      <rect width="1" height="1" x="28"/>
      <rect width="1" height="1" x="30"/>
    </g>
    <g fill="#F3F3F3" transform="rotate(90 8.5 8.5)">
      <rect width="1" height="1"/>
      <rect width="1" height="1" x="2"/>
      <rect width="1" height="1" x="4"/>
      <rect width="1" height="1" x="6"/>
      <rect width="1" height="1" x="8"/>
      <rect width="1" height="1" x="10"/>
      <rect width="1" height="1" x="12"/>
      <rect width="1" height="1" x="14"/>
      <rect width="1" height="1" x="16"/>
      <rect width="1" height="1" x="18"/>
      <rect width="1" height="1" x="20"/>
      <rect width="1" height="1" x="22"/>
      <rect width="1" height="1" x="24"/>
      <rect width="1" height="1" x="26"/>
      <rect width="1" height="1" x="28"/>
      <rect width="1" height="1" x="30"/>
    </g>
    <g fill="#F3F3F3" transform="rotate(90 12.5 12.5)">
      <rect width="1" height="1"/>
      <rect width="1" height="1" x="2"/>
      <rect width="1" height="1" x="4"/>
      <rect width="1" height="1" x="6"/>
      <rect width="1" height="1" x="8"/>
      <rect width="1" height="1" x="10"/>
      <rect width="1" height="1" x="12"/>
      <rect width="1" height="1" x="14"/>
      <rect width="1" height="1" x="16"/>
      <rect width="1" height="1" x="18"/>
      <rect width="1" height="1" x="20"/>
      <rect width="1" height="1" x="22"/>
      <rect width="1" height="1" x="24"/>
      <rect width="1" height="1" x="26"/>
      <rect width="1" height="1" x="28"/>
      <rect width="1" height="1" x="30"/>
    </g>
  </g>
</svg>
