<svg width="460" height="256" viewBox="0 0 460 256" fill="none" xmlns="http://www.w3.org/2000/svg">
<rect x="36" y="16" width="132" height="40" rx="20" fill="#008484"/>
<path d="M61.696 41H65.264C68.176 41 69.264 39.656 69.264 37.784C69.264 36.104 68.064 35.256 66.88 35.048V35C67.824 34.664 68.448 33.752 68.448 32.536C68.448 30.888 67.344 29.688 64.784 29.688H61.696V41ZM63.008 39.912V35.72H64.784C66.704 35.72 67.92 36.296 67.92 37.832C67.92 39.56 66.592 39.912 65.024 39.912H63.008ZM63.008 34.664V30.712H64.448C66.144 30.712 67.104 31.208 67.104 32.744C67.104 33.976 66.4 34.664 64.96 34.664H63.008ZM73.7612 41.192C75.2332 41.192 76.0972 40.568 76.9292 39.976V41H78.1452V32.264H76.9292V38.952C76.2572 39.432 75.2332 40.04 74.1132 40.04C72.5452 40.04 72.4332 38.952 72.4332 37.576V32.264H71.1852V37.832C71.1852 39.304 71.3612 41.192 73.7612 41.192ZM83.5367 41.192C84.1287 41.192 84.9447 41.032 85.3927 40.872L85.1687 39.832C84.8007 39.96 84.1767 40.088 83.6967 40.088C82.6887 40.088 82.1287 39.752 82.1287 38.52V33.336H84.8487V32.264H82.1127V30.472H80.8807V32.264H79.6007V33.336H80.8807V38.568C80.8807 40.632 81.9047 41.192 83.5367 41.192ZM89.645 41.192C90.237 41.192 91.053 41.032 91.501 40.872L91.277 39.832C90.909 39.96 90.285 40.088 89.805 40.088C88.797 40.088 88.237 39.752 88.237 38.52V33.336H90.957V32.264H88.221V30.472H86.989V32.264H85.709V33.336H86.989V38.568C86.989 40.632 88.013 41.192 89.645 41.192ZM96.1693 41.192C98.4573 41.192 100.153 39.736 100.153 36.584C100.153 33.704 98.8253 32.04 96.3453 32.04C93.9133 32.04 92.2813 33.704 92.2813 36.728C92.2813 39.592 93.7693 41.192 96.1693 41.192ZM96.2493 40.152C94.2013 40.152 93.5613 38.456 93.5613 36.664C93.5613 35 94.1053 33.08 96.2493 33.08C98.3933 33.08 98.8733 35.016 98.8733 36.664C98.8733 38.376 98.3613 40.152 96.2493 40.152ZM102.073 41H103.337V34.232C104.121 33.688 105.017 33.16 106.137 33.16C107.625 33.16 107.865 34.104 107.865 35.608V41H109.097V35.368C109.097 33.896 108.937 32.04 106.457 32.04C105.097 32.04 104.249 32.584 103.337 33.256V32.264H102.073V41ZM118.313 41.192C118.905 41.192 119.721 41.032 120.169 40.872L119.945 39.832C119.577 39.96 118.953 40.088 118.473 40.088C117.465 40.088 116.905 39.752 116.905 38.52V33.336H119.625V32.264H116.889V30.472H115.657V32.264H114.377V33.336H115.657V38.568C115.657 40.632 116.681 41.192 118.313 41.192ZM125.109 41.192C126.213 41.192 127.205 41 127.861 40.728L127.637 39.704C126.821 39.96 126.165 40.104 125.317 40.104C123.653 40.104 122.277 39.576 122.245 36.872H128.005V36.408C128.005 33.496 126.997 32.04 124.773 32.04C122.645 32.04 120.965 33.4 120.965 36.808C120.965 40.136 122.565 41.192 125.109 41.192ZM122.261 35.928C122.405 33.976 123.381 33.032 124.645 33.032C126.069 33.032 126.693 34.152 126.693 35.928H122.261ZM128.921 41H130.409L132.681 37.416L134.921 41H136.441L133.401 36.504L136.217 32.264H134.809L132.681 35.64L130.569 32.264H129.097L131.961 36.536L128.921 41ZM140.825 41.192C141.417 41.192 142.233 41.032 142.681 40.872L142.457 39.832C142.089 39.96 141.465 40.088 140.985 40.088C139.977 40.088 139.417 39.752 139.417 38.52V33.336H142.137V32.264H139.401V30.472H138.169V32.264H136.889V33.336H138.169V38.568C138.169 40.632 139.193 41.192 140.825 41.192Z" fill="white"/>
<rect x="36" y="128" width="128" height="40" rx="20" fill="#008484"/>
<path d="M60.696 153H64.264C67.176 153 68.264 151.656 68.264 149.784C68.264 148.104 67.064 147.256 65.88 147.048V147C66.824 146.664 67.448 145.752 67.448 144.536C67.448 142.888 66.344 141.688 63.784 141.688H60.696V153ZM62.008 151.912V147.72H63.784C65.704 147.72 66.92 148.296 66.92 149.832C66.92 151.56 65.592 151.912 64.024 151.912H62.008ZM62.008 146.664V142.712H63.448C65.144 142.712 66.104 143.208 66.104 144.744C66.104 145.976 65.4 146.664 63.96 146.664H62.008ZM72.5579 153.192C74.0299 153.192 74.8939 152.568 75.7259 151.976V153H76.9419V144.264H75.7259V150.952C75.0539 151.432 74.0299 152.04 72.9099 152.04C71.3419 152.04 71.2299 150.952 71.2299 149.576V144.264H69.9819V149.832C69.9819 151.304 70.1579 153.192 72.5579 153.192ZM82.13 153.192C82.722 153.192 83.538 153.032 83.986 152.872L83.762 151.832C83.394 151.96 82.77 152.088 82.29 152.088C81.282 152.088 80.722 151.752 80.722 150.52V145.336H83.442V144.264H80.706V142.472H79.474V144.264H78.194V145.336H79.474V150.568C79.474 152.632 80.498 153.192 82.13 153.192ZM88.035 153.192C88.627 153.192 89.443 153.032 89.891 152.872L89.667 151.832C89.299 151.96 88.675 152.088 88.195 152.088C87.187 152.088 86.627 151.752 86.627 150.52V145.336H89.347V144.264H86.611V142.472H85.379V144.264H84.099V145.336H85.379V150.568C85.379 152.632 86.403 153.192 88.035 153.192ZM94.356 153.192C96.644 153.192 98.34 151.736 98.34 148.584C98.34 145.704 97.012 144.04 94.532 144.04C92.1 144.04 90.468 145.704 90.468 148.728C90.468 151.592 91.956 153.192 94.356 153.192ZM94.436 152.152C92.388 152.152 91.748 150.456 91.748 148.664C91.748 147 92.292 145.08 94.436 145.08C96.58 145.08 97.06 147.016 97.06 148.664C97.06 150.376 96.548 152.152 94.436 152.152ZM100.057 153H101.321V146.232C102.105 145.688 103.001 145.16 104.121 145.16C105.609 145.16 105.849 146.104 105.849 147.608V153H107.081V147.368C107.081 145.896 106.921 144.04 104.441 144.04C103.081 144.04 102.233 144.584 101.321 145.256V144.264H100.057V153ZM115.889 153.192C116.481 153.192 117.297 153.032 117.745 152.872L117.521 151.832C117.153 151.96 116.529 152.088 116.049 152.088C115.041 152.088 114.481 151.752 114.481 150.52V145.336H117.201V144.264H114.465V142.472H113.233V144.264H111.953V145.336H113.233V150.568C113.233 152.632 114.257 153.192 115.889 153.192ZM122.482 153.192C123.586 153.192 124.578 153 125.234 152.728L125.01 151.704C124.194 151.96 123.538 152.104 122.69 152.104C121.026 152.104 119.65 151.576 119.618 148.872H125.378V148.408C125.378 145.496 124.37 144.04 122.146 144.04C120.018 144.04 118.338 145.4 118.338 148.808C118.338 152.136 119.938 153.192 122.482 153.192ZM119.634 147.928C119.778 145.976 120.754 145.032 122.018 145.032C123.442 145.032 124.066 146.152 124.066 147.928H119.634ZM126.091 153H127.579L129.851 149.416L132.091 153H133.611L130.571 148.504L133.387 144.264H131.979L129.851 147.64L127.739 144.264H126.267L129.131 148.536L126.091 153ZM137.792 153.192C138.384 153.192 139.2 153.032 139.648 152.872L139.424 151.832C139.056 151.96 138.432 152.088 137.952 152.088C136.944 152.088 136.384 151.752 136.384 150.52V145.336H139.104V144.264H136.368V142.472H135.136V144.264H133.856V145.336H135.136V150.568C135.136 152.632 136.16 153.192 137.792 153.192Z" fill="white"/>
<rect x="36" y="72" width="128" height="40" rx="20" fill="#008484"/>
<path d="M60.696 97H64.264C67.176 97 68.264 95.656 68.264 93.784C68.264 92.104 67.064 91.256 65.88 91.048V91C66.824 90.664 67.448 89.752 67.448 88.536C67.448 86.888 66.344 85.688 63.784 85.688H60.696V97ZM62.008 95.912V91.72H63.784C65.704 91.72 66.92 92.296 66.92 93.832C66.92 95.56 65.592 95.912 64.024 95.912H62.008ZM62.008 90.664V86.712H63.448C65.144 86.712 66.104 87.208 66.104 88.744C66.104 89.976 65.4 90.664 63.96 90.664H62.008ZM72.5579 97.192C74.0299 97.192 74.8939 96.568 75.7259 95.976V97H76.9419V88.264H75.7259V94.952C75.0539 95.432 74.0299 96.04 72.9099 96.04C71.3419 96.04 71.2299 94.952 71.2299 93.576V88.264H69.9819V93.832C69.9819 95.304 70.1579 97.192 72.5579 97.192ZM82.13 97.192C82.722 97.192 83.538 97.032 83.986 96.872L83.762 95.832C83.394 95.96 82.77 96.088 82.29 96.088C81.282 96.088 80.722 95.752 80.722 94.52V89.336H83.442V88.264H80.706V86.472H79.474V88.264H78.194V89.336H79.474V94.568C79.474 96.632 80.498 97.192 82.13 97.192ZM88.035 97.192C88.627 97.192 89.443 97.032 89.891 96.872L89.667 95.832C89.299 95.96 88.675 96.088 88.195 96.088C87.187 96.088 86.627 95.752 86.627 94.52V89.336H89.347V88.264H86.611V86.472H85.379V88.264H84.099V89.336H85.379V94.568C85.379 96.632 86.403 97.192 88.035 97.192ZM94.356 97.192C96.644 97.192 98.34 95.736 98.34 92.584C98.34 89.704 97.012 88.04 94.532 88.04C92.1 88.04 90.468 89.704 90.468 92.728C90.468 95.592 91.956 97.192 94.356 97.192ZM94.436 96.152C92.388 96.152 91.748 94.456 91.748 92.664C91.748 91 92.292 89.08 94.436 89.08C96.58 89.08 97.06 91.016 97.06 92.664C97.06 94.376 96.548 96.152 94.436 96.152ZM100.057 97H101.321V90.232C102.105 89.688 103.001 89.16 104.121 89.16C105.609 89.16 105.849 90.104 105.849 91.608V97H107.081V91.368C107.081 89.896 106.921 88.04 104.441 88.04C103.081 88.04 102.233 88.584 101.321 89.256V88.264H100.057V97ZM115.889 97.192C116.481 97.192 117.297 97.032 117.745 96.872L117.521 95.832C117.153 95.96 116.529 96.088 116.049 96.088C115.041 96.088 114.481 95.752 114.481 94.52V89.336H117.201V88.264H114.465V86.472H113.233V88.264H111.953V89.336H113.233V94.568C113.233 96.632 114.257 97.192 115.889 97.192ZM122.482 97.192C123.586 97.192 124.578 97 125.234 96.728L125.01 95.704C124.194 95.96 123.538 96.104 122.69 96.104C121.026 96.104 119.65 95.576 119.618 92.872H125.378V92.408C125.378 89.496 124.37 88.04 122.146 88.04C120.018 88.04 118.338 89.4 118.338 92.808C118.338 96.136 119.938 97.192 122.482 97.192ZM119.634 91.928C119.778 89.976 120.754 89.032 122.018 89.032C123.442 89.032 124.066 90.152 124.066 91.928H119.634ZM126.091 97H127.579L129.851 93.416L132.091 97H133.611L130.571 92.504L133.387 88.264H131.979L129.851 91.64L127.739 88.264H126.267L129.131 92.536L126.091 97ZM137.792 97.192C138.384 97.192 139.2 97.032 139.648 96.872L139.424 95.832C139.056 95.96 138.432 96.088 137.952 96.088C136.944 96.088 136.384 95.752 136.384 94.52V89.336H139.104V88.264H136.368V86.472H135.136V88.264H133.856V89.336H135.136V94.568C135.136 96.632 136.16 97.192 137.792 97.192Z" fill="white"/>
<rect x="60" y="128" width="80" height="88" fill="#00D9FF" fill-opacity="0.25"/>
<path d="M139.73 194.354C139.926 194.158 139.926 193.842 139.73 193.646L136.548 190.464C136.353 190.269 136.036 190.269 135.841 190.464C135.646 190.66 135.646 190.976 135.841 191.172L138.67 194L135.841 196.828C135.646 197.024 135.646 197.34 135.841 197.536C136.036 197.731 136.353 197.731 136.548 197.536L139.73 194.354ZM122.582 194.5H139.377V193.5H122.582V194.5Z" fill="black"/>
<path d="M60.6462 193.646C60.4509 193.842 60.4509 194.158 60.6462 194.354L63.8282 197.536C64.0234 197.731 64.34 197.731 64.5353 197.536C64.7306 197.34 64.7306 197.024 64.5353 196.828L61.7069 194L64.5353 191.172C64.7306 190.976 64.7306 190.66 64.5353 190.464C64.34 190.269 64.0234 190.269 63.8282 190.464L60.6462 193.646ZM77.7949 193.5H60.9998V194.5H77.7949V193.5Z" fill="black"/>
<path d="M81.5259 194H88.8083L96.0908 186L103.373 202L110.656 194H118.848" stroke="#333333" stroke-linecap="round" stroke-linejoin="round"/>
<rect x="36" y="128" width="24" height="88" fill="#DB00FF" fill-opacity="0.25"/>
<rect x="140" y="128" width="24" height="88" fill="#DB00FF" fill-opacity="0.25"/>
<path d="M146.409 240L148.737 236.664L146.685 233.676H147.885L149.349 236.028L150.825 233.676H151.989L149.937 236.616L152.265 240H151.041L149.301 237.288L147.561 240H146.409ZM156.16 231.6C156.664 231.6 157.108 231.696 157.492 231.888C157.876 232.072 158.172 232.324 158.38 232.644C158.588 232.956 158.692 233.3 158.692 233.676C158.692 234.156 158.536 234.576 158.224 234.936C157.912 235.288 157.532 235.508 157.084 235.596C157.604 235.636 158.044 235.832 158.404 236.184C158.772 236.536 158.956 237.016 158.956 237.624C158.956 238.096 158.836 238.524 158.596 238.908C158.356 239.292 158.016 239.592 157.576 239.808C157.144 240.024 156.648 240.132 156.088 240.132C155.6 240.132 155.128 240.04 154.672 239.856C154.224 239.672 153.852 239.4 153.556 239.04L154.228 238.488C154.452 238.752 154.724 238.956 155.044 239.1C155.372 239.236 155.712 239.304 156.064 239.304C156.64 239.304 157.088 239.156 157.408 238.86C157.736 238.556 157.9 238.144 157.9 237.624C157.9 236.576 157.328 236.052 156.184 236.052H155.5L155.62 235.248H156.112C156.544 235.248 156.912 235.128 157.216 234.888C157.52 234.64 157.672 234.28 157.672 233.808C157.672 233.368 157.524 233.028 157.228 232.788C156.94 232.54 156.568 232.416 156.112 232.416C155.768 232.416 155.46 232.476 155.188 232.596C154.924 232.716 154.648 232.908 154.36 233.172L153.808 232.56C154.48 231.92 155.264 231.6 156.16 231.6Z" fill="black"/>
<path d="M41.4086 240L43.7366 236.664L41.6846 233.676H42.8846L44.3486 236.028L45.8246 233.676H46.9886L44.9366 236.616L47.2646 240H46.0406L44.3006 237.288L42.5606 240H41.4086ZM51.1599 231.6C51.6639 231.6 52.1079 231.696 52.4919 231.888C52.8759 232.072 53.1719 232.324 53.3799 232.644C53.5879 232.956 53.6919 233.3 53.6919 233.676C53.6919 234.156 53.5359 234.576 53.2239 234.936C52.9119 235.288 52.5319 235.508 52.0839 235.596C52.6039 235.636 53.0439 235.832 53.4039 236.184C53.7719 236.536 53.9559 237.016 53.9559 237.624C53.9559 238.096 53.8359 238.524 53.5959 238.908C53.3559 239.292 53.0159 239.592 52.5759 239.808C52.1439 240.024 51.6479 240.132 51.0879 240.132C50.5999 240.132 50.1279 240.04 49.6719 239.856C49.2239 239.672 48.8519 239.4 48.5559 239.04L49.2279 238.488C49.4519 238.752 49.7239 238.956 50.0439 239.1C50.3719 239.236 50.7119 239.304 51.0639 239.304C51.6399 239.304 52.0879 239.156 52.4079 238.86C52.7359 238.556 52.8999 238.144 52.8999 237.624C52.8999 236.576 52.3279 236.052 51.1839 236.052H50.4999L50.6199 235.248H51.1119C51.5439 235.248 51.9119 235.128 52.2159 234.888C52.5199 234.64 52.6719 234.28 52.6719 233.808C52.6719 233.368 52.5239 233.028 52.2279 232.788C51.9399 232.54 51.5679 232.416 51.1119 232.416C50.7679 232.416 50.4599 232.476 50.1879 232.596C49.9239 232.716 49.6479 232.908 49.3599 233.172L48.8079 232.56C49.4799 231.92 50.2639 231.6 51.1599 231.6Z" fill="black"/>
<rect x="36" y="72" width="136" height="12" fill="#DB00FF" fill-opacity="0.25"/>
<rect x="36" y="100" width="136" height="12" fill="#DB00FF" fill-opacity="0.25"/>
<rect x="36" y="84" width="136" height="16" fill="#00D9FF" fill-opacity="0.25"/>
<path d="M187.672 83L190 79.664L187.948 76.676H189.148L190.612 79.028L192.088 76.676H193.252L191.2 79.616L193.528 83H192.304L190.564 80.288L188.824 83H187.672ZM200.399 82.184V83H195.635V82.184H197.663V75.836L195.779 76.976L195.335 76.268L197.795 74.732H198.683V82.184H200.399ZM203.923 82.076C203.923 81.78 204.023 81.532 204.223 81.332C204.431 81.124 204.683 81.02 204.979 81.02C205.283 81.02 205.535 81.124 205.735 81.332C205.935 81.532 206.035 81.78 206.035 82.076C206.035 82.38 205.935 82.632 205.735 82.832C205.535 83.032 205.283 83.132 204.979 83.132C204.683 83.132 204.431 83.032 204.223 82.832C204.023 82.624 203.923 82.372 203.923 82.076ZM214.286 75.548H211.022V78.152C211.254 78.016 211.482 77.924 211.706 77.876C211.938 77.82 212.182 77.792 212.438 77.792C213.126 77.792 213.674 78.02 214.082 78.476C214.498 78.932 214.706 79.568 214.706 80.384C214.706 80.928 214.59 81.408 214.358 81.824C214.134 82.24 213.81 82.564 213.386 82.796C212.962 83.02 212.47 83.132 211.91 83.132C210.99 83.132 210.19 82.804 209.51 82.148L210.134 81.536C210.638 82.048 211.23 82.304 211.91 82.304C212.462 82.304 212.89 82.136 213.194 81.8C213.498 81.464 213.65 80.98 213.65 80.348C213.65 79.724 213.514 79.276 213.242 79.004C212.97 78.724 212.606 78.584 212.15 78.584C211.934 78.584 211.738 78.604 211.562 78.644C211.386 78.684 211.154 78.756 210.866 78.86H210.05V74.732H214.43L214.286 75.548Z" fill="black"/>
<path d="M187.672 112L190 108.664L187.948 105.676H189.148L190.612 108.028L192.088 105.676H193.252L191.2 108.616L193.528 112H192.304L190.564 109.288L188.824 112H187.672ZM200.399 111.184V112H195.635V111.184H197.663V104.836L195.779 105.976L195.335 105.268L197.795 103.732H198.683V111.184H200.399ZM203.923 111.076C203.923 110.78 204.023 110.532 204.223 110.332C204.431 110.124 204.683 110.02 204.979 110.02C205.283 110.02 205.535 110.124 205.735 110.332C205.935 110.532 206.035 110.78 206.035 111.076C206.035 111.38 205.935 111.632 205.735 111.832C205.535 112.032 205.283 112.132 204.979 112.132C204.683 112.132 204.431 112.032 204.223 111.832C204.023 111.624 203.923 111.372 203.923 111.076ZM214.286 104.548H211.022V107.152C211.254 107.016 211.482 106.924 211.706 106.876C211.938 106.82 212.182 106.792 212.438 106.792C213.126 106.792 213.674 107.02 214.082 107.476C214.498 107.932 214.706 108.568 214.706 109.384C214.706 109.928 214.59 110.408 214.358 110.824C214.134 111.24 213.81 111.564 213.386 111.796C212.962 112.02 212.47 112.132 211.91 112.132C210.99 112.132 210.19 111.804 209.51 111.148L210.134 110.536C210.638 111.048 211.23 111.304 211.91 111.304C212.462 111.304 212.89 111.136 213.194 110.8C213.498 110.464 213.65 109.98 213.65 109.348C213.65 108.724 213.514 108.276 213.242 108.004C212.97 107.724 212.606 107.584 212.15 107.584C211.934 107.584 211.738 107.604 211.562 107.644C211.386 107.684 211.154 107.756 210.866 107.86H210.05V103.732H214.43L214.286 104.548Z" fill="black"/>
<rect x="268" y="16" width="152" height="48" rx="24" fill="#008484"/>
<path d="M301.696 45H305.264C308.176 45 309.264 43.656 309.264 41.784C309.264 40.104 308.064 39.256 306.88 39.048V39C307.824 38.664 308.448 37.752 308.448 36.536C308.448 34.888 307.344 33.688 304.784 33.688H301.696V45ZM303.008 43.912V39.72H304.784C306.704 39.72 307.92 40.296 307.92 41.832C307.92 43.56 306.592 43.912 305.024 43.912H303.008ZM303.008 38.664V34.712H304.448C306.144 34.712 307.104 35.208 307.104 36.744C307.104 37.976 306.4 38.664 304.96 38.664H303.008ZM314.188 45.192C315.66 45.192 316.524 44.568 317.356 43.976V45H318.572V36.264H317.356V42.952C316.684 43.432 315.66 44.04 314.54 44.04C312.972 44.04 312.86 42.952 312.86 41.576V36.264H311.612V41.832C311.612 43.304 311.788 45.192 314.188 45.192ZM324.39 45.192C324.982 45.192 325.798 45.032 326.246 44.872L326.022 43.832C325.654 43.96 325.03 44.088 324.55 44.088C323.542 44.088 322.982 43.752 322.982 42.52V37.336H325.702V36.264H322.966V34.472H321.734V36.264H320.454V37.336H321.734V42.568C321.734 44.632 322.758 45.192 324.39 45.192ZM330.925 45.192C331.517 45.192 332.333 45.032 332.781 44.872L332.557 43.832C332.189 43.96 331.565 44.088 331.085 44.088C330.077 44.088 329.517 43.752 329.517 42.52V37.336H332.237V36.264H329.501V34.472H328.269V36.264H326.989V37.336H328.269V42.568C328.269 44.632 329.293 45.192 330.925 45.192ZM337.876 45.192C340.164 45.192 341.86 43.736 341.86 40.584C341.86 37.704 340.532 36.04 338.052 36.04C335.62 36.04 333.988 37.704 333.988 40.728C333.988 43.592 335.476 45.192 337.876 45.192ZM337.956 44.152C335.908 44.152 335.268 42.456 335.268 40.664C335.268 39 335.812 37.08 337.956 37.08C340.1 37.08 340.58 39.016 340.58 40.664C340.58 42.376 340.068 44.152 337.956 44.152ZM344.206 45H345.47V38.232C346.254 37.688 347.15 37.16 348.27 37.16C349.758 37.16 349.998 38.104 349.998 39.608V45H351.23V39.368C351.23 37.896 351.07 36.04 348.59 36.04C347.23 36.04 346.382 36.584 345.47 37.256V36.264H344.206V45ZM361.299 45.192C361.891 45.192 362.707 45.032 363.155 44.872L362.931 43.832C362.563 43.96 361.939 44.088 361.459 44.088C360.451 44.088 359.891 43.752 359.891 42.52V37.336H362.611V36.264H359.875V34.472H358.643V36.264H357.363V37.336H358.643V42.568C358.643 44.632 359.667 45.192 361.299 45.192ZM368.522 45.192C369.626 45.192 370.618 45 371.274 44.728L371.05 43.704C370.234 43.96 369.578 44.104 368.73 44.104C367.066 44.104 365.69 43.576 365.658 40.872H371.418V40.408C371.418 37.496 370.41 36.04 368.186 36.04C366.058 36.04 364.378 37.4 364.378 40.808C364.378 44.136 365.978 45.192 368.522 45.192ZM365.674 39.928C365.818 37.976 366.794 37.032 368.058 37.032C369.482 37.032 370.106 38.152 370.106 39.928H365.674ZM372.761 45H374.249L376.521 41.416L378.761 45H380.281L377.241 40.504L380.057 36.264H378.649L376.521 39.64L374.409 36.264H372.937L375.801 40.536L372.761 45ZM385.092 45.192C385.684 45.192 386.5 45.032 386.948 44.872L386.724 43.832C386.356 43.96 385.732 44.088 385.252 44.088C384.244 44.088 383.684 43.752 383.684 42.52V37.336H386.404V36.264H383.668V34.472H382.436V36.264H381.156V37.336H382.436V42.568C382.436 44.632 383.46 45.192 385.092 45.192Z" fill="white"/>
<rect x="268" y="72" width="152" height="48" rx="24" fill="#008484"/>
<path d="M301.696 101H305.264C308.176 101 309.264 99.656 309.264 97.784C309.264 96.104 308.064 95.256 306.88 95.048V95C307.824 94.664 308.448 93.752 308.448 92.536C308.448 90.888 307.344 89.688 304.784 89.688H301.696V101ZM303.008 99.912V95.72H304.784C306.704 95.72 307.92 96.296 307.92 97.832C307.92 99.56 306.592 99.912 305.024 99.912H303.008ZM303.008 94.664V90.712H304.448C306.144 90.712 307.104 91.208 307.104 92.744C307.104 93.976 306.4 94.664 304.96 94.664H303.008ZM314.188 101.192C315.66 101.192 316.524 100.568 317.356 99.976V101H318.572V92.264H317.356V98.952C316.684 99.432 315.66 100.04 314.54 100.04C312.972 100.04 312.86 98.952 312.86 97.576V92.264H311.612V97.832C311.612 99.304 311.788 101.192 314.188 101.192ZM324.39 101.192C324.982 101.192 325.798 101.032 326.246 100.872L326.022 99.832C325.654 99.96 325.03 100.088 324.55 100.088C323.542 100.088 322.982 99.752 322.982 98.52V93.336H325.702V92.264H322.966V90.472H321.734V92.264H320.454V93.336H321.734V98.568C321.734 100.632 322.758 101.192 324.39 101.192ZM330.925 101.192C331.517 101.192 332.333 101.032 332.781 100.872L332.557 99.832C332.189 99.96 331.565 100.088 331.085 100.088C330.077 100.088 329.517 99.752 329.517 98.52V93.336H332.237V92.264H329.501V90.472H328.269V92.264H326.989V93.336H328.269V98.568C328.269 100.632 329.293 101.192 330.925 101.192ZM337.876 101.192C340.164 101.192 341.86 99.736 341.86 96.584C341.86 93.704 340.532 92.04 338.052 92.04C335.62 92.04 333.988 93.704 333.988 96.728C333.988 99.592 335.476 101.192 337.876 101.192ZM337.956 100.152C335.908 100.152 335.268 98.456 335.268 96.664C335.268 95 335.812 93.08 337.956 93.08C340.1 93.08 340.58 95.016 340.58 96.664C340.58 98.376 340.068 100.152 337.956 100.152ZM344.206 101H345.47V94.232C346.254 93.688 347.15 93.16 348.27 93.16C349.758 93.16 349.998 94.104 349.998 95.608V101H351.23V95.368C351.23 93.896 351.07 92.04 348.59 92.04C347.23 92.04 346.382 92.584 345.47 93.256V92.264H344.206V101ZM361.299 101.192C361.891 101.192 362.707 101.032 363.155 100.872L362.931 99.832C362.563 99.96 361.939 100.088 361.459 100.088C360.451 100.088 359.891 99.752 359.891 98.52V93.336H362.611V92.264H359.875V90.472H358.643V92.264H357.363V93.336H358.643V98.568C358.643 100.632 359.667 101.192 361.299 101.192ZM368.522 101.192C369.626 101.192 370.618 101 371.274 100.728L371.05 99.704C370.234 99.96 369.578 100.104 368.73 100.104C367.066 100.104 365.69 99.576 365.658 96.872H371.418V96.408C371.418 93.496 370.41 92.04 368.186 92.04C366.058 92.04 364.378 93.4 364.378 96.808C364.378 100.136 365.978 101.192 368.522 101.192ZM365.674 95.928C365.818 93.976 366.794 93.032 368.058 93.032C369.482 93.032 370.106 94.152 370.106 95.928H365.674ZM372.761 101H374.249L376.521 97.416L378.761 101H380.281L377.241 96.504L380.057 92.264H378.649L376.521 95.64L374.409 92.264H372.937L375.801 96.536L372.761 101ZM385.092 101.192C385.684 101.192 386.5 101.032 386.948 100.872L386.724 99.832C386.356 99.96 385.732 100.088 385.252 100.088C384.244 100.088 383.684 99.752 383.684 98.52V93.336H386.404V92.264H383.668V90.472H382.436V92.264H381.156V93.336H382.436V98.568C382.436 100.632 383.46 101.192 385.092 101.192Z" fill="white"/>
<rect x="268" y="72" width="160" height="16" fill="#DB00FF" fill-opacity="0.25"/>
<rect x="268" y="104" width="160" height="16" fill="#DB00FF" fill-opacity="0.25"/>
<rect x="268" y="88" width="160" height="16" fill="#00D9FF" fill-opacity="0.25"/>
<path d="M442.672 84L445 80.664L442.948 77.676H444.148L445.612 80.028L447.088 77.676H448.252L446.2 80.616L448.528 84H447.304L445.564 81.288L443.824 84H442.672ZM452.423 75.6C452.927 75.6 453.367 75.7 453.743 75.9C454.127 76.1 454.419 76.376 454.619 76.728C454.819 77.072 454.919 77.464 454.919 77.904C454.919 78.416 454.799 78.912 454.559 79.392C454.327 79.872 453.951 80.4 453.431 80.976C452.911 81.544 452.175 82.264 451.223 83.136H455.111L454.991 84H450.071V83.184C451.151 82.152 451.951 81.344 452.471 80.76C452.999 80.176 453.363 79.676 453.563 79.26C453.763 78.844 453.863 78.404 453.863 77.94C453.863 77.476 453.731 77.112 453.467 76.848C453.203 76.584 452.839 76.452 452.375 76.452C451.983 76.452 451.655 76.52 451.391 76.656C451.135 76.784 450.871 77.008 450.599 77.328L449.903 76.788C450.231 76.38 450.595 76.08 450.995 75.888C451.403 75.696 451.879 75.6 452.423 75.6Z" fill="black"/>
<path d="M442.672 115L445 111.664L442.948 108.676H444.148L445.612 111.028L447.088 108.676H448.252L446.2 111.616L448.528 115H447.304L445.564 112.288L443.824 115H442.672ZM452.423 106.6C452.927 106.6 453.367 106.7 453.743 106.9C454.127 107.1 454.419 107.376 454.619 107.728C454.819 108.072 454.919 108.464 454.919 108.904C454.919 109.416 454.799 109.912 454.559 110.392C454.327 110.872 453.951 111.4 453.431 111.976C452.911 112.544 452.175 113.264 451.223 114.136H455.111L454.991 115H450.071V114.184C451.151 113.152 451.951 112.344 452.471 111.76C452.999 111.176 453.363 110.676 453.563 110.26C453.763 109.844 453.863 109.404 453.863 108.94C453.863 108.476 453.731 108.112 453.467 107.848C453.203 107.584 452.839 107.452 452.375 107.452C451.983 107.452 451.655 107.52 451.391 107.656C451.135 107.784 450.871 108.008 450.599 108.328L449.903 107.788C450.231 107.38 450.595 107.08 450.995 106.888C451.403 106.696 451.879 106.6 452.423 106.6Z" fill="black"/>
<path d="M443.571 100L445.899 96.664L443.847 93.676H445.047L446.511 96.028L447.987 93.676H449.151L447.099 96.616L449.427 100H448.203L446.463 97.288L444.723 100H443.571ZM453.323 91.6C453.827 91.6 454.267 91.7 454.643 91.9C455.027 92.1 455.319 92.376 455.519 92.728C455.719 93.072 455.819 93.464 455.819 93.904C455.819 94.416 455.699 94.912 455.459 95.392C455.227 95.872 454.851 96.4 454.331 96.976C453.811 97.544 453.075 98.264 452.123 99.136H456.011L455.891 100H450.971V99.184C452.051 98.152 452.851 97.344 453.371 96.76C453.899 96.176 454.263 95.676 454.463 95.26C454.663 94.844 454.763 94.404 454.763 93.94C454.763 93.476 454.631 93.112 454.367 92.848C454.103 92.584 453.739 92.452 453.275 92.452C452.883 92.452 452.555 92.52 452.291 92.656C452.035 92.784 451.771 93.008 451.499 93.328L450.803 92.788C451.131 92.38 451.495 92.08 451.895 91.888C452.303 91.696 452.779 91.6 453.323 91.6Z" fill="black"/>
<line x1="428.5" y1="80.2507" x2="439.5" y2="80.2507" stroke="#B3B3B3" stroke-linecap="round" stroke-dasharray="2 3"/>
<line x1="428.5" y1="96.2507" x2="439.5" y2="96.2507" stroke="#B3B3B3" stroke-linecap="round" stroke-dasharray="2 3"/>
<line x1="428.5" y1="112.251" x2="439.5" y2="112.251" stroke="#B3B3B3" stroke-linecap="round" stroke-dasharray="2 3"/>
<rect x="268" y="128" width="152" height="48" rx="24" fill="#008484"/>
<path d="M301.696 157H305.264C308.176 157 309.264 155.656 309.264 153.784C309.264 152.104 308.064 151.256 306.88 151.048V151C307.824 150.664 308.448 149.752 308.448 148.536C308.448 146.888 307.344 145.688 304.784 145.688H301.696V157ZM303.008 155.912V151.72H304.784C306.704 151.72 307.92 152.296 307.92 153.832C307.92 155.56 306.592 155.912 305.024 155.912H303.008ZM303.008 150.664V146.712H304.448C306.144 146.712 307.104 147.208 307.104 148.744C307.104 149.976 306.4 150.664 304.96 150.664H303.008ZM314.188 157.192C315.66 157.192 316.524 156.568 317.356 155.976V157H318.572V148.264H317.356V154.952C316.684 155.432 315.66 156.04 314.54 156.04C312.972 156.04 312.86 154.952 312.86 153.576V148.264H311.612V153.832C311.612 155.304 311.788 157.192 314.188 157.192ZM324.39 157.192C324.982 157.192 325.798 157.032 326.246 156.872L326.022 155.832C325.654 155.96 325.03 156.088 324.55 156.088C323.542 156.088 322.982 155.752 322.982 154.52V149.336H325.702V148.264H322.966V146.472H321.734V148.264H320.454V149.336H321.734V154.568C321.734 156.632 322.758 157.192 324.39 157.192ZM330.925 157.192C331.517 157.192 332.333 157.032 332.781 156.872L332.557 155.832C332.189 155.96 331.565 156.088 331.085 156.088C330.077 156.088 329.517 155.752 329.517 154.52V149.336H332.237V148.264H329.501V146.472H328.269V148.264H326.989V149.336H328.269V154.568C328.269 156.632 329.293 157.192 330.925 157.192ZM337.876 157.192C340.164 157.192 341.86 155.736 341.86 152.584C341.86 149.704 340.532 148.04 338.052 148.04C335.62 148.04 333.988 149.704 333.988 152.728C333.988 155.592 335.476 157.192 337.876 157.192ZM337.956 156.152C335.908 156.152 335.268 154.456 335.268 152.664C335.268 151 335.812 149.08 337.956 149.08C340.1 149.08 340.58 151.016 340.58 152.664C340.58 154.376 340.068 156.152 337.956 156.152ZM344.206 157H345.47V150.232C346.254 149.688 347.15 149.16 348.27 149.16C349.758 149.16 349.998 150.104 349.998 151.608V157H351.23V151.368C351.23 149.896 351.07 148.04 348.59 148.04C347.23 148.04 346.382 148.584 345.47 149.256V148.264H344.206V157ZM361.299 157.192C361.891 157.192 362.707 157.032 363.155 156.872L362.931 155.832C362.563 155.96 361.939 156.088 361.459 156.088C360.451 156.088 359.891 155.752 359.891 154.52V149.336H362.611V148.264H359.875V146.472H358.643V148.264H357.363V149.336H358.643V154.568C358.643 156.632 359.667 157.192 361.299 157.192ZM368.522 157.192C369.626 157.192 370.618 157 371.274 156.728L371.05 155.704C370.234 155.96 369.578 156.104 368.73 156.104C367.066 156.104 365.69 155.576 365.658 152.872H371.418V152.408C371.418 149.496 370.41 148.04 368.186 148.04C366.058 148.04 364.378 149.4 364.378 152.808C364.378 156.136 365.978 157.192 368.522 157.192ZM365.674 151.928C365.818 149.976 366.794 149.032 368.058 149.032C369.482 149.032 370.106 150.152 370.106 151.928H365.674ZM372.761 157H374.249L376.521 153.416L378.761 157H380.281L377.241 152.504L380.057 148.264H378.649L376.521 151.64L374.409 148.264H372.937L375.801 152.536L372.761 157ZM385.092 157.192C385.684 157.192 386.5 157.032 386.948 156.872L386.724 155.832C386.356 155.96 385.732 156.088 385.252 156.088C384.244 156.088 383.684 155.752 383.684 154.52V149.336H386.404V148.264H383.668V146.472H382.436V148.264H381.156V149.336H382.436V154.568C382.436 156.632 383.46 157.192 385.092 157.192Z" fill="white"/>
<rect x="300" y="128" width="88" height="88" fill="#00D9FF" fill-opacity="0.3"/>
<path d="M387.661 194.354C387.856 194.158 387.856 193.842 387.661 193.646L384.479 190.464C384.283 190.269 383.967 190.269 383.771 190.464C383.576 190.66 383.576 190.976 383.771 191.172L386.6 194L383.771 196.828C383.576 197.024 383.576 197.34 383.771 197.536C383.967 197.731 384.283 197.731 384.479 197.536L387.661 194.354ZM368.812 194.5H387.307V193.5H368.812V194.5Z" fill="black"/>
<path d="M300.647 193.646C300.452 193.842 300.452 194.158 300.647 194.354L303.829 197.536C304.024 197.731 304.341 197.731 304.536 197.536C304.731 197.34 304.731 197.024 304.536 196.828L301.708 194L304.536 191.172C304.731 190.976 304.731 190.66 304.536 190.464C304.341 190.269 304.024 190.269 303.829 190.464L300.647 193.646ZM319.495 193.5H301.001V194.5H319.495V193.5Z" fill="black"/>
<path d="M323.604 194H331.623L339.642 186L347.661 202L355.681 194H364.702" stroke="#333333" stroke-linecap="round" stroke-linejoin="round"/>
<rect x="268" y="128" width="32" height="88" fill="#DB00FF" fill-opacity="0.25"/>
<rect x="388" y="128" width="32" height="88" fill="#FF7AFA" fill-opacity="0.5"/>
<path d="M397.477 240L399.805 236.664L397.753 233.676H398.953L400.417 236.028L401.893 233.676H403.057L401.005 236.616L403.333 240H402.109L400.369 237.288L398.629 240H397.477ZM410.336 237.996H409.268V240H408.296V237.996H404.864V237.252L407.288 231.6L408.128 231.96L405.932 237.18H408.308L408.392 234.84H409.268V237.18H410.336V237.996Z" fill="black"/>
<path d="M277.477 240L279.805 236.664L277.753 233.676H278.953L280.417 236.028L281.893 233.676H283.057L281.005 236.616L283.333 240H282.109L280.369 237.288L278.629 240H277.477ZM290.336 237.996H289.268V240H288.296V237.996H284.864V237.252L287.288 231.6L288.128 231.96L285.932 237.18H288.308L288.392 234.84H289.268V237.18H290.336V237.996Z" fill="black"/>
<line x1="404.5" y1="227.251" x2="404.5" y2="216.251" stroke="#B3B3B3" stroke-linecap="round" stroke-dasharray="2 3"/>
<line x1="284.5" y1="227.251" x2="284.5" y2="216.251" stroke="#B3B3B3" stroke-linecap="round" stroke-dasharray="2 3"/>
<path d="M7.86731 96L10.1953 92.664L8.14331 89.676H9.34331L10.8073 92.028L12.2833 89.676H13.4473L11.3953 92.616L13.7233 96H12.4993L10.7593 93.288L9.01931 96H7.86731ZM17.6186 87.6C18.1226 87.6 18.5626 87.7 18.9386 87.9C19.3226 88.1 19.6146 88.376 19.8146 88.728C20.0146 89.072 20.1146 89.464 20.1146 89.904C20.1146 90.416 19.9946 90.912 19.7546 91.392C19.5226 91.872 19.1466 92.4 18.6266 92.976C18.1066 93.544 17.3706 94.264 16.4186 95.136H20.3066L20.1866 96H15.2666V95.184C16.3466 94.152 17.1466 93.344 17.6666 92.76C18.1946 92.176 18.5586 91.676 18.7586 91.26C18.9586 90.844 19.0586 90.404 19.0586 89.94C19.0586 89.476 18.9266 89.112 18.6626 88.848C18.3986 88.584 18.0346 88.452 17.5706 88.452C17.1786 88.452 16.8506 88.52 16.5866 88.656C16.3306 88.784 16.0666 89.008 15.7946 89.328L15.0986 88.788C15.4266 88.38 15.7906 88.08 16.1906 87.888C16.5986 87.696 17.0746 87.6 17.6186 87.6Z" fill="black"/>
<line x1="24.5" y1="92.2507" x2="35.5" y2="92.2507" stroke="#B3B3B3" stroke-linecap="round" stroke-dasharray="2 3"/>
<line x1="172.5" y1="77.2507" x2="183.5" y2="77.2507" stroke="#B3B3B3" stroke-linecap="round" stroke-dasharray="2 3"/>
<line x1="172.5" y1="106.251" x2="183.5" y2="106.251" stroke="#B3B3B3" stroke-linecap="round" stroke-dasharray="2 3"/>
<line x1="152.5" y1="227.251" x2="152.5" y2="216.251" stroke="#B3B3B3" stroke-linecap="round" stroke-dasharray="2 3"/>
<line x1="48.5" y1="227.251" x2="48.5" y2="216.251" stroke="#B3B3B3" stroke-linecap="round" stroke-dasharray="2 3"/>
</svg>
