<svg width="557" height="384" fill="none" xmlns="http://www.w3.org/2000/svg">
  <g clip-path="url(#clip0)">
    <path fill="#F4FBF9" d="M0 135h376v64H0z"/>
    <path d="M19.776 170v-11.312l-3.52.096v.992h2.256V170h1.264zm9.148-3.408c0-2.064-1.344-3.312-3.44-3.312-.496 0-.928 0-1.44.032v-3.536h4.48v-1.088h-5.696v5.824c.64-.064 1.2-.096 1.76-.112.208 0 .432-.016.656-.016 1.36 0 2.416.704 2.416 2.4 0 1.376-1.04 2.192-2.48 2.192-1.088 0-1.824-.128-2.432-.288l-.32 1.12c.416.128 1.312.336 2.752.336 2.192 0 3.744-1.232 3.744-3.552zm10.28-2.416c0-2.784-.656-5.584-3.888-5.584-3.28 0-4.24 2.832-4.24 5.936 0 3.12.928 5.616 3.968 5.616 3.008 0 4.16-2.416 4.16-5.968zm-1.312.096c0 2.288-.32 4.784-2.768 4.784-2.224 0-2.736-2.304-2.736-4.592 0-2.112.32-4.8 2.832-4.8 2.368 0 2.672 2.624 2.672 4.608zm9.491 2.768c0-1.744-1.424-2.752-2.624-3.056.88-.256 2.096-1.248 2.096-2.784 0-1.744-1.264-2.64-3.104-2.64a5.601 5.601 0 0 0-2.368.512l.384.928s.832-.352 1.92-.352c1.024 0 1.952.384 1.952 1.664 0 1.248-1.216 2.16-2.608 2.272v1.056c1.792.112 3.104.944 3.104 2.416 0 1.728-1.28 1.952-2.56 1.952a8.138 8.138 0 0 1-2.432-.384l-.304 1.056s1.008.464 2.896.464c2.048 0 3.648-.752 3.648-3.104zm2.08 2.96h1.52v-1.504h-1.52V170zm11.694-5.824c0-2.784-.656-5.584-3.888-5.584-3.28 0-4.24 2.832-4.24 5.936 0 3.12.928 5.616 3.968 5.616 3.008 0 4.16-2.416 4.16-5.968zm-1.312.096c0 2.288-.32 4.784-2.768 4.784-2.224 0-2.736-2.304-2.736-4.592 0-2.112.32-4.8 2.832-4.8 2.368 0 2.672 2.624 2.672 4.608zM66.182 170v-11.312l-3.52.096v.992h2.256V170h1.264zm2.813 0h1.52v-1.504h-1.52V170zm5.718.144c3.312 0 5.072-1.696 5.072-6.544 0-3.312-1.52-5.056-3.76-5.056-2.048 0-3.584 1.28-3.584 3.696 0 2.336 1.2 3.584 3.328 3.584.704 0 1.296-.112 1.616-.208l-.08-1.04c-.4.096-.832.16-1.296.16-1.312 0-2.288-.576-2.288-2.624 0-1.392.784-2.448 2.192-2.448 1.872 0 2.576 1.824 2.56 3.824 0 2.976-.384 5.536-3.76 5.536-.528 0-1.12-.128-1.248-.16l-.272 1.056c.352.112.752.224 1.52.224zm13.68-3.552c0-2.064-1.344-3.312-3.44-3.312-.496 0-.928 0-1.44.032v-3.536h4.48v-1.088h-5.696v5.824c.64-.064 1.2-.096 1.76-.112.208 0 .432-.016.656-.016 1.36 0 2.416.704 2.416 2.4 0 1.376-1.04 2.192-2.48 2.192-1.088 0-1.824-.128-2.432-.288l-.32 1.12c.416.128 1.312.336 2.752.336 2.192 0 3.744-1.232 3.744-3.552zm10.28-2.416c0-2.784-.657-5.584-3.889-5.584-3.28 0-4.24 2.832-4.24 5.936 0 3.12.928 5.616 3.969 5.616 3.007 0 4.16-2.416 4.16-5.968zm-1.313.096c0 2.288-.32 4.784-2.767 4.784-2.225 0-2.737-2.304-2.737-4.592 0-2.112.32-4.8 2.833-4.8 2.368 0 2.672 2.624 2.672 4.608zM107.733 170v-1.104h-5.68c2.624-2.4 4.976-4.704 4.976-7.152 0-1.472-.528-3.184-3.248-3.184-1.584 0-2.496.56-2.976.88l.496.912c.272-.16 1.088-.672 2.368-.672 1.328 0 2.08.512 2.08 2.208 0 2.464-4.944 6.672-5.328 7.072V170h7.312zm4.435 0v-11.312l-3.52.096v.992h2.256V170h1.264zM247.696 170h3.152c3.776 0 6.224-1.728 6.224-5.696 0-3.904-2.672-5.616-6.32-5.616h-3.056V170zm1.312-1.088v-9.136h1.696c3.008 0 5.008 1.504 5.008 4.704 0 2.944-1.76 4.432-4.688 4.432h-2.016zM259.407 170h1.264v-6.432c.416-.64 1.216-1.392 2.272-1.392.512 0 .768.048 1.04.112l.208-1.072a3.485 3.485 0 0 0-1.024-.144 2.918 2.918 0 0 0-2.496 1.36v-1.168h-1.264V170zm6.187 0h1.28v-8.736h-1.28V170zm.624-10.368l1.072-1.072-1.072-1.056-1.04 1.056 1.04 1.072zm3.792 13.648h1.264v-10.992h1.872v-1.024h-1.872v-.608c0-1.312.48-1.824 1.584-1.824.592 0 .864.064 1.104.128l.224-1.024c-.352-.112-.736-.176-1.344-.176-1.568 0-2.832.784-2.832 2.912v.592h-1.28v1.024h1.28v10.992zm7.763-3.088c.592 0 1.408-.16 1.856-.32l-.224-1.04a5.139 5.139 0 0 1-1.472.256c-1.008 0-1.568-.336-1.568-1.568v-5.184h2.72v-1.072h-2.736v-1.792h-1.232v1.792h-1.28v1.072h1.28v5.232c0 2.064 1.024 2.624 2.656 2.624zm5.175 0c1.552 0 3.392-.64 3.392-2.512 0-2.896-4.368-2.304-4.368-4.304 0-.72.512-1.28 1.712-1.28.64 0 1.36.144 1.92.368l.288-1.008c-.624-.272-1.504-.416-2.192-.416-1.632 0-2.96.848-2.96 2.448 0 2.88 4.4 2.32 4.4 4.272 0 .864-.816 1.36-2.096 1.36-.752 0-1.568-.16-2.336-.384l-.208 1.072a8.82 8.82 0 0 0 2.448.384zm12.1-.064l.272-.944c-.544-.144-1.344-.656-2.144-1.632l-1.792-2.208 3.712-4.08h-1.456l-3.68 4.128 2.464 3.12c1.12 1.408 2.032 1.584 2.624 1.616zm-6.704-.128h1.264v-12.064h-1.264V170zm11.83.192c2.288 0 3.984-1.456 3.984-4.608 0-2.88-1.328-4.544-3.808-4.544-2.432 0-4.064 1.664-4.064 4.688 0 2.864 1.488 4.464 3.888 4.464zm.08-1.04c-2.048 0-2.688-1.696-2.688-3.488 0-1.664.544-3.584 2.688-3.584s2.624 1.936 2.624 3.584c0 1.712-.512 3.488-2.624 3.488zm6.09.848h1.264v-6.768c.784-.544 1.68-1.072 2.8-1.072 1.488 0 1.728.944 1.728 2.448V170h1.232v-5.632c0-1.472-.16-3.328-2.64-3.328-1.36 0-2.208.544-3.12 1.216v-.992h-1.264V170zm12.601.192c.592 0 1.408-.16 1.856-.32l-.224-1.04a5.139 5.139 0 0 1-1.472.256c-1.008 0-1.568-.336-1.568-1.568v-5.184h2.72v-1.072h-2.736v-1.792h-1.232v1.792h-1.28v1.072h1.28v5.232c0 2.064 1.024 2.624 2.656 2.624zm6.791 0c2.288 0 3.984-1.456 3.984-4.608 0-2.88-1.328-4.544-3.808-4.544-2.432 0-4.064 1.664-4.064 4.688 0 2.864 1.488 4.464 3.888 4.464zm.08-1.04c-2.048 0-2.688-1.696-2.688-3.488 0-1.664.544-3.584 2.688-3.584s2.624 1.936 2.624 3.584c0 1.712-.512 3.488-2.624 3.488z" fill="#333"/>
  </g>
  <g clip-path="url(#clip1)">
    <path fill="#fff" d="M0 80h376v56H0z"/>
    <path d="M19.776 114v-11.312l-3.52.096v.992h2.256V114h1.264zm9.148-3.408c0-2.064-1.344-3.312-3.44-3.312-.496 0-.928 0-1.44.032v-3.536h4.48v-1.088h-5.696v5.824c.64-.064 1.2-.096 1.76-.112.208 0 .432-.016.656-.016 1.36 0 2.416.704 2.416 2.4 0 1.376-1.04 2.192-2.48 2.192-1.088 0-1.824-.128-2.432-.288l-.32 1.12c.416.128 1.312.336 2.752.336 2.192 0 3.744-1.232 3.744-3.552zm10.28-2.416c0-2.784-.656-5.584-3.888-5.584-3.28 0-4.24 2.832-4.24 5.936 0 3.12.928 5.616 3.968 5.616 3.008 0 4.16-2.416 4.16-5.968zm-1.312.096c0 2.288-.32 4.784-2.768 4.784-2.224 0-2.736-2.304-2.736-4.592 0-2.112.32-4.8 2.832-4.8 2.368 0 2.672 2.624 2.672 4.608zm9.491 2.768c0-1.744-1.424-2.752-2.624-3.056.88-.256 2.096-1.248 2.096-2.784 0-1.744-1.264-2.64-3.104-2.64a5.601 5.601 0 0 0-2.368.512l.384.928s.832-.352 1.92-.352c1.024 0 1.952.384 1.952 1.664 0 1.248-1.216 2.16-2.608 2.272v1.056c1.792.112 3.104.944 3.104 2.416 0 1.728-1.28 1.952-2.56 1.952a8.138 8.138 0 0 1-2.432-.384l-.304 1.056s1.008.464 2.896.464c2.048 0 3.648-.752 3.648-3.104zm2.08 2.96h1.52v-1.504h-1.52V114zm11.694-5.824c0-2.784-.656-5.584-3.888-5.584-3.28 0-4.24 2.832-4.24 5.936 0 3.12.928 5.616 3.968 5.616 3.008 0 4.16-2.416 4.16-5.968zm-1.312.096c0 2.288-.32 4.784-2.768 4.784-2.224 0-2.736-2.304-2.736-4.592 0-2.112.32-4.8 2.832-4.8 2.368 0 2.672 2.624 2.672 4.608zM66.182 114v-11.312l-3.52.096v.992h2.256V114h1.264zm2.813 0h1.52v-1.504h-1.52V114zm5.718.144c3.312 0 5.072-1.696 5.072-6.544 0-3.312-1.52-5.056-3.76-5.056-2.048 0-3.584 1.28-3.584 3.696 0 2.336 1.2 3.584 3.328 3.584.704 0 1.296-.112 1.616-.208l-.08-1.04c-.4.096-.832.16-1.296.16-1.312 0-2.288-.576-2.288-2.624 0-1.392.784-2.448 2.192-2.448 1.872 0 2.576 1.824 2.56 3.824 0 2.976-.384 5.536-3.76 5.536-.528 0-1.12-.128-1.248-.16l-.272 1.056c.352.112.752.224 1.52.224zm13.68-3.552c0-2.064-1.344-3.312-3.44-3.312-.496 0-.928 0-1.44.032v-3.536h4.48v-1.088h-5.696v5.824c.64-.064 1.2-.096 1.76-.112.208 0 .432-.016.656-.016 1.36 0 2.416.704 2.416 2.4 0 1.376-1.04 2.192-2.48 2.192-1.088 0-1.824-.128-2.432-.288l-.32 1.12c.416.128 1.312.336 2.752.336 2.192 0 3.744-1.232 3.744-3.552zm10.28-2.416c0-2.784-.657-5.584-3.889-5.584-3.28 0-4.24 2.832-4.24 5.936 0 3.12.928 5.616 3.969 5.616 3.007 0 4.16-2.416 4.16-5.968zm-1.313.096c0 2.288-.32 4.784-2.767 4.784-2.225 0-2.737-2.304-2.737-4.592 0-2.112.32-4.8 2.833-4.8 2.368 0 2.672 2.624 2.672 4.608zM107.733 114v-1.104h-5.68c2.624-2.4 4.976-4.704 4.976-7.152 0-1.472-.528-3.184-3.248-3.184-1.584 0-2.496.56-2.976.88l.496.912c.272-.16 1.088-.672 2.368-.672 1.328 0 2.08.512 2.08 2.208 0 2.464-4.944 6.672-5.328 7.072V114h7.312zm4.435 0v-11.312l-3.52.096v.992h2.256V114h1.264zM248.696 114h3.152c3.776 0 6.224-1.728 6.224-5.696 0-3.904-2.672-5.616-6.32-5.616h-3.056V114zm1.312-1.088v-9.136h1.696c3.008 0 5.008 1.504 5.008 4.704 0 2.944-1.76 4.432-4.688 4.432h-2.016zM260.407 114h1.264v-6.432c.416-.64 1.216-1.392 2.272-1.392.512 0 .768.048 1.04.112l.208-1.072a3.485 3.485 0 0 0-1.024-.144 2.918 2.918 0 0 0-2.496 1.36v-1.168h-1.264V114zm6.187 0h1.28v-8.736h-1.28V114zm.624-10.368l1.072-1.072-1.072-1.056-1.04 1.056 1.04 1.072zm3.792 13.648h1.264v-10.992h1.872v-1.024h-1.872v-.608c0-1.312.48-1.824 1.584-1.824.592 0 .864.064 1.104.128l.224-1.024c-.352-.112-.736-.176-1.344-.176-1.568 0-2.832.784-2.832 2.912v.592h-1.28v1.024h1.28v10.992zm7.763-3.088c.592 0 1.408-.16 1.856-.32l-.224-1.04a5.139 5.139 0 0 1-1.472.256c-1.008 0-1.568-.336-1.568-1.568v-5.184h2.72v-1.072h-2.736v-1.792h-1.232v1.792h-1.28v1.072h1.28v5.232c0 2.064 1.024 2.624 2.656 2.624zm5.175 0c1.552 0 3.392-.64 3.392-2.512 0-2.896-4.368-2.304-4.368-4.304 0-.72.512-1.28 1.712-1.28.64 0 1.36.144 1.92.368l.288-1.008c-.624-.272-1.504-.416-2.192-.416-1.632 0-2.96.848-2.96 2.448 0 2.88 4.4 2.32 4.4 4.272 0 .864-.816 1.36-2.096 1.36-.752 0-1.568-.16-2.336-.384l-.208 1.072a8.82 8.82 0 0 0 2.448.384zm12.1-.064l.272-.944c-.544-.144-1.344-.656-2.144-1.632l-1.792-2.208 3.712-4.08h-1.456l-3.68 4.128 2.464 3.12c1.12 1.408 2.032 1.584 2.624 1.616zm-6.704-.128h1.264v-12.064h-1.264V114zm11.83.192c2.288 0 3.984-1.456 3.984-4.608 0-2.88-1.328-4.544-3.808-4.544-2.432 0-4.064 1.664-4.064 4.688 0 2.864 1.488 4.464 3.888 4.464zm.08-1.04c-2.048 0-2.688-1.696-2.688-3.488 0-1.664.544-3.584 2.688-3.584s2.624 1.936 2.624 3.584c0 1.712-.512 3.488-2.624 3.488zm6.09.848h1.264v-6.768c.784-.544 1.68-1.072 2.8-1.072 1.488 0 1.728.944 1.728 2.448V114h1.232v-5.632c0-1.472-.16-3.328-2.64-3.328-1.36 0-2.208.544-3.12 1.216v-.992h-1.264V114zm12.601.192c.592 0 1.408-.16 1.856-.32l-.224-1.04a5.139 5.139 0 0 1-1.472.256c-1.008 0-1.568-.336-1.568-1.568v-5.184h2.72v-1.072h-2.736v-1.792h-1.232v1.792h-1.28v1.072h1.28v5.232c0 2.064 1.024 2.624 2.656 2.624zm6.791 0c2.288 0 3.984-1.456 3.984-4.608 0-2.88-1.328-4.544-3.808-4.544-2.432 0-4.064 1.664-4.064 4.688 0 2.864 1.488 4.464 3.888 4.464zm.08-1.04c-2.048 0-2.688-1.696-2.688-3.488 0-1.664.544-3.584 2.688-3.584s2.624 1.936 2.624 3.584c0 1.712-.512 3.488-2.624 3.488z" fill="#333"/>
  </g>
  <path fill="#D2F0E9" d="M0 0h376v80H0z"/>
  <path fill="#A5E1D2" d="M0 79h376v1H0z"/>
  <rect x="247" y="64" width="112" height="1.5" rx=".75" fill="#14555A"/>
  <path d="M248.472 58V46.688h2.176v9.552h4.912V58h-7.088zm12.095.192c-1.344 0-2.384-.395-3.12-1.184-.736-.8-1.104-1.899-1.104-3.296 0-1.461.395-2.603 1.184-3.424.8-.832 1.867-1.248 3.2-1.248 1.408 0 2.464.4 3.168 1.2.715.79 1.072 1.915 1.072 3.376 0 1.472-.405 2.603-1.216 3.392-.8.79-1.861 1.184-3.184 1.184zm.112-1.712c.789 0 1.339-.25 1.648-.752.309-.501.464-1.195.464-2.08 0-1.941-.709-2.912-2.128-2.912-1.44 0-2.16.97-2.16 2.912 0 1.888.725 2.832 2.176 2.832zm6.114 1.52v-8.736h2.128v1.168c.246-.352.576-.661.992-.928.416-.277.87-.416 1.36-.416.47 0 .848.048 1.136.144l-.304 1.76a5.92 5.92 0 0 0-1.12-.096c-.416 0-.81.101-1.184.304a2.675 2.675 0 0 0-.88.688V58h-2.128zm10.781.192c-1.451 0-2.56-.33-3.328-.992-.758-.661-1.136-1.808-1.136-3.44 0-1.643.373-2.837 1.12-3.584.757-.747 1.76-1.12 3.008-1.12 1.301 0 2.245.373 2.832 1.12.586.747.88 1.84.88 3.28v.768h-5.696c-.011.853.218 1.44.688 1.76.469.32 1.109.48 1.92.48.714 0 1.552-.123 2.512-.368l.336 1.616c-.928.32-1.974.48-3.136.48zm-2.272-5.392h3.456c.01-.683-.123-1.221-.4-1.616-.267-.395-.667-.592-1.2-.592-.523 0-.955.192-1.296.576-.331.384-.518.928-.56 1.632zm7.46 5.2v-8.736h2.128v.944c1.003-.779 1.957-1.168 2.864-1.168.597 0 1.104.117 1.52.352.416.235.709.555.88.96 1.013-.875 2.037-1.312 3.072-1.312.523 0 .965.08 1.328.24.363.15.635.325.816.528.181.192.32.47.416.832.096.363.149.661.16.896.021.224.032.533.032.928V58h-2.128v-5.296c0-.63-.096-1.088-.288-1.376-.192-.288-.549-.432-1.072-.432-.672 0-1.376.24-2.112.72.032.267.048.544.048.832V58h-2.112v-5.296c0-.65-.096-1.11-.288-1.376-.181-.277-.523-.416-1.024-.416-.715 0-1.419.235-2.112.704V58h-2.128zm19.281 0v-8.736h2.144V58h-2.144zm1.056-9.936l-1.504-1.52 1.504-1.504 1.52 1.504-1.52 1.52zm3.444 13.456V49.264h2.112v.656c.811-.576 1.632-.864 2.464-.864 1.067 0 1.92.352 2.56 1.056.64.704.96 1.77.96 3.2 0 .875-.128 1.637-.384 2.288-.245.64-.592 1.141-1.04 1.504-.437.363-.928.63-1.472.8a5.69 5.69 0 0 1-1.744.256c-.309 0-.757-.027-1.344-.08v3.44h-2.112zm3.424-5.008c.832 0 1.456-.283 1.872-.848.427-.565.64-1.323.64-2.272 0-1.696-.688-2.544-2.064-2.544-.448 0-1.034.155-1.76.464v5.072c.854.085 1.291.128 1.312.128zm8.674 1.68c-1.035 0-1.947-.123-2.736-.368l.256-1.664c1.099.192 1.941.288 2.528.288 1.152 0 1.728-.283 1.728-.848 0-.213-.112-.4-.336-.56a2.327 2.327 0 0 0-.816-.4c-.32-.096-.672-.219-1.056-.368-.373-.16-.725-.33-1.056-.512a2.484 2.484 0 0 1-.816-.816c-.213-.352-.32-.763-.32-1.232 0-.864.325-1.525.976-1.984.661-.459 1.488-.688 2.48-.688.928 0 1.797.155 2.608.464l-.384 1.584a7.51 7.51 0 0 0-2.16-.336c-.939 0-1.408.261-1.408.784 0 .224.107.421.32.592.213.16.48.293.8.4.331.107.683.24 1.056.4.384.16.736.336 1.056.528.331.181.603.453.816.816.213.352.32.763.32 1.232 0 .501-.117.939-.352 1.312a2.3 2.3 0 0 1-.944.832c-.395.192-.805.33-1.232.416a6.76 6.76 0 0 1-1.328.128zm8.135 0c-.47 0-.875-.064-1.216-.192-.331-.139-.587-.31-.768-.512a2.185 2.185 0 0 1-.432-.784 4.76 4.76 0 0 1-.208-.912 14.004 14.004 0 0 1-.032-1.04v-5.488h2.128v5.248c0 .672.085 1.141.256 1.408.181.267.544.4 1.088.4.768 0 1.53-.23 2.288-.688v-6.368h2.128V58h-2.128v-.944c-.331.235-.608.421-.832.56-.214.128-.534.256-.96.384a4.44 4.44 0 0 1-1.312.192zm7.58-.192v-8.736h2.128v.944c1.003-.779 1.957-1.168 2.864-1.168.597 0 1.104.117 1.52.352.416.235.709.555.88.96 1.013-.875 2.037-1.312 3.072-1.312.523 0 .965.08 1.328.24.363.15.635.325.816.528.181.192.32.47.416.832.096.363.149.661.16.896.021.224.032.533.032.928V58h-2.128v-5.296c0-.63-.096-1.088-.288-1.376-.192-.288-.549-.432-1.072-.432-.672 0-1.376.24-2.112.72.032.267.048.544.048.832V58h-2.112v-5.296c0-.65-.096-1.11-.288-1.376-.181-.277-.523-.416-1.024-.416-.715 0-1.419.235-2.112.704V58h-2.128zM16.472 57V45.688h2.176v5.168l4.272-5.168h2.784l-4.624 5.264L25.976 57h-2.8l-4.528-5.984V57h-2.176zm14.376.192c-1.344 0-2.384-.395-3.12-1.184-.736-.8-1.104-1.899-1.104-3.296 0-1.461.395-2.603 1.184-3.424.8-.832 1.867-1.248 3.2-1.248 1.408 0 2.464.4 3.168 1.2.715.79 1.072 1.915 1.072 3.376 0 1.472-.405 2.603-1.216 3.392-.8.79-1.861 1.184-3.184 1.184zm.112-1.712c.79 0 1.339-.25 1.648-.752.31-.501.464-1.195.464-2.08 0-1.941-.709-2.912-2.128-2.912-1.44 0-2.16.97-2.16 2.912 0 1.888.726 2.832 2.176 2.832zM37.075 57v-8.736h2.128v.928c.544-.384 1.04-.672 1.488-.864.448-.192.981-.288 1.6-.288.586 0 1.066.09 1.44.272.384.181.661.453.832.816.17.352.282.704.336 1.056.053.341.08.768.08 1.28V57h-2.112v-5.296c0-.683-.096-1.152-.288-1.408-.182-.267-.539-.4-1.072-.4-.726 0-1.494.23-2.304.688V57h-2.128zm13.547.208c-.96 0-1.696-.213-2.208-.64-.5-.437-.752-1.163-.752-2.176v-4.496h-1.28v-1.632h1.28v-1.792h2.129v1.792h2.704v1.632H49.79v4.384c0 .416.09.704.272.864.18.16.49.24.927.24.523 0 1.1-.085 1.728-.256l.24 1.696a6.88 6.88 0 0 1-2.335.384zm7.539-.016c-1.344 0-2.384-.395-3.12-1.184-.736-.8-1.104-1.899-1.104-3.296 0-1.461.395-2.603 1.184-3.424.8-.832 1.866-1.248 3.2-1.248 1.408 0 2.464.4 3.168 1.2.715.79 1.072 1.915 1.072 3.376 0 1.472-.405 2.603-1.216 3.392-.8.79-1.861 1.184-3.184 1.184zm.112-1.712c.79 0 1.338-.25 1.648-.752.31-.501.464-1.195.464-2.08 0-1.941-.71-2.912-2.128-2.912-1.44 0-2.16.97-2.16 2.912 0 1.888.725 2.832 2.176 2.832zM64.387 57v-8.736h2.128v.928c.544-.384 1.04-.672 1.488-.864.448-.192.981-.288 1.6-.288.587 0 1.067.09 1.44.272.384.181.661.453.832.816.17.352.283.704.336 1.056.053.341.08.768.08 1.28V57H70.18v-5.296c0-.683-.096-1.152-.288-1.408-.181-.267-.538-.4-1.072-.4-.725 0-1.493.23-2.304.688V57h-2.128zm12.748.192c-.47 0-.875-.064-1.216-.192-.33-.139-.587-.31-.768-.512a2.206 2.206 0 0 1-.432-.784 4.782 4.782 0 0 1-.208-.912 14.397 14.397 0 0 1-.032-1.04v-5.488h2.128v5.248c0 .672.085 1.141.256 1.408.181.267.544.4 1.088.4.768 0 1.53-.23 2.288-.688v-6.368h2.128V57h-2.128v-.944c-.33.235-.608.421-.832.56-.213.128-.533.256-.96.384a4.436 4.436 0 0 1-1.312.192zm7.58-.192v-8.736h2.128v.944c1.003-.779 1.958-1.168 2.864-1.168.598 0 1.104.117 1.52.352.416.235.71.555.88.96 1.014-.875 2.038-1.312 3.072-1.312.523 0 .966.08 1.328.24.363.15.635.325.816.528.182.192.32.47.416.832.096.363.15.661.16.896.022.224.032.533.032.928V57h-2.128v-5.296c0-.63-.096-1.088-.288-1.376-.192-.288-.55-.432-1.072-.432-.672 0-1.376.24-2.112.72.032.267.048.544.048.832V57h-2.112v-5.296c0-.65-.096-1.11-.288-1.376-.181-.277-.522-.416-1.024-.416-.714 0-1.418.235-2.112.704V57h-2.128zm15.5 0v-8.736h2.128v.944c1.003-.779 1.958-1.168 2.864-1.168.598 0 1.104.117 1.52.352.416.235.71.555.88.96 1.014-.875 2.038-1.312 3.072-1.312.523 0 .966.08 1.328.24.363.15.635.325.816.528.182.192.32.47.416.832.096.363.15.661.16.896.022.224.032.533.032.928V57h-2.128v-5.296c0-.63-.096-1.088-.288-1.376-.192-.288-.549-.432-1.072-.432-.672 0-1.376.24-2.112.72.032.267.048.544.048.832V57h-2.112v-5.296c0-.65-.096-1.11-.288-1.376-.181-.277-.522-.416-1.024-.416-.714 0-1.418.235-2.112.704V57h-2.128zm19.452.192c-1.45 0-2.56-.33-3.328-.992-.757-.661-1.136-1.808-1.136-3.44 0-1.643.374-2.837 1.12-3.584.758-.747 1.76-1.12 3.008-1.12 1.302 0 2.246.373 2.832 1.12.587.747.88 1.84.88 3.28v.768h-5.696c-.01.853.219 1.44.688 1.76.47.32 1.11.48 1.92.48.715 0 1.552-.123 2.512-.368l.336 1.616c-.928.32-1.973.48-3.136.48zm-2.272-5.392h3.456c.011-.683-.122-1.221-.4-1.616-.266-.395-.666-.592-1.2-.592a1.66 1.66 0 0 0-1.296.576c-.33.384-.517.928-.56 1.632zm7.461 5.2v-8.736h2.128v1.168c.245-.352.576-.661.992-.928a2.402 2.402 0 0 1 1.36-.416c.469 0 .848.048 1.136.144l-.304 1.76a5.927 5.927 0 0 0-1.12-.096c-.416 0-.811.101-1.184.304-.373.192-.667.421-.88.688V57h-2.128z" fill="#14555A"/>
  <path fill-rule="evenodd" clip-rule="evenodd" d="M143.032 50.22a.75.75 0 1 0-1.06 1.06l4.5 4.5a.745.745 0 0 0 1.06 0l4.5-4.5a.75.75 0 1 0-1.06-1.06l-3.97 3.97-3.97-3.97z" fill="#14555A"/>
  <path d="M431.104 129h-1.044v-7.368h-2.58v-.9h6.228l-.108.9h-2.496V129zm8.827-1.38c0 .248.04.432.12.552.08.112.212.196.396.252l-.252.72c-.616-.08-1-.38-1.152-.9a2.173 2.173 0 0 1-.852.66 2.706 2.706 0 0 1-1.128.228c-.632 0-1.132-.176-1.5-.528-.36-.352-.54-.824-.54-1.416 0-.648.252-1.148.756-1.5.512-.352 1.244-.528 2.196-.528h.936v-.516c0-.448-.128-.768-.384-.96-.256-.2-.628-.3-1.116-.3-.48 0-1.028.108-1.644.324l-.276-.768c.744-.264 1.436-.396 2.076-.396.768 0 1.352.18 1.752.54.408.36.612.86.612 1.5v3.036zm-2.616.756c.312 0 .608-.08.888-.24.288-.16.524-.38.708-.66v-1.62h-.912c-.672 0-1.156.112-1.452.336-.296.224-.444.552-.444.984 0 .8.404 1.2 1.212 1.2zm6.284-4.872c.488-.64 1.092-.96 1.812-.96.808 0 1.404.288 1.788.864.384.576.576 1.384.576 2.424 0 .992-.22 1.792-.66 2.4-.44.6-1.056.9-1.848.9-.728 0-1.3-.264-1.716-.792l-.072.66h-.888v-8.868l1.008-.12v3.492zm1.44 4.812c.528 0 .932-.208 1.212-.624.288-.416.432-1.036.432-1.86 0-.816-.128-1.432-.384-1.848-.248-.416-.62-.624-1.116-.624-.32 0-.616.096-.888.288a2.985 2.985 0 0 0-.696.72v3.132c.168.256.376.456.624.6.248.144.52.216.816.216zm7.219-.876c0 .568.348.852 1.044.852.328 0 .68-.072 1.056-.216l.264.732c-.4.216-.9.324-1.5.324-.568 0-1.024-.156-1.368-.468-.336-.312-.504-.736-.504-1.272v-6.456h-1.944v-.804h2.952v7.308zm5.527-1.248c.024.696.204 1.22.54 1.572.344.352.776.528 1.296.528.312 0 .596-.044.852-.132.264-.096.544-.24.84-.432l.468.672a3.36 3.36 0 0 1-1.02.54 3.516 3.516 0 0 1-1.14.192c-.912 0-1.624-.296-2.136-.888-.504-.6-.756-1.4-.756-2.4 0-.632.112-1.196.336-1.692.224-.504.544-.896.96-1.176.416-.288.9-.432 1.452-.432.8 0 1.428.28 1.884.84.464.552.696 1.308.696 2.268 0 .184-.008.364-.024.54h-4.248zm1.704-2.82c-.488 0-.884.176-1.188.528-.304.344-.476.852-.516 1.524h3.288c-.008-.664-.152-1.172-.432-1.524-.28-.352-.664-.528-1.152-.528zm16.155-.828c.256 0 .552.044.888.132l-.144 2.148h-.816v-1.356h-.06c-.976 0-1.668.696-2.076 2.088v2.664h1.284v.78h-3.288v-.78h.996v-4.764h-.996v-.78h1.752l.192 1.5c.256-.544.56-.952.912-1.224.36-.272.812-.408 1.356-.408zm5.335 0c.872 0 1.54.296 2.004.888.472.584.708 1.384.708 2.4 0 .992-.24 1.792-.72 2.4-.472.6-1.14.9-2.004.9-.872 0-1.544-.292-2.016-.876-.472-.592-.708-1.396-.708-2.412 0-1 .236-1.8.708-2.4.48-.6 1.156-.9 2.028-.9zm0 .828c-.552 0-.964.204-1.236.612-.272.408-.408 1.028-.408 1.86 0 .832.132 1.452.396 1.86.272.4.684.6 1.236.6.552 0 .96-.2 1.224-.6.272-.408.408-1.032.408-1.872 0-.832-.136-1.448-.408-1.848-.264-.408-.668-.612-1.212-.612zm8.048 5.628l-.828-4.632-.888 4.632h-1.392l-1.14-6.324h1.02l.816 5.7 1.008-4.896h1.188l.948 4.896.816-5.7h.972L490.455 129h-1.428zm6.091-.696c.48 0 .86-.092 1.14-.276.28-.184.42-.428.42-.732 0-.208-.036-.376-.108-.504-.072-.136-.216-.256-.432-.36-.216-.112-.544-.224-.984-.336-.736-.184-1.28-.404-1.632-.66-.352-.264-.528-.652-.528-1.164 0-.528.22-.948.66-1.26.44-.312 1.02-.468 1.74-.468.88 0 1.648.232 2.304.696l-.456.696a3.232 3.232 0 0 0-.828-.42 2.925 2.925 0 0 0-.996-.156c-.912 0-1.368.276-1.368.828 0 .192.048.348.144.468.104.12.268.228.492.324.232.088.576.196 1.032.324.688.184 1.2.42 1.536.708.344.28.516.692.516 1.236 0 .632-.256 1.104-.768 1.416-.512.312-1.14.468-1.884.468-.992 0-1.816-.284-2.472-.852l.564-.66c.256.208.548.376.876.504.328.12.672.18 1.032.18zm15.494.696l-.828-4.632-.888 4.632h-1.392l-1.14-6.324h1.02l.816 5.7 1.008-4.896h1.188l.948 4.896.816-5.7h.972L512.04 129h-1.428zm6.332-9.276a.73.73 0 0 1 .54.204.66.66 0 0 1 .204.504.7.7 0 0 1-.204.516c-.136.128-.316.192-.54.192a.74.74 0 0 1-.528-.192.723.723 0 0 1-.192-.516c0-.208.064-.376.192-.504a.714.714 0 0 1 .528-.204zm.804 8.472h1.776V129h-4.728v-.804h1.944v-4.716h-1.884v-.804h2.892v5.52zm9.019.48a2.57 2.57 0 0 1-.792.336 3.57 3.57 0 0 1-.912.12c-.664 0-1.184-.172-1.56-.516-.376-.352-.564-.812-.564-1.38v-3.768h-1.452v-.792h1.452v-1.428l1.008-.12v1.548h2.196l-.132.792h-2.064v3.756c0 .36.096.628.288.804.192.176.5.264.924.264.432 0 .836-.1 1.212-.3l.396.684zm3.175-5.124c.248-.32.552-.568.912-.744.36-.176.732-.264 1.116-.264 1.184 0 1.776.624 1.776 1.872V129h-1.008v-4.572c0-.376-.088-.648-.264-.816-.176-.176-.456-.264-.84-.264-.328 0-.644.104-.948.312a2.82 2.82 0 0 0-.744.732V129h-1.008v-8.856l1.008-.108v3.516zm-98.514 18.836c0 .248-.092.46-.276.636a.888.888 0 0 1-.636.252.888.888 0 0 1-.636-.252.867.867 0 0 1-.264-.636c0-.232.068-.492.204-.78l.984-2.076h.792l-.492 2.208a.654.654 0 0 1 .228.276.78.78 0 0 1 .096.372zm9.403 2.436c0 1.568-.36 2.656-1.08 3.264-.72.608-1.608.912-2.664.912h-1.896v-8.268h1.764c1.16 0 2.096.292 2.808.876.712.584 1.068 1.656 1.068 3.216zm-1.116 0c0-.896-.124-1.58-.372-2.052-.24-.48-.54-.796-.9-.948-.36-.16-.772-.24-1.236-.24h-.972v6.576h.984c.712 0 1.304-.244 1.776-.732.48-.496.72-1.364.72-2.604zm3.68 1.368c.024.696.204 1.22.54 1.572.344.352.776.528 1.296.528.312 0 .596-.044.852-.132.264-.096.544-.24.84-.432l.468.672a3.36 3.36 0 0 1-1.02.54 3.516 3.516 0 0 1-1.14.192c-.912 0-1.624-.296-2.136-.888-.504-.6-.756-1.4-.756-2.4 0-.632.112-1.196.336-1.692.224-.504.544-.896.96-1.176.416-.288.9-.432 1.452-.432.8 0 1.428.28 1.884.84.464.552.696 1.308.696 2.268 0 .184-.008.364-.024.54h-4.248zm1.704-2.82c-.488 0-.884.176-1.188.528-.304.344-.476.852-.516 1.524h3.288c-.008-.664-.152-1.172-.432-1.524-.28-.352-.664-.528-1.152-.528zm8.419-3.36c.6 0 1.172.112 1.716.336l-.324.756a3.334 3.334 0 0 0-1.356-.264c-.88 0-1.32.348-1.32 1.044v1.284h2.136l-.108.804h-2.028V149h-1.02v-5.028h-1.5v-.804h1.5v-1.26c0-.568.216-1.024.648-1.368.44-.352.992-.528 1.656-.528zm7.999 7.608c0 .248.04.432.12.552.08.112.212.196.396.252l-.252.72c-.616-.08-1-.38-1.152-.9a2.173 2.173 0 0 1-.852.66 2.706 2.706 0 0 1-1.128.228c-.632 0-1.132-.176-1.5-.528-.36-.352-.54-.824-.54-1.416 0-.648.252-1.148.756-1.5.512-.352 1.244-.528 2.196-.528h.936v-.516c0-.448-.128-.768-.384-.96-.256-.2-.628-.3-1.116-.3-.48 0-1.028.108-1.644.324l-.276-.768c.744-.264 1.436-.396 2.076-.396.768 0 1.352.18 1.752.54.408.36.612.86.612 1.5v3.036zm-2.616.756c.312 0 .608-.08.888-.24.288-.16.524-.38.708-.66v-1.62h-.912c-.672 0-1.156.112-1.452.336-.296.224-.444.552-.444.984 0 .8.404 1.2 1.212 1.2zm6.284-1.212c0 .408.084.708.252.9.176.184.448.276.816.276.336 0 .66-.096.972-.288a2.29 2.29 0 0 0 .744-.72v-4.656h1.008V149h-.864l-.084-.852a2.591 2.591 0 0 1-.924.732c-.36.168-.728.252-1.104.252-.6 0-1.056-.16-1.368-.48-.304-.32-.456-.78-.456-1.38v-4.596h1.008v4.488zm8.659.276c0 .568.348.852 1.044.852.328 0 .68-.072 1.056-.216l.264.732c-.4.216-.9.324-1.5.324-.568 0-1.024-.156-1.368-.468-.336-.312-.504-.736-.504-1.272v-6.456h-1.944v-.804h2.952v7.308zm9.751 1.236a2.57 2.57 0 0 1-.792.336 3.57 3.57 0 0 1-.912.12c-.664 0-1.184-.172-1.56-.516-.376-.352-.564-.812-.564-1.38v-3.768h-1.452v-.792h1.452v-1.428l1.008-.12v1.548h2.196l-.132.792h-2.064v3.756c0 .36.096.628.288.804.192.176.5.264.924.264.432 0 .836-.1 1.212-.3l.396.684zm3.728-8.268c0-.24.092-.444.276-.612a.893.893 0 0 1 .636-.264c.256 0 .472.084.648.252a.811.811 0 0 1 .276.624c0 .112-.016.224-.048.336a3.457 3.457 0 0 1-.18.456l-.984 2.076h-.792l.491-2.208a.904.904 0 0 1-.239-.276.897.897 0 0 1-.084-.384zm15.662 2.136c1.528 0 2.292 1.096 2.292 3.288 0 1-.208 1.8-.624 2.4-.416.6-1.02.9-1.812.9-.688 0-1.248-.24-1.68-.72v3.012l-1.008.12v-8.868h.864l.084.888c.232-.328.508-.58.828-.756a2.2 2.2 0 0 1 1.056-.264zm-.24.816c-.32 0-.616.096-.888.288a2.985 2.985 0 0 0-.696.72v3.132c.168.248.376.444.624.588.256.136.532.204.828.204.528 0 .92-.2 1.176-.6.264-.408.396-1.028.396-1.86 0-.832-.116-1.452-.348-1.86-.232-.408-.596-.612-1.092-.612zm9.139 4.26c0 .248.04.432.12.552.08.112.212.196.396.252l-.252.72c-.616-.08-1-.38-1.152-.9a2.173 2.173 0 0 1-.852.66 2.706 2.706 0 0 1-1.128.228c-.632 0-1.132-.176-1.5-.528-.36-.352-.54-.824-.54-1.416 0-.648.252-1.148.756-1.5.512-.352 1.244-.528 2.196-.528h.936v-.516c0-.448-.128-.768-.384-.96-.256-.2-.628-.3-1.116-.3-.48 0-1.028.108-1.644.324l-.276-.768c.744-.264 1.436-.396 2.076-.396.768 0 1.352.18 1.752.54.408.36.612.86.612 1.5v3.036zm-2.616.756c.312 0 .608-.08.888-.24.288-.16.524-.38.708-.66v-1.62h-.912c-.672 0-1.156.112-1.452.336-.296.224-.444.552-.444.984 0 .8.404 1.2 1.212 1.2zm10.076-8.244V149h-.888l-.096-.828c-.232.32-.5.56-.804.72-.304.16-.632.24-.984.24-.8 0-1.404-.292-1.812-.876-.4-.584-.6-1.388-.6-2.412 0-.632.1-1.196.3-1.692.2-.504.484-.896.852-1.176a2.11 2.11 0 0 1 1.32-.432c.696 0 1.264.252 1.704.756v-3.288l1.008.12zm-2.448 3.228c-.528 0-.936.208-1.224.624-.28.416-.42 1.036-.42 1.86 0 .816.128 1.436.384 1.86.264.416.644.624 1.14.624.6 0 1.12-.336 1.56-1.008v-3.144a1.813 1.813 0 0 0-.636-.6 1.574 1.574 0 0 0-.804-.216zm9.643-3.228V149h-.888l-.096-.828c-.232.32-.5.56-.804.72-.304.16-.632.24-.984.24-.8 0-1.404-.292-1.812-.876-.4-.584-.6-1.388-.6-2.412 0-.632.1-1.196.3-1.692.2-.504.484-.896.852-1.176a2.11 2.11 0 0 1 1.32-.432c.696 0 1.264.252 1.704.756v-3.288l1.008.12zm-2.448 3.228c-.528 0-.936.208-1.224.624-.28.416-.42 1.036-.42 1.86 0 .816.128 1.436.384 1.86.264.416.644.624 1.14.624.6 0 1.12-.336 1.56-1.008v-3.144a1.813 1.813 0 0 0-.636-.6 1.574 1.574 0 0 0-.804-.216zm7.243-3.636a.73.73 0 0 1 .54.204.66.66 0 0 1 .204.504.7.7 0 0 1-.204.516c-.136.128-.316.192-.54.192a.74.74 0 0 1-.528-.192.723.723 0 0 1-.192-.516c0-.208.064-.376.192-.504a.714.714 0 0 1 .528-.204zm.804 8.472h1.776V149h-4.728v-.804h1.944v-4.716h-1.884v-.804h2.892v5.52zm3.992-5.52h.864l.084.888c.248-.32.56-.568.936-.744a2.646 2.646 0 0 1 1.152-.276c1.184 0 1.776.624 1.776 1.872V149h-1.008v-3.84c0-.472-.028-.832-.084-1.08-.048-.248-.148-.432-.3-.552-.152-.12-.384-.18-.696-.18a1.69 1.69 0 0 0-.972.312 2.743 2.743 0 0 0-.744.744V149h-1.008v-6.324zm12.643.288c-.24.08-.5.132-.78.156-.28.016-.636.024-1.068.024.736.336 1.104.868 1.104 1.596 0 .64-.212 1.16-.636 1.56-.424.392-1.004.588-1.74.588-.376 0-.692-.044-.948-.132a.894.894 0 0 0-.24.276.746.746 0 0 0-.084.336c0 .36.28.54.84.54h1.14c.416 0 .792.076 1.128.228.344.144.612.348.804.612.2.264.3.556.3.876 0 .616-.264 1.088-.792 1.416-.52.336-1.26.504-2.22.504-.976 0-1.664-.152-2.064-.456-.4-.304-.6-.788-.6-1.452h.912c0 .264.048.472.144.624.104.16.28.276.528.348.256.08.616.12 1.08.12.68 0 1.18-.088 1.5-.264.328-.176.492-.436.492-.78 0-.288-.132-.512-.396-.672-.264-.152-.604-.228-1.02-.228h-1.128c-.52 0-.916-.112-1.188-.336a1.09 1.09 0 0 1-.228-1.452c.12-.2.292-.372.516-.516-.36-.184-.628-.416-.804-.696-.168-.288-.252-.636-.252-1.044 0-.424.104-.8.312-1.128a2.16 2.16 0 0 1 .888-.78 2.913 2.913 0 0 1 1.32-.288c.72 0 1.268-.04 1.644-.12.376-.08.788-.216 1.236-.408l.3.948zm-3.192.324c-.488 0-.856.132-1.104.396-.248.256-.372.608-.372 1.056 0 .448.124.808.372 1.08.256.264.632.396 1.128.396.448 0 .788-.128 1.02-.384.24-.264.36-.632.36-1.104 0-.96-.468-1.44-1.404-1.44zM429.556 164.8c0 .816.092 1.528.276 2.136.184.6.456 1.148.816 1.644.368.488.856 1.004 1.464 1.548l-.516.552c-.704-.568-1.28-1.128-1.728-1.68a6.312 6.312 0 0 1-1.02-1.848c-.232-.68-.348-1.464-.348-2.352 0-.888.116-1.672.348-2.352.24-.68.58-1.296 1.02-1.848.448-.552 1.024-1.112 1.728-1.68l.516.552c-.616.544-1.108 1.06-1.476 1.548a5.36 5.36 0 0 0-.816 1.644c-.176.6-.264 1.312-.264 2.136zm10.843 3.384V169h-4.764v-.816h2.028v-6.348l-1.884 1.14-.444-.708 2.46-1.536h.888v7.452h1.716zm4.952-4.56c.432 0 .824.096 1.176.288.36.192.644.484.852.876.208.384.312.86.312 1.428 0 .592-.116 1.112-.348 1.56-.232.44-.544.776-.936 1.008a2.542 2.542 0 0 1-1.32.348c-.96 0-1.66-.348-2.1-1.044-.432-.696-.648-1.692-.648-2.988 0-.912.12-1.704.36-2.376.248-.68.6-1.204 1.056-1.572.464-.368 1.016-.552 1.656-.552.6 0 1.148.164 1.644.492l-.396.672a2.432 2.432 0 0 0-1.26-.348c-.632 0-1.128.296-1.488.888-.352.592-.536 1.4-.552 2.424.256-.384.548-.664.876-.84.328-.176.7-.264 1.116-.264zm-.264 4.692c.512 0 .9-.18 1.164-.54.272-.368.408-.876.408-1.524 0-1.208-.488-1.812-1.464-1.812-.384 0-.732.108-1.044.324a2.683 2.683 0 0 0-.78.852c.016.936.16 1.62.432 2.052.272.432.7.648 1.284.648zm7.531-5.772c1.528 0 2.292 1.096 2.292 3.288 0 1-.208 1.8-.624 2.4-.416.6-1.02.9-1.812.9-.688 0-1.248-.24-1.68-.72v3.012l-1.008.12v-8.868h.864l.084.888c.232-.328.508-.58.828-.756a2.2 2.2 0 0 1 1.056-.264zm-.24.816c-.32 0-.616.096-.888.288a2.985 2.985 0 0 0-.696.72v3.132c.168.248.376.444.624.588.256.136.532.204.828.204.528 0 .92-.2 1.176-.6.264-.408.396-1.028.396-1.86 0-.832-.116-1.452-.348-1.86-.232-.408-.596-.612-1.092-.612zm4.075 5.64l2.328-3.336-2.052-2.988h1.2l1.464 2.352 1.476-2.352h1.164l-2.052 2.94 2.328 3.384h-1.224l-1.74-2.712-1.74 2.712h-1.152zm11.168-4.2c0-.824-.092-1.536-.276-2.136a5.025 5.025 0 0 0-.816-1.644c-.36-.488-.848-1.004-1.464-1.548l.516-.552c.704.568 1.276 1.128 1.716 1.68a5.965 5.965 0 0 1 1.02 1.848c.24.68.36 1.464.36 2.352 0 .888-.12 1.672-.36 2.352a5.965 5.965 0 0 1-1.02 1.848c-.44.552-1.012 1.112-1.716 1.68l-.516-.552c.608-.544 1.092-1.06 1.452-1.548a5.39 5.39 0 0 0 .828-1.644c.184-.608.276-1.32.276-2.136zM426.104 308h-1.044v-7.368h-2.58v-.9h6.228l-.108.9h-2.496V308zm8.827-1.38c0 .248.04.432.12.552.08.112.212.196.396.252l-.252.72c-.616-.08-1-.38-1.152-.9a2.173 2.173 0 0 1-.852.66 2.706 2.706 0 0 1-1.128.228c-.632 0-1.132-.176-1.5-.528-.36-.352-.54-.824-.54-1.416 0-.648.252-1.148.756-1.5.512-.352 1.244-.528 2.196-.528h.936v-.516c0-.448-.128-.768-.384-.96-.256-.2-.628-.3-1.116-.3-.48 0-1.028.108-1.644.324l-.276-.768c.744-.264 1.436-.396 2.076-.396.768 0 1.352.18 1.752.54.408.36.612.86.612 1.5v3.036zm-2.616.756c.312 0 .608-.08.888-.24.288-.16.524-.38.708-.66v-1.62h-.912c-.672 0-1.156.112-1.452.336-.296.224-.444.552-.444.984 0 .8.404 1.2 1.212 1.2zm6.284-4.872c.488-.64 1.092-.96 1.812-.96.808 0 1.404.288 1.788.864.384.576.576 1.384.576 2.424 0 .992-.22 1.792-.66 2.4-.44.6-1.056.9-1.848.9-.728 0-1.3-.264-1.716-.792l-.072.66h-.888v-8.868l1.008-.12v3.492zm1.44 4.812c.528 0 .932-.208 1.212-.624.288-.416.432-1.036.432-1.86 0-.816-.128-1.432-.384-1.848-.248-.416-.62-.624-1.116-.624-.32 0-.616.096-.888.288a2.985 2.985 0 0 0-.696.72v3.132c.168.256.376.456.624.6.248.144.52.216.816.216zm7.219-.876c0 .568.348.852 1.044.852.328 0 .68-.072 1.056-.216l.264.732c-.4.216-.9.324-1.5.324-.568 0-1.024-.156-1.368-.468-.336-.312-.504-.736-.504-1.272v-6.456h-1.944v-.804h2.952v7.308zm5.527-1.248c.024.696.204 1.22.54 1.572.344.352.776.528 1.296.528.312 0 .596-.044.852-.132.264-.096.544-.24.84-.432l.468.672a3.36 3.36 0 0 1-1.02.54 3.516 3.516 0 0 1-1.14.192c-.912 0-1.624-.296-2.136-.888-.504-.6-.756-1.4-.756-2.4 0-.632.112-1.196.336-1.692.224-.504.544-.896.96-1.176.416-.288.9-.432 1.452-.432.8 0 1.428.28 1.884.84.464.552.696 1.308.696 2.268 0 .184-.008.364-.024.54h-4.248zm1.704-2.82c-.488 0-.884.176-1.188.528-.304.344-.476.852-.516 1.524h3.288c-.008-.664-.152-1.172-.432-1.524-.28-.352-.664-.528-1.152-.528zm16.155-.828c.256 0 .552.044.888.132l-.144 2.148h-.816v-1.356h-.06c-.976 0-1.668.696-2.076 2.088v2.664h1.284v.78h-3.288v-.78h.996v-4.764h-.996v-.78h1.752l.192 1.5c.256-.544.56-.952.912-1.224.36-.272.812-.408 1.356-.408zm5.335 0c.872 0 1.54.296 2.004.888.472.584.708 1.384.708 2.4 0 .992-.24 1.792-.72 2.4-.472.6-1.14.9-2.004.9-.872 0-1.544-.292-2.016-.876-.472-.592-.708-1.396-.708-2.412 0-1 .236-1.8.708-2.4.48-.6 1.156-.9 2.028-.9zm0 .828c-.552 0-.964.204-1.236.612-.272.408-.408 1.028-.408 1.86 0 .832.132 1.452.396 1.86.272.4.684.6 1.236.6.552 0 .96-.2 1.224-.6.272-.408.408-1.032.408-1.872 0-.832-.136-1.448-.408-1.848-.264-.408-.668-.612-1.212-.612zm8.048 5.628l-.828-4.632-.888 4.632h-1.392l-1.14-6.324h1.02l.816 5.7 1.008-4.896h1.188l.948 4.896.816-5.7h.972L485.455 308h-1.428zm6.091-.696c.48 0 .86-.092 1.14-.276.28-.184.42-.428.42-.732 0-.208-.036-.376-.108-.504-.072-.136-.216-.256-.432-.36-.216-.112-.544-.224-.984-.336-.736-.184-1.28-.404-1.632-.66-.352-.264-.528-.652-.528-1.164 0-.528.22-.948.66-1.26.44-.312 1.02-.468 1.74-.468.88 0 1.648.232 2.304.696l-.456.696a3.232 3.232 0 0 0-.828-.42 2.925 2.925 0 0 0-.996-.156c-.912 0-1.368.276-1.368.828 0 .192.048.348.144.468.104.12.268.228.492.324.232.088.576.196 1.032.324.688.184 1.2.42 1.536.708.344.28.516.692.516 1.236 0 .632-.256 1.104-.768 1.416-.512.312-1.14.468-1.884.468-.992 0-1.816-.284-2.472-.852l.564-.66c.256.208.548.376.876.504.328.12.672.18 1.032.18zm15.494.696l-.828-4.632-.888 4.632h-1.392l-1.14-6.324h1.02l.816 5.7 1.008-4.896h1.188l.948 4.896.816-5.7h.972L507.04 308h-1.428zm6.332-9.276a.73.73 0 0 1 .54.204.66.66 0 0 1 .204.504.7.7 0 0 1-.204.516c-.136.128-.316.192-.54.192a.74.74 0 0 1-.528-.192.723.723 0 0 1-.192-.516c0-.208.064-.376.192-.504a.714.714 0 0 1 .528-.204zm.804 8.472h1.776V308h-4.728v-.804h1.944v-4.716h-1.884v-.804h2.892v5.52zm9.019.48a2.57 2.57 0 0 1-.792.336 3.57 3.57 0 0 1-.912.12c-.664 0-1.184-.172-1.56-.516-.376-.352-.564-.812-.564-1.38v-3.768h-1.452v-.792h1.452v-1.428l1.008-.12v1.548h2.196l-.132.792h-2.064v3.756c0 .36.096.628.288.804.192.176.5.264.924.264.432 0 .836-.1 1.212-.3l.396.684zm3.175-5.124c.248-.32.552-.568.912-.744.36-.176.732-.264 1.116-.264 1.184 0 1.776.624 1.776 1.872V308h-1.008v-4.572c0-.376-.088-.648-.264-.816-.176-.176-.456-.264-.84-.264-.328 0-.644.104-.948.312a2.82 2.82 0 0 0-.744.732V308h-1.008v-8.856l1.008-.108v3.516zm-98.514 18.836c0 .248-.092.46-.276.636a.888.888 0 0 1-.636.252.888.888 0 0 1-.636-.252.867.867 0 0 1-.264-.636c0-.232.068-.492.204-.78l.984-2.076h.792l-.492 2.208a.654.654 0 0 1 .228.276.78.78 0 0 1 .096.372zm9.211 4.32c0 .48-.12.904-.36 1.272-.24.36-.588.644-1.044.852-.456.2-.996.3-1.62.3-.6 0-1.148-.088-1.644-.264a3.681 3.681 0 0 1-1.26-.78l.624-.708c.304.288.64.508 1.008.66.376.152.804.228 1.284.228.544 0 1-.132 1.368-.396.368-.264.552-.644.552-1.14 0-.28-.052-.512-.156-.696-.104-.184-.288-.348-.552-.492-.256-.144-.62-.284-1.092-.42-.896-.264-1.564-.572-2.004-.924-.44-.36-.66-.848-.66-1.464 0-.408.112-.776.336-1.104.224-.328.54-.58.948-.756a3.352 3.352 0 0 1 1.392-.276c.544 0 1.028.08 1.452.24.432.16.828.396 1.188.708l-.624.672a2.918 2.918 0 0 0-1.98-.744c-.48 0-.876.104-1.188.312-.312.208-.468.512-.468.912 0 .24.064.444.192.612.128.168.34.324.636.468.296.144.712.292 1.248.444.776.224 1.372.516 1.788.876.424.36.636.896.636 1.608zm6.116-4.164c.36 0 .652.128.876.384.232.248.348.704.348 1.368V328h-.924v-4.536c0-.44-.028-.736-.084-.888-.056-.16-.192-.24-.408-.24-.408 0-.776.252-1.104.756V328h-.936v-4.536c0-.44-.028-.736-.084-.888-.056-.16-.192-.24-.408-.24-.408 0-.776.252-1.104.756V328h-.924v-6.324h.78l.072.744a2.64 2.64 0 0 1 .6-.648 1.3 1.3 0 0 1 .768-.228c.592 0 .972.28 1.14.84.192-.272.396-.48.612-.624.216-.144.476-.216.78-.216zm7.567 5.076c0 .248.04.432.12.552.08.112.212.196.396.252l-.252.72c-.616-.08-1-.38-1.152-.9a2.173 2.173 0 0 1-.852.66 2.706 2.706 0 0 1-1.128.228c-.632 0-1.132-.176-1.5-.528-.36-.352-.54-.824-.54-1.416 0-.648.252-1.148.756-1.5.512-.352 1.244-.528 2.196-.528h.936v-.516c0-.448-.128-.768-.384-.96-.256-.2-.628-.3-1.116-.3-.48 0-1.028.108-1.644.324l-.276-.768c.744-.264 1.436-.396 2.076-.396.768 0 1.352.18 1.752.54.408.36.612.86.612 1.5v3.036zm-2.616.756c.312 0 .608-.08.888-.24.288-.16.524-.38.708-.66v-1.62h-.912c-.672 0-1.156.112-1.452.336-.296.224-.444.552-.444.984 0 .8.404 1.2 1.212 1.2zm7.747-.936c0 .568.348.852 1.044.852.328 0 .68-.072 1.056-.216l.264.732c-.4.216-.9.324-1.5.324-.568 0-1.024-.156-1.368-.468-.336-.312-.504-.736-.504-1.272v-6.456h-1.944v-.804h2.952v7.308zm7.196 0c0 .568.348.852 1.044.852.328 0 .68-.072 1.056-.216l.264.732c-.4.216-.9.324-1.5.324-.568 0-1.024-.156-1.368-.468-.336-.312-.504-.736-.504-1.272v-6.456h-1.944v-.804h2.952v7.308zm6.283-7.032c0-.24.092-.444.276-.612a.893.893 0 0 1 .636-.264c.256 0 .472.084.648.252a.811.811 0 0 1 .276.624c0 .112-.016.224-.048.336a3.457 3.457 0 0 1-.18.456l-.984 2.076h-.792l.492-2.208a.894.894 0 0 1-.24-.276.897.897 0 0 1-.084-.384zm15.663 2.136c1.528 0 2.292 1.096 2.292 3.288 0 1-.208 1.8-.624 2.4-.416.6-1.02.9-1.812.9-.688 0-1.248-.24-1.68-.72v3.012l-1.008.12v-8.868h.864l.084.888c.232-.328.508-.58.828-.756a2.2 2.2 0 0 1 1.056-.264zm-.24.816c-.32 0-.616.096-.888.288a2.985 2.985 0 0 0-.696.72v3.132c.168.248.376.444.624.588.256.136.532.204.828.204.528 0 .92-.2 1.176-.6.264-.408.396-1.028.396-1.86 0-.832-.116-1.452-.348-1.86-.232-.408-.596-.612-1.092-.612zm9.139 4.26c0 .248.04.432.12.552.08.112.212.196.396.252l-.252.72c-.616-.08-1-.38-1.152-.9a2.173 2.173 0 0 1-.852.66 2.706 2.706 0 0 1-1.128.228c-.632 0-1.132-.176-1.5-.528-.36-.352-.54-.824-.54-1.416 0-.648.252-1.148.756-1.5.512-.352 1.244-.528 2.196-.528h.936v-.516c0-.448-.128-.768-.384-.96-.256-.2-.628-.3-1.116-.3-.48 0-1.028.108-1.644.324l-.276-.768c.744-.264 1.436-.396 2.076-.396.768 0 1.352.18 1.752.54.408.36.612.86.612 1.5v3.036zm-2.616.756c.312 0 .608-.08.888-.24.288-.16.524-.38.708-.66v-1.62h-.912c-.672 0-1.156.112-1.452.336-.296.224-.444.552-.444.984 0 .8.404 1.2 1.212 1.2zm10.075-8.244V328h-.888l-.096-.828c-.232.32-.5.56-.804.72-.304.16-.632.24-.984.24-.8 0-1.404-.292-1.812-.876-.4-.584-.6-1.388-.6-2.412 0-.632.1-1.196.3-1.692.2-.504.484-.896.852-1.176a2.11 2.11 0 0 1 1.32-.432c.696 0 1.264.252 1.704.756v-3.288l1.008.12zm-2.448 3.228c-.528 0-.936.208-1.224.624-.28.416-.42 1.036-.42 1.86 0 .816.128 1.436.384 1.86.264.416.644.624 1.14.624.6 0 1.12-.336 1.56-1.008v-3.144a1.813 1.813 0 0 0-.636-.6 1.574 1.574 0 0 0-.804-.216zm9.643-3.228V328h-.888l-.096-.828c-.232.32-.5.56-.804.72-.304.16-.632.24-.984.24-.8 0-1.404-.292-1.812-.876-.4-.584-.6-1.388-.6-2.412 0-.632.1-1.196.3-1.692.2-.504.484-.896.852-1.176a2.11 2.11 0 0 1 1.32-.432c.696 0 1.264.252 1.704.756v-3.288l1.008.12zm-2.448 3.228c-.528 0-.936.208-1.224.624-.28.416-.42 1.036-.42 1.86 0 .816.128 1.436.384 1.86.264.416.644.624 1.14.624.6 0 1.12-.336 1.56-1.008v-3.144a1.813 1.813 0 0 0-.636-.6 1.574 1.574 0 0 0-.804-.216zm7.244-3.636a.73.73 0 0 1 .54.204.66.66 0 0 1 .204.504.7.7 0 0 1-.204.516c-.136.128-.316.192-.54.192a.74.74 0 0 1-.528-.192.723.723 0 0 1-.192-.516c0-.208.064-.376.192-.504a.714.714 0 0 1 .528-.204zm.804 8.472h1.776V328h-4.728v-.804h1.944v-4.716h-1.884v-.804h2.892v5.52zm3.991-5.52h.864l.084.888c.248-.32.56-.568.936-.744a2.646 2.646 0 0 1 1.152-.276c1.184 0 1.776.624 1.776 1.872V328h-1.008v-3.84c0-.472-.028-.832-.084-1.08-.048-.248-.148-.432-.3-.552-.152-.12-.384-.18-.696-.18a1.69 1.69 0 0 0-.972.312 2.743 2.743 0 0 0-.744.744V328h-1.008v-6.324zm12.643.288c-.24.08-.5.132-.78.156-.28.016-.636.024-1.068.024.736.336 1.104.868 1.104 1.596 0 .64-.212 1.16-.636 1.56-.424.392-1.004.588-1.74.588-.376 0-.692-.044-.948-.132a.894.894 0 0 0-.24.276.746.746 0 0 0-.084.336c0 .36.28.54.84.54h1.14c.416 0 .792.076 1.128.228.344.144.612.348.804.612.2.264.3.556.3.876 0 .616-.264 1.088-.792 1.416-.52.336-1.26.504-2.22.504-.976 0-1.664-.152-2.064-.456-.4-.304-.6-.788-.6-1.452h.912c0 .264.048.472.144.624.104.16.28.276.528.348.256.08.616.12 1.08.12.68 0 1.18-.088 1.5-.264.328-.176.492-.436.492-.78 0-.288-.132-.512-.396-.672-.264-.152-.604-.228-1.02-.228h-1.128c-.52 0-.916-.112-1.188-.336a1.09 1.09 0 0 1-.228-1.452c.12-.2.292-.372.516-.516-.36-.184-.628-.416-.804-.696-.168-.288-.252-.636-.252-1.044 0-.424.104-.8.312-1.128a2.16 2.16 0 0 1 .888-.78 2.913 2.913 0 0 1 1.32-.288c.72 0 1.268-.04 1.644-.12.376-.08.788-.216 1.236-.408l.3.948zm-3.192.324c-.488 0-.856.132-1.104.396-.248.256-.372.608-.372 1.056 0 .448.124.808.372 1.08.256.264.632.396 1.128.396.448 0 .788-.128 1.02-.384.24-.264.36-.632.36-1.104 0-.96-.468-1.44-1.404-1.44zM424.556 343.8c0 .816.092 1.528.276 2.136.184.6.456 1.148.816 1.644.368.488.856 1.004 1.464 1.548l-.516.552c-.704-.568-1.28-1.128-1.728-1.68a6.312 6.312 0 0 1-1.02-1.848c-.232-.68-.348-1.464-.348-2.352 0-.888.116-1.672.348-2.352.24-.68.58-1.296 1.02-1.848.448-.552 1.024-1.112 1.728-1.68l.516.552c-.616.544-1.108 1.06-1.476 1.548a5.36 5.36 0 0 0-.816 1.644c-.176.6-.264 1.312-.264 2.136zm10.711-2.1c0 .392-.12.736-.36 1.032-.24.296-.596.576-1.068.84.56.232.996.536 1.308.912.312.376.468.808.468 1.296 0 .448-.116.852-.348 1.212-.232.36-.564.64-.996.84-.432.2-.932.3-1.5.3-.576 0-1.076-.1-1.5-.3-.424-.208-.748-.488-.972-.84a2.226 2.226 0 0 1-.324-1.188c0-.92.556-1.64 1.668-2.16-.456-.216-.792-.468-1.008-.756-.208-.296-.312-.672-.312-1.128 0-.472.124-.872.372-1.2.248-.328.56-.568.936-.72.384-.16.772-.24 1.164-.24.424 0 .824.076 1.2.228.376.152.68.388.912.708.24.312.36.7.36 1.164zm-3.96.072c0 .304.068.548.204.732.144.176.332.32.564.432.232.104.584.232 1.056.384.408-.24.7-.472.876-.696.184-.232.276-.524.276-.876 0-.416-.132-.744-.396-.984-.256-.248-.62-.372-1.092-.372-.472 0-.84.12-1.104.36-.256.24-.384.58-.384 1.02zm3.24 4.032c0-.352-.088-.636-.264-.852a1.79 1.79 0 0 0-.696-.528 17.1 17.1 0 0 0-1.26-.492c-.856.4-1.284 1.024-1.284 1.872 0 .472.148.844.444 1.116.296.264.724.396 1.284.396s.996-.14 1.308-.42c.312-.28.468-.644.468-1.092zm5.876-4.26c1.528 0 2.292 1.096 2.292 3.288 0 1-.208 1.8-.624 2.4-.416.6-1.02.9-1.812.9-.688 0-1.248-.24-1.68-.72v3.012l-1.008.12v-8.868h.864l.084.888c.232-.328.508-.58.828-.756a2.2 2.2 0 0 1 1.056-.264zm-.24.816c-.32 0-.616.096-.888.288a2.985 2.985 0 0 0-.696.72v3.132c.168.248.376.444.624.588.256.136.532.204.828.204.528 0 .92-.2 1.176-.6.264-.408.396-1.028.396-1.86 0-.832-.116-1.452-.348-1.86-.232-.408-.596-.612-1.092-.612zm4.075 5.64l2.328-3.336-2.052-2.988h1.2l1.464 2.352 1.476-2.352h1.164l-2.052 2.94 2.328 3.384h-1.224l-1.74-2.712-1.74 2.712h-1.152zm11.167-4.2c0-.824-.092-1.536-.276-2.136a5.025 5.025 0 0 0-.816-1.644c-.36-.488-.848-1.004-1.464-1.548l.516-.552c.704.568 1.276 1.128 1.716 1.68a5.965 5.965 0 0 1 1.02 1.848c.24.68.36 1.464.36 2.352 0 .888-.12 1.672-.36 2.352a5.965 5.965 0 0 1-1.02 1.848c-.44.552-1.012 1.112-1.716 1.68l-.516-.552c.608-.544 1.092-1.06 1.452-1.548a5.39 5.39 0 0 0 .828-1.644c.184-.608.276-1.32.276-2.136z" fill="#000"/>
  <g clip-path="url(#clip2)">
    <path fill="#fff" d="M0 288h376v40H0z"/>
    <path d="M19.776 314v-11.312l-3.52.096v.992h2.256V314h1.264zm9.148-3.408c0-2.064-1.344-3.312-3.44-3.312-.496 0-.928 0-1.44.032v-3.536h4.48v-1.088h-5.696v5.824c.64-.064 1.2-.096 1.76-.112.208 0 .432-.016.656-.016 1.36 0 2.416.704 2.416 2.4 0 1.376-1.04 2.192-2.48 2.192-1.088 0-1.824-.128-2.432-.288l-.32 1.12c.416.128 1.312.336 2.752.336 2.192 0 3.744-1.232 3.744-3.552zm10.28-2.416c0-2.784-.656-5.584-3.888-5.584-3.28 0-4.24 2.832-4.24 5.936 0 3.12.928 5.616 3.968 5.616 3.008 0 4.16-2.416 4.16-5.968zm-1.312.096c0 2.288-.32 4.784-2.768 4.784-2.224 0-2.736-2.304-2.736-4.592 0-2.112.32-4.8 2.832-4.8 2.368 0 2.672 2.624 2.672 4.608zm9.491 2.768c0-1.744-1.424-2.752-2.624-3.056.88-.256 2.096-1.248 2.096-2.784 0-1.744-1.264-2.64-3.104-2.64a5.601 5.601 0 0 0-2.368.512l.384.928s.832-.352 1.92-.352c1.024 0 1.952.384 1.952 1.664 0 1.248-1.216 2.16-2.608 2.272v1.056c1.792.112 3.104.944 3.104 2.416 0 1.728-1.28 1.952-2.56 1.952a8.138 8.138 0 0 1-2.432-.384l-.304 1.056s1.008.464 2.896.464c2.048 0 3.648-.752 3.648-3.104zm2.08 2.96h1.52v-1.504h-1.52V314zm11.694-5.824c0-2.784-.656-5.584-3.888-5.584-3.28 0-4.24 2.832-4.24 5.936 0 3.12.928 5.616 3.968 5.616 3.008 0 4.16-2.416 4.16-5.968zm-1.312.096c0 2.288-.32 4.784-2.768 4.784-2.224 0-2.736-2.304-2.736-4.592 0-2.112.32-4.8 2.832-4.8 2.368 0 2.672 2.624 2.672 4.608zM66.182 314v-11.312l-3.52.096v.992h2.256V314h1.264zm2.813 0h1.52v-1.504h-1.52V314zm5.718.144c3.312 0 5.072-1.696 5.072-6.544 0-3.312-1.52-5.056-3.76-5.056-2.048 0-3.584 1.28-3.584 3.696 0 2.336 1.2 3.584 3.328 3.584.704 0 1.296-.112 1.616-.208l-.08-1.04c-.4.096-.832.16-1.296.16-1.312 0-2.288-.576-2.288-2.624 0-1.392.784-2.448 2.192-2.448 1.872 0 2.576 1.824 2.56 3.824 0 2.976-.384 5.536-3.76 5.536-.528 0-1.12-.128-1.248-.16l-.272 1.056c.352.112.752.224 1.52.224zm13.68-3.552c0-2.064-1.344-3.312-3.44-3.312-.496 0-.928 0-1.44.032v-3.536h4.48v-1.088h-5.696v5.824c.64-.064 1.2-.096 1.76-.112.208 0 .432-.016.656-.016 1.36 0 2.416.704 2.416 2.4 0 1.376-1.04 2.192-2.48 2.192-1.088 0-1.824-.128-2.432-.288l-.32 1.12c.416.128 1.312.336 2.752.336 2.192 0 3.744-1.232 3.744-3.552zm10.28-2.416c0-2.784-.657-5.584-3.889-5.584-3.28 0-4.24 2.832-4.24 5.936 0 3.12.928 5.616 3.969 5.616 3.007 0 4.16-2.416 4.16-5.968zm-1.313.096c0 2.288-.32 4.784-2.767 4.784-2.225 0-2.737-2.304-2.737-4.592 0-2.112.32-4.8 2.833-4.8 2.368 0 2.672 2.624 2.672 4.608zM107.733 314v-1.104h-5.68c2.624-2.4 4.976-4.704 4.976-7.152 0-1.472-.528-3.184-3.248-3.184-1.584 0-2.496.56-2.976.88l.496.912c.272-.16 1.088-.672 2.368-.672 1.328 0 2.08.512 2.08 2.208 0 2.464-4.944 6.672-5.328 7.072V314h7.312zm4.435 0v-11.312l-3.52.096v.992h2.256V314h1.264zM248.696 314h3.152c3.776 0 6.224-1.728 6.224-5.696 0-3.904-2.672-5.616-6.32-5.616h-3.056V314zm1.312-1.088v-9.136h1.696c3.008 0 5.008 1.504 5.008 4.704 0 2.944-1.76 4.432-4.688 4.432h-2.016zM260.407 314h1.264v-6.432c.416-.64 1.216-1.392 2.272-1.392.512 0 .768.048 1.04.112l.208-1.072a3.485 3.485 0 0 0-1.024-.144 2.918 2.918 0 0 0-2.496 1.36v-1.168h-1.264V314zm6.187 0h1.28v-8.736h-1.28V314zm.624-10.368l1.072-1.072-1.072-1.056-1.04 1.056 1.04 1.072zm3.792 13.648h1.264v-10.992h1.872v-1.024h-1.872v-.608c0-1.312.48-1.824 1.584-1.824.592 0 .864.064 1.104.128l.224-1.024c-.352-.112-.736-.176-1.344-.176-1.568 0-2.832.784-2.832 2.912v.592h-1.28v1.024h1.28v10.992zm7.763-3.088c.592 0 1.408-.16 1.856-.32l-.224-1.04a5.139 5.139 0 0 1-1.472.256c-1.008 0-1.568-.336-1.568-1.568v-5.184h2.72v-1.072h-2.736v-1.792h-1.232v1.792h-1.28v1.072h1.28v5.232c0 2.064 1.024 2.624 2.656 2.624zm5.175 0c1.552 0 3.392-.64 3.392-2.512 0-2.896-4.368-2.304-4.368-4.304 0-.72.512-1.28 1.712-1.28.64 0 1.36.144 1.92.368l.288-1.008c-.624-.272-1.504-.416-2.192-.416-1.632 0-2.96.848-2.96 2.448 0 2.88 4.4 2.32 4.4 4.272 0 .864-.816 1.36-2.096 1.36-.752 0-1.568-.16-2.336-.384l-.208 1.072a8.82 8.82 0 0 0 2.448.384zm12.1-.064l.272-.944c-.544-.144-1.344-.656-2.144-1.632l-1.792-2.208 3.712-4.08h-1.456l-3.68 4.128 2.464 3.12c1.12 1.408 2.032 1.584 2.624 1.616zm-6.704-.128h1.264v-12.064h-1.264V314zm11.83.192c2.288 0 3.984-1.456 3.984-4.608 0-2.88-1.328-4.544-3.808-4.544-2.432 0-4.064 1.664-4.064 4.688 0 2.864 1.488 4.464 3.888 4.464zm.08-1.04c-2.048 0-2.688-1.696-2.688-3.488 0-1.664.544-3.584 2.688-3.584s2.624 1.936 2.624 3.584c0 1.712-.512 3.488-2.624 3.488zm6.09.848h1.264v-6.768c.784-.544 1.68-1.072 2.8-1.072 1.488 0 1.728.944 1.728 2.448V314h1.232v-5.632c0-1.472-.16-3.328-2.64-3.328-1.36 0-2.208.544-3.12 1.216v-.992h-1.264V314zm12.601.192c.592 0 1.408-.16 1.856-.32l-.224-1.04a5.139 5.139 0 0 1-1.472.256c-1.008 0-1.568-.336-1.568-1.568v-5.184h2.72v-1.072h-2.736v-1.792h-1.232v1.792h-1.28v1.072h1.28v5.232c0 2.064 1.024 2.624 2.656 2.624zm6.791 0c2.288 0 3.984-1.456 3.984-4.608 0-2.88-1.328-4.544-3.808-4.544-2.432 0-4.064 1.664-4.064 4.688 0 2.864 1.488 4.464 3.888 4.464zm.08-1.04c-2.048 0-2.688-1.696-2.688-3.488 0-1.664.544-3.584 2.688-3.584s2.624 1.936 2.624 3.584c0 1.712-.512 3.488-2.624 3.488z" fill="#333"/>
  </g>
  <g clip-path="url(#clip3)">
    <path fill="#D2F0E9" d="M0 232h376v80H0z"/>
    <path fill="#A5E1D2" d="M0 287h376v1H0z"/>
    <rect x="247" y="272" width="112" height="1.5" rx=".75" fill="#14555A"/>
    <path d="M248.472 266v-11.312h2.176v9.552h4.912V266h-7.088zm12.095.192c-1.344 0-2.384-.395-3.12-1.184-.736-.8-1.104-1.899-1.104-3.296 0-1.461.395-2.603 1.184-3.424.8-.832 1.867-1.248 3.2-1.248 1.408 0 2.464.4 3.168 1.2.715.789 1.072 1.915 1.072 3.376 0 1.472-.405 2.603-1.216 3.392-.8.789-1.861 1.184-3.184 1.184zm.112-1.712c.789 0 1.339-.251 1.648-.752.309-.501.464-1.195.464-2.08 0-1.941-.709-2.912-2.128-2.912-1.44 0-2.16.971-2.16 2.912 0 1.888.725 2.832 2.176 2.832zm6.114 1.52v-8.736h2.128v1.168a3.48 3.48 0 0 1 .992-.928c.416-.277.87-.416 1.36-.416.47 0 .848.048 1.136.144l-.304 1.76a5.92 5.92 0 0 0-1.12-.096c-.416 0-.81.101-1.184.304a2.671 2.671 0 0 0-.88.688V266h-2.128zm10.781.192c-1.451 0-2.56-.331-3.328-.992-.758-.661-1.136-1.808-1.136-3.44 0-1.643.373-2.837 1.12-3.584.757-.747 1.76-1.12 3.008-1.12 1.301 0 2.245.373 2.832 1.12.586.747.88 1.84.88 3.28v.768h-5.696c-.011.853.218 1.44.688 1.76.469.32 1.109.48 1.92.48.714 0 1.552-.123 2.512-.368l.336 1.616c-.928.32-1.974.48-3.136.48zm-2.272-5.392h3.456c.01-.683-.123-1.221-.4-1.616-.267-.395-.667-.592-1.2-.592-.523 0-.955.192-1.296.576-.331.384-.518.928-.56 1.632zm7.46 5.2v-8.736h2.128v.944c1.003-.779 1.957-1.168 2.864-1.168.597 0 1.104.117 1.52.352.416.235.709.555.88.96 1.013-.875 2.037-1.312 3.072-1.312.523 0 .965.08 1.328.24.363.149.635.325.816.528.181.192.32.469.416.832.096.363.149.661.16.896.021.224.032.533.032.928V266h-2.128v-5.296c0-.629-.096-1.088-.288-1.376-.192-.288-.549-.432-1.072-.432-.672 0-1.376.24-2.112.72.032.267.048.544.048.832V266h-2.112v-5.296c0-.651-.096-1.109-.288-1.376-.181-.277-.523-.416-1.024-.416-.715 0-1.419.235-2.112.704V266h-2.128zm19.281 0v-8.736h2.144V266h-2.144zm1.056-9.936l-1.504-1.52 1.504-1.504 1.52 1.504-1.52 1.52zm3.444 13.456v-12.256h2.112v.656c.811-.576 1.632-.864 2.464-.864 1.067 0 1.92.352 2.56 1.056.64.704.96 1.771.96 3.2 0 .875-.128 1.637-.384 2.288-.245.64-.592 1.141-1.04 1.504a4.298 4.298 0 0 1-1.472.8 5.68 5.68 0 0 1-1.744.256c-.309 0-.757-.027-1.344-.08v3.44h-2.112zm3.424-5.008c.832 0 1.456-.283 1.872-.848.427-.565.64-1.323.64-2.272 0-1.696-.688-2.544-2.064-2.544-.448 0-1.034.155-1.76.464v5.072c.854.085 1.291.128 1.312.128zm8.674 1.68c-1.035 0-1.947-.123-2.736-.368l.256-1.664c1.099.192 1.941.288 2.528.288 1.152 0 1.728-.283 1.728-.848 0-.213-.112-.4-.336-.56a2.322 2.322 0 0 0-.816-.4c-.32-.096-.672-.219-1.056-.368-.373-.16-.725-.331-1.056-.512a2.484 2.484 0 0 1-.816-.816c-.213-.352-.32-.763-.32-1.232 0-.864.325-1.525.976-1.984.661-.459 1.488-.688 2.48-.688.928 0 1.797.155 2.608.464l-.384 1.584a7.51 7.51 0 0 0-2.16-.336c-.939 0-1.408.261-1.408.784 0 .224.107.421.32.592.213.16.48.293.8.4.331.107.683.24 1.056.4.384.16.736.336 1.056.528.331.181.603.453.816.816.213.352.32.763.32 1.232 0 .501-.117.939-.352 1.312-.235.363-.549.64-.944.832a5.07 5.07 0 0 1-1.232.416 6.782 6.782 0 0 1-1.328.128zm8.135 0c-.47 0-.875-.064-1.216-.192-.331-.139-.587-.309-.768-.512a2.188 2.188 0 0 1-.432-.784 4.77 4.77 0 0 1-.208-.912 14.01 14.01 0 0 1-.032-1.04v-5.488h2.128v5.248c0 .672.085 1.141.256 1.408.181.267.544.4 1.088.4.768 0 1.53-.229 2.288-.688v-6.368h2.128V266h-2.128v-.944c-.331.235-.608.421-.832.56-.214.128-.534.256-.96.384a4.44 4.44 0 0 1-1.312.192zm7.58-.192v-8.736h2.128v.944c1.003-.779 1.957-1.168 2.864-1.168.597 0 1.104.117 1.52.352.416.235.709.555.88.96 1.013-.875 2.037-1.312 3.072-1.312.523 0 .965.08 1.328.24.363.149.635.325.816.528.181.192.32.469.416.832.096.363.149.661.16.896.021.224.032.533.032.928V266h-2.128v-5.296c0-.629-.096-1.088-.288-1.376-.192-.288-.549-.432-1.072-.432-.672 0-1.376.24-2.112.72.032.267.048.544.048.832V266h-2.112v-5.296c0-.651-.096-1.109-.288-1.376-.181-.277-.523-.416-1.024-.416-.715 0-1.419.235-2.112.704V266h-2.128zM16.472 265v-11.312h2.176v5.168l4.272-5.168h2.784l-4.624 5.264L25.976 265h-2.8l-4.528-5.984V265h-2.176zm14.376.192c-1.344 0-2.384-.395-3.12-1.184-.736-.8-1.104-1.899-1.104-3.296 0-1.461.395-2.603 1.184-3.424.8-.832 1.867-1.248 3.2-1.248 1.408 0 2.464.4 3.168 1.2.715.789 1.072 1.915 1.072 3.376 0 1.472-.405 2.603-1.216 3.392-.8.789-1.861 1.184-3.184 1.184zm.112-1.712c.79 0 1.339-.251 1.648-.752.31-.501.464-1.195.464-2.08 0-1.941-.709-2.912-2.128-2.912-1.44 0-2.16.971-2.16 2.912 0 1.888.726 2.832 2.176 2.832zm6.115 1.52v-8.736h2.128v.928c.544-.384 1.04-.672 1.488-.864.448-.192.981-.288 1.6-.288.586 0 1.066.091 1.44.272.384.181.661.453.832.816.17.352.282.704.336 1.056.053.341.08.768.08 1.28V265h-2.112v-5.296c0-.683-.096-1.152-.288-1.408-.182-.267-.539-.4-1.072-.4-.726 0-1.494.229-2.304.688V265h-2.128zm13.547.208c-.96 0-1.696-.213-2.208-.64-.5-.437-.752-1.163-.752-2.176v-4.496h-1.28v-1.632h1.28v-1.792h2.129v1.792h2.704v1.632H49.79v4.384c0 .416.09.704.272.864.18.16.49.24.927.24.523 0 1.1-.085 1.728-.256l.24 1.696a6.88 6.88 0 0 1-2.335.384zm7.539-.016c-1.344 0-2.384-.395-3.12-1.184-.736-.8-1.104-1.899-1.104-3.296 0-1.461.395-2.603 1.184-3.424.8-.832 1.866-1.248 3.2-1.248 1.408 0 2.464.4 3.168 1.2.715.789 1.072 1.915 1.072 3.376 0 1.472-.405 2.603-1.216 3.392-.8.789-1.861 1.184-3.184 1.184zm.112-1.712c.79 0 1.338-.251 1.648-.752.31-.501.464-1.195.464-2.08 0-1.941-.71-2.912-2.128-2.912-1.44 0-2.16.971-2.16 2.912 0 1.888.725 2.832 2.176 2.832zm6.114 1.52v-8.736h2.128v.928c.544-.384 1.04-.672 1.488-.864.448-.192.981-.288 1.6-.288.587 0 1.067.091 1.44.272.384.181.661.453.832.816.17.352.283.704.336 1.056.053.341.08.768.08 1.28V265H70.18v-5.296c0-.683-.096-1.152-.288-1.408-.181-.267-.538-.4-1.072-.4-.725 0-1.493.229-2.304.688V265h-2.128zm12.748.192c-.47 0-.875-.064-1.216-.192-.33-.139-.587-.309-.768-.512a2.209 2.209 0 0 1-.432-.784 4.792 4.792 0 0 1-.208-.912 14.403 14.403 0 0 1-.032-1.04v-5.488h2.128v5.248c0 .672.085 1.141.256 1.408.181.267.544.4 1.088.4.768 0 1.53-.229 2.288-.688v-6.368h2.128V265h-2.128v-.944c-.33.235-.608.421-.832.56-.213.128-.533.256-.96.384a4.436 4.436 0 0 1-1.312.192zm7.58-.192v-8.736h2.128v.944c1.003-.779 1.958-1.168 2.864-1.168.598 0 1.104.117 1.52.352.416.235.71.555.88.96 1.014-.875 2.038-1.312 3.072-1.312.523 0 .966.08 1.328.24.363.149.635.325.816.528.182.192.32.469.416.832.096.363.15.661.16.896.022.224.032.533.032.928V265h-2.128v-5.296c0-.629-.096-1.088-.288-1.376-.192-.288-.55-.432-1.072-.432-.672 0-1.376.24-2.112.72.032.267.048.544.048.832V265h-2.112v-5.296c0-.651-.096-1.109-.288-1.376-.181-.277-.522-.416-1.024-.416-.714 0-1.418.235-2.112.704V265h-2.128zm15.5 0v-8.736h2.128v.944c1.003-.779 1.958-1.168 2.864-1.168.598 0 1.104.117 1.52.352.416.235.71.555.88.96 1.014-.875 2.038-1.312 3.072-1.312.523 0 .966.08 1.328.24.363.149.635.325.816.528.182.192.32.469.416.832.096.363.15.661.16.896.022.224.032.533.032.928V265h-2.128v-5.296c0-.629-.096-1.088-.288-1.376-.192-.288-.549-.432-1.072-.432-.672 0-1.376.24-2.112.72.032.267.048.544.048.832V265h-2.112v-5.296c0-.651-.096-1.109-.288-1.376-.181-.277-.522-.416-1.024-.416-.714 0-1.418.235-2.112.704V265h-2.128zm19.452.192c-1.45 0-2.56-.331-3.328-.992-.757-.661-1.136-1.808-1.136-3.44 0-1.643.374-2.837 1.12-3.584.758-.747 1.76-1.12 3.008-1.12 1.302 0 2.246.373 2.832 1.12.587.747.88 1.84.88 3.28v.768h-5.696c-.01.853.219 1.44.688 1.76.47.32 1.11.48 1.92.48.715 0 1.552-.123 2.512-.368l.336 1.616c-.928.32-1.973.48-3.136.48zm-2.272-5.392h3.456c.011-.683-.122-1.221-.4-1.616-.266-.395-.666-.592-1.2-.592a1.66 1.66 0 0 0-1.296.576c-.33.384-.517.928-.56 1.632zm7.461 5.2v-8.736h2.128v1.168c.245-.352.576-.661.992-.928a2.404 2.404 0 0 1 1.36-.416c.469 0 .848.048 1.136.144l-.304 1.76a5.927 5.927 0 0 0-1.12-.096c-.416 0-.811.101-1.184.304-.373.192-.667.421-.88.688V265h-2.128z" fill="#14555A"/>
    <path fill-rule="evenodd" clip-rule="evenodd" d="M143.032 258.22a.749.749 0 1 0-1.06 1.06l4.5 4.5a.748.748 0 0 0 1.06 0l4.5-4.5a.749.749 0 1 0-1.06-1.06l-3.97 3.969-3.97-3.969z" fill="#14555A"/>
  </g>
  <g clip-path="url(#clip4)">
    <path fill="#F4FBF9" d="M0 328h376v40H0z"/>
    <path d="M19.776 354v-11.312l-3.52.096v.992h2.256V354h1.264zm9.148-3.408c0-2.064-1.344-3.312-3.44-3.312-.496 0-.928 0-1.44.032v-3.536h4.48v-1.088h-5.696v5.824c.64-.064 1.2-.096 1.76-.112.208 0 .432-.016.656-.016 1.36 0 2.416.704 2.416 2.4 0 1.376-1.04 2.192-2.48 2.192-1.088 0-1.824-.128-2.432-.288l-.32 1.12c.416.128 1.312.336 2.752.336 2.192 0 3.744-1.232 3.744-3.552zm10.28-2.416c0-2.784-.656-5.584-3.888-5.584-3.28 0-4.24 2.832-4.24 5.936 0 3.12.928 5.616 3.968 5.616 3.008 0 4.16-2.416 4.16-5.968zm-1.312.096c0 2.288-.32 4.784-2.768 4.784-2.224 0-2.736-2.304-2.736-4.592 0-2.112.32-4.8 2.832-4.8 2.368 0 2.672 2.624 2.672 4.608zm9.491 2.768c0-1.744-1.424-2.752-2.624-3.056.88-.256 2.096-1.248 2.096-2.784 0-1.744-1.264-2.64-3.104-2.64a5.601 5.601 0 0 0-2.368.512l.384.928s.832-.352 1.92-.352c1.024 0 1.952.384 1.952 1.664 0 1.248-1.216 2.16-2.608 2.272v1.056c1.792.112 3.104.944 3.104 2.416 0 1.728-1.28 1.952-2.56 1.952a8.138 8.138 0 0 1-2.432-.384l-.304 1.056s1.008.464 2.896.464c2.048 0 3.648-.752 3.648-3.104zm2.08 2.96h1.52v-1.504h-1.52V354zm11.694-5.824c0-2.784-.656-5.584-3.888-5.584-3.28 0-4.24 2.832-4.24 5.936 0 3.12.928 5.616 3.968 5.616 3.008 0 4.16-2.416 4.16-5.968zm-1.312.096c0 2.288-.32 4.784-2.768 4.784-2.224 0-2.736-2.304-2.736-4.592 0-2.112.32-4.8 2.832-4.8 2.368 0 2.672 2.624 2.672 4.608zM66.182 354v-11.312l-3.52.096v.992h2.256V354h1.264zm2.813 0h1.52v-1.504h-1.52V354zm5.718.144c3.312 0 5.072-1.696 5.072-6.544 0-3.312-1.52-5.056-3.76-5.056-2.048 0-3.584 1.28-3.584 3.696 0 2.336 1.2 3.584 3.328 3.584.704 0 1.296-.112 1.616-.208l-.08-1.04c-.4.096-.832.16-1.296.16-1.312 0-2.288-.576-2.288-2.624 0-1.392.784-2.448 2.192-2.448 1.872 0 2.576 1.824 2.56 3.824 0 2.976-.384 5.536-3.76 5.536-.528 0-1.12-.128-1.248-.16l-.272 1.056c.352.112.752.224 1.52.224zm13.68-3.552c0-2.064-1.344-3.312-3.44-3.312-.496 0-.928 0-1.44.032v-3.536h4.48v-1.088h-5.696v5.824c.64-.064 1.2-.096 1.76-.112.208 0 .432-.016.656-.016 1.36 0 2.416.704 2.416 2.4 0 1.376-1.04 2.192-2.48 2.192-1.088 0-1.824-.128-2.432-.288l-.32 1.12c.416.128 1.312.336 2.752.336 2.192 0 3.744-1.232 3.744-3.552zm10.28-2.416c0-2.784-.657-5.584-3.889-5.584-3.28 0-4.24 2.832-4.24 5.936 0 3.12.928 5.616 3.969 5.616 3.007 0 4.16-2.416 4.16-5.968zm-1.313.096c0 2.288-.32 4.784-2.767 4.784-2.225 0-2.737-2.304-2.737-4.592 0-2.112.32-4.8 2.833-4.8 2.368 0 2.672 2.624 2.672 4.608zM107.733 354v-1.104h-5.68c2.624-2.4 4.976-4.704 4.976-7.152 0-1.472-.528-3.184-3.248-3.184-1.584 0-2.496.56-2.976.88l.496.912c.272-.16 1.088-.672 2.368-.672 1.328 0 2.08.512 2.08 2.208 0 2.464-4.944 6.672-5.328 7.072V354h7.312zm4.435 0v-11.312l-3.52.096v.992h2.256V354h1.264zM247.696 354h3.152c3.776 0 6.224-1.728 6.224-5.696 0-3.904-2.672-5.616-6.32-5.616h-3.056V354zm1.312-1.088v-9.136h1.696c3.008 0 5.008 1.504 5.008 4.704 0 2.944-1.76 4.432-4.688 4.432h-2.016zM259.407 354h1.264v-6.432c.416-.64 1.216-1.392 2.272-1.392.512 0 .768.048 1.04.112l.208-1.072a3.485 3.485 0 0 0-1.024-.144 2.918 2.918 0 0 0-2.496 1.36v-1.168h-1.264V354zm6.187 0h1.28v-8.736h-1.28V354zm.624-10.368l1.072-1.072-1.072-1.056-1.04 1.056 1.04 1.072zm3.792 13.648h1.264v-10.992h1.872v-1.024h-1.872v-.608c0-1.312.48-1.824 1.584-1.824.592 0 .864.064 1.104.128l.224-1.024c-.352-.112-.736-.176-1.344-.176-1.568 0-2.832.784-2.832 2.912v.592h-1.28v1.024h1.28v10.992zm7.763-3.088c.592 0 1.408-.16 1.856-.32l-.224-1.04a5.139 5.139 0 0 1-1.472.256c-1.008 0-1.568-.336-1.568-1.568v-5.184h2.72v-1.072h-2.736v-1.792h-1.232v1.792h-1.28v1.072h1.28v5.232c0 2.064 1.024 2.624 2.656 2.624zm5.175 0c1.552 0 3.392-.64 3.392-2.512 0-2.896-4.368-2.304-4.368-4.304 0-.72.512-1.28 1.712-1.28.64 0 1.36.144 1.92.368l.288-1.008c-.624-.272-1.504-.416-2.192-.416-1.632 0-2.96.848-2.96 2.448 0 2.88 4.4 2.32 4.4 4.272 0 .864-.816 1.36-2.096 1.36-.752 0-1.568-.16-2.336-.384l-.208 1.072a8.82 8.82 0 0 0 2.448.384zm12.1-.064l.272-.944c-.544-.144-1.344-.656-2.144-1.632l-1.792-2.208 3.712-4.08h-1.456l-3.68 4.128 2.464 3.12c1.12 1.408 2.032 1.584 2.624 1.616zm-6.704-.128h1.264v-12.064h-1.264V354zm11.83.192c2.288 0 3.984-1.456 3.984-4.608 0-2.88-1.328-4.544-3.808-4.544-2.432 0-4.064 1.664-4.064 4.688 0 2.864 1.488 4.464 3.888 4.464zm.08-1.04c-2.048 0-2.688-1.696-2.688-3.488 0-1.664.544-3.584 2.688-3.584s2.624 1.936 2.624 3.584c0 1.712-.512 3.488-2.624 3.488zm6.09.848h1.264v-6.768c.784-.544 1.68-1.072 2.8-1.072 1.488 0 1.728.944 1.728 2.448V354h1.232v-5.632c0-1.472-.16-3.328-2.64-3.328-1.36 0-2.208.544-3.12 1.216v-.992h-1.264V354zm12.601.192c.592 0 1.408-.16 1.856-.32l-.224-1.04a5.139 5.139 0 0 1-1.472.256c-1.008 0-1.568-.336-1.568-1.568v-5.184h2.72v-1.072h-2.736v-1.792h-1.232v1.792h-1.28v1.072h1.28v5.232c0 2.064 1.024 2.624 2.656 2.624zm6.791 0c2.288 0 3.984-1.456 3.984-4.608 0-2.88-1.328-4.544-3.808-4.544-2.432 0-4.064 1.664-4.064 4.688 0 2.864 1.488 4.464 3.888 4.464zm.08-1.04c-2.048 0-2.688-1.696-2.688-3.488 0-1.664.544-3.584 2.688-3.584s2.624 1.936 2.624 3.584c0 1.712-.512 3.488-2.624 3.488z" fill="#333"/>
  </g>
  <g opacity=".4">
    <path opacity=".5" fill="#80ECFF" d="M192 288h216v8H192zM192 320h216v8H192z"/>
    <path fill="#F6BFFF" d="M192 360h216v8H192zM192 328h216v8H192z"/>
  </g>
  <g opacity=".4">
    <path opacity=".5" fill="#80ECFF" d="M192 80h216v16H192zM192 120h216v16H192z"/>
    <path fill="#F6BFFF" d="M192 136h216v16H192zM192 176h216v16H192z"/>
  </g>
  <defs>
    <clipPath id="clip0">
      <path fill="#fff" transform="translate(0 136)" d="M0 0h376v56H0z"/>
    </clipPath>
    <clipPath id="clip1">
      <path fill="#fff" transform="translate(0 80)" d="M0 0h376v56H0z"/>
    </clipPath>
    <clipPath id="clip2">
      <path fill="#fff" transform="translate(0 288)" d="M0 0h376v40H0z"/>
    </clipPath>
    <clipPath id="clip3">
      <path fill="#fff" transform="translate(0 232)" d="M0 0h376v56H0z"/>
    </clipPath>
    <clipPath id="clip4">
      <path fill="#fff" transform="translate(0 328)" d="M0 0h376v56H0z"/>
    </clipPath>
  </defs>
</svg>
