<svg width="296" height="48" viewBox="0 0 296 48" fill="none" xmlns="http://www.w3.org/2000/svg">
<rect x="40" y="16" width="64" height="16" fill="#FFFF7A" fill-opacity="0.5"/>
<rect x="103.929" y="16" width="16" height="16" fill="#00D9FF" fill-opacity="0.25"/>
<rect x="240" y="16" width="16" height="16" fill="#00D9FF" fill-opacity="0.25"/>
<rect x="40" y="8" width="216" height="8" fill="#DB00FF" fill-opacity="0.25"/>
<rect x="40" y="32" width="216" height="8" fill="#DB00FF" fill-opacity="0.25"/>
<path d="M11.3882 29L13.7162 25.664L11.6642 22.676H12.8642L14.3282 25.028L15.8042 22.676H16.9682L14.9162 25.616L17.2442 29H16.0202L14.2802 26.288L12.5402 29H11.3882ZM21.1395 20.6C21.6435 20.6 22.0835 20.7 22.4595 20.9C22.8435 21.1 23.1355 21.376 23.3355 21.728C23.5355 22.072 23.6355 22.464 23.6355 22.904C23.6355 23.416 23.5155 23.912 23.2755 24.392C23.0435 24.872 22.6675 25.4 22.1475 25.976C21.6275 26.544 20.8915 27.264 19.9395 28.136H23.8275L23.7075 29H18.7875V28.184C19.8675 27.152 20.6675 26.344 21.1875 25.76C21.7155 25.176 22.0795 24.676 22.2795 24.26C22.4795 23.844 22.5795 23.404 22.5795 22.94C22.5795 22.476 22.4475 22.112 22.1835 21.848C21.9195 21.584 21.5555 21.452 21.0915 21.452C20.6995 21.452 20.3715 21.52 20.1075 21.656C19.8515 21.784 19.5875 22.008 19.3155 22.328L18.6195 21.788C18.9475 21.38 19.3115 21.08 19.7115 20.888C20.1195 20.696 20.5955 20.6 21.1395 20.6Z" fill="black"/>
<path d="M273.03 16L275.358 12.664L273.306 9.676H274.506L275.97 12.028L277.446 9.676H278.61L276.558 12.616L278.886 16H277.662L275.922 13.288L274.182 16H273.03ZM285.757 15.184V16H280.993V15.184H283.021V8.836L281.137 9.976L280.693 9.268L283.153 7.732H284.041V15.184H285.757Z" fill="black"/>
<path d="M273.03 40L275.358 36.664L273.306 33.676H274.506L275.97 36.028L277.446 33.676H278.61L276.558 36.616L278.886 40H277.662L275.922 37.288L274.182 40H273.03ZM285.757 39.184V40H280.993V39.184H283.021V32.836L281.137 33.976L280.693 33.268L283.153 31.732H284.041V39.184H285.757Z" fill="black"/>
<path opacity="0.5" d="M40.6397 30H46.8637V28.864H41.9517V18.688H40.6397V30ZM50.02 30.144C51.524 30.144 52.5 29.328 52.932 28.992C53.044 29.776 53.844 30.096 54.612 30.096C54.724 30.096 54.884 30.08 54.964 30.064L55.012 29.088C54.596 29.088 54.068 28.944 54.068 28.288V23.456C54.068 21.744 52.9 21.04 50.98 21.04C49.796 21.04 48.82 21.296 48.148 21.584L48.436 22.576C49.156 22.304 49.86 22.144 50.804 22.144C52.18 22.144 52.836 22.48 52.836 23.872V24.992L50.756 25.024C49.332 25.056 47.412 25.504 47.412 27.68C47.412 29.264 48.436 30.144 50.02 30.144ZM50.308 29.12C49.348 29.12 48.628 28.64 48.628 27.632C48.628 26.608 49.38 26 50.74 25.952L52.836 25.872V28.144C52.18 28.624 51.268 29.12 50.308 29.12ZM59.3494 30.192C61.8454 30.192 63.8134 28.928 63.8134 25.376C63.8134 22.56 62.5654 21.104 60.2454 21.104C59.5734 21.104 59.0614 21.216 58.7414 21.392L58.8534 22.32C59.1894 22.208 59.5894 22.128 60.0534 22.128C62.0854 22.128 62.5174 23.776 62.5174 25.312C62.5174 27.552 61.6214 29.12 59.5734 29.12C58.9014 29.12 58.1814 28.96 57.8294 28.864V17.936H56.5814V29.712C57.2854 29.968 58.3254 30.192 59.3494 30.192ZM69.4174 30.192C70.5214 30.192 71.5134 30 72.1694 29.728L71.9454 28.704C71.1294 28.96 70.4734 29.104 69.6254 29.104C67.9614 29.104 66.5854 28.576 66.5534 25.872H72.3134V25.408C72.3134 22.496 71.3054 21.04 69.0814 21.04C66.9534 21.04 65.2734 22.4 65.2734 25.808C65.2734 29.136 66.8734 30.192 69.4174 30.192ZM66.5694 24.928C66.7134 22.976 67.6894 22.032 68.9534 22.032C70.3774 22.032 71.0014 23.152 71.0014 24.928H66.5694ZM74.2211 30H75.4851V17.936H74.2211V30ZM78.1475 30H79.6675V28.496H78.1475V30ZM78.1475 22.768H79.6675V21.264H78.1475V22.768Z" fill="black"/>
<rect x="104.5" y="8.5" width="151" height="31" rx="15.5" stroke="#007272"/>
<path d="M126.761 30.192C128.377 30.192 129.257 29.92 129.993 29.648L129.673 28.592C128.969 28.848 128.073 29.008 127.017 29.008C124.425 29.008 122.249 27.632 122.249 24.256C122.249 20.96 124.361 19.68 126.729 19.68C128.025 19.68 128.761 19.936 129.577 20.224L129.977 19.168C129.337 18.864 128.345 18.528 126.697 18.528C123.049 18.528 120.889 20.896 120.889 24.416C120.889 27.792 123.017 30.192 126.761 30.192ZM131.834 30H133.098V23.248C133.85 22.768 134.794 22.176 135.914 22.176C137.37 22.176 137.626 23.104 137.626 24.624V30H138.842V24.368C138.842 22.912 138.698 21.056 136.202 21.056C134.81 21.056 133.818 21.744 133.098 22.272V17.936H131.834V30ZM144.585 30.192C146.873 30.192 148.569 28.736 148.569 25.584C148.569 22.704 147.241 21.04 144.761 21.04C142.329 21.04 140.697 22.704 140.697 25.728C140.697 28.592 142.185 30.192 144.585 30.192ZM144.665 29.152C142.617 29.152 141.977 27.456 141.977 25.664C141.977 24 142.521 22.08 144.665 22.08C146.809 22.08 147.289 24.016 147.289 25.664C147.289 27.376 146.777 29.152 144.665 29.152ZM153.88 30.192C156.168 30.192 157.864 28.736 157.864 25.584C157.864 22.704 156.536 21.04 154.056 21.04C151.624 21.04 149.992 22.704 149.992 25.728C149.992 28.592 151.48 30.192 153.88 30.192ZM153.96 29.152C151.912 29.152 151.272 27.456 151.272 25.664C151.272 24 151.816 22.08 153.96 22.08C156.104 22.08 156.584 24.016 156.584 25.664C156.584 27.376 156.072 29.152 153.96 29.152ZM161.56 30.192C163.112 30.192 164.952 29.552 164.952 27.68C164.952 24.784 160.584 25.376 160.584 23.376C160.584 22.656 161.096 22.096 162.296 22.096C162.936 22.096 163.656 22.24 164.216 22.464L164.504 21.456C163.88 21.184 163 21.04 162.312 21.04C160.68 21.04 159.352 21.888 159.352 23.488C159.352 26.368 163.752 25.808 163.752 27.76C163.752 28.624 162.936 29.12 161.656 29.12C160.904 29.12 160.088 28.96 159.32 28.736L159.112 29.808C159.752 30.016 160.744 30.192 161.56 30.192ZM170.353 30.192C171.457 30.192 172.449 30 173.105 29.728L172.881 28.704C172.065 28.96 171.409 29.104 170.561 29.104C168.897 29.104 167.521 28.576 167.489 25.872H173.249V25.408C173.249 22.496 172.241 21.04 170.017 21.04C167.889 21.04 166.209 22.4 166.209 25.808C166.209 29.136 167.809 30.192 170.353 30.192ZM167.505 24.928C167.649 22.976 168.625 22.032 169.889 22.032C171.313 22.032 171.937 23.152 171.937 24.928H167.505ZM179.062 30H180.342V21.264H179.062V30ZM179.686 19.632L180.758 18.56L179.686 17.504L178.646 18.56L179.686 19.632ZM182.78 30H184.044V23.232C184.828 22.688 185.724 22.16 186.844 22.16C188.332 22.16 188.572 23.104 188.572 24.608V30H189.804V24.368C189.804 22.896 189.644 21.04 187.164 21.04C185.804 21.04 184.956 21.584 184.044 22.256V21.264H182.78V30ZM196.044 30H197.308V17.936H196.044V30ZM199.73 30H201.01V21.264H199.73V30ZM200.354 19.632L201.426 18.56L200.354 17.504L199.314 18.56L200.354 19.632ZM205.224 30.192C206.776 30.192 208.616 29.552 208.616 27.68C208.616 24.784 204.248 25.376 204.248 23.376C204.248 22.656 204.76 22.096 205.96 22.096C206.6 22.096 207.32 22.24 207.88 22.464L208.168 21.456C207.544 21.184 206.664 21.04 205.976 21.04C204.344 21.04 203.016 21.888 203.016 23.488C203.016 26.368 207.416 25.808 207.416 27.76C207.416 28.624 206.6 29.12 205.32 29.12C204.568 29.12 203.752 28.96 202.984 28.736L202.776 29.808C203.416 30.016 204.408 30.192 205.224 30.192ZM213.329 30.192C213.921 30.192 214.737 30.032 215.185 29.872L214.961 28.832C214.593 28.96 213.969 29.088 213.489 29.088C212.481 29.088 211.921 28.752 211.921 27.52V22.336H214.641V21.264H211.905V19.472H210.673V21.264H209.393V22.336H210.673V27.568C210.673 29.632 211.697 30.192 213.329 30.192Z" fill="#14555A"/>
<path fill-rule="evenodd" clip-rule="evenodd" d="M228.03 21.2197C227.737 20.9268 227.263 20.9268 226.97 21.2197C226.677 21.5126 226.677 21.9874 226.97 22.2803L231.47 26.7803C231.506 26.8169 231.546 26.849 231.587 26.8764C231.878 27.0686 232.274 27.0366 232.53 26.7803L237.03 22.2803C237.323 21.9874 237.323 21.5126 237.03 21.2197C236.737 20.9268 236.263 20.9268 235.97 21.2197L232 25.1893L228.03 21.2197Z" fill="#008484"/>
<rect x="224" y="16" width="16" height="16" fill="#FF5400" fill-opacity="0.5"/>
<line x1="28.5" y1="24.179" x2="39.5" y2="24.179" stroke="#B3B3B3" stroke-linecap="round" stroke-dasharray="2 3"/>
<line x1="256.5" y1="12.5" x2="267.5" y2="12.5" stroke="#B3B3B3" stroke-linecap="round" stroke-dasharray="2 3"/>
<line x1="256.5" y1="35.5" x2="267.5" y2="35.5" stroke="#B3B3B3" stroke-linecap="round" stroke-dasharray="2 3"/>
</svg>
