<svg fill="none" height="120" viewBox="0 0 432 120" width="432" xmlns="http://www.w3.org/2000/svg"><path d="m40.7 41h3.56c2.92 0 4-1.34 4-3.22 0-1.68-1.2-2.52-2.38-2.73v-.05c.94-.34 1.57-1.25 1.57-2.46 0-1.65-1.1-2.85-3.67-2.85h-3.08zm1.3-1.09v-4.19h1.78c1.92 0 3.14.58 3.14 2.11 0 1.73-1.33 2.08-2.9 2.08h-2.01zm0-5.25v-3.95h1.45c1.7 0 2.65.5 2.65 2.03 0 1.24-.7 1.92-2.14 1.92h-1.95zm10.76 6.53c1.47 0 2.34-.62 3.17-1.21v1.02h1.22v-8.74h-1.22v6.7a5.08 5.08 0 0 1 -2.82 1.08c-1.56 0-1.68-1.09-1.68-2.46v-5.32h-1.23v5.57c0 1.47.17 3.36 2.57 3.36zm9.78 0c.59 0 1.4-.16 1.85-.32l-.22-1.04c-.37.13-1 .26-1.47.26-1.01 0-1.57-.34-1.57-1.57v-5.18h2.72v-1.08h-2.75v-1.79h-1.23v1.8h-1.27v1.07h1.28v5.23c0 2.06 1.02 2.62 2.66 2.62zm6.1 0c.6 0 1.41-.16 1.86-.32l-.22-1.04c-.37.13-1 .26-1.47.26-1.01 0-1.57-.34-1.57-1.57v-5.18h2.72v-1.08h-2.74v-1.79h-1.22v1.8h-1.3v1.07h1.28v5.23c0 2.06 1.02 2.62 2.66 2.62zm6.53 0c2.29 0 3.98-1.45 3.98-4.6 0-2.89-1.32-4.55-3.8-4.55-2.44 0-4.07 1.66-4.07 4.69 0 2.86 1.49 4.46 3.89 4.46zm.08-1.04c-2.05 0-2.69-1.7-2.69-3.49 0-1.66.55-3.58 2.69-3.58s2.62 1.94 2.62 3.58c0 1.72-.5 3.5-2.62 3.5zm5.82.85h1.27v-6.77a4.88 4.88 0 0 1 2.8-1.07c1.49 0 1.73.94 1.73 2.45v5.39h1.23v-5.63c0-1.47-.16-3.33-2.64-3.33-1.36 0-2.21.54-3.12 1.22v-1h-1.27zm77.63 0h3.56c2.92 0 4-1.34 4-3.22 0-1.68-1.2-2.52-2.38-2.73v-.05c.94-.34 1.57-1.25 1.57-2.46 0-1.65-1.1-2.85-3.67-2.85h-3.08zm1.3-1.09v-4.19h1.78c1.92 0 3.14.58 3.14 2.11 0 1.73-1.33 2.08-2.9 2.08h-2.01zm0-5.25v-3.95h1.45c1.7 0 2.65.5 2.65 2.03 0 1.24-.7 1.92-2.14 1.92h-1.95zm10.76 6.53c1.47 0 2.34-.62 3.17-1.21v1.02h1.22v-8.74h-1.22v6.7a5.08 5.08 0 0 1 -2.82 1.08c-1.57 0-1.68-1.09-1.68-2.46v-5.32h-1.25v5.57c0 1.47.18 3.36 2.58 3.36zm9.78 0c.59 0 1.4-.16 1.85-.32l-.22-1.04c-.37.13-1 .26-1.47.26-1.01 0-1.57-.34-1.57-1.57v-5.18h2.72v-1.08h-2.74v-1.79h-1.23v1.8h-1.28v1.07h1.28v5.23c0 2.06 1.03 2.62 2.66 2.62zm6.1 0c.6 0 1.41-.16 1.86-.32l-.22-1.04c-.37.13-1 .26-1.47.26-1.01 0-1.57-.34-1.57-1.57v-5.18h2.72v-1.08h-2.74v-1.79h-1.22v1.8h-1.28v1.07h1.28v5.23c0 2.06 1.02 2.62 2.66 2.62zm6.53 0c2.29 0 3.98-1.45 3.98-4.6 0-2.89-1.33-4.55-3.8-4.55-2.44 0-4.07 1.66-4.07 4.69 0 2.86 1.49 4.46 3.89 4.46zm.08-1.04c-2.05 0-2.69-1.7-2.69-3.49 0-1.66.54-3.58 2.69-3.58 2.14 0 2.62 1.94 2.62 3.58 0 1.72-.5 3.5-2.62 3.5zm5.82.85h1.27v-6.77a4.88 4.88 0 0 1 2.8-1.07c1.49 0 1.73.94 1.73 2.45v5.39h1.23v-5.63c0-1.47-.16-3.33-2.64-3.33-1.36 0-2.21.54-3.12 1.22v-1h-1.27zm85.63 0h3.56c2.92 0 4-1.34 4-3.22 0-1.68-1.2-2.52-2.38-2.73v-.05c.94-.34 1.57-1.25 1.57-2.46 0-1.65-1.1-2.85-3.67-2.85h-3.08zm1.3-1.09v-4.19h1.78c1.92 0 3.14.58 3.14 2.11 0 1.73-1.33 2.08-2.9 2.08h-2.01zm0-5.25v-3.95h1.45c1.7 0 2.65.5 2.65 2.03 0 1.24-.7 1.92-2.14 1.92h-1.95zm10.76 6.53c1.47 0 2.34-.62 3.17-1.21v1.02h1.21v-8.74h-1.21v6.7a5.08 5.08 0 0 1 -2.82 1.08c-1.56 0-1.68-1.09-1.68-2.46v-5.32h-1.25v5.57c0 1.47.18 3.36 2.58 3.36zm9.78 0c.59 0 1.4-.16 1.85-.32l-.22-1.04c-.37.13-1 .26-1.47.26-1.01 0-1.57-.34-1.57-1.57v-5.18h2.72v-1.08h-2.74v-1.79h-1.23v1.8h-1.28v1.07h1.28v5.23c0 2.06 1.02 2.62 2.66 2.62zm6.1 0c.6 0 1.41-.16 1.86-.32l-.22-1.04c-.37.13-1 .26-1.47.26-1.01 0-1.57-.34-1.57-1.57v-5.18h2.72v-1.08h-2.74v-1.79h-1.22v1.8h-1.28v1.07h1.28v5.23c0 2.06 1.02 2.62 2.65 2.62zm6.53 0c2.29 0 3.98-1.45 3.98-4.6 0-2.89-1.32-4.55-3.8-4.55-2.44 0-4.07 1.66-4.07 4.69 0 2.86 1.49 4.46 3.89 4.46zm.08-1.04c-2.05 0-2.69-1.7-2.69-3.49 0-1.66.55-3.58 2.69-3.58s2.62 1.94 2.62 3.58c0 1.72-.5 3.5-2.62 3.5zm5.82.85h1.27v-6.77a4.88 4.88 0 0 1 2.8-1.07c1.49 0 1.73.94 1.73 2.45v5.39h1.23v-5.63c0-1.47-.16-3.33-2.64-3.33-1.36 0-2.21.54-3.12 1.22v-1h-1.27z" fill="#fff"/><path d="m119.98 111.92h1.12l1.7-2.68 1.68 2.69h1.14l-2.28-3.38 2.11-3.18h-1.05l-1.6 2.53-1.58-2.53h-1.1l2.14 3.2-2.28 3.36zm11.8 0v-.82h-4.25c1.97-1.8 3.73-3.53 3.73-5.37 0-1.1-.4-2.39-2.44-2.39-1.18 0-1.87.42-2.23.66l.37.69c.2-.12.82-.5 1.78-.5 1 0 1.56.38 1.56 1.65 0 1.85-3.7 5-4 5.3v.78h5.49zm110.41 0h1.11l1.7-2.68 1.69 2.69h1.14l-2.28-3.38 2.11-3.18h-1.06l-1.6 2.53-1.58-2.53h-1.1l2.15 3.2-2.28 3.36zm11.15-2.22c0-1.3-1.06-2.06-1.96-2.29.66-.19 1.57-.93 1.57-2.08 0-1.31-.95-1.98-2.33-1.98-.82 0-1.4.21-1.78.38l.3.7s.62-.27 1.43-.27c.77 0 1.47.29 1.47 1.25 0 .94-.92 1.62-1.96 1.7v.8c1.34.08 2.33.7 2.33 1.8 0 1.3-.96 1.47-1.92 1.47a6.1 6.1 0 0 1 -1.83-.29l-.22.8s.75.34 2.17.34c1.53 0 2.73-.56 2.73-2.33zm118.4 2.22h1.12l1.7-2.68 1.68 2.69h1.14l-2.28-3.38 2.11-3.18h-1.05l-1.6 2.53-1.58-2.53h-1.1l2.14 3.2-2.28 3.36zm12.4-2.26v-.84h-1.47v-5.38h-1.42l-3.27 5.38v.84h3.74v2.27h.95v-2.27h1.46zm-2.42-.84h-2.8l2.8-4.66zm-374.59 3.1h1.12l1.7-2.68 1.68 2.69h1.14l-2.28-3.38 2.11-3.18h-1.05l-1.6 2.53-1.58-2.53h-1.1l2.14 3.2-2.28 3.36zm8.72 0v-8.48l-2.64.07v.75h1.7v7.66zm403.55-44.96h1.12l1.7-2.69 1.68 2.7h1.15l-2.29-3.38 2.12-3.18h-1.06l-1.6 2.53-1.58-2.53h-1.1l2.14 3.2zm11.8 0v-.83h-4.25c1.97-1.8 3.73-3.52 3.73-5.36 0-1.1-.4-2.39-2.44-2.39-1.18 0-1.87.42-2.23.66l.38.69c.2-.12.81-.5 1.77-.5 1 0 1.56.38 1.56 1.65 0 1.85-3.7 5-4 5.3v.78h5.49zm-12.22-52h1.11l1.7-2.69 1.69 2.7h1.13l-2.28-3.38 2.12-3.18h-1.06l-1.6 2.53-1.58-2.53h-1.1l2.14 3.2zm8.71 0v-8.48l-2.63.07v.74h1.69v7.67z" fill="#000"/><g fill-opacity=".25"><path d="m16 8h-8v80h8zm110 0h-8v80h8z" fill="#db00ff"/><path d="m134 8h-8v80h8z" fill="#00d9ff"/><path d="m244 8h-8v80h8zm16 0h-8v80h8z" fill="#db00ff"/><path d="m252 8h-8v80h8z" fill="#00d9ff"/><path d="m370 8h-8v80h8zm16 0h-8v80h8z" fill="#db00ff"/><path d="m378 8h-8v80h8zm16 0h-8v80h8z" fill="#00d9ff"/><path d="m394 8h-386v8h386zm0 56h-386v8h386z" fill="#db00ff"/><path d="m394 56h-386v8h386z" fill="#00d9ff"/></g><path d="m404.5 12h11m-11 52h11m-37.5 35.5v-11m-130 11v-11m-122 11v-11m-114 11v-11" stroke="#b3b3b3" stroke-dasharray="2 3" stroke-linecap="round"/><rect fill="#007272" height="40" rx="20" width="102" x="16" y="16"/><path d="m47.76 35.32c1.08-.47 1.69-1.38 1.69-2.7 0-1.98-1.42-3.22-3.67-3.22h-4.34v12.6h4.99c2.23 0 3.81-1.44 3.81-3.5 0-1.58-1-2.8-2.48-3.18zm-2.4-4.6c1.55 0 2.45.73 2.45 2.03s-.88 2.03-2.45 2.03h-2.3v-4.07h2.3zm.53 9.91h-2.83v-4.53h2.79c1.84 0 2.74.77 2.74 2.28 0 1.44-1 2.25-2.7 2.25zm12.34-7.63v5.2c0 1.62-.91 2.67-2.34 2.67-1.35 0-2.08-.8-2.08-2.22v-5.65h-1.57v5.72c0 2.15 1.19 3.42 3.2 3.42 1.37 0 2.45-.6 3-1.65v1.51h1.36v-9zm7.5 7.85c-.92 0-1.4-.43-1.4-1.3v-5.25h2.31v-1.3h-2.3v-2.8h-1.57v2.8h-1.53v1.3h1.53v5.29c0 1.64.97 2.55 2.68 2.55.53 0 1.03-.07 1.32-.18v-1.26c-.25.1-.63.15-1.05.15zm6.52 0c-.92 0-1.39-.43-1.39-1.3v-5.25h2.3v-1.3h-2.3v-2.8h-1.57v2.8h-1.53v1.3h1.53v5.29c0 1.64.98 2.55 2.69 2.55.52 0 1.02-.07 1.31-.18v-1.26c-.25.1-.63.15-1.04.15zm6.8 1.3c2.54 0 4.43-1.86 4.43-4.65s-1.89-4.64-4.42-4.64c-2.54 0-4.43 1.85-4.43 4.64s1.89 4.64 4.43 4.64zm0-1.3c-1.65 0-2.86-1.33-2.86-3.35s1.21-3.35 2.87-3.35c1.65 0 2.86 1.33 2.86 3.35s-1.2 3.35-2.86 3.35zm10.58-8c-1.35 0-2.43.62-2.97 1.64v-1.49h-1.39v9h1.57v-5.2c0-1.62.92-2.67 2.36-2.67 1.33 0 2.07.8 2.07 2.22v5.65h1.56v-5.72c0-2.15-1.19-3.42-3.2-3.42z" fill="#fff"/><rect fill="#007272" height="40" rx="20" width="102" x="134" y="16"/><path d="m165.76 35.32c1.08-.47 1.69-1.38 1.69-2.7 0-1.98-1.42-3.22-3.67-3.22h-4.34v12.6h4.99c2.23 0 3.81-1.44 3.81-3.5 0-1.58-1-2.8-2.48-3.18zm-2.4-4.6c1.55 0 2.45.73 2.45 2.03s-.88 2.03-2.45 2.03h-2.3v-4.07h2.3zm.53 9.91h-2.83v-4.53h2.79c1.84 0 2.74.77 2.74 2.28 0 1.44-1 2.25-2.7 2.25zm12.34-7.63v5.2c0 1.62-.91 2.67-2.34 2.67-1.35 0-2.08-.8-2.08-2.22v-5.65h-1.57v5.72c0 2.15 1.19 3.42 3.2 3.42 1.37 0 2.45-.6 3-1.65v1.51h1.36v-9zm7.5 7.85c-.92 0-1.4-.43-1.4-1.3v-5.25h2.31v-1.3h-2.3v-2.8h-1.57v2.8h-1.53v1.3h1.53v5.29c0 1.64.97 2.55 2.69 2.55.52 0 1.02-.07 1.3-.18v-1.26c-.24.1-.62.15-1.03.15zm6.52 0c-.92 0-1.39-.43-1.39-1.3v-5.25h2.3v-1.3h-2.3v-2.8h-1.57v2.8h-1.53v1.3h1.53v5.29c0 1.64.98 2.55 2.69 2.55.52 0 1.02-.07 1.31-.18v-1.26c-.25.1-.63.15-1.04.15zm6.8 1.3c2.54 0 4.43-1.86 4.43-4.65s-1.89-4.64-4.42-4.64c-2.54 0-4.43 1.85-4.43 4.64s1.89 4.64 4.43 4.64zm0-1.3c-1.65 0-2.86-1.33-2.86-3.35s1.21-3.35 2.87-3.35c1.65 0 2.86 1.33 2.86 3.35s-1.2 3.35-2.86 3.35zm10.58-8c-1.35 0-2.43.62-2.97 1.64v-1.49h-1.39v9h1.57v-5.2c0-1.62.91-2.67 2.35-2.67 1.34 0 2.07.8 2.07 2.22v5.65h1.57v-5.72c0-2.15-1.19-3.42-3.2-3.42z" fill="#fff"/><rect fill="#007272" height="40" rx="20" width="102" x="260" y="16"/><path d="m291.76 35.32c1.08-.47 1.69-1.38 1.69-2.7 0-1.98-1.42-3.22-3.67-3.22h-4.34v12.6h4.99c2.23 0 3.81-1.44 3.81-3.5 0-1.58-1-2.8-2.48-3.18zm-2.4-4.6c1.55 0 2.45.73 2.45 2.03s-.88 2.03-2.45 2.03h-2.3v-4.07h2.3zm.53 9.91h-2.83v-4.53h2.79c1.84 0 2.74.77 2.74 2.28 0 1.44-1 2.25-2.7 2.25zm12.34-7.63v5.2c0 1.62-.91 2.67-2.34 2.67-1.35 0-2.08-.8-2.08-2.22v-5.65h-1.57v5.72c0 2.15 1.19 3.42 3.2 3.42 1.37 0 2.45-.6 3-1.65v1.51h1.36v-9zm7.5 7.85c-.92 0-1.4-.43-1.4-1.3v-5.25h2.31v-1.3h-2.3v-2.8h-1.57v2.8h-1.53v1.3h1.53v5.29c0 1.64.98 2.55 2.69 2.55.52 0 1.02-.07 1.3-.18v-1.26c-.24.1-.62.15-1.03.15zm6.52 0c-.92 0-1.39-.43-1.39-1.3v-5.25h2.3v-1.3h-2.3v-2.8h-1.57v2.8h-1.53v1.3h1.53v5.29c0 1.64.98 2.55 2.69 2.55.52 0 1.02-.07 1.31-.18v-1.26c-.25.1-.63.15-1.04.15zm6.8 1.3c2.54 0 4.43-1.86 4.43-4.65s-1.89-4.64-4.42-4.64c-2.54 0-4.43 1.85-4.43 4.64s1.89 4.64 4.43 4.64zm0-1.3c-1.65 0-2.86-1.33-2.86-3.35s1.21-3.35 2.87-3.35c1.65 0 2.86 1.33 2.86 3.35s-1.2 3.35-2.86 3.35zm10.58-8c-1.35 0-2.43.62-2.97 1.64v-1.49h-1.39v9h1.57v-5.2c0-1.62.92-2.67 2.36-2.67 1.33 0 2.06.8 2.06 2.22v5.65h1.57v-5.72c0-2.15-1.19-3.42-3.2-3.42z" fill="#fff"/></svg>