<svg fill="none" height="336" width="648" xmlns="http://www.w3.org/2000/svg" xmlns:xlink="http://www.w3.org/1999/xlink"><clipPath id="a"><path d="m0 0h288v8h-288z" transform="translate(16 16)"/></clipPath><path d="m0 0h648v336h-648z" fill="#fff"/><g fill="#f00"><path d="m16 264h288v56h-288z" fill-opacity=".1"/><path d="m24.112 297 4-5.92-3.392-5.392h1.968l2.416 4.032 2.608-4.032h1.888l-3.584 5.344 3.776 5.968h-2l-2.784-4.624-2.96 4.624zm9.843 0 4-5.92-3.392-5.392h1.968l2.416 4.032 2.608-4.032h1.888l-3.584 5.344 3.776 5.968h-2l-2.784-4.624-2.961 4.624h-1.936zm11.314 0v-11.312h1.728v9.888h4.912v1.424z" fill-opacity=".3"/><path d="m16 192h288v48h-288z" fill-opacity=".1"/><path d="m24.112 221 4-5.92-3.392-5.392h1.968l2.416 4.032 2.608-4.032h1.888l-3.584 5.344 3.776 5.968h-2l-2.784-4.624-2.96 4.624zm11.315 0v-11.312h1.728v9.888h4.912v1.424z" fill-opacity=".3"/><path d="m16 136h288v32h-288z" fill-opacity=".1"/><path d="m25.584 157v-11.312h1.728v9.888h4.912v1.424z" fill-opacity=".3"/><path d="m16 88h288v24h-288z" fill-opacity=".1"/><path d="m25.584 105v-11.312h2.224l3.664 10.048 4.144-10.048h2.096v11.312h-1.712v-6.608l.064-2.016h-.048l-3.472 8.624h-2.24l-3.04-8.64h-.064l.112 1.872v6.768z" fill-opacity=".3"/><path d="m16 48h288v16h-288z" fill-opacity=".1"/><path d="m28.016 62.192c-1.29 0-2.405-.272-3.344-.816l.528-1.36c.992.47 1.93.704 2.816.704.704 0 1.29-.144 1.76-.432s.704-.72.704-1.296c0-.341-.101-.64-.304-.896a2.323 2.323 0 0 0 -.8-.656 11.31 11.31 0 0 0 -1.072-.496c-.384-.17-.773-.352-1.168-.544a8.13 8.13 0 0 1 -1.072-.64 2.796 2.796 0 0 1 -.784-.96 2.9 2.9 0 0 1 -.304-1.344c0-.917.347-1.632 1.04-2.144.704-.523 1.552-.784 2.544-.784 1.173 0 2.17.23 2.992.688l-.512 1.312a5.734 5.734 0 0 0 -2.448-.56c-.565 0-1.03.128-1.392.384-.363.256-.544.619-.544 1.088 0 .405.192.763.576 1.072.384.31.848.581 1.392.816.544.224 1.088.475 1.632.752.544.267 1.008.64 1.392 1.12s.576 1.045.576 1.696c0 1.067-.405 1.883-1.216 2.448-.8.565-1.797.848-2.992.848z" fill-opacity=".3"/><g clip-path="url(#a)"><path d="m16 16h288v8h-288z" fill-opacity=".1"/><path d="m24.463 24.128 2.5-3.7-2.12-3.37h1.23l1.51 2.52 1.63-2.52h1.18l-2.24 3.34 2.36 3.73h-1.25l-1.74-2.89-1.85 2.89zm8.491.12c-.806 0-1.503-.17-2.09-.51l.33-.85c.62.293 1.207.44 1.76.44.44 0 .807-.09 1.1-.27.294-.18.44-.45.44-.81 0-.213-.063-.4-.19-.56a1.452 1.452 0 0 0 -.5-.41c-.2-.107-.423-.21-.67-.31-.24-.107-.483-.22-.73-.34a5.086 5.086 0 0 1 -.67-.4 1.748 1.748 0 0 1 -.49-.6 1.812 1.812 0 0 1 -.19-.84c0-.573.217-1.02.65-1.34.44-.327.97-.49 1.59-.49.734 0 1.357.143 1.87.43l-.32.82c-.5-.233-1.01-.35-1.53-.35-.353 0-.643.08-.87.24a.783.783 0 0 0 -.34.68c0 .253.12.477.36.67s.53.363.87.51c.34.14.68.297 1.02.47.34.167.63.4.87.7s.36.653.36 1.06c0 .667-.253 1.177-.76 1.53-.5.353-1.123.53-1.87.53z" fill-opacity=".3"/></g><path d="m576 16h56v304h-56z" fill-opacity=".1"/><path d="m599.191 36h1.936l2.96-4.624 2.784 4.624h2l-3.776-5.968 3.584-5.344h-1.888l-2.608 4.032-2.416-4.032h-1.968l3.392 5.392zm0 16h1.936l2.96-4.624 2.784 4.624h2l-3.776-5.968 3.584-5.344h-1.888l-2.608 4.032-2.416-4.032h-1.968l3.392 5.392zm2.347 16h6.64v-1.424h-4.912v-9.888h-1.728z" fill-opacity=".3"/><path d="m504 16h48v304h-48z" fill-opacity=".1"/><path d="m523.191 36h1.936l2.96-4.624 2.784 4.624h2l-3.776-5.968 3.584-5.344h-1.888l-2.608 4.032-2.416-4.032h-1.968l3.392 5.392zm2.347 16h6.64v-1.424h-4.912v-9.888h-1.728z" fill-opacity=".3"/><path d="m448 16h32v304h-32z" fill-opacity=".1"/><path d="m461.538 36h6.64v-1.424h-4.912v-9.888h-1.728z" fill-opacity=".3"/><path d="m400 16h24v304h-24z" fill-opacity=".1"/><path d="m406.061 36h1.728v-6.768l-.112-1.872h.064l3.04 8.64h2.24l3.472-8.624h.048l-.064 2.016v6.608h1.712v-11.312h-2.096l-4.144 10.048-3.664-10.048h-2.224z" fill-opacity=".3"/><path d="m360 16h16v304h-16z" fill-opacity=".1"/><path d="m367.72 36.192c2.224 0 4.208-1.04 4.208-3.296 0-3.552-5.568-3.216-5.568-5.456 0-.976.848-1.472 1.936-1.472.976 0 1.696.208 2.448.56l.512-1.312c-.72-.4-1.568-.688-2.992-.688-1.872 0-3.584 1.008-3.584 2.928 0 3.744 5.504 3.008 5.504 5.536 0 1.232-1.184 1.728-2.464 1.728-1.12 0-1.936-.288-2.816-.704l-.528 1.36c.72.416 1.808.816 3.344.816z" fill-opacity=".3"/><path d="m328 16h8v304h-8z" fill-opacity=".1"/><path d="m329.044 32 2.5-3.7-2.12-3.37h1.23l1.51 2.52 1.63-2.52h1.18l-2.24 3.34 2.36 3.73h-1.25l-1.74-2.89-1.85 2.89zm2.831 16.12c-.807 0-1.504-.17-2.09-.51l.33-.85c.62.293 1.206.44 1.76.44.44 0 .806-.09 1.1-.27.293-.18.44-.45.44-.81a.88.88 0 0 0 -.19-.56 1.461 1.461 0 0 0 -.5-.41c-.2-.107-.424-.21-.67-.31-.24-.107-.484-.22-.73-.34a5.036 5.036 0 0 1 -.67-.4 1.74 1.74 0 0 1 -.49-.6 1.808 1.808 0 0 1 -.19-.84c0-.573.216-1.02.65-1.34.44-.327.97-.49 1.59-.49.733 0 1.356.143 1.87.43l-.32.82c-.5-.233-1.01-.35-1.53-.35-.354 0-.644.08-.87.24a.783.783 0 0 0 -.34.68c0 .253.12.477.36.67s.53.363.87.51c.34.14.68.297 1.02.47.34.167.63.4.87.7s.36.653.36 1.06c0 .667-.254 1.177-.76 1.53-.5.353-1.124.53-1.87.53z" fill-opacity=".3"/></g></svg>