<svg width="400" height="400" viewBox="0 0 400 400" fill="none" xmlns="http://www.w3.org/2000/svg"><circle cx="200" cy="200" r="199.8" fill="#fff" stroke="#14555A" stroke-width=".5"/><rect x="122.2" y="35.2" width="135.8" height="39.2" rx="8" fill="#D2F0E9"/><rect x="137.5" y="322.7" width="161.9" height="39.2" rx="8" fill="#D2F0E9"/><rect x="56.3" y="268.8" width="161.9" height="39.2" rx="8" fill="#D2F0E9"/><rect x="42.6" y="214.8" width="135.8" height="39.2" rx="8" fill="#D2F0E9"/><rect x="58" y="85" width="147" height="63" rx="8" fill="#D2F0E9"/><rect x="18.8" y="160.8" width="159.7" height="39.2" rx="8" fill="#D2F0E9"/><path d="M147.3 59.8c1.6 0 2.5-.3 3.4-.6l-.4-1.3c-.8.2-1.6.4-2.7.4-2.5 0-4.5-1.4-4.5-4.5 0-3 2-4.2 4.2-4.2 1.3 0 2 .2 2.8.5l.5-1.3c-.7-.4-1.7-.7-3.3-.7-3.7 0-6 2.3-6 6 0 3.4 2.2 5.7 6 5.7zm8.6 0c2.4 0 4.2-1.5 4.2-4.6 0-2.9-1.3-4.6-4-4.6-2.5 0-4.2 1.7-4.2 4.7 0 2.8 1.5 4.5 4 4.5zm.1-1.4c-1.8 0-2.4-1.4-2.4-3.1 0-1.6.5-3.3 2.4-3.3 2 0 2.4 1.7 2.4 3.3 0 1.6-.5 3.1-2.4 3.1zm6.1 1.2h1.7v-12h-1.7v12zm7.7.2c2.5 0 4.2-1.5 4.2-4.6 0-2.9-1.3-4.6-4-4.6-2.5 0-4.2 1.7-4.2 4.7 0 2.8 1.5 4.5 4 4.5zm.2-1.4c-2 0-2.5-1.4-2.5-3.1 0-1.6.5-3.3 2.4-3.3 2 0 2.4 1.7 2.4 3.3 0 1.6-.4 3.1-2.3 3.1zm6 1.2h1.7v-6.3c.4-.6 1.2-1.2 2.2-1.2l1 .1.3-1.4-1-.1a3 3 0 00-2.5 1.3V51h-1.6v8.7zm12.5.2c1.6 0 3.6-.6 3.6-2.6 0-3-4.4-2.4-4.4-4.2 0-.5.5-1 1.6-1 .7 0 1.5.1 2 .3l.4-1.2c-.7-.3-1.6-.5-2.4-.5-1.7 0-3.2.9-3.2 2.6 0 3 4.4 2.4 4.4 4 0 .8-.7 1.2-2 1.2l-2.3-.3-.3 1.3c.7.2 1.8.4 2.6.4zm6.8 3.3h1.6l4.3-12.2h-1.7l-2 6-.6 1.4-.4-1.5-1.8-6H193l2.9 8.8h.7l-1.2 3.5zm9.2-3.3c1.6 0 3.6-.6 3.6-2.6 0-3-4.4-2.4-4.4-4.2 0-.5.5-1 1.6-1 .7 0 1.5.1 2 .3l.4-1.2c-.7-.3-1.6-.5-2.4-.5-1.7 0-3.2.9-3.2 2.6 0 3 4.4 2.4 4.4 4 0 .8-.7 1.2-2 1.2l-2.3-.3-.3 1.3c.7.2 1.8.4 2.6.4zm8.6 0a7 7 0 002.1-.4l-.2-1.3-1.6.2c-1 0-1.4-.2-1.4-1.3v-4.8h2.7v-1.3H212V49h-1.7v1.8h-1.2v1.3h1.2V57c0 2 1.1 2.7 2.8 2.7zm7.4 0c1.2 0 2.2-.2 3-.5l-.3-1.3a8 8 0 01-2.4.4c-1.6 0-2.9-.5-2.9-2.8h5.8V55c0-2.8-1-4.4-3.5-4.4-2.2 0-4 1.3-4 4.8 0 3.4 1.7 4.4 4.3 4.4zm-2.5-5.3c0-1.8 1-2.6 2-2.6 1.4 0 2 1 2 2.6h-4zm7.7 5h1.6V53c.7-.5 1.6-.9 2.4-.9 1.3 0 1.5.8 1.5 2.1v5.4h1.7V54l-.1-1c.7-.5 1.5-.9 2.4-.9 1.3 0 1.5.9 1.5 2.1v5.4h1.7V54c0-1.5 0-3.4-2.7-3.4-1.3 0-2.4.8-3.1 1.3-.3-.7-1.2-1.3-2.4-1.3-1.1 0-2 .6-2.9 1.2v-1h-1.6v8.8zM160.7 348h1.7v-9l5.4 9h2.2v-11.2h-1.7v9.2l-5.5-9.2h-2V348zm14.2.2c1.4 0 2.3-.7 2.8-1 .2.7 1 1 2 1h.4v-1.3c-.4 0-.9-.2-.9-.7v-4.6c0-1.7-1.1-2.5-3.2-2.5-1.3 0-2.3.3-3 .6l.3 1.3c.7-.3 1.5-.4 2.4-.4 1.3 0 1.9.3 1.9 1.5v1h-2c-1.4 0-3.4.4-3.4 2.6 0 1.7 1 2.5 2.7 2.5zm.4-1.3c-.8 0-1.4-.4-1.4-1.3s.6-1.4 1.8-1.4h1.9v2c-.6.3-1.5.7-2.3.7zm6.6 1.2h1.7v-6.6c.7-.5 1.5-.9 2.4-.9 1.2 0 1.5.8 1.5 2.1v5.4h1.6v-5.6-1c.6-.5 1.5-.9 2.3-.9 1.4 0 1.6.9 1.6 2.1v5.4h1.7v-5.6c0-1.5-.1-3.4-2.7-3.4-1.4 0-2.4.8-3.2 1.3-.3-.7-1.1-1.3-2.3-1.3-1.2 0-2 .6-3 1.2v-1H182v8.8zm15.2 0h1.7v-8.7h-1.7v8.7zm.9-10.2l1.2-1.2-1.2-1.3-1.3 1.3 1.3 1.2zm3.3 10.2h1.7v-6.6c.7-.5 1.5-1 2.6-1 1.3 0 1.5.8 1.5 2.2v5.4h1.7v-5.6c0-1.6-.2-3.4-2.7-3.4a5 5 0 00-3 1.2v-1h-1.8v8.8zm13 3.7c2.3 0 4-1 4-3.3v-9a13 13 0 00-3-.4c-2.6 0-4.6 1.4-4.6 4.8 0 3.6 2.2 4.3 4 4.3.9 0 1.3-.2 2-.6v.6c0 1.7-1 2.1-2.3 2.1a9 9 0 01-2.7-.5l-.3 1.5c.7.3 2 .5 2.9.5zm.6-5c-1.6 0-2.5-.7-2.5-3 0-2 .7-3.2 2.8-3.2l1.4.2v5.5a3 3 0 01-1.7.6zm11.8 1.5c1.6 0 3.6-.6 3.6-2.6 0-3-4.4-2.4-4.4-4.2 0-.5.5-1 1.6-1 .7 0 1.4.1 2 .3l.4-1.2c-.7-.3-1.7-.5-2.4-.5-1.8 0-3.2.9-3.2 2.6 0 3 4.4 2.4 4.4 4 0 .8-.7 1.2-2 1.2l-2.3-.3-.3 1.3c.7.2 1.8.4 2.6.4zm6.8 3.3h1.6l4.2-12.2h-1.7l-2 6-.5 1.4-.4-1.5-1.8-6h-1.8l2.9 8.8h.7l-1.2 3.5zm9.2-3.3c1.6 0 3.6-.6 3.6-2.6 0-3-4.4-2.4-4.4-4.2 0-.5.5-1 1.6-1 .7 0 1.4.1 2 .3l.4-1.2c-.7-.3-1.7-.5-2.4-.5-1.8 0-3.2.9-3.2 2.6 0 3 4.4 2.4 4.4 4 0 .8-.7 1.2-2 1.2l-2.3-.3-.3 1.3c.7.2 1.8.4 2.6.4zm8.6 0a7 7 0 002.1-.4l-.2-1.3-1.6.2c-1 0-1.4-.2-1.4-1.3v-4.8h2.7v-1.3h-2.7v-1.8h-1.7v1.8h-1.3v1.3h1.3v4.9c0 2 1.1 2.7 2.8 2.7zm7.4 0c1.2 0 2.2-.2 3-.5l-.3-1.3a8 8 0 01-2.4.4c-1.6 0-2.9-.5-2.9-2.8h5.8v-.6c0-2.8-1-4.4-3.5-4.4-2.2 0-4 1.3-4 4.8 0 3.4 1.7 4.4 4.3 4.4zm-2.5-5.3c0-1.8 1-2.6 2-2.6 1.4 0 2 1 2 2.6h-4zm7.6 5h1.7v-6.5c.7-.5 1.6-.9 2.4-.9 1.3 0 1.5.8 1.5 2.1v5.4h1.7v-5.6l-.1-1c.7-.5 1.5-.9 2.4-.9 1.3 0 1.5.9 1.5 2.1v5.4h1.7v-5.6c0-1.5-.1-3.4-2.7-3.4-1.3 0-2.4.8-3.1 1.3-.3-.7-1.2-1.3-2.4-1.3-1.1 0-2 .6-2.9 1.2v-1h-1.7v8.8zM99.1 293.3c1.4 0 2.4-.2 3.5-.6v-5.2h-1.8v4.1l-1.5.2c-2.4 0-4.4-1.3-4.4-4.4 0-3 1.9-4.3 4.1-4.3 1.4 0 2 .2 2.9.5l.4-1.3a7 7 0 00-3.3-.7c-3.8 0-5.9 2.2-5.9 6 0 3.6 2.3 5.7 6 5.7zm5.8-.2h1.6v-6.3c.4-.5 1.2-1.2 2.2-1.2l1 .1.3-1.4-1-.1a3 3 0 00-2.5 1.3v-1.1H105v8.7zm6.5 0h1.7v-8.7h-1.7v8.7zm.8-10.1l1.3-1.3-1.3-1.3-1.3 1.3 1.3 1.3zm6.5 10.3a3 3 0 002.3-1v.8h1.6v-12H121v3.2l-1.5-.1c-2.5 0-4.4 1.4-4.4 4.7 0 3.6 2.1 4.4 3.6 4.4zm.3-1.4c-1.3 0-2.3-.9-2.3-3 0-1.9.7-3.4 2.8-3.4l1.5.2v5.4c-.5.3-1.2.8-2 .8zm12 1.4c1.7 0 3.7-.6 3.7-2.6 0-3-4.4-2.4-4.4-4.1 0-.6.5-1 1.6-1 .7 0 1.4 0 2 .3l.4-1.3c-.7-.3-1.7-.4-2.4-.4-1.8 0-3.2.8-3.2 2.5 0 3 4.4 2.4 4.4 4 0 .8-.7 1.2-2 1.2l-2.3-.3-.3 1.3c.7.2 1.8.4 2.6.4zm6.9 3.3h1.6l4.2-12.2H142l-2 6-.5 1.4-.4-1.5-1.8-6h-1.8l2.8 8.8h.8l-1.2 3.5zm9.2-3.3c1.6 0 3.6-.6 3.6-2.6 0-3-4.4-2.4-4.4-4.1 0-.6.5-1 1.6-1 .7 0 1.4 0 2 .3l.4-1.3c-.7-.3-1.7-.4-2.4-.4-1.8 0-3.2.8-3.2 2.5 0 3 4.4 2.4 4.4 4 0 .8-.7 1.2-2 1.2l-2.3-.3-.3 1.3c.7.2 1.8.4 2.6.4zm8.6 0a7 7 0 002.1-.3l-.2-1.4c-.5.2-1.1.3-1.6.3-1 0-1.4-.3-1.4-1.4v-4.8h2.7v-1.3h-2.7v-1.8h-1.7v1.8h-1.3v1.3h1.3v4.9c0 2.1 1.1 2.7 2.8 2.7zm7.4 0c1.2 0 2.2-.2 3-.5l-.3-1.3a8 8 0 01-2.4.4c-1.6 0-2.9-.4-2.9-2.8h5.8v-.5c0-2.9-1-4.4-3.5-4.4-2.2 0-4 1.3-4 4.7 0 3.4 1.7 4.4 4.3 4.4zm-2.5-5.3c0-1.7 1-2.6 2-2.6 1.4 0 2 1 2 2.6h-4zm7.6 5.1h1.7v-6.5c.7-.6 1.6-1 2.4-1 1.3 0 1.5.9 1.5 2.2v5.3h1.7v-5.6l-.1-1c.7-.4 1.5-.9 2.4-.9 1.3 0 1.5.9 1.5 2.2v5.3h1.7v-5.6c0-1.4-.1-3.3-2.7-3.3-1.3 0-2.4.7-3.1 1.3-.3-.8-1.2-1.3-2.4-1.3-1.1 0-2 .5-2.9 1.2v-1h-1.7v8.7zM63 239.1h1.6v-11.3H63v11.3zm8.5.2c1 0 1.6-.1 2.2-.3l-.2-1.3a7 7 0 01-1.8.2c-2.3 0-3-1-3-3 0-2.3 1-3.3 2.7-3.3.8 0 1.5.2 1.9.4l.5-1.3a5 5 0 00-2.5-.5c-2.7 0-4.3 1.6-4.3 4.8 0 2.9 1.3 4.3 4.5 4.3zm7.6 0c2.4 0 4.2-1.5 4.2-4.6 0-2.8-1.3-4.5-4-4.5-2.5 0-4.2 1.7-4.2 4.7 0 2.8 1.5 4.4 4 4.4zm.1-1.3c-1.8 0-2.4-1.5-2.4-3.2 0-1.6.5-3.3 2.4-3.3 2 0 2.4 1.7 2.4 3.3 0 1.6-.5 3.2-2.4 3.2zm6.1 1.1H87v-6.6c.7-.4 1.5-.9 2.6-.9 1.3 0 1.5.8 1.5 2.2v5.3h1.7v-5.5c0-1.6-.2-3.4-2.7-3.4a5 5 0 00-3 1.2v-1h-1.8v8.7zm11.9.2c1.6 0 3.6-.6 3.6-2.6 0-3-4.4-2.4-4.4-4.1 0-.6.5-1 1.6-1 .7 0 1.4 0 2 .3l.4-1.3c-.7-.3-1.7-.4-2.4-.4-1.8 0-3.2.8-3.2 2.5 0 3 4.4 2.4 4.4 4.1 0 .7-.7 1.2-2 1.2-.7 0-1.5-.2-2.4-.4l-.2 1.3c.7.3 1.8.4 2.6.4zm11.4 0c1.6 0 3.6-.6 3.6-2.6 0-3-4.4-2.4-4.4-4.1 0-.6.5-1 1.6-1 .7 0 1.4 0 2 .3l.4-1.3c-.7-.3-1.7-.4-2.4-.4-1.8 0-3.2.8-3.2 2.5 0 3 4.4 2.4 4.4 4.1 0 .7-.7 1.2-2 1.2l-2.4-.4-.2 1.3c.7.3 1.8.4 2.6.4zm6.8 3.4h1.6l4.2-12.3h-1.7l-2 6-.5 1.5-.4-1.6-1.8-5.9H113l2.8 8.7h.7l-1.1 3.6zm9.2-3.4c1.6 0 3.6-.6 3.6-2.6 0-3-4.4-2.4-4.4-4.1 0-.6.5-1 1.6-1 .7 0 1.4 0 2 .3l.4-1.3c-.7-.3-1.7-.4-2.4-.4-1.8 0-3.2.8-3.2 2.5 0 3 4.4 2.4 4.4 4.1 0 .7-.7 1.2-2 1.2l-2.4-.4-.2 1.3c.7.3 1.8.4 2.6.4zm8.6 0a7 7 0 002.1-.3l-.2-1.4c-.5.2-1.1.3-1.6.3-1 0-1.4-.3-1.4-1.4v-4.8h2.7v-1.3h-2.7v-1.8h-1.7v1.8h-1.3v1.3h1.3v5c0 2 1.1 2.6 2.8 2.6zm7.4 0c1.1 0 2.2-.2 3-.5l-.3-1.2a8 8 0 01-2.4.3c-1.6 0-2.9-.4-2.9-2.7h5.7v-.6c0-2.9-1-4.4-3.4-4.4-2.2 0-4 1.3-4 4.7 0 3.4 1.7 4.4 4.3 4.4zM138 234c.2-1.7 1-2.6 2.2-2.6 1.3 0 1.8 1 1.8 2.6h-4zm7.7 5.1h1.7v-6.5c.7-.5 1.6-1 2.4-1 1.3 0 1.5.9 1.5 2.2v5.3h1.7v-5.6l-.1-1c.7-.4 1.5-.9 2.4-.9 1.3 0 1.5 1 1.5 2.2v5.3h1.7v-5.5c0-1.5-.1-3.4-2.7-3.4-1.3 0-2.4.7-3.2 1.3-.3-.8-1-1.3-2.3-1.3-1.1 0-2 .6-2.9 1.2v-1h-1.7v8.7zM88.6 109h1.7v-9.9h3.8v-1.4h-9.3V99h3.8v9.9zm8 3.5h1.7l4.3-12.2h-1.7l-2 6-.6 1.4-.4-1.5-1.8-6h-1.8l2.9 8.8h.7l-1.2 3.5zm7.4 0h1.6V109l1.5.2c2.4 0 4.5-1.2 4.5-4.8 0-2.9-1.4-4.3-3.5-4.3a4 4 0 00-2.5.9v-.7H104v12.2zm3.1-4.7l-1.5-.1V102c.5-.2 1.2-.6 2-.6 1.7 0 2.3 1.4 2.3 3 0 2-.8 3.3-2.8 3.3zm10 1.4c2.5 0 4.3-1.5 4.3-4.6 0-2.9-1.4-4.6-4-4.6s-4.3 1.7-4.3 4.7c0 2.8 1.5 4.5 4 4.5zm.2-1.4c-1.9 0-2.5-1.4-2.5-3.1 0-1.6.5-3.3 2.5-3.3s2.4 1.7 2.4 3.3c0 1.6-.5 3.1-2.4 3.1zm9.1 4.9c2.3 0 4-1 4-3.3v-9a13 13 0 00-3-.4c-2.6 0-4.5 1.4-4.5 4.9 0 3.6 2 4.2 3.9 4.2 1 0 1.4-.2 2-.6v.6c0 1.7-1 2.1-2.3 2.1a9 9 0 01-2.7-.5l-.3 1.5c.8.3 2 .5 3 .5zm.6-4.9c-1.5 0-2.5-.8-2.5-3 0-2 .7-3.3 2.8-3.3l1.4.2v5.5a3 3 0 01-1.7.6zm5.9 1.2h1.7v-6.3c.4-.5 1.2-1.2 2.1-1.2l1.1.1.3-1.4-1.1-.1a3 3 0 00-2.4 1.3v-1.1h-1.7v8.7zm8.5.1c1.4 0 2.3-.6 2.9-1 .1.7 1 1 1.9 1h.4v-1.3c-.4 0-.9-.1-.9-.7v-4.5c0-1.8-1.1-2.6-3.2-2.6-1.3 0-2.3.3-3 .6l.3 1.3c.7-.3 1.5-.4 2.4-.4 1.3 0 2 .3 2 1.5v1h-2c-1.5 0-3.5.4-3.5 2.6 0 1.7 1.1 2.5 2.7 2.5zm.5-1.3c-.9 0-1.5-.4-1.5-1.3s.7-1.4 1.9-1.4h1.8v2c-.6.3-1.5.7-2.2.7zm6.5 4.7h1.7V109l1.5.2c2.4 0 4.5-1.2 4.5-4.8 0-2.9-1.4-4.3-3.5-4.3a4 4 0 00-2.5.9v-.7h-1.7v12.2zm3.2-4.7l-1.5-.1V102c.4-.2 1.1-.6 2-.6 1.7 0 2.3 1.4 2.3 3 0 2-.8 3.3-2.8 3.3zm6.5 1.2h1.7v-6.6a5 5 0 012.5-.9c1.3 0 1.6.7 1.6 2.2v5.3h1.6v-5.6c0-1.6-.1-3.3-2.7-3.3-1.3 0-2.3.6-3 1.1V97H158V109zm11.2 3.5h1.6l4.3-12.2h-1.7l-2 6-.5 1.4-.5-1.5-1.8-6H167l2.9 8.8h.7l-1.2 3.5zm-63.2 20.7c1.6 0 3.6-.6 3.6-2.6 0-3-4.4-2.4-4.4-4.1 0-.6.5-1.1 1.6-1.1.6 0 1.4.1 2 .4l.3-1.3c-.7-.3-1.6-.5-2.3-.5-1.8 0-3.2.9-3.2 2.6 0 3 4.4 2.4 4.4 4 0 .8-.7 1.2-2 1.2l-2.4-.3-.2 1.3c.7.2 1.8.4 2.6.4zm6.7 3.3h1.6l4.3-12.2H117l-2 6-.5 1.4-.5-1.5-1.7-6h-1.8l2.8 8.8h.7l-1.2 3.5zm9.3-3.3c1.6 0 3.6-.6 3.6-2.6 0-3-4.4-2.4-4.4-4.1 0-.6.5-1.1 1.6-1.1.6 0 1.4.1 2 .4l.3-1.3c-.7-.3-1.6-.5-2.3-.5-1.8 0-3.2.9-3.2 2.6 0 3 4.4 2.4 4.4 4 0 .8-.7 1.2-2 1.2l-2.4-.3-.2 1.3c.7.2 1.8.4 2.6.4zm8.6 0a7 7 0 002-.3l-.2-1.4c-.4.1-1 .3-1.6.3-.9 0-1.3-.3-1.3-1.4v-4.8h2.7v-1.3h-2.8v-1.8H128v1.8h-1.3v1.3h1.3v4.9c0 2 1 2.7 2.8 2.7zm7.4 0c1.1 0 2.2-.2 3-.5l-.4-1.3a8 8 0 01-2.4.4c-1.5 0-2.8-.5-2.8-2.8h5.7v-.6c0-2.8-1-4.4-3.5-4.4-2.1 0-4 1.3-4 4.8 0 3.4 1.8 4.4 4.4 4.4zm-2.6-5.3c.1-1.7 1-2.6 2.1-2.6 1.3 0 1.9 1 1.9 2.6h-4zm7.7 5.1h1.7v-6.6c.7-.5 1.5-.9 2.4-.9 1.2 0 1.5.8 1.5 2.2v5.3h1.6v-5.6-1c.6-.5 1.5-.9 2.3-.9 1.4 0 1.6.9 1.6 2.2v5.3h1.7v-5.6c0-1.5-.1-3.3-2.7-3.3-1.4 0-2.4.7-3.2 1.3-.3-.8-1.1-1.3-2.3-1.3-1.2 0-2 .5-3 1.2v-1h-1.6v8.7zM46.9 185.4c2.2 0 4.2-1 4.2-3.3 0-3.6-5.6-3.3-5.6-5.5 0-1 .9-1.5 2-1.5 1 0 1.6.2 2.4.6l.5-1.3c-.7-.4-1.6-.7-3-.7-1.9 0-3.6 1-3.6 3 0 3.7 5.5 3 5.5 5.5 0 1.2-1.2 1.7-2.4 1.7s-2-.3-2.8-.7l-.6 1.3c.7.5 1.8.9 3.4.9zm6 3.3h1.7v-3.5l1.6.1c2.3 0 4.4-1.2 4.4-4.7 0-3-1.4-4.4-3.4-4.4a4 4 0 00-2.6 1v-.8H53v12.3zm3.2-4.7l-1.5-.2v-5.5c.5-.2 1.2-.7 2-.7 1.8 0 2.3 1.5 2.3 3 0 2-.8 3.4-2.8 3.4zm8.6 1.3c1.4 0 2.3-.7 2.8-1.1.2.8 1 1 2 1h.4V184c-.4 0-.9 0-.9-.6v-4.6c0-1.8-1.1-2.5-3.2-2.5-1.3 0-2.3.3-3.1.6l.3 1.3c.8-.3 1.6-.5 2.5-.5 1.3 0 1.9.4 1.9 1.6v.9h-2c-1.4 0-3.4.5-3.4 2.7 0 1.6 1 2.5 2.7 2.5zm.4-1.3c-.8 0-1.5-.4-1.5-1.3s.7-1.4 2-1.4l1.8-.1v2c-.6.4-1.5.8-2.3.8zm10.6 1.4c1 0 1.6-.2 2.2-.4l-.2-1.3a7 7 0 01-1.8.2c-2.3 0-3-1-3-3 0-2.3 1-3.3 2.7-3.3.8 0 1.5.3 1.9.4l.5-1.2a5 5 0 00-2.5-.6c-2.7 0-4.3 1.6-4.3 4.8 0 3 1.3 4.4 4.5 4.4zm4.1-.2h1.7v-8.8h-1.7v8.8zm.8-10.2l1.3-1.3-1.3-1.3-1.2 1.3 1.2 1.3zm5.5 10.3c1.3 0 2.2-.7 2.8-1.1.1.8 1 1 2 1h.3V184c-.4 0-.8 0-.8-.6v-4.6c0-1.8-1.2-2.5-3.3-2.5-1.3 0-2.2.3-3 .6l.3 1.3c.8-.3 1.5-.5 2.5-.5 1.2 0 1.8.4 1.8 1.6v.9h-1.9c-1.5 0-3.4.5-3.4 2.7 0 1.6 1 2.5 2.7 2.5zm.4-1.3c-.9 0-1.5-.4-1.5-1.3s.7-1.4 1.9-1.4l1.8-.1v2c-.6.4-1.4.8-2.2.8zm6.6 1.2h1.6V173h-1.6v12zm10 .2c1.7 0 3.7-.7 3.7-2.6 0-3-4.4-2.4-4.4-4.2 0-.6.5-1 1.6-1 .7 0 1.5.1 2 .3l.4-1.3c-.7-.2-1.7-.4-2.4-.4-1.8 0-3.2.8-3.2 2.5 0 3 4.4 2.5 4.4 4.1 0 .7-.7 1.2-2 1.2-.6 0-1.5-.2-2.3-.4l-.3 1.4c.7.2 1.8.4 2.6.4zm6.9 3.3h1.6l4.2-12.3h-1.6l-2 6-.6 1.5-.4-1.5-1.8-6h-1.8l2.9 8.8h.7l-1.2 3.5zm9.2-3.3c1.6 0 3.6-.7 3.6-2.6 0-3-4.4-2.4-4.4-4.2 0-.6.5-1 1.6-1 .7 0 1.5.1 2 .3l.4-1.3c-.7-.2-1.7-.4-2.4-.4-1.8 0-3.2.8-3.2 2.5 0 3 4.4 2.5 4.4 4.1 0 .7-.7 1.2-2 1.2-.6 0-1.5-.2-2.3-.4l-.3 1.4c.7.2 1.8.4 2.6.4zm8.6 0a7 7 0 002.1-.4l-.2-1.3-1.6.2c-1 0-1.4-.3-1.4-1.3v-4.8h2.7v-1.4h-2.7v-1.8H125v1.8h-1.2v1.4h1.2v4.8c0 2.1 1.1 2.8 2.8 2.8zm7.4 0c1.2 0 2.2-.2 3-.5l-.3-1.3a8 8 0 01-2.4.4c-1.6 0-2.9-.5-2.9-2.8h5.8v-.6c0-2.8-1-4.4-3.5-4.4-2.2 0-4 1.3-4 4.8 0 3.3 1.7 4.4 4.3 4.4zm-2.5-5.4c0-1.7 1-2.5 2-2.5 1.4 0 2 1 2 2.5h-4zm7.7 5.2h1.6v-6.6c.7-.5 1.6-1 2.4-1 1.3 0 1.5.9 1.5 2.2v5.4h1.7v-5.6l-.1-1c.7-.5 1.5-1 2.4-1 1.3 0 1.5 1 1.5 2.2v5.4h1.7v-5.6c0-1.5 0-3.4-2.7-3.4-1.3 0-2.4.7-3.1 1.3-.3-.7-1.2-1.3-2.4-1.3-1.1 0-2 .6-2.9 1.2v-1h-1.6v8.8z" fill="#14555A"/><circle cx="289.1" cy="135.9" r="67.1" stroke="#28B482" stroke-width="1.5"/><path d="M241.6 140.8c1.8 0 2.8-.3 3.8-.6l-.5-1.6c-.8.3-1.7.5-3 .5-2.8 0-5-1.5-5-5 0-3.4 2.1-4.8 4.7-4.8 1.4 0 2.2.3 3.2.6l.5-1.5c-.7-.4-1.9-.7-3.7-.7-4.2 0-6.7 2.6-6.7 6.6 0 3.9 2.4 6.5 6.7 6.5zm9.7 0c2.7 0 4.7-1.7 4.7-5.2 0-3.2-1.5-5.1-4.5-5.1-2.9 0-4.8 1.9-4.8 5.3 0 3.1 1.7 5 4.6 5zm.1-1.5c-2.1 0-2.8-1.7-2.8-3.6 0-1.8.6-3.7 2.8-3.7 2.2 0 2.7 2 2.7 3.7 0 1.8-.6 3.6-2.7 3.6zm6.9 1.3h1.9v-7.4c.7-.6 1.7-1 2.6-1 1.5 0 1.7.9 1.7 2.4v6h1.9v-6.3l-.1-1.1a5 5 0 012.7-1c1.5 0 1.7 1 1.7 2.4v6h2v-6.3c0-1.7-.2-3.8-3.1-3.8-1.5 0-2.7.8-3.6 1.5-.3-.9-1.2-1.5-2.6-1.5-1.3 0-2.3.6-3.2 1.4v-1.2h-2v9.9zm17 4h2v-4l1.7.2c2.6 0 5-1.4 5-5.4 0-3.3-1.6-4.9-4-4.9-1.1 0-1.9.4-2.7 1v-.8h-2v13.8zm3.6-5.3l-1.6-.2v-6.3c.5-.2 1.2-.7 2.3-.7 1.8 0 2.5 1.6 2.5 3.4 0 2.2-1 3.8-3.2 3.8zm11.3 1.5c2.8 0 4.8-1.7 4.8-5.2 0-3.2-1.6-5.1-4.6-5.1-2.8 0-4.7 1.9-4.7 5.3 0 3.1 1.7 5 4.5 5zm.2-1.5c-2.1 0-2.8-1.7-2.8-3.6 0-1.8.6-3.7 2.8-3.7 2.1 0 2.7 2 2.7 3.7 0 1.8-.6 3.6-2.7 3.6zm6.8 1.3h2v-7.4a5 5 0 012.8-1c1.5 0 1.8.8 1.8 2.4v6h1.8v-6.3c0-1.8-.2-3.8-3-3.8-1.5 0-2.5.6-3.5 1.3v-1h-1.9v9.8zm15.4.2c1.3 0 2.5-.2 3.3-.6l-.3-1.4a9 9 0 01-2.7.4c-1.7 0-3.2-.5-3.2-3.1h6.5v-.7c0-3.2-1.2-5-4-5-2.4 0-4.4 1.5-4.4 5.4 0 3.8 1.9 5 4.8 5zm-2.9-6c.2-2 1.1-2.9 2.4-2.9 1.5 0 2.1 1.1 2.1 2.9h-4.5zm8.7 5.8h1.9v-7.4a5 5 0 012.9-1c1.4 0 1.7.8 1.7 2.4v6h1.9v-6.3c0-1.8-.2-3.8-3-3.8-1.6 0-2.5.6-3.5 1.3v-1h-1.9v9.8zm14.7.2a8 8 0 002.3-.4l-.2-1.5-1.8.3c-1 0-1.6-.4-1.6-1.5v-5.5h3v-1.5h-3v-2h-1.9v2h-1.4v1.5h1.4v5.5c0 2.4 1.3 3 3.2 3zm6.2 0c1.9 0 4.1-.7 4.1-3 0-3.3-5-2.6-5-4.6 0-.7.6-1.2 1.9-1.2.7 0 1.6.2 2.2.4l.4-1.4c-.8-.3-1.8-.5-2.7-.5-2 0-3.6 1-3.6 2.8 0 3.4 5 2.8 5 4.7 0 .7-.8 1.2-2.2 1.2-.8 0-1.7-.1-2.7-.4l-.3 1.6c.8.2 2 .4 3 .4z" fill="#28B482"/><path d="M356.3 256c0 29.4-24.1 53.3-53.8 53.3a53.5 53.5 0 01-53.8-53.3c0-29.4 24.1-53.3 53.8-53.3a53.5 53.5 0 0153.8 53.3z" stroke="#28B482" stroke-width="1.5"/><path d="M267.7 266.4h2v-11.1h2c1.9 0 2.7.9 2.7 2.6 0 1.8-1.2 2.7-3.2 2.7h-.9v1.5h.8c3.6 0 5.3-2 5.3-4.3 0-2.6-1.7-4-4.3-4h-4.4v12.6zm13 .2c1.6 0 2.6-.8 3.2-1.2.2.8 1.2 1.1 2.2 1.1h.4v-1.4c-.4 0-1-.2-1-.8v-5.1c0-2-1.2-2.8-3.6-2.8-1.4 0-2.5.2-3.4.6l.4 1.4c.8-.2 1.7-.4 2.7-.4 1.4 0 2.1.3 2.1 1.7v1h-2.1c-1.7.1-4 .6-4 3 0 1.9 1.3 2.9 3.1 2.9zm.5-1.5c-1 0-1.7-.5-1.7-1.4 0-1 .8-1.6 2.1-1.7h2.1v2.2a5 5 0 01-2.5.9zm11 1.5a8 8 0 002.3-.3l-.3-1.6c-.5.2-1.2.3-1.8.3-1 0-1.5-.3-1.5-1.5v-5.4h3v-1.5h-3v-2h-2v2h-1.3v1.5h1.4v5.5c0 2.4 1.2 3 3.1 3zm7.6 0a8 8 0 002.3-.3l-.3-1.6c-.5.2-1.2.3-1.8.3-1 0-1.5-.3-1.5-1.5v-5.4h3v-1.5h-3v-2h-1.9v2h-1.4v1.5h1.4v5.5c0 2.4 1.2 3 3.2 3zm8.3 0c1.2 0 2.4-.2 3.3-.5l-.3-1.5a9 9 0 01-2.7.5c-1.8 0-3.2-.5-3.3-3.1h6.5v-.7c0-3.2-1.2-5-4-5-2.4 0-4.4 1.5-4.4 5.4 0 3.8 2 5 4.9 5zm-3-6c.2-1.9 1.2-2.8 2.5-2.8 1.4 0 2 1.1 2 2.9h-4.4zm8.7 5.8h2v-7a3 3 0 012.4-1.4l1.2.1.3-1.6a4 4 0 00-1.3-.1c-1.2 0-2.2.8-2.7 1.5v-1.3h-1.9v9.8zm7.4 0h1.8V259a5 5 0 013-1c1.4 0 1.7.8 1.7 2.4v6h1.8v-6.3c0-1.8-.2-3.7-3-3.7-1.5 0-2.5.6-3.5 1.3v-1.1h-1.8v9.8zm13.3.2c1.8 0 4-.6 4-2.9 0-3.3-4.9-2.7-4.9-4.6 0-.7.6-1.2 1.8-1.2.8 0 1.6.1 2.3.4l.4-1.4c-.8-.4-1.9-.5-2.7-.5-2 0-3.6 1-3.6 2.8 0 3.3 5 2.7 5 4.6 0 .8-.8 1.3-2.2 1.3-.8 0-1.8-.2-2.8-.4l-.2 1.5c.8.3 2 .4 2.9.4zM281.9 289.4c2.5 0 4.7-1.2 4.7-3.7 0-4-6.2-3.7-6.2-6.2 0-1 1-1.6 2.2-1.6a6 6 0 012.7.6l.6-1.5c-.8-.4-1.8-.7-3.4-.7-2 0-4 1-4 3.2 0 4.3 6.2 3.4 6.2 6.3 0 1.4-1.4 2-2.8 2a7 7 0 01-3.2-.9l-.6 1.6c.9.4 2 .9 3.8.9zm10.4 0a8 8 0 002.4-.4l-.3-1.5-1.8.3c-1 0-1.5-.4-1.5-1.6v-5.4h3v-1.5h-3v-2h-2v2h-1.4v1.5h1.5v5.5c0 2.4 1.2 3 3.1 3zm5.6 3.7h1.8l4.8-13.8h-2l-2.2 6.7-.6 1.7-.5-1.7-2-6.7h-2l3.2 9.9h.8l-1.3 4zm8.1-4h2v-13.5h-2v13.6zm9 .3c1.3 0 2.5-.2 3.3-.6l-.3-1.4a9 9 0 01-2.7.4c-1.7 0-3.2-.5-3.2-3.1h6.5v-.7c0-3.2-1.2-5-4-5-2.4 0-4.4 1.5-4.4 5.4 0 3.8 1.9 5 4.8 5zm-2.9-6c.2-2 1.1-2.9 2.4-2.9 1.5 0 2.1 1.1 2.1 2.9h-4.5zm10.9 6c1.8 0 4-.7 4-3 0-3.3-4.8-2.6-4.8-4.6 0-.7.5-1.2 1.7-1.2.8 0 1.6.2 2.3.4l.4-1.4c-.8-.3-1.9-.5-2.7-.5-2 0-3.6 1-3.6 2.8 0 3.4 5 2.8 5 4.6 0 .8-.8 1.3-2.2 1.3-.8 0-1.8-.1-2.7-.4l-.3 1.5c.8.3 2 .5 2.9.5zM264.5 245.4h8v-1.6h-6v-4h5.1v-1.5h-5.1v-4h5.5v-1.6h-7.5v12.7zm10.3 0h1.9v-13.6h-2v13.6zm9 .2c1.3 0 2.4-.2 3.3-.5l-.3-1.5a9 9 0 01-2.7.5c-1.8 0-3.2-.6-3.3-3.2h6.5v-.6c0-3.2-1.1-5-3.9-5-2.5 0-4.4 1.5-4.4 5.4 0 3.8 1.8 5 4.8 5zm-2.9-6c.1-1.9 1-2.8 2.4-2.8s2 1 2 2.8H281zm8.6 5.8h2V238c.7-.5 1.7-1 2.6-1 1.4 0 1.7 1 1.7 2.4v6h1.9v-6.3l-.1-1.1a5 5 0 012.7-1c1.5 0 1.7 1 1.7 2.4v6h2v-6.3c0-1.6-.2-3.8-3.1-3.8-1.5 0-2.7.8-3.6 1.5-.3-.8-1.3-1.5-2.6-1.5s-2.3.7-3.3 1.4v-1.1h-1.9v9.8zm21.4.2c1.3 0 2.5-.2 3.3-.5l-.3-1.5a9 9 0 01-2.7.5c-1.7 0-3.2-.6-3.2-3.2h6.5v-.6c0-3.2-1.2-5-4-5-2.4 0-4.4 1.5-4.4 5.4 0 3.8 1.9 5 4.8 5zm-2.8-6c0-1.9 1-2.8 2.3-2.8 1.5 0 2.1 1 2.1 2.8h-4.4zm8.6 5.8h1.9V238a5 5 0 012.9-1c1.4 0 1.7.8 1.7 2.4v6h1.9v-6.3c0-1.8-.2-3.8-3-3.8-1.5 0-2.5.6-3.5 1.4v-1.1h-1.9v9.8zm14.7.2a8 8 0 002.3-.4l-.2-1.5c-.5.2-1.2.3-1.8.3-1 0-1.6-.3-1.6-1.5V237h3v-1.5h-3v-2h-1.9v2h-1.4v1.5h1.4v5.5c0 2.3 1.3 3 3.2 3zm6.2 0c1.9 0 4.1-.7 4.1-2.9 0-3.3-5-2.7-5-4.7 0-.6.6-1.1 1.9-1.1.7 0 1.6.1 2.2.4l.4-1.5c-.8-.3-1.8-.5-2.7-.5-2 0-3.6 1-3.6 2.9 0 3.3 5 2.7 5 4.6 0 .8-.7 1.3-2.2 1.3-.8 0-1.7-.2-2.7-.4l-.3 1.5c.8.2 2 .4 3 .4z" fill="#28B482"/></svg>
