<svg xmlns="http://www.w3.org/2000/svg" width="1280" height="280" fill="none"><path fill="#fff" d="M0 0h1280v280H0z"/><path stroke="#CCC" stroke-linecap="round" stroke-linejoin="round" stroke-width="3.5" d="M1248.56 113.03H205.614l7 .006 1035.946.922"/><path fill="#4BBED2" d="M422.442 43.762c-2.112 0-3.72-.864-4.56-2.448l1.464-1.056c.576 1.2 1.632 1.824 3.096 1.824 1.488 0 2.376-.672 2.376-1.824 0-.912-.576-1.44-1.848-1.752l-1.512-.384c-2.064-.504-3.144-1.656-3.144-3.288 0-2.064 1.632-3.456 4.104-3.456 2.04 0 3.48.84 4.056 2.376l-1.56.912c-.384-1.056-1.224-1.608-2.496-1.608-1.296 0-2.136.672-2.136 1.704 0 .864.528 1.368 1.752 1.68l1.608.384c2.064.528 3.144 1.68 3.144 3.384 0 2.136-1.752 3.552-4.344 3.552Zm19.663-12.384c2.64 0 4.152 1.632 4.152 4.368v7.824h-2.112v-7.68c0-1.848-.888-2.808-2.568-2.808-1.728 0-2.808 1.224-2.808 3.144v7.344h-2.112v-7.68c0-1.848-.888-2.808-2.568-2.808-1.728 0-2.808 1.368-2.808 3.384v7.104h-2.112v-12h1.848v1.944c.648-1.296 1.92-2.136 3.6-2.136 1.896 0 3.12.84 3.648 2.328.624-1.416 2.04-2.328 3.84-2.328Zm16.204 10.056c0 .576.264.792.864.792l-.024 1.344c-.216.12-.576.192-1.032.192-1.08 0-1.776-.744-1.776-1.92-.72 1.152-2.208 1.92-3.864 1.92-2.4 0-3.984-1.344-3.984-3.408s1.416-3.312 4.224-3.744l3.504-.504v-.456c0-1.608-1.08-2.592-2.784-2.592-1.392 0-2.352.6-2.808 1.728l-1.608-.84c.672-1.68 2.232-2.568 4.464-2.568 3.096 0 4.824 1.608 4.824 4.44v5.616Zm-5.568.72c2.136 0 3.48-1.44 3.48-3.672v-.864l-3.024.432c-1.848.264-2.688.96-2.688 2.256 0 1.104.912 1.848 2.232 1.848Zm10.983 1.608c-1.296 0-2.184-.912-2.184-2.4V26.77h2.088v14.472c0 .576.336.792.72.792.168 0 .312-.024.408-.048v1.632c-.168.072-.528.144-1.032.144Zm5.695 0c-1.296 0-2.184-.912-2.184-2.4V26.77h2.088v14.472c0 .576.336.792.72.792.168 0 .312-.024.408-.048v1.632c-.168.072-.528.144-1.032.144Z"/><path fill="#FF5400" d="M638.652 31.378c2.64 0 4.152 1.632 4.152 4.368v7.824h-2.112v-7.68c0-1.848-.888-2.808-2.568-2.808-1.728 0-2.808 1.224-2.808 3.144v7.344h-2.112v-7.68c0-1.848-.888-2.808-2.568-2.808-1.728 0-2.808 1.368-2.808 3.384v7.104h-2.112v-12h1.848v1.944c.648-1.296 1.92-2.136 3.6-2.136 1.896 0 3.12.84 3.648 2.328.624-1.416 2.04-2.328 3.84-2.328Zm17.716 6.336c0 .096 0 .36-.024.432h-9.264c.168 2.664 1.944 3.936 3.984 3.936 1.728 0 2.784-.792 3.432-1.896l1.488 1.008c-.936 1.656-2.688 2.568-4.944 2.568-3.6 0-6-2.544-6-6.192 0-3.672 2.304-6.192 5.736-6.192s5.592 2.496 5.592 6.336Zm-5.592-4.632c-1.968 0-3.384 1.248-3.648 3.552h7.224c-.264-2.232-1.536-3.552-3.576-3.552Zm17.299-6.312h2.088v16.8h-1.848v-2.472c-.888 1.704-2.472 2.664-4.44 2.664-3.216 0-5.616-2.544-5.616-6.192s2.4-6.192 5.616-6.192c1.8 0 3.288.792 4.2 2.232v-6.84Zm-3.96 15.264c2.304 0 3.96-1.896 3.96-4.464 0-2.568-1.656-4.464-3.96-4.464-2.232 0-3.768 1.848-3.768 4.464 0 2.616 1.488 4.464 3.768 4.464Zm10.386-12.24a1.434 1.434 0 0 1-1.416-1.416c0-.768.648-1.392 1.416-1.392.768 0 1.392.624 1.392 1.392 0 .768-.624 1.416-1.392 1.416Zm-1.056 13.776v-12h2.088v12h-2.088Zm13.229-12h2.088v12h-1.824v-2.016c-.72 1.392-2.16 2.208-3.984 2.208-2.688 0-4.272-1.704-4.272-4.56V31.57h2.088v7.536c0 1.896.984 2.952 2.784 2.952 1.896 0 3.12-1.392 3.12-3.552V31.57Zm17.908-.192c2.64 0 4.152 1.632 4.152 4.368v7.824h-2.112v-7.68c0-1.848-.888-2.808-2.568-2.808-1.728 0-2.808 1.224-2.808 3.144v7.344h-2.112v-7.68c0-1.848-.888-2.808-2.568-2.808-1.728 0-2.808 1.368-2.808 3.384v7.104h-2.112v-12h1.848v1.944c.648-1.296 1.92-2.136 3.6-2.136 1.896 0 3.12.84 3.648 2.328.624-1.416 2.04-2.328 3.84-2.328Z"/><path fill="#14555A" d="M866.679 43.762c-1.296 0-2.184-.912-2.184-2.4V26.77h2.088v14.472c0 .576.336.792.72.792.168 0 .312-.024.408-.048v1.632c-.168.072-.528.144-1.032.144Zm12.655-2.328c0 .576.264.792.864.792l-.024 1.344c-.216.12-.576.192-1.032.192-1.08 0-1.776-.744-1.776-1.92-.72 1.152-2.208 1.92-3.864 1.92-2.4 0-3.984-1.344-3.984-3.408s1.416-3.312 4.224-3.744l3.504-.504v-.456c0-1.608-1.08-2.592-2.784-2.592-1.392 0-2.352.6-2.808 1.728l-1.608-.84c.672-1.68 2.232-2.568 4.464-2.568 3.096 0 4.824 1.608 4.824 4.44v5.616Zm-5.568.72c2.136 0 3.48-1.44 3.48-3.672v-.864l-3.024.432c-1.848.264-2.688.96-2.688 2.256 0 1.104.912 1.848 2.232 1.848Zm13.911-10.776c.48 0 .816.048 1.008.12v1.8a6.537 6.537 0 0 0-1.08-.072c-1.776 0-3.12 1.104-3.12 3.384v6.96h-2.088v-12h1.848v2.04c.6-1.416 1.896-2.232 3.432-2.232Zm12.001.192h1.824v11.064c0 3.504-2.352 5.688-6.096 5.688-2.064 0-3.624-.6-4.848-1.56l.936-1.56c.984.84 2.304 1.392 3.912 1.392 2.424 0 4.008-1.488 4.008-3.864v-1.608c-.888 1.344-2.304 2.088-4.056 2.088-3.192 0-5.496-2.472-5.496-5.928 0-3.432 2.304-5.904 5.496-5.904 1.944 0 3.48.912 4.32 2.544V31.57Zm-4.08 9.912c2.208 0 3.816-1.776 3.816-4.2 0-2.424-1.608-4.176-3.816-4.176-2.16 0-3.624 1.704-3.624 4.176 0 2.472 1.488 4.2 3.624 4.2Zm19.561-3.768c0 .096 0 .36-.024.432h-9.264c.168 2.664 1.944 3.936 3.984 3.936 1.728 0 2.784-.792 3.432-1.896l1.488 1.008c-.936 1.656-2.688 2.568-4.944 2.568-3.6 0-6-2.544-6-6.192 0-3.672 2.304-6.192 5.736-6.192s5.592 2.496 5.592 6.336Zm-5.592-4.632c-1.968 0-3.384 1.248-3.648 3.552h7.224c-.264-2.232-1.536-3.552-3.576-3.552Z"/><path fill="#333" d="M43.664 35.096c1.968.504 3.312 2.136 3.312 4.248 0 2.736-2.112 4.656-5.088 4.656H35.24V27.2h5.784c3 0 4.896 1.656 4.896 4.296 0 1.752-.816 2.976-2.256 3.6Zm-3.192-6.144H37.4v5.424h3.072c2.088 0 3.264-.984 3.264-2.712 0-1.728-1.2-2.712-3.264-2.712Zm.696 13.224c2.28 0 3.6-1.08 3.6-3 0-2.016-1.2-3.048-3.648-3.048H37.4v6.048h3.768Zm13.896-10.368c.48 0 .816.048 1.008.12v1.8a6.537 6.537 0 0 0-1.08-.072c-1.776 0-3.12 1.104-3.12 3.384V44h-2.088V32h1.848v2.04c.6-1.416 1.896-2.232 3.432-2.232Zm13.512 6.336c0 .096 0 .36-.023.432h-9.264c.167 2.664 1.944 3.936 3.983 3.936 1.729 0 2.785-.792 3.432-1.896l1.489 1.008c-.936 1.656-2.689 2.568-4.944 2.568-3.6 0-6-2.544-6-6.192 0-3.672 2.303-6.192 5.735-6.192 3.432 0 5.592 2.496 5.592 6.336Zm-5.591-4.632c-1.968 0-3.385 1.248-3.648 3.552h7.224c-.265-2.232-1.537-3.552-3.577-3.552Zm17.298 8.352c0 .576.264.792.864.792L81.123 44c-.216.12-.576.192-1.032.192-1.08 0-1.776-.744-1.776-1.92-.72 1.152-2.208 1.92-3.864 1.92-2.4 0-3.984-1.344-3.984-3.408s1.416-3.312 4.224-3.744l3.504-.504v-.456c0-1.608-1.08-2.592-2.784-2.592-1.392 0-2.352.6-2.808 1.728l-1.608-.84c.672-1.68 2.232-2.568 4.464-2.568 3.096 0 4.824 1.608 4.824 4.44v5.616Zm-5.568.72c2.136 0 3.48-1.44 3.48-3.672v-.864l-3.024.432c-1.848.264-2.688.96-2.688 2.256 0 1.104.912 1.848 2.232 1.848ZM90.882 44l-3.888-5.28-1.56 1.728V44h-2.088V27.2h2.088v10.704L90.474 32h2.616l-4.824 5.304L93.45 44h-2.568Zm10.424-12.192c3.216 0 5.64 2.544 5.64 6.192s-2.424 6.192-5.64 6.192c-1.8 0-3.288-.792-4.2-2.232v6.6h-2.088V32h1.848v2.472c.888-1.704 2.472-2.664 4.44-2.664Zm-.24 10.656c2.256 0 3.768-1.848 3.768-4.464 0-2.616-1.488-4.464-3.768-4.464-2.304 0-3.96 1.896-3.96 4.464 0 2.568 1.656 4.464 3.96 4.464Zm13.626 1.728c-3.384 0-5.904-2.472-5.904-6.192s2.52-6.192 5.904-6.192 5.904 2.472 5.904 6.192-2.52 6.192-5.904 6.192Zm0-1.728c2.208 0 3.816-1.776 3.816-4.464 0-2.688-1.608-4.464-3.816-4.464-2.208 0-3.816 1.776-3.816 4.464 0 2.688 1.608 4.464 3.816 4.464Zm9.751-12.24a1.434 1.434 0 0 1-1.416-1.416c0-.768.648-1.392 1.416-1.392.768 0 1.392.624 1.392 1.392 0 .768-.624 1.416-1.392 1.416ZM123.387 44V32h2.088v12h-2.088Zm11.189-12.192c2.688 0 4.272 1.704 4.272 4.56V44h-2.088v-7.536c0-1.896-.984-2.952-2.76-2.952-1.92 0-3.144 1.392-3.144 3.552V44h-2.088V32h1.848v1.992c.72-1.368 2.16-2.184 3.96-2.184Zm12.028 10.656c.552 0 1.056-.072 1.392-.192v1.68c-.384.144-1.056.24-1.752.24-2.28 0-3.576-1.224-3.576-3.408v-7.056h-2.04V32h2.04v-3.744h2.088V32h3.072v1.728h-3.072v7.008c0 1.152.624 1.728 1.848 1.728Zm7.64 1.728c-2.112 0-3.72-.864-4.56-2.448l1.464-1.056c.576 1.2 1.632 1.824 3.096 1.824 1.488 0 2.376-.672 2.376-1.824 0-.912-.576-1.44-1.848-1.752l-1.512-.384c-2.064-.504-3.144-1.656-3.144-3.288 0-2.064 1.632-3.456 4.104-3.456 2.04 0 3.48.84 4.056 2.376l-1.56.912c-.384-1.056-1.224-1.608-2.496-1.608-1.296 0-2.136.672-2.136 1.704 0 .864.528 1.368 1.752 1.68l1.608.384c2.064.528 3.144 1.68 3.144 3.384 0 2.136-1.752 3.552-4.344 3.552Zm8.191-7.584a1.434 1.434 0 0 1-1.416-1.416c0-.768.648-1.392 1.416-1.392.768 0 1.392.624 1.392 1.392 0 .768-.624 1.416-1.392 1.416Zm0 7.536a1.434 1.434 0 0 1-1.416-1.416c0-.768.648-1.392 1.416-1.392.768 0 1.392.624 1.392 1.392 0 .768-.624 1.416-1.392 1.416ZM95.15 179l-3.744-7.224h-2.928V179h-2.16v-16.8h5.664c3.552 0 5.544 1.728 5.544 4.8 0 2.544-1.368 4.176-3.888 4.632L97.622 179H95.15Zm-6.672-15.048v6.072h3.12c2.544 0 3.768-.984 3.768-3.024 0-2.064-1.224-3.048-3.768-3.048h-3.12Zm19.868 12.912c0 .576.264.792.864.792l-.024 1.344c-.216.12-.576.192-1.032.192-1.08 0-1.776-.744-1.776-1.92-.72 1.152-2.208 1.92-3.864 1.92-2.4 0-3.984-1.344-3.984-3.408s1.416-3.312 4.224-3.744l3.504-.504v-.456c0-1.608-1.08-2.592-2.784-2.592-1.392 0-2.352.6-2.808 1.728l-1.608-.84c.672-1.68 2.232-2.568 4.464-2.568 3.096 0 4.824 1.608 4.824 4.44v5.616Zm-5.568.72c2.136 0 3.48-1.44 3.48-3.672v-.864l-3.024.432c-1.848.264-2.688.96-2.688 2.256 0 1.104.912 1.848 2.232 1.848Zm14.439-10.776c2.688 0 4.272 1.704 4.272 4.56V179h-2.088v-7.536c0-1.896-.984-2.952-2.76-2.952-1.92 0-3.144 1.392-3.144 3.552V179h-2.088v-12h1.848v1.992c.72-1.368 2.16-2.184 3.96-2.184Zm16.324.192h1.824v11.064c0 3.504-2.352 5.688-6.096 5.688-2.064 0-3.624-.6-4.848-1.56l.936-1.56c.984.84 2.304 1.392 3.912 1.392 2.424 0 4.008-1.488 4.008-3.864v-1.608c-.888 1.344-2.304 2.088-4.056 2.088-3.192 0-5.496-2.472-5.496-5.928 0-3.432 2.304-5.904 5.496-5.904 1.944 0 3.48.912 4.32 2.544V167Zm-4.08 9.912c2.208 0 3.816-1.776 3.816-4.2 0-2.424-1.608-4.176-3.816-4.176-2.16 0-3.624 1.704-3.624 4.176 0 2.472 1.488 4.2 3.624 4.2Zm19.561-3.768c0 .096 0 .36-.024.432h-9.264c.168 2.664 1.944 3.936 3.984 3.936 1.728 0 2.784-.792 3.432-1.896l1.488 1.008c-.936 1.656-2.688 2.568-4.944 2.568-3.6 0-6-2.544-6-6.192 0-3.672 2.304-6.192 5.736-6.192s5.592 2.496 5.592 6.336Zm-5.592-4.632c-1.968 0-3.384 1.248-3.648 3.552h7.224c-.264-2.232-1.536-3.552-3.576-3.552Zm11.947 10.68c-2.112 0-3.72-.864-4.56-2.448l1.464-1.056c.576 1.2 1.632 1.824 3.096 1.824 1.488 0 2.376-.672 2.376-1.824 0-.912-.576-1.44-1.848-1.752l-1.512-.384c-2.064-.504-3.144-1.656-3.144-3.288 0-2.064 1.632-3.456 4.104-3.456 2.04 0 3.48.84 4.056 2.376l-1.56.912c-.384-1.056-1.224-1.608-2.496-1.608-1.296 0-2.136.672-2.136 1.704 0 .864.528 1.368 1.752 1.68l1.608.384c2.064.528 3.144 1.68 3.144 3.384 0 2.136-1.752 3.552-4.344 3.552Zm8.191-7.584a1.434 1.434 0 0 1-1.416-1.416c0-.768.648-1.392 1.416-1.392.768 0 1.392.624 1.392 1.392 0 .768-.624 1.416-1.392 1.416Zm0 7.536a1.434 1.434 0 0 1-1.416-1.416c0-.768.648-1.392 1.416-1.392.768 0 1.392.624 1.392 1.392 0 .768-.624 1.416-1.392 1.416Z"/><path fill="#FF5400" d="M512.904 204.224a1.434 1.434 0 0 1-1.416-1.416c0-.768.648-1.392 1.416-1.392.768 0 1.392.624 1.392 1.392 0 .768-.624 1.416-1.392 1.416ZM511.848 218v-12h2.088v12h-2.088Zm9.341.192c-2.112 0-3.72-.864-4.56-2.448l1.464-1.056c.576 1.2 1.632 1.824 3.096 1.824 1.488 0 2.376-.672 2.376-1.824 0-.912-.576-1.44-1.848-1.752l-1.512-.384c-2.064-.504-3.144-1.656-3.144-3.288 0-2.064 1.632-3.456 4.104-3.456 2.04 0 3.48.84 4.056 2.376l-1.56.912c-.384-1.056-1.224-1.608-2.496-1.608-1.296 0-2.136.672-2.136 1.704 0 .864.528 1.368 1.752 1.68l1.608.384c2.064.528 3.144 1.68 3.144 3.384 0 2.136-1.752 3.552-4.344 3.552Zm23.288-.192h-2.208l-.36-12.288-4.728 11.112h-1.68l-4.752-11.16-.36 12.336h-2.112l.672-16.8h2.088l5.352 12.72 5.352-12.72h2.064l.672 16.8Zm14.068-5.856c0 .096 0 .36-.024.432h-9.264c.168 2.664 1.944 3.936 3.984 3.936 1.728 0 2.784-.792 3.432-1.896l1.488 1.008c-.936 1.656-2.688 2.568-4.944 2.568-3.6 0-6-2.544-6-6.192 0-3.672 2.304-6.192 5.736-6.192s5.592 2.496 5.592 6.336Zm-5.592-4.632c-1.968 0-3.384 1.248-3.648 3.552h7.224c-.264-2.232-1.536-3.552-3.576-3.552Zm17.299-6.312h2.088V218h-1.848v-2.472c-.888 1.704-2.472 2.664-4.44 2.664-3.216 0-5.616-2.544-5.616-6.192s2.4-6.192 5.616-6.192c1.8 0 3.288.792 4.2 2.232v-6.84Zm-3.96 15.264c2.304 0 3.96-1.896 3.96-4.464 0-2.568-1.656-4.464-3.96-4.464-2.232 0-3.768 1.848-3.768 4.464 0 2.616 1.488 4.464 3.768 4.464Zm10.385-12.24a1.434 1.434 0 0 1-1.416-1.416c0-.768.648-1.392 1.416-1.392.768 0 1.392.624 1.392 1.392 0 .768-.624 1.416-1.392 1.416ZM575.621 218v-12h2.088v12h-2.088Zm13.23-12h2.088v12h-1.824v-2.016c-.72 1.392-2.16 2.208-3.984 2.208-2.688 0-4.272-1.704-4.272-4.56V206h2.088v7.536c0 1.896.984 2.952 2.783 2.952 1.897 0 3.121-1.392 3.121-3.552V206Zm17.908-.192c2.64 0 4.152 1.632 4.152 4.368V218h-2.112v-7.68c0-1.848-.888-2.808-2.568-2.808-1.728 0-2.808 1.224-2.808 3.144V218h-2.112v-7.68c0-1.848-.888-2.808-2.568-2.808-1.728 0-2.808 1.368-2.808 3.384V218h-2.112v-12h1.848v1.944c.648-1.296 1.92-2.136 3.6-2.136 1.896 0 3.12.84 3.648 2.328.624-1.416 2.04-2.328 3.84-2.328Z"/><path fill="#4BBED2" d="M299.904 204.224a1.434 1.434 0 0 1-1.416-1.416c0-.768.648-1.392 1.416-1.392.768 0 1.392.624 1.392 1.392 0 .768-.624 1.416-1.392 1.416ZM298.848 218v-12h2.088v12h-2.088Zm9.341.192c-2.112 0-3.72-.864-4.56-2.448l1.464-1.056c.576 1.2 1.632 1.824 3.096 1.824 1.488 0 2.376-.672 2.376-1.824 0-.912-.576-1.44-1.848-1.752l-1.512-.384c-2.064-.504-3.144-1.656-3.144-3.288 0-2.064 1.632-3.456 4.104-3.456 2.04 0 3.48.84 4.056 2.376l-1.56.912c-.384-1.056-1.224-1.608-2.496-1.608-1.296 0-2.136.672-2.136 1.704 0 .864.528 1.368 1.752 1.68l1.608.384c2.064.528 3.144 1.68 3.144 3.384 0 2.136-1.752 3.552-4.344 3.552Zm12.2 0c-2.88 0-5.136-1.344-5.952-3.672l1.752-1.08c.72 1.968 2.208 2.904 4.224 2.904 2.136 0 3.456-1.08 3.456-2.784 0-1.512-.864-2.376-2.88-2.928l-1.728-.48c-2.808-.768-4.2-2.256-4.2-4.512 0-2.712 2.256-4.632 5.424-4.632 2.64 0 4.776 1.344 5.256 3.384l-1.824.864c-.384-1.488-1.68-2.4-3.384-2.4-1.992 0-3.312 1.056-3.312 2.664 0 1.392.84 2.208 2.76 2.712l1.608.432c2.976.792 4.44 2.352 4.44 4.68 0 2.976-2.184 4.848-5.64 4.848Zm21.104-12.384c2.64 0 4.152 1.632 4.152 4.368V218h-2.112v-7.68c0-1.848-.888-2.808-2.568-2.808-1.728 0-2.808 1.224-2.808 3.144V218h-2.112v-7.68c0-1.848-.888-2.808-2.568-2.808-1.728 0-2.808 1.368-2.808 3.384V218h-2.112v-12h1.848v1.944c.648-1.296 1.92-2.136 3.6-2.136 1.896 0 3.12.84 3.648 2.328.624-1.416 2.04-2.328 3.84-2.328Zm16.204 10.056c0 .576.264.792.864.792l-.024 1.344c-.216.12-.576.192-1.032.192-1.08 0-1.776-.744-1.776-1.92-.72 1.152-2.208 1.92-3.864 1.92-2.4 0-3.984-1.344-3.984-3.408s1.416-3.312 4.224-3.744l3.504-.504v-.456c0-1.608-1.08-2.592-2.784-2.592-1.392 0-2.352.6-2.808 1.728l-1.608-.84c.672-1.68 2.232-2.568 4.464-2.568 3.096 0 4.824 1.608 4.824 4.44v5.616Zm-5.568.72c2.136 0 3.48-1.44 3.48-3.672v-.864l-3.024.432c-1.848.264-2.688.96-2.688 2.256 0 1.104.912 1.848 2.232 1.848Zm10.983 1.608c-1.296 0-2.184-.912-2.184-2.4V201.2h2.088v14.472c0 .576.336.792.72.792.168 0 .312-.024.408-.048v1.632c-.168.072-.528.144-1.032.144Zm5.696 0c-1.296 0-2.184-.912-2.184-2.4V201.2h2.088v14.472c0 .576.336.792.72.792.168 0 .312-.024.408-.048v1.632c-.168.072-.528.144-1.032.144Z"/><path fill="#737373" d="M282.064 255.398c0 .432.198.594.648.594l-.018 1.008c-.162.09-.432.144-.774.144-.81 0-1.332-.558-1.332-1.44-.54.864-1.656 1.44-2.898 1.44-1.8 0-2.988-1.008-2.988-2.556s1.062-2.484 3.168-2.808l2.628-.378v-.342c0-1.206-.81-1.944-2.088-1.944-1.044 0-1.764.45-2.106 1.296l-1.206-.63c.504-1.26 1.674-1.926 3.348-1.926 2.322 0 3.618 1.206 3.618 3.33v4.212Zm-4.176.54c1.602 0 2.61-1.08 2.61-2.754v-.648l-2.268.324c-1.386.198-2.016.72-2.016 1.692 0 .828.684 1.386 1.674 1.386Zm8.237 1.206c-.972 0-1.638-.684-1.638-1.8V244.4h1.566v10.854c0 .432.252.594.54.594.126 0 .234-.018.306-.036v1.224c-.126.054-.396.108-.774.108Zm4.272 0c-.972 0-1.638-.684-1.638-1.8V244.4h1.566v10.854c0 .432.252.594.54.594.126 0 .234-.018.306-.036v1.224c-.126.054-.396.108-.774.108Zm9.185-6.822c1.476.378 2.484 1.602 2.484 3.186 0 2.052-1.584 3.492-3.816 3.492h-4.986v-12.6h4.338c2.25 0 3.672 1.242 3.672 3.222 0 1.314-.612 2.232-1.692 2.7Zm-2.394-4.608h-2.304v4.068h2.304c1.566 0 2.448-.738 2.448-2.034 0-1.296-.9-2.034-2.448-2.034Zm.522 9.918c1.71 0 2.7-.81 2.7-2.25 0-1.512-.9-2.286-2.736-2.286h-2.79v4.536h2.826Zm14.58-3.024c0 .072 0 .27-.018.324h-6.948c.126 1.998 1.458 2.952 2.988 2.952 1.296 0 2.088-.594 2.574-1.422l1.116.756c-.702 1.242-2.016 1.926-3.708 1.926-2.7 0-4.5-1.908-4.5-4.644 0-2.754 1.728-4.644 4.302-4.644s4.194 1.872 4.194 4.752Zm-4.194-3.474c-1.476 0-2.538.936-2.736 2.664h5.418c-.198-1.674-1.152-2.664-2.682-2.664Zm7.754 8.01c-.972 0-1.638-.684-1.638-1.8V244.4h1.566v10.854c0 .432.252.594.54.594.126 0 .234-.018.306-.036v1.224c-.126.054-.396.108-.774.108Zm6.557 0c-2.538 0-4.428-1.854-4.428-4.644s1.89-4.644 4.428-4.644c2.538 0 4.428 1.854 4.428 4.644s-1.89 4.644-4.428 4.644Zm0-1.296c1.656 0 2.862-1.332 2.862-3.348s-1.206-3.348-2.862-3.348c-1.656 0-2.862 1.332-2.862 3.348s1.206 3.348 2.862 3.348Zm16.05-7.848h1.584l-2.466 9h-1.656l-2.142-7.002-2.106 7.002h-1.638l-2.466-9h1.638l1.728 7.254 2.088-7.254h1.584l2.106 7.326 1.746-7.326Zm6.473 11.106c-2.178-1.764-3.708-5.058-3.708-8.406 0-3.294 1.53-6.534 3.708-8.406l1.008 1.008c-1.908 1.836-3.132 4.662-3.132 7.398 0 2.736 1.116 5.544 3.132 7.398l-1.008 1.008Zm5.735-1.962c-1.584 0-2.79-.648-3.42-1.836l1.098-.792c.432.9 1.224 1.368 2.322 1.368 1.116 0 1.782-.504 1.782-1.368 0-.684-.432-1.08-1.386-1.314l-1.134-.288c-1.548-.378-2.358-1.242-2.358-2.466 0-1.548 1.224-2.592 3.078-2.592 1.53 0 2.61.63 3.042 1.782l-1.17.684c-.288-.792-.918-1.206-1.872-1.206-.972 0-1.602.504-1.602 1.278 0 .648.396 1.026 1.314 1.26l1.206.288c1.548.396 2.358 1.26 2.358 2.538 0 1.602-1.314 2.664-3.258 2.664Zm14.748-9.288c1.98 0 3.114 1.224 3.114 3.276V257h-1.584v-5.76c0-1.386-.666-2.106-1.926-2.106-1.296 0-2.106.918-2.106 2.358V257h-1.584v-5.76c0-1.386-.666-2.106-1.926-2.106-1.296 0-2.106 1.026-2.106 2.538V257h-1.584v-9h1.386v1.458c.486-.972 1.44-1.602 2.7-1.602 1.422 0 2.34.63 2.736 1.746.468-1.062 1.53-1.746 2.88-1.746Zm12.153 7.542c0 .432.198.594.648.594l-.018 1.008c-.162.09-.432.144-.774.144-.81 0-1.332-.558-1.332-1.44-.54.864-1.656 1.44-2.898 1.44-1.8 0-2.988-1.008-2.988-2.556s1.062-2.484 3.168-2.808l2.628-.378v-.342c0-1.206-.81-1.944-2.088-1.944-1.044 0-1.764.45-2.106 1.296l-1.206-.63c.504-1.26 1.674-1.926 3.348-1.926 2.322 0 3.618 1.206 3.618 3.33v4.212Zm-4.176.54c1.602 0 2.61-1.08 2.61-2.754v-.648l-2.268.324c-1.386.198-2.016.72-2.016 1.692 0 .828.684 1.386 1.674 1.386Zm8.237 1.206c-.972 0-1.638-.684-1.638-1.8V244.4h1.566v10.854c0 .432.252.594.54.594.126 0 .234-.018.306-.036v1.224c-.126.054-.396.108-.774.108Zm4.272 0c-.972 0-1.638-.684-1.638-1.8V244.4h1.566v10.854c0 .432.252.594.54.594.126 0 .234-.018.306-.036v1.224c-.126.054-.396.108-.774.108Zm3.119 1.962-1.008-1.008c2.016-1.854 3.132-4.662 3.132-7.398 0-2.736-1.224-5.562-3.132-7.398l1.008-1.008c2.178 1.872 3.708 5.112 3.708 8.406 0 3.348-1.53 6.642-3.708 8.406ZM467.064 255.398c0 .432.198.594.648.594l-.018 1.008c-.162.09-.432.144-.774.144-.81 0-1.332-.558-1.332-1.44-.54.864-1.656 1.44-2.898 1.44-1.8 0-2.988-1.008-2.988-2.556s1.062-2.484 3.168-2.808l2.628-.378v-.342c0-1.206-.81-1.944-2.088-1.944-1.044 0-1.764.45-2.106 1.296l-1.206-.63c.504-1.26 1.674-1.926 3.348-1.926 2.322 0 3.618 1.206 3.618 3.33v4.212Zm-4.176.54c1.602 0 2.61-1.08 2.61-2.754v-.648l-2.268.324c-1.386.198-2.016.72-2.016 1.692 0 .828.684 1.386 1.674 1.386Zm8.237 1.206c-.972 0-1.638-.684-1.638-1.8V244.4h1.566v10.854c0 .432.252.594.54.594.126 0 .234-.018.306-.036v1.224c-.126.054-.396.108-.774.108Zm4.272 0c-.972 0-1.638-.684-1.638-1.8V244.4h1.566v10.854c0 .432.252.594.54.594.126 0 .234-.018.306-.036v1.224c-.126.054-.396.108-.774.108Zm9.185-6.822c1.476.378 2.484 1.602 2.484 3.186 0 2.052-1.584 3.492-3.816 3.492h-4.986v-12.6h4.338c2.25 0 3.672 1.242 3.672 3.222 0 1.314-.612 2.232-1.692 2.7Zm-2.394-4.608h-2.304v4.068h2.304c1.566 0 2.448-.738 2.448-2.034 0-1.296-.9-2.034-2.448-2.034Zm.522 9.918c1.71 0 2.7-.81 2.7-2.25 0-1.512-.9-2.286-2.736-2.286h-2.79v4.536h2.826Zm14.58-3.024c0 .072 0 .27-.018.324h-6.948c.126 1.998 1.458 2.952 2.988 2.952 1.296 0 2.088-.594 2.574-1.422l1.116.756c-.702 1.242-2.016 1.926-3.708 1.926-2.7 0-4.5-1.908-4.5-4.644 0-2.754 1.728-4.644 4.302-4.644s4.194 1.872 4.194 4.752Zm-4.194-3.474c-1.476 0-2.538.936-2.736 2.664h5.418c-.198-1.674-1.152-2.664-2.682-2.664Zm9.488 6.714c.414 0 .792-.054 1.044-.144v1.26c-.288.108-.792.18-1.314.18-1.71 0-2.682-.918-2.682-2.556v-5.292h-1.53V248h1.53v-2.808h1.566V248h2.304v1.296h-2.304v5.256c0 .864.468 1.296 1.386 1.296ZM515.442 248h1.584l-2.466 9h-1.656l-2.142-7.002-2.106 7.002h-1.638l-2.466-9h1.638l1.728 7.254 2.088-7.254h1.584l2.106 7.326 1.746-7.326Zm10.799 4.608c0 .072 0 .27-.018.324h-6.948c.126 1.998 1.458 2.952 2.988 2.952 1.296 0 2.088-.594 2.574-1.422l1.116.756c-.702 1.242-2.016 1.926-3.708 1.926-2.7 0-4.5-1.908-4.5-4.644 0-2.754 1.728-4.644 4.302-4.644s4.194 1.872 4.194 4.752Zm-4.194-3.474c-1.476 0-2.538.936-2.736 2.664h5.418c-.198-1.674-1.152-2.664-2.682-2.664Zm14.108 3.474c0 .072 0 .27-.018.324h-6.948c.126 1.998 1.458 2.952 2.988 2.952 1.296 0 2.088-.594 2.574-1.422l1.116.756c-.702 1.242-2.016 1.926-3.708 1.926-2.7 0-4.5-1.908-4.5-4.644 0-2.754 1.728-4.644 4.302-4.644s4.194 1.872 4.194 4.752Zm-4.194-3.474c-1.476 0-2.538.936-2.736 2.664h5.418c-.198-1.674-1.152-2.664-2.682-2.664Zm10.346-1.278c2.016 0 3.204 1.278 3.204 3.42V257h-1.566v-5.652c0-1.422-.738-2.214-2.07-2.214-1.44 0-2.358 1.044-2.358 2.664V257h-1.566v-9h1.386v1.494c.54-1.026 1.62-1.638 2.97-1.638Zm8.787 11.25c-2.178-1.764-3.708-5.058-3.708-8.406 0-3.294 1.53-6.534 3.708-8.406l1.008 1.008c-1.908 1.836-3.132 4.662-3.132 7.398 0 2.736 1.116 5.544 3.132 7.398l-1.008 1.008Zm5.735-1.962c-1.584 0-2.79-.648-3.42-1.836l1.098-.792c.432.9 1.224 1.368 2.322 1.368 1.116 0 1.782-.504 1.782-1.368 0-.684-.432-1.08-1.386-1.314l-1.134-.288c-1.548-.378-2.358-1.242-2.358-2.466 0-1.548 1.224-2.592 3.078-2.592 1.53 0 2.61.63 3.042 1.782l-1.17.684c-.288-.792-.918-1.206-1.872-1.206-.972 0-1.602.504-1.602 1.278 0 .648.396 1.026 1.314 1.26l1.206.288c1.548.396 2.358 1.26 2.358 2.538 0 1.602-1.314 2.664-3.258 2.664Zm14.748-9.288c1.98 0 3.114 1.224 3.114 3.276V257h-1.584v-5.76c0-1.386-.666-2.106-1.926-2.106-1.296 0-2.106.918-2.106 2.358V257h-1.584v-5.76c0-1.386-.666-2.106-1.926-2.106-1.296 0-2.106 1.026-2.106 2.538V257h-1.584v-9h1.386v1.458c.486-.972 1.44-1.602 2.7-1.602 1.422 0 2.34.63 2.736 1.746.468-1.062 1.53-1.746 2.88-1.746Zm12.153 7.542c0 .432.198.594.648.594L584.36 257c-.162.09-.432.144-.774.144-.81 0-1.332-.558-1.332-1.44-.54.864-1.656 1.44-2.898 1.44-1.8 0-2.988-1.008-2.988-2.556s1.062-2.484 3.168-2.808l2.628-.378v-.342c0-1.206-.81-1.944-2.088-1.944-1.044 0-1.764.45-2.106 1.296l-1.206-.63c.504-1.26 1.674-1.926 3.348-1.926 2.322 0 3.618 1.206 3.618 3.33v4.212Zm-4.176.54c1.602 0 2.61-1.08 2.61-2.754v-.648l-2.268.324c-1.386.198-2.016.72-2.016 1.692 0 .828.684 1.386 1.674 1.386Zm8.237 1.206c-.972 0-1.638-.684-1.638-1.8V244.4h1.566v10.854c0 .432.252.594.54.594.126 0 .234-.018.306-.036v1.224c-.126.054-.396.108-.774.108Zm4.272 0c-.972 0-1.638-.684-1.638-1.8V244.4h1.566v10.854c0 .432.252.594.54.594.126 0 .234-.018.306-.036v1.224c-.126.054-.396.108-.774.108Zm2.183 1.836.522-3.618h1.836l-1.008 3.618h-1.35Zm18.516-11.124c1.98 0 3.114 1.224 3.114 3.276V257h-1.584v-5.76c0-1.386-.666-2.106-1.926-2.106-1.296 0-2.106.918-2.106 2.358V257h-1.584v-5.76c0-1.386-.666-2.106-1.926-2.106-1.296 0-2.106 1.026-2.106 2.538V257h-1.584v-9h1.386v1.458c.486-.972 1.44-1.602 2.7-1.602 1.422 0 2.34.63 2.736 1.746.468-1.062 1.53-1.746 2.88-1.746Zm13.288 4.752c0 .072 0 .27-.018.324h-6.948c.126 1.998 1.458 2.952 2.988 2.952 1.296 0 2.088-.594 2.574-1.422l1.116.756c-.702 1.242-2.016 1.926-3.708 1.926-2.7 0-4.5-1.908-4.5-4.644 0-2.754 1.728-4.644 4.302-4.644s4.194 1.872 4.194 4.752Zm-4.194-3.474c-1.476 0-2.538.936-2.736 2.664h5.418c-.198-1.674-1.152-2.664-2.682-2.664Zm12.974-4.734h1.566V257h-1.386v-1.854c-.666 1.278-1.854 1.998-3.33 1.998-2.412 0-4.212-1.908-4.212-4.644s1.8-4.644 4.212-4.644c1.35 0 2.466.594 3.15 1.674v-5.13Zm-2.97 11.448c1.728 0 2.97-1.422 2.97-3.348s-1.242-3.348-2.97-3.348c-1.674 0-2.826 1.386-2.826 3.348s1.116 3.348 2.826 3.348Zm7.789-9.18a1.076 1.076 0 0 1-1.062-1.062 1.06 1.06 0 0 1 1.062-1.044c.576 0 1.044.468 1.044 1.044a1.06 1.06 0 0 1-1.044 1.062ZM638.857 257v-9h1.566v9h-1.566Zm9.922-9h1.566v9h-1.368v-1.512c-.54 1.044-1.62 1.656-2.988 1.656-2.016 0-3.204-1.278-3.204-3.42V248h1.566v5.652c0 1.422.738 2.214 2.087 2.214 1.423 0 2.341-1.044 2.341-2.664V248Zm13.431-.144c1.98 0 3.114 1.224 3.114 3.276V257h-1.584v-5.76c0-1.386-.666-2.106-1.926-2.106-1.296 0-2.106.918-2.106 2.358V257h-1.584v-5.76c0-1.386-.666-2.106-1.926-2.106-1.296 0-2.106 1.026-2.106 2.538V257h-1.584v-9h1.386v1.458c.486-.972 1.44-1.602 2.7-1.602 1.422 0 2.34.63 2.736 1.746.468-1.062 1.53-1.746 2.88-1.746Zm5.781 11.25-1.008-1.008c2.016-1.854 3.132-4.662 3.132-7.398 0-2.736-1.224-5.562-3.132-7.398l1.008-1.008c2.178 1.872 3.708 5.112 3.708 8.406 0 3.348-1.53 6.642-3.708 8.406ZM907.064 255.398c0 .432.198.594.648.594l-.018 1.008c-.162.09-.432.144-.774.144-.81 0-1.332-.558-1.332-1.44-.54.864-1.656 1.44-2.898 1.44-1.8 0-2.988-1.008-2.988-2.556s1.062-2.484 3.168-2.808l2.628-.378v-.342c0-1.206-.81-1.944-2.088-1.944-1.044 0-1.764.45-2.106 1.296l-1.206-.63c.504-1.26 1.674-1.926 3.348-1.926 2.322 0 3.618 1.206 3.618 3.33v4.212Zm-4.176.54c1.602 0 2.61-1.08 2.61-2.754v-.648l-2.268.324c-1.386.198-2.016.72-2.016 1.692 0 .828.684 1.386 1.674 1.386Zm8.237 1.206c-.972 0-1.638-.684-1.638-1.8V244.4h1.566v10.854c0 .432.252.594.54.594.126 0 .234-.018.306-.036v1.224c-.126.054-.396.108-.774.108Zm4.272 0c-.972 0-1.638-.684-1.638-1.8V244.4h1.566v10.854c0 .432.252.594.54.594.126 0 .234-.018.306-.036v1.224c-.126.054-.396.108-.774.108ZM926.22 257l-.99-2.934h-5.22L919.002 257h-1.656l4.644-12.6h1.314l4.644 12.6h-1.728Zm-5.76-4.248h4.32l-2.16-6.336-2.16 6.336Zm13.815-4.896c2.412 0 4.23 1.908 4.23 4.644s-1.818 4.644-4.23 4.644c-1.476 0-2.664-.72-3.33-1.998V257h-1.386v-12.6h1.566v5.13c.684-1.08 1.8-1.674 3.15-1.674Zm-.18 7.992c1.692 0 2.826-1.404 2.826-3.348s-1.152-3.348-2.826-3.348c-1.71 0-2.97 1.422-2.97 3.348s1.26 3.348 2.97 3.348Zm10.219 1.296c-2.538 0-4.428-1.854-4.428-4.644s1.89-4.644 4.428-4.644c2.538 0 4.428 1.854 4.428 4.644s-1.89 4.644-4.428 4.644Zm0-1.296c1.656 0 2.862-1.332 2.862-3.348s-1.206-3.348-2.862-3.348c-1.656 0-2.862 1.332-2.862 3.348s1.206 3.348 2.862 3.348Zm12-7.848h1.638l-3.438 9h-1.656l-3.438-9h1.674l2.61 7.38 2.61-7.38Zm10.806 4.608c0 .072 0 .27-.018.324h-6.948c.126 1.998 1.458 2.952 2.988 2.952 1.296 0 2.088-.594 2.574-1.422l1.116.756c-.702 1.242-2.016 1.926-3.708 1.926-2.7 0-4.5-1.908-4.5-4.644 0-2.754 1.728-4.644 4.302-4.644s4.194 1.872 4.194 4.752Zm-4.194-3.474c-1.476 0-2.538.936-2.736 2.664h5.418c-.198-1.674-1.152-2.664-2.682-2.664Zm9.518 9.972c-2.178-1.764-3.708-5.058-3.708-8.406 0-3.294 1.53-6.534 3.708-8.406l1.008 1.008c-1.908 1.836-3.132 4.662-3.132 7.398 0 2.736 1.116 5.544 3.132 7.398l-1.008 1.008Zm12.467-11.25c1.98 0 3.114 1.224 3.114 3.276V257h-1.584v-5.76c0-1.386-.666-2.106-1.926-2.106-1.296 0-2.106.918-2.106 2.358V257h-1.584v-5.76c0-1.386-.666-2.106-1.926-2.106-1.296 0-2.106 1.026-2.106 2.538V257h-1.584v-9h1.386v1.458c.486-.972 1.44-1.602 2.7-1.602 1.422 0 2.34.63 2.736 1.746.468-1.062 1.53-1.746 2.88-1.746Zm13.287 4.752c0 .072 0 .27-.018.324h-6.948c.126 1.998 1.458 2.952 2.988 2.952 1.296 0 2.088-.594 2.574-1.422l1.116.756c-.702 1.242-2.016 1.926-3.708 1.926-2.7 0-4.5-1.908-4.5-4.644 0-2.754 1.728-4.644 4.302-4.644s4.194 1.872 4.194 4.752Zm-4.194-3.474c-1.476 0-2.538.936-2.736 2.664h5.418c-.198-1.674-1.152-2.664-2.682-2.664Zm12.976-4.734h1.56V257h-1.38v-1.854c-.67 1.278-1.86 1.998-3.33 1.998-2.41 0-4.214-1.908-4.214-4.644s1.804-4.644 4.214-4.644c1.35 0 2.46.594 3.15 1.674v-5.13Zm-2.97 11.448c1.73 0 2.97-1.422 2.97-3.348s-1.24-3.348-2.97-3.348c-1.68 0-2.83 1.386-2.83 3.348s1.12 3.348 2.83 3.348Zm7.79-9.18c-.58 0-1.06-.486-1.06-1.062 0-.576.48-1.044 1.06-1.044.57 0 1.04.468 1.04 1.044 0 .576-.47 1.062-1.04 1.062Zm-.79 10.332v-9h1.56v9h-1.56Zm9.92-9h1.56v9h-1.37v-1.512c-.54 1.044-1.62 1.656-2.98 1.656-2.02 0-3.21-1.278-3.21-3.42V248h1.57v5.652c0 1.422.74 2.214 2.09 2.214 1.42 0 2.34-1.044 2.34-2.664V248Zm13.43-.144c1.98 0 3.11 1.224 3.11 3.276V257h-1.58v-5.76c0-1.386-.67-2.106-1.93-2.106-1.29 0-2.1.918-2.1 2.358V257h-1.59v-5.76c0-1.386-.66-2.106-1.92-2.106-1.3 0-2.11 1.026-2.11 2.538V257h-1.58v-9h1.38v1.458c.49-.972 1.44-1.602 2.7-1.602 1.42 0 2.34.63 2.74 1.746.47-1.062 1.53-1.746 2.88-1.746Zm5.78 11.25-1.01-1.008c2.02-1.854 3.13-4.662 3.13-7.398 0-2.736-1.22-5.562-3.13-7.398l1.01-1.008c2.18 1.872 3.71 5.112 3.71 8.406 0 3.348-1.53 6.642-3.71 8.406Z"/><path fill="#28B482" d="M925.904 204.224a1.434 1.434 0 0 1-1.416-1.416c0-.768.648-1.392 1.416-1.392.768 0 1.392.624 1.392 1.392 0 .768-.624 1.416-1.392 1.416ZM924.848 218v-12h2.088v12h-2.088Zm9.341.192c-2.112 0-3.72-.864-4.56-2.448l1.464-1.056c.576 1.2 1.632 1.824 3.096 1.824 1.488 0 2.376-.672 2.376-1.824 0-.912-.576-1.44-1.848-1.752l-1.512-.384c-2.064-.504-3.144-1.656-3.144-3.288 0-2.064 1.632-3.456 4.104-3.456 2.04 0 3.48.84 4.056 2.376l-1.56.912c-.384-1.056-1.224-1.608-2.496-1.608-1.296 0-2.136.672-2.136 1.704 0 .864.528 1.368 1.752 1.68l1.608.384c2.064.528 3.144 1.68 3.144 3.384 0 2.136-1.752 3.552-4.344 3.552Zm9.368-1.944h7.296V218h-9.456v-16.8h2.16v15.048Zm18.531-.384c0 .576.264.792.864.792l-.024 1.344c-.216.12-.576.192-1.032.192-1.08 0-1.776-.744-1.776-1.92-.72 1.152-2.208 1.92-3.864 1.92-2.4 0-3.984-1.344-3.984-3.408s1.416-3.312 4.224-3.744l3.504-.504v-.456c0-1.608-1.08-2.592-2.784-2.592-1.392 0-2.352.6-2.808 1.728l-1.608-.84c.672-1.68 2.232-2.568 4.464-2.568 3.096 0 4.824 1.608 4.824 4.44v5.616Zm-5.568.72c2.136 0 3.48-1.44 3.48-3.672v-.864l-3.024.432c-1.848.264-2.688.96-2.688 2.256 0 1.104.912 1.848 2.232 1.848Zm13.911-10.776c.48 0 .816.048 1.008.12v1.8a6.537 6.537 0 0 0-1.08-.072c-1.776 0-3.12 1.104-3.12 3.384V218h-2.088v-12h1.848v2.04c.6-1.416 1.896-2.232 3.432-2.232Zm12.001.192h1.824v11.064c0 3.504-2.352 5.688-6.096 5.688-2.064 0-3.624-.6-4.848-1.56l.936-1.56c.984.84 2.304 1.392 3.912 1.392 2.424 0 4.008-1.488 4.008-3.864v-1.608c-.888 1.344-2.304 2.088-4.056 2.088-3.192 0-5.496-2.472-5.496-5.928 0-3.432 2.304-5.904 5.496-5.904 1.944 0 3.48.912 4.32 2.544V206Zm-4.08 9.912c2.208 0 3.816-1.776 3.816-4.2 0-2.424-1.608-4.176-3.816-4.176-2.16 0-3.624 1.704-3.624 4.176 0 2.472 1.488 4.2 3.624 4.2Zm19.56-3.768c0 .096 0 .36-.024.432h-9.264c.168 2.664 1.944 3.936 3.984 3.936 1.728 0 2.784-.792 3.432-1.896l1.488 1.008c-.936 1.656-2.688 2.568-4.944 2.568-3.6 0-6-2.544-6-6.192 0-3.672 2.304-6.192 5.736-6.192s5.592 2.496 5.592 6.336Zm-5.592-4.632c-1.968 0-3.384 1.248-3.648 3.552h7.224c-.264-2.232-1.536-3.552-3.576-3.552Z"/><path fill="#737373" d="M431.571 74.436v1.278h-1.872v2.916h-1.566v-2.916h-5.418v-.972l4.824-8.712h2.16v8.406h1.872Zm-7.2 0h3.762V67.65l-3.762 6.786Zm13.565 4.338c-2.862 0-4.392-2.268-4.392-6.444s1.53-6.444 4.392-6.444 4.392 2.268 4.392 6.444-1.53 6.444-4.392 6.444Zm0-1.368c1.872 0 2.826-1.71 2.826-5.076 0-3.366-.954-5.076-2.826-5.076s-2.826 1.71-2.826 5.076c0 3.366.954 5.076 2.826 5.076Zm14.591-3.168c0 .072 0 .27-.018.324h-6.948c.126 1.998 1.458 2.952 2.988 2.952 1.296 0 2.088-.594 2.574-1.422l1.116.756c-.702 1.242-2.016 1.926-3.708 1.926-2.7 0-4.5-1.908-4.5-4.644 0-2.754 1.728-4.644 4.302-4.644s4.194 1.872 4.194 4.752Zm-4.194-3.474c-1.476 0-2.538.936-2.736 2.664h5.418c-.198-1.674-1.152-2.664-2.682-2.664Zm15.692-1.278c1.98 0 3.114 1.224 3.114 3.276v5.868h-1.584v-5.76c0-1.386-.666-2.106-1.926-2.106-1.296 0-2.106.918-2.106 2.358v5.508h-1.584v-5.76c0-1.386-.666-2.106-1.926-2.106-1.296 0-2.106 1.026-2.106 2.538v5.328h-1.584v-9h1.386v1.458c.486-.972 1.44-1.602 2.7-1.602 1.422 0 2.34.63 2.736 1.746.468-1.062 1.53-1.746 2.88-1.746ZM649.579 78.774c-2.844 0-4.41-2.106-4.41-5.796 0-4.41 1.656-7.092 4.662-7.092 2.034 0 3.348 1.062 3.672 2.592l-1.368.522c-.306-1.206-1.152-1.8-2.304-1.8-2.142 0-3.132 2.358-3.132 5.31.342-.828 1.386-1.926 3.204-1.926 2.16 0 3.816 1.674 3.816 4.05 0 2.358-1.8 4.14-4.14 4.14Zm0-1.314c1.548 0 2.61-1.116 2.61-2.79 0-1.638-1.062-2.772-2.61-2.772-1.566 0-2.628 1.134-2.628 2.772 0 1.674 1.062 2.79 2.628 2.79Zm10.649 1.314c-2.862 0-4.392-2.268-4.392-6.444s1.53-6.444 4.392-6.444 4.392 2.268 4.392 6.444-1.53 6.444-4.392 6.444Zm0-1.368c1.872 0 2.826-1.71 2.826-5.076 0-3.366-.954-5.076-2.826-5.076s-2.826 1.71-2.826 5.076c0 3.366.954 5.076 2.826 5.076Zm14.591-3.168c0 .072 0 .27-.018.324h-6.948c.126 1.998 1.458 2.952 2.988 2.952 1.296 0 2.088-.594 2.574-1.422l1.116.756c-.702 1.242-2.016 1.926-3.708 1.926-2.7 0-4.5-1.908-4.5-4.644 0-2.754 1.728-4.644 4.302-4.644s4.194 1.872 4.194 4.752Zm-4.194-3.474c-1.476 0-2.538.936-2.736 2.664h5.418c-.198-1.674-1.152-2.664-2.682-2.664Zm15.692-1.278c1.98 0 3.114 1.224 3.114 3.276v5.868h-1.584v-5.76c0-1.386-.666-2.106-1.926-2.106-1.296 0-2.106.918-2.106 2.358v5.508h-1.584v-5.76c0-1.386-.666-2.106-1.926-2.106-1.296 0-2.106 1.026-2.106 2.538v5.328h-1.584v-9h1.386v1.458c.486-.972 1.44-1.602 2.7-1.602 1.422 0 2.34.63 2.736 1.746.468-1.062 1.53-1.746 2.88-1.746ZM869.052 66.03h7.884v.99c0 .018-5.058 11.592-5.058 11.61h-1.764l5.076-11.304h-6.138V66.03Zm12.971 11.304h5.778v1.296h-8.028v-1.026l3.528-3.6c2.196-2.232 2.934-3.096 2.934-4.464 0-1.44-.954-2.34-2.448-2.34-1.386 0-2.25.702-2.574 2.142l-1.332-.504c.36-1.872 1.782-2.952 3.906-2.952 2.376 0 3.996 1.494 3.996 3.654 0 1.998-1.638 3.564-3.438 5.418l-2.322 2.376Zm16.355-3.096c0 .072 0 .27-.018.324h-6.948c.126 1.998 1.458 2.952 2.988 2.952 1.296 0 2.088-.594 2.574-1.422l1.116.756c-.702 1.242-2.016 1.926-3.708 1.926-2.7 0-4.5-1.908-4.5-4.644 0-2.754 1.728-4.644 4.302-4.644s4.194 1.872 4.194 4.752Zm-4.194-3.474c-1.476 0-2.538.936-2.736 2.664h5.418c-.198-1.674-1.152-2.664-2.682-2.664Zm15.692-1.278c1.98 0 3.114 1.224 3.114 3.276v5.868h-1.584v-5.76c0-1.386-.666-2.106-1.926-2.106-1.296 0-2.106.918-2.106 2.358v5.508h-1.584v-5.76c0-1.386-.666-2.106-1.926-2.106-1.296 0-2.106 1.026-2.106 2.538v5.328h-1.584v-9h1.386v1.458c.486-.972 1.44-1.602 2.7-1.602 1.422 0 2.34.63 2.736 1.746.468-1.062 1.53-1.746 2.88-1.746ZM216.4 78.774c-2.862 0-4.392-2.268-4.392-6.444s1.53-6.444 4.392-6.444 4.392 2.268 4.392 6.444-1.53 6.444-4.392 6.444Zm0-1.368c1.872 0 2.826-1.71 2.826-5.076 0-3.366-.954-5.076-2.826-5.076s-2.826 1.71-2.826 5.076c0 3.366.954 5.076 2.826 5.076Z"/><rect width="228" height="13" x="217" y="166" fill="#4BBED2" rx="6.5"/><rect width="212" height="13" x="456" y="166" fill="#FF5400" rx="6.5"/><rect width="571" height="13" x="679" y="166" fill="#28B482" rx="6.5"/><path stroke="#CCC" stroke-linecap="round" stroke-width="5" d="M217 102v21"/><path stroke="#4BBED2" stroke-linecap="round" stroke-width="5" d="M445 102v21"/><path stroke="#FF5400" stroke-linecap="round" stroke-width="5" d="M668 102v21"/><path stroke="#14555A" stroke-linecap="round" stroke-width="5" d="M887 102v21"/><path fill="#737373" d="M1241.42 70.898c.96-1.203 1.7-1.996 2.24-2.379.73-.528 1.5-.792 2.31-.792.96 0 1.85.346 2.68 1.039.84.692 1.26 1.809 1.26 3.35 0 1.075-.15 1.922-.46 2.542-.31.61-.8 1.103-1.45 1.477-.66.373-1.33.56-2.03.56-.81 0-1.58-.26-2.31-.779-.54-.392-1.28-1.19-2.24-2.393-1.24 1.559-2.56 2.338-3.95 2.338-.92 0-1.71-.346-2.38-1.039-.66-.702-.98-1.572-.98-2.611 0-1.03.32-1.896.98-2.598.67-.701 1.46-1.052 2.38-1.052 1.39 0 2.71.779 3.95 2.337Zm.94 1.3c.8 1.23 1.52 2.073 2.18 2.529.42.3.89.45 1.41.45.69 0 1.27-.255 1.73-.765.48-.51.71-1.23.71-2.16 0-.966-.24-1.704-.72-2.215a2.34 2.34 0 0 0-1.78-.766c-.45 0-.87.128-1.26.383-.53.356-1.28 1.203-2.27 2.543Zm-1.88.013c-.73-.912-1.32-1.495-1.75-1.75-.44-.264-.86-.397-1.26-.397-.53 0-.97.187-1.33.561-.34.374-.52.889-.52 1.545 0 .647.19 1.167.55 1.558.36.383.81.575 1.33.575.92 0 1.91-.697 2.98-2.092Z"/></svg>