<svg width="200" height="240" viewBox="0 0 200 240" fill="none" xmlns="http://www.w3.org/2000/svg">
<rect x="56" y="120" width="96" height="40" rx="20" fill="#008484"/>
<path d="M81.344 145H82.608V132.936H81.344V145ZM86.8741 145.144C88.3781 145.144 89.3541 144.328 89.7861 143.992C89.8981 144.776 90.6981 145.096 91.4661 145.096C91.5781 145.096 91.7381 145.08 91.8181 145.064L91.8661 144.088C91.4501 144.088 90.9221 143.944 90.9221 143.288V138.456C90.9221 136.744 89.7541 136.04 87.8341 136.04C86.6501 136.04 85.6741 136.296 85.0021 136.584L85.2901 137.576C86.0101 137.304 86.7141 137.144 87.6581 137.144C89.0341 137.144 89.6901 137.48 89.6901 138.872V139.992L87.6101 140.024C86.1861 140.056 84.2661 140.504 84.2661 142.68C84.2661 144.264 85.2901 145.144 86.8741 145.144ZM87.1621 144.12C86.2021 144.12 85.4821 143.64 85.4821 142.632C85.4821 141.608 86.2341 141 87.5941 140.952L89.6901 140.872V143.144C89.0341 143.624 88.1221 144.12 87.1621 144.12ZM96.0953 145.192C98.5913 145.192 100.559 143.928 100.559 140.376C100.559 137.56 99.3113 136.104 96.9913 136.104C96.3193 136.104 95.8073 136.216 95.4873 136.392L95.5993 137.32C95.9353 137.208 96.3353 137.128 96.7993 137.128C98.8313 137.128 99.2633 138.776 99.2633 140.312C99.2633 142.552 98.3673 144.12 96.3193 144.12C95.6473 144.12 94.9273 143.96 94.5753 143.864V132.936H93.3273V144.712C94.0312 144.968 95.0713 145.192 96.0953 145.192ZM106.055 145.192C107.159 145.192 108.151 145 108.807 144.728L108.583 143.704C107.767 143.96 107.111 144.104 106.263 144.104C104.599 144.104 103.223 143.576 103.191 140.872H108.951V140.408C108.951 137.496 107.943 136.04 105.719 136.04C103.591 136.04 101.911 137.4 101.911 140.808C101.911 144.136 103.511 145.192 106.055 145.192ZM103.207 139.928C103.351 137.976 104.327 137.032 105.591 137.032C107.015 137.032 107.639 138.152 107.639 139.928H103.207ZM110.75 145H112.014V132.936H110.75V145Z" fill="white"/>
<path fill-rule="evenodd" clip-rule="evenodd" d="M126.28 134.97C125.987 134.677 125.513 134.677 125.22 134.97C124.927 135.263 124.927 135.737 125.22 136.03L129.189 140L125.22 143.97C124.927 144.263 124.927 144.737 125.22 145.03C125.513 145.323 125.987 145.323 126.28 145.03L130.78 140.53C131.073 140.237 131.073 139.763 130.78 139.47L126.28 134.97Z" fill="white"/>
<rect x="56" y="8.00002" width="96" height="40" rx="20" fill="#008484"/>
<path d="M81.344 33H82.608V20.936H81.344V33ZM86.8741 33.144C88.3781 33.144 89.3541 32.328 89.7861 31.992C89.8981 32.776 90.6981 33.096 91.4661 33.096C91.5781 33.096 91.7381 33.08 91.8181 33.064L91.8661 32.088C91.4501 32.088 90.9221 31.944 90.9221 31.288V26.456C90.9221 24.744 89.7541 24.04 87.8341 24.04C86.6501 24.04 85.6741 24.296 85.0021 24.584L85.2901 25.576C86.0101 25.304 86.7141 25.144 87.6581 25.144C89.0341 25.144 89.6901 25.48 89.6901 26.872V27.992L87.6101 28.024C86.1861 28.056 84.2661 28.504 84.2661 30.68C84.2661 32.264 85.2901 33.144 86.8741 33.144ZM87.1621 32.12C86.2021 32.12 85.4821 31.64 85.4821 30.632C85.4821 29.608 86.2341 29 87.5941 28.952L89.6901 28.872V31.144C89.0341 31.624 88.1221 32.12 87.1621 32.12ZM96.0953 33.192C98.5913 33.192 100.559 31.928 100.559 28.376C100.559 25.56 99.3113 24.104 96.9913 24.104C96.3193 24.104 95.8073 24.216 95.4873 24.392L95.5993 25.32C95.9353 25.208 96.3353 25.128 96.7993 25.128C98.8313 25.128 99.2633 26.776 99.2633 28.312C99.2633 30.552 98.3673 32.12 96.3193 32.12C95.6473 32.12 94.9273 31.96 94.5753 31.864V20.936H93.3273V32.712C94.0312 32.968 95.0713 33.192 96.0953 33.192ZM106.055 33.192C107.159 33.192 108.151 33 108.807 32.728L108.583 31.704C107.767 31.96 107.111 32.104 106.263 32.104C104.599 32.104 103.223 31.576 103.191 28.872H108.951V28.408C108.951 25.496 107.943 24.04 105.719 24.04C103.591 24.04 101.911 25.4 101.911 28.808C101.911 32.136 103.511 33.192 106.055 33.192ZM103.207 27.928C103.351 25.976 104.327 25.032 105.591 25.032C107.015 25.032 107.639 26.152 107.639 27.928H103.207ZM110.75 33H112.014V20.936H110.75V33Z" fill="white"/>
<path fill-rule="evenodd" clip-rule="evenodd" d="M126.28 22.9697C125.987 22.6768 125.513 22.6768 125.22 22.9697C124.927 23.2626 124.927 23.7375 125.22 24.0303L129.189 28L125.22 31.9697C124.927 32.2626 124.927 32.7375 125.22 33.0303C125.513 33.3232 125.987 33.3232 126.28 33.0303L130.78 28.5303C131.073 28.2375 131.073 27.7626 130.78 27.4697L126.28 22.9697Z" fill="white"/>
<rect x="80" y="120" width="32" height="88" fill="#00D9FF" fill-opacity="0.5"/>
<path d="M111.87 186.354C112.065 186.158 112.065 185.842 111.87 185.646L108.688 182.464C108.492 182.269 108.176 182.269 107.98 182.464C107.785 182.66 107.785 182.976 107.98 183.172L110.809 186L107.98 188.828C107.785 189.024 107.785 189.34 107.98 189.536C108.176 189.731 108.492 189.731 108.688 189.536L111.87 186.354ZM104.87 186.5H111.516V185.5H104.87V186.5Z" fill="black"/>
<path d="M80.1465 185.646C79.9513 185.842 79.9513 186.158 80.1465 186.354L83.3285 189.536C83.5238 189.731 83.8403 189.731 84.0356 189.536C84.2309 189.34 84.2309 189.024 84.0356 188.828L81.2072 186L84.0356 183.172C84.2309 182.976 84.2309 182.66 84.0356 182.464C83.8403 182.269 83.5238 182.269 83.3285 182.464L80.1465 185.646ZM87.1464 185.5H80.5001V186.5H87.1464V185.5Z" fill="black"/>
<path d="M88.6232 186H91.5051L94.3869 178L97.2688 194L100.151 186H103.393" stroke="#333333" stroke-linecap="round" stroke-linejoin="round"/>
<rect x="56" y="120" width="24" height="88" fill="#DB00FF" fill-opacity="0.25"/>
<rect x="136" y="120" width="16" height="88" fill="#DB00FF" fill-opacity="0.25"/>
<rect x="112" y="120" width="8" height="88" fill="#DB00FF" fill-opacity="0.25"/>
<rect x="120" y="120" width="16" height="88" fill="#FFFF7A" fill-opacity="0.5"/>
<path d="M127.63 223.6C128.134 223.6 128.574 223.7 128.95 223.9C129.334 224.1 129.626 224.376 129.826 224.728C130.026 225.072 130.126 225.464 130.126 225.904C130.126 226.416 130.006 226.912 129.766 227.392C129.534 227.872 129.158 228.4 128.638 228.976C128.118 229.544 127.382 230.264 126.43 231.136H130.318L130.198 232H125.278V231.184C126.358 230.152 127.158 229.344 127.678 228.76C128.206 228.176 128.57 227.676 128.77 227.26C128.97 226.844 129.07 226.404 129.07 225.94C129.07 225.476 128.938 225.112 128.674 224.848C128.41 224.584 128.046 224.452 127.582 224.452C127.19 224.452 126.862 224.52 126.598 224.656C126.342 224.784 126.078 225.008 125.806 225.328L125.11 224.788C125.438 224.38 125.802 224.08 126.202 223.888C126.61 223.696 127.086 223.6 127.63 223.6Z" fill="black"/>
<path d="M143.63 223.6C144.134 223.6 144.574 223.7 144.95 223.9C145.334 224.1 145.626 224.376 145.826 224.728C146.026 225.072 146.126 225.464 146.126 225.904C146.126 226.416 146.006 226.912 145.766 227.392C145.534 227.872 145.158 228.4 144.638 228.976C144.118 229.544 143.382 230.264 142.43 231.136H146.318L146.198 232H141.278V231.184C142.358 230.152 143.158 229.344 143.678 228.76C144.206 228.176 144.57 227.676 144.77 227.26C144.97 226.844 145.07 226.404 145.07 225.94C145.07 225.476 144.938 225.112 144.674 224.848C144.41 224.584 144.046 224.452 143.582 224.452C143.19 224.452 142.862 224.52 142.598 224.656C142.342 224.784 142.078 225.008 141.806 225.328L141.11 224.788C141.438 224.38 141.802 224.08 142.202 223.888C142.61 223.696 143.086 223.6 143.63 223.6Z" fill="black"/>
<path d="M118.606 231.184V232H113.842V231.184H115.87V224.836L113.986 225.976L113.542 225.268L116.002 223.732H116.89V231.184H118.606Z" fill="black"/>
<path d="M67.6303 223.6C68.1343 223.6 68.5783 223.696 68.9623 223.888C69.3463 224.072 69.6423 224.324 69.8503 224.644C70.0583 224.956 70.1623 225.3 70.1623 225.676C70.1623 226.156 70.0063 226.576 69.6943 226.936C69.3823 227.288 69.0023 227.508 68.5543 227.596C69.0743 227.636 69.5143 227.832 69.8743 228.184C70.2423 228.536 70.4263 229.016 70.4263 229.624C70.4263 230.096 70.3063 230.524 70.0663 230.908C69.8263 231.292 69.4863 231.592 69.0463 231.808C68.6143 232.024 68.1183 232.132 67.5583 232.132C67.0703 232.132 66.5983 232.04 66.1423 231.856C65.6943 231.672 65.3223 231.4 65.0263 231.04L65.6983 230.488C65.9223 230.752 66.1943 230.956 66.5143 231.1C66.8423 231.236 67.1823 231.304 67.5343 231.304C68.1103 231.304 68.5583 231.156 68.8783 230.86C69.2063 230.556 69.3703 230.144 69.3703 229.624C69.3703 228.576 68.7983 228.052 67.6543 228.052H66.9703L67.0903 227.248H67.5823C68.0143 227.248 68.3823 227.128 68.6863 226.888C68.9903 226.64 69.1423 226.28 69.1423 225.808C69.1423 225.368 68.9943 225.028 68.6983 224.788C68.4103 224.54 68.0383 224.416 67.5823 224.416C67.2383 224.416 66.9303 224.476 66.6583 224.596C66.3943 224.716 66.1183 224.908 65.8303 225.172L65.2783 224.56C65.9503 223.92 66.7343 223.6 67.6303 223.6Z" fill="black"/>
<rect x="55.9016" y="64" width="96" height="40" rx="20" fill="#008484"/>
<path d="M81.2456 89H82.5096V76.936H81.2456V89ZM86.7757 89.144C88.2797 89.144 89.2557 88.328 89.6877 87.992C89.7997 88.776 90.5997 89.096 91.3677 89.096C91.4797 89.096 91.6397 89.08 91.7197 89.064L91.7677 88.088C91.3517 88.088 90.8237 87.944 90.8237 87.288V82.456C90.8237 80.744 89.6557 80.04 87.7357 80.04C86.5517 80.04 85.5757 80.296 84.9037 80.584L85.1917 81.576C85.9117 81.304 86.6157 81.144 87.5597 81.144C88.9357 81.144 89.5917 81.48 89.5917 82.872V83.992L87.5117 84.024C86.0877 84.056 84.1677 84.504 84.1677 86.68C84.1677 88.264 85.1917 89.144 86.7757 89.144ZM87.0637 88.12C86.1037 88.12 85.3837 87.64 85.3837 86.632C85.3837 85.608 86.1357 85 87.4957 84.952L89.5917 84.872V87.144C88.9357 87.624 88.0237 88.12 87.0637 88.12ZM95.9969 89.192C98.4929 89.192 100.461 87.928 100.461 84.376C100.461 81.56 99.2129 80.104 96.8929 80.104C96.2209 80.104 95.7089 80.216 95.3889 80.392L95.5009 81.32C95.8369 81.208 96.2369 81.128 96.7009 81.128C98.7329 81.128 99.1649 82.776 99.1649 84.312C99.1649 86.552 98.2689 88.12 96.2209 88.12C95.5489 88.12 94.8289 87.96 94.4769 87.864V76.936H93.2289V88.712C93.9329 88.968 94.9729 89.192 95.9969 89.192ZM105.956 89.192C107.06 89.192 108.052 89 108.708 88.728L108.484 87.704C107.668 87.96 107.012 88.104 106.164 88.104C104.5 88.104 103.124 87.576 103.092 84.872H108.852V84.408C108.852 81.496 107.844 80.04 105.62 80.04C103.492 80.04 101.812 81.4 101.812 84.808C101.812 88.136 103.412 89.192 105.956 89.192ZM103.108 83.928C103.252 81.976 104.228 81.032 105.492 81.032C106.916 81.032 107.54 82.152 107.54 83.928H103.108ZM110.652 89H111.916V76.936H110.652V89Z" fill="white"/>
<path fill-rule="evenodd" clip-rule="evenodd" d="M126.182 78.9697C125.889 78.6768 125.414 78.6768 125.121 78.9697C124.828 79.2626 124.828 79.7375 125.121 80.0303L129.091 84L125.121 87.9697C124.828 88.2626 124.828 88.7375 125.121 89.0303C125.414 89.3232 125.889 89.3232 126.182 89.0303L130.682 84.5303C130.975 84.2375 130.975 83.7626 130.682 83.4697L126.182 78.9697Z" fill="white"/>
<rect x="40" y="64" width="128" height="8" fill="#DB00FF" fill-opacity="0.25"/>
<rect x="40" y="96" width="128" height="8" fill="#DB00FF" fill-opacity="0.25"/>
<rect x="40" y="76" width="128" height="16" fill="#00D9FF" fill-opacity="0.5"/>
<rect x="40" y="72" width="128" height="4" fill="#FFFF7A" fill-opacity="0.5"/>
<rect x="40" y="92" width="128" height="4" fill="#FFFF7A" fill-opacity="0.5"/>
<rect x="120" y="76" width="16" height="16" fill="#DB00FF" fill-opacity="0.25"/>
<path d="M7.25784 68.6C8.13784 68.6 8.80584 68.968 9.26184 69.704C9.72584 70.432 9.95784 71.484 9.95784 72.86C9.95784 74.244 9.72584 75.304 9.26184 76.04C8.80584 76.768 8.13784 77.132 7.25784 77.132C6.37784 77.132 5.70584 76.768 5.24184 76.04C4.78584 75.304 4.55784 74.244 4.55784 72.86C4.55784 71.484 4.78584 70.432 5.24184 69.704C5.70584 68.968 6.37784 68.6 7.25784 68.6ZM7.25784 69.416C6.16184 69.416 5.61384 70.564 5.61384 72.86C5.61384 75.164 6.16184 76.316 7.25784 76.316C8.35384 76.316 8.90184 75.164 8.90184 72.86C8.90184 70.564 8.35384 69.416 7.25784 69.416ZM7.25784 72.08C7.48184 72.08 7.66984 72.156 7.82184 72.308C7.97384 72.46 8.04984 72.644 8.04984 72.86C8.04984 73.084 7.97384 73.272 7.82184 73.424C7.66984 73.576 7.48184 73.652 7.25784 73.652C7.03384 73.652 6.84584 73.576 6.69384 73.424C6.54984 73.272 6.47784 73.084 6.47784 72.86C6.47784 72.644 6.54984 72.46 6.69384 72.308C6.84584 72.156 7.03384 72.08 7.25784 72.08ZM13.3851 76.076C13.3851 75.78 13.4851 75.532 13.6851 75.332C13.8931 75.124 14.1451 75.02 14.4411 75.02C14.7451 75.02 14.9971 75.124 15.1971 75.332C15.3971 75.532 15.4971 75.78 15.4971 76.076C15.4971 76.38 15.3971 76.632 15.1971 76.832C14.9971 77.032 14.7451 77.132 14.4411 77.132C14.1451 77.132 13.8931 77.032 13.6851 76.832C13.4851 76.624 13.3851 76.372 13.3851 76.076ZM23.7485 69.548H20.4845V72.152C20.7165 72.016 20.9445 71.924 21.1685 71.876C21.4005 71.82 21.6445 71.792 21.9005 71.792C22.5885 71.792 23.1365 72.02 23.5445 72.476C23.9605 72.932 24.1685 73.568 24.1685 74.384C24.1685 74.928 24.0525 75.408 23.8205 75.824C23.5965 76.24 23.2725 76.564 22.8485 76.796C22.4245 77.02 21.9325 77.132 21.3725 77.132C20.4525 77.132 19.6525 76.804 18.9725 76.148L19.5965 75.536C20.1005 76.048 20.6925 76.304 21.3725 76.304C21.9245 76.304 22.3525 76.136 22.6565 75.8C22.9605 75.464 23.1125 74.98 23.1125 74.348C23.1125 73.724 22.9765 73.276 22.7045 73.004C22.4325 72.724 22.0685 72.584 21.6125 72.584C21.3965 72.584 21.2005 72.604 21.0245 72.644C20.8485 72.684 20.6165 72.756 20.3285 72.86H19.5125V68.732H23.8925L23.7485 69.548Z" fill="black"/>
<path d="M7.25784 90.6C8.13784 90.6 8.80584 90.968 9.26184 91.704C9.72584 92.432 9.95784 93.484 9.95784 94.86C9.95784 96.244 9.72584 97.304 9.26184 98.04C8.80584 98.768 8.13784 99.132 7.25784 99.132C6.37784 99.132 5.70584 98.768 5.24184 98.04C4.78584 97.304 4.55784 96.244 4.55784 94.86C4.55784 93.484 4.78584 92.432 5.24184 91.704C5.70584 90.968 6.37784 90.6 7.25784 90.6ZM7.25784 91.416C6.16184 91.416 5.61384 92.564 5.61384 94.86C5.61384 97.164 6.16184 98.316 7.25784 98.316C8.35384 98.316 8.90184 97.164 8.90184 94.86C8.90184 92.564 8.35384 91.416 7.25784 91.416ZM7.25784 94.08C7.48184 94.08 7.66984 94.156 7.82184 94.308C7.97384 94.46 8.04984 94.644 8.04984 94.86C8.04984 95.084 7.97384 95.272 7.82184 95.424C7.66984 95.576 7.48184 95.652 7.25784 95.652C7.03384 95.652 6.84584 95.576 6.69384 95.424C6.54984 95.272 6.47784 95.084 6.47784 94.86C6.47784 94.644 6.54984 94.46 6.69384 94.308C6.84584 94.156 7.03384 94.08 7.25784 94.08ZM13.3851 98.076C13.3851 97.78 13.4851 97.532 13.6851 97.332C13.8931 97.124 14.1451 97.02 14.4411 97.02C14.7451 97.02 14.9971 97.124 15.1971 97.332C15.3971 97.532 15.4971 97.78 15.4971 98.076C15.4971 98.38 15.3971 98.632 15.1971 98.832C14.9971 99.032 14.7451 99.132 14.4411 99.132C14.1451 99.132 13.8931 99.032 13.6851 98.832C13.4851 98.624 13.3851 98.372 13.3851 98.076ZM23.7485 91.548H20.4845V94.152C20.7165 94.016 20.9445 93.924 21.1685 93.876C21.4005 93.82 21.6445 93.792 21.9005 93.792C22.5885 93.792 23.1365 94.02 23.5445 94.476C23.9605 94.932 24.1685 95.568 24.1685 96.384C24.1685 96.928 24.0525 97.408 23.8205 97.824C23.5965 98.24 23.2725 98.564 22.8485 98.796C22.4245 99.02 21.9325 99.132 21.3725 99.132C20.4525 99.132 19.6525 98.804 18.9725 98.148L19.5965 97.536C20.1005 98.048 20.6925 98.304 21.3725 98.304C21.9245 98.304 22.3525 98.136 22.6565 97.8C22.9605 97.464 23.1125 96.98 23.1125 96.348C23.1125 95.724 22.9765 95.276 22.7045 95.004C22.4325 94.724 22.0685 94.584 21.6125 94.584C21.3965 94.584 21.2005 94.604 21.0245 94.644C20.8485 94.684 20.6165 94.756 20.3285 94.86H19.5125V90.732H23.8925L23.7485 91.548Z" fill="black"/>
<path d="M190.606 71.184V72H185.842V71.184H187.87V64.836L185.986 65.976L185.542 65.268L188.002 63.732H188.89V71.184H190.606Z" fill="black"/>
<path d="M190.606 103.184V104H185.842V103.184H187.87V96.836L185.986 97.976L185.542 97.268L188.002 95.732H188.89V103.184H190.606Z" fill="black"/>
<path d="M187.63 79.6C188.134 79.6 188.574 79.7 188.95 79.9C189.334 80.1 189.626 80.376 189.826 80.728C190.026 81.072 190.126 81.464 190.126 81.904C190.126 82.416 190.006 82.912 189.766 83.392C189.534 83.872 189.158 84.4 188.638 84.976C188.118 85.544 187.382 86.264 186.43 87.136H190.318L190.198 88H185.278V87.184C186.358 86.152 187.158 85.344 187.678 84.76C188.206 84.176 188.57 83.676 188.77 83.26C188.97 82.844 189.07 82.404 189.07 81.94C189.07 81.476 188.938 81.112 188.674 80.848C188.41 80.584 188.046 80.452 187.582 80.452C187.19 80.452 186.862 80.52 186.598 80.656C186.342 80.784 186.078 81.008 185.806 81.328L185.11 80.788C185.438 80.38 185.802 80.08 186.202 79.888C186.61 79.696 187.086 79.6 187.63 79.6Z" fill="black"/>
<line x1="168.402" y1="68.5" x2="179.402" y2="68.5" stroke="#B3B3B3" stroke-linecap="round" stroke-dasharray="2 3"/>
<line x1="168.402" y1="84.5" x2="179.402" y2="84.5" stroke="#B3B3B3" stroke-linecap="round" stroke-dasharray="2 3"/>
<line x1="168.402" y1="100.5" x2="179.402" y2="100.5" stroke="#B3B3B3" stroke-linecap="round" stroke-dasharray="2 3"/>
<line x1="28.4016" y1="93.5" x2="39.4016" y2="93.5" stroke="#B3B3B3" stroke-linecap="round" stroke-dasharray="2 3"/>
<line x1="68.4016" y1="219.5" x2="68.4016" y2="208.5" stroke="#B3B3B3" stroke-linecap="round" stroke-dasharray="2 3"/>
<line x1="116.402" y1="220.5" x2="116.402" y2="209.5" stroke="#B3B3B3" stroke-linecap="round" stroke-dasharray="2 3"/>
<line x1="128.402" y1="220.5" x2="128.402" y2="209.5" stroke="#B3B3B3" stroke-linecap="round" stroke-dasharray="2 3"/>
<line x1="144.402" y1="220.5" x2="144.402" y2="209.5" stroke="#B3B3B3" stroke-linecap="round" stroke-dasharray="2 3"/>
<line x1="28.4016" y1="73.5" x2="39.4016" y2="73.5" stroke="#B3B3B3" stroke-linecap="round" stroke-dasharray="2 3"/>
</svg>
