<svg fill="none" height="160" viewBox="0 0 307 160" width="307" xmlns="http://www.w3.org/2000/svg"><path d="m12 8h280v65h-280z" fill="#00d9ff" fill-opacity=".25"/><path d="m12 8h280v65h-280z" stroke="#30c2fc"/><path d="m8.5 5.5h7v7h-7zm0 64h7v7h-7zm280 0h7v7h-7zm0-64h7v7h-7z" fill="#fff" stroke="#30c2fc"/><path d="m12 88h280v65h-280z" fill="#ffff7a" fill-opacity=".5"/><path d="m25.68 95.8h-13.03v2.52h4.91v15.68h3.12v-15.68h5zm8.99 4.97a4.6 4.6 0 0 0 -3.75 1.63v-6.6h-3.01v18.2h3.01v-7.51c0-2.06 1.07-3.28 2.84-3.28 1.53 0 2.41.91 2.41 2.6v8.19h3.02v-8.48c0-2.86-1.82-4.75-4.52-4.75zm9.27-1.07c1.07 0 1.98-.88 1.98-1.95a2 2 0 0 0 -1.98-1.98c-1.06 0-1.95.91-1.95 1.98s.89 1.95 1.95 1.95zm-1.5 14.3h3.04v-13h-3.04zm10.94.23c2.96 0 4.91-1.58 4.91-4 0-1.92-1.14-3.15-3.64-3.74l-1.64-.42c-1.04-.23-1.56-.73-1.56-1.5 0-.9.76-1.44 1.93-1.44 1.24 0 2 .5 2.36 1.59l2.26-1.3c-.65-1.7-2.31-2.65-4.62-2.65-2.89 0-4.74 1.53-4.74 3.95 0 1.87 1.17 3.1 3.51 3.66l1.62.4c1.2.28 1.71.72 1.71 1.58 0 .99-.78 1.5-2.08 1.5-1.4 0-2.44-.59-3.14-1.76l-2.03 1.48c1.04 1.74 2.78 2.65 5.15 2.65zm15.3-14.53c1.06 0 1.97-.88 1.97-1.95a2 2 0 0 0 -1.98-1.98c-1.06 0-1.95.91-1.95 1.98s.89 1.95 1.95 1.95zm-1.52 14.3h3.04v-13h-3.04zm10.94.23c2.96 0 4.91-1.58 4.91-4 0-1.92-1.14-3.15-3.64-3.74l-1.64-.42c-1.04-.23-1.56-.73-1.56-1.5 0-.9.76-1.44 1.93-1.44 1.24 0 2 .5 2.36 1.59l2.26-1.3c-.65-1.7-2.3-2.65-4.62-2.65-2.89 0-4.74 1.53-4.74 3.95 0 1.87 1.17 3.1 3.51 3.66l1.62.4c1.2.28 1.71.72 1.71 1.58 0 .99-.78 1.5-2.08 1.5-1.4 0-2.44-.59-3.14-1.76l-2.03 1.48c1.04 1.74 2.78 2.65 5.15 2.65zm24.08-3.12v-5.43c0-3.15-1.97-4.91-5.5-4.91-2.6 0-4.38 1.01-5.16 2.9l2.32 1.18c.41-1.1 1.37-1.72 2.67-1.72 1.64 0 2.63.91 2.63 2.4v.33l-3.4.52c-3.2.47-4.71 1.8-4.71 4.08 0 2.27 1.71 3.77 4.37 3.77a4.7 4.7 0 0 0 4-1.92c.18 1.22 1.04 1.92 2.31 1.92.55 0 1.1-.07 1.38-.23l.03-1.95c-.65 0-.94-.29-.94-.94zm-6.29.91c-1.14 0-1.98-.7-1.98-1.66 0-1.17.78-1.82 2.55-2.08l2.68-.42v.47c0 2.29-1.22 3.7-3.25 3.7zm18.48 2.21c.62 0 1.2-.07 1.43-.2v-2.3c-.16.03-.29.06-.45.06-.39 0-.64-.23-.64-.73v-15.26h-3.05v15.55c0 1.69 1.15 2.88 2.7 2.88zm15.82-6.55c0-4.18-2.39-6.89-6.16-6.89-3.74 0-6.32 2.7-6.32 6.71 0 3.93 2.6 6.73 6.56 6.73 2.75 0 4.57-1.09 5.5-2.75l-2-1.38a3.86 3.86 0 0 1 -3.5 1.8c-1.7 0-3.44-1.12-3.62-3.52h9.47c.02-.13.07-.52.07-.7zm-6.16-4.55c1.87 0 3 1.2 3.28 3.25h-6.63c.28-2.08 1.53-3.25 3.35-3.25zm16.87-2.13-3.27 10.01-3.28-10.01h-3.2l4.79 13h3.32l4.79-13zm16.58 6.68c0-4.18-2.39-6.89-6.16-6.89-3.74 0-6.32 2.7-6.32 6.71 0 3.93 2.6 6.73 6.56 6.73 2.75 0 4.57-1.09 5.5-2.75l-2-1.38a3.86 3.86 0 0 1 -3.5 1.8c-1.7 0-3.44-1.12-3.62-3.52h9.47c.02-.13.07-.52.07-.7zm-6.16-4.55c1.87 0 3 1.2 3.28 3.25h-6.63c.28-2.08 1.53-3.25 3.35-3.25zm11.56 11.1c.63 0 1.2-.07 1.43-.2v-2.3c-.15.03-.28.06-.44.06-.39 0-.65-.23-.65-.73v-15.26h-3.04v15.55c0 1.69 1.14 2.88 2.7 2.88zm14.62-2.7 2.29-2.37c2.44-2.54 5.12-5.1 5.12-8.13 0-3.23-2.4-5.44-5.88-5.44-3.14 0-5.27 1.61-5.8 4.27l2.6.96c.42-1.85 1.57-2.76 3.2-2.76 1.77 0 2.97 1.12 2.97 2.97 0 2.02-1.43 3.35-4.3 6.29l-4.57 4.76v1.92h11.8v-2.47zm23.66-10.76a4.6 4.6 0 0 0 -3.74 1.63v-6.6h-3.02v18.2h3.02v-7.51c0-2.06 1.06-3.28 2.83-3.28 1.54 0 2.42.91 2.42 2.6v8.19h3.02v-8.48c0-2.86-1.82-4.75-4.53-4.75zm19.4 6.91c0-4.18-2.4-6.89-6.17-6.89-3.74 0-6.32 2.7-6.32 6.71 0 3.93 2.6 6.73 6.56 6.73 2.75 0 4.57-1.09 5.5-2.75l-2-1.38a3.86 3.86 0 0 1 -3.5 1.8c-1.7 0-3.44-1.12-3.62-3.52h9.47c.02-.13.07-.52.07-.7zm-6.17-4.55c1.87 0 3 1.2 3.28 3.25h-6.63c.28-2.08 1.53-3.25 3.35-3.25zm19.28 7.98v-5.43c0-3.15-1.97-4.91-5.5-4.91-2.6 0-4.38 1.01-5.16 2.9l2.32 1.18c.42-1.1 1.38-1.72 2.68-1.72 1.63 0 2.62.91 2.62 2.4v.33l-3.4.52c-3.2.47-4.7 1.8-4.7 4.08 0 2.27 1.7 3.77 4.36 3.77a4.7 4.7 0 0 0 4-1.92c.19 1.22 1.04 1.92 2.32 1.92.54 0 1.09-.07 1.38-.23l.02-1.95c-.65 0-.94-.29-.94-.94zm-6.29.91c-1.14 0-1.97-.7-1.97-1.66 0-1.17.78-1.82 2.54-2.08l2.68-.42v.47c0 2.29-1.22 3.7-3.25 3.7zm19.35-16.22v6.94a5.05 5.05 0 0 0 -4.18-1.97c-3.46 0-6.11 2.86-6.11 6.73s2.65 6.73 6.1 6.73c1.96 0 3.57-.85 4.53-2.5v2.27h2.7v-18.2zm-3.74 15.99c-2.1 0-3.51-1.74-3.51-4.29s1.4-4.29 3.5-4.29c2.22 0 3.75 1.77 3.75 4.29s-1.53 4.29-3.74 4.29zm11.7-12.09c1.07 0 1.98-.88 1.98-1.95a2 2 0 0 0 -1.97-1.98 1.96 1.96 0 0 0 0 3.93zm-1.5 14.3h3.04v-13h-3.04zm13.3-13.23c-1.92 0-3.45.83-4.18 2.18v-1.95h-2.68v13h3.04v-7.49c0-2.05 1.04-3.3 2.81-3.3 1.53 0 2.42.94 2.42 2.57v8.22h3.04v-8.45c0-2.94-1.72-4.78-4.44-4.78zm17 .23v2.1a4.84 4.84 0 0 0 -4.31-2.33c-3.33 0-5.83 2.73-5.83 6.4 0 3.63 2.5 6.36 5.83 6.36 1.66 0 3.04-.65 3.98-1.84v1.35c0 2.31-1.56 3.69-3.8 3.69a5.94 5.94 0 0 1 -3.98-1.46l-1.32 2.27a8.27 8.27 0 0 0 5.3 1.63c4.21 0 6.84-2.36 6.84-6.21v-11.96h-2.7zm-3.84 10.09c-1.95 0-3.28-1.59-3.28-3.93 0-2.36 1.33-3.95 3.28-3.95 2.05 0 3.5 1.64 3.5 3.95 0 2.32-1.45 3.93-3.5 3.93zm-264.3 20.61c1.07 0 1.98-.88 1.98-1.95a2 2 0 0 0 -1.98-1.98c-1.06 0-1.95.91-1.95 1.98s.89 1.95 1.95 1.95zm-1.5 14.3h3.04v-13h-3.04zm13.3-13.23c-1.92 0-3.46.83-4.18 2.18v-1.95h-2.68v13h3.04v-7.49c0-2.05 1.04-3.3 2.8-3.3 1.54 0 2.43.94 2.43 2.57v8.22h3.04v-8.45c0-2.94-1.72-4.78-4.45-4.78zm22.06 13.46c3.5 0 6.03-1.69 7.02-4.29l-2.63-1.63c-.7 1.97-2.16 3.2-4.44 3.2-3.15 0-5.44-2.68-5.44-6.61s2.29-6.6 5.44-6.6c2.41 0 3.74 1.04 4.52 3.22l2.7-1.22c-.75-2.89-3.43-4.73-7.17-4.73-5.15 0-8.66 3.74-8.66 9.33s3.51 9.33 8.66 9.33zm16.97-13.46a4.6 4.6 0 0 0 -3.75 1.63v-6.6h-3.01v18.2h3.01v-7.51c0-2.06 1.07-3.28 2.84-3.28 1.53 0 2.41.91 2.41 2.6v8.19h3.02v-8.48c0-2.86-1.82-4.75-4.52-4.75zm13.95 0c-1.69 0-3.12.9-3.8 2.34v-2.11h-2.67v13h3.04v-7.3c0-2.22 1.28-3.3 3.36-3.3.49 0 .93.04 1.27.12v-2.62c-.2-.06-.65-.13-1.2-.13zm9 13.46c3.78 0 6.56-2.75 6.56-6.73s-2.78-6.73-6.55-6.73-6.56 2.75-6.56 6.73 2.79 6.73 6.56 6.73zm0-2.44c-2.07 0-3.5-1.72-3.5-4.29s1.43-4.29 3.5-4.29c2.09 0 3.52 1.72 3.52 4.29s-1.43 4.29-3.51 4.29zm23.67-11a4.3 4.3 0 0 0 -4.03 2.42c-.6-1.56-1.95-2.42-4.06-2.42-1.69 0-3.04.83-3.77 2.06v-1.85h-2.68v13h3.02v-7.7c0-1.9.99-3.09 2.65-3.09 1.59 0 2.42.88 2.42 2.57v8.22h3.02v-7.8c0-1.9.98-2.99 2.65-2.99 1.58 0 2.42.88 2.42 2.57v8.22h3.01v-8.45c0-3.02-1.64-4.76-4.65-4.76zm19.51 6.9c0-4.2-2.39-6.9-6.16-6.9-3.74 0-6.32 2.7-6.32 6.71 0 3.93 2.6 6.73 6.55 6.73 2.76 0 4.58-1.09 5.52-2.75l-2-1.38a3.86 3.86 0 0 1 -3.52 1.8c-1.69 0-3.43-1.12-3.61-3.52h9.46c.03-.13.08-.52.08-.7zm-6.16-4.56c1.87 0 2.99 1.2 3.28 3.25h-6.63c.28-2.08 1.53-3.25 3.35-3.25zm24.94 1.28c1.4-.73 2.18-2.06 2.18-3.85 0-2.91-2.05-4.76-5.3-4.76h-6.6v18.2h7.56c3.17 0 5.46-2.1 5.46-5.07a4.65 4.65 0 0 0 -3.3-4.52zm-4.03-6.09c1.95 0 3.06.86 3.06 2.5 0 1.58-1.09 2.5-3.06 2.5h-2.58v-5zm.85 13.13h-3.43v-5.61h3.44c2.18 0 3.3 1.04 3.3 2.8 0 1.82-1.2 2.81-3.3 2.81zm15.99-10.68c-1.7 0-3.12.9-3.8 2.34v-2.11h-2.68v13h3.05v-7.3c0-2.22 1.27-3.3 3.35-3.3.5 0 .94.04 1.27.12v-2.62c-.2-.06-.65-.13-1.2-.13zm9 13.46c3.77 0 6.55-2.75 6.55-6.73s-2.78-6.73-6.55-6.73-6.55 2.75-6.55 6.73 2.78 6.73 6.55 6.73zm0-2.44c-2.08 0-3.51-1.72-3.51-4.29s1.43-4.29 3.5-4.29c2.09 0 3.52 1.72 3.52 4.29s-1.43 4.29-3.51 4.29zm23.1-10.79-2.08 9.8-2.68-9.8h-2.89l-2.67 9.83-2.08-9.83h-3.12l3.46 13h3.14l2.68-9.05 2.75 9.05h3.07l3.46-13zm9.31 13.23c2.97 0 4.92-1.58 4.92-4 0-1.92-1.15-3.15-3.64-3.74l-1.64-.42c-1.04-.23-1.56-.73-1.56-1.5 0-.9.75-1.44 1.92-1.44 1.25 0 2 .5 2.37 1.59l2.26-1.3c-.65-1.7-2.31-2.65-4.63-2.65-2.88 0-4.73 1.53-4.73 3.95 0 1.87 1.17 3.1 3.51 3.66l1.61.4c1.2.28 1.72.72 1.72 1.58 0 .99-.78 1.5-2.08 1.5-1.4 0-2.44-.59-3.15-1.76l-2.02 1.48c1.04 1.74 2.78 2.65 5.14 2.65zm19.42-6.55c0-4.18-2.39-6.89-6.16-6.89-3.74 0-6.32 2.7-6.32 6.71 0 3.93 2.6 6.73 6.56 6.73 2.75 0 4.57-1.09 5.5-2.75l-2-1.38a3.86 3.86 0 0 1 -3.5 1.8c-1.7 0-3.44-1.12-3.62-3.52h9.47c.02-.13.07-.52.07-.7zm-6.16-4.55c1.87 0 3 1.2 3.28 3.25h-6.63c.28-2.08 1.53-3.25 3.35-3.25zm15.18-2.36c-1.7 0-3.12.9-3.8 2.34v-2.11h-2.68v13h3.04v-7.3c0-2.22 1.28-3.3 3.36-3.3.5 0 .94.04 1.27.12v-2.62c-.2-.06-.65-.13-1.2-.13z" fill="#333"/><path d="m12 88h280v65h-280z" stroke="#30c2fc"/><path d="m8.5 85.5h7v7h-7zm0 64h7v7h-7zm280 0h7v7h-7zm0-64h7v7h-7z" fill="#fff" stroke="#30c2fc"/><path d="m25.68 14.8h-13.03v2.52h4.91v15.68h3.12v-15.68h5zm8.99 4.97a4.6 4.6 0 0 0 -3.75 1.63v-6.6h-3.01v18.2h3.01v-7.51c0-2.06 1.07-3.28 2.84-3.28 1.53 0 2.41.91 2.41 2.6v8.19h3.02v-8.48c0-2.86-1.82-4.75-4.52-4.75zm9.27-1.07c1.07 0 1.98-.88 1.98-1.95a2 2 0 0 0 -1.98-1.98c-1.06 0-1.95.91-1.95 1.98s.89 1.95 1.95 1.95zm-1.5 14.3h3.04v-13h-3.04zm10.94.23c2.96 0 4.91-1.58 4.91-4 0-1.92-1.14-3.15-3.64-3.74l-1.64-.42c-1.04-.23-1.56-.73-1.56-1.5 0-.9.76-1.44 1.93-1.44 1.24 0 2 .5 2.36 1.59l2.26-1.3c-.65-1.7-2.31-2.65-4.62-2.65-2.89 0-4.74 1.53-4.74 3.95 0 1.87 1.17 3.1 3.51 3.66l1.62.4c1.2.28 1.71.72 1.71 1.58 0 .99-.78 1.5-2.08 1.5-1.4 0-2.44-.59-3.14-1.76l-2.03 1.48c1.04 1.74 2.78 2.65 5.15 2.65zm15.3-14.53c1.06 0 1.97-.88 1.97-1.95a2 2 0 0 0 -1.98-1.98c-1.06 0-1.95.91-1.95 1.98s.89 1.95 1.95 1.95zm-1.52 14.3h3.04v-13h-3.04zm10.94.23c2.96 0 4.91-1.58 4.91-4 0-1.92-1.14-3.15-3.64-3.74l-1.64-.42c-1.04-.23-1.56-.73-1.56-1.5 0-.9.76-1.44 1.93-1.44 1.24 0 2 .5 2.36 1.59l2.26-1.3c-.65-1.7-2.3-2.65-4.62-2.65-2.89 0-4.74 1.53-4.74 3.95 0 1.87 1.17 3.1 3.51 3.66l1.62.4c1.2.28 1.71.72 1.71 1.58 0 .99-.78 1.5-2.08 1.5-1.4 0-2.44-.59-3.14-1.76l-2.03 1.48c1.04 1.74 2.78 2.65 5.15 2.65zm24.08-3.12v-5.43c0-3.15-1.97-4.91-5.5-4.91-2.6 0-4.38 1.01-5.16 2.9l2.32 1.18c.41-1.1 1.37-1.72 2.67-1.72 1.64 0 2.63.91 2.63 2.4v.33l-3.4.52c-3.2.47-4.71 1.8-4.71 4.08 0 2.27 1.71 3.77 4.37 3.77a4.7 4.7 0 0 0 4-1.92c.18 1.22 1.04 1.92 2.31 1.92.55 0 1.1-.07 1.38-.23l.03-1.95c-.65 0-.94-.29-.94-.94zm-6.29.91c-1.14 0-1.98-.7-1.98-1.66 0-1.17.78-1.82 2.55-2.08l2.68-.42v.47c0 2.29-1.22 3.7-3.25 3.7zm18.48 2.21c.62 0 1.2-.07 1.43-.2v-2.3c-.16.03-.29.06-.45.06-.39 0-.64-.23-.64-.73v-15.26h-3.05v15.55c0 1.69 1.15 2.88 2.7 2.88zm15.82-6.55c0-4.18-2.39-6.89-6.16-6.89-3.74 0-6.32 2.7-6.32 6.71 0 3.93 2.6 6.73 6.56 6.73 2.75 0 4.57-1.09 5.5-2.75l-2-1.38a3.86 3.86 0 0 1 -3.5 1.8c-1.7 0-3.44-1.12-3.62-3.52h9.47c.02-.13.07-.52.07-.7zm-6.16-4.55c1.87 0 3 1.2 3.28 3.25h-6.63c.28-2.08 1.53-3.25 3.35-3.25zm16.87-2.13-3.27 10.01-3.29-10.01h-3.2l4.79 13h3.32l4.79-13h-3.15zm16.58 6.68c0-4.18-2.39-6.89-6.16-6.89-3.74 0-6.32 2.7-6.32 6.71 0 3.93 2.6 6.73 6.56 6.73 2.75 0 4.57-1.09 5.5-2.75l-2-1.38a3.86 3.86 0 0 1 -3.5 1.8c-1.7 0-3.44-1.12-3.62-3.52h9.47c.02-.13.07-.52.07-.7zm-6.16-4.55c1.87 0 3 1.2 3.28 3.25h-6.63c.28-2.08 1.53-3.25 3.35-3.25zm11.56 11.1c.63 0 1.2-.07 1.43-.2v-2.3c-.15.03-.28.06-.44.06-.39 0-.65-.23-.65-.73v-15.26h-3.04v15.55c0 1.69 1.14 2.88 2.7 2.88zm14.62-2.7 2.29-2.37c2.44-2.54 5.12-5.1 5.12-8.13 0-3.23-2.4-5.44-5.88-5.44-3.14 0-5.27 1.61-5.8 4.27l2.6.96c.42-1.85 1.57-2.76 3.2-2.76 1.77 0 2.97 1.12 2.97 2.97 0 2.02-1.43 3.35-4.3 6.29l-4.57 4.76v1.92h11.8v-2.47zm23.66-10.76a4.6 4.6 0 0 0 -3.74 1.63v-6.6h-3.02v18.2h3.02v-7.51c0-2.06 1.06-3.28 2.83-3.28 1.54 0 2.42.91 2.42 2.6v8.19h3.02v-8.48c0-2.86-1.82-4.75-4.53-4.75zm19.4 6.91c0-4.18-2.4-6.89-6.17-6.89-3.74 0-6.32 2.7-6.32 6.71 0 3.93 2.6 6.73 6.56 6.73 2.75 0 4.57-1.09 5.5-2.75l-2-1.38a3.86 3.86 0 0 1 -3.5 1.8c-1.7 0-3.44-1.12-3.62-3.52h9.47c.02-.13.07-.52.07-.7zm-6.17-4.55c1.87 0 3 1.2 3.28 3.25h-6.63c.28-2.08 1.53-3.25 3.35-3.25zm19.28 7.98v-5.43c0-3.15-1.97-4.91-5.5-4.91-2.6 0-4.38 1.01-5.16 2.9l2.32 1.18c.42-1.1 1.38-1.72 2.68-1.72 1.63 0 2.62.91 2.62 2.4v.33l-3.4.52c-3.2.47-4.7 1.8-4.7 4.08 0 2.27 1.7 3.77 4.36 3.77a4.7 4.7 0 0 0 4-1.92c.19 1.22 1.04 1.92 2.32 1.92.54 0 1.09-.07 1.38-.23l.02-1.95c-.65 0-.94-.29-.94-.94zm-6.29.91c-1.14 0-1.97-.7-1.97-1.66 0-1.17.78-1.82 2.54-2.08l2.68-.42v.47c0 2.29-1.22 3.7-3.25 3.7zm19.35-16.22v6.94a5.05 5.05 0 0 0 -4.18-1.97c-3.46 0-6.11 2.86-6.11 6.73s2.65 6.73 6.1 6.73c1.96 0 3.57-.85 4.53-2.5v2.27h2.7v-18.2zm-3.74 15.99c-2.1 0-3.51-1.74-3.51-4.29s1.4-4.29 3.5-4.29c2.22 0 3.75 1.77 3.75 4.29s-1.53 4.29-3.74 4.29zm11.7-12.09c1.07 0 1.98-.88 1.98-1.95a2 2 0 0 0 -1.97-1.98 1.96 1.96 0 0 0 0 3.93zm-1.5 14.3h3.04v-13h-3.04zm13.3-13.23c-1.92 0-3.45.83-4.18 2.18v-1.95h-2.68v13h3.04v-7.49c0-2.05 1.04-3.3 2.81-3.3 1.53 0 2.42.94 2.42 2.57v8.22h3.04v-8.45c0-2.94-1.72-4.78-4.44-4.78zm17 .23v2.1a4.84 4.84 0 0 0 -4.31-2.33c-3.33 0-5.83 2.73-5.83 6.4 0 3.63 2.5 6.36 5.83 6.36 1.66 0 3.04-.65 3.98-1.84v1.35c0 2.31-1.56 3.69-3.8 3.69a5.94 5.94 0 0 1 -3.98-1.46l-1.32 2.27a8.27 8.27 0 0 0 5.3 1.63c4.21 0 6.84-2.36 6.84-6.21v-11.96h-2.7zm-3.84 10.09c-1.95 0-3.28-1.59-3.28-3.93 0-2.36 1.33-3.95 3.28-3.95 2.05 0 3.5 1.64 3.5 3.95 0 2.32-1.45 3.93-3.5 3.93zm-264.3 20.61c1.07 0 1.98-.88 1.98-1.95a2 2 0 0 0 -1.98-1.98c-1.06 0-1.95.91-1.95 1.98s.89 1.95 1.95 1.95zm-1.5 14.3h3.04v-13h-3.04zm13.3-13.23c-1.92 0-3.46.83-4.18 2.18v-1.95h-2.68v13h3.04v-7.49c0-2.05 1.04-3.3 2.8-3.3 1.54 0 2.43.94 2.43 2.57v8.22h3.04v-8.45c0-2.94-1.72-4.78-4.45-4.78zm24.63-2.45v-2.52h-10.71v18.2h3.12v-7.83h6.6v-2.5h-6.6v-5.35h7.6zm4.12 1.38c1.07 0 1.98-.88 1.98-1.95a2 2 0 0 0 -1.98-1.98c-1.06 0-1.95.91-1.95 1.98s.89 1.95 1.95 1.95zm-1.5 14.3h3.04v-13h-3.05v13zm16.03-13v2.1a4.84 4.84 0 0 0 -4.31-2.33c-3.33 0-5.83 2.73-5.83 6.4 0 3.63 2.5 6.36 5.83 6.36 1.66 0 3.04-.65 3.97-1.84v1.35c0 2.31-1.56 3.69-3.8 3.69a5.94 5.94 0 0 1 -3.97-1.46l-1.33 2.27a8.27 8.27 0 0 0 5.3 1.63c4.22 0 6.85-2.36 6.85-6.21v-11.96h-2.7zm-3.85 10.09c-1.95 0-3.27-1.59-3.27-3.93 0-2.36 1.32-3.95 3.27-3.95 2.06 0 3.51 1.64 3.51 3.95 0 2.32-1.45 3.93-3.5 3.93zm24.2-10.3a4.3 4.3 0 0 0 -4.03 2.42c-.6-1.56-1.95-2.42-4.05-2.42-1.7 0-3.04.83-3.77 2.06v-1.85h-2.68v13h3.02v-7.7c0-1.9.98-3.09 2.65-3.09 1.58 0 2.42.88 2.42 2.57v8.22h3.01v-7.8c0-1.9.99-2.99 2.65-2.99 1.59 0 2.42.88 2.42 2.57v8.22h3.02v-8.45c0-3.02-1.64-4.76-4.66-4.76zm18.2 10.32v-5.43c0-3.15-1.98-4.91-5.52-4.91-2.6 0-4.37 1.01-5.15 2.9l2.32 1.18c.41-1.1 1.37-1.72 2.67-1.72 1.64 0 2.63.91 2.63 2.4v.33l-3.4.52c-3.2.47-4.71 1.8-4.71 4.08 0 2.27 1.71 3.77 4.37 3.77a4.7 4.7 0 0 0 4-1.92c.18 1.22 1.04 1.92 2.31 1.92.55 0 1.1-.07 1.38-.23l.03-1.95c-.65 0-.94-.29-.94-.94zm-6.3.91c-1.14 0-1.98-.7-1.98-1.66 0-1.17.78-1.82 2.55-2.08l2.68-.42v.47c0 2.29-1.22 3.7-3.25 3.7z" fill="#333"/></svg>