<svg width="288" height="160" viewBox="0 0 288 160" fill="none" xmlns="http://www.w3.org/2000/svg">
<rect x="12" y="9" width="264" height="64" fill="#00D9FF" fill-opacity="0.25"/>
<path d="M17.88 28H20.472V13.144H26.136V11.032H12.216V13.144H17.88V28ZM28.2632 28H30.7832V18.136C31.7672 17.536 33.0872 16.792 34.6232 16.792C36.5672 16.792 36.9512 17.872 36.9512 20.008V28H39.3992V19.648C39.3992 17.224 39.1832 14.584 35.3192 14.584C33.3272 14.584 31.7912 15.616 30.7832 16.36V9.904H28.2632V28ZM43.0991 28H45.6431V14.896H43.0991V28ZM44.3471 12.76L46.2671 10.84L44.3471 8.92L42.4511 10.84L44.3471 12.76ZM52.3553 28.288C54.8033 28.288 57.7793 27.376 57.7793 24.4C57.7793 19.96 51.2273 20.8 51.2273 18.184C51.2273 17.296 51.9233 16.6 53.5793 16.6C54.5872 16.6 55.7393 16.816 56.6273 17.128L57.1313 15.232C56.0753 14.8 54.6833 14.56 53.5553 14.56C50.9393 14.56 48.7553 15.832 48.7553 18.376C48.7553 22.792 55.3553 22 55.3553 24.52C55.3553 25.552 54.3713 26.224 52.4753 26.224C51.4193 26.224 50.1473 26.008 48.8513 25.696L48.4913 27.712C49.5473 28.048 51.1553 28.288 52.3553 28.288ZM66.5366 28H69.0806V14.896H66.5366V28ZM67.7846 12.76L69.7046 10.84L67.7846 8.92L65.8886 10.84L67.7846 12.76ZM75.7928 28.288C78.2408 28.288 81.2168 27.376 81.2168 24.4C81.2168 19.96 74.6648 20.8 74.6648 18.184C74.6648 17.296 75.3608 16.6 77.0168 16.6C78.0247 16.6 79.1768 16.816 80.0648 17.128L80.5688 15.232C79.5128 14.8 78.1208 14.56 76.9928 14.56C74.3768 14.56 72.1928 15.832 72.1928 18.376C72.1928 22.792 78.7928 22 78.7928 24.52C78.7928 25.552 77.8088 26.224 75.9128 26.224C74.8568 26.224 73.5848 26.008 72.2888 25.696L71.9288 27.712C72.9848 28.048 74.5928 28.288 75.7928 28.288ZM93.0221 28.216C95.1101 28.216 96.4541 27.184 97.2701 26.56C97.5101 27.736 98.8301 28.144 100.174 28.144C100.342 28.144 100.606 28.12 100.774 28.096L100.87 26.176C100.198 26.152 99.5021 25.984 99.5021 25.168V18.328C99.5021 15.664 97.7741 14.56 94.6301 14.56C92.7101 14.56 91.2461 14.944 90.0221 15.448L90.5501 17.344C91.6781 16.96 92.8301 16.72 94.2221 16.72C96.1421 16.72 97.0541 17.2 97.0541 19V20.416L94.1981 20.464C91.9181 20.488 88.9901 21.16 88.9901 24.472C88.9901 26.896 90.5981 28.216 93.0221 28.216ZM93.6701 26.224C92.3981 26.224 91.4381 25.624 91.4381 24.304C91.4381 22.96 92.4701 22.192 94.2701 22.144L97.0541 22.024V25.048C96.1181 25.648 94.8461 26.224 93.6701 26.224ZM109.498 28H112.018V9.904H109.498V28ZM121.49 28.288C123.194 28.288 124.754 28 125.906 27.568L125.474 25.624C124.178 26.008 123.122 26.2 121.874 26.2C119.57 26.2 117.602 25.504 117.578 22.048H126.194V21.16C126.194 16.888 124.658 14.56 120.986 14.56C117.698 14.56 115.058 16.504 115.058 21.688C115.058 26.752 117.578 28.288 121.49 28.288ZM117.65 20.296C117.818 17.728 119.114 16.456 120.842 16.456C122.762 16.456 123.602 17.968 123.602 20.296H117.65ZM132.041 28H135.257L140.105 14.896H137.489L134.585 23.296L133.697 26.08L132.905 23.344L130.313 14.896H127.601L132.041 28ZM147.834 28.288C149.538 28.288 151.098 28 152.25 27.568L151.818 25.624C150.522 26.008 149.466 26.2 148.218 26.2C145.914 26.2 143.946 25.504 143.922 22.048H152.538V21.16C152.538 16.888 151.002 14.56 147.33 14.56C144.042 14.56 141.402 16.504 141.402 21.688C141.402 26.752 143.922 28.288 147.834 28.288ZM143.994 20.296C144.162 17.728 145.458 16.456 147.186 16.456C149.106 16.456 149.946 17.968 149.946 20.296H143.994ZM155.529 28H158.049V9.904H155.529V28ZM177.938 28V25.888H169.922C173.498 22.696 177.05 19.384 177.05 15.76C177.05 13.504 176.21 10.84 171.866 10.84C169.394 10.84 168.122 11.56 167.282 12.112L168.146 13.888C168.698 13.6 169.802 12.976 171.626 12.976C173.45 12.976 174.506 13.696 174.506 15.976C174.506 19.264 167.666 25.192 166.73 26.104V28H177.938ZM186.794 28H189.314V18.136C190.298 17.536 191.618 16.792 193.154 16.792C195.098 16.792 195.482 17.872 195.482 20.008V28H197.93V19.648C197.93 17.224 197.714 14.584 193.85 14.584C191.858 14.584 190.322 15.616 189.314 16.36V9.904H186.794V28ZM207.318 28.288C209.022 28.288 210.582 28 211.734 27.568L211.302 25.624C210.006 26.008 208.95 26.2 207.702 26.2C205.398 26.2 203.43 25.504 203.406 22.048H212.022V21.16C212.022 16.888 210.486 14.56 206.814 14.56C203.526 14.56 200.886 16.504 200.886 21.688C200.886 26.752 203.406 28.288 207.318 28.288ZM203.478 20.296C203.646 17.728 204.942 16.456 206.67 16.456C208.59 16.456 209.43 17.968 209.43 20.296H203.478ZM218.061 28.216C220.149 28.216 221.493 27.184 222.309 26.56C222.549 27.736 223.869 28.144 225.213 28.144C225.381 28.144 225.645 28.12 225.813 28.096L225.909 26.176C225.237 26.152 224.541 25.984 224.541 25.168V18.328C224.541 15.664 222.813 14.56 219.669 14.56C217.749 14.56 216.285 14.944 215.061 15.448L215.589 17.344C216.717 16.96 217.869 16.72 219.261 16.72C221.181 16.72 222.093 17.2 222.093 19V20.416L219.237 20.464C216.957 20.488 214.029 21.16 214.029 24.472C214.029 26.896 215.637 28.216 218.061 28.216ZM218.709 26.224C217.437 26.224 216.477 25.624 216.477 24.304C216.477 22.96 217.509 22.192 219.309 22.144L222.093 22.024V25.048C221.157 25.648 219.885 26.224 218.709 26.224ZM233.24 28.24C234.896 28.24 235.808 27.568 236.624 26.824V28H239.144V9.904H236.624V14.848C235.76 14.632 235.184 14.56 234.464 14.56C230.648 14.56 227.792 16.696 227.792 21.688C227.792 27.016 231.008 28.24 233.24 28.24ZM233.648 26.128C231.824 26.128 230.312 24.832 230.312 21.544C230.312 18.88 231.32 16.576 234.44 16.576C235.472 16.576 236.312 16.816 236.624 16.936V24.952C236.024 25.408 234.896 26.128 233.648 26.128ZM242.927 28H245.471V14.896H242.927V28ZM244.175 12.76L246.095 10.84L244.175 8.92L242.279 10.84L244.175 12.76ZM249.255 28H251.775V18.112C252.807 17.416 254.055 16.744 255.615 16.744C257.559 16.744 257.943 17.848 257.943 19.984V28H260.415V19.624C260.415 17.224 260.127 14.56 256.431 14.56C254.391 14.56 253.095 15.376 251.775 16.336V14.896H249.255V28ZM268.651 33.52C272.083 33.52 274.627 31.984 274.627 28.6V15.16C273.139 14.776 271.411 14.56 270.163 14.56C266.251 14.56 263.347 16.648 263.347 21.784C263.347 27.184 266.515 28.168 269.179 28.168C270.595 28.168 271.267 27.856 272.155 27.208V28.192C272.155 30.736 270.643 31.312 268.771 31.312C267.451 31.312 266.035 31.024 264.763 30.616L264.307 32.776C265.411 33.256 267.283 33.52 268.651 33.52ZM269.539 26.2C267.235 26.2 265.819 24.976 265.819 21.616C265.819 18.688 266.899 16.696 269.971 16.696C270.979 16.696 271.771 16.912 272.131 17.008V25.312C271.459 25.768 270.667 26.2 269.539 26.2ZM13.896 60H16.44V46.896H13.896V60ZM15.144 44.76L17.064 42.84L15.144 40.92L13.248 42.84L15.144 44.76ZM20.2241 60H22.7441V50.112C23.7761 49.416 25.0241 48.744 26.5841 48.744C28.5281 48.744 28.9121 49.848 28.9121 51.984V60H31.3841V51.624C31.3841 49.224 31.0961 46.56 27.4001 46.56C25.3601 46.56 24.0641 47.376 22.7441 48.336V46.896H20.2241V60ZM41.5166 60H44.1086V52.944H51.5246V50.928H44.1086V45.096H52.0526V43.032H41.5166V60ZM54.9819 60H57.5259V46.896H54.9819V60ZM56.2299 44.76L58.1499 42.84L56.2299 40.92L54.3339 42.84L56.2299 44.76ZM65.8701 65.52C69.3021 65.52 71.8461 63.984 71.8461 60.6V47.16C70.3581 46.776 68.6301 46.56 67.3821 46.56C63.4701 46.56 60.5661 48.648 60.5661 53.784C60.5661 59.184 63.7341 60.168 66.3981 60.168C67.8141 60.168 68.4861 59.856 69.3741 59.208V60.192C69.3741 62.736 67.8621 63.312 65.9901 63.312C64.6701 63.312 63.2541 63.024 61.9821 62.616L61.5261 64.776C62.6301 65.256 64.5021 65.52 65.8701 65.52ZM66.7581 58.2C64.4541 58.2 63.0381 56.976 63.0381 53.616C63.0381 50.688 64.1181 48.696 67.1901 48.696C68.1981 48.696 68.9901 48.912 69.3501 49.008V57.312C68.6781 57.768 67.8861 58.2 66.7581 58.2ZM75.5835 60H78.1035V50.16C79.1115 49.392 80.4075 48.768 81.6795 48.768C83.5755 48.768 83.9115 50.016 83.9115 51.984V60H86.4075V51.6C86.4075 51.12 86.3595 50.592 86.2875 50.112C87.3195 49.416 88.5675 48.768 89.8875 48.768C91.8795 48.768 92.2155 50.064 92.2155 51.984V60H94.7355V51.624C94.7355 49.416 94.5675 46.584 90.6555 46.584C88.6635 46.584 87.0795 47.64 85.9515 48.528C85.4955 47.4 84.2475 46.584 82.4475 46.584C80.7195 46.584 79.3275 47.424 78.1035 48.384V46.896H75.5835V60ZM101.46 60.216C103.548 60.216 104.892 59.184 105.708 58.56C105.948 59.736 107.268 60.144 108.612 60.144C108.78 60.144 109.044 60.12 109.212 60.096L109.308 58.176C108.636 58.152 107.94 57.984 107.94 57.168V50.328C107.94 47.664 106.212 46.56 103.068 46.56C101.148 46.56 99.6836 46.944 98.4596 47.448L98.9876 49.344C100.116 48.96 101.268 48.72 102.66 48.72C104.58 48.72 105.492 49.2 105.492 51V52.416L102.636 52.464C100.356 52.488 97.4276 53.16 97.4276 56.472C97.4276 58.896 99.0356 60.216 101.46 60.216ZM102.108 58.224C100.836 58.224 99.8756 57.624 99.8756 56.304C99.8756 54.96 100.908 54.192 102.708 54.144L105.492 54.024V57.048C104.556 57.648 103.284 58.224 102.108 58.224Z" fill="black"/>
<rect x="11.5" y="8.5" width="265" height="65" stroke="#30C2FC"/>
<rect x="8.5" y="5.5" width="7" height="7" fill="white" stroke="#30C2FC"/>
<rect x="8.5" y="69.5" width="7" height="7" fill="white" stroke="#30C2FC"/>
<rect x="272.5" y="69.5" width="7" height="7" fill="white" stroke="#30C2FC"/>
<rect x="272.5" y="5.5" width="7" height="7" fill="white" stroke="#30C2FC"/>
<rect x="12.0371" y="89" width="266.426" height="64" fill="#FFFF7A" fill-opacity="0.5"/>
<path d="M17.9171 112H20.5091V97.144H26.1731V95.032H12.2531V97.144H17.9171V112ZM28.3003 112H30.8203V102.136C31.8043 101.536 33.1243 100.792 34.6603 100.792C36.6043 100.792 36.9883 101.872 36.9883 104.008V112H39.4363V103.648C39.4363 101.224 39.2203 98.584 35.3563 98.584C33.3643 98.584 31.8283 99.616 30.8203 100.36V93.904H28.3003V112ZM43.1362 112H45.6802V98.896H43.1362V112ZM44.3842 96.76L46.3042 94.84L44.3842 92.92L42.4882 94.84L44.3842 96.76ZM52.3924 112.288C54.8404 112.288 57.8164 111.376 57.8164 108.4C57.8164 103.96 51.2644 104.8 51.2644 102.184C51.2644 101.296 51.9604 100.6 53.6164 100.6C54.6244 100.6 55.7764 100.816 56.6644 101.128L57.1684 99.232C56.1124 98.8 54.7204 98.56 53.5924 98.56C50.9764 98.56 48.7924 99.832 48.7924 102.376C48.7924 106.792 55.3924 106 55.3924 108.52C55.3924 109.552 54.4084 110.224 52.5124 110.224C51.4564 110.224 50.1844 110.008 48.8884 109.696L48.5284 111.712C49.5844 112.048 51.1924 112.288 52.3924 112.288ZM66.5737 112H69.1177V98.896H66.5737V112ZM67.8217 96.76L69.7417 94.84L67.8217 92.92L65.9257 94.84L67.8217 96.76ZM75.8299 112.288C78.2779 112.288 81.2539 111.376 81.2539 108.4C81.2539 103.96 74.7019 104.8 74.7019 102.184C74.7019 101.296 75.3979 100.6 77.0539 100.6C78.0619 100.6 79.2139 100.816 80.1019 101.128L80.6059 99.232C79.5499 98.8 78.1579 98.56 77.0299 98.56C74.4139 98.56 72.2299 99.832 72.2299 102.376C72.2299 106.792 78.8299 106 78.8299 108.52C78.8299 109.552 77.8459 110.224 75.9499 110.224C74.8939 110.224 73.6219 110.008 72.3259 109.696L71.9659 111.712C73.0219 112.048 74.6299 112.288 75.8299 112.288ZM93.0592 112.216C95.1472 112.216 96.4912 111.184 97.3072 110.56C97.5472 111.736 98.8672 112.144 100.211 112.144C100.379 112.144 100.643 112.12 100.811 112.096L100.907 110.176C100.235 110.152 99.5392 109.984 99.5392 109.168V102.328C99.5392 99.664 97.8112 98.56 94.6672 98.56C92.7472 98.56 91.2832 98.944 90.0592 99.448L90.5872 101.344C91.7152 100.96 92.8672 100.72 94.2592 100.72C96.1792 100.72 97.0912 101.2 97.0912 103V104.416L94.2352 104.464C91.9552 104.488 89.0272 105.16 89.0272 108.472C89.0272 110.896 90.6352 112.216 93.0592 112.216ZM93.7072 110.224C92.4352 110.224 91.4752 109.624 91.4752 108.304C91.4752 106.96 92.5072 106.192 94.3072 106.144L97.0912 106.024V109.048C96.1552 109.648 94.8832 110.224 93.7072 110.224ZM109.535 112H112.055V93.904H109.535V112ZM121.527 112.288C123.231 112.288 124.791 112 125.943 111.568L125.511 109.624C124.215 110.008 123.159 110.2 121.911 110.2C119.607 110.2 117.639 109.504 117.615 106.048H126.231V105.16C126.231 100.888 124.695 98.56 121.023 98.56C117.735 98.56 115.095 100.504 115.095 105.688C115.095 110.752 117.615 112.288 121.527 112.288ZM117.687 104.296C117.855 101.728 119.151 100.456 120.879 100.456C122.799 100.456 123.639 101.968 123.639 104.296H117.687ZM132.078 112H135.294L140.142 98.896H137.526L134.622 107.296L133.734 110.08L132.942 107.344L130.35 98.896H127.638L132.078 112ZM147.871 112.288C149.575 112.288 151.135 112 152.287 111.568L151.855 109.624C150.559 110.008 149.503 110.2 148.255 110.2C145.951 110.2 143.983 109.504 143.959 106.048H152.575V105.16C152.575 100.888 151.039 98.56 147.367 98.56C144.079 98.56 141.439 100.504 141.439 105.688C141.439 110.752 143.959 112.288 147.871 112.288ZM144.031 104.296C144.199 101.728 145.495 100.456 147.223 100.456C149.143 100.456 149.983 101.968 149.983 104.296H144.031ZM155.566 112H158.086V93.904H155.566V112ZM177.975 112V109.888H169.959C173.535 106.696 177.087 103.384 177.087 99.76C177.087 97.504 176.247 94.84 171.903 94.84C169.431 94.84 168.159 95.56 167.319 96.112L168.183 97.888C168.735 97.6 169.839 96.976 171.663 96.976C173.487 96.976 174.543 97.696 174.543 99.976C174.543 103.264 167.703 109.192 166.767 110.104V112H177.975ZM186.832 112H189.352V102.136C190.336 101.536 191.656 100.792 193.192 100.792C195.136 100.792 195.52 101.872 195.52 104.008V112H197.968V103.648C197.968 101.224 197.752 98.584 193.888 98.584C191.896 98.584 190.36 99.616 189.352 100.36V93.904H186.832V112ZM207.355 112.288C209.059 112.288 210.619 112 211.771 111.568L211.339 109.624C210.043 110.008 208.987 110.2 207.739 110.2C205.435 110.2 203.467 109.504 203.443 106.048H212.059V105.16C212.059 100.888 210.523 98.56 206.851 98.56C203.563 98.56 200.923 100.504 200.923 105.688C200.923 110.752 203.443 112.288 207.355 112.288ZM203.515 104.296C203.683 101.728 204.979 100.456 206.707 100.456C208.627 100.456 209.467 101.968 209.467 104.296H203.515ZM218.098 112.216C220.186 112.216 221.53 111.184 222.346 110.56C222.586 111.736 223.906 112.144 225.25 112.144C225.418 112.144 225.682 112.12 225.85 112.096L225.946 110.176C225.274 110.152 224.578 109.984 224.578 109.168V102.328C224.578 99.664 222.85 98.56 219.706 98.56C217.786 98.56 216.322 98.944 215.098 99.448L215.626 101.344C216.754 100.96 217.906 100.72 219.298 100.72C221.218 100.72 222.13 101.2 222.13 103V104.416L219.274 104.464C216.994 104.488 214.066 105.16 214.066 108.472C214.066 110.896 215.674 112.216 218.098 112.216ZM218.746 110.224C217.474 110.224 216.514 109.624 216.514 108.304C216.514 106.96 217.546 106.192 219.346 106.144L222.13 106.024V109.048C221.194 109.648 219.922 110.224 218.746 110.224ZM233.277 112.24C234.933 112.24 235.845 111.568 236.661 110.824V112H239.181V93.904H236.661V98.848C235.797 98.632 235.221 98.56 234.501 98.56C230.685 98.56 227.829 100.696 227.829 105.688C227.829 111.016 231.045 112.24 233.277 112.24ZM233.685 110.128C231.861 110.128 230.349 108.832 230.349 105.544C230.349 102.88 231.357 100.576 234.477 100.576C235.509 100.576 236.349 100.816 236.661 100.936V108.952C236.061 109.408 234.933 110.128 233.685 110.128ZM242.964 112H245.508V98.896H242.964V112ZM244.212 96.76L246.132 94.84L244.212 92.92L242.316 94.84L244.212 96.76ZM249.292 112H251.812V102.112C252.844 101.416 254.092 100.744 255.652 100.744C257.596 100.744 257.98 101.848 257.98 103.984V112H260.452V103.624C260.452 101.224 260.164 98.56 256.468 98.56C254.428 98.56 253.132 99.376 251.812 100.336V98.896H249.292V112ZM268.688 117.52C272.12 117.52 274.664 115.984 274.664 112.6V99.16C273.176 98.776 271.448 98.56 270.2 98.56C266.288 98.56 263.384 100.648 263.384 105.784C263.384 111.184 266.552 112.168 269.216 112.168C270.632 112.168 271.304 111.856 272.192 111.208V112.192C272.192 114.736 270.68 115.312 268.808 115.312C267.488 115.312 266.072 115.024 264.8 114.616L264.344 116.776C265.448 117.256 267.32 117.52 268.688 117.52ZM269.576 110.2C267.272 110.2 265.856 108.976 265.856 105.616C265.856 102.688 266.936 100.696 270.008 100.696C271.016 100.696 271.808 100.912 272.168 101.008V109.312C271.496 109.768 270.704 110.2 269.576 110.2ZM13.9331 144H16.4771V130.896H13.9331V144ZM15.1811 128.76L17.1011 126.84L15.1811 124.92L13.2851 126.84L15.1811 128.76ZM20.2612 144H22.7812V134.112C23.8132 133.416 25.0612 132.744 26.6212 132.744C28.5652 132.744 28.9492 133.848 28.9492 135.984V144H31.4212V135.624C31.4212 133.224 31.1332 130.56 27.4372 130.56C25.3972 130.56 24.1012 131.376 22.7812 132.336V130.896H20.2612V144ZM49.4497 144.288C51.8017 144.288 53.1457 143.928 54.4177 143.448L53.8177 141.432C52.6897 141.792 51.4657 142.032 49.8577 142.032C46.0897 142.032 43.1137 140.016 43.1137 135.384C43.1137 130.848 45.9937 128.976 49.4017 129C51.3217 129 52.3057 129.312 53.6497 129.744L54.3937 127.776C53.3377 127.272 51.8497 126.792 49.3537 126.792C43.7857 126.792 40.4737 130.272 40.4737 135.624C40.4737 140.832 43.6657 144.288 49.4497 144.288ZM57.3159 144H59.8359V134.136C60.8199 133.536 62.1399 132.792 63.6759 132.792C65.6199 132.792 66.0039 133.872 66.0039 136.008V144H68.4519V135.648C68.4519 133.224 68.2359 130.584 64.3719 130.584C62.3799 130.584 60.8439 131.616 59.8359 132.36V125.904H57.3159V144ZM72.1519 144H74.6719V134.592C75.2479 133.728 76.4479 132.768 77.9359 132.768C78.6799 132.768 79.0159 132.816 79.5439 132.936L79.9039 130.824C79.5919 130.728 79.0639 130.608 78.2959 130.608C76.5679 130.608 75.2719 131.712 74.6719 132.648V130.896H72.1519V144ZM87.1819 144.288C90.8059 144.288 93.4699 142.056 93.4699 137.4C93.4699 133.104 91.4539 130.56 87.4459 130.56C83.6539 130.56 81.1339 133.104 81.1339 137.592C81.1339 141.816 83.3899 144.288 87.1819 144.288ZM87.3499 142.248C84.5419 142.248 83.6539 140.04 83.6539 137.496C83.6539 135.096 84.4219 132.576 87.3259 132.576C90.2539 132.576 90.9259 135.12 90.9259 137.496C90.9259 139.944 90.2059 142.248 87.3499 142.248ZM96.5034 144H99.0234V134.16C100.031 133.392 101.327 132.768 102.599 132.768C104.495 132.768 104.831 134.016 104.831 135.984V144H107.327V135.6C107.327 135.12 107.279 134.592 107.207 134.112C108.239 133.416 109.487 132.768 110.807 132.768C112.799 132.768 113.135 134.064 113.135 135.984V144H115.655V135.624C115.655 133.416 115.487 130.584 111.575 130.584C109.583 130.584 107.999 131.64 106.871 132.528C106.415 131.4 105.167 130.584 103.367 130.584C101.639 130.584 100.247 131.424 99.0234 132.384V130.896H96.5034V144ZM125.02 144.288C126.724 144.288 128.284 144 129.436 143.568L129.004 141.624C127.708 142.008 126.652 142.2 125.404 142.2C123.1 142.2 121.132 141.504 121.108 138.048H129.724V137.16C129.724 132.888 128.188 130.56 124.516 130.56C121.228 130.56 118.588 132.504 118.588 137.688C118.588 142.752 121.108 144.288 125.02 144.288ZM121.18 136.296C121.348 133.728 122.644 132.456 124.372 132.456C126.292 132.456 127.132 133.968 127.132 136.296H121.18ZM143.059 144.288C146.971 144.288 150.067 142.392 150.067 136.992C150.067 132.648 148.027 130.632 144.523 130.632C143.275 130.632 142.459 130.872 141.715 131.256L141.835 133.008C142.483 132.768 143.179 132.6 144.043 132.6C146.803 132.6 147.499 134.568 147.499 136.872C147.499 140.04 146.203 142.224 143.443 142.224C142.531 142.224 141.595 142.008 141.091 141.888V125.904H138.595V143.52C139.699 143.904 141.355 144.288 143.059 144.288ZM153.105 144H155.625V134.592C156.201 133.728 157.401 132.768 158.889 132.768C159.633 132.768 159.969 132.816 160.497 132.936L160.857 130.824C160.545 130.728 160.017 130.608 159.249 130.608C157.521 130.608 156.225 131.712 155.625 132.648V130.896H153.105V144ZM168.135 144.288C171.759 144.288 174.423 142.056 174.423 137.4C174.423 133.104 172.407 130.56 168.399 130.56C164.607 130.56 162.087 133.104 162.087 137.592C162.087 141.816 164.343 144.288 168.135 144.288ZM168.303 142.248C165.495 142.248 164.607 140.04 164.607 137.496C164.607 135.096 165.375 132.576 168.279 132.576C171.207 132.576 171.879 135.12 171.879 137.496C171.879 139.944 171.159 142.248 168.303 142.248ZM179.905 144H183.169L185.785 135.12L186.265 133.224L186.697 135.12L189.001 144H192.241L196.585 130.896H194.041L190.681 142.08L187.897 130.896H184.777L181.561 142.08L178.681 130.896H176.041L179.905 144ZM201.666 144.288C204.114 144.288 207.09 143.376 207.09 140.4C207.09 135.96 200.538 136.8 200.538 134.184C200.538 133.296 201.234 132.6 202.89 132.6C203.898 132.6 205.05 132.816 205.938 133.128L206.442 131.232C205.386 130.8 203.994 130.56 202.866 130.56C200.25 130.56 198.066 131.832 198.066 134.376C198.066 138.792 204.666 138 204.666 140.52C204.666 141.552 203.682 142.224 201.786 142.224C200.73 142.224 199.458 142.008 198.162 141.696L197.802 143.712C198.858 144.048 200.466 144.288 201.666 144.288ZM215.559 144.288C217.263 144.288 218.823 144 219.975 143.568L219.543 141.624C218.247 142.008 217.191 142.2 215.943 142.2C213.639 142.2 211.671 141.504 211.647 138.048H220.263V137.16C220.263 132.888 218.727 130.56 215.055 130.56C211.767 130.56 209.127 132.504 209.127 137.688C209.127 142.752 211.647 144.288 215.559 144.288ZM211.719 136.296C211.887 133.728 213.183 132.456 214.911 132.456C216.831 132.456 217.671 133.968 217.671 136.296H211.719ZM223.253 144H225.773V134.592C226.349 133.728 227.549 132.768 229.037 132.768C229.781 132.768 230.117 132.816 230.645 132.936L231.005 130.824C230.693 130.728 230.165 130.608 229.397 130.608C227.669 130.608 226.373 131.712 225.773 132.648V130.896H223.253V144Z" fill="black"/>
<rect x="11.5273" y="88.5" width="267.445" height="65" stroke="#30C2FC"/>
<rect x="8.5" y="85.5" width="7.07353" height="7" fill="white" stroke="#30C2FC"/>
<rect x="8.5" y="149.5" width="7.07353" height="7" fill="white" stroke="#30C2FC"/>
<rect x="274.927" y="149.5" width="7.07353" height="7" fill="white" stroke="#30C2FC"/>
<rect x="274.927" y="85.5" width="7.07353" height="7" fill="white" stroke="#30C2FC"/>
</svg>
