<svg fill="none" height="224" viewBox="0 0 462 224" width="462" xmlns="http://www.w3.org/2000/svg"><path d="m0 8c0-4.41828 3.58172-8 8-8h453.303v40.25h-461.303z" fill="#212121"/><path d="m0 37h461.303v40h-461.303z" fill="#2c2c2c"/><circle cx="19.125" cy="18.125" r="5.5" stroke="#535353"/><circle cx="39.125" cy="18.125" r="5.5" stroke="#535353"/><circle cx="59.125" cy="18.125" r="5.5" stroke="#535353"/><path d="m78 0h40v37.25h-40z" fill="#2c2c2c"/><g stroke="#fff"><path d="m91.4844 20.4844h5v5h-5z"/><path d="m91.4844 20.4844h5v5h-5z"/><path d="m91.4844 20.4844h5v5h-5z"/><path d="m91.4844 20.4844h5v5h-5z"/><path d="m91.4844 12.4844h5v5h-5z"/><path d="m91.4844 12.4844h5v5h-5z"/><path d="m91.4844 12.4844h5v5h-5z"/><path d="m91.4844 12.4844h5v5h-5z"/><path d="m99.4844 12.4844h5v5h-5z"/><path d="m99.4844 12.4844h5v5h-5z"/><path d="m99.4844 12.4844h5v5h-5z"/><path d="m99.4844 12.4844h5v5h-5z"/><path d="m99.4844 20.4844h5v5h-5z"/><path d="m99.4844 20.4844h5v5h-5z"/><path d="m99.4844 20.4844h5v5h-5z"/><path d="m99.4844 20.4844h5v5h-5z"/></g><circle cx="24" cy="57" fill="#0094ff" r="12"/><path d="m52.7891 56.8359 2.9687-5.7109h1.7031l-3.9218 7.1328v4.2422h-1.5v-4.2422l-3.9219-7.1328h1.7187zm5.0156 1.3594c0-.8281.1614-1.5729.4844-2.2344.3281-.6614.7812-1.1718 1.3593-1.5312.5834-.3594 1.2474-.5391 1.9922-.5391 1.1511 0 2.0808.3985 2.7891 1.1953.7135.7969 1.0703 1.8568 1.0703 3.1797v.1016c0 .8229-.1589 1.5625-.4766 2.2187-.3125.6511-.763 1.1589-1.3515 1.5235-.5834.3646-1.2552.5468-2.0157.5468-1.1458 0-2.0755-.3984-2.789-1.1953-.7083-.7968-1.0625-1.8515-1.0625-3.164zm1.4531.1719c0 .9375.2162 1.6901.6484 2.2578.4376.5677 1.0209.8516 1.75.8516.7344 0 1.3178-.2865 1.75-.8594.4323-.5781.6485-1.3854.6485-2.4219 0-.9271-.2214-1.6771-.6641-2.25-.4375-.5781-1.0208-.8672-1.75-.8672-.7135 0-1.289.2839-1.7265.8516s-.6563 1.3802-.6563 2.4375zm13.2734 3.2969c-.5624.6614-1.388.9921-2.4765.9921-.9011 0-1.5886-.2604-2.0625-.7812-.4688-.526-.7057-1.3021-.711-2.3281v-5.5h1.4454v5.4609c0 1.2813.5208 1.9219 1.5625 1.9219 1.1041 0 1.8385-.4115 2.2031-1.2344v-6.1484h1.4453v8.4531h-1.375z" fill="#fff"/><path d="m24.2588 57.2637 2.29-4.7168h1.9141l-3.3359 6.289v3.6641h-1.7364v-3.6641l-3.3427-6.289h1.9209z" fill="#fff"/><path d="m221.062 51h1v13h-1z" fill="#fff"/><path d="m215.062 58h1v13h-1z" fill="#fff" transform="matrix(0 -1 1 0 157.062 273.062)"/><path d="m200 37h1v40h-1z" fill="#c4c4c4"/><path d="m255.939 50h1v16h-1z" fill="#fff"/><path d="m255.939 66h1v16h-1z" fill="#fff" transform="matrix(0 -1 1 0 189.939 321.939)"/><path d="m255.939 51h1v7h-1z" fill="#fff" transform="matrix(0 -1 1 0 204.939 306.939)"/><path d="m261.166 57.7461h1v4.1875h-1z" fill="#fff" transform="matrix(.70710678 -.70710678 .70710678 .70710678 35.661091 201.585691)"/><path d="m266.381 57.0391h1v4.1875h-1z" fill="#fff" transform="matrix(.70710678 .70710678 -.70710678 .70710678 118.353923 -171.653446)"/><path d="m179.244 55.7715h1v5.99672h-1z" fill="#fff" transform="matrix(.70710678 -.70710678 .70710678 .70710678 13.062946 143.079742)"/><path d="m187.09 54.9941h1v6h-1z" fill="#fff" transform="matrix(.70710678 .70710678 -.70710678 .70710678 93.684093 -116.185209)"/><path d="m264.127 59.293h1v1h-1z" fill="#fff" transform="matrix(.70710678 .70710678 -.70710678 .70710678 119.28749 -169.399475)"/><path d="m270.939 59h1v7h-1z" fill="#fff"/><path d="m271.252 50.4375c-2.375.7292-7.125 3.6625-7.125 9.5625" stroke="#fff"/><path d="m0 155c0-4.418 3.58172-8 8-8h453.303v40.25h-461.303z" fill="#212121"/><path d="m0 184h461.303v40h-461.303z" fill="#2c2c2c"/><circle cx="19.125" cy="165.125" r="5.5" stroke="#535353"/><circle cx="39.125" cy="165.125" r="5.5" stroke="#535353"/><circle cx="59.125" cy="165.125" r="5.5" stroke="#535353"/><path d="m78 147h40v37.25h-40z" fill="#2c2c2c"/><path d="m91.4844 167.484h5v5h-5z" stroke="#fff"/><path d="m91.4844 167.484h5v5h-5z" stroke="#fff"/><path d="m91.4844 167.484h5v5h-5z" stroke="#fff"/><path d="m91.4844 167.484h5v5h-5z" stroke="#fff"/><path d="m91.4844 159.484h5v5h-5z" stroke="#fff"/><path d="m91.4844 159.484h5v5h-5z" stroke="#fff"/><path d="m91.4844 159.484h5v5h-5z" stroke="#fff"/><path d="m91.4844 159.484h5v5h-5z" stroke="#fff"/><path d="m99.4844 159.484h5v5h-5z" stroke="#fff"/><path d="m99.4844 159.484h5v5h-5z" stroke="#fff"/><path d="m99.4844 159.484h5v5h-5z" stroke="#fff"/><path d="m99.4844 159.484h5v5h-5z" stroke="#fff"/><path d="m99.4844 167.484h5v5h-5z" stroke="#fff"/><path d="m99.4844 167.484h5v5h-5z" stroke="#fff"/><path d="m99.4844 167.484h5v5h-5z" stroke="#fff"/><path d="m99.4844 167.484h5v5h-5z" stroke="#fff"/><circle cx="24" cy="204" fill="#007272" r="12"/><path d="m49.3203 209.5v-11.375h3.2109c.9896 0 1.8646.219 2.625.656.7605.438 1.3464 1.06 1.7579 1.867.4166.808.6276 1.735.6328 2.782v.726c0 1.073-.2084 2.013-.625 2.821-.4115.807-1.0026 1.427-1.7735 1.859-.7656.432-1.6588.654-2.6796.664zm1.5-10.141v8.914h1.5781c1.1563 0 2.0547-.359 2.6954-1.078.6458-.718.9687-1.742.9687-3.07v-.664c0-1.292-.3047-2.294-.9141-3.008-.6041-.719-1.4635-1.083-2.5781-1.094zm17.7422 10.141h-1.5078l-5.7266-8.766v8.766h-1.5078v-11.375h1.5078l5.7422 8.805v-8.805h1.4922zm2.6641 0v-11.375h3.7187c1.2344 0 2.1615.255 2.7813.766.625.51.9375 1.265.9375 2.265 0 .532-.1511 1.003-.4532 1.414-.302.407-.7135.722-1.2343.946.6145.172 1.0989.5 1.4531.984.3594.479.5391 1.052.5391 1.719 0 1.021-.3308 1.823-.9922 2.406-.6615.583-1.5964.875-2.8047.875zm1.5-5.32v4.093h2.4765c.6979 0 1.2474-.179 1.6485-.539.4062-.364.6093-.864.6093-1.5 0-1.369-.7448-2.054-2.2343-2.054zm0-1.203h2.2656c.6562 0 1.1797-.165 1.5703-.493.3958-.328.5937-.773.5937-1.336 0-.625-.1822-1.078-.5468-1.359-.3646-.286-.9193-.43-1.6641-.43h-2.2187zm12.4375 6.523v-11.375h3.7187c1.2344 0 2.1615.255 2.7813.766.625.51.9375 1.265.9375 2.265 0 .532-.1511 1.003-.4532 1.414-.302.407-.7135.722-1.2343.946.6145.172 1.0989.5 1.4531.984.3594.479.539 1.052.539 1.719 0 1.021-.3307 1.823-.9921 2.406-.6615.583-1.5964.875-2.8047.875zm1.5-5.32v4.093h2.4765c.6979 0 1.2474-.179 1.6485-.539.4062-.364.6093-.864.6093-1.5 0-1.369-.7448-2.054-2.2343-2.054zm0-1.203h2.2656c.6562 0 1.1797-.165 1.5703-.493.3958-.328.5938-.773.5938-1.336 0-.625-.1823-1.078-.5469-1.359-.3646-.286-.9193-.43-1.6641-.43h-2.2187zm13.4609 6.523c-.083-.167-.151-.464-.2031-.891-.6719.698-1.474 1.047-2.4063 1.047-.8333 0-1.5182-.234-2.0547-.703-.5312-.474-.7968-1.073-.7968-1.797 0-.88.3333-1.562 1-2.047.6718-.489 1.6145-.734 2.8281-.734h1.4062v-.664c0-.505-.151-.906-.4531-1.203-.3021-.302-.7474-.453-1.3359-.453-.5156 0-.9479.13-1.2969.39-.349.261-.5234.576-.5234.946h-1.4532c0-.422.1485-.829.4453-1.219.3021-.396.7084-.708 1.2188-.938.5156-.229 1.0807-.343 1.6953-.343.974 0 1.737.244 2.2887.734.552.484.839 1.154.86 2.008v3.89c0 .776.099 1.394.297 1.852v.125zm-2.3984-1.102c.4531 0 .8828-.117 1.289-.351.4063-.235.7005-.539.8828-.914v-1.735h-1.1328c-1.7708 0-2.6562.519-2.6562 1.555 0 .453.151.807.4531 1.063.3021.255.6901.382 1.1641.382zm7.2504-7.351.046 1.062c.646-.812 1.49-1.218 2.532-1.218 1.786 0 2.687 1.007 2.703 3.023v5.586h-1.446v-5.594c-.005-.609-.145-1.06-.421-1.351-.271-.292-.696-.438-1.274-.438-.469 0-.88.125-1.234.375s-.63.578-.828.985v6.023h-1.446v-8.453zm9.82 4.539-.906.945v2.969h-1.446v-12h1.446v7.258l.773-.93 2.633-2.781h1.758l-3.289 3.531 3.672 4.922h-1.696zm16.226.945h-4.765l-1.07 2.969h-1.547l4.343-11.375h1.313l4.351 11.375h-1.539zm-4.312-1.234h3.867l-1.937-5.32zm11.82-.867c-1.286-.37-2.224-.823-2.812-1.36-.584-.541-.875-1.208-.875-2 0-.896.357-1.635 1.07-2.218.719-.589 1.651-.883 2.797-.883.781 0 1.477.151 2.086.453.614.302 1.088.719 1.422 1.25.338.531.508 1.112.508 1.742h-1.508c0-.687-.219-1.226-.657-1.617-.437-.396-1.054-.594-1.851-.594-.74 0-1.318.164-1.734.492-.412.323-.618.774-.618 1.352 0 .463.196.857.586 1.18.396.317 1.065.609 2.008.875.948.265 1.688.559 2.219.882.536.318.932.69 1.187 1.118.261.427.391.929.391 1.507 0 .922-.359 1.662-1.078 2.219-.719.552-1.68.828-2.883.828-.781 0-1.51-.148-2.187-.445-.678-.302-1.201-.714-1.571-1.234-.364-.521-.547-1.112-.547-1.774h1.508c0 .688.253 1.232.758 1.633.51.396 1.19.594 2.039.594.792 0 1.399-.162 1.82-.485.422-.323.633-.763.633-1.32s-.195-.987-.586-1.289c-.39-.307-1.099-.609-2.125-.906zm12.43 2.101h-4.766l-1.07 2.969h-1.547l4.344-11.375h1.312l4.352 11.375h-1.539zm-4.313-1.234h3.868l-1.938-5.32z" fill="#fff"/><path d="m18.4512 206.5v-4.266h1.2597c.377 0 .711.084 1.002.252.293.168.5195.407.6797.715.1601.309.2402.662.2402 1.061v.214c0 .404-.081.759-.2432 1.066-.1601.307-.3896.543-.6884.709-.2969.166-.6377.249-1.0225.249zm.7412-3.668v3.076h.4834c.3887 0 .6865-.121.8935-.363.209-.244.3155-.594.3194-1.049v-.237c0-.463-.1006-.817-.3018-1.061s-.4931-.366-.876-.366zm6.5625 3.668h-.7412l-1.9014-3.026v3.026h-.7412v-4.266h.7412l1.9072 3.038v-3.038h.7354zm.876 0v-4.266h1.4619c.4824 0 .8496.097 1.1015.29.252.194.378.482.378.865 0 .195-.0528.371-.1582.527-.1055.156-.2598.277-.4629.363.2304.063.4082.181.5332.355.1269.172.1904.379.1904.621 0 .4-.1289.708-.3867.923-.2559.215-.6231.322-1.1016.322zm.7412-1.925v1.333h.8232c.2324 0 .4141-.057.5449-.173.1309-.115.1963-.275.1963-.48 0-.443-.2265-.67-.6797-.68zm0-.545h.7265c.2305 0 .4102-.051.5391-.155.1309-.105.1963-.254.1963-.445 0-.211-.0606-.364-.1817-.457-.1191-.094-.3056-.141-.5595-.141h-.7207z" fill="#fff"/><path d="m221.062 198h1v13h-1z" fill="#fff"/><path d="m215.062 205h1v13h-1z" fill="#fff" transform="matrix(0 -1 1 0 10.062 420.062)"/><path d="m200 184h1v40h-1z" fill="#c4c4c4"/><path d="m255.939 197h1v16h-1z" fill="#fff"/><path d="m255.939 213h1v16h-1z" fill="#fff" transform="matrix(0 -1 1 0 42.939 468.939)"/><path d="m255.939 198h1v7h-1z" fill="#fff" transform="matrix(0 -1 1 0 57.939 453.939)"/><path d="m261.166 204.746h1v4.1875h-1z" fill="#fff" transform="matrix(.70710678 -.70710678 .70710678 .70710678 -68.283535 244.640965)"/><path d="m266.381 204.039h1v4.1875h-1z" fill="#fff" transform="matrix(.70710678 .70710678 -.70710678 .70710678 222.298549 -128.598172)"/><path d="m179.244 202.771h1v5.99672h-1z" fill="#fff" transform="matrix(.70710678 -.70710678 .70710678 .70710678 -90.881397 186.134899)"/><path d="m187.09 201.994h1v6h-1z" fill="#fff" transform="matrix(.70710678 .70710678 -.70710678 .70710678 197.628719 -73.129935)"/><path d="m264.127 206.293h1v1h-1z" fill="#fff" transform="matrix(.70710678 .70710678 -.70710678 .70710678 223.232186 -126.344172)"/><path d="m270.939 206h1v7h-1z" fill="#fff"/><path d="m271.252 197.438c-2.375.729-7.125 3.662-7.125 9.562" stroke="#fff"/><path d="m23.3261 189.901c.1953.196.5119.196.7071 0l3.182-3.182c.1953-.195.1953-.511 0-.707-.1952-.195-.5118-.195-.7071 0l-2.8284 2.829-2.8284-2.829c-.1953-.195-.5119-.195-.7072 0-.1952.196-.1952.512 0 .707zm-.1464-122.9276v122.5746h1v-122.5746z" fill="#db00ff"/></svg>