<svg fill="none" height="320" viewBox="0 0 472 320" width="472" xmlns="http://www.w3.org/2000/svg" xmlns:xlink="http://www.w3.org/1999/xlink"><filter id="a" color-interpolation-filters="sRGB" filterUnits="userSpaceOnUse" height="314.578" width="467.604" x="2" y=".191406"><feFlood flood-opacity="0" result="BackgroundImageFix"/><feColorMatrix in="SourceAlpha" type="matrix" values="0 0 0 0 0 0 0 0 0 0 0 0 0 0 0 0 0 0 127 0"/><feOffset/><feGaussianBlur stdDeviation="1.5"/><feColorMatrix type="matrix" values="0 0 0 0 0 0 0 0 0 0 0 0 0 0 0 0 0 0 0.25 0"/><feBlend in2="BackgroundImageFix" mode="normal" result="effect1_dropShadow"/><feBlend in="SourceGraphic" in2="effect1_dropShadow" mode="normal" result="shape"/></filter><g filter="url(#a)"><rect fill="#fcfcfc" height="308.578" rx="4" width="461.604" x="5" y="3.19141"/><rect height="307.578" rx="3.5" stroke="#b9b9b9" width="460.604" x="5.5" y="3.69141"/></g><g fill="#aaa"><path d="m33.7363 126.11c-.0967.827-.4028 1.466-.9184 1.917-.5121.448-1.1942.672-2.0464.672-.9238 0-1.6651-.331-2.2236-.994-.5551-.662-.8326-1.549-.8326-2.659v-.752c0-.726.1289-1.366.3868-1.917.2613-.551.6302-.974 1.1064-1.268.4762-.297 1.0277-.445 1.6543-.445.8307 0 1.4967.232 1.998.698.5013.462.7932 1.103.8755 1.923h-1.0366c-.0895-.623-.2847-1.075-.5854-1.354-.2972-.279-.7144-.419-1.2515-.419-.6589 0-1.1763.244-1.5523.731-.3723.487-.5585 1.18-.5585 2.078v.758c0 .848.1772 1.523.5317 2.025.3545.501.8504.751 1.4878.751.5729 0 1.0115-.128 1.3159-.386.3079-.262.512-.715.6123-1.359zm4.8448 1.907c-.3868.454-.9543.682-1.7027.682-.6194 0-1.0921-.179-1.418-.537-.3222-.362-.4851-.896-.4887-1.601v-3.781h.9936v3.754c0 .881.3581 1.321 1.0743 1.321.7591 0 1.2639-.282 1.5146-.848v-4.227h.9937v5.811h-.9454zm5.2905-4.346c-.1504-.025-.3133-.037-.4888-.037-.6517 0-1.0939.277-1.3266.832v4.125h-.9937v-5.811h.9668l.0161.671c.3259-.519.7878-.779 1.3858-.779.1933 0 .3401.025.4404.076zm3.7275 0c-.1504-.025-.3133-.037-.4887-.037-.6517 0-1.094.277-1.3267.832v4.125h-.9937v-5.811h.9668l.0161.671c.3259-.519.7878-.779 1.3858-.779.1934 0 .3402.025.4404.076zm3.2227 5.028c-.7878 0-1.4287-.258-1.9229-.774-.4941-.519-.7412-1.212-.7412-2.078v-.183c0-.576.1092-1.09.3277-1.541.222-.455.5299-.81.9238-1.064.3974-.258.8271-.387 1.289-.387.7556 0 1.3428.249 1.7618.747.4189.498.6284 1.21.6284 2.138v.413h-3.937c.0143.573.1808 1.037.4995 1.391.3222.351.7304.527 1.2246.527.3509 0 .6481-.072.8916-.215s.4565-.333.6391-.569l.607.472c-.487.749-1.2175 1.123-2.1914 1.123zm-.1236-5.21c-.401 0-.7376.147-1.0097.44-.2722.29-.4405.698-.5049 1.225h2.9111v-.075c-.0286-.505-.1647-.896-.4082-1.171-.2435-.28-.5729-.419-.9883-.419zm4.4849-.709.0322.73c.444-.558 1.0241-.838 1.7403-.838 1.2282 0 1.8476.693 1.8584 2.079v3.84h-.9937v-3.845c-.0036-.419-.1002-.729-.29-.93-.1862-.2-.4781-.3-.8755-.3-.3223 0-.6052.086-.8486.257-.2435.172-.4333.398-.5694.677v4.141h-.9936v-5.811zm6.4775-1.407v1.407h1.085v.768h-1.085v3.604c0 .233.0484.408.1451.526.0966.115.2614.172.4941.172.1146 0 .2721-.021.4727-.064v.805c-.2614.072-.5157.108-.7627.108-.444 0-.7788-.135-1.0044-.403-.2256-.269-.3384-.65-.3384-1.144v-3.604h-1.0581v-.768h1.0581v-1.407zm5.3121 7.218v-5.043h-.9185v-.768h.9185v-.494c0-.648.1844-1.153.5532-1.515.3724-.362.897-.542 1.5737-.542.4011 0 .9077.109 1.52.327l-.1665.838c-.4476-.179-.8737-.269-1.2783-.269-.4261 0-.734.097-.9238.291-.1862.189-.2793.476-.2793.859v.505h1.187v.768h-1.187v5.043zm4.1411 0h-.9991v-5.811h.9991zm2.6963 0h-.9937v-8.25h.9937zm4.0068.108c-.7878 0-1.4287-.258-1.9229-.774-.4941-.519-.7412-1.212-.7412-2.078v-.183c0-.576.1092-1.09.3277-1.541.222-.455.5299-.81.9238-1.064.3975-.258.8271-.387 1.2891-.387.7555 0 1.3427.249 1.7617.747.4189.498.6284 1.21.6284 2.138v.413h-3.937c.0143.573.1808 1.037.4995 1.391.3223.351.7305.527 1.2246.527.3509 0 .6481-.072.8916-.215s.4566-.333.6392-.569l.6069.472c-.487.749-1.2174 1.123-2.1914 1.123zm-.1235-5.21c-.4011 0-.7377.147-1.0098.44-.2721.29-.4404.698-.5049 1.225h2.9111v-.075c-.0286-.505-.1647-.896-.4082-1.171-.2434-.28-.5729-.419-.9882-.419z"/><path d="m27.9839 224.591v-7.82h2.2075c.6803 0 1.2819.15 1.8047.451s.9256.729 1.2085 1.284c.2864.555.4315 1.192.435 1.912v.499c0 .738-.1432 1.384-.4296 1.939-.2829.555-.6893.982-1.2193 1.279-.5263.297-1.1404.449-1.8423.456zm1.0312-6.971v6.128h1.085c.7949 0 1.4126-.247 1.853-.741.444-.494.666-1.198.666-2.111v-.457c0-.888-.2094-1.577-.6284-2.067-.4153-.495-1.0062-.745-1.7724-.752zm12.1978 6.971h-1.0366l-3.937-6.026v6.026h-1.0367v-7.82h1.0367l3.9477 6.053v-6.053h1.0259zm1.8315 0v-7.82h2.5567c.8486 0 1.486.175 1.9121.526.4297.351.6445.87.6445 1.558 0 .365-.1038.689-.3115.972-.2077.279-.4906.496-.8486.65.4225.118.7555.344.999.677.2471.329.3706.723.3706 1.181 0 .702-.2274 1.254-.6821 1.655-.4548.401-1.0975.601-1.9283.601zm1.0313-3.657v2.814h1.7026c.4798 0 .8576-.123 1.1333-.371.2793-.25.419-.594.419-1.031 0-.942-.5121-1.412-1.5362-1.412zm0-.828h1.5576c.4512 0 .811-.112 1.0796-.338.2721-.226.4082-.532.4082-.918 0-.43-.1253-.742-.376-.935-.2506-.197-.632-.295-1.144-.295h-1.5254zm14.0561-3.335v5.317c-.0035.738-.2363 1.341-.6982 1.81-.4583.47-1.0814.733-1.8691.79l-.274.011c-.8558 0-1.5379-.231-2.0464-.693-.5084-.462-.7662-1.098-.7734-1.907v-5.328h1.0205v5.296c0 .566.1558 1.006.4673 1.321.3115.312.7555.467 1.332.467.5837 0 1.0295-.155 1.3374-.467.3116-.311.4673-.75.4673-1.316v-5.301zm4.1787 2.997 1.8746-2.997h1.2138l-2.4707 3.878 2.5298 3.942h-1.2246l-1.9229-3.05-1.9335 3.05h-1.2193l2.5352-3.942-2.4761-3.878h1.2085z"/><path d="m274.383 165.591h-1.037l-3.937-6.026v6.026h-1.036v-7.82h1.036l3.948 6.053v-6.053h1.026zm1.412-2.959c0-.57.111-1.082.333-1.536.226-.455.538-.806.935-1.053.401-.247.858-.371 1.37-.371.791 0 1.43.274 1.917.822.491.548.736 1.277.736 2.186v.07c0 .566-.109 1.074-.328 1.525-.215.448-.524.797-.929 1.048-.401.25-.863.376-1.386.376-.787 0-1.427-.274-1.917-.822-.487-.548-.731-1.273-.731-2.175zm.999.118c0 .645.149 1.162.446 1.552.301.391.702.586 1.203.586.505 0 .906-.197 1.203-.591.298-.398.446-.953.446-1.665 0-.638-.152-1.153-.456-1.547-.301-.397-.702-.596-1.203-.596-.491 0-.887.195-1.187.585-.301.391-.452.949-.452 1.676zm10.598 2.138c.354 0 .664-.108.929-.323.265-.214.412-.483.44-.805h.94c-.018.333-.132.65-.344.95-.211.301-.494.541-.848.72-.351.179-.724.269-1.117.269-.792 0-1.422-.263-1.891-.79-.466-.53-.698-1.253-.698-2.17v-.166c0-.566.104-1.069.311-1.51.208-.44.505-.782.892-1.025.39-.244.85-.366 1.38-.366.652 0 1.193.196 1.622.586.434.39.665.897.693 1.52h-.94c-.028-.376-.172-.684-.429-.924-.255-.243-.57-.365-.946-.365-.505 0-.897.182-1.176.548-.276.361-.414.886-.414 1.573v.188c0 .67.138 1.186.414 1.547.276.362.67.543 1.182.543zm3.163-2.256c0-.57.111-1.082.333-1.536.226-.455.537-.806.935-1.053.401-.247.857-.371 1.369-.371.792 0 1.431.274 1.918.822.49.548.736 1.277.736 2.186v.07c0 .566-.11 1.074-.328 1.525-.215.448-.525.797-.929 1.048-.401.25-.863.376-1.386.376-.788 0-1.427-.274-1.917-.822-.487-.548-.731-1.273-.731-2.175zm.999.118c0 .645.149 1.162.446 1.552.301.391.702.586 1.203.586.505 0 .906-.197 1.203-.591.297-.398.446-.953.446-1.665 0-.638-.152-1.153-.456-1.547-.301-.397-.702-.596-1.204-.596-.49 0-.886.195-1.187.585-.3.391-.451.949-.451 1.676zm6.472-2.97.027.644c.426-.501 1.001-.752 1.724-.752.813 0 1.366.312 1.66.935.193-.279.444-.505.752-.677.311-.172.679-.258 1.101-.258 1.275 0 1.923.675 1.944 2.025v3.894h-.993v-3.835c0-.415-.095-.725-.285-.929-.19-.208-.508-.311-.956-.311-.369 0-.675.111-.918.333-.244.218-.385.513-.425.886v3.856h-.999v-3.808c0-.845-.413-1.267-1.241-1.267-.651 0-1.097.277-1.337.832v4.243h-.994v-5.811zm13.621 2.97c0 .884-.202 1.597-.606 2.138-.405.54-.953.811-1.644.811-.705 0-1.26-.224-1.665-.672v2.799h-.994v-8.046h.908l.048.644c.405-.501.967-.752 1.687-.752.698 0 1.25.264 1.654.79.408.526.612 1.259.612 2.197zm-.993-.113c0-.655-.14-1.172-.419-1.552s-.663-.569-1.15-.569c-.601 0-1.052.266-1.353.8v2.777c.297.53.752.795 1.364.795.476 0 .854-.188 1.133-.564.283-.38.425-.942.425-1.687zm1.998-.005c0-.57.111-1.082.333-1.536.225-.455.537-.806.934-1.053.401-.247.858-.371 1.37-.371.791 0 1.431.274 1.918.822.49.548.735 1.277.735 2.186v.07c0 .566-.109 1.074-.327 1.525-.215.448-.525.797-.929 1.048-.401.25-.863.376-1.386.376-.788 0-1.427-.274-1.918-.822-.487-.548-.73-1.273-.73-2.175zm.999.118c0 .645.148 1.162.446 1.552.3.391.702.586 1.203.586.505 0 .906-.197 1.203-.591.297-.398.446-.953.446-1.665 0-.638-.152-1.153-.457-1.547-.301-.397-.702-.596-1.203-.596-.49 0-.886.195-1.187.585-.301.391-.451.949-.451 1.676zm6.477-2.97.033.73c.444-.558 1.024-.838 1.74-.838 1.228 0 1.848.693 1.858 2.079v3.84h-.993v-3.845c-.004-.419-.101-.729-.29-.93-.187-.2-.478-.3-.876-.3-.322 0-.605.086-.849.257-.243.172-.433.398-.569.677v4.141h-.994v-5.811zm7.541 5.919c-.787 0-1.428-.258-1.922-.774-.495-.519-.742-1.212-.742-2.078v-.183c0-.576.11-1.09.328-1.541.222-.455.53-.81.924-1.064.397-.258.827-.387 1.289-.387.755 0 1.343.249 1.762.747s.628 1.21.628 2.138v.413h-3.937c.014.573.181 1.037.5 1.391.322.351.73.527 1.224.527.351 0 .648-.072.892-.215.243-.143.456-.333.639-.569l.607.472c-.487.749-1.218 1.123-2.192 1.123zm-.123-5.21c-.401 0-.738.147-1.01.44-.272.29-.44.698-.505 1.225h2.911v-.075c-.028-.505-.164-.896-.408-1.171-.243-.28-.573-.419-.988-.419zm4.485-.709.032.73c.444-.558 1.024-.838 1.74-.838 1.228 0 1.848.693 1.859 2.079v3.84h-.994v-3.845c-.004-.419-.1-.729-.29-.93-.186-.2-.478-.3-.876-.3-.322 0-.605.086-.848.257-.244.172-.433.398-.57.677v4.141h-.993v-5.811zm6.477-1.407v1.407h1.085v.768h-1.085v3.604c0 .233.049.408.145.526.097.115.262.172.494.172.115 0 .273-.021.473-.064v.805c-.261.072-.516.108-.763.108-.444 0-.778-.135-1.004-.403-.226-.269-.338-.65-.338-1.144v-3.604h-1.058v-.768h1.058v-1.407zm5.635 5.677c0-.269-.102-.476-.307-.623-.2-.151-.553-.28-1.058-.387-.501-.107-.9-.236-1.197-.387-.294-.15-.512-.329-.656-.537-.139-.207-.209-.455-.209-.741 0-.476.2-.879.601-1.208.405-.33.921-.495 1.547-.495.659 0 1.193.17 1.601.511.412.34.618.775.618 1.305h-1c0-.272-.116-.507-.349-.704-.229-.197-.519-.295-.87-.295-.361 0-.644.079-.848.236-.204.158-.307.364-.307.618 0 .24.095.421.285.542.19.122.532.238 1.026.349.498.111.901.244 1.209.398.307.154.535.34.682.558.15.215.225.478.225.79 0 .519-.207.936-.623 1.251-.415.312-.954.468-1.617.468-.465 0-.877-.083-1.235-.247-.358-.165-.639-.394-.843-.688-.201-.297-.301-.618-.301-.961h.994c.018.333.15.598.397.795.251.193.58.29.988.29.376 0 .677-.076.903-.226.229-.154.344-.358.344-.612zm4.753-1.418c0-.57.111-1.082.333-1.536.226-.455.537-.806.935-1.053.401-.247.857-.371 1.369-.371.792 0 1.431.274 1.918.822.49.548.736 1.277.736 2.186v.07c0 .566-.11 1.074-.328 1.525-.215.448-.525.797-.929 1.048-.401.25-.863.376-1.386.376-.788 0-1.427-.274-1.918-.822-.487-.548-.73-1.273-.73-2.175zm.999.118c0 .645.149 1.162.446 1.552.301.391.702.586 1.203.586.505 0 .906-.197 1.203-.591.297-.398.446-.953.446-1.665 0-.638-.152-1.153-.457-1.547-.3-.397-.701-.596-1.203-.596-.49 0-.886.195-1.187.585-.301.391-.451.949-.451 1.676zm6.026 2.841v-5.043h-.918v-.768h.918v-.596c0-.623.167-1.105.5-1.445s.804-.51 1.412-.51c.23 0 .457.03.683.091l-.054.805c-.168-.032-.347-.048-.537-.048-.322 0-.571.095-.747.285-.175.186-.263.455-.263.805v.613h1.241v.768h-1.241v5.043zm9.448-1.541c0-.269-.102-.476-.306-.623-.201-.151-.553-.28-1.058-.387-.501-.107-.901-.236-1.198-.387-.293-.15-.512-.329-.655-.537-.14-.207-.21-.455-.21-.741 0-.476.201-.879.602-1.208.405-.33.92-.495 1.547-.495.659 0 1.192.17 1.6.511.412.34.618.775.618 1.305h-.999c0-.272-.116-.507-.349-.704-.229-.197-.519-.295-.87-.295-.362 0-.645.079-.849.236-.204.158-.306.364-.306.618 0 .24.095.421.285.542.189.122.531.238 1.026.349.497.111.9.244 1.208.398s.535.34.682.558c.151.215.226.478.226.79 0 .519-.208.936-.623 1.251-.416.312-.955.468-1.617.468-.465 0-.877-.083-1.235-.247-.358-.165-.639-.394-.844-.688-.2-.297-.3-.618-.3-.961h.993c.018.333.151.598.398.795.25.193.58.29.988.29.376 0 .677-.076.902-.226.23-.154.344-.358.344-.612zm3.636-5.677v1.407h1.085v.768h-1.085v3.604c0 .233.049.408.145.526.097.115.262.172.495.172.114 0 .272-.021.472-.064v.805c-.261.072-.515.108-.763.108-.444 0-.778-.135-1.004-.403-.225-.269-.338-.65-.338-1.144v-3.604h-1.058v-.768h1.058v-1.407zm4.152 5.763 1.354-4.356h1.063l-2.336 6.708c-.362.967-.937 1.45-1.724 1.45l-.188-.016-.371-.069v-.806l.269.021c.336 0 .598-.068.784-.204.19-.136.345-.385.467-.746l.22-.591-2.073-5.747h1.085zm4.388 1.455h-.993v-8.25h.993zm4.007.108c-.788 0-1.428-.258-1.923-.774-.494-.519-.741-1.212-.741-2.078v-.183c0-.576.109-1.09.328-1.541.222-.455.53-.81.924-1.064.397-.258.827-.387 1.289-.387.755 0 1.342.249 1.761.747s.629 1.21.629 2.138v.413h-3.937c.014.573.181 1.037.499 1.391.323.351.731.527 1.225.527.351 0 .648-.072.892-.215.243-.143.456-.333.639-.569l.607.472c-.487.749-1.218 1.123-2.192 1.123zm-.123-5.21c-.401 0-.738.147-1.01.44-.272.29-.44.698-.505 1.225h2.911v-.075c-.028-.505-.165-.896-.408-1.171-.243-.28-.573-.419-.988-.419zm6.928 3.561c0-.269-.102-.476-.306-.623-.2-.151-.553-.28-1.058-.387-.501-.107-.9-.236-1.198-.387-.293-.15-.512-.329-.655-.537-.14-.207-.209-.455-.209-.741 0-.476.2-.879.601-1.208.405-.33.92-.495 1.547-.495.659 0 1.192.17 1.601.511.411.34.617.775.617 1.305h-.999c0-.272-.116-.507-.349-.704-.229-.197-.519-.295-.87-.295-.362 0-.644.079-.849.236-.204.158-.306.364-.306.618 0 .24.095.421.285.542.19.122.532.238 1.026.349.498.111.9.244 1.208.398s.536.34.682.558c.151.215.226.478.226.79 0 .519-.208.936-.623 1.251-.415.312-.954.468-1.617.468-.465 0-.877-.083-1.235-.247-.358-.165-.639-.394-.843-.688-.201-.297-.301-.618-.301-.961h.994c.017.333.15.598.397.795.251.193.58.29.988.29.376 0 .677-.076.903-.226.229-.154.343-.358.343-.612z"/><path d="m272.31 259.965h1.085v.811h-1.085v1.815h-.999v-1.815h-3.561v-.586l3.501-5.419h1.059zm-3.433 0h2.434v-3.835l-.119.215zm10.318-.709c0 1.164-.198 2.028-.596 2.594-.397.566-1.019.849-1.864.849-.834 0-1.452-.276-1.853-.827-.401-.555-.608-1.383-.623-2.482v-1.327c0-1.149.199-2.003.596-2.562.398-.558 1.021-.837 1.87-.837.841 0 1.461.27 1.858.811.397.537.602 1.367.612 2.492zm-.993-1.359c0-.841-.119-1.454-.355-1.837-.236-.387-.61-.58-1.122-.58-.509 0-.879.192-1.112.575s-.353.972-.36 1.767v1.59c0 .845.122 1.47.365 1.874.247.401.62.602 1.117.602.491 0 .854-.19 1.091-.57.24-.379.365-.977.376-1.794zm8.481 3.153c0-.269-.102-.476-.307-.623-.2-.151-.553-.28-1.058-.387-.501-.107-.9-.236-1.197-.387-.294-.15-.512-.329-.656-.537-.139-.207-.209-.455-.209-.741 0-.476.2-.879.601-1.208.405-.33.921-.495 1.547-.495.659 0 1.193.17 1.601.511.412.34.618.775.618 1.305h-.999c0-.272-.117-.507-.35-.704-.229-.197-.519-.295-.87-.295-.361 0-.644.079-.848.236-.204.158-.306.364-.306.618 0 .24.094.421.284.542.19.122.532.238 1.026.349.498.111.901.244 1.209.398.307.154.535.34.682.558.15.215.225.478.225.79 0 .519-.207.936-.623 1.251-.415.312-.954.468-1.616.468-.466 0-.878-.083-1.236-.247-.358-.165-.639-.394-.843-.688-.201-.297-.301-.618-.301-.961h.994c.018.333.15.598.397.795.251.193.58.29.989.29.375 0 .676-.076.902-.226.229-.154.344-.358.344-.612zm3.636-5.677v1.407h1.085v.768h-1.085v3.604c0 .233.048.408.145.526.097.115.261.172.494.172.115 0 .272-.021.473-.064v.805c-.262.072-.516.108-.763.108-.444 0-.779-.135-1.004-.403-.226-.269-.339-.65-.339-1.144v-3.604h-1.058v-.768h1.058v-1.407zm4.152 5.763 1.353-4.356h1.064l-2.337 6.708c-.361.967-.936 1.45-1.724 1.45l-.188-.016-.37-.069v-.806l.268.021c.337 0 .598-.068.784-.204.19-.136.346-.385.468-.746l.22-.591-2.073-5.747h1.085zm4.388 1.455h-.994v-8.25h.994zm4.007.108c-.788 0-1.429-.258-1.923-.774-.494-.519-.741-1.212-.741-2.078v-.183c0-.576.109-1.09.327-1.541.222-.455.53-.81.924-1.064.398-.258.827-.387 1.289-.387.756 0 1.343.249 1.762.747s.628 1.21.628 2.138v.413h-3.937c.015.573.181 1.037.5 1.391.322.351.73.527 1.224.527.351 0 .649-.072.892-.215.244-.143.457-.333.639-.569l.607.472c-.487.749-1.217 1.123-2.191 1.123zm-.124-5.21c-.401 0-.737.147-1.01.44-.272.29-.44.698-.504 1.225h2.911v-.075c-.029-.505-.165-.896-.409-1.171-.243-.28-.572-.419-.988-.419zm6.929 3.561c0-.269-.102-.476-.306-.623-.201-.151-.553-.28-1.058-.387-.502-.107-.901-.236-1.198-.387-.294-.15-.512-.329-.655-.537-.14-.207-.21-.455-.21-.741 0-.476.201-.879.602-1.208.404-.33.92-.495 1.547-.495.658 0 1.192.17 1.6.511.412.34.618.775.618 1.305h-.999c0-.272-.117-.507-.349-.704-.229-.197-.52-.295-.87-.295-.362 0-.645.079-.849.236-.204.158-.306.364-.306.618 0 .24.095.421.284.542.19.122.532.238 1.026.349.498.111.901.244 1.209.398s.535.34.682.558c.15.215.226.478.226.79 0 .519-.208.936-.623 1.251-.416.312-.955.468-1.617.468-.466 0-.877-.083-1.236-.247-.358-.165-.639-.394-.843-.688-.2-.297-.301-.618-.301-.961h.994c.018.333.15.598.398.795.25.193.58.29.988.29.376 0 .677-.076.902-.226.229-.154.344-.358.344-.612z"/></g><path d="m29.9268 156.638 3.2539 8.121 3.2539-8.121h1.7021v9.953h-1.3125v-3.876l.1231-4.183-3.2676 8.059h-1.0049l-3.2607-8.039.1298 4.163v3.876h-1.3125v-9.953zm12.749 8.101 1.7226-5.544h1.3536l-2.9737 8.538c-.4603 1.23-1.1917 1.846-2.1943 1.846l-.2393-.021-.4717-.089v-1.025l.3418.027c.4284 0 .7611-.086.9981-.26.2415-.173.4398-.489.5947-.95l.2803-.752-2.6387-7.314h1.3809zm12.0586 1.852h-1.3194l-5.0107-7.67v7.67h-1.3193v-9.953h1.3193l5.0244 7.704v-7.704h1.3057zm5.2021.137c-1.0026 0-1.8183-.328-2.4472-.984-.6289-.661-.9434-1.543-.9434-2.646v-.232c0-.734.139-1.388.417-1.962.2825-.579.6745-1.03 1.1758-1.354.5058-.328 1.0527-.492 1.6406-.492.9616 0 1.709.317 2.2422.95.5332.634.7998 1.541.7998 2.721v.526h-5.0108c.0183.73.2302 1.32.6358 1.771.4101.446.9297.67 1.5586.67.4466 0 .8249-.091 1.1347-.274.3099-.182.5811-.423.8135-.724l.7725.601c-.6198.953-1.5495 1.429-2.7891 1.429zm-.1572-6.631c-.5104 0-.9388.187-1.2852.561-.3463.369-.5605.888-.6425 1.558h3.705v-.095c-.0364-.643-.2096-1.14-.5195-1.491-.3099-.355-.7292-.533-1.2578-.533zm11.0605 4.751 1.4219-5.653h1.2647l-2.1534 7.396h-1.0253l-1.7979-5.605-1.75 5.605h-1.0254l-2.1465-7.396h1.2578l1.4561 5.537 1.7227-5.537h1.0185zm9.6661-2.652h-4.1768v4.395h-1.3125v-9.953h6.166v1.08h-4.8535v3.405h4.1768zm3.4248 4.395h-1.2647v-7.396h1.2647zm-1.3672-9.358c0-.205.0615-.378.1845-.52.1277-.141.3145-.212.5606-.212s.4329.071.5605.212c.1276.142.1914.315.1914.52s-.0638.376-.1914.513c-.1276.136-.3144.205-.5605.205s-.4329-.069-.5606-.205c-.123-.137-.1845-.308-.1845-.513zm4.7715 9.358h-1.2647v-10.5h1.2647zm5.0996.137c-1.0026 0-1.8184-.328-2.4473-.984-.6289-.661-.9434-1.543-.9434-2.646v-.232c0-.734.139-1.388.417-1.962.2826-.579.6745-1.03 1.1758-1.354.5059-.328 1.0528-.492 1.6406-.492.9616 0 1.709.317 2.2422.95.5332.634.7998 1.541.7998 2.721v.526h-5.0107c.0182.73.2301 1.32.6357 1.771.4102.446.9297.67 1.5586.67.4466 0 .8249-.091 1.1348-.274.3099-.182.5811-.423.8135-.724l.7724.601c-.6198.953-1.5494 1.429-2.789 1.429zm-.1573-6.631c-.5104 0-.9388.187-1.2851.561-.3464.369-.5606.888-.6426 1.558h3.7051v-.095c-.0365-.643-.2096-1.14-.5195-1.491-.3099-.355-.7292-.533-1.2579-.533z" fill="#2c2c2c"/><path d="m77.8574 258.991h-4.3135v3.527h5.0108v1.073h-6.3233v-9.953h6.2549v1.08h-4.9424v3.199h4.3135zm6.5762 3.869c-.4922.579-1.2145.868-2.167.868-.7884 0-1.39-.228-1.8047-.684-.4101-.46-.6175-1.139-.6221-2.037v-4.812h1.2647v4.778c0 1.121.4557 1.682 1.3672 1.682.9661 0 1.6087-.36 1.9277-1.08v-5.38h1.2647v7.396h-1.2032zm3.7803.731v-6.419h-1.169v-.977h1.169v-.759c0-.793.2119-1.406.6357-1.839s1.0231-.649 1.7979-.649c.2916 0 .581.038.8681.116l-.0683 1.025c-.2142-.041-.4421-.061-.6836-.061-.4102 0-.7269.121-.9502.362-.2233.237-.335.579-.335 1.026v.779h1.5791v.977h-1.5791v6.419zm7.1504.137c-1.0026 0-1.8184-.328-2.4473-.984-.6289-.661-.9434-1.543-.9434-2.646v-.232c0-.734.139-1.388.417-1.962.2826-.579.6745-1.03 1.1758-1.354.5059-.328 1.0527-.492 1.6406-.492.9616 0 1.709.317 2.2422.95.5332.634.7998 1.541.7998 2.721v.526h-5.0107c.0182.73.2301 1.32.6357 1.771.4102.446.9297.67 1.5586.67.4466 0 .8249-.091 1.1348-.274.3099-.182.581-.423.8135-.724l.7724.601c-.6198.953-1.5495 1.429-2.789 1.429zm-.1573-6.631c-.5104 0-.9388.187-1.2851.561-.3464.369-.5606.888-.6426 1.558h3.7051v-.095c-.0365-.643-.2097-1.14-.5196-1.491-.3099-.355-.7291-.533-1.2578-.533zm5.701-.902.034.82c.543-.638 1.274-.957 2.195-.957 1.034 0 1.738.397 2.112 1.19.246-.356.565-.643.957-.862.397-.219.864-.328 1.401-.328 1.623 0 2.448.859 2.475 2.577v4.956h-1.265v-4.881c0-.528-.12-.922-.362-1.182-.241-.264-.647-.397-1.217-.397-.469 0-.859.142-1.169.424-.31.278-.49.654-.54 1.128v4.908h-1.271v-4.846c0-1.076-.527-1.614-1.579-1.614-.83 0-1.397.354-1.702 1.06v5.4h-1.2651v-7.396zm12.462 7.396h-1.265v-7.396h1.265zm-1.367-9.358c0-.205.061-.378.185-.52.127-.141.314-.212.56-.212s.433.071.561.212c.127.142.191.315.191.52s-.064.376-.191.513c-.128.136-.315.205-.561.205s-.433-.069-.56-.205c-.124-.137-.185-.308-.185-.513zm7.964 9.358c-.073-.146-.132-.405-.178-.779-.588.611-1.29.916-2.105.916-.73 0-1.329-.205-1.798-.615-.465-.415-.698-.939-.698-1.572 0-.771.292-1.368.875-1.791.588-.429 1.413-.643 2.475-.643h1.231v-.581c0-.442-.133-.793-.397-1.053-.264-.264-.654-.396-1.169-.396-.451 0-.829.114-1.135.341-.305.228-.458.504-.458.828h-1.271c0-.37.13-.725.39-1.067.264-.346.619-.62 1.066-.82.451-.201.946-.301 1.483-.301.853 0 1.52.214 2.003.643.483.424.734 1.009.752 1.757v3.404c0 .679.087 1.219.26 1.62v.109zm-2.099-.964c.397 0 .773-.102 1.128-.307.356-.205.613-.472.773-.8v-1.518h-.992c-1.549 0-2.324.454-2.324 1.361 0 .396.132.706.397.929.264.224.603.335 1.018.335z" fill="#2c2c2c"/><circle cx="34.2832" cy="258.739" fill="#444" r="8" stroke="#444"/><path d="m34.2832 250.239h17v17h-17z" fill="#444"/><circle cx="51.2832" cy="258.739" fill="#fff" r="8" stroke="#444"/><path d="m9.30273 3.69141h453.00027c1.933 0 3.5 1.567 3.5 3.5v43.49999h-460.00027v-43.49999c0-1.933 1.56701-3.5 3.5-3.5z" fill="#2c2c2c" stroke="#2c2c2c"/><path d="m28.2578 30.6182h4.7168v1.0732h-6.0361v-9.9531h1.3193zm7.3897 1.0732h-1.2647v-7.3965h1.2647zm-1.3672-9.3584c0-.2051.0615-.3782.1845-.5195.1276-.1413.3145-.2119.5606-.2119s.4329.0706.5605.2119.1914.3144.1914.5195-.0638.376-.1914.5127-.3144.2051-.5605.2051-.433-.0684-.5606-.2051c-.123-.1367-.1845-.3076-.1845-.5127zm9.6592 5.7422c0 1.1302-.2598 2.0394-.7793 2.7275-.5196.6836-1.2168 1.0254-2.0918 1.0254-.9343 0-1.6566-.3304-2.167-.9912l-.0616.8545h-1.1621v-10.5h1.2647v3.917c.5104-.6335 1.2145-.9502 2.1123-.9502s1.6019.3395 2.1123 1.0186c.515.679.7725 1.6087.7725 2.789zm-1.2647-.1436c0-.8613-.1663-1.5267-.499-1.9961s-.8112-.7041-1.4356-.7041c-.834 0-1.4332.3874-1.7978 1.1622v3.1992c.3874.7747.9912 1.1621 1.8115 1.1621.6061 0 1.0778-.2347 1.415-.7041.3373-.4694.5059-1.1758.5059-2.1192zm6.4395-2.5019c-.1914-.0319-.3988-.0479-.6221-.0479-.8294 0-1.3923.3532-1.6885 1.0596v5.25h-1.2646v-7.3965h1.2304l.0205.8545c.4148-.6608 1.0026-.9912 1.7637-.9912.2461 0 .433.0319.5606.0957zm5.4619 6.2617c-.0729-.1458-.1322-.4056-.1778-.7793-.5879.6107-1.2897.916-2.1054.916-.7292 0-1.3285-.2051-1.7979-.6152-.4648-.4147-.6972-.9388-.6972-1.5723 0-.7702.2916-1.3672.875-1.791.5878-.4284 1.4127-.6426 2.4746-.6426h1.2304v-.581c0-.4421-.1321-.793-.3965-1.0528-.2643-.2643-.6539-.3964-1.1689-.3964-.4512 0-.8294.1139-1.1348.3418-.3053.2278-.458.5035-.458.8271h-1.2715c0-.3691.1299-.7246.3897-1.0664.2643-.3464.6198-.6198 1.0664-.8203.4512-.2005.9456-.3008 1.4834-.3008.8522 0 1.5199.2142 2.0029.6426.4831.4238.7337 1.0094.752 1.7568v3.4043c0 .6791.0866 1.2191.2597 1.6201v.1094zm-2.0987-.9639c.3965 0 .7725-.1025 1.128-.3076.3554-.2051.6129-.4717.7724-.7998v-1.5176h-.9912c-1.5495 0-2.3242.4535-2.3242 1.3604 0 .3965.1322.7064.3965.9297s.6038.3349 1.0185.3349zm8.7227-5.2978c-.1914-.0319-.3988-.0479-.6221-.0479-.8294 0-1.3922.3532-1.6885 1.0596v5.25h-1.2646v-7.3965h1.2305l.0205.8545c.4147-.6608 1.0026-.9912 1.7636-.9912.2461 0 .433.0319.5606.0957zm2.543 6.2617h-1.2647v-7.3965h1.2647zm-1.3672-9.3584c0-.2051.0615-.3782.1845-.5195.1277-.1413.3145-.2119.5606-.2119s.4329.0706.5605.2119.1914.3144.1914.5195-.0638.376-.1914.5127-.3144.2051-.5605.2051-.4329-.0684-.5606-.2051c-.123-.1367-.1845-.3076-.1845-.5127zm6.4668 9.4951c-1.0026 0-1.8184-.3281-2.4473-.9843-.6289-.6609-.9434-1.5427-.9434-2.6456v-.2324c0-.7337.139-1.3877.417-1.9619.2826-.5788.6745-1.0299 1.1758-1.3535.5059-.3281 1.0528-.4922 1.6406-.4922.9616 0 1.709.3167 2.2422.9502s.7998 1.5404.7998 2.7207v.5264h-5.0107c.0182.7291.2301 1.3193.6357 1.7705.4102.4466.9297.6699 1.5586.6699.4466 0 .8249-.0911 1.1348-.2734s.5811-.4239.8135-.7246l.7724.6015c-.6198.9525-1.5494 1.4287-2.789 1.4287zm-.1573-6.6308c-.5104 0-.9388.1868-1.2851.5605-.3464.3692-.5606.8887-.6426 1.5586h3.7051v-.0957c-.0365-.6426-.2096-1.1393-.5195-1.4902-.3099-.3555-.7292-.5332-1.2579-.5332zm8.8184 4.5322c0-.3418-.1299-.6061-.3896-.793-.2553-.1914-.7041-.3554-1.3467-.4922-.638-.1367-1.1462-.3007-1.5244-.4922-.3737-.1914-.6517-.4192-.834-.6835-.1778-.2644-.2666-.5788-.2666-.9434 0-.6061.2552-1.1188.7656-1.5381.515-.4193 1.1712-.6289 1.9688-.6289.8385 0 1.5175.2165 2.0371.6494.5241.433.7861.9867.7861 1.6612h-1.2715c0-.3464-.1481-.6449-.4443-.8956-.2917-.2506-.6608-.3759-1.1074-.3759-.4603 0-.8204.1002-1.0801.3007-.2598.2006-.3897.4626-.3897.7862 0 .3053.1208.5355.3623.6904.2416.155.6768.3031 1.3057.4443.6335.1413 1.1462.3099 1.5381.5059s.6813.4329.8681.7109c.1915.2735.2872.6084.2872 1.0049 0 .6608-.2644 1.1918-.793 1.5928-.5287.3965-1.2145.5947-2.0576.5947-.5925 0-1.1166-.1048-1.5723-.3144-.4557-.2097-.8135-.5013-1.0732-.875-.2552-.3783-.3829-.7862-.3829-1.2237h1.2647c.0228.4239.1914.7611.5059 1.0118.319.2461.7382.3691 1.2578.3691.4785 0 .8613-.0957 1.1484-.2871.2917-.196.4375-.4557.4375-.7793z" fill="#fff"/><path d="m29.2871 75.3232c-.9648-.2773-1.668-.6171-2.1094-1.0195-.4375-.4062-.6562-.9062-.6562-1.5 0-.6719.2676-1.2266.8027-1.6641.5391-.4414 1.2383-.6621 2.0977-.6621.5859 0 1.1074.1133 1.5644.3399.461.2265.8164.539 1.0664.9375.2539.3984.3809.834.3809 1.3066h-1.1309c0-.5156-.164-.9199-.4922-1.2129-.3281-.2968-.791-.4453-1.3886-.4453-.5547 0-.9883.1231-1.3008.3692-.3086.2421-.4629.58-.4629 1.0136 0 .3477.1465.6426.4395.8848.2968.2383.7988.457 1.5058.6562.711.1993 1.2656.42 1.6641.6622.4023.2382.6992.5175.8906.8378.1953.3204.293.6973.293 1.1309 0 .6914-.2696 1.2461-.8086 1.6641-.5391.414-1.2598.6211-2.1621.6211-.586 0-1.1328-.1114-1.6407-.334-.5078-.2266-.9003-.5352-1.1777-.9258-.2734-.3906-.4101-.834-.4101-1.3301h1.1308c0 .5156.1895.9238.5684 1.2246.3828.2969.8926.4453 1.5293.4453.5937 0 1.0488-.1211 1.3652-.3632.3164-.2422.4746-.5723.4746-.9903 0-.4179-.1465-.7402-.4394-.9668-.293-.2304-.8243-.457-1.5938-.6797zm7.0723 3.92c-.8594 0-1.5586-.2813-2.0977-.8438-.539-.5664-.8086-1.3223-.8086-2.2676v-.1992c0-.6289.1192-1.1894.3574-1.6816.2422-.4961.5782-.8828 1.0079-1.1602.4336-.2812.9023-.4219 1.4062-.4219.8242 0 1.4649.2715 1.9219.8145s.6855 1.3203.6855 2.332v.4512h-4.2949c.0156.625.1973 1.1309.5449 1.5176.3516.3828.7969.5742 1.336.5742.3828 0 .707-.0781.9726-.2344.2656-.1562.4981-.3633.6973-.6211l.6621.5157c-.5312.8164-1.3281 1.2246-2.3906 1.2246zm-.1348-5.6836c-.4375 0-.8047.1601-1.1016.4804-.2968.3164-.4804.7618-.5507 1.336h3.1757v-.0821c-.0312-.5507-.1796-.9765-.4453-1.2773-.2656-.3047-.625-.457-1.0781-.457zm7.7813 5.5664c-.0625-.125-.1133-.3477-.1524-.668-.5039.5234-1.1055.7852-1.8047.7852-.625 0-1.1386-.1758-1.541-.5274-.3984-.3554-.5976-.8047-.5976-1.3476 0-.6602.25-1.1719.75-1.5352.5039-.3672 1.2109-.5508 2.121-.5508h1.0547v-.498c0-.3789-.1132-.6797-.3398-.9024-.2266-.2265-.5606-.3398-1.002-.3398-.3867 0-.7109.0976-.9726.293-.2617.1953-.3926.4316-.3926.7089h-1.0898c0-.3164.1113-.621.3339-.914.2266-.2969.5313-.5313.9141-.7031.3867-.1719.8106-.2579 1.2715-.2579.7305 0 1.3027.1836 1.7168.5508.4141.3633.6289.8653.6445 1.5059v2.918c0 .582.0742 1.0449.2227 1.3886v.0938zm-1.7989-.8262c.3399 0 .6621-.0879.9668-.2637.3047-.1757.5254-.4043.6621-.6855v-1.3008h-.8496c-1.3281 0-1.9922.3887-1.9922 1.166 0 .3399.1133.6055.3399.7969.2265.1914.5176.2871.873.2871zm7.4766-4.541c-.1641-.0274-.3418-.041-.5332-.041-.7109 0-1.1934.3027-1.4473.9082v4.5h-1.084v-6.3399h1.0547l.0176.7325c.3555-.5665.8594-.8497 1.5117-.8497.211 0 .3711.0274.4805.0821zm3.4277 4.5996c.3867 0 .7246-.1172 1.0137-.3516.2891-.2343.4492-.5273.4805-.8789h1.0254c-.0196.3633-.1446.709-.375 1.0371-.2305.3282-.5391.5899-.9258.7852-.3828.1953-.7891.293-1.2188.293-.8633 0-1.5508-.2871-2.0625-.8614-.5078-.5781-.7617-1.3672-.7617-2.3672v-.1816c0-.6172.1133-1.166.3399-1.6465.2265-.4804.5507-.8535.9726-1.1191.4258-.2656.9277-.3985 1.5059-.3985.7109 0 1.3007.2129 1.7695.6387.4727.4258.7246.9785.7559 1.6582h-1.0254c-.0313-.4101-.1875-.7461-.4688-1.0078-.2773-.2656-.6211-.3984-1.0312-.3984-.5508 0-.9785.1992-1.2832.5976-.3008.3946-.4512.9668-.4512 1.7168v.2051c0 .7305.1504 1.293.4512 1.6875.3007.3945.7304.5918 1.289.5918zm4.8223-4.8047c.4805-.5898 1.1055-.8848 1.875-.8848 1.3398 0 2.0156.7559 2.0273 2.2676v4.1895h-1.0839v-4.1953c-.004-.4571-.1094-.795-.3165-1.0137-.2031-.2188-.5214-.3281-.955-.3281-.3516 0-.6602.0937-.9258.2812s-.4727.4336-.6211.7383v4.5176h-1.084v-9h1.084z" fill="#aaa"/><path d="m113.945 21.7383v6.7676c-.004.9388-.3 1.7067-.888 2.3037-.584.597-1.377.9319-2.379 1.0049l-.349.0136c-1.089 0-1.957-.2939-2.604-.8818-.648-.5879-.976-1.3968-.985-2.4268v-6.7812h1.299v6.7402c0 .7201.198 1.2806.595 1.6817.396.3964.961.5947 1.695.5947.743 0 1.31-.1983 1.702-.5947.397-.3965.595-.9548.595-1.6748v-6.7471zm8.121 6.3369c0 1.1256-.257 2.0325-.772 2.7207-.515.6881-1.212 1.0322-2.092 1.0322-.898 0-1.604-.2848-2.119-.8545v3.5616h-1.265v-10.2403h1.156l.061.8203c.515-.638 1.231-.957 2.147-.957.888 0 1.59.335 2.105 1.0049.52.6699.779 1.6019.779 2.7959zm-1.264-.1436c0-.8339-.178-1.4925-.533-1.9755-.356-.4831-.844-.7247-1.463-.7247-.766 0-1.34.3396-1.723 1.0186v3.5342c.378.6745.957 1.0117 1.736 1.0117.606 0 1.087-.2393 1.443-.7178.36-.483.54-1.1985.54-2.1465zm2.57 0c0-1.1347.269-2.0462.807-2.7343.537-.6927 1.242-1.0391 2.112-1.0391.866 0 1.552.2962 2.058.8887v-3.8555h1.264v10.5h-1.162l-.061-.793c-.506.6198-1.21.9297-2.113.9297-.856 0-1.556-.3509-2.098-1.0527-.538-.7018-.807-1.6178-.807-2.7481zm1.265.1436c0 .8385.173 1.4948.519 1.9687.347.474.825.711 1.436.711.802 0 1.387-.36 1.757-1.0801v-3.3975c-.379-.6972-.96-1.0459-1.744-1.0459-.619 0-1.102.2393-1.449.7178-.346.4785-.519 1.1872-.519 2.126zm11.511 3.6162c-.072-.1458-.132-.4056-.177-.7793-.588.6107-1.29.916-2.106.916-.729 0-1.328-.2051-1.798-.6152-.464-.4147-.697-.9388-.697-1.5723 0-.7702.292-1.3672.875-1.791.588-.4284 1.413-.6426 2.475-.6426h1.23v-.581c0-.4421-.132-.793-.396-1.0528-.265-.2643-.654-.3964-1.169-.3964-.451 0-.83.1139-1.135.3418-.305.2278-.458.5035-.458.8271h-1.271c0-.3691.129-.7246.389-1.0664.264-.3464.62-.6198 1.067-.8203.451-.2005.945-.3008 1.483-.3008.852 0 1.52.2142 2.003.6426.483.4238.734 1.0094.752 1.7568v3.4043c0 .6791.086 1.2191.26 1.6201v.1094zm-2.098-.9639c.396 0 .772-.1025 1.128-.3076.355-.2051.613-.4717.772-.7998v-1.5176h-.991c-1.549 0-2.324.4535-2.324 1.3604 0 .3965.132.7064.396.9297.265.2233.604.3349 1.019.3349zm6.863-8.2236v1.791h1.381v.9776h-1.381v4.5869c0 .2962.062.5195.185.6699.123.1458.332.2187.629.2187.145 0 .346-.0273.601-.082v1.0254c-.333.0912-.656.1367-.971.1367-.565 0-.991-.1709-1.278-.5127s-.431-.8271-.431-1.456v-4.5869h-1.346v-.9776h1.346v-1.791zm5.934 9.3242c-1.003 0-1.819-.3281-2.448-.9843-.628-.6609-.943-1.5427-.943-2.6456v-.2324c0-.7337.139-1.3877.417-1.9619.283-.5788.675-1.0299 1.176-1.3535.506-.3281 1.053-.4922 1.64-.4922.962 0 1.709.3167 2.243.9502.533.6335.799 1.5404.799 2.7207v.5264h-5.01c.018.7291.23 1.3193.635 1.7705.411.4466.93.6699 1.559.6699.447 0 .825-.0911 1.135-.2734s.581-.4239.813-.7246l.773.6015c-.62.9525-1.55 1.4287-2.789 1.4287zm-.158-6.6308c-.51 0-.938.1868-1.285.5605-.346.3692-.56.8887-.642 1.5586h3.705v-.0957c-.037-.6426-.21-1.1393-.52-1.4902-.31-.3555-.729-.5332-1.258-.5332zm8.819 4.5322c0-.3418-.13-.6061-.39-.793-.255-.1914-.704-.3554-1.347-.4922-.638-.1367-1.146-.3007-1.524-.4922-.374-.1914-.652-.4192-.834-.6835-.178-.2644-.267-.5788-.267-.9434 0-.6061.256-1.1188.766-1.5381.515-.4193 1.171-.6289 1.969-.6289.838 0 1.517.2165 2.037.6494.524.433.786.9867.786 1.6612h-1.271c0-.3464-.148-.6449-.445-.8956-.291-.2506-.661-.3759-1.107-.3759-.46 0-.82.1002-1.08.3007-.26.2006-.39.4626-.39.7862 0 .3053.121.5355.362.6904.242.155.677.3031 1.306.4443.634.1413 1.146.3099 1.538.5059s.682.4329.868.7109c.192.2735.287.6084.287 1.0049 0 .6608-.264 1.1918-.793 1.5928-.528.3965-1.214.5947-2.057.5947-.593 0-1.117-.1048-1.572-.3144-.456-.2097-.814-.5013-1.074-.875-.255-.3783-.382-.7862-.382-1.2237h1.264c.023.4239.192.7611.506 1.0118.319.2461.738.3691 1.258.3691.478 0 .861-.0957 1.148-.2871.292-.196.438-.4557.438-.7793z" fill="#fff" opacity=".5"/><path d="m6.2207 98.6084h461.604v1h-461.604z" fill="#d4d4d4"/><path d="m6.2207 195.608h461.604v1h-461.604z" fill="#d4d4d4"/><path clip-rule="evenodd" d="m446.896 32.796.708-.7071-3.605-3.6045 3.534-3.5341-.707-.7071-4.24 4.2403.068.0698.639.6373z" fill="#fff" fill-rule="evenodd" opacity=".5"/><path clip-rule="evenodd" d="m439.643 24.2431-.707.7071 3.604 3.6044-3.534 3.5342.707.7071 4.24-4.2403-.069-.0689.001-.001z" fill="#fff" fill-rule="evenodd" opacity=".5"/><path clip-rule="evenodd" d="m439.643 256.243-.707.707 3.604 3.605-3.534 3.534.707.707 4.24-4.24-.069-.069.001-.001z" fill="#333" fill-rule="evenodd" opacity=".5"/></svg>