<svg fill="none" height="200" viewBox="0 0 472 200" width="472" xmlns="http://www.w3.org/2000/svg" xmlns:xlink="http://www.w3.org/1999/xlink"><filter id="a" color-interpolation-filters="sRGB" filterUnits="userSpaceOnUse" height="128" width="237" x="4" y="64"><feFlood flood-opacity="0" result="BackgroundImageFix"/><feColorMatrix in="SourceAlpha" type="matrix" values="0 0 0 0 0 0 0 0 0 0 0 0 0 0 0 0 0 0 127 0"/><feOffset/><feGaussianBlur stdDeviation="2"/><feColorMatrix type="matrix" values="0 0 0 0 0 0 0 0 0 0 0 0 0 0 0 0 0 0 0.25 0"/><feBlend in2="BackgroundImageFix" mode="normal" result="effect1_dropShadow"/><feBlend in="SourceGraphic" in2="effect1_dropShadow" mode="normal" result="shape"/></filter><g filter="url(#a)"><path d="m8 68h229v116c0 2.209-1.791 4-4 4h-221c-2.20914 0-4-1.791-4-4z" fill="#fff"/></g><path d="m8 34c0-1.1046.89543-2 2-2h225c1.105 0 2 .8954 2 2v34h-229z" fill="#2c2c2c"/><path d="m237 32h227v36h-227z" fill="#d4d4d4"/><rect fill="#ddd" height="23" rx="1.5" stroke="#eee" width="23" x="251.5" y="38.5"/><g fill="#050505"><path d="m255 43h3v3h-3z"/><path d="m255 43h3v3h-3z"/><path d="m261 43h3v3h-3z"/><path d="m261 43h3v3h-3z"/><path d="m267 43h3v3h-3z"/><path d="m267 43h3v3h-3z"/><path d="m255 49h3v3h-3z"/><path d="m255 49h3v3h-3z"/><path d="m261 49h3v3h-3z"/><path d="m261 49h3v3h-3z"/><path d="m267 49h3v3h-3z"/><path d="m267 49h3v3h-3z"/><path d="m255 55h3v3h-3z"/><path d="m255 55h3v3h-3z"/><path d="m261 55h3v3h-3z"/><path d="m261 55h3v3h-3z"/><path d="m267 55h3v3h-3z"/><path d="m267 55h3v3h-3z"/></g><path d="m286.682 52.9741c-.265.3796-.636.6642-1.112.854-.473.1862-1.024.2793-1.654.2793-.638 0-1.204-.1486-1.698-.4458-.494-.3008-.877-.7269-1.149-1.2783-.269-.5514-.407-1.1906-.414-1.9175v-.6821c0-1.1781.274-2.0912.822-2.7393.551-.6481 1.325-.9721 2.32-.9721.817 0 1.474.2094 1.972.6284.497.4153.802 1.0062.913 1.7724h-1.032c-.193-1.0348-.809-1.5522-1.847-1.5522-.691 0-1.216.2435-1.574.7305-.354.4834-.534 1.1852-.537 2.1054v.6392c0 .8773.2 1.5755.601 2.0947.401.5156.944.7735 1.628.7735.387 0 .725-.043 1.015-.1289.29-.086.53-.231.72-.4351v-1.7564h-1.81v-.8378h2.836zm4.377-3.894c-.15-.0251-.313-.0376-.489-.0376-.651 0-1.094.2775-1.326.8325v4.125h-.994v-5.8115h.967l.016.6714c.326-.5192.788-.7788 1.386-.7788.193 0 .34.025.44.0751zm1.998 4.9199h-.994v-5.8115h.994zm-1.074-7.353c0-.1612.048-.2972.145-.4082.1-.111.247-.1665.44-.1665.194 0 .341.0555.441.1665s.15.247.15.4082c0 .1611-.05.2954-.15.4028s-.247.1611-.441.1611c-.193 0-.34-.0537-.44-.1611-.097-.1074-.145-.2417-.145-.4028zm2.428 4.3989c0-.8916.211-1.6077.633-2.1484.423-.5443.976-.8164 1.66-.8164.68 0 1.219.2327 1.617.6982v-3.0293h.993v8.25h-.913l-.048-.623c-.397.4869-.951.7304-1.66.7304-.673 0-1.222-.2757-1.649-.8271-.422-.5515-.633-1.2712-.633-2.1592zm.993.1128c0 .6588.136 1.1745.408 1.5469.273.3724.649.5586 1.128.5586.631 0 1.091-.2829 1.381-.8487v-2.6694c-.297-.5479-.754-.8218-1.37-.8218-.487 0-.866.188-1.139.564-.272.376-.408.9328-.408 1.6704zm8.148-.333c0-.8093.108-1.5863.323-2.3311.218-.7448.542-1.4215.972-2.0302.429-.6088.875-1.0385 1.337-1.2891l.204.6553c-.523.401-.952 1.0133-1.289 1.8369-.333.8235-.516 1.7456-.548 2.7661l-.005.4565c0 1.3822.252 2.5817.757 3.5987.305.6087.666 1.0849 1.085 1.4287l-.204.6069c-.476-.265-.931-.709-1.364-1.332-.845-1.2175-1.268-2.673-1.268-4.3667zm8.546-2.605c0 .3903-.104.7376-.312 1.042-.204.3044-.481.5425-.832.7144.408.1754.73.4314.966.768.24.3366.36.718.36 1.1441 0 .6767-.229 1.2156-.687 1.6167-.455.401-1.055.6015-1.8.6015-.751 0-1.355-.2005-1.81-.6015-.451-.4047-.676-.9436-.676-1.6167 0-.4226.114-.8039.343-1.1441.233-.3402.554-.598.962-.7734-.348-.1719-.621-.41-.822-.7144-.2-.3043-.301-.6499-.301-1.0366 0-.6589.212-1.1816.634-1.5684.423-.3867.979-.58 1.67-.58.688 0 1.243.1933 1.665.58.427.3868.64.9095.64 1.5684zm-.811 3.647c0-.4369-.14-.7932-.419-1.0689-.276-.2757-.638-.4135-1.085-.4135-.448 0-.808.136-1.08.4082-.268.2721-.403.6302-.403 1.0742s.131.7931.392 1.0473c.265.2543.632.3814 1.101.3814.466 0 .831-.1271 1.096-.3814.265-.2578.398-.6069.398-1.0473zm-1.494-4.979c-.39 0-.707.1217-.95.3652-.24.2399-.36.5676-.36.9829 0 .3975.118.7197.354.9668.24.2435.559.3652.956.3652.398 0 .715-.1217.951-.3652.24-.2471.36-.5693.36-.9668 0-.3974-.124-.7215-.371-.9722-.247-.2506-.56-.3759-.94-.3759zm8.857 4.27c0 .8844-.202 1.597-.607 2.1377-.404.5407-.952.811-1.643.811-.706 0-1.261-.2238-1.665-.6714v2.7984h-.994v-8.0459h.908l.048.6445c.405-.5013.967-.7519 1.687-.7519.698 0 1.249.2631 1.654.7895.408.5264.612 1.2586.612 2.1968zm-.993-.1128c0-.6553-.14-1.1727-.419-1.5522-.28-.3796-.663-.5694-1.15-.5694-.601 0-1.052.2668-1.353.8003v2.7769c.297.5299.752.7949 1.364.7949.476 0 .854-.188 1.133-.564.283-.3795.425-.9417.425-1.6865zm4.125-.7358 1.289-2.1216h1.16l-1.901 2.8735 1.96 2.938h-1.149l-1.343-2.1753-1.343 2.1753h-1.155l1.961-2.938-1.902-2.8735h1.15zm5.801.5693c0 .7985-.106 1.5648-.317 2.2988-.208.7305-.529 1.4055-.962 2.0249-.429.6195-.881 1.0599-1.353 1.3213l-.21-.6069c.552-.4225.994-1.0778 1.327-1.9658.336-.8916.508-1.8799.515-2.9649v-.1719c0-.7519-.078-1.4502-.236-2.0947-.157-.6481-.378-1.2282-.66-1.7402-.28-.5121-.595-.9113-.946-1.1978l.21-.6069c.472.2614.922.6982 1.348 1.3105.43.6123.75 1.2873.961 2.0249.215.7377.323 1.5272.323 2.3687z" fill="#fff"/><path d="m406 49.5338c1.852-2.6667 7.315-6.4 12.5 0" stroke="#fff"/><path d="m418.5 49.5338c-1.852 2.6666-7.315 6.3999-12.5-.0001" stroke="#fff"/><circle cx="412" cy="49.5338" fill="#fff" r="2"/><path d="m437 48.5338h10v1h-10z" fill="#fff"/><path d="m251.944 17.1567h3.706v.8433h-4.742v-7.8203h1.036zm10.298-1.1977h-3.276l-.736 2.041h-1.063l2.986-7.8203h.902l2.992 7.8203h-1.058zm-2.964-.8486h2.658l-1.332-3.6578zm8.692-1.0044 2.041-3.9263h1.171l-2.697 4.9038v2.9165h-1.031v-2.9165l-2.696-4.9038h1.181zm11.066.2363c0 .7663-.129 1.4359-.387 2.0088-.258.5693-.623 1.0044-1.096 1.3051-.472.3008-1.024.4512-1.654.4512-.616 0-1.162-.1504-1.638-.4512-.476-.3043-.847-.7358-1.112-1.2944-.261-.5622-.395-1.2121-.403-1.9497v-.564c0-.7519.131-1.4161.392-1.9926.262-.5765.631-1.017 1.107-1.3213.48-.308 1.028-.4619 1.643-.4619.627 0 1.179.1521 1.655.4565.48.3008.848.7394 1.106 1.3159.258.5729.387 1.2407.387 2.0034zm-1.026-.5049c0-.9274-.186-1.6382-.559-2.1323-.372-.4977-.893-.7466-1.563-.7466-.651 0-1.165.2489-1.541.7466-.372.4941-.564 1.1816-.575 2.0625v.5747c0 .8987.188 1.6059.564 2.1216.38.512.901.768 1.563.768.666 0 1.182-.2417 1.547-.7251.365-.4869.553-1.1834.564-2.0893zm9.068-3.6577v5.3174c-.003.7376-.236 1.341-.698 1.81-.458.4691-1.081.7323-1.869.7896l-.274.0107c-.856 0-1.538-.2309-2.047-.6928-.508-.462-.766-1.0975-.773-1.9068v-5.3281h1.021v5.2959c0 .5657.155 1.0062.467 1.3213.311.3115.755.4673 1.332.4673.584 0 1.029-.1558 1.337-.4673.312-.3115.468-.7502.468-1.3159v-5.3013zm8.021.8486h-2.514v6.9717h-1.026v-6.9717h-2.508v-.8486h6.048zm11.428 5.9458c-.265.3796-.636.6642-1.112.854-.473.1862-1.024.2793-1.654.2793-.638 0-1.204-.1486-1.698-.4458-.494-.3008-.877-.7269-1.149-1.2783-.269-.5514-.407-1.1906-.414-1.9175v-.6821c0-1.1781.274-2.0912.822-2.7393.552-.6481 1.325-.9721 2.32-.9721.817 0 1.474.2094 1.972.6284.497.4153.802 1.0062.913 1.7724h-1.032c-.193-1.0348-.809-1.5522-1.847-1.5522-.691 0-1.216.2435-1.574.7305-.354.4834-.533 1.1852-.537 2.1054v.6392c0 .8773.2 1.5755.601 2.0947.402.5156.944.7735 1.628.7735.387 0 .725-.043 1.015-.1289.29-.086.53-.231.72-.4351v-1.7564h-1.81v-.8378h2.836zm5.582-2.1377h-1.837v3.1636h-1.037v-7.8203h2.589c.881 0 1.558.2005 2.031.6015.476.4011.714.9848.714 1.751 0 .487-.133.9113-.398 1.273-.261.3616-.626.632-1.095.811l1.837 3.3193v.0645h-1.107zm-1.837-.8432h1.585c.512 0 .918-.1325 1.219-.3975.304-.265.456-.6195.456-1.0635 0-.4834-.145-.854-.435-1.1118-.286-.2578-.702-.3885-1.246-.3921h-1.579zm7.844 4.0068h-1.032v-7.8203h1.032zm2.88 0v-7.8203h2.208c.68 0 1.282.1504 1.804.4512.523.3007.926.7286 1.209 1.2837.286.555.431 1.1923.435 1.9121v.4995c0 .7376-.143 1.3839-.43 1.9389-.283.555-.689.9812-1.219 1.2784-.526.2972-1.14.4493-1.842.4565zm1.031-6.9717v6.1284h1.085c.795 0 1.413-.247 1.853-.7412.444-.4941.666-1.1977.666-2.1108v-.4566c0-.888-.209-1.5773-.628-2.0678-.415-.4942-1.006-.7448-1.772-.752z" fill="#000"/><circle cx="408.5" cy="11.5" fill="#444" r="1.5"/><circle cx="414.5" cy="11.5" fill="#444" r="1.5"/><circle cx="408.5" cy="17.5" fill="#444" r="1.5"/><circle cx="414.5" cy="17.5" fill="#444" r="1.5"/><path d="m441 8h1v11h-1z" fill="#444"/><path d="m436 13h11v1h-11z" fill="#444"/><path d="m89 80h133c2.209 0 4 1.7909 4 4v16c0 2.209-1.791 4-4 4h-133z" fill="#d4d4d4"/><path d="m89 104h-64c-2.2091 0-4-1.791-4-4v-16c0-2.2091 1.7909-4 4-4h64z" fill="#30c1ff"/><path d="m51.6816 94.9741c-.2649.3796-.6355.6642-1.1118.854-.4726.1862-1.0241.2793-1.6543.2793-.6373 0-1.2031-.1486-1.6972-.4458-.4942-.3008-.8773-.7269-1.1495-1.2783-.2685-.5514-.4064-1.1906-.4135-1.9175v-.6821c0-1.1781.2739-2.0912.8218-2.7393.5514-.6481 1.3248-.9721 2.3203-.9721.8164 0 1.4734.2094 1.9712.6284.4977.4153.802 1.0062.913 1.7724h-1.0312c-.1934-1.0348-.8093-1.5522-1.8477-1.5522-.691 0-1.2156.2435-1.5737.7305-.3545.4834-.5335 1.1852-.5371 2.1054v.6392c0 .8773.2005 1.5755.6016 2.0947.401.5156.9435.7735 1.6274.7735.3867 0 .7251-.043 1.0151-.1289.2901-.086.53-.231.7198-.4351v-1.7564h-1.8101v-.8378h2.8359zm4.3775-3.894c-.1504-.0251-.3133-.0376-.4888-.0376-.6517 0-1.0939.2775-1.3266.8325v4.125h-.9937v-5.8115h.9668l.0161.6714c.3259-.5192.7878-.7788 1.3858-.7788.1933 0 .3401.025.4404.0751zm1.998 4.9199h-.9936v-5.8115h.9936zm-1.0742-7.353c0-.1612.0483-.2972.145-.4082.1003-.111.2471-.1665.4405-.1665.1933 0 .3401.0555.4404.1665.1002.111.1504.247.1504.4082 0 .1611-.0502.2954-.1504.4028-.1003.1074-.2471.1611-.4404.1611-.1934 0-.3402-.0537-.4405-.1611-.0967-.1074-.145-.2417-.145-.4028zm2.4277 4.3989c0-.8916.2113-1.6077.6338-2.1484.4226-.5443.9758-.8164 1.6597-.8164.6803 0 1.2192.2327 1.6167.6982v-3.0293h.9937v8.25h-.9131l-.0484-.623c-.3974.4869-.9507.7304-1.6596.7304-.6732 0-1.2229-.2757-1.649-.8271-.4225-.5515-.6338-1.2712-.6338-2.1592zm.9937.1128c0 .6588.1361 1.1745.4082 1.5469s.6481.5586 1.1279.5586c.6302 0 1.0904-.2829 1.3804-.8487v-2.6694c-.2972-.5479-.7537-.8218-1.3696-.8218-.487 0-.8666.188-1.1387.564s-.4082.9328-.4082 1.6704z" fill="#fff"/><path d="m108.66 93.5186c-.097.8271-.403 1.4663-.918 1.9174-.512.4476-1.194.6714-2.047.6714-.924 0-1.665-.3312-2.223-.9936-.555-.6625-.833-1.5487-.833-2.6587v-.752c0-.7269.129-1.366.387-1.9175.261-.5514.63-.9739 1.106-1.2675.477-.2972 1.028-.4458 1.655-.4458.83 0 1.496.2327 1.998.6982.501.4619.793 1.1029.875 1.9229h-1.036c-.09-.6231-.285-1.0743-.586-1.3536-.297-.2793-.714-.4189-1.251-.4189-.659 0-1.177.2435-1.553.7305-.372.4869-.558 1.1798-.558 2.0786v.7573c0 .8486.177 1.5236.532 2.0249.354.5013.85.752 1.487.752.573 0 1.012-.1289 1.316-.3868.308-.2614.512-.7143.613-1.3588zm.994-.4781c0-.5693.111-1.0814.333-1.5361.225-.4548.537-.8057.934-1.0527.401-.2471.858-.3706 1.37-.3706.791 0 1.431.2739 1.917.8217.491.5479.736 1.2766.736 2.1861v.0698c0 .5657-.109 1.0742-.327 1.5254-.215.4476-.525.7967-.929 1.0473-.402.2507-.863.376-1.386.376-.788 0-1.427-.2739-1.918-.8218-.487-.5478-.73-1.2729-.73-2.1752zm.999.1182c0 .6445.148 1.1619.446 1.5522.3.3903.701.5855 1.203.5855.505 0 .906-.197 1.203-.5908.297-.3975.446-.9525.446-1.6651 0-.6373-.152-1.153-.457-1.5468-.301-.3975-.702-.5962-1.203-.5962-.491 0-.886.1951-1.187.5854s-.451.9489-.451 1.6758zm6.617 2.8413h-.994v-8.25h.994zm5.183-.5747c-.387.4547-.954.6821-1.703.6821-.619 0-1.092-.179-1.417-.5371-.323-.3616-.486-.8952-.489-1.6006v-3.7812h.993v3.7544c0 .8808.358 1.3213 1.075 1.3213.759 0 1.264-.2829 1.514-.8487v-4.227h.994v5.8115h-.945zm3.416-5.2368.027.6445c.426-.5013 1.001-.7519 1.724-.7519.813 0 1.366.3115 1.66.9345.193-.2793.444-.5049.752-.6767.311-.1719.678-.2578 1.101-.2578 1.275 0 1.923.6749 1.944 2.0249v3.894h-.994v-3.835c0-.4153-.094-.7251-.284-.9292-.19-.2076-.509-.3115-.956-.3115-.369 0-.675.111-.919.333-.243.2184-.385.5139-.424.8863v3.8564h-.999v-3.8081c0-.8451-.414-1.2676-1.241-1.2676-.651 0-1.097.2775-1.337.8325v4.2432h-.994v-5.8115zm9.652 0 .032.7304c.444-.5585 1.024-.8378 1.74-.8378 1.229 0 1.848.6928 1.859 2.0786v3.8403h-.994v-3.8457c-.003-.4189-.1-.7287-.29-.9292-.186-.2005-.478-.3008-.875-.3008-.323 0-.605.086-.849.2578-.243.1719-.433.3975-.569.6768v4.1411h-.994v-5.8115zm8.513 4.27c0-.2686-.102-.4762-.306-.6231-.2-.1503-.553-.2792-1.058-.3867-.501-.1074-.901-.2363-1.198-.3867-.293-.1504-.512-.3294-.655-.5371-.14-.2077-.21-.4548-.21-.7412 0-.4762.201-.8791.602-1.2085.405-.3294.92-.4941 1.547-.4941.659 0 1.192.17 1.6.5102.412.3402.618.7752.618 1.3052h-.999c0-.2722-.116-.5067-.349-.7036-.229-.197-.519-.2954-.87-.2954-.362 0-.645.0787-.849.2363-.204.1575-.306.3634-.306.6177 0 .2399.095.4207.285.5424.19.1218.531.2382 1.026.3492.497.111.9.2435 1.208.3974.308.154.535.3402.682.5586.151.2149.226.478.226.7896 0 .5192-.208.9363-.623 1.2514-.416.3116-.954.4673-1.617.4673-.465 0-.877-.0823-1.235-.247-.358-.1648-.639-.3939-.844-.6875-.2-.2972-.3-.6177-.3-.9615h.993c.018.333.151.598.398.7949.25.1934.58.2901.988.2901.376 0 .677-.0752.902-.2256.23-.154.344-.3581.344-.6123z" fill="#fff"/><path d="m182.776 92.8364h-1.837v3.1636h-1.037v-7.8203h2.589c.881 0 1.558.2005 2.03.6015.477.4011.715.9848.715 1.751 0 .487-.133.9113-.398 1.273-.261.3616-.626.632-1.095.811l1.837 3.3193v.0645h-1.107zm-1.837-.8432h1.584c.512 0 .919-.1325 1.22-.3975.304-.265.456-.6195.456-1.0635 0-.4834-.145-.854-.435-1.1118-.286-.2578-.702-.3885-1.246-.3921h-1.579zm5.328 1.0473c0-.5693.111-1.0814.333-1.5361.226-.4548.537-.8057.935-1.0527.401-.2471.857-.3706 1.369-.3706.792 0 1.431.2739 1.918.8217.49.5479.736 1.2766.736 2.1861v.0698c0 .5657-.11 1.0742-.328 1.5254-.215.4476-.525.7967-.929 1.0473-.401.2507-.863.376-1.386.376-.788 0-1.427-.2739-1.917-.8218-.487-.5478-.731-1.2729-.731-2.1752zm.999.1182c0 .6445.149 1.1619.446 1.5522.301.3903.702.5855 1.203.5855.505 0 .906-.197 1.203-.5908.297-.3975.446-.9525.446-1.6651 0-.6373-.152-1.153-.457-1.5468-.3-.3975-.701-.5962-1.203-.5962-.49 0-.886.1951-1.187.5854-.3.3903-.451.9489-.451 1.6758zm10.683 1.4717 1.117-4.4419h.994l-1.692 5.8115h-.806l-1.412-4.4043-1.375 4.4043h-.806l-1.686-5.8115h.988l1.144 4.3506 1.354-4.3506h.8zm6.51-.1719c0-.2686-.102-.4762-.306-.6231-.201-.1503-.553-.2792-1.058-.3867-.502-.1074-.901-.2363-1.198-.3867-.294-.1504-.512-.3294-.655-.5371-.14-.2077-.21-.4548-.21-.7412 0-.4762.201-.8791.602-1.2085.404-.3294.92-.4941 1.547-.4941.659 0 1.192.17 1.6.5102.412.3402.618.7752.618 1.3052h-.999c0-.2722-.116-.5067-.349-.7036-.229-.197-.519-.2954-.87-.2954-.362 0-.645.0787-.849.2363-.204.1575-.306.3634-.306.6177 0 .2399.095.4207.285.5424.189.1218.531.2382 1.025.3492.498.111.901.2435 1.209.3974.308.154.535.3402.682.5586.15.2149.226.478.226.7896 0 .5192-.208.9363-.623 1.2514-.416.3116-.955.4673-1.617.4673-.466 0-.877-.0823-1.235-.247-.359-.1648-.64-.3939-.844-.6875-.2-.2972-.301-.6177-.301-.9615h.994c.018.333.151.598.398.7949.25.1934.58.2901.988.2901.376 0 .677-.0752.902-.2256.229-.154.344-.3581.344-.6123z" fill="#fff"/><path d="m192.47 162h-.999v-6.623l-2.004.736v-.902l2.847-1.069h.156zm6.971-3.335c0 1.163-.198 2.028-.596 2.594-.397.566-1.019.848-1.864.848-.834 0-1.452-.275-1.853-.827-.401-.555-.608-1.382-.623-2.481v-1.327c0-1.149.199-2.003.597-2.562.397-.558 1.02-.838 1.869-.838.841 0 1.461.271 1.858.811.398.537.602 1.368.612 2.492zm-.993-1.359c0-.842-.118-1.454-.355-1.837-.236-.387-.61-.58-1.122-.58-.509 0-.879.191-1.112.574-.233.384-.353.973-.36 1.767v1.59c0 .845.122 1.47.365 1.875.247.401.62.601 1.117.601.491 0 .854-.189 1.091-.569.24-.38.365-.977.376-1.794zm2.288-1.622c0-.469.148-.856.446-1.161.3-.304.685-.456 1.154-.456.477 0 .862.154 1.155.462.297.304.446.7.446 1.187v.381c0 .473-.15.86-.451 1.16-.297.298-.677.446-1.139.446-.465 0-.85-.148-1.155-.446-.304-.3-.456-.7-.456-1.197zm.741.413c0 .279.079.51.236.693.158.179.369.269.634.269.254 0 .459-.088.612-.264.158-.175.237-.415.237-.719v-.392c0-.28-.077-.511-.231-.693-.154-.183-.364-.274-.629-.274s-.474.091-.628.274c-.154.182-.231.42-.231.714zm3.067 3.986c0-.47.149-.854.446-1.155.301-.305.685-.457 1.155-.457.469 0 .854.151 1.154.451.301.301.451.7.451 1.198v.381c0 .47-.15.856-.451 1.161-.297.3-.678.451-1.144.451-.465 0-.85-.149-1.155-.446-.304-.301-.456-.7-.456-1.198zm.741.418c0 .283.079.516.236.699.158.179.369.268.634.268.258 0 .464-.087.618-.263.154-.179.231-.421.231-.725v-.397c0-.283-.079-.514-.236-.693-.154-.179-.362-.269-.623-.269-.255 0-.462.09-.624.269-.157.175-.236.413-.236.714zm-2.712.908-.564-.354 3.819-6.113.564.355z" fill="#2c2c2c"/><path d="m192.47 162h-.999v-6.623l-2.004.736v-.902l2.847-1.069h.156zm6.971-3.335c0 1.163-.198 2.028-.596 2.594-.397.566-1.019.848-1.864.848-.834 0-1.452-.275-1.853-.827-.401-.555-.608-1.382-.623-2.481v-1.327c0-1.149.199-2.003.597-2.562.397-.558 1.02-.838 1.869-.838.841 0 1.461.271 1.858.811.398.537.602 1.368.612 2.492zm-.993-1.359c0-.842-.118-1.454-.355-1.837-.236-.387-.61-.58-1.122-.58-.509 0-.879.191-1.112.574-.233.384-.353.973-.36 1.767v1.59c0 .845.122 1.47.365 1.875.247.401.62.601 1.117.601.491 0 .854-.189 1.091-.569.24-.38.365-.977.376-1.794zm2.288-1.622c0-.469.148-.856.446-1.161.3-.304.685-.456 1.154-.456.477 0 .862.154 1.155.462.297.304.446.7.446 1.187v.381c0 .473-.15.86-.451 1.16-.297.298-.677.446-1.139.446-.465 0-.85-.148-1.155-.446-.304-.3-.456-.7-.456-1.197zm.741.413c0 .279.079.51.236.693.158.179.369.269.634.269.254 0 .459-.088.612-.264.158-.175.237-.415.237-.719v-.392c0-.28-.077-.511-.231-.693-.154-.183-.364-.274-.629-.274s-.474.091-.628.274c-.154.182-.231.42-.231.714zm3.067 3.986c0-.47.149-.854.446-1.155.301-.305.685-.457 1.155-.457.469 0 .854.151 1.154.451.301.301.451.7.451 1.198v.381c0 .47-.15.856-.451 1.161-.297.3-.678.451-1.144.451-.465 0-.85-.149-1.155-.446-.304-.301-.456-.7-.456-1.198zm.741.418c0 .283.079.516.236.699.158.179.369.268.634.268.258 0 .464-.087.618-.263.154-.179.231-.421.231-.725v-.397c0-.283-.079-.514-.236-.693-.154-.179-.362-.269-.623-.269-.255 0-.462.09-.624.269-.157.175-.236.413-.236.714zm-2.712.908-.564-.354 3.819-6.113.564.355z" fill="#2c2c2c"/><rect height="23" rx="3.5" stroke="#d4d4d4" width="41" x="183.5" y="146.5"/><path d="m24.2119 132.514c-.8844-.254-1.529-.566-1.9336-.934-.401-.373-.6015-.831-.6015-1.375 0-.616.2452-1.125.7358-1.526.4941-.404 1.1351-.607 1.9228-.607.5372 0 1.0152.104 1.4341.312.4226.207.7484.494.9776.859.2327.365.3491.765.3491 1.198h-1.0366c0-.473-.1504-.843-.4512-1.112-.3008-.272-.7251-.408-1.273-.408-.5084 0-.9059.113-1.1923.338-.2829.222-.4243.532-.4243.929 0 .319.1342.59.4028.812.2721.218.7322.418 1.3804.601.6516.183 1.1601.385 1.5253.607.3689.218.641.474.8165.768.179.294.2685.639.2685 1.037 0 .633-.2471 1.142-.7412 1.525-.4941.38-1.1548.569-1.9819.569-.5371 0-1.0385-.102-1.5039-.306-.4655-.207-.8254-.49-1.0796-.848-.2507-.358-.376-.765-.376-1.22h1.0366c0 .473.1737.847.521 1.123.3509.272.8182.408 1.4019.408.5442 0 .9614-.111 1.2514-.333.2901-.222.4351-.524.4351-.908 0-.383-.1343-.678-.4028-.886-.2686-.211-.7556-.419-1.461-.623zm5.1509 3.486h-.9937v-5.812h.9937zm-1.0742-7.353c0-.161.0483-.297.145-.408.1003-.111.2471-.167.4404-.167.1934 0 .3402.056.4405.167.1002.111.1503.247.1503.408s-.0501.295-.1503.403c-.1003.107-.2471.161-.4405.161-.1933 0-.3401-.054-.4404-.161-.0967-.108-.145-.242-.145-.403zm3.604 6.542h3.3999v.811h-4.6138v-.73l3.2066-4.26h-3.1582v-.822h4.4042v.704zm6.8481.918c-.7877 0-1.4287-.257-1.9228-.773-.4942-.519-.7412-1.212-.7412-2.079v-.182c0-.577.1092-1.091.3276-1.542.222-.455.5299-.809.9238-1.063.3975-.258.8272-.387 1.2891-.387.7555 0 1.3428.249 1.7617.747.419.497.6284 1.21.6284 2.137v.414h-3.937c.0143.573.1808 1.037.4995 1.391.3223.351.7305.526 1.2246.526.3509 0 .6481-.071.8916-.214.2435-.144.4566-.333.6392-.57l.6069.473c-.487.748-1.2174 1.122-2.1914 1.122zm-.1235-5.21c-.4011 0-.7376.147-1.0098.441-.2721.29-.4404.698-.5049 1.224h2.9112v-.075c-.0287-.505-.1647-.895-.4082-1.171-.2435-.279-.5729-.419-.9883-.419z" fill="#b3b3b3"/><path d="m31.5 156.221c0 .39-.1038.737-.3115 1.042-.2041.304-.4816.542-.8325.714.4082.176.7304.432.9668.768.2399.337.3598.718.3598 1.144 0 .677-.2291 1.216-.6875 1.617-.4547.401-1.0545.601-1.7993.601-.752 0-1.3553-.2-1.8101-.601-.4511-.405-.6767-.944-.6767-1.617 0-.422.1146-.804.3437-1.144.2328-.34.5533-.598.9615-.773-.3474-.172-.6213-.41-.8218-.715-.2005-.304-.3008-.65-.3008-1.036 0-.659.2113-1.182.6338-1.569.4225-.386.9793-.58 1.6704-.58.6875 0 1.2425.194 1.665.58.4261.387.6392.91.6392 1.569zm-.811 3.647c0-.437-.1397-.793-.419-1.069-.2757-.276-.6374-.414-1.0849-.414-.4476 0-.8075.136-1.0796.408-.2686.273-.4029.631-.4029 1.075s.1307.793.3921 1.047c.265.254.632.381 1.1011.381.4655 0 .8307-.127 1.0957-.381.265-.258.3975-.607.3975-1.047zm-1.4932-4.979c-.3903 0-.7072.121-.9507.365-.2399.24-.3598.567-.3598.983 0 .397.1181.72.3544.967.24.243.5586.365.9561.365s.7144-.122.9507-.365c.2399-.247.3598-.57.3598-.967 0-.398-.1235-.722-.3706-.972-.247-.251-.5603-.376-.9399-.376z" fill="#2c2c2c"/><path d="m31.5 156.221c0 .39-.1038.737-.3115 1.042-.2041.304-.4816.542-.8325.714.4082.176.7304.432.9668.768.2399.337.3598.718.3598 1.144 0 .677-.2291 1.216-.6875 1.617-.4547.401-1.0545.601-1.7993.601-.752 0-1.3553-.2-1.8101-.601-.4511-.405-.6767-.944-.6767-1.617 0-.422.1146-.804.3437-1.144.2328-.34.5533-.598.9615-.773-.3474-.172-.6213-.41-.8218-.715-.2005-.304-.3008-.65-.3008-1.036 0-.659.2113-1.182.6338-1.569.4225-.386.9793-.58 1.6704-.58.6875 0 1.2425.194 1.665.58.4261.387.6392.91.6392 1.569zm-.811 3.647c0-.437-.1397-.793-.419-1.069-.2757-.276-.6374-.414-1.0849-.414-.4476 0-.8075.136-1.0796.408-.2686.273-.4029.631-.4029 1.075s.1307.793.3921 1.047c.265.254.632.381 1.1011.381.4655 0 .8307-.127 1.0957-.381.265-.258.3975-.607.3975-1.047zm-1.4932-4.979c-.3903 0-.7072.121-.9507.365-.2399.24-.3598.567-.3598.983 0 .397.1181.72.3544.967.24.243.5586.365.9561.365s.7144-.122.9507-.365c.2399-.247.3598-.57.3598-.967 0-.398-.1235-.722-.3706-.972-.247-.251-.5603-.376-.9399-.376z" fill="#2c2c2c"/><rect height="22" rx="3" stroke="#30c1ff" stroke-width="2" width="62" x="22" y="147"/><path d="m91 150c0-2.209 1.7909-4 4-4h20v12h-24z" fill="#e61818"/><path d="m91 158h24v12h-20c-2.2091 0-4-1.791-4-4z" fill="#e61818" opacity=".3"/><rect height="23" rx="3.5" stroke="#d4d4d4" width="85" x="91.5" y="146.5"/><path d="m123.109 159.798h-1.418l-.43 2.202h-.768l.43-2.202h-1.284v-.736h1.423l.371-1.901h-1.386v-.747h1.531l.441-2.234h.768l-.441 2.234h1.418l.441-2.234h.773l-.44 2.234h1.095v.747h-1.24l-.371 1.901h1.208v.736h-1.348l-.429 2.202h-.774zm-1.278-.736h1.418l.37-1.901h-1.418zm9.168-.516h-3.282v3.454h-1.031v-7.82h4.845v.848h-3.814v2.675h3.282zm6.08 0h-3.282v3.454h-1.031v-7.82h4.845v.848h-3.814v2.675h3.282zm6.521.119c0 1.163-.199 2.028-.597 2.594-.397.566-1.018.848-1.863.848-.835 0-1.452-.275-1.853-.827-.401-.555-.609-1.382-.623-2.481v-1.327c0-1.149.198-2.003.596-2.562.397-.558 1.02-.838 1.869-.838.841 0 1.461.271 1.858.811.398.537.602 1.368.613 2.492zm-.994-1.359c0-.842-.118-1.454-.355-1.837-.236-.387-.61-.58-1.122-.58-.509 0-.879.191-1.112.574-.233.384-.353.973-.36 1.767v1.59c0 .845.122 1.47.365 1.875.248.401.62.601 1.118.601.49 0 .854-.189 1.09-.569.24-.38.365-.977.376-1.794zm7.385 1.359c0 1.163-.199 2.028-.596 2.594s-1.019.848-1.864.848c-.834 0-1.452-.275-1.853-.827-.401-.555-.609-1.382-.623-2.481v-1.327c0-1.149.199-2.003.596-2.562.398-.558 1.021-.838 1.87-.838.841 0 1.46.271 1.858.811.397.537.601 1.368.612 2.492zm-.993-1.359c0-.842-.119-1.454-.355-1.837-.236-.387-.61-.58-1.122-.58-.509 0-.88.191-1.112.574-.233.384-.353.973-.36 1.767v1.59c0 .845.122 1.47.365 1.875.247.401.62.601 1.117.601.491 0 .854-.189 1.091-.569.239-.38.365-.977.376-1.794zm7.385 1.359c0 1.163-.199 2.028-.596 2.594-.398.566-1.019.848-1.864.848-.834 0-1.452-.275-1.853-.827-.401-.555-.609-1.382-.623-2.481v-1.327c0-1.149.199-2.003.596-2.562.397-.558 1.02-.838 1.869-.838.842 0 1.461.271 1.859.811.397.537.601 1.368.612 2.492zm-.994-1.359c0-.842-.118-1.454-.354-1.837-.237-.387-.611-.58-1.123-.58-.508 0-.879.191-1.112.574-.232.384-.352.973-.36 1.767v1.59c0 .845.122 1.47.366 1.875.247.401.619.601 1.117.601.49 0 .854-.189 1.09-.569.24-.38.365-.977.376-1.794zm7.385 1.359c0 1.163-.198 2.028-.596 2.594-.397.566-1.018.848-1.864.848-.834 0-1.452-.275-1.853-.827-.401-.555-.608-1.382-.623-2.481v-1.327c0-1.149.199-2.003.597-2.562.397-.558 1.02-.838 1.869-.838.841 0 1.461.271 1.858.811.398.537.602 1.368.612 2.492zm-.993-1.359c0-.842-.118-1.454-.355-1.837-.236-.387-.61-.58-1.122-.58-.509 0-.879.191-1.112.574-.233.384-.353.973-.36 1.767v1.59c0 .845.122 1.47.365 1.875.247.401.62.601 1.117.601.491 0 .854-.189 1.091-.569.24-.38.365-.977.376-1.794z" fill="#2c2c2c"/><path d="m123.109 159.798h-1.418l-.43 2.202h-.768l.43-2.202h-1.284v-.736h1.423l.371-1.901h-1.386v-.747h1.531l.441-2.234h.768l-.441 2.234h1.418l.441-2.234h.773l-.44 2.234h1.095v.747h-1.24l-.371 1.901h1.208v.736h-1.348l-.429 2.202h-.774zm-1.278-.736h1.418l.37-1.901h-1.418zm9.168-.516h-3.282v3.454h-1.031v-7.82h4.845v.848h-3.814v2.675h3.282zm6.08 0h-3.282v3.454h-1.031v-7.82h4.845v.848h-3.814v2.675h3.282zm6.521.119c0 1.163-.199 2.028-.597 2.594-.397.566-1.018.848-1.863.848-.835 0-1.452-.275-1.853-.827-.401-.555-.609-1.382-.623-2.481v-1.327c0-1.149.198-2.003.596-2.562.397-.558 1.02-.838 1.869-.838.841 0 1.461.271 1.858.811.398.537.602 1.368.613 2.492zm-.994-1.359c0-.842-.118-1.454-.355-1.837-.236-.387-.61-.58-1.122-.58-.509 0-.879.191-1.112.574-.233.384-.353.973-.36 1.767v1.59c0 .845.122 1.47.365 1.875.248.401.62.601 1.118.601.49 0 .854-.189 1.09-.569.24-.38.365-.977.376-1.794zm7.385 1.359c0 1.163-.199 2.028-.596 2.594s-1.019.848-1.864.848c-.834 0-1.452-.275-1.853-.827-.401-.555-.609-1.382-.623-2.481v-1.327c0-1.149.199-2.003.596-2.562.398-.558 1.021-.838 1.87-.838.841 0 1.46.271 1.858.811.397.537.601 1.368.612 2.492zm-.993-1.359c0-.842-.119-1.454-.355-1.837-.236-.387-.61-.58-1.122-.58-.509 0-.88.191-1.112.574-.233.384-.353.973-.36 1.767v1.59c0 .845.122 1.47.365 1.875.247.401.62.601 1.117.601.491 0 .854-.189 1.091-.569.239-.38.365-.977.376-1.794zm7.385 1.359c0 1.163-.199 2.028-.596 2.594-.398.566-1.019.848-1.864.848-.834 0-1.452-.275-1.853-.827-.401-.555-.609-1.382-.623-2.481v-1.327c0-1.149.199-2.003.596-2.562.397-.558 1.02-.838 1.869-.838.842 0 1.461.271 1.859.811.397.537.601 1.368.612 2.492zm-.994-1.359c0-.842-.118-1.454-.354-1.837-.237-.387-.611-.58-1.123-.58-.508 0-.879.191-1.112.574-.232.384-.352.973-.36 1.767v1.59c0 .845.122 1.47.366 1.875.247.401.619.601 1.117.601.49 0 .854-.189 1.09-.569.24-.38.365-.977.376-1.794zm7.385 1.359c0 1.163-.198 2.028-.596 2.594-.397.566-1.018.848-1.864.848-.834 0-1.452-.275-1.853-.827-.401-.555-.608-1.382-.623-2.481v-1.327c0-1.149.199-2.003.597-2.562.397-.558 1.02-.838 1.869-.838.841 0 1.461.271 1.858.811.398.537.602 1.368.612 2.492zm-.993-1.359c0-.842-.118-1.454-.355-1.837-.236-.387-.61-.58-1.122-.58-.509 0-.879.191-1.112.574-.233.384-.353.973-.36 1.767v1.59c0 .845.122 1.47.365 1.875.247.401.62.601 1.117.601.491 0 .854-.189 1.091-.569.24-.38.365-.977.376-1.794z" fill="#2c2c2c"/><path d="m97.6602 133.519c-.0967.827-.4029 1.466-.9185 1.917-.512.448-1.1942.671-2.0464.671-.9238 0-1.665-.331-2.2236-.993-.555-.663-.8325-1.549-.8325-2.659v-.752c0-.727.1289-1.366.3867-1.917.2614-.552.6302-.974 1.1064-1.268.4763-.297 1.0277-.446 1.6543-.446.8308 0 1.4968.233 1.9981.699.5013.461.7931 1.102.8755 1.922h-1.0367c-.0895-.623-.2846-1.074-.5854-1.353-.2972-.279-.7144-.419-1.2515-.419-.6588 0-1.1762.243-1.5522.73-.3724.487-.5586 1.18-.5586 2.079v.757c0 .849.1772 1.524.5317 2.025.3545.502.8504.752 1.4878.752.5729 0 1.0116-.129 1.3159-.387.308-.261.5121-.714.6123-1.358zm.9936-.478c0-.57.111-1.082.333-1.537.2256-.454.5371-.805.9346-1.052.4006-.247.8576-.371 1.3696-.371.791 0 1.431.274 1.917.822.491.548.736 1.276.736 2.186v.07c0 .565-.109 1.074-.327 1.525-.215.448-.525.797-.929 1.047-.402.251-.863.376-1.386.376-.788 0-1.4272-.274-1.9177-.821-.487-.548-.7305-1.273-.7305-2.176zm.999.118c0 .644.1486 1.162.4462 1.552.3.39.701.585 1.203.585.505 0 .906-.197 1.203-.59.297-.398.446-.953.446-1.665 0-.638-.152-1.153-.457-1.547-.301-.398-.702-.597-1.203-.597-.491 0-.886.196-1.187.586-.3008.39-.4512.949-.4512 1.676zm6.6172 2.841h-.994v-8.25h.994zm1.332-2.959c0-.57.111-1.082.333-1.537.226-.454.537-.805.935-1.052.401-.247.857-.371 1.369-.371.792 0 1.431.274 1.918.822.49.548.736 1.276.736 2.186v.07c0 .565-.11 1.074-.328 1.525-.215.448-.525.797-.929 1.047-.401.251-.863.376-1.386.376-.788 0-1.427-.274-1.917-.821-.487-.548-.731-1.273-.731-2.176zm.999.118c0 .644.149 1.162.446 1.552.301.39.702.585 1.203.585.505 0 .906-.197 1.203-.59.297-.398.446-.953.446-1.665 0-.638-.152-1.153-.457-1.547-.3-.398-.701-.597-1.203-.597-.49 0-.886.196-1.187.586s-.451.949-.451 1.676zm8.347-2.079c-.151-.025-.314-.038-.489-.038-.652 0-1.094.278-1.327.833v4.125h-.993v-5.812h.966l.017.672c.325-.519.787-.779 1.385-.779.194 0 .34.025.441.075z" fill="#b3b3b3"/></svg>