<svg fill="none" height="120" viewBox="0 0 296 120" width="296" xmlns="http://www.w3.org/2000/svg"><path d="m8 45h280v42h-280z" fill="#222"/><path d="m8 45h280v42h-280z" fill="#2c2c2c"/><path d="m8 8h276c2.209 0 4 1.79086 4 4v33h-280z" fill="#222"/><path d="m157 66.1371c2.37-3.122 9.363-7.4927 16 0" stroke="#fff"/><path d="m173 66.1371c-2.37 3.1219-9.363 7.4927-16 0" stroke="#fff"/><g fill="#fff"><ellipse cx="164.68" cy="66.1371" rx="2.56" ry="2.34146"/><path d="m198.47 70h-.999v-6.6226l-2.004.7359v-.9024l2.847-1.0688h.156zm6.971-3.3354c0 1.1637-.198 2.0284-.596 2.5942-.397.5657-1.019.8486-1.864.8486-.834 0-1.452-.2757-1.853-.8271-.401-.555-.608-1.3822-.623-2.4815v-1.3266c0-1.1494.199-2.0034.597-2.562.397-.5586 1.02-.8379 1.869-.8379.841 0 1.461.2703 1.858.811.398.5371.602 1.3678.612 2.4922zm-.993-1.3589c0-.8415-.118-1.4538-.355-1.8369-.236-.3868-.61-.5801-1.122-.5801-.509 0-.879.1915-1.112.5747-.233.3831-.353.9721-.36 1.7671v1.5898c0 .8451.122 1.4699.365 1.8745.247.4011.62.6016 1.117.6016.491 0 .854-.1898 1.091-.5693.24-.3796.365-.9776.376-1.794zm7.385 1.3589c0 1.1637-.199 2.0284-.596 2.5942-.398.5657-1.019.8486-1.864.8486-.834 0-1.452-.2757-1.853-.8271-.401-.555-.609-1.3822-.623-2.4815v-1.3266c0-1.1494.199-2.0034.596-2.562.398-.5586 1.021-.8379 1.869-.8379.842 0 1.461.2703 1.859.811.397.5371.601 1.3678.612 2.4922zm-.994-1.3589c0-.8415-.118-1.4538-.354-1.8369-.236-.3868-.611-.5801-1.123-.5801-.508 0-.879.1915-1.112.5747-.232.3831-.352.9721-.359 1.7671v1.5898c0 .8451.121 1.4699.365 1.8745.247.4011.619.6016 1.117.6016.491 0 .854-.1898 1.09-.5693.24-.3796.366-.9776.376-1.794zm2.288-1.6221c0-.4691.149-.8558.446-1.1602.301-.3043.686-.4565 1.155-.4565.476 0 .861.154 1.155.4619.297.3044.446.7.446 1.187v.3814c0 .4726-.151.8593-.452 1.1601-.297.2972-.676.4458-1.138.4458-.466 0-.851-.1486-1.155-.4458-.304-.3008-.457-.7-.457-1.1977zm.742.4136c0 .2793.078.5102.236.6928.158.1791.369.2686.634.2686.254 0 .458-.0877.612-.2632.158-.1754.236-.4154.236-.7197v-.3921c0-.2793-.077-.5103-.231-.6929s-.363-.2739-.628-.2739-.474.0913-.628.2739-.231.4208-.231.7144zm3.067 3.9853c0-.4691.148-.854.445-1.1548.301-.3043.686-.4565 1.155-.4565s.854.1504 1.155.4512c.301.3007.451.7.451 1.1977v.3814c0 .469-.15.8558-.451 1.1601-.297.3008-.679.4512-1.144.4512-.466 0-.851-.1486-1.155-.4458-.304-.3008-.456-.7-.456-1.1978zm.741.419c0 .2828.079.5156.236.6982.158.179.369.2686.634.2686.258 0 .464-.0878.618-.2632.154-.1791.231-.4208.231-.7251v-.3975c0-.2829-.079-.5138-.237-.6929-.154-.179-.361-.2685-.623-.2685-.254 0-.462.0895-.623.2685-.157.1755-.236.4136-.236.7144zm-2.713.9077-.564-.3545 3.819-6.1123.564.3545z"/><path clip-rule="evenodd" d="m270.749 69.726c-1.263.067-2.601.4726-3.749 1.4831v-9.5258c.634-.6605 1.68-1.3947 2.89-1.6162 1.216-.2227 2.661.0589 4.11 1.614v8.5499c-.877-.3211-2.033-.5697-3.251-.505zm-4.249-8.9544c.751-.7094 1.881-1.4447 3.21-1.6882 1.615-.2958 3.455.1494 5.164 2.0722.081.0915.126.2097.126.3322v9.4999c0 .1733-.09.3343-.237.4254-.148.0911-.332.0994-.487.0219-.77-.3852-2.084-.7842-3.475-.7105-1.37.0728-2.802.6016-3.896 2.0568-.06.0826-.145.147-.247.1809-.204.0681-.429-.0022-.558-.1743-1.095-1.4601-2.529-1.9904-3.901-2.0632-1.391-.0738-2.705.3253-3.475.7104-.155.0775-.339.0692-.487-.0219-.147-.0911-.237-.252-.237-.4253v-9.5c0-.1225.045-.2407.126-.3322 1.709-1.9228 3.549-2.3679 5.164-2.0721 1.329.2434 2.459.9786 3.21 1.688zm-.5.9118c-.634-.6605-1.68-1.3946-2.89-1.6162-1.216-.2227-2.661.0589-4.11 1.614v8.5499c.877-.3211 2.033-.5697 3.251-.505 1.263.067 2.601.4726 3.749 1.4832z" fill-rule="evenodd"/><path clip-rule="evenodd" d="m270.749 69.726c-1.263.067-2.601.4726-3.749 1.4831v-9.5258c.634-.6605 1.68-1.3947 2.89-1.6162 1.216-.2227 2.661.0589 4.11 1.614v8.5499c-.877-.3211-2.033-.5697-3.251-.505zm-4.249-8.9544c.751-.7094 1.881-1.4447 3.21-1.6882 1.615-.2958 3.455.1494 5.164 2.0722.081.0915.126.2097.126.3322v9.4999c0 .1733-.09.3343-.237.4254-.148.0911-.332.0994-.487.0219-.77-.3852-2.084-.7842-3.475-.7105-1.37.0728-2.802.6016-3.896 2.0568-.06.0826-.145.147-.247.1809-.204.0681-.429-.0022-.558-.1743-1.095-1.4601-2.529-1.9904-3.901-2.0632-1.391-.0738-2.705.3253-3.475.7104-.155.0775-.339.0692-.487-.0219-.147-.0911-.237-.252-.237-.4253v-9.5c0-.1225.045-.2407.126-.3322 1.709-1.9228 3.549-2.3679 5.164-2.0721 1.329.2434 2.459.9786 3.21 1.688zm-.5.9118c-.634-.6605-1.68-1.3946-2.89-1.6162-1.216-.2227-2.661.0589-4.11 1.614v8.5499c.877-.3211 2.033-.5697 3.251-.505 1.263.067 2.601.4726 3.749 1.4832z" fill-rule="evenodd"/></g><circle cx="123" cy="66" r="12.5" stroke="#fff"/><path d="m120.5 60.8775 7.605 5.1225-7.605 5.1225z" stroke="#fff"/><rect fill="#30c1ff" height="30" rx="4" width="52" x="38" y="51"/><path d="m53.2119 66.5142c-.8844-.2543-1.529-.5658-1.9336-.9346-.401-.3724-.6015-.8307-.6015-1.375 0-.6159.2452-1.1244.7358-1.5254.4941-.4046 1.1351-.6069 1.9228-.6069.5372 0 1.0152.1038 1.4341.3115.4226.2077.7484.4941.9776.8594.2327.3652.3491.7644.3491 1.1977h-1.0366c0-.4726-.1504-.8432-.4512-1.1118-.3008-.2721-.7251-.4082-1.273-.4082-.5084 0-.9059.1128-1.1923.3384-.2829.222-.4243.5317-.4243.9292 0 .3187.1342.589.4028.811.2721.2184.7322.419 1.3804.6016.6516.1826 1.1601.3849 1.5253.6069.3689.2184.641.4745.8165.7681.179.2936.2685.6391.2685 1.0366 0 .6338-.2471 1.1422-.7412 1.5254-.4941.3795-1.1548.5693-1.9819.5693-.5371 0-1.0385-.102-1.5039-.3061-.4655-.2077-.8254-.4906-1.0796-.8487-.2507-.358-.376-.7644-.376-1.2192h1.0366c0 .4727.1737.8468.521 1.1226.3509.2721.8182.4082 1.4019.4082.5442 0 .9614-.111 1.2514-.333.2901-.2221.4351-.5246.4351-.9078 0-.3831-.1343-.6785-.4028-.8862-.2686-.2113-.7556-.4189-1.461-.623zm5.065-1.6221c.4404-.5407 1.0133-.811 1.7187-.811 1.2282 0 1.8477.6928 1.8584 2.0786v3.8403h-.9936v-3.8457c-.0036-.4189-.1003-.7287-.2901-.9292-.1862-.2005-.478-.3008-.8755-.3008-.3222 0-.6051.086-.8486.2578-.2435.1719-.4333.3975-.5693.6768v4.1411h-.9937v-8.25h.9937zm8.6528 5.1079c-.0573-.1146-.1039-.3187-.1397-.6123-.4619.4798-1.0133.7197-1.6543.7197-.5729 0-1.0437-.1611-1.4126-.4834-.3652-.3258-.5478-.7376-.5478-1.2353 0-.6052.2292-1.0742.6875-1.4073.4619-.3365 1.11-.5048 1.9443-.5048h.9668v-.4566c0-.3473-.1038-.623-.3115-.8271-.2077-.2077-.5138-.3116-.9185-.3116-.3544 0-.6516.0896-.8916.2686-.2399.179-.3598.3957-.3598.6499h-.999c0-.29.102-.5693.3061-.8379.2077-.2721.487-.487.8379-.6445.3545-.1576.743-.2363 1.1655-.2363.6696 0 1.1942.1682 1.5738.5048.3795.333.5765.7932.5908 1.3804v2.6748c0 .5335.068.9579.2041 1.273v.0859zm-1.6489-.7573c.3115 0 .6069-.0806.8862-.2417.2793-.1612.4816-.3706.6069-.6284v-1.1924h-.7788c-1.2174 0-1.8262.3563-1.8262 1.0688 0 .3115.1039.555.3116.7305.2077.1754.4744.2632.8003.2632zm6.8535-4.1626c-.1504-.0251-.3133-.0376-.4888-.0376-.6517 0-1.0939.2775-1.3267.8325v4.125h-.9936v-5.8115h.9668l.0161.6714c.3259-.5192.7878-.7788 1.3857-.7788.1934 0 .3402.025.4405.0751zm3.2226 5.0273c-.7877 0-1.4287-.2578-1.9228-.7734-.4942-.5192-.7412-1.2121-.7412-2.0786v-.1826c0-.5765.1092-1.0904.3276-1.5416.222-.4547.53-.8092.9238-1.0634.3975-.2578.8272-.3867 1.2891-.3867.7555 0 1.3428.2488 1.7617.7465.419.4978.6284 1.2103.6284 2.1377v.4136h-3.937c.0143.5729.1809 1.0366.4995 1.3911.3223.3509.7305.5264 1.2246.5264.351 0 .6482-.0716.8916-.2149.2435-.1432.4566-.333.6392-.5693l.6069.4727c-.4869.7483-1.2174 1.1225-2.1914 1.1225zm-.1235-5.2099c-.401 0-.7376.1468-1.0098.4404-.2721.29-.4404.6982-.5048 1.2246h2.9111v-.0752c-.0287-.5049-.1647-.8952-.4082-1.1709-.2435-.2793-.5729-.4189-.9883-.4189z" fill="#fff"/><path d="m197.496 104.421h.946v6.732h3.465l-.121.847h-4.29zm8.4-.924c.205 0 .37.062.495.187.124.117.187.271.187.462s-.063.348-.187.473c-.125.117-.29.176-.495.176-.198 0-.36-.059-.484-.176-.118-.125-.176-.282-.176-.473s.058-.345.176-.462c.124-.125.286-.187.484-.187zm.737 7.766h1.628v.737h-4.334v-.737h1.782v-4.323h-1.727v-.737h2.651zm4.582-4.301c.448-.587 1.001-.88 1.661-.88.741 0 1.287.264 1.639.792s.528 1.269.528 2.222c0 .909-.201 1.643-.605 2.2-.403.55-.968.825-1.694.825-.667 0-1.191-.242-1.573-.726l-.066.605h-.814v-8.129l.924-.11zm1.32 4.411c.484 0 .855-.191 1.111-.572.264-.381.396-.95.396-1.705 0-.748-.117-1.313-.352-1.694-.227-.381-.568-.572-1.023-.572-.293 0-.564.088-.814.264-.242.176-.454.396-.638.66v2.871c.154.235.345.418.572.55.228.132.477.198.748.198zm8.268-5.291c.235 0 .506.04.814.121l-.132 1.969h-.748v-1.243h-.055c-.895 0-1.529.638-1.903 1.914v2.442h1.177v.715h-3.014v-.715h.913v-4.367h-.913v-.715h1.606l.176 1.375c.235-.499.513-.873.836-1.122.33-.249.744-.374 1.243-.374zm6.838 4.653c0 .227.036.396.11.506.073.103.194.18.363.231l-.231.66c-.565-.073-.917-.348-1.056-.825-.206.264-.466.466-.781.605-.308.139-.653.209-1.034.209-.58 0-1.038-.161-1.375-.484-.33-.323-.495-.755-.495-1.298 0-.594.231-1.052.693-1.375.469-.323 1.14-.484 2.013-.484h.858v-.473c0-.411-.118-.704-.352-.88-.235-.183-.576-.275-1.023-.275-.44 0-.943.099-1.507.297l-.253-.704c.682-.242 1.316-.363 1.903-.363.704 0 1.239.165 1.606.495.374.33.561.788.561 1.375zm-2.398.693c.286 0 .557-.073.814-.22.264-.147.48-.348.649-.605v-1.485h-.836c-.616 0-1.06.103-1.331.308-.272.205-.407.506-.407.902 0 .733.37 1.1 1.111 1.1zm8.752-5.346c.234 0 .506.04.814.121l-.132 1.969h-.748v-1.243h-.055c-.895 0-1.529.638-1.903 1.914v2.442h1.177v.715h-3.014v-.715h.913v-4.367h-.913v-.715h1.606l.176 1.375c.234-.499.513-.873.836-1.122.33-.249.744-.374 1.243-.374zm5.473 5.951c-.227.667-.539 1.199-.935 1.595s-.949.631-1.661.704l-.132-.737c.389-.066.697-.169.924-.308.235-.132.418-.301.55-.506.132-.198.253-.458.363-.781h-.308l-2.013-5.797h.979l1.661 5.093 1.639-5.093h.957zm12.598-8.536c.205 0 .37.062.495.187.124.117.187.271.187.462s-.063.348-.187.473c-.125.117-.29.176-.495.176-.198 0-.36-.059-.484-.176-.118-.125-.176-.282-.176-.473s.058-.345.176-.462c.124-.125.286-.187.484-.187zm.737 7.766h1.628v.737h-4.334v-.737h1.782v-4.323h-1.727v-.737h2.651zm6.287.066c.506 0 1.009-.169 1.507-.506l.44.605c-.242.213-.542.381-.902.506-.359.125-.707.187-1.045.187-.858 0-1.529-.268-2.013-.803-.476-.543-.715-1.272-.715-2.189 0-.579.107-1.1.319-1.562.22-.462.536-.825.946-1.089.411-.264.899-.396 1.463-.396.748 0 1.394.227 1.936.682l-.451.605c-.506-.337-1.004-.506-1.496-.506-.52 0-.938.194-1.254.583-.308.381-.462.942-.462 1.683s.154 1.294.462 1.661c.316.359.737.539 1.265.539zm6.178-5.247c.799 0 1.412.271 1.837.814.433.535.649 1.269.649 2.2 0 .909-.22 1.643-.66 2.2-.433.55-1.045.825-1.837.825-.799 0-1.415-.268-1.848-.803-.433-.543-.649-1.28-.649-2.211 0-.917.216-1.65.649-2.2.44-.55 1.06-.825 1.859-.825zm0 .759c-.506 0-.884.187-1.133.561s-.374.942-.374 1.705.121 1.331.363 1.705c.249.367.627.55 1.133.55s.88-.183 1.122-.55c.249-.374.374-.946.374-1.716 0-.763-.125-1.327-.374-1.694-.242-.374-.612-.561-1.111-.561zm4.385-.638h.792l.077.814c.227-.293.513-.521.858-.682.352-.169.704-.253 1.056-.253 1.085 0 1.628.572 1.628 1.716v4.202h-.924v-3.52c0-.433-.026-.763-.077-.99-.044-.227-.136-.396-.275-.506-.14-.11-.352-.165-.638-.165-.316 0-.613.095-.891.286-.279.191-.506.418-.682.682v4.213h-.924z" fill="#000"/><path d="m263.084 73c0-.2761-.224-.5-.5-.5h-4.5c-.276 0-.5.2239-.5.5s.224.5.5.5h4v4c0 .2761.224.5.5.5s.5-.2239.5-.5zm-29.147 29.354 29-29.0004-.707-.7072-29 28.9996z" fill="#e10076"/></svg>