<svg width="328" height="184" viewBox="0 0 328 184" fill="none" xmlns="http://www.w3.org/2000/svg">
<rect x="24.5" y="128.5" width="159" height="31" rx="15.5" fill="white" stroke="#007272"/>
<path d="M46.7679 138.904V137.816H39.9199V138.936H45.5199L40.7039 148.856L41.8239 149.256L46.7679 138.904ZM54.928 149.128V148.024H49.248C51.872 145.624 54.224 143.32 54.224 140.872C54.224 139.4 53.696 137.688 50.976 137.688C49.392 137.688 48.48 138.248 48 138.568L48.496 139.48C48.768 139.32 49.584 138.808 50.864 138.808C52.192 138.808 52.944 139.32 52.944 141.016C52.944 143.48 48 147.688 47.616 148.088V149.128H54.928ZM64.9469 143.304C64.9469 140.52 64.2909 137.72 61.0589 137.72C57.7789 137.72 56.8189 140.552 56.8189 143.656C56.8189 146.776 57.7469 149.272 60.7869 149.272C63.7949 149.272 64.9469 146.856 64.9469 143.304ZM63.6349 143.4C63.6349 145.688 63.3149 148.184 60.8669 148.184C58.6429 148.184 58.1309 145.88 58.1309 143.592C58.1309 141.48 58.4509 138.792 60.9629 138.792C63.3309 138.792 63.6349 141.416 63.6349 143.4ZM79.7282 143.304C79.7282 140.52 79.0722 137.72 75.8402 137.72C72.5602 137.72 71.6002 140.552 71.6002 143.656C71.6002 146.776 72.5282 149.272 75.5682 149.272C78.5762 149.272 79.7282 146.856 79.7282 143.304ZM78.4162 143.4C78.4162 145.688 78.0962 148.184 75.6482 148.184C73.4242 148.184 72.9122 145.88 72.9122 143.592C72.9122 141.48 73.2322 138.792 75.7442 138.792C78.1122 138.792 78.4162 141.416 78.4162 143.4ZM90.3375 143.304C90.3375 140.52 89.6815 137.72 86.4495 137.72C83.1695 137.72 82.2095 140.552 82.2095 143.656C82.2095 146.776 83.1375 149.272 86.1775 149.272C89.1855 149.272 90.3375 146.856 90.3375 143.304ZM89.0255 143.4C89.0255 145.688 88.7055 148.184 86.2575 148.184C84.0335 148.184 83.5215 145.88 83.5215 143.592C83.5215 141.48 83.8415 138.792 86.3535 138.792C88.7215 138.792 89.0255 141.416 89.0255 143.4ZM100.947 143.304C100.947 140.52 100.291 137.72 97.0589 137.72C93.7789 137.72 92.8189 140.552 92.8189 143.656C92.8189 146.776 93.7469 149.272 96.7869 149.272C99.7949 149.272 100.947 146.856 100.947 143.304ZM99.6349 143.4C99.6349 145.688 99.3149 148.184 96.8669 148.184C94.6429 148.184 94.1309 145.88 94.1309 143.592C94.1309 141.48 94.4509 138.792 96.9629 138.792C99.3309 138.792 99.6349 141.416 99.6349 143.4Z" fill="#14555A"/>
<path d="M24.696 120H28.264C31.176 120 32.264 118.656 32.264 116.784C32.264 115.104 31.064 114.256 29.88 114.048V114C30.824 113.664 31.448 112.752 31.448 111.536C31.448 109.888 30.344 108.688 27.784 108.688H24.696V120ZM26.008 118.912V114.72H27.784C29.704 114.72 30.92 115.296 30.92 116.832C30.92 118.56 29.592 118.912 28.024 118.912H26.008ZM26.008 113.664V109.712H27.448C29.144 109.712 30.104 110.208 30.104 111.744C30.104 112.976 29.4 113.664 27.96 113.664H26.008ZM34.5159 120H35.7799V113.568C36.1959 112.928 36.9959 112.176 38.0519 112.176C38.5639 112.176 38.8199 112.224 39.0919 112.288L39.2999 111.216C39.1399 111.168 38.7879 111.072 38.2759 111.072C37.0439 111.072 36.1799 111.776 35.7799 112.432V111.264H34.5159V120ZM43.2154 120.192C44.6874 120.192 45.5514 119.568 46.3834 118.976V120H47.5994V111.264H46.3834V117.952C45.7114 118.432 44.6874 119.04 43.5674 119.04C41.9994 119.04 41.8874 117.952 41.8874 116.576V111.264H40.6394V116.832C40.6394 118.304 40.8154 120.192 43.2154 120.192ZM53.2575 120.192C53.8495 120.192 54.6655 120.032 55.1135 119.872L54.8895 118.832C54.5215 118.96 53.8975 119.088 53.4175 119.088C52.4095 119.088 51.8495 118.752 51.8495 117.52V112.336H54.5695V111.264H51.8335V109.472H50.6015V111.264H49.3215V112.336H50.6015V117.568C50.6015 119.632 51.6255 120.192 53.2575 120.192ZM59.6325 120.192C60.2245 120.192 61.0405 120.032 61.4885 119.872L61.2645 118.832C60.8965 118.96 60.2725 119.088 59.7925 119.088C58.7845 119.088 58.2245 118.752 58.2245 117.52V112.336H60.9445V111.264H58.2085V109.472H56.9765V111.264H55.6965V112.336H56.9765V117.568C56.9765 119.632 58.0005 120.192 59.6325 120.192ZM66.4235 120.192C68.7115 120.192 70.4075 118.736 70.4075 115.584C70.4075 112.704 69.0795 111.04 66.5995 111.04C64.1675 111.04 62.5355 112.704 62.5355 115.728C62.5355 118.592 64.0235 120.192 66.4235 120.192ZM66.5035 119.152C64.4555 119.152 63.8155 117.456 63.8155 115.664C63.8155 114 64.3595 112.08 66.5035 112.08C68.6475 112.08 69.1275 114.016 69.1275 115.664C69.1275 117.376 68.6155 119.152 66.5035 119.152ZM72.594 120H73.874V111.264H72.594V120ZM73.218 109.632L74.29 108.56L73.218 107.504L72.178 108.56L73.218 109.632ZM76.5784 120H77.8424V113.232C78.6264 112.688 79.5224 112.16 80.6424 112.16C82.1304 112.16 82.3704 113.104 82.3704 114.608V120H83.6024V114.368C83.6024 112.896 83.4424 111.04 80.9624 111.04C79.6024 111.04 78.7544 111.584 77.8424 112.256V111.264H76.5784V120ZM86.2034 120H87.4674V113.232C88.2514 112.688 89.1474 112.16 90.2674 112.16C91.7554 112.16 91.9954 113.104 91.9954 114.608V120H93.2274V114.368C93.2274 112.896 93.0674 111.04 90.5874 111.04C89.2274 111.04 88.3794 111.584 87.4674 112.256V111.264H86.2034V120ZM98.8044 120.192C99.3964 120.192 100.212 120.032 100.66 119.872L100.436 118.832C100.068 118.96 99.4444 119.088 98.9644 119.088C97.9564 119.088 97.3964 118.752 97.3964 117.52V112.336H100.116V111.264H97.3804V109.472H96.1484V111.264H94.8684V112.336H96.1484V117.568C96.1484 119.632 97.1724 120.192 98.8044 120.192ZM105.867 120.192C106.971 120.192 107.963 120 108.619 119.728L108.395 118.704C107.579 118.96 106.923 119.104 106.075 119.104C104.411 119.104 103.035 118.576 103.003 115.872H108.763V115.408C108.763 112.496 107.755 111.04 105.531 111.04C103.403 111.04 101.723 112.4 101.723 115.808C101.723 119.136 103.323 120.192 105.867 120.192ZM103.019 114.928C103.163 112.976 104.139 112.032 105.403 112.032C106.827 112.032 107.451 113.152 107.451 114.928H103.019ZM117.642 120.128L117.914 119.184C117.37 119.04 116.57 118.528 115.77 117.552L113.978 115.344L117.69 111.264H116.234L112.554 115.392L115.018 118.512C116.138 119.92 117.05 120.096 117.642 120.128ZM110.938 120H112.202V107.936H110.938V120ZM122.508 120.192C123.1 120.192 123.916 120.032 124.364 119.872L124.14 118.832C123.772 118.96 123.148 119.088 122.668 119.088C121.66 119.088 121.1 118.752 121.1 117.52V112.336H123.82V111.264H121.084V109.472H119.852V111.264H118.572V112.336H119.852V117.568C119.852 119.632 120.876 120.192 122.508 120.192ZM126.147 120H127.667V118.496H126.147V120ZM126.147 112.768H127.667V111.264H126.147V112.768Z" fill="#333333"/>
<rect x="184" y="104" width="16" height="71.8719" fill="#00D9FF" fill-opacity="0.25"/>
<rect x="8" y="104" width="16" height="71.8719" fill="#00D9FF" fill-opacity="0.25"/>
<rect x="8" y="160" width="192" height="16" fill="#DB00FF" fill-opacity="0.25"/>
<path d="M24.4304 29H27.9984C30.9104 29 31.9984 27.656 31.9984 25.784C31.9984 24.104 30.7984 23.256 29.6144 23.048V23C30.5584 22.664 31.1824 21.752 31.1824 20.536C31.1824 18.888 30.0784 17.688 27.5184 17.688H24.4304V29ZM25.7424 27.912V23.72H27.5184C29.4384 23.72 30.6544 24.296 30.6544 25.832C30.6544 27.56 29.3264 27.912 27.7584 27.912H25.7424ZM25.7424 22.664V18.712H27.1824C28.8784 18.712 29.8384 19.208 29.8384 20.744C29.8384 21.976 29.1344 22.664 27.6944 22.664H25.7424ZM34.2503 29H35.5143V22.568C35.9303 21.928 36.7303 21.176 37.7863 21.176C38.2983 21.176 38.5543 21.224 38.8263 21.288L39.0343 20.216C38.8743 20.168 38.5223 20.072 38.0103 20.072C36.7783 20.072 35.9143 20.776 35.5143 21.432V20.264H34.2503V29ZM42.9498 29.192C44.4218 29.192 45.2858 28.568 46.1178 27.976V29H47.3338V20.264H46.1178V26.952C45.4458 27.432 44.4218 28.04 43.3018 28.04C41.7338 28.04 41.6218 26.952 41.6218 25.576V20.264H40.3738V25.832C40.3738 27.304 40.5498 29.192 42.9498 29.192ZM52.9919 29.192C53.5839 29.192 54.3999 29.032 54.8479 28.872L54.6239 27.832C54.2559 27.96 53.6319 28.088 53.1519 28.088C52.1439 28.088 51.5839 27.752 51.5839 26.52V21.336H54.3039V20.264H51.5679V18.472H50.3359V20.264H49.0559V21.336H50.3359V26.568C50.3359 28.632 51.3599 29.192 52.9919 29.192ZM59.3669 29.192C59.9589 29.192 60.7749 29.032 61.2229 28.872L60.9989 27.832C60.6309 27.96 60.0069 28.088 59.5269 28.088C58.5189 28.088 57.9589 27.752 57.9589 26.52V21.336H60.6789V20.264H57.9429V18.472H56.7109V20.264H55.4309V21.336H56.7109V26.568C56.7109 28.632 57.7349 29.192 59.3669 29.192ZM66.1579 29.192C68.4459 29.192 70.1419 27.736 70.1419 24.584C70.1419 21.704 68.8139 20.04 66.3339 20.04C63.9019 20.04 62.2699 21.704 62.2699 24.728C62.2699 27.592 63.7579 29.192 66.1579 29.192ZM66.2379 28.152C64.1899 28.152 63.5499 26.456 63.5499 24.664C63.5499 23 64.0939 21.08 66.2379 21.08C68.3819 21.08 68.8619 23.016 68.8619 24.664C68.8619 26.376 68.3499 28.152 66.2379 28.152ZM72.3284 29H73.6084V20.264H72.3284V29ZM72.9524 18.632L74.0244 17.56L72.9524 16.504L71.9124 17.56L72.9524 18.632ZM76.3128 29H77.5768V22.232C78.3608 21.688 79.2568 21.16 80.3768 21.16C81.8648 21.16 82.1048 22.104 82.1048 23.608V29H83.3368V23.368C83.3368 21.896 83.1768 20.04 80.6968 20.04C79.3368 20.04 78.4888 20.584 77.5768 21.256V20.264H76.3128V29ZM85.9378 29H87.2018V22.232C87.9858 21.688 88.8818 21.16 90.0018 21.16C91.4898 21.16 91.7298 22.104 91.7298 23.608V29H92.9618V23.368C92.9618 21.896 92.8018 20.04 90.3218 20.04C88.9618 20.04 88.1138 20.584 87.2018 21.256V20.264H85.9378V29ZM98.5388 29.192C99.1308 29.192 99.9468 29.032 100.395 28.872L100.171 27.832C99.8028 27.96 99.1788 28.088 98.6988 28.088C97.6908 28.088 97.1308 27.752 97.1308 26.52V21.336H99.8508V20.264H97.1148V18.472H95.8828V20.264H94.6028V21.336H95.8828V26.568C95.8828 28.632 96.9068 29.192 98.5388 29.192ZM105.602 29.192C106.706 29.192 107.698 29 108.354 28.728L108.13 27.704C107.314 27.96 106.658 28.104 105.81 28.104C104.146 28.104 102.77 27.576 102.738 24.872H108.498V24.408C108.498 21.496 107.49 20.04 105.266 20.04C103.138 20.04 101.458 21.4 101.458 24.808C101.458 28.136 103.058 29.192 105.602 29.192ZM102.754 23.928C102.898 21.976 103.874 21.032 105.138 21.032C106.562 21.032 107.186 22.152 107.186 23.928H102.754ZM117.376 29.128L117.648 28.184C117.104 28.04 116.304 27.528 115.504 26.552L113.712 24.344L117.424 20.264H115.968L112.288 24.392L114.752 27.512C115.872 28.92 116.784 29.096 117.376 29.128ZM110.672 29H111.936V16.936H110.672V29ZM122.242 29.192C122.834 29.192 123.65 29.032 124.098 28.872L123.874 27.832C123.506 27.96 122.882 28.088 122.402 28.088C121.394 28.088 120.834 27.752 120.834 26.52V21.336H123.554V20.264H120.818V18.472H119.586V20.264H118.306V21.336H119.586V26.568C119.586 28.632 120.61 29.192 122.242 29.192ZM125.881 29H127.401V27.496H125.881V29ZM125.881 21.768H127.401V20.264H125.881V21.768Z" fill="#333333"/>
<rect x="144.5" y="8.5" width="159" height="31" rx="15.5" fill="white" stroke="#007272"/>
<path d="M166.768 19.9039V18.8159H159.92V19.9359H165.52L160.704 29.8559L161.824 30.2559L166.768 19.9039ZM174.928 30.1279V29.0239H169.248C171.872 26.6239 174.224 24.3199 174.224 21.8719C174.224 20.3999 173.696 18.6879 170.976 18.6879C169.392 18.6879 168.48 19.2479 168 19.5679L168.496 20.4799C168.768 20.3199 169.584 19.8079 170.864 19.8079C172.192 19.8079 172.944 20.3199 172.944 22.0159C172.944 24.4799 168 28.6879 167.616 29.0879V30.1279H174.928ZM184.947 24.3039C184.947 21.5199 184.291 18.7199 181.059 18.7199C177.779 18.7199 176.819 21.5519 176.819 24.6559C176.819 27.7759 177.747 30.2719 180.787 30.2719C183.795 30.2719 184.947 27.8559 184.947 24.3039ZM183.635 24.3999C183.635 26.6879 183.315 29.1839 180.867 29.1839C178.643 29.1839 178.131 26.8799 178.131 24.5919C178.131 22.4799 178.451 19.7919 180.963 19.7919C183.331 19.7919 183.635 22.4159 183.635 24.3999ZM199.728 24.3039C199.728 21.5199 199.072 18.7199 195.84 18.7199C192.56 18.7199 191.6 21.5519 191.6 24.6559C191.6 27.7759 192.528 30.2719 195.568 30.2719C198.576 30.2719 199.728 27.8559 199.728 24.3039ZM198.416 24.3999C198.416 26.6879 198.096 29.1839 195.648 29.1839C193.424 29.1839 192.912 26.8799 192.912 24.5919C192.912 22.4799 193.232 19.7919 195.744 19.7919C198.112 19.7919 198.416 22.4159 198.416 24.3999ZM210.338 24.3039C210.338 21.5199 209.682 18.7199 206.45 18.7199C203.17 18.7199 202.21 21.5519 202.21 24.6559C202.21 27.7759 203.138 30.2719 206.178 30.2719C209.186 30.2719 210.338 27.8559 210.338 24.3039ZM209.026 24.3999C209.026 26.6879 208.706 29.1839 206.258 29.1839C204.034 29.1839 203.522 26.8799 203.522 24.5919C203.522 22.4799 203.842 19.7919 206.354 19.7919C208.722 19.7919 209.026 22.4159 209.026 24.3999ZM220.947 24.3039C220.947 21.5199 220.291 18.7199 217.059 18.7199C213.779 18.7199 212.819 21.5519 212.819 24.6559C212.819 27.7759 213.747 30.2719 216.787 30.2719C219.795 30.2719 220.947 27.8559 220.947 24.3039ZM219.635 24.3999C219.635 26.6879 219.315 29.1839 216.867 29.1839C214.643 29.1839 214.131 26.8799 214.131 24.5919C214.131 22.4799 214.451 19.7919 216.963 19.7919C219.331 19.7919 219.635 22.4159 219.635 24.3999Z" fill="#14555A"/>
<rect x="304" y="8" width="16" height="48.1279" fill="#00D9FF" fill-opacity="0.25"/>
<rect x="8" y="8" width="16" height="48.1279" fill="#00D9FF" fill-opacity="0.25"/>
<rect x="8" y="40.1279" width="312" height="16" fill="#DB00FF" fill-opacity="0.25"/>
<rect x="128.225" y="8" width="16" height="47.888" fill="#00D9FF" fill-opacity="0.25"/>
</svg>
