<svg fill="none" height="328" viewBox="0 0 520 328" width="520" xmlns="http://www.w3.org/2000/svg" xmlns:xlink="http://www.w3.org/1999/xlink"><clipPath id="a"><path d="m413 24h16v16h-16z"/></clipPath><clipPath id="b"><path d="m224 80h16v16h-16z"/></clipPath><clipPath id="c"><path d="m413 184h16v16h-16z"/></clipPath><clipPath id="d"><path d="m224 240h16v16h-16z"/></clipPath><path d="m13 208h451v24h-451zm0 56h451v16h-451z" fill="#00d9ff" fill-opacity=".25"/><path d="m12 232h452v32h-452zm1-56h451v32h-451z" fill="#ffff7a" fill-opacity=".5"/><path d="m144 176h16v112h-16zm56 0h16v112h-16zm120 0h8v112h-8zm69 0h16v112h-16z" fill="#db00ff" fill-opacity=".25"/><path d="m483.23 187.72c.5 0 .95.1 1.33.28.38.19.68.44.89.76.2.31.31.66.31 1.03 0 .48-.16.9-.47 1.26a2 2 0 0 1 -1.14.66c.52.04.96.24 1.32.59.37.35.55.83.55 1.44a2.37 2.37 0 0 1 -1.38 2.18c-.43.22-.92.33-1.48.33-.5 0-.96-.1-1.42-.28a2.8 2.8 0 0 1 -1.12-.81l.68-.56a2.29 2.29 0 0 0 1.83.82 1.9 1.9 0 0 0 1.35-.44c.32-.3.49-.72.49-1.24 0-1.05-.57-1.57-1.72-1.57h-.68l.12-.8h.49c.43 0 .8-.13 1.1-.37s.46-.6.46-1.08c0-.44-.15-.78-.44-1.02a1.65 1.65 0 0 0 -1.12-.37c-.34 0-.65.06-.92.18s-.54.31-.83.58l-.55-.61a3.3 3.3 0 0 1 2.35-.96zm7.2 0c.5 0 .94.1 1.31.3.39.2.68.47.88.82s.3.74.3 1.18c0 .51-.12 1-.36 1.49-.23.48-.6 1-1.13 1.58-.52.57-1.25 1.29-2.2 2.16h3.88l-.12.87h-4.92v-.82a45.74 45.74 0 0 0 2.4-2.42c.53-.59.9-1.09 1.1-1.5a3 3 0 0 0 .3-1.32c0-.47-.14-.83-.4-1.1-.27-.26-.63-.4-1.1-.4-.39 0-.72.08-.98.21-.25.13-.52.35-.8.67l-.69-.54c.33-.4.7-.7 1.1-.9.4-.19.88-.28 1.42-.28zm8 1.94c1.52 0 2.28 1.1 2.28 3.29 0 1-.2 1.8-.62 2.4s-1.02.9-1.81.9c-.69 0-1.25-.24-1.68-.72v3.01l-1.01.12v-8.87h.86l.09.89c.23-.33.5-.58.83-.76a2.2 2.2 0 0 1 1.05-.26zm-.25.82c-.32 0-.61.1-.89.28-.26.2-.5.44-.7.72v3.14c.18.24.38.44.63.58.26.14.53.2.83.2.53 0 .92-.2 1.18-.6s.4-1.02.4-1.85-.12-1.45-.36-1.86c-.23-.41-.6-.61-1.09-.61zm4.08 5.64 2.33-3.34-2.06-2.99h1.2l1.47 2.35 1.47-2.35h1.17l-2.05 2.94 2.32 3.39h-1.22l-1.74-2.72-1.74 2.72z" fill="#000"/><path d="m464.5 192.25h11" stroke="#b3b3b3" stroke-dasharray="2 3" stroke-linecap="round"/><path d="m483.23 215.72c.5 0 .94.1 1.32.3s.67.47.87.82.3.74.3 1.18c0 .51-.12 1-.36 1.49-.23.48-.6 1-1.12 1.58-.52.57-1.26 1.29-2.21 2.16h3.89l-.12.87h-4.92v-.82a45.74 45.74 0 0 0 2.4-2.42c.52-.59.89-1.09 1.09-1.5a3 3 0 0 0 .3-1.32c0-.47-.13-.83-.4-1.1-.26-.26-.63-.4-1.09-.4-.4 0-.72.08-.98.21s-.52.35-.8.67l-.7-.54c.34-.4.7-.7 1.1-.9.4-.19.88-.28 1.43-.28zm10.3 6.4h-1.07v2h-.97v-2h-3.43v-.75l2.42-5.65.84.36-2.2 5.22h2.38l.09-2.34h.87v2.34h1.07v.81zm4.9-4.46c1.52 0 2.28 1.1 2.28 3.29 0 1-.2 1.8-.62 2.4s-1.02.9-1.81.9c-.69 0-1.25-.24-1.68-.72v3.01l-1.01.12v-8.87h.86l.09.89c.23-.33.5-.58.83-.76a2.2 2.2 0 0 1 1.05-.26zm-.25.82c-.32 0-.61.1-.89.28-.26.2-.5.44-.7.72v3.14c.18.24.38.44.63.58.26.14.53.2.83.2.53 0 .92-.2 1.18-.6s.4-1.02.4-1.85-.12-1.45-.36-1.86c-.23-.41-.6-.61-1.09-.61zm4.08 5.64 2.33-3.34-2.06-2.99h1.2l1.47 2.35 1.47-2.35h1.17l-2.05 2.94 2.32 3.39h-1.22l-1.74-2.72-1.74 2.72z" fill="#000"/><path d="m464.5 220.25h11" stroke="#b3b3b3" stroke-dasharray="2 3" stroke-linecap="round"/><path d="m483.23 243.72c.5 0 .95.1 1.33.28.38.19.68.44.89.76.2.31.31.66.31 1.03 0 .48-.16.9-.47 1.26a2 2 0 0 1 -1.14.66c.52.04.96.24 1.32.59.37.35.55.83.55 1.44a2.37 2.37 0 0 1 -1.38 2.18c-.43.22-.92.33-1.48.33-.5 0-.96-.1-1.42-.28a2.8 2.8 0 0 1 -1.12-.81l.68-.56a2.29 2.29 0 0 0 1.83.82 1.9 1.9 0 0 0 1.35-.44c.32-.3.49-.72.49-1.24 0-1.05-.57-1.57-1.72-1.57h-.68l.12-.8h.49c.43 0 .8-.13 1.1-.37s.46-.6.46-1.08c0-.44-.15-.78-.44-1.02a1.65 1.65 0 0 0 -1.12-.37c-.34 0-.65.06-.92.18s-.54.31-.83.58l-.55-.61a3.3 3.3 0 0 1 2.35-.96zm7.2 0c.5 0 .94.1 1.31.3.39.2.68.47.88.82s.3.74.3 1.18c0 .51-.12 1-.36 1.49-.23.48-.6 1-1.13 1.58-.52.57-1.25 1.29-2.2 2.16h3.88l-.12.87h-4.92v-.82a45.74 45.74 0 0 0 2.4-2.42c.53-.59.9-1.09 1.1-1.5a3 3 0 0 0 .3-1.32c0-.47-.14-.83-.4-1.1-.27-.26-.63-.4-1.1-.4-.39 0-.72.08-.98.21-.25.13-.52.35-.8.67l-.69-.54c.33-.4.7-.7 1.1-.9.4-.19.88-.28 1.42-.28zm8 1.94c1.52 0 2.28 1.1 2.28 3.29 0 1-.2 1.8-.62 2.4s-1.02.9-1.81.9c-.69 0-1.25-.24-1.68-.72v3.01l-1.01.12v-8.87h.86l.09.89c.23-.33.5-.58.83-.76a2.2 2.2 0 0 1 1.05-.26zm-.25.82c-.32 0-.61.1-.89.28-.26.2-.5.44-.7.72v3.14c.18.24.38.44.63.58.26.14.53.2.83.2.53 0 .92-.2 1.18-.6s.4-1.02.4-1.85-.12-1.45-.36-1.86c-.23-.41-.6-.61-1.09-.61zm4.08 5.64 2.33-3.34-2.06-2.99h1.2l1.47 2.35 1.47-2.35h1.17l-2.05 2.94 2.32 3.39h-1.22l-1.74-2.72-1.74 2.72z" fill="#000"/><path d="m464.5 248.25h11" stroke="#b3b3b3" stroke-dasharray="2 3" stroke-linecap="round"/><path d="m389.59 311.18v.82h-4.76v-.82h2.02v-6.34l-1.88 1.14-.45-.71 2.47-1.54h.88v7.45zm4.95-4.56c.43 0 .82.1 1.18.3.36.18.64.48.85.87.2.38.31.86.31 1.43 0 .59-.12 1.1-.35 1.56a2.48 2.48 0 0 1 -2.25 1.35c-.96 0-1.66-.35-2.1-1.04a5.7 5.7 0 0 1 -.65-2.99c0-.91.12-1.7.36-2.38.25-.68.6-1.2 1.06-1.57a2.58 2.58 0 0 1 1.65-.55c.6 0 1.15.16 1.64.5l-.4.66c-.38-.23-.8-.34-1.25-.34-.63 0-1.13.3-1.49.88a4.9 4.9 0 0 0 -.55 2.43c.25-.39.55-.67.88-.84.32-.18.7-.27 1.11-.27zm-.26 4.7c.5 0 .9-.18 1.16-.54.27-.37.4-.88.4-1.53 0-1.2-.48-1.81-1.45-1.81-.39 0-.74.1-1.05.32-.3.21-.56.5-.78.86.02.93.16 1.62.43 2.05s.7.65 1.29.65zm7.53-5.78c1.53 0 2.29 1.1 2.29 3.3 0 1-.2 1.8-.62 2.4s-1.02.9-1.82.9c-.68 0-1.24-.25-1.68-.73v3.01l-1 .12v-8.86h.86l.08.88c.24-.32.51-.58.83-.75a2.2 2.2 0 0 1 1.06-.27zm-.24.82c-.32 0-.62.1-.89.29-.26.19-.5.43-.7.72v3.13c.17.25.38.44.63.59.25.13.53.2.83.2.52 0 .92-.2 1.17-.6.27-.4.4-1.03.4-1.86s-.12-1.45-.35-1.86c-.23-.4-.6-.61-1.1-.61zm4.07 5.64 2.33-3.34-2.05-2.98h1.2l1.46 2.35 1.48-2.35h1.16l-2.05 2.94 2.33 3.38h-1.23l-1.73-2.71-1.75 2.71zm-85.18-6.3c0 .4-.12.74-.36 1.03-.24.3-.6.58-1.07.84.56.23 1 .54 1.3.91.32.38.48.81.48 1.3a2.19 2.19 0 0 1 -1.35 2.05c-.43.2-.93.3-1.5.3s-1.07-.1-1.5-.3c-.42-.2-.75-.49-.97-.84a2.23 2.23 0 0 1 -.32-1.19c0-.92.55-1.64 1.66-2.16-.45-.21-.79-.46-1-.75-.21-.3-.32-.67-.32-1.13 0-.47.13-.87.38-1.2.24-.33.56-.57.93-.72a3.17 3.17 0 0 1 2.36-.01c.38.15.69.39.92.7.24.32.36.7.36 1.17zm-3.96.07c0 .3.06.55.2.73.15.18.33.32.56.44.24.1.59.23 1.06.38.4-.24.7-.47.88-.7s.27-.52.27-.87c0-.42-.13-.75-.4-.99-.25-.24-.61-.37-1.08-.37-.48 0-.85.12-1.1.36-.26.24-.4.58-.4 1.02zm3.24 4.03c0-.35-.1-.63-.27-.85s-.4-.4-.7-.53c-.27-.12-.7-.29-1.25-.49-.86.4-1.29 1.03-1.29 1.87 0 .48.15.85.45 1.12.3.26.72.4 1.28.4s1-.14 1.3-.42c.32-.28.48-.65.48-1.1zm5.87-4.26c1.53 0 2.3 1.1 2.3 3.3 0 1-.21 1.8-.63 2.4-.41.6-1.02.9-1.81.9-.69 0-1.25-.25-1.68-.73v3.01l-1 .12v-8.86h.85l.09.88c.23-.32.5-.58.83-.75a2.2 2.2 0 0 1 1.05-.27zm-.24.82c-.32 0-.61.1-.88.29s-.5.43-.7.72v3.13c.17.25.38.44.62.59.26.13.53.2.83.2.53 0 .92-.2 1.18-.6s.4-1.03.4-1.86-.12-1.45-.36-1.86c-.23-.4-.6-.61-1.09-.61zm4.08 5.64 2.33-3.34-2.06-2.98h1.2l1.47 2.35 1.47-2.35h1.17l-2.05 2.94 2.32 3.38h-1.22l-1.74-2.71-1.74 2.71z" fill="#000"/><path d="m397.11 299.5v-11m-73 11v-11" stroke="#b3b3b3" stroke-dasharray="2 3" stroke-linecap="round"/><path d="m199.59 311.18v.82h-4.77v-.82h2.03v-6.34l-1.88 1.14-.44-.71 2.46-1.54h.88v7.45zm4.95-4.56c.43 0 .83.1 1.18.3.36.18.64.48.85.87.2.38.31.86.31 1.43 0 .59-.12 1.1-.35 1.56a2.48 2.48 0 0 1 -2.25 1.35c-.96 0-1.66-.35-2.1-1.04a5.7 5.7 0 0 1 -.65-2.99c0-.91.12-1.7.36-2.38.25-.68.6-1.2 1.06-1.57a2.58 2.58 0 0 1 1.65-.55c.6 0 1.15.16 1.65.5l-.4.66c-.4-.23-.81-.34-1.26-.34-.63 0-1.13.3-1.49.88a4.9 4.9 0 0 0 -.55 2.43c.25-.39.55-.67.88-.84.32-.18.7-.27 1.11-.27zm-.26 4.7c.5 0 .9-.18 1.16-.54.27-.37.4-.88.4-1.53 0-1.2-.48-1.81-1.46-1.81-.38 0-.73.1-1.04.32-.3.21-.56.5-.78.86.02.93.16 1.62.43 2.05s.7.65 1.29.65zm7.53-5.78c1.53 0 2.29 1.1 2.29 3.3 0 1-.2 1.8-.62 2.4s-1.02.9-1.82.9c-.68 0-1.24-.25-1.68-.73v3.01l-1 .12v-8.86h.86l.08.88c.24-.32.51-.58.83-.75a2.2 2.2 0 0 1 1.06-.27zm-.24.82c-.32 0-.62.1-.89.29-.26.19-.5.43-.7.72v3.13c.17.25.38.44.63.59.25.13.53.2.83.2.52 0 .92-.2 1.17-.6.27-.4.4-1.03.4-1.86s-.12-1.45-.35-1.86c-.23-.4-.6-.61-1.1-.61zm4.07 5.64 2.33-3.34-2.05-2.98h1.2l1.46 2.35 1.48-2.35h1.16l-2.05 2.94 2.33 3.38h-1.22l-1.75-2.71-1.74 2.71z" fill="#000"/><path d="m208.11 299.5v-11" stroke="#b3b3b3" stroke-dasharray="2 3" stroke-linecap="round"/><path d="m143.59 311.18v.82h-4.77v-.82h2.03v-6.34l-1.88 1.14-.44-.71 2.46-1.54h.88v7.45zm4.95-4.56c.43 0 .83.1 1.18.3.36.18.64.48.85.87.2.38.31.86.31 1.43 0 .59-.12 1.1-.35 1.56a2.48 2.48 0 0 1 -2.25 1.35c-.96 0-1.66-.35-2.1-1.04a5.7 5.7 0 0 1 -.65-2.99c0-.91.12-1.7.36-2.38.25-.68.6-1.2 1.06-1.57a2.58 2.58 0 0 1 1.65-.55c.6 0 1.15.16 1.65.5l-.4.66c-.4-.23-.81-.34-1.26-.34-.63 0-1.13.3-1.49.88a4.9 4.9 0 0 0 -.55 2.43c.25-.39.55-.67.88-.84.32-.18.7-.27 1.11-.27zm-.26 4.7c.5 0 .9-.18 1.16-.54.27-.37.4-.88.4-1.53 0-1.2-.48-1.81-1.46-1.81-.38 0-.73.1-1.04.32-.3.21-.56.5-.78.86.02.93.16 1.62.43 2.05s.7.65 1.29.65zm7.53-5.78c1.53 0 2.29 1.1 2.29 3.3 0 1-.2 1.8-.62 2.4s-1.02.9-1.82.9c-.68 0-1.24-.25-1.68-.73v3.01l-1 .12v-8.86h.86l.08.88c.24-.32.51-.58.83-.75a2.2 2.2 0 0 1 1.06-.27zm-.24.82c-.32 0-.62.1-.89.29-.26.19-.5.43-.7.72v3.13c.17.25.38.44.63.59.25.13.53.2.83.2.52 0 .92-.2 1.17-.6.27-.4.4-1.03.4-1.86s-.12-1.45-.35-1.86c-.23-.4-.6-.61-1.1-.61zm4.07 5.64 2.33-3.34-2.05-2.98h1.2l1.46 2.35 1.48-2.35h1.16l-2.05 2.94 2.33 3.38h-1.22l-1.75-2.71-1.74 2.71z" fill="#000"/><path d="m152.11 299.5v-11" stroke="#b3b3b3" stroke-dasharray="2 3" stroke-linecap="round"/><rect fill="#b3dada" height="16" rx="8" width="40" x="160" y="80"/><path d="m172 76.5a11.5 11.5 0 1 1 0 23 11.5 11.5 0 0 1 0-23z" fill="#fff" stroke="#007272"/><circle cx="191" cy="88" r="3.5" stroke="#007272"/><rect fill="#fff" height="31" rx="15.5" stroke="#007272" width="159" x="160.5" y="16.5"/><path d="m177.46 25.4v1.3h6.14l-5.08 11.3h1.76l5.06-11.61v-.99zm12.62 11.3 2.32-2.37c1.8-1.86 3.44-3.42 3.44-5.42 0-2.16-1.62-3.65-4-3.65-2.12 0-3.55 1.08-3.9 2.95l1.33.5c.32-1.44 1.19-2.14 2.57-2.14 1.5 0 2.45.9 2.45 2.34 0 1.37-.74 2.23-2.94 4.46l-3.52 3.6v1.03h8.02v-1.3zm12.55 1.44c2.87 0 4.4-2.26 4.4-6.44s-1.53-6.44-4.4-6.44c-2.86 0-4.39 2.26-4.39 6.44s1.53 6.44 4.4 6.44zm0-1.36c-1.87 0-2.82-1.71-2.82-5.08s.95-5.08 2.82-5.08c1.88 0 2.83 1.71 2.83 5.08s-.95 5.08-2.83 5.08zm14.95 1.36c2.86 0 4.39-2.26 4.39-6.44s-1.53-6.44-4.4-6.44c-2.86 0-4.39 2.26-4.39 6.44s1.53 6.44 4.4 6.44zm0-1.36c-1.88 0-2.83-1.71-2.83-5.08s.95-5.08 2.83-5.08c1.87 0 2.82 1.71 2.82 5.08s-.95 5.08-2.82 5.08zm10.79 1.36c2.86 0 4.4-2.26 4.4-6.44s-1.54-6.44-4.4-6.44-4.4 2.26-4.4 6.44 1.54 6.44 4.4 6.44zm0-1.36c-1.87 0-2.83-1.71-2.83-5.08s.96-5.08 2.83-5.08 2.82 1.71 2.82 5.08-.95 5.08-2.82 5.08zm10.8 1.36c2.85 0 4.38-2.26 4.38-6.44s-1.53-6.44-4.39-6.44-4.39 2.26-4.39 6.44 1.53 6.44 4.4 6.44zm0-1.36c-1.88 0-2.83-1.71-2.83-5.08s.95-5.08 2.82-5.08 2.83 1.71 2.83 5.08-.96 5.08-2.83 5.08z" fill="#14555a"/><path d="m41.79 31.32c1.08-.47 1.7-1.38 1.7-2.7 0-1.98-1.43-3.22-3.68-3.22h-4.34v12.6h4.99c2.23 0 3.81-1.44 3.81-3.5 0-1.58-1-2.8-2.48-3.18zm-2.4-4.6c1.55 0 2.45.73 2.45 2.03s-.88 2.03-2.44 2.03h-2.3v-4.07h2.3zm.53 9.91h-2.83v-4.53h2.8c1.83 0 2.73.77 2.73 2.28 0 1.44-1 2.25-2.7 2.25zm10.42-7.77a2.7 2.7 0 0 0 -2.58 1.67v-1.53h-1.38v9h1.56v-5.22c0-1.71 1.01-2.54 2.34-2.54.35 0 .6.02.81.06v-1.35c-.14-.06-.4-.1-.75-.1zm8.08.14v5.2c0 1.62-.92 2.67-2.34 2.67-1.35 0-2.1-.8-2.1-2.22v-5.65h-1.56v5.72c0 2.15 1.2 3.42 3.2 3.42 1.38 0 2.46-.6 3-1.65v1.51h1.36v-9zm7.49 7.85c-.92 0-1.39-.43-1.39-1.3v-5.25h2.3v-1.3h-2.3v-2.8h-1.56v2.8h-1.53v1.3h1.53v5.29c0 1.64.97 2.55 2.68 2.55.52 0 1.02-.07 1.31-.18v-1.26c-.25.1-.63.15-1.04.15zm6.52 0c-.92 0-1.39-.43-1.39-1.3v-5.25h2.3v-1.3h-2.3v-2.8h-1.56v2.8h-1.53v1.3h1.53v5.29c0 1.64.97 2.55 2.68 2.55.52 0 1.03-.07 1.31-.18v-1.26c-.25.1-.63.15-1.04.15zm6.8 1.3c2.55 0 4.44-1.86 4.44-4.65s-1.9-4.64-4.43-4.64c-2.54 0-4.43 1.85-4.43 4.64s1.9 4.64 4.43 4.64zm0-1.3c-1.65 0-2.85-1.33-2.85-3.35s1.2-3.35 2.86-3.35 2.86 1.33 2.86 3.35-1.2 3.35-2.86 3.35zm7.32-9.18c.58 0 1.05-.49 1.05-1.06 0-.58-.47-1.05-1.05-1.05-.57 0-1.06.47-1.06 1.05 0 .57.49 1.06 1.06 1.06zm-.79 10.33h1.57v-9h-1.57zm8.4-9.14c-1.36 0-2.44.6-2.98 1.63v-1.49h-1.38v9h1.56v-5.2c0-1.62.92-2.67 2.36-2.67 1.33 0 2.07.8 2.07 2.22v5.65h1.57v-5.72c0-2.15-1.2-3.42-3.2-3.42zm9.6 0c-1.34 0-2.42.6-2.96 1.63v-1.49h-1.4v9h1.57v-5.2c0-1.62.92-2.67 2.36-2.67 1.33 0 2.07.8 2.07 2.22v5.65h1.56v-5.72c0-2.15-1.19-3.42-3.2-3.42zm9.03 7.99c-.92 0-1.39-.43-1.39-1.3v-5.25h2.3v-1.3h-2.3v-2.8h-1.56v2.8h-1.53v1.3h1.53v5.29c0 1.64.97 2.55 2.68 2.55.52 0 1.03-.07 1.31-.18v-1.26c-.25.1-.63.15-1.04.15zm10.88-3.24c0-2.88-1.62-4.75-4.2-4.75-2.57 0-4.3 1.89-4.3 4.64 0 2.74 1.8 4.64 4.5 4.64 1.7 0 3-.68 3.7-1.92l-1.1-.76a2.78 2.78 0 0 1 -2.58 1.42c-1.53 0-2.86-.95-2.99-2.95h6.95c.02-.05.02-.25.02-.32zm-4.2-3.48c1.53 0 2.49 1 2.69 2.67h-5.42c.2-1.73 1.26-2.67 2.73-2.67zm11.65 7.87h1.92l-3.89-5.02 3.62-3.98h-1.96l-3.78 4.43v-8.03h-1.57v12.6h1.57v-2.66l1.17-1.3zm6.86-1.15c-.92 0-1.39-.43-1.39-1.3v-5.25h2.3v-1.3h-2.3v-2.8h-1.56v2.8h-1.53v1.3h1.53v5.29c0 1.64.97 2.55 2.68 2.55.52 0 1.03-.07 1.31-.18v-1.26c-.25.1-.63.15-1.04.15zm3.86-4.4c.57 0 1.04-.48 1.04-1.06 0-.57-.47-1.04-1.04-1.04-.58 0-1.07.47-1.07 1.04 0 .58.49 1.07 1.07 1.07zm0 5.66c.57 0 1.04-.49 1.04-1.06 0-.58-.47-1.05-1.04-1.05-.58 0-1.07.47-1.07 1.05 0 .57.49 1.06 1.07 1.06zm-123.82 56.03c2.59 0 4.23-1.4 4.23-3.63 0-1.75-1.1-2.92-3.33-3.51l-1.21-.33c-1.44-.37-2.07-.99-2.07-2.03 0-1.2.99-2 2.48-2 1.28 0 2.25.69 2.54 1.8l1.37-.65c-.36-1.53-1.96-2.53-3.94-2.53-2.38 0-4.07 1.44-4.07 3.47 0 1.7 1.04 2.8 3.15 3.38l1.3.36c1.5.42 2.16 1.07 2.16 2.2 0 1.28-1 2.09-2.6 2.09-1.5 0-2.62-.7-3.16-2.18l-1.32.81c.61 1.75 2.3 2.75 4.47 2.75zm11.77-.14h1.93l-3.89-5.02 3.62-3.98h-1.95l-3.78 4.43v-8.03h-1.57v12.6h1.57v-2.66l1.17-1.3zm9.83-1.6v-4.21c0-2.13-1.3-3.33-3.62-3.33-1.68 0-2.85.66-3.35 1.92l1.2.63c.35-.84 1.07-1.3 2.11-1.3 1.28 0 2.1.74 2.1 1.95v.34l-2.64.38c-2.1.32-3.17 1.26-3.17 2.8 0 1.56 1.2 2.56 3 2.56a3.4 3.4 0 0 0 2.9-1.44c0 .89.51 1.44 1.32 1.44.34 0 .61-.05.78-.14l.01-1c-.45 0-.64-.17-.64-.6zm-4.18.54c-.99 0-1.67-.56-1.67-1.39 0-.97.63-1.5 2.01-1.69l2.27-.32v.64c0 1.68-1 2.76-2.6 2.76zm10.24-.1c-.92 0-1.39-.42-1.39-1.29v-5.25h2.3v-1.3h-2.3v-2.8h-1.57v2.8h-1.52v1.3h1.53v5.29c0 1.64.98 2.55 2.69 2.55.52 0 1.02-.07 1.31-.18v-1.26c-.25.1-.63.15-1.04.15zm6.52 0c-.92 0-1.39-.42-1.39-1.29v-5.25h2.3v-1.3h-2.3v-2.8h-1.56v2.8h-1.53v1.3h1.53v5.29c0 1.64.97 2.55 2.68 2.55.52 0 1.02-.07 1.31-.18v-1.26c-.25.1-.63.15-1.04.15zm10.88-3.23c0-2.88-1.63-4.75-4.2-4.75s-4.3 1.89-4.3 4.64c0 2.74 1.8 4.64 4.5 4.64 1.7 0 3-.68 3.7-1.92l-1.1-.76a2.78 2.78 0 0 1 -2.58 1.42c-1.53 0-2.87-.95-3-2.95h6.96c.02-.05.02-.25.02-.32zm-4.2-3.48c1.53 0 2.48 1 2.68 2.67h-5.41c.2-1.73 1.26-2.67 2.73-2.67zm9.42-3.58c.34 0 .75.07.99.15v-1.26c-.27-.11-.83-.18-1.3-.18-1.65 0-2.6.95-2.6 2.6v1.14h-1.41v1.3h1.4v7.7h1.57v-7.7h2.21v-1.3h-2.21v-1.06c0-.9.48-1.39 1.35-1.39zm6.47 2.3a2.7 2.7 0 0 0 -2.57 1.68v-1.53h-1.4v9h1.57v-5.22c0-1.71 1-2.54 2.34-2.54.34 0 .6.02.8.06v-1.35c-.14-.06-.39-.1-.75-.1zm3.3-1.18c.57 0 1.04-.49 1.04-1.06 0-.58-.47-1.05-1.05-1.05-.57 0-1.06.47-1.06 1.05 0 .57.49 1.06 1.06 1.06zm-.81 10.33h1.57v-9h-1.57zm9.28-10.33c.58 0 1.05-.49 1.05-1.06 0-.58-.47-1.05-1.05-1.05-.57 0-1.06.47-1.06 1.05 0 .57.49 1.06 1.06 1.06zm-.78 10.33h1.57v-9h-1.57zm8.4-9.14c-1.36 0-2.44.6-2.98 1.63v-1.49h-1.38v9h1.56v-5.2c0-1.62.92-2.67 2.36-2.67 1.33 0 2.07.8 2.07 2.22v5.65h1.57v-5.72c0-2.15-1.2-3.42-3.2-3.42zm9.6 0c-1.34 0-2.42.6-2.96 1.63v-1.49h-1.4v9h1.57v-5.2c0-1.62.92-2.67 2.36-2.67 1.33 0 2.07.8 2.07 2.22v5.65h1.56v-5.72c0-2.15-1.19-3.42-3.2-3.42zm9.03 7.99c-.92 0-1.39-.43-1.39-1.3v-5.25h2.3v-1.3h-2.3v-2.8h-1.56v2.8h-1.53v1.3h1.53v5.29c0 1.64.97 2.55 2.68 2.55.52 0 1.03-.07 1.31-.18v-1.26c-.25.1-.63.15-1.04.15zm10.88-3.24c0-2.88-1.62-4.75-4.2-4.75-2.57 0-4.3 1.89-4.3 4.64 0 2.74 1.8 4.64 4.5 4.64 1.7 0 3-.68 3.7-1.92l-1.1-.76a2.78 2.78 0 0 1 -2.58 1.42c-1.53 0-2.86-.95-2.99-2.95h6.95c.02-.05.02-.25.02-.32zm-4.2-3.48c1.53 0 2.49 1 2.69 2.67h-5.42c.2-1.73 1.26-2.67 2.73-2.67zm11.65 7.87h1.92l-3.89-5.02 3.62-3.98h-1.96l-3.78 4.43v-8.03h-1.57v12.6h1.57v-2.66l1.17-1.3zm6.86-1.15c-.92 0-1.39-.43-1.39-1.3v-5.25h2.3v-1.3h-2.3v-2.8h-1.56v2.8h-1.53v1.3h1.53v5.29c0 1.64.97 2.55 2.68 2.55.52 0 1.03-.07 1.31-.18v-1.26c-.25.1-.63.15-1.04.15zm3.86-4.4c.57 0 1.04-.48 1.04-1.06 0-.57-.47-1.04-1.04-1.04-.58 0-1.07.47-1.07 1.04 0 .58.49 1.07 1.07 1.07zm0 5.66c.57 0 1.04-.49 1.04-1.06 0-.58-.47-1.05-1.04-1.05-.58 0-1.07.47-1.07 1.05 0 .57.49 1.06 1.07 1.06z" fill="#333"/><path d="m338.12 25.4h-1.95l-5.11 6.6v-6.6h-1.62v12.6h1.62v-3.8l1.24-1.55 3.78 5.35h2.04l-4.86-6.53zm5.24 3.46a2.7 2.7 0 0 0 -2.58 1.67v-1.53h-1.38v9h1.56v-5.22c0-1.71 1.01-2.54 2.34-2.54.35 0 .6.02.81.06v-1.35c-.14-.06-.4-.1-.75-.1zm7.44-1.2a1.04 1.04 0 0 0 0-2.1c-.58 0-1.06.47-1.06 1.05 0 .57.48 1.06 1.06 1.06zm-.8 10.34h1.57v-9h-1.56v9zm11.6-9.99c1.03 0 1.84-.81 1.84-1.85 0-1.05-.8-1.86-1.85-1.86-1.02 0-1.85.81-1.85 1.86 0 1.04.82 1.85 1.85 1.85zm0-2.92c.58 0 1.05.47 1.05 1.07 0 .59-.46 1.06-1.06 1.06s-1.06-.47-1.06-1.06c0-.6.47-1.07 1.06-1.07zm3.57 11.3v-4.2c0-2.13-1.3-3.33-3.62-3.33-1.67 0-2.84.66-3.34 1.92l1.2.63c.34-.84 1.06-1.3 2.1-1.3 1.29 0 2.1.74 2.1 1.95v.34l-2.63.38c-2.1.32-3.17 1.26-3.17 2.8 0 1.56 1.19 2.56 2.99 2.56a3.4 3.4 0 0 0 2.9-1.44c0 .89.52 1.44 1.33 1.44.34 0 .61-.05.77-.14l.02-1c-.45 0-.65-.17-.65-.6zm-4.17.55c-1 0-1.68-.56-1.68-1.39 0-.97.63-1.5 2.02-1.69l2.27-.32v.64c0 1.68-1.01 2.76-2.61 2.76zm10.43-8.08a2.7 2.7 0 0 0 -2.57 1.67v-1.53h-1.39v9h1.57v-5.22c0-1.71 1-2.54 2.34-2.54.34 0 .6.02.8.06v-1.35c-.14-.06-.39-.1-.75-.1zm10.13 4.75c0-2.88-1.62-4.75-4.19-4.75s-4.3 1.89-4.3 4.64c0 2.74 1.8 4.64 4.5 4.64 1.7 0 3-.68 3.7-1.92l-1.1-.76a2.78 2.78 0 0 1 -2.58 1.42c-1.53 0-2.86-.95-3-2.95h6.96zm-4.19-3.48c1.53 0 2.49 1 2.68 2.67h-5.42c.2-1.73 1.26-2.67 2.74-2.67zm9.49 6.72c-.92 0-1.39-.43-1.39-1.3v-5.25h2.3v-1.3h-2.3v-2.8h-1.56v2.8h-1.53v1.3h1.53v5.29c0 1.64.97 2.55 2.68 2.55.52 0 1.03-.07 1.31-.18v-1.26c-.25.1-.63.15-1.04.15z" fill="#000"/><path d="m421 16.5a15.5 15.5 0 1 1 0 31 15.5 15.5 0 0 1 0-31z" fill="#fff" stroke="#007272"/><g clip-path="url(#a)"><path clip-rule="evenodd" d="m417.35 29.1c0-2.05 1.55-3.6 3.6-3.6 2.06 0 3.6 1.55 3.6 3.6s-1.54 3.6-3.6 3.6a.75.75 0 0 0 -.75.75v2.67a.75.75 0 0 0 1.5 0v-1.97a5.01 5.01 0 0 0 4.36-5.05c0-2.88-2.23-5.1-5.1-5.1a5.02 5.02 0 0 0 -5.1 5.1.75.75 0 0 0 1.5 0zm3.6 10.9c.66 0 1.1-.44 1.1-1.1 0-.65-.44-1.1-1.1-1.1-.65 0-1.1.45-1.1 1.1 0 .66.45 1.1 1.1 1.1z" fill="#14555a" fill-rule="evenodd"/></g><path d="m232 72.5a15.5 15.5 0 1 1 0 31 15.5 15.5 0 0 1 0-31z" fill="#fff" stroke="#007272"/><g clip-path="url(#b)"><path clip-rule="evenodd" d="m228.35 85.1c0-2.05 1.55-3.6 3.6-3.6 2.06 0 3.6 1.55 3.6 3.6s-1.54 3.6-3.6 3.6a.75.75 0 0 0 -.74.75v2.67a.75.75 0 0 0 1.5 0v-1.97a5.01 5.01 0 0 0 4.35-5.05c0-2.88-2.22-5.1-5.1-5.1a5.02 5.02 0 0 0 -5.1 5.1.75.75 0 0 0 1.5 0zm3.6 10.9c.66 0 1.1-.44 1.1-1.1 0-.65-.44-1.1-1.1-1.1-.65 0-1.1.45-1.1 1.1 0 .66.45 1.1 1.1 1.1z" fill="#14555a" fill-rule="evenodd"/></g><rect fill="#b3dada" height="16" rx="8" width="40" x="160" y="240"/><path d="m172 236.5a11.5 11.5 0 1 1 0 23 11.5 11.5 0 0 1 0-23z" fill="#fff" stroke="#007272"/><circle cx="191" cy="248" r="3.5" stroke="#007272"/><rect fill="#fff" height="31" rx="15.5" stroke="#007272" width="159" x="160.5" y="176.5"/><path d="m177.46 185.4v1.3h6.14l-5.08 11.3h1.76l5.06-11.61v-.99zm12.62 11.3 2.32-2.37c1.8-1.86 3.44-3.42 3.44-5.42 0-2.16-1.62-3.65-4-3.65-2.12 0-3.55 1.08-3.9 2.95l1.33.5c.32-1.44 1.19-2.14 2.57-2.14 1.5 0 2.45.9 2.45 2.34 0 1.37-.74 2.23-2.94 4.46l-3.52 3.6v1.03h8.02v-1.3zm12.55 1.44c2.87 0 4.4-2.26 4.4-6.44s-1.53-6.44-4.4-6.44c-2.86 0-4.39 2.26-4.39 6.44s1.53 6.44 4.4 6.44zm0-1.36c-1.87 0-2.82-1.71-2.82-5.08s.95-5.08 2.82-5.08c1.88 0 2.83 1.71 2.83 5.08s-.95 5.08-2.83 5.08zm14.95 1.36c2.86 0 4.39-2.26 4.39-6.44s-1.53-6.44-4.4-6.44c-2.86 0-4.39 2.26-4.39 6.44s1.53 6.44 4.4 6.44zm0-1.36c-1.88 0-2.83-1.71-2.83-5.08s.95-5.08 2.83-5.08c1.87 0 2.82 1.71 2.82 5.08s-.95 5.08-2.82 5.08zm10.79 1.36c2.86 0 4.4-2.26 4.4-6.44s-1.54-6.44-4.4-6.44-4.4 2.26-4.4 6.44 1.54 6.44 4.4 6.44zm0-1.36c-1.87 0-2.83-1.71-2.83-5.08s.96-5.08 2.83-5.08 2.82 1.71 2.82 5.08-.95 5.08-2.82 5.08zm10.8 1.36c2.85 0 4.38-2.26 4.38-6.44s-1.53-6.44-4.39-6.44-4.39 2.26-4.39 6.44 1.53 6.44 4.4 6.44zm0-1.36c-1.88 0-2.83-1.71-2.83-5.08s.95-5.08 2.82-5.08 2.83 1.71 2.83 5.08-.96 5.08-2.83 5.08z" fill="#14555a"/><path d="m41.79 191.32c1.08-.47 1.7-1.38 1.7-2.7 0-1.98-1.43-3.22-3.68-3.22h-4.34v12.6h4.99c2.23 0 3.81-1.44 3.81-3.5 0-1.58-1-2.8-2.48-3.18zm-2.4-4.6c1.55 0 2.45.73 2.45 2.03s-.88 2.03-2.44 2.03h-2.3v-4.07h2.3zm.53 9.91h-2.83v-4.53h2.8c1.83 0 2.73.77 2.73 2.28 0 1.44-1 2.25-2.7 2.25zm10.42-7.77a2.7 2.7 0 0 0 -2.58 1.67v-1.53h-1.38v9h1.56v-5.22c0-1.71 1.01-2.54 2.34-2.54.35 0 .6.02.81.06v-1.35c-.14-.06-.4-.1-.75-.1zm8.08.14v5.2c0 1.62-.92 2.67-2.34 2.67-1.35 0-2.1-.8-2.1-2.22v-5.65h-1.56v5.72c0 2.15 1.2 3.42 3.2 3.42 1.38 0 2.46-.6 3-1.65v1.51h1.36v-9zm7.49 7.85c-.92 0-1.39-.43-1.39-1.3v-5.25h2.3v-1.3h-2.3v-2.8h-1.56v2.8h-1.53v1.3h1.53v5.29c0 1.64.97 2.55 2.68 2.55.52 0 1.02-.07 1.31-.18v-1.26c-.25.1-.63.15-1.04.15zm6.52 0c-.92 0-1.39-.43-1.39-1.3v-5.25h2.3v-1.3h-2.3v-2.8h-1.56v2.8h-1.53v1.3h1.53v5.29c0 1.64.97 2.55 2.68 2.55.52 0 1.03-.07 1.31-.18v-1.26c-.25.1-.63.15-1.04.15zm6.8 1.3c2.55 0 4.44-1.86 4.44-4.65s-1.9-4.64-4.43-4.64c-2.54 0-4.43 1.85-4.43 4.64s1.9 4.64 4.43 4.64zm0-1.3c-1.65 0-2.85-1.33-2.85-3.35s1.2-3.35 2.86-3.35 2.86 1.33 2.86 3.35-1.2 3.35-2.86 3.35zm7.32-9.18c.58 0 1.05-.49 1.05-1.06 0-.58-.47-1.05-1.05-1.05-.57 0-1.06.47-1.06 1.05 0 .57.49 1.06 1.06 1.06zm-.79 10.33h1.57v-9h-1.57zm8.4-9.14c-1.36 0-2.44.6-2.98 1.63v-1.49h-1.38v9h1.56v-5.2c0-1.62.92-2.67 2.36-2.67 1.33 0 2.07.8 2.07 2.22v5.65h1.57v-5.72c0-2.15-1.2-3.42-3.2-3.42zm9.6 0c-1.34 0-2.42.6-2.96 1.63v-1.49h-1.4v9h1.57v-5.2c0-1.62.92-2.67 2.36-2.67 1.33 0 2.07.8 2.07 2.22v5.65h1.56v-5.72c0-2.15-1.19-3.42-3.2-3.42zm9.03 7.99c-.92 0-1.39-.43-1.39-1.3v-5.25h2.3v-1.3h-2.3v-2.8h-1.56v2.8h-1.53v1.3h1.53v5.29c0 1.64.97 2.55 2.68 2.55.52 0 1.03-.07 1.31-.18v-1.26c-.25.1-.63.15-1.04.15zm10.88-3.24c0-2.88-1.62-4.75-4.2-4.75-2.57 0-4.3 1.89-4.3 4.64 0 2.74 1.8 4.64 4.5 4.64 1.7 0 3-.68 3.7-1.92l-1.1-.76a2.78 2.78 0 0 1 -2.58 1.42c-1.53 0-2.86-.95-2.99-2.95h6.95c.02-.05.02-.25.02-.32zm-4.2-3.48c1.53 0 2.49 1 2.69 2.67h-5.42c.2-1.73 1.26-2.67 2.73-2.67zm11.65 7.87h1.92l-3.89-5.02 3.62-3.98h-1.96l-3.78 4.43v-8.03h-1.57v12.6h1.57v-2.66l1.17-1.3zm6.86-1.15c-.92 0-1.39-.43-1.39-1.3v-5.25h2.3v-1.3h-2.3v-2.8h-1.56v2.8h-1.53v1.3h1.53v5.29c0 1.64.97 2.55 2.68 2.55.52 0 1.03-.07 1.31-.18v-1.26c-.25.1-.63.15-1.04.15zm3.86-4.4c.57 0 1.04-.48 1.04-1.06 0-.57-.47-1.04-1.04-1.04-.58 0-1.07.47-1.07 1.04 0 .58.49 1.07 1.07 1.07zm0 5.66c.57 0 1.04-.49 1.04-1.06 0-.58-.47-1.05-1.04-1.05-.58 0-1.07.47-1.07 1.05 0 .57.49 1.06 1.07 1.06zm-123.82 56.03c2.59 0 4.23-1.4 4.23-3.63 0-1.75-1.1-2.92-3.33-3.51l-1.21-.33c-1.44-.37-2.07-.99-2.07-2.03 0-1.2.99-2 2.48-2 1.28 0 2.25.69 2.54 1.8l1.37-.65c-.36-1.53-1.96-2.53-3.94-2.53-2.38 0-4.07 1.44-4.07 3.47 0 1.7 1.04 2.8 3.15 3.38l1.3.36c1.5.42 2.16 1.07 2.16 2.2 0 1.28-1 2.09-2.6 2.09-1.5 0-2.62-.7-3.16-2.18l-1.32.81c.61 1.75 2.3 2.75 4.47 2.75zm11.77-.14h1.93l-3.89-5.02 3.62-3.98h-1.95l-3.78 4.43v-8.03h-1.57v12.6h1.57v-2.66l1.17-1.3 2.91 3.96zm9.83-1.6v-4.21c0-2.13-1.3-3.33-3.62-3.33-1.68 0-2.85.66-3.35 1.92l1.2.63c.35-.84 1.07-1.3 2.11-1.3 1.28 0 2.1.74 2.1 1.95v.34l-2.64.38c-2.1.32-3.17 1.26-3.17 2.8 0 1.56 1.2 2.56 3 2.56a3.4 3.4 0 0 0 2.9-1.44c0 .89.51 1.44 1.32 1.44.34 0 .61-.05.78-.14l.01-1c-.45 0-.64-.17-.64-.6zm-4.18.54c-.99 0-1.67-.56-1.67-1.39 0-.97.63-1.5 2.01-1.69l2.27-.32v.64c0 1.68-1 2.76-2.6 2.76zm10.24-.1c-.92 0-1.39-.42-1.39-1.29v-5.25h2.3v-1.3h-2.3v-2.8h-1.57v2.8h-1.52v1.3h1.53v5.29c0 1.64.98 2.55 2.69 2.55.52 0 1.02-.07 1.31-.18v-1.26c-.25.1-.63.15-1.04.15zm6.52 0c-.92 0-1.39-.42-1.39-1.29v-5.25h2.3v-1.3h-2.3v-2.8h-1.56v2.8h-1.53v1.3h1.53v5.29c0 1.64.97 2.55 2.68 2.55.52 0 1.02-.07 1.31-.18v-1.26c-.25.1-.63.15-1.04.15zm10.88-3.23c0-2.88-1.63-4.75-4.2-4.75s-4.3 1.89-4.3 4.64c0 2.74 1.8 4.64 4.5 4.64 1.7 0 3-.68 3.7-1.92l-1.1-.76a2.78 2.78 0 0 1 -2.58 1.42c-1.53 0-2.87-.95-3-2.95h6.96c.02-.05.02-.25.02-.32zm-4.2-3.48c1.53 0 2.48 1 2.68 2.67h-5.41c.2-1.73 1.26-2.67 2.73-2.67zm9.42-3.58c.34 0 .75.07.99.15v-1.26c-.27-.11-.83-.18-1.3-.18-1.65 0-2.6.95-2.6 2.6v1.14h-1.41v1.3h1.4v7.7h1.57v-7.7h2.21v-1.3h-2.21v-1.06c0-.9.48-1.39 1.35-1.39zm6.47 2.3a2.7 2.7 0 0 0 -2.57 1.68v-1.53h-1.4v9h1.57v-5.22c0-1.71 1-2.54 2.34-2.54.34 0 .6.02.8.06v-1.35c-.14-.06-.39-.1-.75-.1zm3.3-1.18c.57 0 1.04-.49 1.04-1.06 0-.58-.47-1.05-1.05-1.05-.57 0-1.06.47-1.06 1.05 0 .57.49 1.06 1.06 1.06zm-.8 10.33h1.57v-9h-1.57zm9.28-10.33c.58 0 1.05-.49 1.05-1.06 0-.58-.47-1.05-1.05-1.05-.57 0-1.06.47-1.06 1.05 0 .57.49 1.06 1.06 1.06zm-.79 10.33h1.57v-9h-1.57zm8.4-9.14c-1.36 0-2.44.6-2.98 1.63v-1.49h-1.38v9h1.56v-5.2c0-1.62.92-2.67 2.36-2.67 1.33 0 2.07.8 2.07 2.22v5.65h1.57v-5.72c0-2.15-1.2-3.42-3.2-3.42zm9.6 0c-1.34 0-2.42.6-2.96 1.63v-1.49h-1.4v9h1.57v-5.2c0-1.62.92-2.67 2.36-2.67 1.33 0 2.07.8 2.07 2.22v5.65h1.56v-5.72c0-2.15-1.19-3.42-3.2-3.42zm9.03 7.99c-.92 0-1.39-.43-1.39-1.3v-5.25h2.3v-1.3h-2.3v-2.8h-1.56v2.8h-1.53v1.3h1.53v5.29c0 1.64.97 2.55 2.68 2.55.52 0 1.03-.07 1.31-.18v-1.26c-.25.1-.63.15-1.04.15zm10.88-3.24c0-2.88-1.62-4.75-4.2-4.75-2.57 0-4.3 1.89-4.3 4.64 0 2.74 1.8 4.64 4.5 4.64 1.7 0 3-.68 3.7-1.92l-1.1-.76a2.78 2.78 0 0 1 -2.58 1.42c-1.53 0-2.86-.95-2.99-2.95h6.95c.02-.05.02-.25.02-.32zm-4.2-3.48c1.53 0 2.49 1 2.69 2.67h-5.42c.2-1.73 1.26-2.67 2.73-2.67zm11.65 7.87h1.92l-3.89-5.02 3.62-3.98h-1.96l-3.78 4.43v-8.03h-1.57v12.6h1.57v-2.66l1.17-1.3zm6.86-1.15c-.92 0-1.39-.43-1.39-1.3v-5.25h2.3v-1.3h-2.3v-2.8h-1.56v2.8h-1.53v1.3h1.53v5.29c0 1.64.97 2.55 2.68 2.55.52 0 1.03-.07 1.31-.18v-1.26c-.25.1-.63.15-1.04.15zm3.86-4.4c.57 0 1.04-.48 1.04-1.06 0-.57-.47-1.04-1.04-1.04-.58 0-1.07.47-1.07 1.04 0 .58.49 1.07 1.07 1.07zm0 5.66c.57 0 1.04-.49 1.04-1.06 0-.58-.47-1.05-1.04-1.05-.58 0-1.07.47-1.07 1.05 0 .57.49 1.06 1.07 1.06z" fill="#333"/><path d="m338.12 185.4h-1.95l-5.11 6.6v-6.6h-1.62v12.6h1.62v-3.8l1.24-1.55 3.78 5.35h2.04l-4.86-6.53zm5.24 3.46a2.7 2.7 0 0 0 -2.58 1.67v-1.53h-1.38v9h1.56v-5.22c0-1.71 1.01-2.54 2.34-2.54.35 0 .6.02.81.06v-1.35c-.14-.06-.4-.1-.75-.1zm7.44-1.2a1.04 1.04 0 0 0 0-2.1c-.58 0-1.06.47-1.06 1.05 0 .57.48 1.06 1.06 1.06zm-.8 10.34h1.57v-9h-1.56v9zm11.6-9.99c1.03 0 1.84-.81 1.84-1.85 0-1.05-.8-1.86-1.85-1.86-1.02 0-1.85.81-1.85 1.86 0 1.04.82 1.85 1.85 1.85zm0-2.92c.58 0 1.05.47 1.05 1.07 0 .59-.46 1.06-1.06 1.06s-1.06-.47-1.06-1.06c0-.6.47-1.07 1.06-1.07zm3.57 11.3v-4.2c0-2.13-1.3-3.33-3.62-3.33-1.67 0-2.84.66-3.34 1.92l1.2.63c.34-.84 1.06-1.3 2.1-1.3 1.29 0 2.1.74 2.1 1.95v.34l-2.63.38c-2.1.32-3.17 1.26-3.17 2.8 0 1.56 1.19 2.56 2.99 2.56a3.4 3.4 0 0 0 2.9-1.44c0 .89.52 1.44 1.33 1.44.34 0 .61-.05.77-.14l.02-1c-.45 0-.65-.17-.65-.6zm-4.17.55c-1 0-1.68-.56-1.68-1.39 0-.97.63-1.5 2.02-1.69l2.27-.32v.64c0 1.68-1.01 2.76-2.61 2.76zm10.43-8.08a2.7 2.7 0 0 0 -2.57 1.67v-1.53h-1.39v9h1.57v-5.22c0-1.71 1-2.54 2.34-2.54.34 0 .6.02.8.06v-1.35c-.14-.06-.39-.1-.75-.1zm10.13 4.75c0-2.88-1.62-4.75-4.19-4.75s-4.3 1.89-4.3 4.64c0 2.74 1.8 4.64 4.5 4.64 1.7 0 3-.68 3.7-1.92l-1.1-.76a2.78 2.78 0 0 1 -2.58 1.42c-1.53 0-2.86-.95-3-2.95h6.96zm-4.19-3.48c1.53 0 2.49 1 2.68 2.67h-5.42c.2-1.73 1.26-2.67 2.74-2.67zm9.49 6.72c-.92 0-1.39-.43-1.39-1.3v-5.25h2.3v-1.3h-2.3v-2.8h-1.56v2.8h-1.53v1.3h1.53v5.29c0 1.64.97 2.55 2.68 2.55.52 0 1.03-.07 1.31-.18v-1.26c-.25.1-.63.15-1.04.15z" fill="#000"/><path d="m421 176.5a15.5 15.5 0 1 1 0 31 15.5 15.5 0 0 1 0-31z" fill="#fff" stroke="#007272"/><g clip-path="url(#c)"><path clip-rule="evenodd" d="m417.35 189.1c0-2.05 1.55-3.6 3.6-3.6 2.06 0 3.6 1.55 3.6 3.6s-1.54 3.6-3.6 3.6a.75.75 0 0 0 -.75.75v2.67a.75.75 0 1 0 1.5 0v-1.97a5.01 5.01 0 0 0 4.36-5.05c0-2.88-2.23-5.1-5.1-5.1a5.02 5.02 0 0 0 -5.1 5.1.75.75 0 0 0 1.5 0zm3.6 10.9c.66 0 1.1-.44 1.1-1.1 0-.65-.44-1.1-1.1-1.1-.65 0-1.1.45-1.1 1.1 0 .66.45 1.1 1.1 1.1z" fill="#14555a" fill-rule="evenodd"/></g><path d="m232 232.5a15.5 15.5 0 1 1 0 31 15.5 15.5 0 0 1 0-31z" fill="#fff" stroke="#007272"/><g clip-path="url(#d)"><path clip-rule="evenodd" d="m228.35 245.1c0-2.05 1.55-3.6 3.6-3.6 2.06 0 3.6 1.55 3.6 3.6s-1.54 3.6-3.6 3.6a.75.75 0 0 0 -.74.75v2.67a.75.75 0 1 0 1.5 0v-1.97a5.01 5.01 0 0 0 4.35-5.05c0-2.88-2.22-5.1-5.1-5.1a5.02 5.02 0 0 0 -5.1 5.1.75.75 0 0 0 1.5 0zm3.6 10.9c.66 0 1.1-.44 1.1-1.1 0-.65-.44-1.1-1.1-1.1-.65 0-1.1.45-1.1 1.1 0 .66.45 1.1 1.1 1.1z" fill="#14555a" fill-rule="evenodd"/></g></svg>