<svg width="114" height="192" viewBox="0 0 114 192" fill="none" xmlns="http://www.w3.org/2000/svg"><path fill="#F6BFFF" d="M8 24h8v8H8zM8 12h8v4H8zM8 40h8v16H8zM8 64h8v24H8zM8 96h8v32H8zM8 136h8v48H8z"/><path d="M25.5 47.6H25c-.44.7-1.4 1.28-2.25 1.36v.58c.73-.06 1.48-.4 2.04-.87V56h.7v-8.4zm5 8.48a2.64 2.64 0 002.72-2.73c0-1.59-1.14-2.71-2.56-2.71-1.36 0-2.12.82-2.38 1.48 0-2.42.88-4 2.41-4 .9 0 1.53.45 1.73 1.34l.64-.24c-.22-1.06-1.07-1.7-2.37-1.7-1.99 0-3.1 1.83-3.1 4.75 0 2.42 1.06 3.81 2.91 3.81zm-.01-.6c-1.21 0-2.05-.86-2.05-2.12 0-1.25.84-2.12 2.05-2.12s2.05.87 2.05 2.12c0 1.26-.84 2.12-2.05 2.12zm7.2-5.56c-1.07 0-1.93.55-2.36 1.52V50h-.61v8.28h.7v-3.55a2.45 2.45 0 002.26 1.35c1.62 0 2.81-1.22 2.81-3.08s-1.19-3.08-2.8-3.08zm-.04 5.56c-1.29 0-2.23-1.06-2.23-2.48s.94-2.48 2.23-2.48c1.3 0 2.15 1.03 2.15 2.48s-.88 2.48-2.15 2.48zm8.39.52l-2.32-3.01 2.2-2.99h-.84l-1.73 2.47L41.62 50h-.86l2.2 2.99L40.63 56h.82l1.86-2.48L45.18 56h.86zM58.92 47.6h-1.96V56h1.96c2.61 0 4.08-1.51 4.08-4.2 0-2.69-1.47-4.2-4.08-4.2zm-.03 7.8h-1.21v-7.2h1.21c2.2 0 3.37 1.28 3.37 3.6 0 2.32-1.17 3.6-3.37 3.6zm10.86-2.35c0-1.89-1.08-3.13-2.75-3.13-1.7 0-2.84 1.24-2.84 3.08 0 1.85 1.2 3.08 3 3.08.96 0 1.9-.42 2.37-1.3l-.54-.36a2 2 0 01-1.83 1.06c-1.25 0-2.25-.76-2.3-2.31h4.89v-.12zM67 50.52c1.15 0 1.9.76 2.03 2.05h-4.15c.14-1.33 1-2.05 2.12-2.05zm6-2.4c.22 0 .53.04.67.1v-.58c-.16-.08-.49-.12-.78-.12-.96 0-1.56.6-1.56 1.56V50h-.98v.6h.98V56h.7v-5.4h1.54V50h-1.54v-.92c0-.62.35-.96.96-.96zm5.8 7.06v-3.1c0-1.37-.82-2.16-2.27-2.16-1.05 0-1.79.43-2.1 1.22l.55.29c.25-.61.76-.91 1.55-.91.97 0 1.57.56 1.57 1.48v.3l-1.92.27c-1.33.19-2.05.84-2.05 1.85 0 1 .78 1.66 1.97 1.66a2.4 2.4 0 002.04-1.05v.29c0 .45.28.76.7.76.18 0 .3-.02.39-.08v-.43c-.3 0-.43-.11-.43-.39zm-2.68.3c-.8 0-1.3-.42-1.3-1.06 0-.75.46-1.14 1.5-1.29l1.78-.25v.65c0 1.19-.77 1.95-1.98 1.95zM84.44 50v3.5c0 1.18-.73 2-1.83 2-1.08 0-1.65-.63-1.65-1.77V50h-.7v3.72c0 1.52.8 2.36 2.22 2.36.94 0 1.67-.43 2.05-1.2V56h.6v-6h-.7zm3.17 6.08c.2 0 .31-.02.36-.04v-.58a.75.75 0 01-.21.02c-.2 0-.4-.12-.4-.46V47.6h-.7v7.43c0 .68.38 1.05.95 1.05zm3.7-.6c-.6 0-.9-.3-.9-.87V50.6h1.53V50h-1.53v-1.87h-.7V50h-1.06v.6h1.06v4.02c0 .92.56 1.46 1.51 1.46.29 0 .64-.04.8-.12v-.57c-.16.06-.43.1-.7.1zM64.65 88l-.33-8.4h-.63l-2.9 6.78-2.92-6.78h-.63L56.9 88h.7l.21-6.8 2.69 6.21h.53l2.66-6.17.23 6.76h.73zm6.96-2.95c0-1.89-1.08-3.13-2.75-3.13-1.7 0-2.84 1.24-2.84 3.08 0 1.85 1.2 3.08 3 3.08.96 0 1.9-.42 2.37-1.3l-.54-.36a2 2 0 01-1.83 1.06c-1.25 0-2.25-.76-2.3-2.31h4.9v-.12zm-2.75-2.53c1.15 0 1.9.76 2.03 2.05h-4.15c.14-1.33 1-2.05 2.12-2.05zm8.77-2.92v3.67a2.45 2.45 0 00-2.26-1.35c-1.62 0-2.81 1.22-2.81 3.08s1.19 3.08 2.8 3.08c1.07 0 1.93-.55 2.36-1.52V88h.61v-8.4h-.7zm-2.23 7.88c-1.3 0-2.15-1.03-2.15-2.48s.88-2.48 2.15-2.48c1.29 0 2.23 1.06 2.23 2.48s-.94 2.48-2.23 2.48zm5-6.66a.5.5 0 00.5-.5.5.5 0 00-.5-.5.5.5 0 00-.5.5c0 .28.22.5.5.5zM80.04 88h.7v-6h-.7v6zm6.5-6v3.5c0 1.18-.72 2-1.82 2-1.08 0-1.65-.63-1.65-1.77V82h-.7v3.72c0 1.52.8 2.36 2.22 2.36.94 0 1.67-.43 2.05-1.2V88h.6v-6h-.7zm8.34-.08c-.92 0-1.65.44-1.97 1.2-.25-.77-.86-1.2-1.78-1.2-.88 0-1.54.45-1.85 1.17V82h-.6v6h.7v-3.56c0-1.12.63-1.94 1.6-1.94.95 0 1.45.56 1.45 1.61V88h.7v-3.73c0-1.07.64-1.77 1.6-1.77.96 0 1.46.56 1.46 1.61V88h.7v-3.92c0-1.36-.75-2.16-2-2.16zM57.68 127.4v-7.8h-.72v8.4h4.52v-.6h-3.8zm9.19-.22v-3.1c0-1.37-.82-2.16-2.27-2.16-1.05 0-1.79.43-2.1 1.22l.55.29c.25-.61.76-.91 1.55-.91.97 0 1.57.56 1.57 1.48v.3l-1.92.27c-1.33.19-2.05.84-2.05 1.85 0 1 .78 1.66 1.97 1.66a2.4 2.4 0 002.04-1.05v.29c0 .45.28.76.7.76.18 0 .3-.02.39-.08v-.43c-.3 0-.43-.11-.43-.39zm-2.68.3c-.8 0-1.3-.42-1.3-1.06 0-.75.46-1.14 1.5-1.29l1.78-.25v.65c0 1.19-.77 1.95-1.98 1.95zm6.52-5.56c-.77 0-1.43.4-1.7 1.18V122h-.6v6h.69v-3.58c0-1.28.74-1.88 1.57-1.88.2 0 .35.01.47.04v-.62a1.57 1.57 0 00-.43-.04zm6.14.08v1.4a2.42 2.42 0 00-2.33-1.48c-1.64 0-2.78 1.2-2.78 2.96 0 1.75 1.14 2.96 2.78 2.96 1.01 0 1.8-.48 2.23-1.28v1.03c0 1.33-.87 2.17-2.25 2.17a3.2 3.2 0 01-2.09-.73l-.31.54c.61.5 1.47.8 2.4.8 1.81 0 2.95-1.1 2.95-2.84V122h-.6zm-2.3 5.24c-1.24 0-2.12-.97-2.12-2.36 0-1.4.87-2.36 2.12-2.36 1.26 0 2.2 1 2.2 2.36 0 1.36-.94 2.36-2.2 2.36zm9.65-2.2c0-1.88-1.08-3.12-2.75-3.12-1.7 0-2.85 1.24-2.85 3.08 0 1.85 1.2 3.08 3 3.08.96 0 1.9-.42 2.38-1.3l-.54-.36a2 2 0 01-1.84 1.06c-1.24 0-2.24-.76-2.3-2.31h4.9v-.12zm-2.75-2.52c1.15 0 1.9.76 2.03 2.05h-4.16c.15-1.33 1.01-2.05 2.13-2.05zM62.86 175.6h-.82l-2.46 3.67-2.38-3.67h-.86l2.82 4.21-2.92 4.19h.83l2.47-3.66 2.48 3.66h.84l-2.89-4.2 2.9-4.2zm.13 5.1h3v-.6h-3v.6zm5.27 2.7v-7.8h-.72v8.4h4.53v-.6h-3.8zm9.19-.22v-3.1c0-1.37-.82-2.16-2.27-2.16-1.04 0-1.79.43-2.1 1.22l.55.29c.25-.61.76-.91 1.55-.91.97 0 1.57.56 1.57 1.48v.3l-1.92.27c-1.33.19-2.05.84-2.05 1.85 0 1 .78 1.66 1.97 1.66a2.4 2.4 0 002.04-1.05v.29c0 .45.29.76.7.76.19 0 .3-.02.4-.08v-.43c-.3 0-.44-.11-.44-.39zm-2.68.3c-.79 0-1.3-.42-1.3-1.06 0-.75.46-1.14 1.5-1.29l1.78-.25v.65c0 1.19-.77 1.95-1.98 1.95zm6.52-5.56c-.77 0-1.43.4-1.7 1.18V178h-.6v6h.7v-3.58c0-1.28.74-1.88 1.56-1.88.2 0 .35.01.47.04v-.62a1.57 1.57 0 00-.43-.04zm6.14.08v1.4a2.42 2.42 0 00-2.33-1.48c-1.64 0-2.78 1.2-2.78 2.96 0 1.75 1.14 2.96 2.78 2.96 1.01 0 1.8-.48 2.24-1.28v1.03c0 1.33-.88 2.17-2.26 2.17a3.2 3.2 0 01-2.09-.73l-.31.54c.61.5 1.48.8 2.4.8 1.81 0 2.95-1.1 2.95-2.84V178h-.6zm-2.3 5.24c-1.24 0-2.11-.97-2.11-2.36 0-1.4.86-2.36 2.1-2.36 1.27 0 2.22 1 2.22 2.36 0 1.36-.95 2.36-2.21 2.36zm9.65-2.2c0-1.88-1.08-3.12-2.75-3.12-1.7 0-2.84 1.24-2.84 3.08 0 1.85 1.2 3.08 3 3.08.96 0 1.9-.42 2.37-1.3l-.54-.36a2 2 0 01-1.83 1.06c-1.25 0-2.25-.76-2.3-2.31h4.89v-.12zm-2.75-2.52c1.15 0 1.9.76 2.03 2.05H89.9c.14-1.33 1-2.05 2.12-2.05zM59.32 32.08c1.66 0 2.7-.9 2.7-2.35 0-1.14-.7-1.87-2.12-2.25l-.8-.22c-1.1-.29-1.58-.76-1.58-1.56 0-.94.76-1.55 1.89-1.55.93 0 1.62.5 1.85 1.36l.6-.28c-.23-1.03-1.24-1.71-2.46-1.71-1.52 0-2.6.9-2.6 2.22 0 1.06.68 1.78 2.03 2.16l.89.24c1.1.3 1.58.8 1.58 1.68 0 1-.74 1.63-1.95 1.63-1.07 0-1.9-.5-2.27-1.57l-.6.36c.4 1.17 1.49 1.84 2.84 1.84zm10.17-6.16c-.93 0-1.66.44-1.97 1.2-.25-.77-.87-1.2-1.79-1.2-.88 0-1.54.45-1.85 1.17V26h-.6v6h.7v-3.56c0-1.12.63-1.94 1.6-1.94.95 0 1.46.56 1.46 1.61V32h.7v-3.73c0-1.07.63-1.77 1.6-1.77.95 0 1.45.56 1.45 1.61V32h.7v-3.92c0-1.36-.74-2.16-2-2.16zm7.8 5.26v-3.1c0-1.37-.82-2.16-2.27-2.16-1.05 0-1.8.43-2.1 1.22l.55.29c.25-.61.75-.91 1.55-.91.97 0 1.57.56 1.57 1.48v.3l-1.92.27c-1.33.19-2.05.84-2.05 1.85 0 1 .78 1.66 1.96 1.66a2.4 2.4 0 002.04-1.05v.29c0 .45.3.76.7.76.2 0 .31-.02.4-.08v-.43c-.3 0-.44-.11-.44-.39zm-2.68.3c-.8 0-1.3-.42-1.3-1.06 0-.75.46-1.14 1.5-1.29l1.78-.25v.65c0 1.19-.77 1.95-1.98 1.95zm5.26.6c.19 0 .3-.02.36-.04v-.58a.75.75 0 01-.22.02c-.2 0-.4-.12-.4-.46V23.6h-.7v7.43c0 .68.38 1.05.96 1.05zm2.56 0c.2 0 .31-.02.36-.04v-.58a.75.75 0 01-.21.02c-.2 0-.4-.12-.4-.46V23.6h-.7v7.43c0 .68.38 1.05.95 1.05zM61.6 7.6h-5.3v.6h2.24V16h.72V8.2h2.34v-.6zm1.42 1.22a.5.5 0 00.5-.5.5.5 0 00-.5-.5.5.5 0 00-.5.5c0 .28.22.5.5.5zM62.67 16h.7v-6h-.7v6zm5.06-6.08c-.94 0-1.67.43-2.05 1.2V10h-.6v6h.7v-3.5c0-1.18.72-2 1.82-2 1.08 0 1.65.63 1.65 1.77V16h.7v-3.72c0-1.52-.8-2.36-2.22-2.36zm7.48.08l-1.95 5.24L71.28 10h-.75l2.4 6.02-.28.68c-.32.75-.69 1.06-1.26 1.06-.24 0-.58-.03-.74-.08v.6c.3.05.57.08.74.08.9 0 1.41-.43 1.86-1.54l2.7-6.82h-.74zM23.96 87.41L26 85.34c1.27-1.3 2.2-2.2 2.2-3.46 0-1.4-1.06-2.36-2.61-2.36-1.4 0-2.3.68-2.54 1.95l.6.24c.22-1.08.86-1.6 1.94-1.6 1.16 0 1.9.69 1.9 1.77 0 .89-.33 1.42-1.94 3.02l-2.6 2.62V88h5.28v-.59h-4.28zm11.67-2.06h-1.31V79.6h-.89l-3.47 5.88v.44h3.66V88h.7v-2.08h1.3v-.57zm-4.9 0l2.9-4.92v4.92h-2.9zm9.34-3.43c-1.06 0-1.92.55-2.35 1.52V82h-.6v8.28h.69v-3.55a2.45 2.45 0 002.26 1.35c1.62 0 2.81-1.22 2.81-3.08s-1.19-3.08-2.8-3.08zm-.03 5.56c-1.29 0-2.23-1.06-2.23-2.48s.94-2.48 2.23-2.48c1.3 0 2.15 1.03 2.15 2.48s-.88 2.48-2.15 2.48zm8.39.52l-2.32-3.01 2.2-2.99h-.84l-1.73 2.47L44 82h-.86l2.2 2.99L43.02 88h.82l1.86-2.48L47.57 88h.86zM26.7 123.5c.8-.31 1.28-.97 1.28-1.87 0-1.24-.96-2.11-2.44-2.11-1.34 0-2.2.7-2.41 1.93l.59.17c.19-1.04.78-1.5 1.82-1.5 1.1 0 1.75.58 1.75 1.5 0 1.02-.62 1.62-1.69 1.62h-.76v.57h.76c1.33 0 2.11.66 2.11 1.85 0 1.07-.79 1.82-2.11 1.82-1.18 0-1.94-.58-2.18-1.6l-.62.25c.3 1.23 1.31 1.95 2.8 1.95 1.74 0 2.8-1 2.8-2.42 0-1.13-.62-1.88-1.7-2.16zm4.45 3.91l2.05-2.07c1.28-1.3 2.2-2.2 2.2-3.46 0-1.4-1.06-2.36-2.6-2.36-1.4 0-2.3.68-2.55 1.95l.6.24c.23-1.08.87-1.6 1.95-1.6 1.16 0 1.9.69 1.9 1.77 0 .89-.33 1.42-1.94 3.02l-2.6 2.62v.48h5.28v-.59h-4.29zm8.92-5.5c-1.06 0-1.92.56-2.35 1.53V122h-.6v8.28h.69v-3.55a2.45 2.45 0 002.26 1.35c1.62 0 2.81-1.22 2.81-3.08s-1.19-3.08-2.8-3.08zm-.03 5.57c-1.29 0-2.23-1.06-2.23-2.48s.94-2.48 2.23-2.48c1.3 0 2.15 1.03 2.15 2.48s-.88 2.48-2.15 2.48zm8.39.52l-2.32-3.01 2.2-2.99h-.84l-1.73 2.47L44 122h-.86l2.2 2.99-2.32 3.01h.82l1.86-2.48 1.86 2.48h.86zM28.43 181.35h-1.3v-5.75h-.9l-3.46 5.88v.44h3.66V184h.7v-2.08h1.3v-.57zm-4.9 0l2.9-4.92v4.92h-2.9zm10.38-1.85c.78-.32 1.26-1 1.26-1.85 0-1.2-.95-2.13-2.37-2.13-1.43 0-2.38.93-2.38 2.13 0 .85.48 1.53 1.26 1.85-1.04.31-1.7 1.1-1.7 2.17 0 1.42 1.14 2.41 2.82 2.41s2.8-1 2.8-2.4c0-1.08-.64-1.87-1.69-2.18zm-2.8-1.84c0-.9.64-1.56 1.69-1.56 1.04 0 1.69.66 1.69 1.56s-.65 1.58-1.7 1.58c-1.04 0-1.69-.68-1.69-1.58zm1.69 5.84c-1.26 0-2.12-.78-2.12-1.84 0-1.07.86-1.85 2.12-1.85 1.26 0 2.1.78 2.1 1.85 0 1.06-.84 1.84-2.1 1.84zm7.27-5.58c-1.06 0-1.92.55-2.35 1.52V178h-.6v8.28h.69v-3.55a2.45 2.45 0 002.26 1.35c1.62 0 2.81-1.22 2.81-3.08s-1.19-3.08-2.8-3.08zm-.03 5.56c-1.29 0-2.23-1.06-2.23-2.48s.94-2.48 2.23-2.48c1.3 0 2.15 1.03 2.15 2.48s-.88 2.48-2.15 2.48zm8.39.52l-2.32-3.01 2.2-2.99h-.84l-1.73 2.47L44 178h-.86l2.2 2.99-2.32 3.01h.82l1.86-2.48 1.86 2.48h.86zM26.72 27.5c.78-.32 1.26-1 1.26-1.85 0-1.2-.95-2.13-2.38-2.13s-2.38.93-2.38 2.13c0 .85.48 1.53 1.26 1.85-1.04.31-1.69 1.1-1.69 2.17 0 1.42 1.13 2.41 2.81 2.41 1.68 0 2.8-1 2.8-2.4 0-1.08-.64-1.87-1.68-2.18zm-2.81-1.84c0-.9.65-1.56 1.69-1.56s1.7.66 1.7 1.56-.66 1.58-1.7 1.58-1.7-.68-1.7-1.58zm1.69 5.84c-1.26 0-2.11-.78-2.11-1.84 0-1.07.85-1.85 2.11-1.85 1.26 0 2.11.78 2.11 1.85 0 1.06-.85 1.84-2.11 1.84zm7.28-5.58c-1.07 0-1.92.55-2.35 1.52V26h-.61v8.28h.7v-3.55a2.45 2.45 0 002.26 1.35c1.62 0 2.8-1.22 2.8-3.08s-1.18-3.08-2.8-3.08zm-.04 5.56c-1.28 0-2.23-1.06-2.23-2.48s.95-2.48 2.23-2.48c1.3 0 2.15 1.03 2.15 2.48s-.87 2.48-2.15 2.48zm8.4.52l-2.33-3.01 2.2-2.99h-.84l-1.73 2.47L36.81 26h-.86l2.2 2.99L35.83 32h.83l1.86-2.48L40.38 32h.85zM28.43 13.35h-1.3V7.6h-.9l-3.46 5.88v.44h3.66V16h.7v-2.08h1.3v-.57zm-4.9 0l2.9-4.92v4.92h-2.9zm9.35-3.43c-1.07 0-1.92.55-2.35 1.52V10h-.61v8.28h.7v-3.55a2.45 2.45 0 002.26 1.35c1.62 0 2.8-1.22 2.8-3.08s-1.18-3.08-2.8-3.08zm-.04 5.56c-1.28 0-2.23-1.06-2.23-2.48s.95-2.48 2.23-2.48c1.3 0 2.15 1.03 2.15 2.48s-.87 2.48-2.15 2.48zm8.4.52l-2.33-3.01 2.2-2.99h-.84l-1.73 2.47L36.81 10h-.86l2.2 2.99L35.83 16h.83l1.86-2.48L40.38 16h.85z" fill="#000"/></svg>
