<svg fill="none" height="248" viewBox="0 0 460 248" width="460" xmlns="http://www.w3.org/2000/svg"><rect fill="#007272" height="40" rx="20" width="138" x="36" y="128"/><path d="m67.76 147.32c1.08-.47 1.69-1.38 1.69-2.7 0-1.98-1.42-3.22-3.67-3.22h-4.34v12.6h4.99c2.23 0 3.81-1.44 3.81-3.5 0-1.58-1-2.8-2.48-3.18zm-2.4-4.6c1.55 0 2.45.73 2.45 2.03s-.88 2.03-2.45 2.03h-2.3v-4.07h2.3zm.53 9.91h-2.83v-4.53h2.79c1.84 0 2.74.77 2.74 2.28 0 1.44-1 2.25-2.7 2.25zm12.34-7.63v5.2c0 1.62-.91 2.67-2.34 2.67-1.35 0-2.08-.8-2.08-2.22v-5.65h-1.57v5.72c0 2.15 1.19 3.42 3.2 3.42 1.37 0 2.45-.6 3-1.65v1.51h1.36v-9zm7.5 7.85c-.92 0-1.4-.43-1.4-1.3v-5.25h2.31v-1.3h-2.3v-2.8h-1.57v2.8h-1.53v1.3h1.53v5.29c0 1.64.97 2.55 2.68 2.55.53 0 1.03-.07 1.32-.18v-1.26c-.25.1-.63.15-1.05.15zm6.52 0c-.92 0-1.39-.43-1.39-1.3v-5.25h2.3v-1.3h-2.3v-2.8h-1.57v2.8h-1.53v1.3h1.53v5.29c0 1.64.98 2.55 2.69 2.55.52 0 1.02-.07 1.31-.18v-1.26c-.25.1-.63.15-1.04.15zm6.8 1.3c2.54 0 4.43-1.86 4.43-4.65s-1.89-4.64-4.42-4.64c-2.54 0-4.43 1.85-4.43 4.64s1.89 4.64 4.43 4.64zm0-1.3c-1.65 0-2.86-1.33-2.86-3.35s1.21-3.35 2.87-3.35c1.65 0 2.86 1.33 2.86 3.35s-1.2 3.35-2.86 3.35zm10.58-8c-1.35 0-2.43.62-2.97 1.64v-1.49h-1.39v9h1.57v-5.2c0-1.62.91-2.67 2.35-2.67 1.34 0 2.08.8 2.08 2.22v5.65h1.56v-5.72c0-2.15-1.19-3.42-3.2-3.42zm13.17 8c-.92 0-1.39-.43-1.39-1.3v-5.25h2.3v-1.3h-2.3v-2.8h-1.56v2.8h-1.53v1.3h1.53v5.29c0 1.64.97 2.55 2.68 2.55.52 0 1.02-.07 1.31-.18v-1.26c-.25.1-.63.15-1.04.15zm10.88-3.24c0-2.88-1.63-4.75-4.2-4.75s-4.3 1.89-4.3 4.64c0 2.74 1.8 4.64 4.5 4.64 1.7 0 3-.68 3.7-1.92l-1.1-.76a2.78 2.78 0 0 1 -2.58 1.42c-1.53 0-2.86-.95-3-2.95h6.96c.02-.05.02-.25.02-.32zm-4.2-3.48c1.53 0 2.49 1 2.68 2.67h-5.41c.2-1.73 1.25-2.67 2.73-2.67zm13.05 7.87-3.44-4.5 3.25-4.5h-1.83l-2.27 3.38-2.27-3.38h-1.89l3.26 4.48-3.44 4.52h1.86l2.43-3.37 2.44 3.37zm5.02-1.15c-.92 0-1.39-.43-1.39-1.3v-5.25h2.3v-1.3h-2.3v-2.8h-1.56v2.8h-1.53v1.3h1.53v5.29c0 1.64.97 2.55 2.68 2.55.52 0 1.02-.07 1.31-.18v-1.26c-.25.1-.63.15-1.04.15z" fill="#fff"/><rect fill="#007272" height="40" rx="20" width="138" x="36" y="72"/><path d="m67.76 91.32c1.08-.47 1.69-1.38 1.69-2.7 0-1.98-1.42-3.22-3.67-3.22h-4.34v12.6h4.99c2.23 0 3.81-1.44 3.81-3.5 0-1.58-1-2.8-2.48-3.18zm-2.4-4.6c1.55 0 2.45.73 2.45 2.03s-.88 2.03-2.45 2.03h-2.3v-4.07h2.3zm.53 9.91h-2.83v-4.53h2.79c1.84 0 2.74.77 2.74 2.28 0 1.44-1 2.25-2.7 2.25zm12.34-7.63v5.2c0 1.62-.91 2.67-2.34 2.67-1.35 0-2.08-.8-2.08-2.22v-5.65h-1.57v5.72c0 2.15 1.19 3.42 3.2 3.42 1.37 0 2.45-.6 3-1.65v1.51h1.36v-9zm7.5 7.85c-.92 0-1.4-.43-1.4-1.3v-5.25h2.31v-1.3h-2.3v-2.8h-1.57v2.8h-1.53v1.3h1.53v5.29c0 1.64.97 2.55 2.68 2.55.53 0 1.03-.07 1.32-.18v-1.26c-.25.1-.63.15-1.05.15zm6.52 0c-.92 0-1.39-.43-1.39-1.3v-5.25h2.3v-1.3h-2.3v-2.8h-1.57v2.8h-1.53v1.3h1.53v5.29c0 1.64.98 2.55 2.69 2.55.52 0 1.02-.07 1.31-.18v-1.26c-.25.1-.63.15-1.04.15zm6.8 1.3c2.54 0 4.43-1.86 4.43-4.65s-1.89-4.64-4.42-4.64c-2.54 0-4.43 1.85-4.43 4.64s1.89 4.64 4.43 4.64zm0-1.3c-1.65 0-2.86-1.33-2.86-3.35s1.21-3.35 2.87-3.35c1.65 0 2.86 1.33 2.86 3.35s-1.2 3.35-2.86 3.35zm10.58-8c-1.35 0-2.43.62-2.97 1.64v-1.49h-1.39v9h1.57v-5.2c0-1.62.91-2.67 2.35-2.67 1.34 0 2.08.8 2.08 2.22v5.65h1.56v-5.72c0-2.15-1.19-3.42-3.2-3.42zm13.17 8c-.92 0-1.39-.43-1.39-1.3v-5.25h2.3v-1.3h-2.3v-2.8h-1.56v2.8h-1.53v1.3h1.53v5.29c0 1.64.97 2.55 2.68 2.55.52 0 1.02-.07 1.31-.18v-1.26c-.25.1-.63.15-1.04.15zm10.88-3.24c0-2.88-1.63-4.75-4.2-4.75s-4.3 1.89-4.3 4.64c0 2.74 1.8 4.64 4.5 4.64 1.7 0 3-.68 3.7-1.92l-1.1-.76a2.78 2.78 0 0 1 -2.58 1.42c-1.53 0-2.86-.95-3-2.95h6.96c.02-.05.02-.25.02-.32zm-4.2-3.48c1.53 0 2.49 1 2.68 2.67h-5.41c.2-1.73 1.25-2.67 2.73-2.67zm13.05 7.87-3.44-4.5 3.25-4.5h-1.83l-2.27 3.38-2.27-3.38h-1.89l3.26 4.48-3.44 4.52h1.86l2.43-3.37 2.44 3.37zm5.02-1.15c-.92 0-1.39-.43-1.39-1.3v-5.25h2.3v-1.3h-2.3v-2.8h-1.56v2.8h-1.53v1.3h1.53v5.29c0 1.64.97 2.55 2.68 2.55.52 0 1.02-.07 1.31-.18v-1.26c-.25.1-.63.15-1.04.15z" fill="#fff"/><path d="m60 128h90v88h-90z" fill="#00d9ff" fill-opacity=".25"/><path d="m149.35 194.35a.5.5 0 0 0 0-.7l-3.18-3.19a.5.5 0 0 0 -.7.71l2.82 2.83-2.82 2.83a.5.5 0 1 0 .7.7zm-21.56.15h21.21v-1h-21.21zm-67.14-.85a.5.5 0 0 0 0 .7l3.18 3.19a.5.5 0 0 0 .7-.71l-2.81-2.83 2.83-2.83a.5.5 0 0 0 -.71-.7l-3.18 3.18zm18.56-.15h-18.21v1h18.21z" fill="#000"/><path d="m83.26 194h7.9l7.9-8 7.9 16 7.9-8h8.88" stroke="#333" stroke-linecap="round" stroke-linejoin="round"/><path d="m36 128h24v88h-24zm114 0h24v88h-24z" fill="#db00ff" fill-opacity=".25"/><path d="m156.4 240 2.34-3.34-2.06-2.98h1.2l1.47 2.35 1.47-2.35h1.18l-2.05 2.94 2.32 3.38h-1.22l-1.74-2.71-1.74 2.71h-1.15zm9.76-8.4c.5 0 .95.1 1.33.29.39.18.68.43.89.75.2.32.31.66.31 1.04 0 .48-.15.9-.47 1.26a2 2 0 0 1 -1.14.66c.52.04.96.23 1.32.58.37.36.56.84.56 1.44a2.37 2.37 0 0 1 -1.38 2.19 3.75 3.75 0 0 1 -2.9.05 2.8 2.8 0 0 1 -1.12-.82l.67-.55a2.29 2.29 0 0 0 1.83.81 1.9 1.9 0 0 0 1.35-.44c.33-.3.49-.72.49-1.24 0-1.04-.57-1.57-1.72-1.57h-.68l.12-.8h.5c.42 0 .8-.12 1.1-.36.3-.25.45-.61.45-1.08 0-.44-.15-.78-.44-1.02a1.65 1.65 0 0 0 -1.12-.37c-.34 0-.65.06-.92.18s-.54.3-.83.57l-.55-.61a3.3 3.3 0 0 1 2.35-.96zm-124.76 8.4 2.34-3.34-2.06-2.98h1.2l1.47 2.35 1.47-2.35h1.18l-2.05 2.94 2.32 3.38h-1.22l-1.74-2.71-1.74 2.71h-1.15zm9.76-8.4c.5 0 .95.1 1.33.29.39.18.68.43.89.75.2.32.31.66.31 1.04 0 .48-.15.9-.47 1.26a2 2 0 0 1 -1.14.66c.52.04.96.23 1.32.58.37.36.56.84.56 1.44a2.37 2.37 0 0 1 -1.38 2.19 3.75 3.75 0 0 1 -2.9.05 2.8 2.8 0 0 1 -1.12-.82l.67-.55a2.29 2.29 0 0 0 1.83.81 1.9 1.9 0 0 0 1.35-.44c.33-.3.49-.72.49-1.24 0-1.04-.57-1.57-1.72-1.57h-.68l.12-.8h.5c.42 0 .8-.12 1.1-.36.3-.25.45-.61.45-1.08 0-.44-.15-.78-.44-1.02a1.65 1.65 0 0 0 -1.12-.37c-.34 0-.65.06-.92.18s-.54.3-.83.57l-.55-.61a3.3 3.3 0 0 1 2.35-.96z" fill="#000"/><path d="m36 72h138v12h-138zm0 28h138v12h-138z" fill="#db00ff" fill-opacity=".25"/><path d="m36 84h138v16h-138z" fill="#00d9ff" fill-opacity=".25"/><path d="m189.67 83 2.33-3.34-2.05-2.98h1.2l1.46 2.35 1.48-2.35h1.16l-2.05 2.94 2.33 3.38h-1.23l-1.74-2.71-1.74 2.71zm12.73-.82v.82h-4.77v-.82h2.03v-6.34l-1.88 1.14-.44-.71 2.45-1.54h.9v7.45h1.7zm3.52-.1c0-.3.1-.55.3-.75.21-.2.46-.31.76-.31s.56.1.76.31c.2.2.3.45.3.75a1.02 1.02 0 0 1 -1.06 1.05c-.3 0-.55-.1-.76-.3-.2-.2-.3-.46-.3-.75zm10.37-6.53h-3.27v2.6a3.11 3.11 0 0 1 1.42-.36c.69 0 1.23.23 1.64.69.42.45.63 1.09.63 1.9a2.9 2.9 0 0 1 -.35 1.44c-.23.42-.55.74-.97.98-.43.22-.92.33-1.48.33-.92 0-1.72-.33-2.4-.98l.62-.61c.5.5 1.1.76 1.78.76.55 0 .98-.16 1.28-.5s.46-.82.46-1.45-.14-1.07-.4-1.35a1.45 1.45 0 0 0 -1.1-.42c-.22 0-.41.02-.59.06-.17.04-.4.12-.7.22h-.81v-4.13h4.38zm-26.62 36.45 2.33-3.34-2.05-2.98h1.2l1.46 2.35 1.48-2.35h1.16l-2.05 2.94 2.33 3.38h-1.23l-1.74-2.71-1.74 2.71zm12.73-.82v.82h-4.77v-.82h2.03v-6.34l-1.88 1.14-.44-.71 2.45-1.54h.9v7.45h1.7zm3.52-.1c0-.3.1-.55.3-.75.21-.2.46-.31.76-.31s.56.1.76.31c.2.2.3.45.3.75a1.02 1.02 0 0 1 -1.06 1.05c-.3 0-.55-.1-.76-.3-.2-.2-.3-.46-.3-.75zm10.37-6.53h-3.27v2.6a3.11 3.11 0 0 1 1.42-.36c.69 0 1.23.23 1.64.69.42.45.63 1.09.63 1.9a2.9 2.9 0 0 1 -.35 1.44c-.23.42-.55.74-.97.98-.43.22-.92.33-1.48.33-.92 0-1.72-.33-2.4-.98l.62-.61c.5.5 1.1.76 1.78.76.55 0 .98-.16 1.28-.5s.46-.82.46-1.45-.14-1.07-.4-1.35a1.45 1.45 0 0 0 -1.1-.42c-.22 0-.41.02-.59.06-.17.04-.4.12-.7.22h-.81v-4.13h4.38z" fill="#000"/><path d="m268 72h154.14v16h-154.14zm0 32h154.14v16h-154.14z" fill="#db00ff" fill-opacity=".25"/><path d="m268 88h154.14v16h-154.14z" fill="#00d9ff" fill-opacity=".25"/><path d="m436.3 84 2.32-3.34-2.05-2.98h1.2l1.47 2.35 1.47-2.35h1.17l-2.06 2.94 2.33 3.38h-1.22l-1.74-2.71-1.74 2.71zm9.75-8.4c.5 0 .94.1 1.32.3s.67.48.87.83c.2.34.3.73.3 1.17 0 .52-.12 1.01-.36 1.5-.23.47-.6 1-1.13 1.58-.52.56-1.25 1.28-2.2 2.16h3.88l-.12.86h-4.92v-.82a45.74 45.74 0 0 0 2.4-2.42c.53-.58.9-1.08 1.1-1.5a3 3 0 0 0 .3-1.32c0-.46-.14-.83-.4-1.1-.26-.26-.63-.39-1.1-.39-.38 0-.71.07-.98.2-.25.13-.52.36-.79.68l-.7-.54c.33-.41.7-.71 1.1-.9.4-.2.88-.29 1.43-.29zm-9.75 39.4 2.32-3.34-2.05-2.98h1.2l1.47 2.35 1.47-2.35h1.17l-2.06 2.94 2.33 3.38h-1.22l-1.74-2.71-1.74 2.71zm9.75-8.4c.5 0 .94.1 1.32.3s.67.48.87.83c.2.34.3.73.3 1.17 0 .52-.12 1.01-.36 1.5-.23.47-.6 1-1.13 1.58-.52.56-1.25 1.28-2.2 2.16h3.88l-.12.86h-4.92v-.82a45.74 45.74 0 0 0 2.4-2.42c.53-.58.9-1.08 1.1-1.5a3 3 0 0 0 .3-1.32c0-.46-.14-.83-.4-1.1-.26-.26-.63-.39-1.1-.39-.38 0-.71.07-.98.2-.25.13-.52.36-.79.68l-.7-.54c.33-.41.7-.71 1.1-.9.4-.2.88-.29 1.43-.29zm-9.15-6.6 2.33-3.34-2.06-2.98h1.2l1.47 2.35 1.47-2.35h1.17l-2.05 2.94 2.32 3.38h-1.22l-1.74-2.71-1.74 2.71zm9.75-8.4c.5 0 .94.1 1.32.3s.67.48.88.83c.2.34.3.73.3 1.17 0 .52-.13 1.01-.36 1.5-.24.47-.61 1-1.13 1.58-.52.56-1.26 1.28-2.21 2.16h3.89l-.12.86h-4.92v-.82a45.74 45.74 0 0 0 2.4-2.42c.53-.58.89-1.08 1.09-1.5a3 3 0 0 0 .3-1.32c0-.46-.13-.83-.4-1.1-.26-.26-.63-.39-1.09-.39-.4 0-.72.07-.98.2s-.52.36-.8.68l-.7-.54c.34-.41.7-.71 1.1-.9.4-.2.88-.29 1.43-.29z" fill="#000"/><path d="m422.64 80.25h10.56m-10.56 16h10.56m-10.56 16h10.56" stroke="#b3b3b3" stroke-dasharray="2 3" stroke-linecap="round"/><path d="m300 128h90v88h-90z" fill="#00d9ff" fill-opacity=".3"/><path d="m389.35 194.35a.5.5 0 0 0 0-.7l-3.18-3.19a.5.5 0 0 0 -.7.71l2.82 2.83-2.83 2.83a.5.5 0 0 0 .71.7zm-22.35.15h22v-1h-22zm-66.35-.85a.5.5 0 0 0 0 .7l3.18 3.19a.5.5 0 0 0 .7-.71l-2.82-2.83 2.83-2.83a.5.5 0 0 0 -.7-.7l-3.2 3.18zm18.35-.15h-18v1h18z" fill="#000"/><path d="m323 194h7.8l7.8-8 7.81 16 7.8-8h8.79" stroke="#333" stroke-linecap="round" stroke-linejoin="round"/><path d="m268 128h32v88h-32z" fill="#db00ff" fill-opacity=".25"/><path d="m390 128h32v88h-32z" fill="#ff7afa" fill-opacity=".5"/><path d="m397.48 240 2.32-3.34-2.05-2.98h1.2l1.47 2.35 1.47-2.35h1.17l-2.06 2.94 2.33 3.38h-1.22l-1.74-2.71-1.74 2.71zm12.86-2h-1.07v2h-.97v-2h-3.44v-.75l2.43-5.65.84.36-2.2 5.22h2.38l.08-2.34h.88v2.34h1.07zm-132.86 2 2.32-3.34-2.05-2.98h1.2l1.47 2.35 1.47-2.35h1.17l-2.06 2.94 2.33 3.38h-1.22l-1.74-2.71-1.74 2.71zm12.86-2h-1.07v2h-.97v-2h-3.44v-.75l2.43-5.65.84.36-2.2 5.22h2.38l.08-2.34h.88v2.34h1.07z" fill="#000"/><path d="m404.5 227.25v-11m-120 11v-11" stroke="#b3b3b3" stroke-dasharray="2 3" stroke-linecap="round"/><path d="m7.87 96 2.33-3.34-2.06-2.98h1.2l1.47 2.35 1.47-2.35h1.17l-2.05 2.94 2.32 3.38h-1.22l-1.74-2.71-1.74 2.71zm9.75-8.4c.5 0 .94.1 1.32.3s.67.48.87.83c.2.34.3.73.3 1.17 0 .52-.12 1.01-.36 1.5-.23.47-.6 1-1.12 1.58-.52.56-1.26 1.28-2.21 2.16h3.89l-.12.86h-4.92v-.82a45.74 45.74 0 0 0 2.4-2.42c.52-.58.89-1.08 1.09-1.5a3 3 0 0 0 .3-1.32c0-.46-.13-.83-.4-1.1-.26-.26-.63-.39-1.09-.39-.4 0-.72.07-.98.2s-.52.36-.8.68l-.7-.54c.34-.41.7-.71 1.1-.9.4-.2.88-.29 1.43-.29z" fill="#000"/><path d="m24.5 92.25h11m139-15h11m-11 29h11m-23 121v-11m-114 11v-11" stroke="#b3b3b3" stroke-dasharray="2 3" stroke-linecap="round"/><rect fill="#007272" height="40" rx="20" width="138" x="36" y="16"/><path d="m67.76 35.32c1.08-.47 1.69-1.38 1.69-2.7 0-1.98-1.42-3.22-3.67-3.22h-4.34v12.6h4.99c2.23 0 3.81-1.44 3.81-3.5 0-1.58-1-2.8-2.48-3.18zm-2.4-4.6c1.55 0 2.45.73 2.45 2.03s-.88 2.03-2.45 2.03h-2.3v-4.07h2.3zm.53 9.91h-2.83v-4.53h2.79c1.84 0 2.74.77 2.74 2.28 0 1.44-1 2.25-2.7 2.25zm12.34-7.63v5.2c0 1.62-.91 2.67-2.34 2.67-1.35 0-2.08-.8-2.08-2.22v-5.65h-1.57v5.72c0 2.15 1.19 3.42 3.2 3.42 1.37 0 2.45-.6 3-1.65v1.51h1.36v-9zm7.5 7.85c-.92 0-1.4-.43-1.4-1.3v-5.25h2.31v-1.3h-2.3v-2.8h-1.57v2.8h-1.53v1.3h1.53v5.29c0 1.64.97 2.55 2.68 2.55.53 0 1.03-.07 1.32-.18v-1.26c-.25.1-.63.15-1.05.15zm6.52 0c-.92 0-1.39-.43-1.39-1.3v-5.25h2.3v-1.3h-2.3v-2.8h-1.57v2.8h-1.53v1.3h1.53v5.29c0 1.64.98 2.55 2.69 2.55.52 0 1.02-.07 1.31-.18v-1.26c-.25.1-.63.15-1.04.15zm6.8 1.3c2.54 0 4.43-1.86 4.43-4.65s-1.89-4.64-4.42-4.64c-2.54 0-4.43 1.85-4.43 4.64s1.89 4.64 4.43 4.64zm0-1.3c-1.65 0-2.86-1.33-2.86-3.35s1.21-3.35 2.87-3.35c1.65 0 2.86 1.33 2.86 3.35s-1.2 3.35-2.86 3.35zm10.58-8c-1.35 0-2.43.62-2.97 1.64v-1.49h-1.39v9h1.57v-5.2c0-1.62.91-2.67 2.35-2.67 1.34 0 2.08.8 2.08 2.22v5.65h1.56v-5.72c0-2.15-1.19-3.42-3.2-3.42zm13.17 8c-.92 0-1.39-.43-1.39-1.3v-5.25h2.3v-1.3h-2.3v-2.8h-1.56v2.8h-1.53v1.3h1.53v5.29c0 1.64.97 2.55 2.68 2.55.52 0 1.02-.07 1.31-.18v-1.26c-.25.1-.63.15-1.04.15zm10.88-3.24c0-2.88-1.63-4.75-4.2-4.75s-4.3 1.89-4.3 4.64c0 2.74 1.8 4.64 4.5 4.64 1.7 0 3-.68 3.7-1.92l-1.1-.76a2.78 2.78 0 0 1 -2.58 1.42c-1.53 0-2.86-.95-3-2.95h6.96c.02-.05.02-.25.02-.32zm-4.2-3.48c1.53 0 2.49 1 2.68 2.67h-5.41c.2-1.73 1.25-2.67 2.73-2.67zm13.05 7.87-3.44-4.5 3.25-4.5h-1.83l-2.27 3.38-2.27-3.38h-1.89l3.26 4.48-3.44 4.52h1.86l2.43-3.37 2.44 3.37zm5.02-1.15c-.92 0-1.39-.43-1.39-1.3v-5.25h2.3v-1.3h-2.3v-2.8h-1.56v2.8h-1.53v1.3h1.53v5.29c0 1.64.97 2.55 2.68 2.55.52 0 1.02-.07 1.31-.18v-1.26c-.25.1-.63.15-1.04.15z" fill="#fff"/><rect fill="#007272" height="48" rx="24" width="154" x="268" y="16"/><path d="m307.76 39.32c1.08-.47 1.69-1.38 1.69-2.7 0-1.98-1.42-3.22-3.67-3.22h-4.34v12.6h4.99c2.23 0 3.81-1.44 3.81-3.5 0-1.58-1-2.8-2.48-3.18zm-2.4-4.6c1.55 0 2.45.73 2.45 2.03s-.88 2.03-2.45 2.03h-2.3v-4.07h2.3zm.53 9.91h-2.83v-4.53h2.79c1.84 0 2.74.77 2.74 2.28 0 1.44-1 2.25-2.7 2.25zm12.34-7.63v5.2c0 1.62-.91 2.67-2.34 2.67-1.35 0-2.08-.8-2.08-2.22v-5.65h-1.57v5.72c0 2.15 1.19 3.42 3.2 3.42 1.37 0 2.45-.6 3-1.65v1.51h1.36v-9zm7.5 7.85c-.92 0-1.4-.43-1.4-1.3v-5.25h2.31v-1.3h-2.3v-2.8h-1.57v2.8h-1.53v1.3h1.53v5.29c0 1.64.98 2.55 2.69 2.55.52 0 1.02-.07 1.3-.18v-1.26c-.24.1-.62.15-1.03.15zm6.52 0c-.92 0-1.39-.43-1.39-1.3v-5.25h2.3v-1.3h-2.3v-2.8h-1.57v2.8h-1.53v1.3h1.53v5.29c0 1.64.98 2.55 2.69 2.55.52 0 1.02-.07 1.31-.18v-1.26c-.25.1-.63.15-1.04.15zm6.8 1.3c2.54 0 4.43-1.86 4.43-4.65s-1.89-4.64-4.42-4.64c-2.54 0-4.43 1.85-4.43 4.64s1.89 4.64 4.43 4.64zm0-1.3c-1.65 0-2.86-1.33-2.86-3.35s1.21-3.35 2.87-3.35c1.65 0 2.86 1.33 2.86 3.35s-1.2 3.35-2.86 3.35zm10.58-8c-1.35 0-2.43.62-2.97 1.64v-1.49h-1.39v9h1.57v-5.2c0-1.62.92-2.67 2.36-2.67 1.33 0 2.06.8 2.06 2.22v5.65h1.57v-5.72c0-2.15-1.19-3.42-3.2-3.42zm13.17 8c-.92 0-1.39-.43-1.39-1.3v-5.25h2.3v-1.3h-2.3v-2.8h-1.56v2.8h-1.54v1.3h1.54v5.29c0 1.64.97 2.55 2.68 2.55.52 0 1.02-.07 1.31-.18v-1.26c-.25.1-.63.15-1.04.15zm10.88-3.24c0-2.88-1.63-4.75-4.2-4.75s-4.3 1.89-4.3 4.64c0 2.74 1.8 4.64 4.5 4.64 1.7 0 3-.68 3.7-1.92l-1.1-.76a2.78 2.78 0 0 1 -2.58 1.42c-1.53 0-2.87-.95-3-2.95h6.96l.01-.32zm-4.2-3.48c1.53 0 2.48 1 2.68 2.67h-5.42c.2-1.73 1.26-2.67 2.74-2.67zm13.04 7.87-3.43-4.5 3.26-4.5h-1.84l-2.27 3.38-2.27-3.38h-1.89l3.26 4.48-3.44 4.52h1.86l2.43-3.37 2.44 3.37h1.9zm5.03-1.15c-.92 0-1.39-.43-1.39-1.3v-5.25h2.3v-1.3h-2.3v-2.8h-1.56v2.8h-1.54v1.3h1.54v5.29c0 1.64.97 2.55 2.68 2.55.52 0 1.02-.07 1.31-.18v-1.26c-.25.1-.63.15-1.04.15z" fill="#fff"/><rect fill="#007272" height="48" rx="24" width="154" x="268" y="72"/><path d="m307.76 95.32c1.08-.47 1.69-1.38 1.69-2.7 0-1.98-1.42-3.22-3.67-3.22h-4.34v12.6h4.99c2.23 0 3.81-1.44 3.81-3.5 0-1.58-1-2.8-2.48-3.18zm-2.4-4.6c1.55 0 2.45.73 2.45 2.03s-.88 2.03-2.45 2.03h-2.3v-4.07h2.3zm.53 9.91h-2.83v-4.53h2.79c1.84 0 2.74.77 2.74 2.28 0 1.44-1 2.25-2.7 2.25zm12.34-7.63v5.2c0 1.62-.91 2.67-2.34 2.67-1.35 0-2.08-.8-2.08-2.22v-5.65h-1.57v5.72c0 2.15 1.19 3.42 3.2 3.42 1.37 0 2.45-.6 3-1.65v1.51h1.36v-9zm7.5 7.85c-.92 0-1.4-.43-1.4-1.3v-5.25h2.31v-1.3h-2.3v-2.8h-1.57v2.8h-1.53v1.3h1.53v5.29c0 1.64.98 2.55 2.69 2.55.52 0 1.02-.07 1.3-.18v-1.26c-.24.1-.62.15-1.03.15zm6.52 0c-.92 0-1.39-.43-1.39-1.3v-5.25h2.3v-1.3h-2.3v-2.8h-1.57v2.8h-1.53v1.3h1.53v5.29c0 1.64.98 2.55 2.69 2.55.52 0 1.02-.07 1.31-.18v-1.26c-.25.1-.63.15-1.04.15zm6.8 1.3c2.54 0 4.43-1.86 4.43-4.65s-1.89-4.64-4.42-4.64c-2.54 0-4.43 1.85-4.43 4.64s1.89 4.64 4.43 4.64zm0-1.3c-1.65 0-2.86-1.33-2.86-3.35s1.21-3.35 2.87-3.35c1.65 0 2.86 1.33 2.86 3.35s-1.2 3.35-2.86 3.35zm10.58-8c-1.35 0-2.43.62-2.97 1.64v-1.49h-1.39v9h1.57v-5.2c0-1.62.92-2.67 2.36-2.67 1.33 0 2.06.8 2.06 2.22v5.65h1.57v-5.72c0-2.15-1.19-3.42-3.2-3.42zm13.17 8c-.92 0-1.39-.43-1.39-1.3v-5.25h2.3v-1.3h-2.3v-2.8h-1.56v2.8h-1.54v1.3h1.54v5.29c0 1.64.97 2.55 2.68 2.55.52 0 1.02-.07 1.31-.18v-1.26c-.25.1-.63.15-1.04.15zm10.88-3.24c0-2.88-1.63-4.75-4.2-4.75s-4.3 1.89-4.3 4.64c0 2.74 1.8 4.64 4.5 4.64 1.7 0 3-.68 3.7-1.92l-1.1-.76a2.78 2.78 0 0 1 -2.58 1.42c-1.53 0-2.87-.95-3-2.95h6.96l.01-.32zm-4.2-3.48c1.53 0 2.48 1 2.68 2.67h-5.42c.2-1.73 1.26-2.67 2.74-2.67zm13.04 7.87-3.43-4.5 3.26-4.5h-1.84l-2.27 3.38-2.27-3.38h-1.89l3.26 4.48-3.44 4.52h1.86l2.43-3.37 2.44 3.37h1.9zm5.03-1.15c-.92 0-1.39-.43-1.39-1.3v-5.25h2.3v-1.3h-2.3v-2.8h-1.56v2.8h-1.54v1.3h1.54v5.29c0 1.64.97 2.55 2.68 2.55.52 0 1.02-.07 1.31-.18v-1.26c-.25.1-.63.15-1.04.15z" fill="#fff"/><rect fill="#007272" height="48" rx="24" width="154" x="268" y="128"/><path d="m307.76 151.32c1.08-.47 1.69-1.38 1.69-2.7 0-1.98-1.42-3.22-3.67-3.22h-4.34v12.6h4.99c2.23 0 3.81-1.44 3.81-3.5 0-1.58-1-2.8-2.48-3.18zm-2.4-4.6c1.55 0 2.45.73 2.45 2.03s-.88 2.03-2.45 2.03h-2.3v-4.07h2.3zm.53 9.91h-2.83v-4.53h2.79c1.84 0 2.74.77 2.74 2.28 0 1.44-1 2.25-2.7 2.25zm12.34-7.63v5.2c0 1.62-.91 2.67-2.34 2.67-1.35 0-2.08-.8-2.08-2.22v-5.65h-1.57v5.72c0 2.15 1.19 3.42 3.2 3.42 1.37 0 2.45-.6 3-1.65v1.51h1.36v-9zm7.5 7.85c-.92 0-1.4-.43-1.4-1.3v-5.25h2.31v-1.3h-2.3v-2.8h-1.57v2.8h-1.53v1.3h1.53v5.29c0 1.64.98 2.55 2.69 2.55.52 0 1.02-.07 1.3-.18v-1.26c-.24.1-.62.15-1.03.15zm6.52 0c-.92 0-1.39-.43-1.39-1.3v-5.25h2.3v-1.3h-2.3v-2.8h-1.57v2.8h-1.53v1.3h1.53v5.29c0 1.64.98 2.55 2.69 2.55.52 0 1.02-.07 1.31-.18v-1.26c-.25.1-.63.15-1.04.15zm6.8 1.3c2.54 0 4.43-1.86 4.43-4.65s-1.89-4.64-4.42-4.64c-2.54 0-4.43 1.85-4.43 4.64s1.89 4.64 4.43 4.64zm0-1.3c-1.65 0-2.86-1.33-2.86-3.35s1.21-3.35 2.87-3.35c1.65 0 2.86 1.33 2.86 3.35s-1.2 3.35-2.86 3.35zm10.58-8c-1.35 0-2.43.62-2.97 1.64v-1.49h-1.39v9h1.57v-5.2c0-1.62.92-2.67 2.36-2.67 1.33 0 2.06.8 2.06 2.22v5.65h1.57v-5.72c0-2.15-1.19-3.42-3.2-3.42zm13.17 8c-.92 0-1.39-.43-1.39-1.3v-5.25h2.3v-1.3h-2.3v-2.8h-1.56v2.8h-1.54v1.3h1.54v5.29c0 1.64.97 2.55 2.68 2.55.52 0 1.02-.07 1.31-.18v-1.26c-.25.1-.63.15-1.04.15zm10.88-3.24c0-2.88-1.63-4.75-4.2-4.75s-4.3 1.89-4.3 4.64c0 2.74 1.8 4.64 4.5 4.64 1.7 0 3-.68 3.7-1.92l-1.1-.76a2.78 2.78 0 0 1 -2.58 1.42c-1.53 0-2.87-.95-3-2.95h6.96l.01-.32zm-4.2-3.48c1.53 0 2.48 1 2.68 2.67h-5.42c.2-1.73 1.26-2.67 2.74-2.67zm13.04 7.87-3.43-4.5 3.26-4.5h-1.84l-2.27 3.38-2.27-3.38h-1.89l3.26 4.48-3.44 4.52h1.86l2.43-3.37 2.44 3.37h1.9zm5.03-1.15c-.92 0-1.39-.43-1.39-1.3v-5.25h2.3v-1.3h-2.3v-2.8h-1.56v2.8h-1.54v1.3h1.54v5.29c0 1.64.97 2.55 2.68 2.55.52 0 1.02-.07 1.31-.18v-1.26c-.25.1-.63.15-1.04.15z" fill="#fff"/></svg>