<svg fill="none" height="384" viewBox="0 0 557 384" width="557" xmlns="http://www.w3.org/2000/svg" xmlns:xlink="http://www.w3.org/1999/xlink"><clipPath id="a"><path d="m0 136h376v56h-376z"/></clipPath><clipPath id="b"><path d="m0 80h376v56h-376z"/></clipPath><clipPath id="c"><path d="m0 288h376v40h-376z"/></clipPath><clipPath id="d"><path d="m0 232h376v56h-376z"/></clipPath><clipPath id="e"><path d="m0 328h376v56h-376z"/></clipPath><g clip-path="url(#a)"><path d="m0 135h376v64h-376z" fill="#f4fbf9"/><path d="m20.36 159.4h-.99a4.9 4.9 0 0 1 -3.36 2.03v1.3a5.7 5.7 0 0 0 2.79-1.04v10.31h1.56zm7.68 4.68c-1.04 0-1.95.38-2.56 1.03l.56-4.41h5.02v-1.3h-6.35l-.87 6.84 1.37.43a2.66 2.66 0 0 1 2.4-1.3c1.58 0 2.7 1.1 2.7 2.69 0 1.67-1.1 2.77-2.7 2.77-1.44 0-2.52-.81-2.86-2.09l-1.34.54c.58 1.8 2.05 2.86 4.2 2.86 2.52 0 4.26-1.67 4.26-4.08 0-2.4-1.58-3.98-3.83-3.98zm10.36 8.06c2.86 0 4.4-2.26 4.4-6.44s-1.54-6.44-4.4-6.44-4.4 2.26-4.4 6.44 1.54 6.44 4.4 6.44zm0-1.36c-1.87 0-2.83-1.71-2.83-5.08s.96-5.08 2.83-5.08 2.83 1.71 2.83 5.08-.96 5.08-2.83 5.08zm12.61-5.6a2.74 2.74 0 0 0 1.87-2.72c0-1.98-1.56-3.2-3.8-3.2-2.08 0-3.38 1.04-3.72 2.91l1.3.36c.25-1.3 1.04-1.98 2.43-1.98 1.34 0 2.24.76 2.24 1.98 0 1.33-.82 2.13-2.17 2.13h-1.1v1.26h1.1c1.73 0 2.8.93 2.8 2.48 0 1.44-1.11 2.43-2.77 2.43-1.54 0-2.59-.8-2.91-2.2l-1.39.54c.47 1.84 1.98 2.97 4.3 2.97 2.67 0 4.34-1.58 4.34-3.74 0-1.73-.92-2.83-2.52-3.22zm5.75 6.93c.58 0 1.05-.49 1.05-1.06 0-.58-.47-1.05-1.05-1.05-.57 0-1.06.47-1.06 1.05 0 .57.49 1.06 1.06 1.06zm7.57.03c2.86 0 4.39-2.26 4.39-6.44s-1.53-6.44-4.4-6.44c-2.85 0-4.38 2.26-4.38 6.44s1.53 6.44 4.39 6.44zm0-1.36c-1.87 0-2.83-1.71-2.83-5.08s.96-5.08 2.83-5.08 2.82 1.71 2.82 5.08-.95 5.08-2.82 5.08zm10.75-11.38h-.99a4.9 4.9 0 0 1 -3.36 2.03v1.3a5.7 5.7 0 0 0 2.79-1.04v10.31h1.56zm4.03 12.7a1.04 1.04 0 0 0 0-2.1c-.58 0-1.07.47-1.07 1.05 0 .57.49 1.06 1.07 1.06zm7.45-12.84a4.06 4.06 0 0 0 -4.14 4.14c0 2.37 1.66 4.05 3.82 4.05 1.82 0 2.86-1.1 3.2-1.93 0 2.95-.99 5.31-3.13 5.31-1.15 0-2-.6-2.3-1.8l-1.37.52c.32 1.53 1.64 2.6 3.67 2.6 3 0 4.66-2.69 4.66-7.1 0-3.69-1.56-5.8-4.4-5.8zm0 1.31c1.57 0 2.63 1.12 2.63 2.79 0 1.64-1.06 2.77-2.63 2.77-1.55 0-2.6-1.13-2.6-2.77 0-1.67 1.05-2.79 2.6-2.79zm11.33 3.51c-1.04 0-1.94.38-2.55 1.03l.56-4.41h5.02v-1.3h-6.36l-.86 6.84 1.37.43a2.66 2.66 0 0 1 2.4-1.3c1.58 0 2.7 1.1 2.7 2.69 0 1.67-1.1 2.77-2.7 2.77-1.45 0-2.53-.81-2.87-2.09l-1.33.54c.57 1.8 2.05 2.86 4.2 2.86 2.51 0 4.26-1.67 4.26-4.08 0-2.4-1.59-3.98-3.84-3.98zm10.36 8.06c2.87 0 4.4-2.26 4.4-6.44s-1.53-6.44-4.4-6.44c-2.86 0-4.39 2.26-4.39 6.44s1.53 6.44 4.4 6.44zm0-1.36c-1.87 0-2.82-1.71-2.82-5.08s.95-5.08 2.82-5.08c1.88 0 2.83 1.71 2.83 5.08s-.95 5.08-2.83 5.08zm9.03-.08 2.33-2.37c1.8-1.86 3.43-3.42 3.43-5.42 0-2.16-1.62-3.65-4-3.65-2.12 0-3.54 1.08-3.9 2.95l1.33.5c.33-1.44 1.2-2.14 2.58-2.14 1.5 0 2.45.9 2.45 2.34 0 1.37-.74 2.23-2.94 4.46l-3.53 3.6v1.03h8.03v-1.3zm12.53-11.3h-1a4.9 4.9 0 0 1 -3.36 2.03v1.3a5.7 5.7 0 0 0 2.79-1.04v10.31h1.56v-12.6zm120.82-2h-3.19v12.6h3.19c3.92 0 6.22-2.34 6.22-6.3s-2.3-6.3-6.22-6.3zm-.11 11.29h-1.46v-9.98h1.46c3.02 0 4.68 1.84 4.68 4.99s-1.66 4.99-4.68 4.99zm12.42-7.83a2.7 2.7 0 0 0 -2.57 1.67v-1.53h-1.39v9h1.57v-5.22c0-1.71 1-2.54 2.34-2.54.34 0 .59.02.8.06v-1.35c-.14-.06-.39-.1-.75-.1zm3.3-1.2c.57 0 1.03-.48 1.03-1.05 0-.58-.46-1.05-1.04-1.05s-1.06.47-1.06 1.05c0 .57.48 1.06 1.06 1.06zm-.8 10.34h1.56v-9h-1.56zm7.73-11.45c.34 0 .75.07.98.15v-1.26c-.26-.11-.82-.18-1.3-.18-1.65 0-2.6.95-2.6 2.6v1.14h-1.4v1.3h1.4v7.7h1.56v-7.7h2.22v-1.3h-2.21v-1.06c0-.9.48-1.39 1.35-1.39zm6.27 10.3c-.92 0-1.38-.43-1.38-1.3v-5.25h2.3v-1.3h-2.3v-2.8h-1.57v2.8h-1.53v1.3h1.53v5.29c0 1.64.97 2.55 2.68 2.55.52 0 1.03-.07 1.32-.18v-1.26c-.26.1-.63.15-1.05.15zm5.73 1.3c1.94 0 3.26-1.07 3.26-2.67 0-1.28-.81-2.14-2.36-2.54l-1.2-.29c-.92-.23-1.32-.6-1.32-1.26 0-.77.63-1.27 1.6-1.27.96 0 1.59.41 1.88 1.2l1.17-.68c-.44-1.15-1.52-1.78-3.05-1.78-1.85 0-3.07 1.04-3.07 2.59 0 1.22.8 2.09 2.35 2.46l1.14.3c.95.23 1.38.62 1.38 1.3 0 .87-.66 1.37-1.78 1.37-1.1 0-1.89-.46-2.32-1.36l-1.1.79c.63 1.19 1.84 1.83 3.42 1.83zm10.7-.15h1.93l-3.9-5.02 3.63-3.98h-1.97l-3.78 4.43v-8.03h-1.56v12.6h1.56v-2.66l1.17-1.3zm6.62.14c2.54 0 4.43-1.85 4.43-4.64s-1.89-4.64-4.43-4.64-4.43 1.85-4.43 4.64 1.9 4.64 4.43 4.64zm0-1.3c-1.65 0-2.86-1.32-2.86-3.34s1.2-3.35 2.86-3.35 2.87 1.33 2.87 3.35-1.21 3.35-2.87 3.35zm10.57-7.98c-1.35 0-2.43.6-2.96 1.63v-1.49h-1.4v9h1.57v-5.2c0-1.62.92-2.67 2.36-2.67 1.33 0 2.07.8 2.07 2.22v5.65h1.57v-5.72c0-2.15-1.19-3.42-3.2-3.42zm9.03 7.99c-.92 0-1.39-.43-1.39-1.3v-5.25h2.3v-1.3h-2.3v-2.8h-1.57v2.8h-1.53v1.3h1.53v5.29c0 1.64.98 2.55 2.69 2.55.52 0 1.02-.07 1.31-.18v-1.26c-.25.1-.63.15-1.04.15zm6.8 1.3c2.54 0 4.43-1.86 4.43-4.65s-1.89-4.64-4.42-4.64c-2.54 0-4.43 1.85-4.43 4.64s1.89 4.64 4.43 4.64zm0-1.3c-1.65 0-2.86-1.33-2.86-3.35s1.21-3.35 2.87-3.35c1.65 0 2.86 1.33 2.86 3.35s-1.2 3.35-2.86 3.35z" fill="#333"/></g><g clip-path="url(#b)"><path d="m0 80h376v56h-376z" fill="#fff"/><path d="m20.36 103.4h-.99a4.9 4.9 0 0 1 -3.36 2.03v1.3a5.7 5.7 0 0 0 2.79-1.04v10.31h1.56zm7.68 4.68c-1.04 0-1.95.38-2.56 1.03l.56-4.41h5.02v-1.3h-6.35l-.87 6.84 1.37.43a2.66 2.66 0 0 1 2.4-1.3c1.58 0 2.7 1.1 2.7 2.69 0 1.67-1.1 2.77-2.7 2.77-1.44 0-2.52-.81-2.86-2.09l-1.34.54c.58 1.8 2.05 2.86 4.2 2.86 2.52 0 4.26-1.67 4.26-4.08 0-2.4-1.58-3.98-3.83-3.98zm10.36 8.06c2.86 0 4.4-2.26 4.4-6.44s-1.54-6.44-4.4-6.44-4.4 2.26-4.4 6.44 1.54 6.44 4.4 6.44zm0-1.36c-1.87 0-2.83-1.71-2.83-5.08s.96-5.08 2.83-5.08 2.83 1.71 2.83 5.08-.96 5.08-2.83 5.08zm12.61-5.6a2.74 2.74 0 0 0 1.87-2.72c0-1.98-1.56-3.2-3.8-3.2-2.08 0-3.38 1.04-3.72 2.91l1.3.36c.25-1.3 1.04-1.98 2.43-1.98 1.34 0 2.24.76 2.24 1.98 0 1.33-.82 2.13-2.17 2.13h-1.1v1.26h1.1c1.73 0 2.8.93 2.8 2.48 0 1.44-1.11 2.43-2.77 2.43-1.54 0-2.59-.8-2.91-2.2l-1.39.54c.47 1.84 1.98 2.97 4.3 2.97 2.67 0 4.34-1.58 4.34-3.74 0-1.73-.92-2.83-2.52-3.22zm5.75 6.93c.58 0 1.05-.49 1.05-1.06 0-.58-.47-1.05-1.05-1.05-.57 0-1.06.47-1.06 1.05 0 .57.49 1.06 1.06 1.06zm7.57.03c2.86 0 4.39-2.26 4.39-6.44s-1.53-6.44-4.4-6.44c-2.85 0-4.38 2.26-4.38 6.44s1.53 6.44 4.39 6.44zm0-1.36c-1.87 0-2.83-1.71-2.83-5.08s.96-5.08 2.83-5.08 2.82 1.71 2.82 5.08-.95 5.08-2.82 5.08zm10.75-11.38h-.99a4.9 4.9 0 0 1 -3.36 2.03v1.3a5.7 5.7 0 0 0 2.79-1.04v10.31h1.56zm4.03 12.7a1.04 1.04 0 0 0 0-2.1c-.58 0-1.07.47-1.07 1.05 0 .57.49 1.06 1.07 1.06zm7.45-12.84a4.06 4.06 0 0 0 -4.14 4.14c0 2.37 1.66 4.05 3.82 4.05 1.82 0 2.86-1.1 3.2-1.93 0 2.95-.99 5.31-3.13 5.31-1.15 0-2-.6-2.3-1.8l-1.37.52c.32 1.53 1.64 2.6 3.67 2.6 3 0 4.66-2.69 4.66-7.1 0-3.69-1.56-5.8-4.4-5.8zm0 1.31c1.57 0 2.63 1.12 2.63 2.79 0 1.64-1.06 2.77-2.63 2.77-1.55 0-2.6-1.13-2.6-2.77 0-1.67 1.05-2.79 2.6-2.79zm11.33 3.51c-1.04 0-1.94.38-2.55 1.03l.56-4.41h5.02v-1.3h-6.36l-.86 6.84 1.37.43a2.66 2.66 0 0 1 2.4-1.3c1.58 0 2.7 1.1 2.7 2.69 0 1.67-1.1 2.77-2.7 2.77-1.45 0-2.53-.81-2.87-2.09l-1.33.54c.57 1.8 2.05 2.86 4.2 2.86 2.51 0 4.26-1.67 4.26-4.08 0-2.4-1.59-3.98-3.84-3.98zm10.36 8.06c2.87 0 4.4-2.26 4.4-6.44s-1.53-6.44-4.4-6.44c-2.86 0-4.39 2.26-4.39 6.44s1.53 6.44 4.4 6.44zm0-1.36c-1.87 0-2.82-1.71-2.82-5.08s.95-5.08 2.82-5.08c1.88 0 2.83 1.71 2.83 5.08s-.95 5.08-2.83 5.08zm9.03-.08 2.33-2.37c1.8-1.86 3.43-3.42 3.43-5.42 0-2.16-1.62-3.65-4-3.65-2.12 0-3.54 1.08-3.9 2.95l1.33.5c.33-1.44 1.2-2.14 2.58-2.14 1.5 0 2.45.9 2.45 2.34 0 1.37-.74 2.23-2.94 4.46l-3.53 3.6v1.03h8.03v-1.3zm12.53-11.3h-1a4.9 4.9 0 0 1 -3.36 2.03v1.3a5.7 5.7 0 0 0 2.79-1.04v10.31h1.56v-12.6zm120.82-2h-3.19v12.6h3.19c3.92 0 6.22-2.34 6.22-6.3s-2.3-6.3-6.22-6.3zm-.11 11.29h-1.46v-9.98h1.46c3.02 0 4.68 1.84 4.68 4.99s-1.66 4.99-4.68 4.99zm12.42-7.83a2.7 2.7 0 0 0 -2.57 1.67v-1.53h-1.39v9h1.57v-5.22c0-1.71 1-2.54 2.34-2.54.34 0 .59.02.8.06v-1.35c-.14-.06-.39-.1-.75-.1zm3.3-1.2c.57 0 1.03-.48 1.03-1.05 0-.58-.46-1.05-1.04-1.05s-1.06.47-1.06 1.05c0 .57.48 1.06 1.06 1.06zm-.8 10.34h1.56v-9h-1.56zm7.73-11.45c.34 0 .75.07.98.15v-1.26c-.26-.11-.82-.18-1.3-.18-1.65 0-2.6.95-2.6 2.6v1.14h-1.4v1.3h1.4v7.7h1.56v-7.7h2.22v-1.3h-2.21v-1.06c0-.9.48-1.39 1.35-1.39zm6.27 10.3c-.92 0-1.38-.43-1.38-1.3v-5.25h2.3v-1.3h-2.3v-2.8h-1.57v2.8h-1.53v1.3h1.53v5.29c0 1.64.97 2.55 2.68 2.55.52 0 1.03-.07 1.32-.18v-1.26c-.26.1-.63.15-1.05.15zm5.73 1.3c1.94 0 3.26-1.07 3.26-2.67 0-1.28-.81-2.14-2.36-2.54l-1.2-.29c-.92-.23-1.32-.6-1.32-1.26 0-.77.63-1.27 1.6-1.27.96 0 1.59.41 1.88 1.2l1.17-.68c-.44-1.15-1.52-1.78-3.05-1.78-1.85 0-3.07 1.04-3.07 2.59 0 1.22.8 2.09 2.35 2.46l1.14.3c.95.23 1.38.62 1.38 1.3 0 .87-.66 1.37-1.78 1.37-1.1 0-1.89-.46-2.32-1.36l-1.1.79c.63 1.19 1.84 1.83 3.42 1.83zm10.7-.15h1.93l-3.9-5.02 3.63-3.98h-1.97l-3.78 4.43v-8.03h-1.56v12.6h1.56v-2.66l1.17-1.3zm6.62.14c2.54 0 4.43-1.85 4.43-4.64s-1.89-4.64-4.43-4.64-4.43 1.85-4.43 4.64 1.9 4.64 4.43 4.64zm0-1.3c-1.65 0-2.86-1.32-2.86-3.34s1.2-3.35 2.86-3.35 2.87 1.33 2.87 3.35-1.21 3.35-2.87 3.35zm10.57-7.98c-1.35 0-2.43.6-2.96 1.63v-1.49h-1.4v9h1.57v-5.2c0-1.62.92-2.67 2.36-2.67 1.33 0 2.07.8 2.07 2.22v5.65h1.57v-5.72c0-2.15-1.19-3.42-3.2-3.42zm9.03 7.99c-.92 0-1.39-.43-1.39-1.3v-5.25h2.3v-1.3h-2.3v-2.8h-1.57v2.8h-1.53v1.3h1.53v5.29c0 1.64.98 2.55 2.69 2.55.52 0 1.02-.07 1.31-.18v-1.26c-.25.1-.63.15-1.04.15zm6.8 1.3c2.54 0 4.43-1.86 4.43-4.65s-1.89-4.64-4.42-4.64c-2.54 0-4.43 1.85-4.43 4.64s1.89 4.64 4.43 4.64zm0-1.3c-1.65 0-2.86-1.33-2.86-3.35s1.21-3.35 2.87-3.35c1.65 0 2.86 1.33 2.86 3.35s-1.2 3.35-2.86 3.35z" fill="#333"/></g><path d="m0 0h376v80h-376z" fill="#d2f0e9"/><path d="m0 79h376v1h-376z" fill="#a5e1d2"/><g fill="#14555a"><rect height="1.5" rx=".75" width="102" x="247" y="64"/><path d="m248.47 58h7.09v-1.76h-4.91v-9.55h-2.18zm12.1.2c2.54 0 4.4-1.54 4.4-4.58 0-2.87-1.38-4.58-4.24-4.58-2.64 0-4.39 1.73-4.39 4.67 0 2.79 1.52 4.48 4.23 4.48zm.1-1.72c-1.66 0-2.17-1.22-2.17-2.83 0-1.5.45-2.91 2.16-2.91 1.73 0 2.13 1.4 2.13 2.9 0 1.58-.42 2.84-2.11 2.84zm6.13 1.52h2.13v-6.11a2.8 2.8 0 0 1 2.06-1c.5 0 .7.02 1.13.1l.3-1.76c-.29-.1-.64-.14-1.14-.14-1.08 0-1.93.75-2.35 1.34v-1.17h-2.13zm10.78.2c1.16 0 2.26-.18 3.14-.49l-.34-1.61c-.94.24-1.7.36-2.5.36-1.42 0-2.63-.38-2.62-2.24h5.7v-.76c0-2.77-1.02-4.4-3.71-4.4-2.29 0-4.13 1.21-4.13 4.7 0 3.44 1.78 4.43 4.46 4.43zm-2.27-5.4c.08-1.44.85-2.2 1.86-2.2 1.1 0 1.61.87 1.6 2.2zm7.46 5.2h2.13v-6.38c.6-.4 1.38-.7 2.11-.7 1.04 0 1.31.52 1.31 1.78v5.3h2.12v-5.55c0-.27-.02-.56-.05-.83.59-.39 1.37-.72 2.11-.72 1.1 0 1.36.62 1.36 1.8v5.3h2.13v-5.54c0-1.47-.03-3.42-2.75-3.42-1.25 0-2.37.7-3.08 1.31-.33-.78-1.16-1.31-2.4-1.31-1.08 0-2.08.56-2.86 1.17v-.95h-2.13zm19.28 0h2.15v-8.74h-2.15zm1.06-9.94 1.52-1.52-1.52-1.5-1.5 1.5zm3.44 13.46h2.11v-3.44c.36.03.8.08 1.35.08 2.42 0 4.64-1.23 4.64-4.85 0-2.97-1.5-4.25-3.52-4.25a3.9 3.9 0 0 0 -2.47.86v-.66h-2.1v12.26zm3.43-5c-.5 0-1.16-.12-1.32-.14v-5.07c.45-.19 1-.46 1.77-.46 1.45 0 2.06.97 2.06 2.54 0 1.81-.79 3.12-2.51 3.12zm8.67 1.67c1.7 0 3.86-.57 3.86-2.69 0-3.02-4.37-2.52-4.37-3.96 0-.45.4-.79 1.4-.79.73 0 1.53.15 2.17.34l.38-1.59c-.8-.3-1.77-.46-2.6-.46-1.88 0-3.46.86-3.46 2.67 0 3.01 4.4 2.5 4.4 3.89 0 .48-.5.85-1.73.85-.66 0-1.52-.11-2.53-.29l-.26 1.66c.77.24 1.94.37 2.74.37zm8.14 0a4.9 4.9 0 0 0 3.1-1.13v.94h2.13v-8.74h-2.13v6.37c-.53.32-1.33.69-2.29.69-1.13 0-1.34-.54-1.34-1.8v-5.26h-2.13v5.5c0 1.72.22 3.43 2.66 3.43zm7.58-.19h2.12v-6.38c.6-.4 1.38-.7 2.12-.7 1.04 0 1.3.52 1.3 1.78v5.3h2.12v-5.55c0-.27-.02-.56-.05-.83.6-.39 1.38-.72 2.11-.72 1.1 0 1.36.62 1.36 1.8v5.3h2.13v-5.54c0-1.47-.03-3.42-2.75-3.42-1.25 0-2.37.7-3.07 1.31-.34-.78-1.17-1.31-2.4-1.31-1.09 0-2.08.56-2.87 1.17v-.95h-2.12zm-317.9-1h2.18v-5.98l4.53 5.98h2.8l-4.9-6.05 4.62-5.26h-2.78l-4.27 5.17v-5.17h-2.18zm14.38.2c2.54 0 4.4-1.54 4.4-4.58 0-2.87-1.38-4.58-4.24-4.58-2.64 0-4.39 1.73-4.39 4.67 0 2.79 1.52 4.48 4.23 4.48zm.11-1.72c-1.66 0-2.18-1.22-2.18-2.83 0-1.5.45-2.91 2.16-2.91 1.73 0 2.13 1.4 2.13 2.9 0 1.58-.41 2.84-2.11 2.84zm6.11 1.52h2.13v-6.42c.6-.33 1.35-.68 2.3-.68 1.1 0 1.37.48 1.37 1.8v5.3h2.1v-5.54c0-1.72-.22-3.42-2.68-3.42a4.9 4.9 0 0 0 -3.09 1.15v-.93h-2.13zm13.55.2c.74 0 1.71-.15 2.34-.38l-.24-1.7c-.53.15-1.2.26-1.73.26-.85 0-1.2-.24-1.2-1.1v-4.38h2.7v-1.64h-2.7v-1.79h-2.13v1.8h-1.28v1.63h1.28v4.5c0 2.12 1.15 2.8 2.96 2.8zm7.54 0c2.54 0 4.4-1.54 4.4-4.58 0-2.87-1.38-4.58-4.24-4.58-2.64 0-4.38 1.73-4.38 4.67 0 2.79 1.52 4.48 4.22 4.48zm.11-1.72c-1.66 0-2.17-1.22-2.17-2.83 0-1.5.44-2.91 2.16-2.91s2.12 1.4 2.12 2.9c0 1.58-.41 2.84-2.1 2.84zm6.13 1.52h2.13v-6.42c.59-.33 1.34-.68 2.3-.68 1.09 0 1.36.48 1.36 1.8v5.3h2.11v-5.54c0-1.72-.22-3.42-2.69-3.42a4.9 4.9 0 0 0 -3.08 1.15v-.93h-2.13zm12.75.2a4.9 4.9 0 0 0 3.1-1.14v.94h2.13v-8.74h-2.13v6.37c-.53.32-1.33.69-2.29.69-1.14 0-1.34-.54-1.34-1.8v-5.26h-2.13v5.5c0 1.72.22 3.43 2.66 3.43zm7.58-.2h2.12v-6.38c.6-.4 1.38-.7 2.12-.7 1.04 0 1.3.52 1.3 1.78v5.3h2.12v-5.55c0-.27-.02-.56-.05-.83.6-.39 1.38-.72 2.11-.72 1.1 0 1.36.62 1.36 1.8v5.3h2.13v-5.54c0-1.47-.03-3.42-2.75-3.42-1.25 0-2.37.7-3.07 1.31-.34-.78-1.17-1.31-2.4-1.31-1.1 0-2.08.56-2.87 1.17v-.95h-2.12zm15.5 0h2.12v-6.38c.6-.4 1.38-.7 2.11-.7 1.05 0 1.32.52 1.32 1.78v5.3h2.1v-5.55c0-.27 0-.56-.04-.83.6-.39 1.38-.72 2.11-.72 1.1 0 1.36.62 1.36 1.8v5.3h2.13v-5.54c0-1.47-.03-3.42-2.75-3.42-1.25 0-2.37.7-3.07 1.31-.34-.78-1.17-1.31-2.4-1.31-1.1 0-2.08.56-2.87 1.17v-.95h-2.13v8.74zm19.45.2c1.15 0 2.25-.18 3.13-.49l-.33-1.61c-.95.24-1.7.36-2.52.36-1.4 0-2.62-.38-2.6-2.24h5.7v-.76c0-2.77-1.03-4.4-3.72-4.4-2.29 0-4.13 1.21-4.13 4.7 0 3.44 1.78 4.43 4.47 4.43zm-2.28-5.4c.08-1.44.85-2.2 1.86-2.2 1.1 0 1.62.87 1.6 2.2h-3.45zm7.47 5.2h2.12v-6.11a2.8 2.8 0 0 1 2.07-1c.5 0 .7.02 1.12.1l.3-1.76c-.29-.1-.64-.14-1.13-.14-1.1 0-1.94.75-2.36 1.34v-1.17h-2.12z"/><path clip-rule="evenodd" d="m143.03 50.22a.75.75 0 1 0 -1.06 1.06l4.5 4.5a.74.74 0 0 0 1.06 0l4.5-4.5a.75.75 0 1 0 -1.06-1.06l-3.97 3.97z" fill-rule="evenodd"/></g><path d="m431.1 129h-1.04v-7.37h-2.58v-.9h6.23l-.11.9h-2.5zm8.83-1.38a1 1 0 0 0 .12.55c.08.11.21.2.4.25l-.25.72c-.62-.08-1-.38-1.16-.9-.22.3-.5.51-.85.66a2.7 2.7 0 0 1 -1.13.23c-.63 0-1.13-.17-1.5-.53a1.89 1.89 0 0 1 -.54-1.41c0-.65.25-1.15.76-1.5a3.86 3.86 0 0 1 2.2-.53h.93v-.52c0-.44-.13-.76-.38-.96-.26-.2-.63-.3-1.12-.3-.48 0-1.03.11-1.64.33l-.28-.77c.75-.26 1.44-.4 2.08-.4.76 0 1.35.18 1.75.54s.61.86.61 1.5zm-2.62.76a2 2 0 0 0 1.6-.9v-1.62h-.91c-.67 0-1.16.1-1.45.33-.3.23-.45.55-.45.99 0 .8.4 1.2 1.21 1.2zm6.29-4.88a2.2 2.2 0 0 1 1.81-.96c.8 0 1.4.3 1.79.87.38.57.57 1.38.57 2.42a4 4 0 0 1 -.65 2.4c-.44.6-1.06.9-1.85.9-.73 0-1.3-.26-1.72-.79l-.07.66h-.89v-8.87l1-.12v3.5zm1.44 4.82c.53 0 .93-.21 1.21-.63.29-.41.43-1.03.43-1.86 0-.81-.13-1.43-.38-1.85a1.22 1.22 0 0 0 -1.12-.62c-.32 0-.61.1-.88.29s-.5.43-.7.72v3.13c.17.26.38.46.62.6.25.14.52.22.82.22zm7.22-.88c0 .57.35.85 1.04.85.33 0 .68-.07 1.06-.21l.26.73c-.4.21-.9.32-1.5.32-.57 0-1.02-.15-1.37-.47-.33-.3-.5-.73-.5-1.27v-6.45h-1.94v-.8h2.95zm5.53-1.25c.02.7.2 1.22.53 1.57.35.36.78.53 1.3.53.31 0 .6-.04.85-.13.27-.1.55-.24.84-.43l.47.67a3.52 3.52 0 0 1 -2.16.73c-.91 0-1.62-.3-2.13-.89a3.6 3.6 0 0 1 -.76-2.4c0-.63.11-1.2.33-1.69.23-.5.55-.9.96-1.17.42-.3.9-.44 1.46-.44.8 0 1.42.28 1.88.84s.7 1.31.7 2.27c0 .19-.01.37-.03.54zm1.7-2.82c-.49 0-.88.18-1.19.53-.3.34-.48.85-.51 1.52h3.28c0-.66-.15-1.17-.43-1.52a1.4 1.4 0 0 0 -1.15-.53zm16.15-.83c.26 0 .56.05.9.14l-.15 2.14h-.82v-1.35h-.06c-.97 0-1.67.7-2.07 2.09v2.66h1.28v.78h-3.29v-.78h1v-4.76h-1v-.78h1.75l.2 1.5c.25-.55.56-.96.9-1.23.37-.27.82-.4 1.36-.4zm5.34 0c.87 0 1.54.3 2 .9.47.58.71 1.38.71 2.4 0 .98-.24 1.78-.72 2.4-.47.6-1.14.9-2 .9-.88 0-1.55-.3-2.02-.88-.47-.6-.7-1.4-.7-2.42 0-1 .23-1.8.7-2.4.48-.6 1.16-.9 2.03-.9zm0 .83c-.55 0-.97.2-1.24.61a3.4 3.4 0 0 0 -.4 1.86c0 .84.13 1.46.4 1.86.26.4.68.6 1.23.6s.96-.2 1.22-.6c.27-.4.4-1.03.4-1.87 0-.83-.13-1.45-.4-1.85-.26-.4-.67-.6-1.21-.6zm8.05 5.63-.83-4.63-.89 4.63h-1.4l-1.13-6.32h1.02l.81 5.7 1.01-4.9h1.2l.94 4.9.81-5.7h.98l-1.1 6.32zm6.09-.7c.48 0 .86-.09 1.14-.27a.84.84 0 0 0 .42-.73c0-.21-.04-.38-.11-.5a.91.91 0 0 0 -.43-.37 4.88 4.88 0 0 0 -.99-.33 4.85 4.85 0 0 1 -1.63-.66c-.35-.27-.53-.66-.53-1.17 0-.53.22-.95.66-1.26a2.95 2.95 0 0 1 1.74-.47c.88 0 1.65.24 2.3.7l-.45.7a3.23 3.23 0 0 0 -1.82-.58c-.91 0-1.37.28-1.37.83 0 .19.05.35.14.47.1.12.27.22.5.32.23.09.57.2 1.03.32.69.19 1.2.42 1.53.71.35.28.52.7.52 1.24 0 .63-.26 1.1-.77 1.41-.51.32-1.14.47-1.88.47-1 0-1.82-.28-2.47-.85l.56-.66a2.98 2.98 0 0 0 1.9.68zm15.5.7-.84-4.63-.88 4.63h-1.4l-1.14-6.32h1.02l.82 5.7 1-4.9h1.2l.94 4.9.82-5.7h.97l-1.09 6.32h-1.43zm6.32-9.28c.23 0 .4.07.54.2.14.14.2.3.2.51a.7.7 0 0 1 -.2.52.76.76 0 0 1 -.54.19.74.74 0 0 1 -.52-.2.72.72 0 0 1 -.2-.5c0-.22.07-.38.2-.51.13-.14.3-.2.52-.2zm.8 8.48h1.78v.8h-4.72v-.8h1.94v-4.72h-1.88v-.8h2.89v5.52zm9.03.48a3.57 3.57 0 0 1 -1.7.46c-.67 0-1.2-.18-1.57-.52a1.8 1.8 0 0 1 -.56-1.38v-3.77h-1.45v-.8h1.45v-1.42l1-.12v1.55h2.2l-.13.79h-2.06v3.75c0 .36.1.63.28.8.2.18.5.27.93.27s.84-.1 1.21-.3zm3.17-5.13a2.57 2.57 0 0 1 2.03-1c1.18 0 1.78.62 1.78 1.87v4.58h-1.01v-4.57c0-.38-.09-.65-.27-.82-.17-.17-.45-.26-.84-.26-.32 0-.64.1-.94.31-.3.2-.56.45-.75.73v4.61h-1v-8.86l1-.1zm-98.51 18.84c0 .25-.1.46-.28.63a.89.89 0 0 1 -.63.26.89.89 0 0 1 -.9-.9c0-.22.06-.48.2-.77l.98-2.08h.8l-.5 2.21c.1.06.18.16.23.28.07.12.1.24.1.37zm9.4 2.43c0 1.57-.36 2.66-1.08 3.27-.72.6-1.6.91-2.66.91h-1.9v-8.27h1.76c1.17 0 2.1.3 2.81.88.72.58 1.07 1.65 1.07 3.21zm-1.12 0c0-.9-.12-1.58-.37-2.05-.24-.48-.54-.8-.9-.95a3.02 3.02 0 0 0 -1.23-.24h-.97v6.58h.98c.71 0 1.3-.24 1.77-.73.49-.5.72-1.37.72-2.6zm3.69 1.37c.02.7.2 1.22.54 1.57.34.36.77.53 1.3.53.3 0 .59-.04.84-.13.27-.1.55-.24.84-.43l.47.67a3.52 3.52 0 0 1 -2.16.73c-.91 0-1.62-.3-2.13-.89a3.6 3.6 0 0 1 -.76-2.4c0-.63.11-1.2.34-1.69.22-.5.54-.9.95-1.17.42-.3.9-.44 1.46-.44.8 0 1.43.28 1.88.84.46.56.7 1.31.7 2.27 0 .19-.01.37-.03.54h-4.25zm1.7-2.82c-.49 0-.89.18-1.19.53-.3.34-.48.85-.52 1.52h3.3c-.01-.66-.16-1.17-.44-1.52a1.4 1.4 0 0 0 -1.15-.53zm8.42-3.36c.6 0 1.17.11 1.71.34l-.32.75c-.4-.17-.85-.26-1.36-.26-.88 0-1.32.35-1.32 1.04v1.29h2.14l-.1.8h-2.04v5.03h-1.02v-5.03h-1.5v-.8h1.5v-1.26c0-.57.22-1.03.65-1.37.44-.35 1-.53 1.66-.53zm8 7.61a1 1 0 0 0 .12.55c.08.11.2.2.4.25l-.26.72c-.61-.08-1-.38-1.15-.9-.23.3-.5.51-.85.66a2.7 2.7 0 0 1 -1.13.23c-.63 0-1.13-.17-1.5-.53a1.89 1.89 0 0 1 -.54-1.41c0-.65.25-1.15.75-1.5a3.86 3.86 0 0 1 2.2-.53h.94v-.52c0-.44-.13-.76-.39-.96-.25-.2-.63-.3-1.11-.3s-1.03.11-1.65.33l-.27-.77c.74-.26 1.43-.4 2.07-.4.77 0 1.36.18 1.75.54.41.36.62.86.62 1.5zm-2.62.76a2 2 0 0 0 1.6-.9v-1.62h-.92c-.67 0-1.15.1-1.45.33s-.44.55-.44.99c0 .8.4 1.2 1.21 1.2zm6.29-1.22c0 .41.08.71.25.9s.44.28.81.28c.34 0 .66-.1.98-.29.3-.19.56-.43.74-.72v-4.65h1v6.32h-.86l-.08-.85a2.6 2.6 0 0 1 -2.03.98c-.6 0-1.06-.16-1.37-.48-.3-.32-.45-.78-.45-1.38v-4.6h1v4.5zm8.65.28c0 .57.35.85 1.05.85.33 0 .68-.07 1.05-.21l.27.73c-.4.21-.9.32-1.5.32-.57 0-1.03-.15-1.37-.47-.34-.3-.5-.73-.5-1.27v-6.45h-1.95v-.8h2.95zm9.76 1.24a3.57 3.57 0 0 1 -1.7.46c-.67 0-1.2-.18-1.57-.52a1.8 1.8 0 0 1 -.56-1.38v-3.77h-1.45v-.8h1.45v-1.42l1-.12v1.55h2.2l-.13.79h-2.06v3.75c0 .36.1.63.28.8.2.18.5.27.93.27s.83-.1 1.2-.3l.4.69zm3.72-8.27c0-.24.1-.45.28-.61a.9.9 0 0 1 .63-.27.9.9 0 0 1 .65.25c.19.17.28.38.28.63 0 .11-.02.22-.05.33-.03.12-.1.27-.18.46l-.98 2.08h-.8l.5-2.21a.9.9 0 0 1 -.24-.28.9.9 0 0 1 -.09-.38zm15.67 2.13c1.52 0 2.29 1.1 2.29 3.3 0 1-.21 1.8-.63 2.4-.41.6-1.02.9-1.8.9-.7 0-1.26-.25-1.69-.73v3.01l-1 .12v-8.86h.86l.08.88c.23-.32.5-.58.83-.75a2.2 2.2 0 0 1 1.06-.27zm-.25.82c-.31 0-.61.1-.88.29s-.5.43-.7.72v3.13c.17.25.38.44.63.59.25.13.53.2.82.2.53 0 .92-.2 1.18-.6s.4-1.03.4-1.86-.12-1.45-.35-1.86c-.23-.4-.6-.61-1.1-.61zm9.14 4.26a1 1 0 0 0 .12.55c.08.11.22.2.4.25l-.25.72c-.62-.08-1-.38-1.15-.9-.23.3-.51.51-.86.66a2.7 2.7 0 0 1 -1.12.23c-.64 0-1.14-.17-1.5-.53a1.89 1.89 0 0 1 -.54-1.41c0-.65.25-1.15.75-1.5a3.86 3.86 0 0 1 2.2-.53h.93v-.52c0-.44-.12-.76-.38-.96s-.63-.3-1.12-.3c-.48 0-1.02.11-1.64.33l-.28-.77c.75-.26 1.44-.4 2.08-.4.77 0 1.35.18 1.75.54.41.36.61.86.61 1.5zm-2.61.76a2 2 0 0 0 1.6-.9v-1.62h-.92c-.67 0-1.15.1-1.45.33s-.44.55-.44.99c0 .8.4 1.2 1.2 1.2zm10.07-8.25v8.87h-.88l-.1-.83c-.23.32-.5.56-.8.72s-.64.24-.99.24c-.8 0-1.4-.29-1.81-.87-.4-.59-.6-1.4-.6-2.42 0-.63.1-1.2.3-1.69.2-.5.48-.9.85-1.17a2.1 2.1 0 0 1 1.32-.44c.7 0 1.27.26 1.7.76v-3.29zm-2.44 3.23c-.53 0-.94.2-1.23.62a3.35 3.35 0 0 0 -.42 1.86c0 .82.13 1.44.39 1.86s.64.63 1.14.63c.6 0 1.12-.34 1.56-1.01v-3.14a1.81 1.81 0 0 0 -.64-.6 1.57 1.57 0 0 0 -.8-.22zm9.64-3.23v8.87h-.89l-.1-.83c-.23.32-.5.56-.8.72s-.63.24-.98.24c-.8 0-1.4-.29-1.81-.87-.4-.59-.6-1.4-.6-2.42 0-.63.1-1.2.3-1.69.2-.5.48-.9.85-1.17a2.1 2.1 0 0 1 1.32-.44c.7 0 1.26.26 1.7.76v-3.29l1 .12zm-2.45 3.23c-.53 0-.94.2-1.22.62a3.35 3.35 0 0 0 -.42 1.86c0 .82.13 1.44.38 1.86.26.42.64.63 1.14.63.6 0 1.12-.34 1.56-1.01v-3.14a1.81 1.81 0 0 0 -.63-.6 1.57 1.57 0 0 0 -.8-.22zm7.24-3.64c.23 0 .4.07.54.2.14.14.2.3.2.51a.7.7 0 0 1 -.2.52.76.76 0 0 1 -.54.19.74.74 0 0 1 -.52-.2.72.72 0 0 1 -.2-.5c0-.22.07-.38.2-.51.13-.14.3-.2.52-.2zm.8 8.48h1.78v.8h-4.72v-.8h1.94v-4.72h-1.88v-.8h2.89v5.52zm4-5.52h.86l.09.88c.25-.32.56-.56.93-.74.39-.18.77-.28 1.16-.28 1.18 0 1.77.63 1.77 1.88v4.58h-1v-3.84c0-.47-.03-.83-.09-1.08a.89.89 0 0 0 -.3-.55c-.15-.12-.38-.18-.7-.18-.34 0-.66.1-.97.31-.3.2-.55.46-.74.74v4.6h-1.01zm12.64.28c-.24.08-.5.14-.78.16s-.63.02-1.07.02c.74.34 1.1.87 1.1 1.6 0 .64-.2 1.16-.63 1.56-.42.4-1 .59-1.74.59-.37 0-.69-.05-.94-.13a.9.9 0 0 0 -.25.27.75.75 0 0 0 -.08.34c0 .36.28.54.84.54h1.14c.42 0 .8.07 1.13.23.34.14.61.34.8.6.2.27.3.56.3.88 0 .62-.26 1.1-.79 1.42-.52.34-1.26.5-2.22.5-.98 0-1.66-.15-2.06-.45s-.6-.79-.6-1.45h.9c0 .26.06.47.15.62.1.16.28.28.53.35.26.08.62.12 1.08.12.68 0 1.18-.09 1.5-.27.33-.17.5-.43.5-.78a.75.75 0 0 0 -.4-.67c-.27-.15-.6-.23-1.02-.23h-1.13c-.52 0-.92-.1-1.19-.33a1.1 1.1 0 0 1 -.23-1.45c.12-.2.3-.38.52-.52a1.98 1.98 0 0 1 -.8-.7 2.04 2.04 0 0 1 -.26-1.04 2.06 2.06 0 0 1 1.2-1.9c.39-.2.83-.3 1.32-.3.72 0 1.27-.04 1.65-.12.37-.08.78-.21 1.23-.4zm-3.19.33c-.49 0-.86.13-1.1.4-.25.25-.38.6-.38 1.05s.13.8.38 1.08c.25.26.63.4 1.13.4.44 0 .78-.13 1.01-.39.25-.26.37-.63.37-1.1 0-.96-.47-1.44-1.4-1.44zm-116.02 21.51c0 .82.09 1.53.27 2.14.19.6.46 1.14.82 1.64.37.49.85 1 1.46 1.55l-.51.55c-.7-.57-1.28-1.13-1.73-1.68a6.31 6.31 0 0 1 -1.37-4.2 6.31 6.31 0 0 1 1.37-4.2c.45-.55 1.02-1.11 1.73-1.68l.51.55a10.8 10.8 0 0 0 -1.47 1.55 5.36 5.36 0 0 0 -.82 1.64c-.18.6-.26 1.32-.26 2.14zm10.84 3.38v.82h-4.76v-.82h2.02v-6.34l-1.88 1.14-.44-.71 2.46-1.54h.88v7.45zm4.95-4.56c.43 0 .82.1 1.18.3.36.18.64.48.85.87.2.38.31.86.31 1.43 0 .59-.12 1.1-.35 1.56a2.48 2.48 0 0 1 -2.25 1.35c-.96 0-1.66-.35-2.1-1.04a5.7 5.7 0 0 1 -.65-2.99c0-.91.12-1.7.36-2.38.25-.68.6-1.2 1.06-1.57a2.58 2.58 0 0 1 1.65-.55c.6 0 1.15.16 1.64.5l-.4.66c-.38-.23-.8-.34-1.25-.34-.63 0-1.13.3-1.49.88a4.9 4.9 0 0 0 -.55 2.43c.25-.39.55-.67.88-.84.32-.18.7-.27 1.11-.27zm-.26 4.7c.5 0 .9-.18 1.16-.54.27-.37.4-.88.4-1.53 0-1.2-.48-1.81-1.45-1.81-.39 0-.74.1-1.05.32-.3.21-.56.5-.78.86.02.93.16 1.62.43 2.05s.7.65 1.29.65zm7.53-5.78c1.53 0 2.29 1.1 2.29 3.3 0 1-.2 1.8-.62 2.4s-1.02.9-1.82.9c-.68 0-1.24-.25-1.68-.73v3.01l-1 .12v-8.86h.86l.08.88c.24-.32.51-.58.83-.75a2.2 2.2 0 0 1 1.06-.27zm-.24.82c-.32 0-.62.1-.89.29-.26.19-.5.43-.7.72v3.13c.17.25.38.44.63.59.25.13.53.2.83.2.52 0 .92-.2 1.17-.6.27-.4.4-1.03.4-1.86s-.12-1.45-.35-1.86c-.23-.4-.6-.61-1.1-.61zm4.07 5.64 2.33-3.34-2.05-2.98h1.2l1.46 2.35 1.48-2.35h1.16l-2.05 2.94 2.33 3.38h-1.23l-1.73-2.71-1.75 2.71zm11.17-4.2c0-.82-.1-1.54-.27-2.14a5.03 5.03 0 0 0 -.82-1.64c-.36-.49-.85-1-1.46-1.55l.51-.55c.7.57 1.28 1.13 1.72 1.68s.78 1.17 1.02 1.85.36 1.46.36 2.35-.12 1.67-.36 2.35-.57 1.3-1.02 1.85c-.44.55-1.01 1.11-1.72 1.68l-.51-.55c.6-.55 1.09-1.06 1.45-1.55.37-.5.64-1.04.83-1.64.18-.61.27-1.32.27-2.14zm-41.52 143.2h-1.04v-7.37h-2.58v-.9h6.23l-.11.9h-2.5zm8.83-1.38a1 1 0 0 0 .12.55c.08.11.21.2.4.25l-.25.72c-.62-.08-1-.38-1.16-.9-.22.3-.5.51-.85.66a2.7 2.7 0 0 1 -1.13.23c-.63 0-1.13-.17-1.5-.53a1.89 1.89 0 0 1 -.54-1.41c0-.65.25-1.15.76-1.5a3.86 3.86 0 0 1 2.2-.53h.93v-.52c0-.44-.13-.76-.38-.96-.26-.2-.63-.3-1.12-.3-.48 0-1.03.11-1.64.33l-.28-.77c.75-.26 1.44-.4 2.08-.4.76 0 1.35.18 1.75.54s.61.86.61 1.5zm-2.62.76a2 2 0 0 0 1.6-.9v-1.62h-.91c-.67 0-1.16.1-1.45.33-.3.23-.45.55-.45.99 0 .8.4 1.2 1.21 1.2zm6.29-4.88a2.2 2.2 0 0 1 1.81-.96c.8 0 1.4.3 1.79.87.38.57.57 1.38.57 2.42a4 4 0 0 1 -.65 2.4c-.44.6-1.06.9-1.85.9-.73 0-1.3-.26-1.72-.79l-.07.66h-.89v-8.87l1-.12v3.5zm1.44 4.82c.53 0 .93-.21 1.21-.63.29-.41.43-1.03.43-1.86 0-.81-.13-1.43-.38-1.85a1.22 1.22 0 0 0 -1.12-.62c-.32 0-.61.1-.88.29s-.5.43-.7.72v3.13c.17.26.38.46.62.6.25.14.52.22.82.22zm7.22-.88c0 .57.35.85 1.04.85.33 0 .68-.07 1.06-.21l.26.73c-.4.21-.9.32-1.5.32-.57 0-1.02-.15-1.37-.47-.33-.3-.5-.73-.5-1.27v-6.45h-1.94v-.8h2.95zm5.53-1.25c.02.7.2 1.22.53 1.57.35.36.78.53 1.3.53.31 0 .6-.04.85-.13.27-.1.55-.24.84-.43l.47.67a3.52 3.52 0 0 1 -2.16.73c-.91 0-1.62-.3-2.13-.89a3.6 3.6 0 0 1 -.76-2.4c0-.63.11-1.2.33-1.69.23-.5.55-.9.96-1.17.42-.3.9-.44 1.46-.44.8 0 1.42.28 1.88.84s.7 1.31.7 2.27c0 .19-.01.37-.03.54zm1.7-2.82c-.49 0-.88.18-1.19.53-.3.34-.48.85-.51 1.52h3.28c0-.66-.15-1.17-.43-1.52a1.4 1.4 0 0 0 -1.15-.53zm16.15-.83c.26 0 .56.05.9.14l-.15 2.14h-.82v-1.35h-.06c-.97 0-1.67.7-2.07 2.09v2.66h1.28v.78h-3.29v-.78h1v-4.76h-1v-.78h1.75l.2 1.5c.25-.55.56-.96.9-1.23.37-.27.82-.4 1.36-.4zm5.34 0c.87 0 1.54.3 2 .9.47.58.71 1.38.71 2.4 0 .98-.24 1.78-.72 2.4-.47.6-1.14.9-2 .9-.88 0-1.55-.3-2.02-.88-.47-.6-.7-1.4-.7-2.42 0-1 .23-1.8.7-2.4.48-.6 1.16-.9 2.03-.9zm0 .83c-.55 0-.97.2-1.24.61a3.4 3.4 0 0 0 -.4 1.86c0 .84.13 1.46.4 1.86.26.4.68.6 1.23.6s.96-.2 1.22-.6c.27-.4.4-1.03.4-1.87 0-.83-.13-1.45-.4-1.85-.26-.4-.67-.6-1.21-.6zm8.05 5.63-.83-4.63-.89 4.63h-1.4l-1.13-6.32h1.02l.81 5.7 1.01-4.9h1.2l.94 4.9.81-5.7h.98l-1.1 6.32zm6.09-.7c.48 0 .86-.09 1.14-.27a.84.84 0 0 0 .42-.73c0-.21-.04-.38-.11-.5a.91.91 0 0 0 -.43-.37 4.88 4.88 0 0 0 -.99-.33 4.85 4.85 0 0 1 -1.63-.66c-.35-.27-.53-.66-.53-1.17 0-.53.22-.95.66-1.26a2.95 2.95 0 0 1 1.74-.47c.88 0 1.65.24 2.3.7l-.45.7a3.23 3.23 0 0 0 -1.82-.58c-.91 0-1.37.28-1.37.83 0 .19.05.35.14.47.1.12.27.22.5.32.23.09.57.2 1.03.32.69.19 1.2.42 1.53.71.35.28.52.7.52 1.24 0 .63-.26 1.1-.77 1.41-.51.32-1.14.47-1.88.47-1 0-1.82-.28-2.47-.85l.56-.66a2.98 2.98 0 0 0 1.9.68zm15.5.7-.84-4.63-.88 4.63h-1.4l-1.14-6.32h1.02l.82 5.7 1-4.9h1.2l.94 4.9.82-5.7h.97l-1.09 6.32h-1.43zm6.32-9.28c.23 0 .4.07.54.2.14.14.2.3.2.51a.7.7 0 0 1 -.2.52.76.76 0 0 1 -.54.19.74.74 0 0 1 -.52-.2.72.72 0 0 1 -.2-.5c0-.22.07-.38.2-.51.13-.14.3-.2.52-.2zm.8 8.48h1.78v.8h-4.72v-.8h1.94v-4.72h-1.88v-.8h2.89v5.52zm9.03.48a3.57 3.57 0 0 1 -1.7.46c-.67 0-1.2-.18-1.57-.52a1.8 1.8 0 0 1 -.56-1.38v-3.77h-1.45v-.8h1.45v-1.42l1-.12v1.55h2.2l-.13.79h-2.06v3.75c0 .36.1.63.28.8.2.18.5.27.93.27s.84-.1 1.21-.3zm3.17-5.13a2.57 2.57 0 0 1 2.03-1c1.18 0 1.78.62 1.78 1.87v4.58h-1.01v-4.57c0-.38-.09-.65-.27-.82-.17-.17-.45-.26-.84-.26-.32 0-.64.1-.94.31-.3.2-.56.45-.75.73v4.61h-1v-8.86l1-.1zm-98.51 18.84c0 .25-.1.46-.28.63a.89.89 0 0 1 -.63.26.89.89 0 0 1 -.9-.9c0-.22.06-.48.2-.77l.98-2.08h.8l-.5 2.21c.1.06.18.16.23.28.07.12.1.24.1.37zm9.2 4.32c0 .48-.11.9-.35 1.27-.24.36-.59.64-1.04.85a4.89 4.89 0 0 1 -3.26.04c-.5-.19-.92-.45-1.27-.78l.63-.71c.3.29.64.5 1 .66.38.15.8.23 1.29.23.54 0 1-.13 1.37-.4.36-.26.55-.64.55-1.14 0-.28-.06-.51-.16-.7-.1-.18-.29-.34-.55-.49a5.3 5.3 0 0 0 -1.1-.42 5.95 5.95 0 0 1 -2-.92 1.8 1.8 0 0 1 -.66-1.46c0-.41.12-.78.34-1.1.22-.34.54-.59.95-.76a4.1 4.1 0 0 1 2.84-.04c.43.16.83.4 1.19.7l-.63.68a2.92 2.92 0 0 0 -1.97-.74c-.49 0-.88.1-1.2.3-.3.22-.46.52-.46.92 0 .24.06.44.2.61.12.17.33.33.63.47s.7.3 1.24.44c.78.23 1.38.52 1.8.88s.63.9.63 1.6zm6.13-4.17c.36 0 .65.13.87.39.23.25.35.7.35 1.37v4.7h-.93v-4.54c0-.44-.02-.73-.08-.88-.06-.16-.2-.24-.4-.24-.42 0-.78.25-1.11.75v4.91h-.94v-4.54c0-.44-.02-.73-.08-.88-.06-.16-.2-.24-.4-.24-.42 0-.79.25-1.11.75v4.91h-.93v-6.32h.78l.08.74c.19-.28.39-.5.6-.65s.47-.23.76-.23c.6 0 .97.28 1.14.84.2-.27.4-.48.62-.62.21-.14.47-.22.77-.22zm7.56 5.08a1 1 0 0 0 .12.55c.08.11.21.2.4.25l-.25.72c-.62-.08-1-.38-1.16-.9-.22.3-.5.51-.85.66a2.7 2.7 0 0 1 -1.13.23c-.63 0-1.13-.17-1.5-.53a1.89 1.89 0 0 1 -.54-1.41c0-.65.26-1.15.76-1.5a3.86 3.86 0 0 1 2.2-.53h.93v-.52c0-.44-.13-.76-.38-.96-.26-.2-.63-.3-1.12-.3-.48 0-1.03.11-1.64.33l-.28-.77c.75-.26 1.44-.4 2.08-.4.77 0 1.35.18 1.75.54s.61.86.61 1.5zm-2.61.76a2 2 0 0 0 1.6-.9v-1.62h-.92c-.67 0-1.16.1-1.45.33-.3.23-.45.55-.45.99 0 .8.4 1.2 1.22 1.2zm7.74-.94c0 .57.35.85 1.05.85.32 0 .68-.07 1.05-.21l.27.73c-.4.21-.9.32-1.5.32-.57 0-1.03-.15-1.37-.47-.34-.3-.5-.73-.5-1.27v-6.45h-1.95v-.8h2.95zm7.2 0c0 .57.35.85 1.04.85.33 0 .68-.07 1.06-.21l.26.73c-.4.21-.9.32-1.5.32-.56 0-1.02-.15-1.37-.47-.33-.3-.5-.73-.5-1.27v-6.45h-1.94v-.8h2.95zm6.28-7.03c0-.24.1-.45.28-.61a.9.9 0 0 1 .63-.27.9.9 0 0 1 .65.25c.19.17.28.38.28.63 0 .11-.02.22-.05.33-.03.12-.1.27-.18.46l-.98 2.08h-.8l.5-2.21a.9.9 0 0 1 -.24-.28.9.9 0 0 1 -.09-.38zm15.67 2.13c1.52 0 2.29 1.1 2.29 3.3 0 1-.21 1.8-.63 2.4-.41.6-1.02.9-1.8.9-.7 0-1.26-.25-1.69-.73v3.01l-1 .12v-8.86h.86l.08.88c.23-.32.5-.58.83-.75a2.2 2.2 0 0 1 1.06-.27zm-.25.82c-.31 0-.61.1-.88.29s-.5.43-.7.72v3.13c.17.25.38.44.63.59.25.13.53.2.82.2.53 0 .92-.2 1.18-.6s.4-1.03.4-1.86-.12-1.45-.35-1.86c-.24-.4-.6-.61-1.1-.61zm9.14 4.26a1 1 0 0 0 .12.55c.08.11.22.2.4.25l-.25.72c-.62-.08-1-.38-1.15-.9-.23.3-.51.51-.86.66a2.7 2.7 0 0 1 -1.12.23c-.64 0-1.14-.17-1.5-.53a1.89 1.89 0 0 1 -.54-1.41c0-.65.25-1.15.75-1.5a3.86 3.86 0 0 1 2.2-.53h.93v-.52c0-.44-.12-.76-.38-.96s-.63-.3-1.12-.3c-.48 0-1.02.11-1.64.33l-.28-.77c.75-.26 1.44-.4 2.08-.4.77 0 1.35.18 1.75.54.41.36.61.86.61 1.5zm-2.61.76a2 2 0 0 0 1.6-.9v-1.62h-.92c-.67 0-1.15.1-1.45.33s-.44.55-.44.99c0 .8.4 1.2 1.2 1.2zm10.07-8.25v8.87h-.88l-.1-.83c-.23.32-.5.56-.8.72s-.64.24-.99.24c-.8 0-1.4-.29-1.81-.87-.4-.59-.6-1.4-.6-2.42 0-.63.1-1.2.3-1.69.2-.5.48-.9.85-1.17a2.1 2.1 0 0 1 1.32-.44c.7 0 1.26.26 1.7.76v-3.29zm-2.44 3.23c-.53 0-.94.2-1.23.62a3.35 3.35 0 0 0 -.42 1.86c0 .82.13 1.44.38 1.86.27.42.65.63 1.14.63.6 0 1.13-.34 1.56-1.01v-3.14a1.81 1.81 0 0 0 -.63-.6 1.57 1.57 0 0 0 -.8-.22zm9.64-3.23v8.87h-.89l-.1-.83c-.23.32-.5.56-.8.72s-.63.24-.98.24c-.8 0-1.4-.29-1.82-.87-.4-.59-.6-1.4-.6-2.42 0-.63.1-1.2.3-1.69.2-.5.49-.9.86-1.17a2.1 2.1 0 0 1 1.32-.44c.7 0 1.26.26 1.7.76v-3.29l1 .12zm-2.45 3.23c-.53 0-.94.2-1.22.62a3.35 3.35 0 0 0 -.42 1.86c0 .82.12 1.44.38 1.86s.64.63 1.14.63c.6 0 1.12-.34 1.56-1.01v-3.14a1.81 1.81 0 0 0 -.64-.6 1.57 1.57 0 0 0 -.8-.22zm7.24-3.64c.23 0 .4.07.54.2.14.14.2.3.2.51a.7.7 0 0 1 -.2.52.76.76 0 0 1 -.54.19.74.74 0 0 1 -.52-.2.72.72 0 0 1 -.2-.5c0-.22.07-.38.2-.51.13-.14.3-.2.52-.2zm.8 8.48h1.78v.8h-4.72v-.8h1.94v-4.72h-1.88v-.8h2.89v5.52zm4-5.52h.86l.09.88c.24-.32.56-.56.93-.74.39-.18.77-.28 1.15-.28 1.19 0 1.78.63 1.78 1.88v4.58h-1v-3.84c0-.47-.03-.83-.1-1.08a.89.89 0 0 0 -.3-.55c-.14-.12-.38-.18-.69-.18-.34 0-.67.1-.97.31-.3.2-.55.46-.74.74v4.6h-1.01zm12.64.28c-.24.08-.5.14-.78.16s-.63.02-1.07.02c.74.34 1.1.87 1.1 1.6 0 .64-.2 1.16-.63 1.56-.42.4-1 .59-1.74.59-.37 0-.69-.05-.95-.13a.9.9 0 0 0 -.24.27.75.75 0 0 0 -.08.34c0 .36.28.54.84.54h1.14c.42 0 .8.07 1.13.23.34.14.61.34.8.6.2.27.3.56.3.88 0 .62-.26 1.1-.79 1.42-.52.34-1.26.5-2.22.5-.98 0-1.66-.15-2.06-.45s-.6-.79-.6-1.45h.9c0 .26.06.47.15.62.1.16.28.28.53.35.26.08.62.12 1.08.12.68 0 1.18-.09 1.5-.27.33-.17.5-.43.5-.78a.75.75 0 0 0 -.4-.67c-.27-.15-.6-.23-1.02-.23h-1.13c-.52 0-.92-.1-1.19-.33a1.1 1.1 0 0 1 -.23-1.45c.12-.2.3-.38.52-.52a1.98 1.98 0 0 1 -.8-.7 2.04 2.04 0 0 1 -.26-1.04 2.06 2.06 0 0 1 1.2-1.9c.39-.2.83-.3 1.32-.3.72 0 1.27-.04 1.65-.12.37-.08.78-.21 1.23-.4zm-3.19.33c-.49 0-.86.13-1.1.4-.25.25-.38.6-.38 1.05s.13.8.38 1.08c.25.26.63.4 1.12.4.45 0 .8-.13 1.02-.39.24-.26.36-.63.36-1.1 0-.96-.46-1.44-1.4-1.44zm-101.63 21.51c0 .82.09 1.53.27 2.14.19.6.46 1.14.82 1.64.37.49.85 1 1.46 1.55l-.51.55c-.7-.57-1.28-1.13-1.73-1.68a6.31 6.31 0 0 1 -1.37-4.2 6.31 6.31 0 0 1 1.37-4.2c.45-.55 1.02-1.11 1.73-1.68l.51.55a10.8 10.8 0 0 0 -1.47 1.55 5.36 5.36 0 0 0 -.82 1.64c-.18.6-.26 1.32-.26 2.14zm10.7-2.1c0 .4-.11.74-.35 1.03-.24.3-.6.58-1.07.84.56.23 1 .54 1.3.91.32.38.48.81.48 1.3a2.19 2.19 0 0 1 -1.35 2.05c-.43.2-.93.3-1.5.3s-1.07-.1-1.5-.3c-.42-.2-.75-.49-.97-.84a2.23 2.23 0 0 1 -.32-1.19c0-.92.55-1.64 1.66-2.16-.45-.21-.79-.46-1-.75-.21-.3-.32-.67-.32-1.13 0-.47.13-.87.38-1.2.24-.33.56-.57.93-.72a3.17 3.17 0 0 1 2.36-.01c.38.15.69.39.92.7.24.32.36.7.36 1.17zm-3.95.07c0 .3.06.55.2.73s.33.32.56.44c.24.1.59.23 1.06.38.4-.24.7-.47.88-.7s.27-.52.27-.87c0-.42-.13-.75-.4-.99-.25-.24-.61-.37-1.08-.37-.48 0-.85.12-1.1.36-.26.24-.4.58-.4 1.02zm3.24 4.03c0-.35-.1-.63-.27-.85s-.4-.4-.7-.53c-.27-.12-.7-.29-1.25-.49-.86.4-1.29 1.03-1.29 1.87 0 .48.15.85.45 1.12.3.26.72.4 1.28.4s1-.14 1.3-.42c.32-.28.48-.65.48-1.1zm5.87-4.26c1.53 0 2.3 1.1 2.3 3.3 0 1-.21 1.8-.63 2.4-.41.6-1.02.9-1.81.9-.69 0-1.25-.25-1.68-.73v3.01l-1 .12v-8.86h.85l.09.88c.23-.32.5-.58.83-.75a2.2 2.2 0 0 1 1.05-.27zm-.24.82c-.32 0-.61.1-.88.29s-.5.43-.7.72v3.13c.17.25.38.44.62.59.26.13.53.2.83.2.53 0 .92-.2 1.18-.6s.4-1.03.4-1.86-.12-1.45-.36-1.86c-.23-.4-.6-.61-1.09-.61zm4.08 5.64 2.33-3.34-2.06-2.98h1.2l1.47 2.35 1.47-2.35h1.17l-2.05 2.94 2.32 3.38h-1.22l-1.74-2.71-1.74 2.71zm11.17-4.2c0-.82-.1-1.54-.28-2.14a5.03 5.03 0 0 0 -.82-1.64c-.36-.49-.84-1-1.46-1.55l.51-.55c.7.57 1.28 1.13 1.72 1.68.45.55.79 1.17 1.02 1.85.24.68.36 1.46.36 2.35s-.12 1.67-.36 2.35c-.23.68-.57 1.3-1.02 1.85-.44.55-1.01 1.11-1.72 1.68l-.51-.55c.6-.55 1.1-1.06 1.45-1.55.37-.5.64-1.04.83-1.64.18-.61.28-1.32.28-2.14z" fill="#000"/><g clip-path="url(#c)"><path d="m0 288h376v40h-376z" fill="#fff"/><path d="m20.36 303.4h-.99a4.9 4.9 0 0 1 -3.36 2.03v1.3a5.7 5.7 0 0 0 2.79-1.04v10.31h1.56zm7.68 4.68c-1.04 0-1.95.38-2.56 1.03l.56-4.41h5.02v-1.3h-6.35l-.87 6.84 1.37.43a2.66 2.66 0 0 1 2.4-1.3c1.58 0 2.7 1.1 2.7 2.69 0 1.67-1.1 2.77-2.7 2.77-1.44 0-2.52-.81-2.86-2.09l-1.34.54c.58 1.8 2.05 2.86 4.2 2.86 2.52 0 4.26-1.67 4.26-4.08 0-2.4-1.58-3.98-3.83-3.98zm10.36 8.06c2.86 0 4.4-2.26 4.4-6.44s-1.54-6.44-4.4-6.44-4.4 2.26-4.4 6.44 1.54 6.44 4.4 6.44zm0-1.36c-1.87 0-2.83-1.71-2.83-5.08s.96-5.08 2.83-5.08 2.83 1.71 2.83 5.08-.96 5.08-2.83 5.08zm12.61-5.6a2.74 2.74 0 0 0 1.87-2.72c0-1.98-1.56-3.2-3.8-3.2-2.08 0-3.38 1.04-3.72 2.91l1.3.36c.25-1.3 1.04-1.98 2.43-1.98 1.34 0 2.24.76 2.24 1.98 0 1.33-.82 2.13-2.17 2.13h-1.1v1.26h1.1c1.73 0 2.8.93 2.8 2.48 0 1.44-1.11 2.43-2.77 2.43-1.54 0-2.59-.8-2.91-2.2l-1.39.54c.47 1.84 1.98 2.97 4.3 2.97 2.67 0 4.34-1.58 4.34-3.74 0-1.73-.92-2.83-2.52-3.22zm5.75 6.93c.58 0 1.05-.49 1.05-1.06 0-.58-.47-1.05-1.05-1.05-.57 0-1.06.47-1.06 1.05 0 .57.49 1.06 1.06 1.06zm7.57.03c2.86 0 4.39-2.26 4.39-6.44s-1.53-6.44-4.4-6.44c-2.85 0-4.38 2.26-4.38 6.44s1.53 6.44 4.39 6.44zm0-1.36c-1.87 0-2.83-1.71-2.83-5.08s.96-5.08 2.83-5.08 2.82 1.71 2.82 5.08-.95 5.08-2.82 5.08zm10.75-11.38h-.99a4.9 4.9 0 0 1 -3.36 2.03v1.3a5.7 5.7 0 0 0 2.79-1.04v10.31h1.56zm4.03 12.7a1.04 1.04 0 0 0 0-2.1c-.58 0-1.07.47-1.07 1.05 0 .57.49 1.06 1.07 1.06zm7.45-12.84a4.06 4.06 0 0 0 -4.14 4.14c0 2.37 1.66 4.05 3.82 4.05 1.82 0 2.86-1.1 3.2-1.93 0 2.95-.99 5.31-3.13 5.31-1.15 0-2-.6-2.3-1.8l-1.37.52c.32 1.53 1.64 2.6 3.67 2.6 3 0 4.66-2.69 4.66-7.1 0-3.69-1.56-5.8-4.4-5.8zm0 1.31c1.57 0 2.63 1.12 2.63 2.79 0 1.64-1.06 2.77-2.63 2.77-1.55 0-2.6-1.13-2.6-2.77 0-1.67 1.05-2.79 2.6-2.79zm11.33 3.51c-1.04 0-1.94.38-2.55 1.03l.56-4.41h5.02v-1.3h-6.36l-.86 6.84 1.37.43a2.66 2.66 0 0 1 2.4-1.3c1.58 0 2.7 1.1 2.7 2.69 0 1.67-1.1 2.77-2.7 2.77-1.45 0-2.53-.81-2.87-2.09l-1.33.54c.57 1.8 2.05 2.86 4.2 2.86 2.51 0 4.26-1.67 4.26-4.08 0-2.4-1.59-3.98-3.84-3.98zm10.36 8.06c2.87 0 4.4-2.26 4.4-6.44s-1.53-6.44-4.4-6.44c-2.86 0-4.39 2.26-4.39 6.44s1.53 6.44 4.4 6.44zm0-1.36c-1.87 0-2.82-1.71-2.82-5.08s.95-5.08 2.82-5.08c1.88 0 2.83 1.71 2.83 5.08s-.95 5.08-2.83 5.08zm9.03-.08 2.33-2.37c1.8-1.86 3.43-3.42 3.43-5.42 0-2.16-1.62-3.65-4-3.65-2.12 0-3.54 1.08-3.9 2.95l1.33.5c.33-1.44 1.2-2.14 2.58-2.14 1.5 0 2.45.9 2.45 2.34 0 1.37-.74 2.23-2.94 4.46l-3.53 3.6v1.03h8.03v-1.3zm12.53-11.3h-1a4.9 4.9 0 0 1 -3.36 2.03v1.3a5.7 5.7 0 0 0 2.79-1.04v10.31h1.56v-12.6zm120.82-1h-3.19v12.6h3.19c3.92 0 6.22-2.34 6.22-6.3s-2.3-6.3-6.22-6.3zm-.11 11.29h-1.46v-9.98h1.46c3.02 0 4.68 1.84 4.68 4.99s-1.66 4.99-4.68 4.99zm12.42-7.83a2.7 2.7 0 0 0 -2.57 1.67v-1.53h-1.39v9h1.57v-5.22c0-1.71 1-2.54 2.34-2.54.34 0 .59.02.8.06v-1.35c-.14-.06-.39-.1-.75-.1zm3.3-1.2c.57 0 1.03-.48 1.03-1.05 0-.58-.46-1.05-1.04-1.05s-1.06.47-1.06 1.05c0 .57.48 1.06 1.06 1.06zm-.8 10.34h1.56v-9h-1.56zm7.73-11.45c.34 0 .75.07.98.15v-1.26c-.26-.11-.82-.18-1.3-.18-1.65 0-2.6.95-2.6 2.6v1.14h-1.4v1.3h1.4v7.7h1.56v-7.7h2.22v-1.3h-2.21v-1.06c0-.9.48-1.39 1.35-1.39zm6.27 10.3c-.92 0-1.38-.43-1.38-1.3v-5.25h2.3v-1.3h-2.3v-2.8h-1.57v2.8h-1.53v1.3h1.53v5.29c0 1.64.97 2.55 2.68 2.55.52 0 1.03-.07 1.32-.18v-1.26c-.26.1-.63.15-1.05.15zm5.73 1.3c1.94 0 3.26-1.07 3.26-2.67 0-1.28-.81-2.14-2.36-2.54l-1.2-.29c-.92-.23-1.32-.6-1.32-1.26 0-.77.63-1.27 1.6-1.27.96 0 1.59.41 1.88 1.2l1.17-.68c-.44-1.15-1.52-1.78-3.05-1.78-1.85 0-3.07 1.04-3.07 2.59 0 1.22.8 2.09 2.35 2.46l1.14.3c.95.23 1.38.62 1.38 1.3 0 .87-.66 1.37-1.78 1.37-1.1 0-1.89-.46-2.32-1.36l-1.1.79c.63 1.19 1.84 1.83 3.42 1.83zm10.7-.15h1.93l-3.9-5.02 3.63-3.98h-1.97l-3.78 4.43v-8.03h-1.56v12.6h1.56v-2.66l1.17-1.3zm6.62.14c2.54 0 4.43-1.85 4.43-4.64s-1.89-4.64-4.43-4.64-4.43 1.85-4.43 4.64 1.9 4.64 4.43 4.64zm0-1.3c-1.65 0-2.86-1.32-2.86-3.34s1.2-3.35 2.86-3.35 2.87 1.33 2.87 3.35-1.21 3.35-2.87 3.35zm10.57-7.98c-1.35 0-2.43.6-2.96 1.63v-1.49h-1.4v9h1.57v-5.2c0-1.62.92-2.67 2.36-2.67 1.33 0 2.07.8 2.07 2.22v5.65h1.57v-5.72c0-2.15-1.19-3.42-3.2-3.42zm9.03 7.99c-.92 0-1.39-.43-1.39-1.3v-5.25h2.3v-1.3h-2.3v-2.8h-1.57v2.8h-1.53v1.3h1.53v5.29c0 1.64.98 2.55 2.69 2.55.52 0 1.02-.07 1.31-.18v-1.26c-.25.1-.63.15-1.04.15zm6.8 1.3c2.54 0 4.43-1.86 4.43-4.65s-1.89-4.64-4.42-4.64c-2.54 0-4.43 1.85-4.43 4.64s1.89 4.64 4.43 4.64zm0-1.3c-1.65 0-2.86-1.33-2.86-3.35s1.21-3.35 2.87-3.35c1.65 0 2.86 1.33 2.86 3.35s-1.2 3.35-2.86 3.35z" fill="#333"/></g><g clip-path="url(#d)"><path d="m0 232h376v80h-376z" fill="#d2f0e9"/><path d="m0 287h376v1h-376z" fill="#a5e1d2"/><g fill="#14555a"><rect height="1.5" rx=".75" width="102" x="247" y="272"/><path d="m248.47 266h7.09v-1.76h-4.91v-9.55h-2.18zm12.1.2c2.54 0 4.4-1.54 4.4-4.58 0-2.87-1.38-4.58-4.24-4.58-2.64 0-4.39 1.73-4.39 4.67 0 2.79 1.52 4.48 4.23 4.48zm.1-1.72c-1.66 0-2.17-1.22-2.17-2.83 0-1.5.45-2.91 2.16-2.91 1.73 0 2.13 1.4 2.13 2.9 0 1.58-.42 2.84-2.11 2.84zm6.12 1.52h2.13v-6.11a2.8 2.8 0 0 1 2.06-1c.5 0 .7.02 1.13.1l.3-1.76c-.29-.1-.64-.14-1.14-.14-1.08 0-1.93.75-2.35 1.34v-1.17h-2.13zm10.78.2c1.16 0 2.26-.18 3.14-.49l-.34-1.61c-.94.24-1.7.36-2.5.36-1.42 0-2.63-.38-2.62-2.24h5.7v-.76c0-2.77-1.02-4.4-3.71-4.4-2.29 0-4.13 1.21-4.13 4.7 0 3.44 1.78 4.43 4.46 4.43zm-2.27-5.4c.08-1.44.85-2.2 1.86-2.2 1.1 0 1.61.87 1.6 2.2zm7.46 5.2h2.13v-6.38c.6-.4 1.38-.7 2.11-.7 1.04 0 1.31.52 1.31 1.78v5.3h2.12v-5.55c0-.27-.02-.56-.05-.83.59-.39 1.37-.72 2.11-.72 1.1 0 1.36.62 1.36 1.8v5.3h2.13v-5.54c0-1.47-.03-3.42-2.75-3.42-1.25 0-2.37.7-3.08 1.31-.33-.78-1.16-1.31-2.4-1.31-1.08 0-2.08.56-2.86 1.17v-.95h-2.13zm19.28 0h2.15v-8.74h-2.15zm1.06-9.94 1.52-1.52-1.52-1.5-1.5 1.5zm3.44 13.46h2.11v-3.44c.36.03.8.08 1.35.08 2.42 0 4.64-1.23 4.64-4.85 0-2.97-1.5-4.25-3.52-4.25a3.9 3.9 0 0 0 -2.47.86v-.66h-2.1v12.26zm3.43-5c-.5 0-1.16-.12-1.32-.14v-5.07c.45-.19 1-.46 1.77-.46 1.45 0 2.06.97 2.06 2.54 0 1.81-.79 3.12-2.51 3.12zm8.67 1.67c1.7 0 3.86-.57 3.86-2.69 0-3.02-4.37-2.52-4.37-3.96 0-.45.4-.79 1.4-.79.73 0 1.53.15 2.17.34l.38-1.59c-.8-.3-1.77-.46-2.6-.46-1.88 0-3.46.86-3.46 2.67 0 3.01 4.4 2.5 4.4 3.89 0 .48-.5.85-1.73.85-.66 0-1.52-.11-2.53-.29l-.26 1.66c.77.24 1.94.37 2.74.37zm8.14 0a4.9 4.9 0 0 0 3.1-1.13v.94h2.13v-8.74h-2.13v6.37c-.53.32-1.33.69-2.29.69-1.13 0-1.34-.54-1.34-1.8v-5.26h-2.13v5.5c0 1.72.22 3.43 2.66 3.43zm7.58-.19h2.12v-6.38c.6-.4 1.38-.7 2.12-.7 1.04 0 1.3.52 1.3 1.78v5.3h2.12v-5.55c0-.27-.02-.56-.05-.83.6-.39 1.38-.72 2.11-.72 1.1 0 1.36.62 1.36 1.8v5.3h2.13v-5.54c0-1.47-.03-3.42-2.75-3.42-1.25 0-2.37.7-3.07 1.31-.34-.78-1.17-1.31-2.4-1.31-1.09 0-2.08.56-2.87 1.17v-.95h-2.12zm-317.89-1h2.18v-5.98l4.53 5.98h2.8l-4.9-6.05 4.62-5.26h-2.78l-4.27 5.17v-5.17h-2.18zm14.38.2c2.54 0 4.4-1.54 4.4-4.58 0-2.87-1.38-4.58-4.24-4.58-2.64 0-4.39 1.73-4.39 4.67 0 2.79 1.52 4.48 4.23 4.48zm.11-1.72c-1.66 0-2.18-1.22-2.18-2.83 0-1.5.45-2.91 2.16-2.91 1.73 0 2.13 1.4 2.13 2.9 0 1.58-.41 2.84-2.11 2.84zm6.11 1.52h2.13v-6.42c.6-.33 1.35-.68 2.3-.68 1.1 0 1.37.48 1.37 1.8v5.3h2.1v-5.54c0-1.72-.22-3.42-2.68-3.42a4.9 4.9 0 0 0 -3.09 1.15v-.93h-2.13zm13.55.2c.74 0 1.71-.15 2.34-.38l-.24-1.7c-.53.15-1.2.26-1.73.26-.85 0-1.2-.24-1.2-1.1v-4.38h2.7v-1.64h-2.7v-1.79h-2.13v1.8h-1.28v1.63h1.28v4.5c0 2.12 1.15 2.8 2.96 2.8zm7.54 0c2.54 0 4.4-1.54 4.4-4.58 0-2.87-1.38-4.58-4.24-4.58-2.64 0-4.38 1.73-4.38 4.67 0 2.79 1.52 4.48 4.22 4.48zm.11-1.72c-1.66 0-2.17-1.22-2.17-2.83 0-1.5.44-2.91 2.16-2.91s2.12 1.4 2.12 2.9c0 1.58-.41 2.84-2.1 2.84zm6.13 1.52h2.13v-6.42c.59-.33 1.34-.68 2.3-.68 1.09 0 1.36.48 1.36 1.8v5.3h2.11v-5.54c0-1.72-.22-3.42-2.69-3.42a4.9 4.9 0 0 0 -3.08 1.15v-.93h-2.13zm12.75.2a4.9 4.9 0 0 0 3.1-1.14v.94h2.13v-8.74h-2.13v6.37c-.53.32-1.33.69-2.29.69-1.14 0-1.34-.54-1.34-1.8v-5.26h-2.13v5.5c0 1.72.22 3.43 2.66 3.43zm7.58-.2h2.12v-6.38c.6-.4 1.38-.7 2.12-.7 1.04 0 1.3.52 1.3 1.78v5.3h2.12v-5.55c0-.27-.02-.56-.05-.83.6-.39 1.38-.72 2.11-.72 1.1 0 1.36.62 1.36 1.8v5.3h2.13v-5.54c0-1.47-.03-3.42-2.75-3.42-1.25 0-2.37.7-3.07 1.31-.34-.78-1.17-1.31-2.4-1.31-1.1 0-2.08.56-2.87 1.17v-.95h-2.12zm15.5 0h2.12v-6.38c.6-.4 1.38-.7 2.11-.7 1.05 0 1.32.52 1.32 1.78v5.3h2.1v-5.55c0-.27 0-.56-.04-.83.6-.39 1.38-.72 2.11-.72 1.1 0 1.36.62 1.36 1.8v5.3h2.13v-5.54c0-1.47-.03-3.42-2.75-3.42-1.25 0-2.37.7-3.07 1.31-.34-.78-1.17-1.31-2.4-1.31-1.1 0-2.08.56-2.87 1.17v-.95h-2.13v8.74zm19.45.2c1.15 0 2.25-.18 3.13-.49l-.33-1.61c-.95.24-1.7.36-2.52.36-1.4 0-2.62-.38-2.6-2.24h5.7v-.76c0-2.77-1.03-4.4-3.72-4.4-2.29 0-4.13 1.21-4.13 4.7 0 3.44 1.78 4.43 4.47 4.43zm-2.28-5.4c.08-1.44.85-2.2 1.86-2.2 1.1 0 1.62.87 1.6 2.2h-3.45zm7.47 5.2h2.12v-6.11a2.8 2.8 0 0 1 2.07-1c.5 0 .7.02 1.12.1l.3-1.76c-.29-.1-.64-.14-1.13-.14-1.1 0-1.94.75-2.36 1.34v-1.17h-2.12z"/><path clip-rule="evenodd" d="m143.03 258.22a.75.75 0 1 0 -1.06 1.06l4.5 4.5a.75.75 0 0 0 1.06 0l4.5-4.5a.75.75 0 1 0 -1.06-1.06l-3.97 3.97z" fill-rule="evenodd"/></g></g><g clip-path="url(#e)"><path d="m0 328h376v40h-376z" fill="#f4fbf9"/><path d="m20.36 343.4h-.99a4.9 4.9 0 0 1 -3.36 2.03v1.3a5.7 5.7 0 0 0 2.79-1.04v10.31h1.56zm7.68 4.68c-1.04 0-1.95.38-2.56 1.03l.56-4.41h5.02v-1.3h-6.35l-.87 6.84 1.37.43a2.66 2.66 0 0 1 2.4-1.3c1.58 0 2.7 1.1 2.7 2.69 0 1.67-1.1 2.77-2.7 2.77-1.44 0-2.52-.81-2.86-2.09l-1.34.54c.58 1.8 2.05 2.86 4.2 2.86 2.52 0 4.26-1.67 4.26-4.08 0-2.4-1.58-3.98-3.83-3.98zm10.36 8.06c2.86 0 4.4-2.26 4.4-6.44s-1.54-6.44-4.4-6.44-4.4 2.26-4.4 6.44 1.54 6.44 4.4 6.44zm0-1.36c-1.87 0-2.83-1.71-2.83-5.08s.96-5.08 2.83-5.08 2.83 1.71 2.83 5.08-.96 5.08-2.83 5.08zm12.61-5.6a2.74 2.74 0 0 0 1.87-2.72c0-1.98-1.56-3.2-3.8-3.2-2.08 0-3.38 1.04-3.72 2.91l1.3.36c.25-1.3 1.04-1.98 2.43-1.98 1.34 0 2.24.76 2.24 1.98 0 1.33-.82 2.13-2.17 2.13h-1.1v1.26h1.1c1.73 0 2.8.93 2.8 2.48 0 1.44-1.11 2.43-2.77 2.43-1.54 0-2.59-.8-2.91-2.2l-1.39.54c.47 1.84 1.98 2.97 4.3 2.97 2.67 0 4.34-1.58 4.34-3.74 0-1.73-.92-2.83-2.52-3.22zm5.75 6.93c.58 0 1.05-.49 1.05-1.06 0-.58-.47-1.05-1.05-1.05-.57 0-1.06.47-1.06 1.05 0 .57.49 1.06 1.06 1.06zm7.57.03c2.86 0 4.39-2.26 4.39-6.44s-1.53-6.44-4.4-6.44c-2.85 0-4.38 2.26-4.38 6.44s1.53 6.44 4.39 6.44zm0-1.36c-1.87 0-2.83-1.71-2.83-5.08s.96-5.08 2.83-5.08 2.82 1.71 2.82 5.08-.95 5.08-2.82 5.08zm10.75-11.38h-.99a4.9 4.9 0 0 1 -3.36 2.03v1.3a5.7 5.7 0 0 0 2.79-1.04v10.31h1.56zm4.03 12.7a1.04 1.04 0 0 0 0-2.1c-.58 0-1.07.47-1.07 1.05 0 .57.49 1.06 1.07 1.06zm7.45-12.84a4.06 4.06 0 0 0 -4.14 4.14c0 2.37 1.66 4.05 3.82 4.05 1.82 0 2.86-1.1 3.2-1.93 0 2.95-.99 5.31-3.13 5.31-1.15 0-2-.6-2.3-1.8l-1.37.52c.32 1.53 1.64 2.6 3.67 2.6 3 0 4.66-2.69 4.66-7.1 0-3.69-1.56-5.8-4.4-5.8zm0 1.31c1.57 0 2.63 1.12 2.63 2.79 0 1.64-1.06 2.77-2.63 2.77-1.55 0-2.6-1.13-2.6-2.77 0-1.67 1.05-2.79 2.6-2.79zm11.33 3.51c-1.04 0-1.94.38-2.55 1.03l.56-4.41h5.02v-1.3h-6.36l-.86 6.84 1.37.43a2.66 2.66 0 0 1 2.4-1.3c1.58 0 2.7 1.1 2.7 2.69 0 1.67-1.1 2.77-2.7 2.77-1.45 0-2.53-.81-2.87-2.09l-1.33.54c.57 1.8 2.05 2.86 4.2 2.86 2.51 0 4.26-1.67 4.26-4.08 0-2.4-1.59-3.98-3.84-3.98zm10.36 8.06c2.87 0 4.4-2.26 4.4-6.44s-1.53-6.44-4.4-6.44c-2.86 0-4.39 2.26-4.39 6.44s1.53 6.44 4.4 6.44zm0-1.36c-1.87 0-2.82-1.71-2.82-5.08s.95-5.08 2.82-5.08c1.88 0 2.83 1.71 2.83 5.08s-.95 5.08-2.83 5.08zm9.03-.08 2.33-2.37c1.8-1.86 3.43-3.42 3.43-5.42 0-2.16-1.62-3.65-4-3.65-2.12 0-3.54 1.08-3.9 2.95l1.33.5c.33-1.44 1.2-2.14 2.58-2.14 1.5 0 2.45.9 2.45 2.34 0 1.37-.74 2.23-2.94 4.46l-3.53 3.6v1.03h8.03v-1.3zm12.53-11.3h-1a4.9 4.9 0 0 1 -3.36 2.03v1.3a5.7 5.7 0 0 0 2.79-1.04v10.31h1.56v-12.6zm120.82-1h-3.19v12.6h3.19c3.92 0 6.22-2.34 6.22-6.3s-2.3-6.3-6.22-6.3zm-.11 11.29h-1.46v-9.98h1.46c3.02 0 4.68 1.84 4.68 4.99s-1.66 4.99-4.68 4.99zm12.42-7.83a2.7 2.7 0 0 0 -2.57 1.67v-1.53h-1.39v9h1.57v-5.22c0-1.71 1-2.54 2.34-2.54.34 0 .59.02.8.06v-1.35c-.14-.06-.39-.1-.75-.1zm3.3-1.2c.57 0 1.03-.48 1.03-1.05 0-.58-.46-1.05-1.04-1.05s-1.06.47-1.06 1.05c0 .57.48 1.06 1.06 1.06zm-.8 10.34h1.56v-9h-1.56zm7.73-11.45c.34 0 .75.07.98.15v-1.26c-.26-.11-.82-.18-1.3-.18-1.65 0-2.6.95-2.6 2.6v1.14h-1.4v1.3h1.4v7.7h1.56v-7.7h2.22v-1.3h-2.21v-1.06c0-.9.48-1.39 1.35-1.39zm6.27 10.3c-.92 0-1.38-.43-1.38-1.3v-5.25h2.3v-1.3h-2.3v-2.8h-1.57v2.8h-1.53v1.3h1.53v5.29c0 1.64.97 2.55 2.68 2.55.52 0 1.03-.07 1.32-.18v-1.26c-.26.1-.63.15-1.05.15zm5.73 1.3c1.94 0 3.26-1.07 3.26-2.67 0-1.28-.81-2.14-2.36-2.54l-1.2-.29c-.92-.23-1.32-.6-1.32-1.26 0-.77.63-1.27 1.6-1.27.96 0 1.59.41 1.88 1.2l1.17-.68c-.44-1.15-1.52-1.78-3.05-1.78-1.85 0-3.07 1.04-3.07 2.59 0 1.22.8 2.09 2.35 2.46l1.14.3c.95.23 1.38.62 1.38 1.3 0 .87-.66 1.37-1.78 1.37-1.1 0-1.89-.46-2.32-1.36l-1.1.79c.63 1.19 1.84 1.83 3.42 1.83zm10.7-.15h1.93l-3.9-5.02 3.63-3.98h-1.97l-3.78 4.43v-8.03h-1.56v12.6h1.56v-2.66l1.17-1.3zm6.62.14c2.54 0 4.43-1.85 4.43-4.64s-1.89-4.64-4.43-4.64-4.43 1.85-4.43 4.64 1.9 4.64 4.43 4.64zm0-1.3c-1.65 0-2.86-1.32-2.86-3.34s1.2-3.35 2.86-3.35 2.87 1.33 2.87 3.35-1.21 3.35-2.87 3.35zm10.57-7.98c-1.35 0-2.43.6-2.96 1.63v-1.49h-1.4v9h1.57v-5.2c0-1.62.92-2.67 2.36-2.67 1.33 0 2.07.8 2.07 2.22v5.65h1.57v-5.72c0-2.15-1.19-3.42-3.2-3.42zm9.03 7.99c-.92 0-1.39-.43-1.39-1.3v-5.25h2.3v-1.3h-2.3v-2.8h-1.57v2.8h-1.53v1.3h1.53v5.29c0 1.64.98 2.55 2.69 2.55.52 0 1.02-.07 1.31-.18v-1.26c-.25.1-.63.15-1.04.15zm6.8 1.3c2.54 0 4.43-1.86 4.43-4.65s-1.89-4.64-4.42-4.64c-2.54 0-4.43 1.85-4.43 4.64s1.89 4.64 4.43 4.64zm0-1.3c-1.65 0-2.86-1.33-2.86-3.35s1.21-3.35 2.87-3.35c1.65 0 2.86 1.33 2.86 3.35s-1.2 3.35-2.86 3.35z" fill="#333"/></g><g opacity=".4"><path d="m192 288h216v8h-216zm0 32h216v8h-216z" fill="#80ecff" opacity=".5"/><path d="m192 360h216v8h-216zm0-32h216v8h-216z" fill="#f6bfff"/></g><g opacity=".4"><path d="m192 80h216v16h-216zm0 40h216v16h-216z" fill="#80ecff" opacity=".5"/><path d="m192 136h216v16h-216zm0 40h216v16h-216z" fill="#f6bfff"/></g></svg>