<svg width="16" height="16" viewBox="0 0 16 16" fill="none" xmlns="http://www.w3.org/2000/svg"><path fill-rule="evenodd" clip-rule="evenodd" d="M4.847.9a1.75 1.75 0 00-1.75 1.75V4a.75.75 0 001.5 0V2.65a.25.25 0 01.25-.25h5.175a.25.25 0 01.191.088l2.64 3.12a.25.25 0 01.058.16v7.583a.25.25 0 01-.25.25H4.847a.25.25 0 01-.25-.25V13a.75.75 0 00-1.5 0v.35c0 .967.783 1.75 1.75 1.75h7.814a1.75 1.75 0 001.75-1.75V5.77a1.75 1.75 0 00-.414-1.13l-2.639-3.12A1.75 1.75 0 0010.022.9H4.847zm1.018 7.088v1.758c0 .247.105.351.342.351L6.188 11c-.123.057-.37.095-.598.095-.504 0-.846-.247-.969-.675-.266.418-.77.675-1.406.675-.979 0-1.615-.56-1.615-1.406 0-.855.541-1.32 1.767-1.51l1.111-.172v-.076c0-.446-.313-.722-.817-.722a.898.898 0 00-.864.59l-1.045-.533c.304-.731.978-1.111 1.985-1.111 1.368 0 2.128.655 2.128 1.833zM2.911 9.632c0 .275.256.494.57.494.627 0 .997-.475.997-1.254l-.769.123c-.551.086-.798.285-.798.637z" fill="#000"/></svg>