<svg width="24" height="24" viewBox="0 0 24 24" fill="none" xmlns="http://www.w3.org/2000/svg"><path d="M5 4.25a.75.75 0 000 1.5v-1.5zm5.5 1.5a.75.75 0 000-1.5v1.5zM5 7.25a.75.75 0 000 1.5v-1.5zm8.5 1.5a.75.75 0 000-1.5v1.5zM5 18.25a.75.75 0 000 1.5v-1.5zm3.5 1.5a.75.75 0 000-1.5v1.5zM17.75 9a.75.75 0 001.5 0h-1.5zM2.5 1v.75V1zm10.036 0V.25 1zM11 23.75a.75.75 0 000-1.5v1.5zm7.263-16.53l.573-.484-.573.484zM13.3 1.354l-.573.485.573-.485zM16.85 20.1a.75.75 0 001.5 0h-1.5zm1.5-5a.75.75 0 00-1.5 0h1.5zm1.75 3.25a.75.75 0 000-1.5v1.5zm-5-1.5a.75.75 0 000 1.5v-1.5zM5 5.75h5.5v-1.5H5v1.5zm0 3h8.5v-1.5H5v1.5zm0 11h3.5v-1.5H5v1.5zM17.75 7.866V9h1.5V7.866h-1.5zM2.5 1.75h10.036V.25H2.5v1.5zm0 22H11v-1.5H2.5v1.5zM.75 2v20h1.5V2H.75zm18.086 4.736L13.872.87l-1.145.969 4.964 5.866 1.145-.97zM2.5 22.25a.25.25 0 01-.25-.25H.75c0 .966.784 1.75 1.75 1.75v-1.5zm10.036-20.5a.25.25 0 01.191.089l1.145-.97A1.75 1.75 0 0012.536.25v1.5zM2.5.25A1.75 1.75 0 00.75 2h1.5a.25.25 0 01.25-.25V.25zm16.75 7.616a1.75 1.75 0 00-.414-1.13l-1.145.969a.25.25 0 01.059.161h1.5zm3.225 9.734a4.875 4.875 0 01-4.875 4.875v1.5a6.375 6.375 0 006.375-6.375h-1.5zM17.6 22.475a4.875 4.875 0 01-4.875-4.875h-1.5a6.375 6.375 0 006.375 6.375v-1.5zM12.725 17.6a4.875 4.875 0 014.875-4.875v-1.5a6.375 6.375 0 00-6.375 6.375h1.5zm4.875-4.875a4.875 4.875 0 014.875 4.875h1.5a6.375 6.375 0 00-6.375-6.375v1.5zm.75 7.375v-5h-1.5v5h1.5zm1.75-3.25h-5v1.5h5v-1.5z" fill="#000"/></svg>