<svg width="16" height="16" viewBox="0 0 16 16" fill="none" xmlns="http://www.w3.org/2000/svg"><path d="M14.295 9.727l-.53-.53.53.53zm-4.8 4.801l.146.736a.75.75 0 00.384-.206l-.53-.53zM7.134 15l-.736-.147a.75.75 0 00.883.882L7.135 15zm.472-2.36l-.53-.53a.75.75 0 00-.206.383l.736.147zm4.8-4.8l.53.53h.001l-.53-.53zm1.883 0l-.53.53.53-.53zm.294.436l-.693.288.693-.288zm-1.077 2.24l.53.53-.53-.53zm-2.789-5.53a.75.75 0 001.144-.971l-1.144.97zM4 15.592a.75.75 0 000-1.5v1.5zM2 1v.75V1zm5.857 0v.75V1zm.763.353l-.572.485.572-.485zm.727 12.44l-2.36.472.295 1.47 2.36-.471-.295-1.471zM7.87 15.147l.472-2.36-1.47-.294-.473 2.36 1.471.294zm5.068-6.778a.579.579 0 01.189-.126l-.575-1.385a2.08 2.08 0 00-.675.452l1.061 1.06zm.189-.126a.58.58 0 01.222-.044V6.7a2.08 2.08 0 00-.797.159l.575 1.385zm.222-.044a.58.58 0 01.222.044l.575-1.385a2.08 2.08 0 00-.797-.159v1.5zm.222.044a.58.58 0 01.188.126l1.062-1.06a2.08 2.08 0 00-.675-.451l-.575 1.385zm.32.32c.03.071.045.147.045.223h1.5a2.08 2.08 0 00-.16-.797l-1.385.575zm.045.223a.579.579 0 01-.045.222l1.386.575a2.08 2.08 0 00.159-.797h-1.5zm-.045.222a.58.58 0 01-.126.188l1.06 1.062a2.08 2.08 0 00.452-.675l-1.386-.575zm-.131-.638a.6.6 0 01.131.194l1.386-.575a2.101 2.101 0 00-.456-.68L13.76 8.37zM1.75 13.843V2H.25v11.843h1.5zM2 1.75h5.857V.25H2v1.5zm6.137 11.42l4.013-4.012-1.06-1.06-4.014 4.012 1.061 1.06zm4.84-3.185l-4.013 4.013 1.06 1.06 4.014-4.012-1.061-1.061zm-1.888-.827l1.888 1.888 1.06-1.061-1.887-1.888-1.06 1.06zm2.676.039l-.788.788 1.06 1.06.789-.787-1.061-1.061zm-1.615-.04l.788-.787-1.06-1.06-.789.787 1.061 1.06zM8.048 1.839l2.67 3.147 1.144-.97L9.192.868l-1.144.97zM2 15.593h2v-1.5H2v1.5zM1.75 2A.25.25 0 012 1.75V.25A1.75 1.75 0 00.25 2h1.5zM.25 13.843c0 .966.784 1.75 1.75 1.75v-1.5a.25.25 0 01-.25-.25H.25zM7.857 1.75a.25.25 0 01.19.088l1.144-.97A1.75 1.75 0 007.857.25v1.5z" fill="#000"/></svg>