<svg width="16" height="16" viewBox="0 0 16 16" fill="none" xmlns="http://www.w3.org/2000/svg"><path d="M8.62 1.354l-.573.484.573-.484zm.398 1.63a.75.75 0 101.144-.969l-1.144.97zM4 15.75a.75.75 0 000-1.5v1.5zm5.5-3.313a.75.75 0 001.5 0H9.5zM11 8.064a.75.75 0 00-1.5 0H11zM12.438 11a.75.75 0 000-1.5V11zM8.061 9.5a.75.75 0 000 1.5V9.5zM2 1.75h5.856V.25H2v1.5zM1.75 14V2H.25v12h1.5zM8.047 1.838l.97 1.147 1.145-.97L9.192.87l-1.145.97zM4 14.25H2v1.5h2v-1.5zM.25 14c0 .966.784 1.75 1.75 1.75v-1.5a.25.25 0 01-.25-.25H.25zM7.856 1.75a.25.25 0 01.191.088L9.192.87A1.75 1.75 0 007.856.25v1.5zM2 .25A1.75 1.75 0 00.25 2h1.5A.25.25 0 012 1.75V.25zm12.422 10a4.172 4.172 0 01-4.172 4.172v1.5a5.672 5.672 0 005.672-5.672h-1.5zm-4.172 4.172a4.172 4.172 0 01-4.172-4.172h-1.5a5.672 5.672 0 005.672 5.672v-1.5zM6.078 10.25a4.172 4.172 0 014.172-4.172v-1.5a5.672 5.672 0 00-5.672 5.672h1.5zm4.172-4.172a4.172 4.172 0 014.172 4.172h1.5a5.672 5.672 0 00-5.672-5.672v1.5zm.75 6.36V8.061H9.5v4.376H11zM12.438 9.5H8.061V11h4.376V9.5z" fill="#000"/></svg>