<svg width="16" height="16" viewBox="0 0 16 16" fill="none" xmlns="http://www.w3.org/2000/svg"><path d="M.75 15h1m13.5 0h-1M2.662 6.04L12.66 1.5m0 0l-.743 1.98m.743-1.98L10.68.757M1.75 15v-3.267a.467.467 0 01.467-.466h1.566a.466.466 0 01.467.466V15m-2.5 0h2.5m0 0h2.5m0 0V8.933a.467.467 0 01.467-.466h1.566a.467.467 0 01.467.466V15m-2.5 0h2.5m0 0h2.424m0 0V7.067a.467.467 0 01.466-.467h1.643a.467.467 0 01.467.467V15m-2.576 0h2.576" stroke="#000" stroke-width="1.5" stroke-linecap="round" stroke-linejoin="round"/></svg>