<svg width="24" height="24" viewBox="0 0 24 24" fill="none" xmlns="http://www.w3.org/2000/svg"><path d="M6.945 19.48a.75.75 0 00.11-1.496l-.11 1.496zm6.49-8.37a.75.75 0 101.483-.22l-1.483.22zm-4.353-.22a.75.75 0 001.483.22l-1.483-.22zm2.067-1.607a.75.75 0 00-1.337-.68l1.337.68zm11.286 1.827a.75.75 0 101.483-.22l-1.483.22zM1.5 12a6 6 0 016-6V4.5A7.5 7.5 0 000 12h1.5zm6-6c1.537 0 2.938.577 4 1.528l1-1.118a7.475 7.475 0 00-5-1.91V6zm5 1.528A5.975 5.975 0 0116.5 6V4.5c-1.92 0-3.674.723-5 1.91l1 1.118zM7.055 17.984A6 6 0 011.5 12H0a7.5 7.5 0 006.945 7.48l.11-1.496zM11.5 7.528a5.988 5.988 0 011.935 3.582l1.483-.22A7.488 7.488 0 0012.5 6.41l-1 1.118zm-.935 3.582a5.953 5.953 0 01.584-1.827l-1.337-.68a7.453 7.453 0 00-.73 2.287l1.483.22zM16.5 6a6.002 6.002 0 015.935 5.11l1.483-.22A7.502 7.502 0 0016.5 4.5V6zm-5.25 9h11v-1.5h-11V15zm11 7.5h-11V24h11v-1.5zM11 22.25v-2.5H9.5v2.5H11zm0-2.5v-4.5H9.5v4.5H11zm11.5-4.5v4.5H24v-4.5h-1.5zm0 4.5v2.5H24v-2.5h-1.5zm-12.25.75h13V19h-13v1.5zm1 2a.25.25 0 01-.25-.25H9.5c0 .966.784 1.75 1.75 1.75v-1.5zm11 1.5A1.75 1.75 0 0024 22.25h-1.5a.25.25 0 01-.25.25V24zm0-9a.25.25 0 01.25.25H24a1.75 1.75 0 00-1.75-1.75V15zm-11-1.5a1.75 1.75 0 00-1.75 1.75H11a.25.25 0 01.25-.25v-1.5z" fill="#000"/></svg>