<svg width="271" height="206" viewBox="0 0 271 206" fill="none" xmlns="http://www.w3.org/2000/svg"><path d="M160.6 203.2a7 7 0 002.7-.5l-.4-1-2.1.2c-2 0-3.7-1-3.7-3.6 0-2.4 1.6-3.4 3.4-3.4 1 0 1.6.1 2.3.4l.4-1a6 6 0 00-2.7-.6c-3 0-4.8 1.9-4.8 4.8 0 2.8 1.7 4.7 4.9 4.7zm6.1 0c1.2 0 2-.6 2.6-1v.8h1.3v-7.1h-1.3v5.3c-.5.3-1.2.7-2 .7-1.2 0-1.3-.6-1.3-1.7v-4.3h-1.4v4.5c0 1.3.2 2.8 2.1 2.8zm7.6 0c1.3 0 3-.5 3-2.1 0-2.5-3.6-2-3.6-3.4 0-.5.3-.9 1.2-.9.6 0 1.2.1 1.7.3l.3-1c-.6-.3-1.4-.4-2-.4-1.4 0-2.6.7-2.6 2 0 2.5 3.6 2 3.6 3.4 0 .6-.5 1-1.6 1l-2-.3-.1 1c.5.2 1.4.4 2 .4zm7 0l1.7-.3-.2-1.1-1.3.2c-.8 0-1.1-.2-1.1-1.1v-4h2.2v-1h-2.2v-1.5H179v1.5h-1v1h1v4c0 1.8.9 2.3 2.3 2.3zm5.8 0c2 0 3.4-1.3 3.4-3.8 0-2.3-1.1-3.7-3.3-3.7-2 0-3.4 1.4-3.4 3.8 0 2.3 1.2 3.7 3.3 3.7zm0-1.1c-1.5 0-2-1.2-2-2.6 0-1.3.5-2.7 2-2.7 1.6 0 2 1.4 2 2.7 0 1.3-.4 2.6-2 2.6zm5 .9h1.4v-5.3c.5-.4 1.2-.8 2-.8 1 0 1.1.7 1.1 1.8v4.3h1.4v-4.6-.8c.5-.3 1.2-.7 1.9-.7 1 0 1.2.7 1.2 1.8v4.3h1.4v-4.5c0-1.2-.1-2.8-2.2-2.8-1 0-2 .6-2.6 1-.2-.5-.9-1-1.9-1-.9 0-1.7.5-2.3 1v-.8H192v7.1zm17.9.2c1.8 0 3.4-.9 3.4-2.7 0-3-4.5-2.6-4.5-4.5 0-.7.6-1.2 1.5-1.2.8 0 1.4.2 2 .5l.4-1c-.6-.4-1.2-.6-2.4-.6-1.5 0-3 .8-3 2.4 0 3 4.6 2.4 4.6 4.5 0 1-1 1.4-2 1.4a5 5 0 01-2.3-.6l-.5 1c.6.4 1.5.8 2.8.8zm7 0c1.2 0 1.9-.6 2.5-1v.8h1.4v-7.1h-1.4v5.3c-.4.3-1.2.7-2 .7-1.2 0-1.3-.6-1.3-1.7v-4.3H215v4.5c0 1.3.1 2.8 2 2.8zm6.3 2.3h1.4v-8.6h3.1v8.6h1.4v-8.6h3v6.1h1.4v-7.1h-4.4v-.3c0-1 .2-1.5 1.1-1.5h1.7a5 5 0 001.6-.2l-.2-1h-3c-.8 0-1.3.2-1.7.5a8 8 0 00-2.6-.5c-1.4 0-2.8.5-2.8 2.4v.6h-1v1h1v8.6zm1.4-9.6v-.6c0-.9.5-1.2 1.4-1.2l1.9.2-.2 1.2v.4h-3.1zm10.2 7.1h1.6l1.7-2.7 1.6 2.7h1.7l-2.5-3.7 2.3-3.4h-1.5l-1.6 2.6-1.6-2.6h-1.5l2.3 3.5-2.5 3.6z" fill="#007272"/><rect x="79.5" y="133.5" width="149" height="31" rx="15.5" fill="#fff" stroke="#007272"/><path d="M34.7 154H41v-1.1h-5v-10.2h-1.3V154zm9.7.1c1.5 0 2.5-.8 2.9-1.1.1.8 1 1.1 1.7 1.1h.3v-1c-.3 0-.9-.2-.9-.8v-4.8c0-1.8-1.1-2.5-3-2.5-1.2 0-2.2.3-2.9.6l.3 1c.7-.3 1.4-.5 2.4-.5 1.3 0 2 .4 2 1.8v1l-2 .1c-1.5 0-3.4.5-3.4 2.7 0 1.6 1 2.4 2.6 2.4zm.3-1c-1 0-1.7-.5-1.7-1.5s.7-1.6 2.1-1.6l2.1-.1v2.2c-.7.5-1.6 1-2.5 1zm9.3 1c2.5 0 4.4-1.2 4.4-4.7 0-2.8-1.2-4.3-3.5-4.3-.7 0-1.2.1-1.5.3v1c.4-.2.8-.3 1.3-.3 2 0 2.5 1.7 2.5 3.2 0 2.3-1 3.8-3 3.8l-1.7-.2v-11h-1.3v11.8c.7.3 1.8.5 2.8.5zm10.3 0c1.1 0 2.1-.1 2.8-.4l-.3-1c-.8.3-1.4.4-2.3.4-1.6 0-3-.5-3-3.2h5.7v-.5c0-2.9-1-4.4-3.2-4.4-2.1 0-3.8 1.4-3.8 4.8 0 3.3 1.6 4.4 4.1 4.4zm-2.8-5.2c.1-2 1-2.9 2.4-2.9s2 1.2 2 3h-4.4zm7.9 5.1h1.3v-12h-1.3v12z" fill="#333"/><path d="M118.8 155v-11.3h-3.5v1h2.2V155h1.3zm15.2-5.8c0-2.8-.6-5.6-3.9-5.6s-4.2 2.8-4.2 6c0 3 1 5.5 4 5.5s4.1-2.4 4.1-6zm-1.3 0c0 2.4-.3 4.9-2.8 4.9-2.2 0-2.7-2.3-2.7-4.6 0-2.1.3-4.8 2.8-4.8 2.4 0 2.7 2.6 2.7 4.6zm12 0c0-2.8-.7-5.6-4-5.6-3.2 0-4.2 2.8-4.2 6 0 3 1 5.5 4 5.5s4.1-2.4 4.1-6zm-1.4 0c0 2.4-.3 4.9-2.8 4.9-2.2 0-2.7-2.3-2.7-4.6 0-2.1.3-4.8 2.8-4.8 2.4 0 2.7 2.6 2.7 4.6zm12 0c0-2.8-.7-5.6-4-5.6-3.2 0-4.2 2.8-4.2 6 0 3 1 5.5 4 5.5s4.1-2.4 4.1-6zm-1.4 0c0 2.4-.3 4.9-2.7 4.9-2.3 0-2.8-2.3-2.8-4.6 0-2.1.3-4.8 2.9-4.8 2.3 0 2.6 2.6 2.6 4.6zm16.1 0c0-2.8-.6-5.6-3.9-5.6s-4.2 2.8-4.2 6c0 3 1 5.5 4 5.5s4.1-2.4 4.1-6zm-1.3 0c0 2.4-.3 4.9-2.8 4.9-2.2 0-2.7-2.3-2.7-4.6 0-2.1.3-4.8 2.8-4.8 2.4 0 2.7 2.6 2.7 4.6zm12 0c0-2.8-.7-5.6-4-5.6-3.2 0-4.2 2.8-4.2 6 0 3 1 5.5 4 5.5s4.1-2.4 4.1-6zm-1.4 0c0 2.4-.3 4.9-2.8 4.9-2.2 0-2.7-2.3-2.7-4.6 0-2.1.3-4.8 2.8-4.8 2.4 0 2.7 2.6 2.7 4.6zm12 0c0-2.8-.7-5.6-4-5.6-3.2 0-4.2 2.8-4.2 6 0 3 1 5.5 4 5.5s4.1-2.4 4.1-6zm-1.4 0c0 2.4-.3 4.9-2.7 4.9-2.3 0-2.8-2.3-2.8-4.6 0-2.1.3-4.8 2.9-4.8 2.3 0 2.6 2.6 2.6 4.6z" fill="#007272"/><g opacity=".8" fill="#D2F0E9"><path d="M204.5 171a21.5 21.5 0 110-43 21.5 21.5 0 010 43z"/><path d="M204.5 171a21.5 21.5 0 110-43 21.5 21.5 0 010 43z"/><path d="M204.5 191l3.5-25h-8l4.5 25z"/></g><path d="M204.4 155.1l.3-1c-.6 0-1.4-.6-2.2-1.5l-1.8-2.3 3.7-4H203l-3.7 4 2.5 3.2c1 1.4 2 1.6 2.6 1.6zm-6.7-.1h1.3v-12h-1.3v12zm8.6 0h1.2v-6.4c.5-.7 1.3-1.4 2.3-1.4h1l.3-1-1-.1a3 3 0 00-2.6 1.3v-1.1h-1.2v8.7zM58.6 11.2a7 7 0 002.7-.5l-.4-1-2.1.2c-2 0-3.7-1-3.7-3.6C55.1 4 56.7 3 58.5 3c1 0 1.6.1 2.3.4l.4-1a6 6 0 00-2.7-.6c-3 0-4.8 1.9-4.8 4.8 0 2.8 1.7 4.7 4.9 4.7zm6.1 0c1.2 0 2-.6 2.6-1v.8h1.3V3.9h-1.3v5.3c-.5.3-1.2.7-2 .7C64 10 64 9.3 64 8.2V3.9h-1.4v4.5c0 1.3.2 2.8 2.1 2.8zm7.6 0c1.3 0 3-.5 3-2.1 0-2.5-3.6-2-3.6-3.4 0-.5.3-.9 1.2-.9.6 0 1.2.1 1.7.3l.3-1c-.6-.2-1.4-.4-2-.4-1.4 0-2.6.7-2.6 2 0 2.5 3.6 2 3.6 3.4 0 .6-.5 1-1.6 1l-2-.3-.1 1c.5.2 1.4.4 2 .4zm7 0l1.7-.3-.2-1.1-1.3.2c-.8 0-1.1-.2-1.1-1.1v-4h2.2V4h-2.2V2.4H77V4h-1v1h1v4c0 1.8.9 2.3 2.3 2.3zm5.8 0c2 0 3.4-1.3 3.4-3.8 0-2.3-1.1-3.7-3.3-3.7-2 0-3.4 1.4-3.4 3.8 0 2.3 1.2 3.7 3.3 3.7zm0-1.1c-1.5 0-2-1.2-2-2.6 0-1.3.5-2.7 2-2.7 1.6 0 2 1.4 2 2.7 0 1.3-.4 2.6-2 2.6zm5 .9h1.4V5.7c.5-.4 1.2-.8 2-.8 1 0 1.1.7 1.1 1.8V11H96V6.5v-.9c.5-.3 1.2-.7 1.9-.7 1 0 1.2.7 1.2 1.8V11h1.4V6.5c0-1.2-.1-2.8-2.2-2.8-1.1 0-2 .6-2.6 1-.2-.5-.9-1-1.9-1-.9 0-1.7.5-2.3 1V4H90V11zm15.9 0h1.4V3h1.5c1.3 0 2 .6 2 1.9 0 1.2-1 1.9-2.4 1.9h-.6v1h.6c2.6 0 3.8-1.3 3.8-3 0-2-1.3-3-3.2-3H106V11zm7.7 0h1.4V5.9c.3-.5 1-1 1.8-1l.8.1.2-1.1a3 3 0 00-.8-.2c-1 0-1.7.6-2 1.2v-1h-1.4V11zm8.4.2a7 7 0 002.4-.4l-.2-1-2 .2c-1.2 0-2.3-.4-2.3-2.2h4.6v-.5c0-2.3-.8-3.6-2.8-3.6-1.8 0-3.2 1-3.2 3.9 0 2.7 1.4 3.6 3.5 3.6zm-2-4.4c0-1.4.7-2 1.6-2 1 0 1.5.8 1.5 2H120zm6.6 6.7h1.3V4.9h3.1V11h1.4V3.9H128v-.4c0-1 .3-1.4 1.2-1.4h1.6c.5 0 1.1 0 1.7-.2l-.3-1h-3c-1.4 0-2.5.5-2.5 2.6v.4h-1v1h1v8.6zm7-2.5h1.7l1.6-2.7 1.7 2.7h1.6l-2.5-3.7 2.3-3.4h-1.5L137 6.5l-1.5-2.6h-1.6l2.4 3.5-2.5 3.6z" fill="#007272"/><rect x="79.5" y="41.5" width="149" height="31" rx="15.5" fill="#fff" stroke="#007272"/><path d="M34.7 63H41v-1.1h-5V51.7h-1.3V63zm9.7.1c1.5 0 2.5-.8 2.9-1.1.1.8 1 1.1 1.7 1.1h.3v-1c-.3 0-.9-.2-.9-.8v-4.8c0-1.8-1.1-2.5-3-2.5-1.2 0-2.2.3-2.9.6l.3 1c.7-.3 1.4-.5 2.4-.5 1.3 0 2 .4 2 1.8v1l-2 .1c-1.5 0-3.4.5-3.4 2.7 0 1.6 1 2.4 2.6 2.4zm.3-1c-1 0-1.7-.5-1.7-1.5s.7-1.6 2.1-1.6l2.1-.1V61c-.7.5-1.6 1-2.5 1zm9.3 1c2.5 0 4.4-1.2 4.4-4.7 0-2.8-1.2-4.3-3.5-4.3-.7 0-1.2.1-1.5.3v1c.4-.2.8-.3 1.3-.3 2 0 2.5 1.7 2.5 3.2 0 2.3-1 3.8-3 3.8l-1.7-.2v-11h-1.3v11.8c.7.3 1.8.5 2.8.5zm10.3 0c1.1 0 2.1-.1 2.8-.4l-.3-1c-.8.3-1.4.4-2.3.4-1.6 0-3-.5-3-3.2h5.7v-.5c0-2.9-1-4.4-3.2-4.4-2.1 0-3.8 1.4-3.8 4.8 0 3.3 1.6 4.4 4.1 4.4zM61.5 58c.1-2 1-2.9 2.4-2.9s2 1.2 2 3h-4.4zm7.9 5.1h1.3V51h-1.3v12z" fill="#333"/><path d="M126.8 63V51.7h-3.5v1h2.2V63h1.3zm15.2-5.8c0-2.8-.6-5.6-3.9-5.6s-4.2 2.8-4.2 6c0 3 1 5.5 4 5.5s4.1-2.4 4.1-6zm-1.3 0c0 2.4-.3 4.9-2.8 4.9-2.2 0-2.7-2.3-2.7-4.6 0-2.1.3-4.8 2.8-4.8 2.4 0 2.7 2.6 2.7 4.6zm12 0c0-2.8-.7-5.6-4-5.6-3.2 0-4.2 2.8-4.2 6 0 3 1 5.5 4 5.5s4.1-2.4 4.1-6zm-1.4 0c0 2.4-.3 4.9-2.8 4.9-2.2 0-2.7-2.3-2.7-4.6 0-2.1.3-4.8 2.8-4.8 2.4 0 2.7 2.6 2.7 4.6zm12 0c0-2.8-.7-5.6-4-5.6-3.2 0-4.2 2.8-4.2 6 0 3 1 5.5 4 5.5s4.1-2.4 4.1-6zm-1.4 0c0 2.4-.3 4.9-2.7 4.9-2.3 0-2.8-2.3-2.8-4.6 0-2.1.3-4.8 2.9-4.8 2.3 0 2.6 2.6 2.6 4.6zm16.1 0c0-2.8-.6-5.6-3.9-5.6s-4.2 2.8-4.2 6c0 3 1 5.5 4 5.5s4.1-2.4 4.1-6zm-1.3 0c0 2.4-.3 4.9-2.8 4.9-2.2 0-2.7-2.3-2.7-4.6 0-2.1.3-4.8 2.8-4.8 2.4 0 2.7 2.6 2.7 4.6zm12 0c0-2.8-.7-5.6-4-5.6-3.2 0-4.2 2.8-4.2 6 0 3 1 5.5 4 5.5s4.1-2.4 4.1-6zm-1.4 0c0 2.4-.3 4.9-2.8 4.9-2.2 0-2.7-2.3-2.7-4.6 0-2.1.3-4.8 2.8-4.8 2.4 0 2.7 2.6 2.7 4.6zm12 0c0-2.8-.7-5.6-4-5.6-3.2 0-4.2 2.8-4.2 6 0 3 1 5.5 4 5.5s4.1-2.4 4.1-6zm-1.4 0c0 2.4-.3 4.9-2.7 4.9-2.3 0-2.8-2.3-2.8-4.6 0-2.1.3-4.8 2.9-4.8 2.3 0 2.6 2.6 2.6 4.6z" fill="#007272"/><g opacity=".8" fill="#D2F0E9"><path d="M103.8 36.2a21.5 21.5 0 110 43 21.5 21.5 0 010-43z"/><path d="M103.5 15L100 40h8l-4.5-25z"/><path d="M103.8 36.2a21.5 21.5 0 110 43 21.5 21.5 0 010-43z"/></g><path d="M106 63.1l.3-1c-.5 0-1.3-.6-2.1-1.5l-1.8-2.3 3.7-4h-1.5l-3.6 4 2.4 3.2c1.1 1.4 2 1.6 2.6 1.6zm-6.7-.1h1.3V51h-1.3v12zm8.6 0h1.3v-6.4c.4-.7 1.2-1.4 2.3-1.4h1l.2-1-1-.1a3 3 0 00-2.5 1.3v-1.1h-1.3V63z" fill="#007272"/><path d="M0 102h271" stroke="#B3DADA" stroke-linejoin="round" stroke-dasharray="3 4"/></svg>
