<svg xmlns="http://www.w3.org/2000/svg" width="16" height="16" fill="none" viewBox="0 0 16 16"><path fill="#000" d="m7.765 6.6.449-.601a.75.75 0 0 0-.45-.149v.75Zm-3.73 0v-.75a.75.75 0 0 0-.449.149l.45.601ZM8.933 1l.497.562A.75.75 0 0 0 8.81.26l.123.74Zm-5.6.933-.123-.74a.75.75 0 0 0-.236 1.399l.36-.659ZM4.267 3.8h-.75c0 .414.335.75.75.75V3.8Zm3.033 0v.75a.75.75 0 0 0 .75-.75H7.3ZM4.95 15.72a.75.75 0 0 0 .1-1.497l-.1 1.496Zm3.047-7.96a.75.75 0 0 0 1.004-1.114L7.998 7.76Zm.263 7.084a.75.75 0 1 0 1.061 1.06l-1.06-1.06Zm6.478-4.356a.75.75 0 0 0-1.06-1.061l1.06 1.06ZM7.765 5.85h-3.73v1.5h3.73v-1.5Zm-4.179.149C2.8 6.587 1.981 7.367 1.353 8.25.73 9.128.25 10.171.25 11.267h1.5c0-.666.3-1.406.826-2.147.52-.733 1.22-1.406 1.908-1.919L3.586 6ZM8.81.26l-5.6.934.247 1.48 5.6-.934L8.81.26ZM3.333 1.933c-.359.659-.36.659-.36.658H2.97l-.002-.002a.53.53 0 0 1-.008-.005c-.002 0 0 0 .004.003a1.186 1.186 0 0 1 .245.234c.142.18.307.487.307.979h1.5c0-.866-.302-1.492-.627-1.906a2.685 2.685 0 0 0-.608-.565 1.654 1.654 0 0 0-.083-.05l-.003-.002-.002-.001c-.001 0-.002-.001-.36.657Zm.934 2.617H7.3v-1.5H4.267v1.5ZM8.05 3.8c0-.415.27-.945.66-1.452a6.574 6.574 0 0 1 .71-.777l.01-.008V1.56v.001L8.933 1 8.437.438 8.435.44l-.002.002-.006.005a2.91 2.91 0 0 0-.08.073 8.071 8.071 0 0 0-.826.915c-.426.553-.972 1.424-.972 2.366h1.5Zm-7.8 7.467c0 1.218.277 2.325 1.1 3.143.811.806 2.024 1.202 3.6 1.31l.1-1.497c-1.413-.096-2.2-.438-2.642-.877-.43-.426-.658-1.07-.658-2.08H.25Zm8.752-4.62c-.26-.234-.525-.451-.788-.648L7.316 7.2c.227.17.457.357.682.56l1.004-1.114Zm.32 9.258 5.417-5.416-1.06-1.061-5.418 5.417 1.061 1.06Zm4.077-1.4c0 .02-.004.027-.003.025l.004-.008a.067.067 0 0 1 .026-.023c.002 0-.007.004-.03.004v1.5c.4 0 .785-.144 1.071-.428.287-.285.432-.669.432-1.07h-1.5Zm-.003-.002c-.02 0-.027-.004-.025-.003l.007.004a.069.069 0 0 1 .023.026c.001.003-.002-.004-.002-.025h-1.5c0 .401.145.784.429 1.068.284.285.667.43 1.068.43v-1.5Zm.003.002c0-.022.004-.031.003-.03l-.003.006a.072.072 0 0 1-.027.024c-.003.001.004-.002.024-.002v-1.5c-.4 0-.785.145-1.07.431-.284.286-.427.67-.427 1.071h1.5Zm-.003-.002c.023 0 .031.004.03.003-.001 0-.004-.001-.007-.004a.064.064 0 0 1-.02-.02l-.003-.006c-.001-.002.003.007.003.03h1.5a1.5 1.5 0 0 0-.43-1.073 1.501 1.501 0 0 0-1.073-.43v1.5Zm-3.743-3.705c0 .02-.004.027-.003.025l.004-.008a.07.07 0 0 1 .02-.02.033.033 0 0 1 .006-.003c.001 0-.007.004-.03.004v1.5c.4 0 .785-.144 1.071-.428.287-.285.432-.669.432-1.07h-1.5Zm-.003-.002c-.02 0-.027-.004-.025-.003l.007.004a.067.067 0 0 1 .023.026c.001.003-.002-.005-.002-.025h-1.5c0 .401.145.784.429 1.068.284.285.667.43 1.068.43v-1.5Zm.003.002c0-.022.004-.031.003-.03l-.003.006a.072.072 0 0 1-.027.024c-.003.001.004-.002.024-.002v-1.5c-.401 0-.785.145-1.07.431-.284.286-.427.67-.427 1.071h1.5Zm-.003-.002c.023 0 .031.004.03.003l-.007-.004a.07.07 0 0 1-.023-.026c-.001-.002.003.007.003.03h1.5a1.5 1.5 0 0 0-.43-1.073 1.501 1.501 0 0 0-1.073-.43v1.5Z"/></svg>