<svg width="24" height="24" viewBox="0 0 24 24" fill="none" xmlns="http://www.w3.org/2000/svg">
<path d="M8.25 7.5H15M14.6222 9.75H8.62781C6.25702 11.5195 3.75 14.4191 3.75 17.25C3.75 21.1675 5.69531 23.25 11.625 23.25C17.5547 23.25 19.5 21.1675 19.5 17.25C19.5 14.4191 16.993 11.5195 14.6222 9.75ZM16.5 0.75L7.5 2.25C7.5 2.25 9 3.06818 9 5.25H13.875C13.875 3.06818 16.5 0.75 16.5 0.75Z" stroke="black" stroke-width="1.5" stroke-linecap="round" stroke-linejoin="round"/>
<path d="M10.799 19.5H12.374L10.43 16.989L12.239 15H10.628L9.314 16.638V13.2H8V19.5H9.314V18.213L9.638 17.853L10.799 19.5Z" fill="black"/>
<path d="M15.45 14.91C14.874 14.91 14.379 15.216 14.127 15.684V15H12.957V19.5H14.271V17.043C14.271 16.386 14.658 16.044 15.423 16.044C15.612 16.044 15.783 16.062 15.918 16.089V14.964C15.837 14.937 15.657 14.91 15.45 14.91Z" fill="black"/>
</svg>
