<svg width="24" height="24" viewBox="0 0 24 24" fill="none" xmlns="http://www.w3.org/2000/svg">
<path d="M6.96418 13.5463L2.36279 8.94529C0.545085 7.12759 0.545085 4.1805 2.36279 2.36279C4.1805 0.545085 7.12759 0.545085 8.94529 2.36279L13.5463 6.96418M6.96418 13.5463L13.5463 6.96418M6.96418 13.5463L10.4433 17.0252M13.5463 6.96418L17.0252 10.4433M17.0252 10.4433L21.6023 15.0208C22.7982 16.1924 23.2727 17.916 22.8449 19.5345C22.4171 21.1531 21.1531 22.4171 19.5345 22.8449C17.916 23.2727 16.1924 22.7982 15.0208 21.6023L10.4433 17.0252M17.0252 10.4433L10.4433 17.0252" stroke="black" stroke-width="1.5" stroke-linecap="round" stroke-linejoin="round"/>
<path d="M6 6.5C6 7.05228 5.55228 7.5 5 7.5C4.44772 7.5 4 7.05228 4 6.5C4 5.94772 4.44772 5.5 5 5.5C5.55228 5.5 6 5.94772 6 6.5Z" fill="black"/>
<path d="M17 17.5C17 18.0523 16.5523 18.5 16 18.5C15.4477 18.5 15 18.0523 15 17.5C15 16.9477 15.4477 16.5 16 16.5C16.5523 16.5 17 16.9477 17 17.5Z" fill="black"/>
<path d="M10 7C10 7.55228 9.55228 8 9 8C8.44772 8 8 7.55228 8 7C8 6.44772 8.44772 6 9 6C9.55228 6 10 6.44772 10 7Z" fill="black"/>
<path d="M21 18C21 18.5523 20.5523 19 20 19C19.4477 19 19 18.5523 19 18C19 17.4477 19.4477 17 20 17C20.5523 17 21 17.4477 21 18Z" fill="black"/>
</svg>
