<svg xmlns="http://www.w3.org/2000/svg" width="24" height="24" fill="none" viewBox="0 0 24 24"><path fill="#000" d="M14.75 5a.75.75 0 0 0 1.5 0h-1.5Zm1.5 12a.75.75 0 0 0-1.5 0h1.5ZM10 6.75a.75.75 0 0 0 0 1.5v-1.5Zm2.4 1.5a.75.75 0 0 0 0-1.5v1.5Zm-2.4 5.5a.75.75 0 0 0 0 1.5v-1.5Zm2.4 1.5a.75.75 0 0 0 0-1.5v1.5ZM10 11.327a.75.75 0 0 0 0 1.5v-1.5Zm2.4 1.5a.75.75 0 0 0 0-1.5v1.5Zm7.2-6.077a.75.75 0 0 0 0 1.5v-1.5Zm2.4 1.5a.75.75 0 0 0 0-1.5v1.5Zm-2.4 5.5a.75.75 0 0 0 0 1.5v-1.5Zm2.4 1.5a.75.75 0 0 0 0-1.5v1.5Zm-2.4-6.346a.75.75 0 0 0 0 1.5v-1.5Zm2.4 1.5a.75.75 0 1 0 0-1.5v1.5Zm-7.2-1.5a.75.75 0 0 0 0 1.5v-1.5Zm2.4 1.5a.75.75 0 1 0 0-1.5v1.5Zm-2.4.923a.75.75 0 0 0 0 1.5v-1.5Zm2.4 1.5a.75.75 0 0 0 0-1.5v1.5ZM8.576 19.26a.75.75 0 0 0 0 1.5v-1.5Zm.346 1.5a.75.75 0 0 0 0-1.5v1.5ZM16.25 5V2h-1.5v3h1.5ZM14.5.25H3v1.5h11.5V.25ZM1.25 2v20h1.5V2h-1.5ZM3 23.75h11.5v-1.5H3v1.5ZM16.25 22v-5h-1.5v5h1.5Zm-1.75 1.75A1.75 1.75 0 0 0 16.25 22h-1.5a.25.25 0 0 1-.25.25v1.5ZM1.25 22c0 .966.784 1.75 1.75 1.75v-1.5a.25.25 0 0 1-.25-.25h-1.5ZM3 .25A1.75 1.75 0 0 0 1.25 2h1.5A.25.25 0 0 1 3 1.75V.25ZM16.25 2A1.75 1.75 0 0 0 14.5.25v1.5a.25.25 0 0 1 .25.25h1.5ZM10 8.25h2.4v-1.5H10v1.5Zm0 7h2.4v-1.5H10v1.5Zm0-2.423h2.4v-1.5H10v1.5Zm9.6-4.577H22v-1.5h-2.4v1.5Zm0 7H22v-1.5h-2.4v1.5Zm0-4.846H22v-1.5h-2.4v1.5Zm-4.8 0h2.4v-1.5h-2.4v1.5Zm0 2.423h2.4v-1.5h-2.4v1.5ZM8.25 20.01a.53.53 0 0 1 .212-.412.474.474 0 0 1 .29-.094v1.5c.185 0 .409-.056.605-.201a.975.975 0 0 0 .394-.793h-1.5Zm.503-.506c.09 0 .189.022.284.093a.531.531 0 0 1 .214.413h-1.5c0 .346.166.625.397.795.198.146.423.199.605.199v-1.5Zm.498.506c0 .055-.012.13-.051.21a.526.526 0 0 1-.15.183c-.1.077-.206.1-.297.1v-1.5c-.184 0-.415.054-.618.21a.99.99 0 0 0-.384.797h1.5Zm-.498.494a.483.483 0 0 1-.303-.103.525.525 0 0 1-.148-.183.477.477 0 0 1-.051-.208h1.5a.992.992 0 0 0-.998-1.006v1.5Zm-.177.256h.346v-1.5h-.346v1.5Z"/></svg>