<svg width="16" height="16" viewBox="0 0 16 16" fill="none" xmlns="http://www.w3.org/2000/svg"><path d="M9.583 2.083a.75.75 0 0 0 1.5 0h-1.5Zm1.5 12a.75.75 0 0 0-1.5 0h1.5ZM5.667 3.333a.75.75 0 1 0 0 1.5v-1.5Zm1.6 1.5a.75.75 0 0 0 0-1.5v1.5Zm-1.6 6a.75.75 0 0 0 0 1.5v-1.5Zm1.6 1.5a.75.75 0 0 0 0-1.5v1.5Zm-1.6-4a.75.75 0 1 0 0 1.5v-1.5Zm1.6 1.5a.75.75 0 0 0 0-1.5v1.5Zm6.233-6.5a.75.75 0 0 0 0 1.5v-1.5Zm1.6 1.5a.75.75 0 0 0 0-1.5v1.5Zm-1.6 6a.75.75 0 0 0 0 1.5v-1.5Zm1.6 1.5a.75.75 0 0 0 0-1.5v1.5Zm-1.6-6.5a.75.75 0 0 0 0 1.5v-1.5Zm1.6 1.5a.75.75 0 0 0 0-1.5v1.5Zm-5.6-1.5a.75.75 0 1 0 0 1.5v-1.5Zm1.6 1.5a.75.75 0 0 0 0-1.5v1.5Zm-1.6 1a.75.75 0 1 0 0 1.5v-1.5Zm1.6 1.5a.75.75 0 0 0 0-1.5v1.5Zm-.017-7.75V1.75h-1.5v.333h1.5ZM9.333 0h-7v1.5h7V0ZM.583 1.75v12.667h1.5V1.75h-1.5Zm1.75 14.417h7v-1.5h-7v1.5Zm8.75-1.75v-.334h-1.5v.334h1.5Zm-1.75 1.75a1.75 1.75 0 0 0 1.75-1.75h-1.5a.25.25 0 0 1-.25.25v1.5Zm-8.75-1.75c0 .966.784 1.75 1.75 1.75v-1.5a.25.25 0 0 1-.25-.25h-1.5ZM2.333 0a1.75 1.75 0 0 0-1.75 1.75h1.5a.25.25 0 0 1 .25-.25V0Zm8.75 1.75A1.75 1.75 0 0 0 9.333 0v1.5a.25.25 0 0 1 .25.25h1.5ZM5.667 4.833h1.6v-1.5h-1.6v1.5Zm0 7.5h1.6v-1.5h-1.6v1.5Zm0-2.5h1.6v-1.5h-1.6v1.5Zm7.833-5h1.6v-1.5h-1.6v1.5Zm0 7.5h1.6v-1.5h-1.6v1.5Zm0-5h1.6v-1.5h-1.6v1.5Zm-4 0h1.6v-1.5H9.5v1.5Zm0 2.5h1.6v-1.5H9.5v1.5Z" fill="#000"/></svg>