<svg width="16" height="16" viewBox="0 0 16 16" fill="none" xmlns="http://www.w3.org/2000/svg">
<path d="M6.75574 14.0672C6.83478 14.3364 6.99889 14.5728 7.22352 14.741C7.44814 14.9091 7.72119 15 8.00179 15C8.28239 15 8.55544 14.9091 8.78006 14.741C9.00469 14.5728 9.1688 14.3364 9.24784 14.0672M8.00023 2.40005C9.23796 2.40005 10.425 2.89174 11.3002 3.76694C12.1754 4.64214 12.6671 5.82917 12.6671 7.06689C12.6671 11.4512 13.6004 12.2004 13.6004 12.2004H2.40002C2.40002 12.2004 3.33339 11.0082 3.33339 7.06689C3.33339 5.82917 3.82508 4.64214 4.70028 3.76694C5.57548 2.89174 6.76251 2.40005 8.00023 2.40005ZM8.00023 2.40005V1" stroke="black" stroke-width="1.5" stroke-linecap="round" stroke-linejoin="round"/>
</svg>
