<svg width="24" height="24" viewBox="0 0 24 24" fill="none" xmlns="http://www.w3.org/2000/svg"><path d="M4.5 17A.75.75 0 0 0 3 17h1.5ZM21 17a.75.75 0 0 0-1.5 0H21ZM.22 14.97a.75.75 0 1 0 1.06 1.06L.22 14.97Zm6.951-4.83a.75.75 0 1 0-1.06-1.061l1.06 1.06Zm13.734 1.955a.75.75 0 1 0-1.06 1.06l1.06-1.06Zm1.815 3.935a.75.75 0 1 0 1.06-1.06l-1.06 1.06ZM17.25 9.5h-.75c0 .199.079.39.22.53l.53-.53Zm0-2.25V6.5a.75.75 0 0 0-.75.75h.75Zm3 0H21a.75.75 0 0 0-.75-.75v.75Zm0 5.25-.53.53A.75.75 0 0 0 21 12.5h-.75ZM3 17v4.75h1.5V17H3Zm18 4.75V17h-1.5v4.75H21ZM1.28 16.03l5.891-5.89-1.06-1.061-5.891 5.89 1.06 1.061Zm18.565-2.875 2.875 2.875 1.06-1.06-2.875-2.875-1.06 1.06ZM18 9.5V7.25h-1.5V9.5H18ZM17.25 8h3V6.5h-3V8Zm2.25-.75v5.25H21V7.25h-1.5Zm-2.78 2.78 3 3 1.06-1.06-3-3-1.06 1.06ZM12.25 6c0 1.31-.214 2.46-.532 3.257-.16.4-.332.674-.484.835-.151.16-.23.158-.234.158v1.5c.549 0 .996-.281 1.323-.628.326-.345.586-.803.788-1.308.405-1.013.639-2.362.639-3.814h-1.5ZM11 10.25c-.004 0-.083.001-.234-.158-.152-.161-.324-.435-.484-.835C9.964 8.461 9.75 7.31 9.75 6h-1.5c0 1.452.234 2.8.64 3.814.201.505.46.963.787 1.308.327.347.774.628 1.323.628v-1.5ZM9.75 6c0-1.31.214-2.46.532-3.257.16-.4.332-.674.484-.835.151-.16.23-.158.234-.158V.25c-.549 0-.996.281-1.323.628-.327.344-.586.803-.788 1.308C8.484 3.199 8.25 4.548 8.25 6h1.5ZM11 1.75c.004 0 .083-.001.234.158.152.161.324.435.484.835.318.796.532 1.947.532 3.257h1.5c0-1.452-.234-2.8-.64-3.814-.201-.505-.46-.964-.787-1.308C11.996.53 11.55.25 11 .25v1.5Zm0 10h2v-1.5h-2v1.5Zm2 0c.549 0 .996-.281 1.323-.628.326-.345.586-.803.788-1.308.405-1.013.639-2.362.639-3.814h-1.5c0 1.31-.214 2.46-.532 3.257-.16.4-.332.674-.484.835-.151.16-.23.158-.234.158v1.5ZM15.75 6c0-1.452-.234-2.8-.64-3.814-.201-.505-.46-.964-.787-1.308C13.996.53 13.55.25 13 .25v1.5c.004 0 .083-.001.234.158.152.161.324.435.484.835.318.796.532 1.947.532 3.257h1.5ZM13 .25h-2v1.5h2V.25ZM5.24 24h13.5v-1.5H5.25V24ZM3 21.75A2.265 2.265 0 0 0 5.24 24v-1.5a.765.765 0 0 1-.75-.75H3ZM18.75 24A2.265 2.265 0 0 0 21 21.75h-1.5c0 .403-.347.75-.75.75V24Z" fill="#000"/></svg>