<svg width="16" height="16" viewBox="0 0 16 16" fill="none" xmlns="http://www.w3.org/2000/svg">
<path d="M8.46067 1.00001C7.2973 0.998331 6.15468 1.30827 5.15138 1.89765C4.14809 2.48704 3.32067 3.3344 2.755 4.3518C2.18933 5.3692 1.90601 6.51957 1.93446 7.68352C1.96291 8.84748 2.30208 9.98261 2.91677 10.9711L1 15L5.02503 13.0817C5.88345 13.6158 6.85407 13.9432 7.86043 14.0379C8.86679 14.1327 9.88139 13.9923 10.8243 13.6277C11.7672 13.2632 12.6126 12.6845 13.294 11.9373C13.9753 11.19 14.474 10.2947 14.7507 9.32167C15.0274 8.3487 15.0745 7.32471 14.8884 6.33039C14.7023 5.33607 14.288 4.39858 13.6782 3.5918C13.0684 2.78502 12.2797 2.13099 11.3743 1.68122C10.4689 1.23146 9.47147 0.998268 8.46067 1.00001V1.00001Z" stroke="black" stroke-width="1.5" stroke-linecap="round" stroke-linejoin="round"/>
</svg>
