<svg width="24" height="24" viewBox="0 0 24 24" fill="none" xmlns="http://www.w3.org/2000/svg">
<path d="M3.41184 11.9287V20.5H8.72745V14.922C8.72745 14.1881 9.32243 13.5931 10.0564 13.5931H11.6608M0.754027 10.5998L3.41242 7.94164M18.5001 8.41228L11.6608 1.38908C11.1419 0.870304 10.3007 0.870304 9.78172 1.38908L6.73469 4.43612M18 23V15.139M3.41242 7.94164V2.94374H6.73469V4.43612M3.41242 7.94164L6.73469 4.43612M20.25 15.139V15.389C20.25 15.6543 20.4848 15.889 20.75 15.889H23.25V10.6391H20.75C20.4848 10.6391 20.25 10.8738 20.25 11.1391V11.3891M20.25 15.139V11.3891M20.25 15.139H18M20.25 11.3891H17.25C16.4544 11.3891 15.6913 11.7051 15.1287 12.2677C14.5661 12.8303 14.25 13.5934 14.25 14.389V16.017C14.2519 16.3727 14.7243 16.5137 14.928 16.239C15.2568 15.6627 15.8459 15.2505 16.5 15.139H18" stroke="black" stroke-width="1.5" stroke-linecap="round" stroke-linejoin="round"/>
</svg>
