<svg width="16" height="16" viewBox="0 0 16 16" fill="none" xmlns="http://www.w3.org/2000/svg">
<path d="M6.25 4C6.25 3.58579 5.91421 3.25 5.5 3.25C5.08579 3.25 4.75 3.58579 4.75 4H6.25ZM4.75 7C4.75 7.41421 5.08579 7.75 5.5 7.75C5.91421 7.75 6.25 7.41421 6.25 7H4.75ZM4 4.75C3.58579 4.75 3.25 5.08579 3.25 5.5C3.25 5.91421 3.58579 6.25 4 6.25V4.75ZM7 6.25C7.41421 6.25 7.75 5.91421 7.75 5.5C7.75 5.08579 7.41421 4.75 7 4.75V6.25ZM10 4.75C9.58579 4.75 9.25 5.08579 9.25 5.5C9.25 5.91421 9.58579 6.25 10 6.25V4.75ZM12 6.25C12.4142 6.25 12.75 5.91421 12.75 5.5C12.75 5.08579 12.4142 4.75 12 4.75V6.25ZM10 11C9.58579 11 9.25 11.3358 9.25 11.75C9.25 12.1642 9.58579 12.5 10 12.5V11ZM12 12.5C12.4142 12.5 12.75 12.1642 12.75 11.75C12.75 11.3358 12.4142 11 12 11V12.5ZM10 8.5C9.58579 8.5 9.25 8.83579 9.25 9.25C9.25 9.66421 9.58579 10 10 10V8.5ZM12 10C12.4142 10 12.75 9.66421 12.75 9.25C12.75 8.83579 12.4142 8.5 12 8.5V10ZM5.03033 8.96967C4.73744 8.67678 4.26256 8.67678 3.96967 8.96967C3.67678 9.26256 3.67678 9.73744 3.96967 10.0303L5.03033 8.96967ZM5.96967 12.0303C6.26256 12.3232 6.73744 12.3232 7.03033 12.0303C7.32322 11.7374 7.32322 11.2626 7.03033 10.9697L5.96967 12.0303ZM3.96967 10.9697C3.67678 11.2626 3.67678 11.7374 3.96967 12.0303C4.26256 12.3232 4.73744 12.3232 5.03033 12.0303L3.96967 10.9697ZM7.03033 10.0303C7.32322 9.73744 7.32322 9.26256 7.03033 8.96967C6.73744 8.67678 6.26256 8.67678 5.96967 8.96967L7.03033 10.0303ZM10 6.25H12V4.75H10V6.25ZM10 12.5H12V11H10V12.5ZM10 10H12V8.5H10V10ZM3 1.75H13V0.25H3V1.75ZM3 14.25C2.30964 14.25 1.75 13.6904 1.75 13H0.25C0.25 14.5188 1.48122 15.75 3 15.75V14.25ZM13 15.75C14.5188 15.75 15.75 14.5188 15.75 13H14.25C14.25 13.6904 13.6904 14.25 13 14.25V15.75ZM13 1.75C13.6904 1.75 14.25 2.30964 14.25 3H15.75C15.75 1.48122 14.5188 0.25 13 0.25V1.75ZM3 0.25C1.48122 0.25 0.25 1.48122 0.25 3H1.75C1.75 2.30964 2.30964 1.75 3 1.75V0.25ZM1.75 13V3H0.25V13H1.75ZM14.25 3V13H15.75V3H14.25ZM3.96967 10.0303L5.96967 12.0303L7.03033 10.9697L5.03033 8.96967L3.96967 10.0303ZM5.03033 12.0303L7.03033 10.0303L5.96967 8.96967L3.96967 10.9697L5.03033 12.0303ZM4.75 4V7H6.25V4H4.75ZM4 6.25H7V4.75H4V6.25ZM13 14.25H3V15.75H13V14.25Z" fill="black"/>
</svg>
