<svg xmlns="http://www.w3.org/2000/svg" width="16" height="16" fill="none" viewBox="0 0 16 16"><path fill="#000" d="M6.006 1a.75.75 0 1 0-1.5 0h1.5Zm-1.5 3.256a.75.75 0 1 0 1.5 0h-1.5ZM11.5 1A.75.75 0 0 0 10 1h1.5ZM10 4.256a.75.75 0 0 0 1.5 0H10ZM2 15.75h12v-1.5H2v1.5ZM4.506 1v3.256h1.5V1h-1.5ZM10 1v3.256h1.5V1H10Zm4 .878H2v1.5h12v-1.5ZM.25 3.628V7.5h1.5V3.628H.25Zm0 3.872V14h1.5V7.5H.25Zm15.5 6.5V7.5h-1.5V14h1.5Zm0-6.5V3.628h-1.5V7.5h1.5ZM1 8.25h14v-1.5H1v1.5Zm13-4.872a.25.25 0 0 1 .25.25h1.5A1.75 1.75 0 0 0 14 1.878v1.5Zm0 12.372A1.75 1.75 0 0 0 15.75 14h-1.5a.25.25 0 0 1-.25.25v1.5Zm-12-1.5a.25.25 0 0 1-.25-.25H.25c0 .966.784 1.75 1.75 1.75v-1.5ZM2 1.878a1.75 1.75 0 0 0-1.75 1.75h1.5a.25.25 0 0 1 .25-.25v-1.5Z"/></svg>