<svg xmlns="http://www.w3.org/2000/svg" width="24" height="24" fill="none" viewBox="0 0 24 24"><path fill="#000" d="M7.25 1a.75.75 0 0 0-1.5 0h1.5Zm-1.5 5a.75.75 0 0 0 1.5 0h-1.5Zm12.5-5a.75.75 0 0 0-1.5 0h1.5Zm-1.5 5a.75.75 0 0 0 1.5 0h-1.5ZM2.5 23.25h19v-1.5h-19v1.5ZM5.75 1v5h1.5V1h-1.5Zm11 0v5h1.5V1h-1.5Zm4.75 1.75h-19v1.5h19v-1.5ZM.75 4.5v5h1.5v-5H.75Zm0 5v12h1.5v-12H.75Zm22.5 12v-12h-1.5v12h1.5Zm0-12v-5h-1.5v5h1.5Zm-.75-.75h-21v1.5h21v-1.5Zm-1-4.5a.25.25 0 0 1 .25.25h1.5a1.75 1.75 0 0 0-1.75-1.75v1.5Zm0 19a1.75 1.75 0 0 0 1.75-1.75h-1.5a.25.25 0 0 1-.25.25v1.5Zm-19-1.5a.25.25 0 0 1-.25-.25H.75c0 .966.784 1.75 1.75 1.75v-1.5Zm0-19A1.75 1.75 0 0 0 .75 4.5h1.5a.25.25 0 0 1 .25-.25v-1.5Z"/></svg>