<svg width="24" height="24" viewBox="0 0 24 24" fill="none" xmlns="http://www.w3.org/2000/svg"><path d="M20.343 16.22a.75.75 0 0 0-1.06-1.06l1.06 1.06Zm-5.186 3.065a.75.75 0 0 0 1.06 1.06l-1.06-1.06Zm1.06-4.125a.75.75 0 1 0-1.06 1.06l1.06-1.06Zm3.065 5.186a.75.75 0 1 0 1.06-1.06l-1.06 1.06ZM7.25 1a.75.75 0 0 0-1.5 0h1.5Zm-1.5 5a.75.75 0 0 0 1.5 0h-1.5Zm12.5-5a.75.75 0 0 0-1.5 0h1.5Zm-1.5 5a.75.75 0 0 0 1.5 0h-1.5Zm-6.663 17.25a.75.75 0 0 0 0-1.5v1.5Zm7.663.753a6.25 6.25 0 0 0 6.25-6.25h-1.5a4.75 4.75 0 0 1-4.75 4.75v1.5Zm6.25-6.25a6.25 6.25 0 0 0-6.25-6.25v1.5a4.75 4.75 0 0 1 4.75 4.75H24Zm-6.25-6.25a6.25 6.25 0 0 0-6.25 6.25H13a4.75 4.75 0 0 1 4.75-4.75v-1.5Zm-6.25 6.25a6.25 6.25 0 0 0 6.25 6.25v-1.5a4.75 4.75 0 0 1-4.75-4.75h-1.5Zm7.782-2.593-4.125 4.125 1.06 1.06 4.126-4.124-1.06-1.06Zm-4.125 1.06 4.125 4.126 1.06-1.06-4.124-4.126-1.06 1.06ZM5.75 1v2.5h1.5V1h-1.5Zm0 2.5V6h1.5V3.5h-1.5Zm11-2.5v2.5h1.5V1h-1.5Zm0 2.5V6h1.5V3.5h-1.5ZM2.5 23.25h7.587v-1.5H2.5v1.5Zm19-20.5h-4v1.5h4v-1.5Zm-4 0h-11v1.5h11v-1.5Zm-11 0h-4v1.5h4v-1.5ZM.75 4.5v5h1.5v-5H.75Zm0 5v12h1.5v-12H.75Zm22.5-1v-4h-1.5v4h1.5ZM1.5 10.25h20v-1.5h-20v1.5ZM21.75 8.5a.25.25 0 0 1-.25.25v1.5a1.75 1.75 0 0 0 1.75-1.75h-1.5Zm-.25-4.25a.25.25 0 0 1 .25.25h1.5a1.75 1.75 0 0 0-1.75-1.75v1.5Zm-19 17.5a.25.25 0 0 1-.25-.25H.75c0 .966.784 1.75 1.75 1.75v-1.5Zm0-19A1.75 1.75 0 0 0 .75 4.5h1.5a.25.25 0 0 1 .25-.25v-1.5Z" fill="#000"/></svg>