<svg width="16" height="16" viewBox="0 0 16 16" fill="none" xmlns="http://www.w3.org/2000/svg">
<path d="M15 12.408C15 12.9603 14.5523 13.408 14 13.408H2C1.44772 13.408 1 12.9603 1 12.408L1 5.49893C1 4.94665 1.44772 4.49893 2 4.49893H4.5546C4.72338 4.49893 4.88524 4.43189 5.00458 4.31255L6.5409 2.77623C6.66024 2.65689 6.8221 2.58984 6.99087 2.58984H9.00914C9.17792 2.58984 9.33978 2.65689 9.45912 2.77623L10.9954 4.31255C11.1148 4.43189 11.2766 4.49893 11.4454 4.49893H14C14.5523 4.49893 15 4.94665 15 5.49893V12.408Z" stroke="black" stroke-width="1.5"/>
<path d="M9.9091 8.63529C9.9091 9.68965 9.05437 10.5444 8.00001 10.5444C6.94565 10.5444 6.09092 9.68965 6.09092 8.63529C6.09092 7.58093 6.94565 6.7262 8.00001 6.7262C9.05437 6.7262 9.9091 7.58093 9.9091 8.63529Z" stroke="black" stroke-width="1.5"/>
</svg>
