<svg xmlns="http://www.w3.org/2000/svg" width="24" height="24" fill="none" viewBox="0 0 24 24"><path fill="#000" d="M12 15.25a.75.75 0 0 0 0 1.5v-1.5Zm7.5 1.5a.75.75 0 0 0 0-1.5v1.5ZM0 8a.75.75 0 0 0 1.5 0H0Zm1.5 9A.75.75 0 0 0 0 17h1.5ZM1 11.75a.75.75 0 0 0 0 1.5v-1.5Zm4.47 2.72a.75.75 0 1 0 1.06 1.06l-1.06-1.06ZM8.5 12.5l.53.53a.75.75 0 0 0 0-1.06l-.53.53ZM6.53 9.47a.75.75 0 0 0-1.06 1.06l1.06-1.06ZM2.75 5.25h18.5v-1.5H2.75v1.5ZM22.5 6.5v11H24v-11h-1.5Zm-1.25 12.25H2.75v1.5h18.5v-1.5Zm-9.25-2h7.5v-1.5H12v1.5ZM1.5 8V6.5H0V8h1.5Zm0 9.5V17H0v.5h1.5Zm1.25 1.25c-.69 0-1.25-.56-1.25-1.25H0a2.75 2.75 0 0 0 2.75 2.75v-1.5ZM22.5 17.5c0 .69-.56 1.25-1.25 1.25v1.5A2.75 2.75 0 0 0 24 17.5h-1.5ZM21.25 5.25c.69 0 1.25.56 1.25 1.25H24a2.75 2.75 0 0 0-2.75-2.75v1.5Zm-18.5-1.5A2.75 2.75 0 0 0 0 6.5h1.5c0-.69.56-1.25 1.25-1.25v-1.5Zm3.78 11.78 2.5-2.5-1.06-1.06-2.5 2.5 1.06 1.06Zm2.5-3.56-2.5-2.5-1.06 1.06 2.5 2.5 1.06-1.06ZM1 13.25h7.5v-1.5H1v1.5Z"/></svg>