<svg width="16" height="16" viewBox="0 0 16 16" fill="none" xmlns="http://www.w3.org/2000/svg"><path d="M4 5.25a.75.75 0 0 0 0 1.5v-1.5Zm2 1.5a.75.75 0 0 0 0-1.5v1.5Zm-2 2.5a.75.75 0 0 0 0 1.5v-1.5Zm8 1.5a.75.75 0 0 0 0-1.5v1.5ZM2 4h12V2.5H2V4Zm12.25.25v7.333h1.5V4.25h-1.5ZM14 11.833H2v1.5h12v-1.5Zm-12.25-.25V4.25H.25v7.333h1.5ZM4 6.75h2v-1.5H4v1.5Zm0 4h8v-1.5H4v1.5Zm-2 1.083a.25.25 0 0 1-.25-.25H.25c0 .967.784 1.75 1.75 1.75v-1.5Zm12.25-.25a.25.25 0 0 1-.25.25v1.5a1.75 1.75 0 0 0 1.75-1.75h-1.5ZM14 4a.25.25 0 0 1 .25.25h1.5A1.75 1.75 0 0 0 14 2.5V4ZM2 2.5A1.75 1.75 0 0 0 .25 4.25h1.5A.25.25 0 0 1 2 4V2.5Z" fill="#000"/></svg>