<svg width="16" height="16" viewBox="0 0 16 16" fill="none" xmlns="http://www.w3.org/2000/svg"><path d="M15 4.244h.75H15Zm0 7.012h-.75.75Zm-7-1.85a.75.75 0 0 0 0 1.5v-1.5Zm4.667 1.5a.75.75 0 0 0 0-1.5v1.5ZM1.156 7.228a.75.75 0 1 0 0 1.5v-1.5Zm2.58 1.775a.75.75 0 0 0 1.061 1.06l-1.06-1.06Zm2.086-1.025.53.53a.75.75 0 0 0 0-1.06l-.53.53ZM4.797 5.892a.75.75 0 0 0-1.06 1.06l1.06-1.06ZM.647 3.05a.75.75 0 1 0 1.2.898l-1.2-.898Zm1.2 8.5a.75.75 0 0 0-1.2.898l1.2-.898Zm.397-7.801h11.512v-1.5H2.244v1.5Zm12.006.494v7.012h1.5V4.244h-1.5Zm-.494 7.506H2.244v1.5h11.512v-1.5ZM8 10.906h4.667v-1.5H8v1.5Zm6.25.35a.494.494 0 0 1-.494.494v1.5a1.994 1.994 0 0 0 1.994-1.994h-1.5Zm-.494-7.506c.273 0 .494.221.494.494h1.5a1.994 1.994 0 0 0-1.994-1.994v1.5Zm-8.959 6.314 1.556-1.556-1.061-1.06-1.556 1.555 1.061 1.06Zm1.556-2.617L4.797 5.892l-1.06 1.06 1.555 1.556 1.06-1.06Zm-5.197 1.28h4.666v-1.5H1.156v1.5ZM2.244 2.25c-.654 0-1.235.316-1.598.8l1.202.9a.493.493 0 0 1 .396-.2v-1.5Zm0 9.5a.493.493 0 0 1-.396-.2l-1.202.9c.363.484.944.8 1.598.8v-1.5Z" fill="#000"/></svg>