<svg xmlns="http://www.w3.org/2000/svg" width="16" height="16" fill="none" viewBox="0 0 16 16"><path fill="#000" d="M3.333 4.428a.75.75 0 1 0 0 1.5v-1.5Zm2.334 1.5a.75.75 0 0 0 0-1.5v1.5ZM3.333 9.406a.75.75 0 0 0 0 1.5v-1.5ZM8 10.906a.75.75 0 0 0 0-1.5v1.5Zm2.178-3.678a.75.75 0 1 0 0 1.5v-1.5Zm2.58 1.775a.75.75 0 0 0 1.061 1.06l-1.06-1.06Zm2.086-1.025.53.53a.75.75 0 0 0 0-1.06l-.53.53ZM13.82 5.892a.75.75 0 1 0-1.06 1.06l1.06-1.06Zm.333-1.943a.75.75 0 1 0 1.202-.898l-1.202.898Zm1.202 8.5a.75.75 0 1 0-1.202-.898l1.202.898ZM2.244 3.75h11.512v-1.5H2.244v1.5Zm11.512 8H2.244v1.5h11.512v-1.5ZM1.75 11.256V4.244H.25v7.012h1.5Zm1.583-5.328h2.334v-1.5H3.333v1.5Zm0 4.978H8v-1.5H3.333v1.5Zm-1.089.844a.494.494 0 0 1-.494-.494H.25c0 1.101.893 1.994 1.994 1.994v-1.5Zm0-9.5A1.994 1.994 0 0 0 .25 4.244h1.5c0-.273.221-.494.494-.494v-1.5Zm11.575 7.814 1.556-1.556-1.06-1.06-1.556 1.555 1.06 1.06Zm1.556-2.617-1.556-1.555-1.06 1.06 1.555 1.556 1.06-1.06Zm-5.197 1.28h4.666v-1.5h-4.666v1.5Zm3.578-4.977a.49.49 0 0 1 .396.2l1.202-.9a1.992 1.992 0 0 0-1.598-.8v1.5Zm0 9.5c.654 0 1.235-.316 1.598-.8l-1.202-.9a.493.493 0 0 1-.396.2v1.5Z"/></svg>