<svg xmlns="http://www.w3.org/2000/svg" width="24" height="24" fill="none" viewBox="0 0 24 24"><path fill="#000" d="M4.5 7.25a.75.75 0 0 0 0 1.5v-1.5Zm3.75 1.5a.75.75 0 0 0 0-1.5v1.5Zm-3.75 6.5a.75.75 0 0 0 0 1.5v-1.5Zm7.5 1.5a.75.75 0 0 0 0-1.5v1.5ZM22.5 8A.75.75 0 0 0 24 8h-1.5Zm1.5 9a.75.75 0 0 0-1.5 0H24Zm-8.5-5.25a.75.75 0 0 0 0 1.5v-1.5Zm4.47 2.72a.75.75 0 1 0 1.06 1.06l-1.06-1.06ZM23 12.5l.53.53a.75.75 0 0 0 0-1.06l-.53.53Zm-1.97-3.03a.75.75 0 1 0-1.06 1.06l1.06-1.06ZM2.75 5.25h18.5v-1.5H2.75v1.5Zm18.5 13.5H2.75v1.5h18.5v-1.5ZM1.5 17.5v-11H0v11h1.5Zm3-8.75h3.75v-1.5H4.5v1.5Zm0 8H12v-1.5H4.5v1.5Zm18-10.25V8H24V6.5h-1.5Zm0 10.5v.5H24V17h-1.5ZM2.75 18.75c-.69 0-1.25-.56-1.25-1.25H0a2.75 2.75 0 0 0 2.75 2.75v-1.5Zm18.5 1.5A2.75 2.75 0 0 0 24 17.5h-1.5c0 .69-.56 1.25-1.25 1.25v1.5Zm0-15c.69 0 1.25.56 1.25 1.25H24a2.75 2.75 0 0 0-2.75-2.75v1.5Zm-18.5-1.5A2.75 2.75 0 0 0 0 6.5h1.5c0-.69.56-1.25 1.25-1.25v-1.5Zm18.28 11.78 2.5-2.5-1.06-1.06-2.5 2.5 1.06 1.06Zm2.5-3.56-2.5-2.5-1.06 1.06 2.5 2.5 1.06-1.06Zm-8.03 1.28H23v-1.5h-7.5v1.5Z"/></svg>