<svg width="16" height="17" viewBox="0 0 16 17" fill="none" xmlns="http://www.w3.org/2000/svg">
<path d="M4.00004 0.75L4 3.75M8.00004 0.75L8 3.75M6.00004 10.75V12.75C6.00004 15.5833 10 15.5833 10 12.75C10 10.25 14 10.25 14 12.75V15.75M5.00004 6.75H7.00004M8 3.75H9.00001C9.26522 3.75 9.51958 3.85536 9.70712 4.04289C9.89465 4.23043 10.0001 4.49219 10 4.75C9.99931 8.25 9.63906 10.6459 6.08142 10.6459C2.29291 10.6459 2.08142 8.25 2.08142 4.64587C2.08142 4.4974 2.10537 4.23043 2.29291 4.04289C2.48044 3.85536 2.7348 3.75 3.00001 3.75H4M8 3.75H4" stroke="black" stroke-width="1.5" stroke-linecap="round" stroke-linejoin="round"/>
</svg>
