<svg width="16" height="16" viewBox="0 0 16 16" fill="none" xmlns="http://www.w3.org/2000/svg"><path d="M14.814 8.355a.75.75 0 1 0-.9 1.2l.9-1.2Zm-.9 2.545a.75.75 0 1 0 .9 1.2l-.9-1.2ZM2.086 9.554a.75.75 0 1 0-.901-1.2l.9 1.2Zm-.9 2.546a.75.75 0 1 0 .9-1.2l-.9 1.2ZM8 4.818v.75-.75Zm-2.26 5.18a.75.75 0 1 0 0 1.5v-1.5Zm.023 1.5a.75.75 0 0 0 0-1.5v1.5Zm4.473-1.5a.75.75 0 1 0 0 1.5v-1.5Zm.022 1.5a.75.75 0 0 0 0-1.5v1.5Zm3.655-1.944a.838.838 0 0 1 .337.673h1.5c0-.766-.369-1.446-.936-1.872l-.9 1.2Zm.337.673c0 .275-.13.519-.337.673l.901 1.2a2.338 2.338 0 0 0 .936-1.873h-1.5Zm-12.5 0c0-.274.13-.518.337-.673l-.901-1.2a2.338 2.338 0 0 0-.936 1.873h1.5Zm.337.673a.838.838 0 0 1-.337-.673H.25c0 .766.369 1.447.936 1.873l.9-1.2Zm.072-.99A5.84 5.84 0 0 0 8 15.75v-1.5a4.34 4.34 0 0 1-4.34-4.34h-1.5ZM8 15.75a5.84 5.84 0 0 0 5.84-5.84h-1.5A4.34 4.34 0 0 1 8 14.25v1.5Zm5.84-5.84A5.841 5.841 0 0 0 8 4.067v1.5a4.341 4.341 0 0 1 4.34 4.341h1.5ZM8 4.067A5.841 5.841 0 0 0 2.16 9.91h1.5A4.341 4.341 0 0 1 8 5.57v-1.5ZM6.295 1.955c0 .941.763 1.704 1.705 1.704v-1.5a.204.204 0 0 1-.205-.204h-1.5ZM8 3.659c.942 0 1.705-.763 1.705-1.704h-1.5A.204.204 0 0 1 8 2.159v1.5Zm1.705-1.704C9.705 1.014 8.942.25 8 .25v1.5c.113 0 .205.091.205.205h1.5ZM8 .25c-.942 0-1.705.764-1.705 1.705h1.5c0-.114.092-.205.205-.205V.25Zm.75 4.568V2.91h-1.5v1.91h1.5Zm-3.01 6.68h.023v-1.5H5.74v1.5Zm4.496 0h.022v-1.5h-.022v1.5Z" fill="#000"/></svg>