<svg width="16" height="16" viewBox="0 0 16 16" fill="none" xmlns="http://www.w3.org/2000/svg">
<path d="M8.46667 3.53804C8.46667 4.56897 6.7952 5.40471 4.73333 5.40471C2.67147 5.40471 1 4.56897 1 3.53804M8.46667 3.53804C8.46667 2.50711 6.7952 1.67138 4.73333 1.67138C2.67147 1.67138 1 2.50711 1 3.53804M8.46667 3.53804V6.00471M1 3.53804V12.2001C1 13.1864 2.52969 13.994 4.46778 14.0621M1 6.40471C1 7.39109 2.52969 8.19864 4.46778 8.26673M1 9.39006C1 10.3764 2.52969 11.182 4.46778 11.2501M15 10.1334C15 11.1643 13.3285 12.0001 11.2667 12.0001C9.2048 12.0001 7.53333 11.1643 7.53333 10.1334M15 10.1334C15 9.10247 13.3285 8.26673 11.2667 8.26673C9.2048 8.26673 7.53333 9.10247 7.53333 10.1334M15 10.1334V13.1334C15 14.1644 13.3287 15.0001 11.2667 15.0001C9.20462 15.0001 7.53333 14.1644 7.53333 13.1334V10.1334" stroke="black" stroke-width="1.5" stroke-linecap="round" stroke-linejoin="round"/>
</svg>
