<svg width="24" height="24" viewBox="0 0 24 24" fill="none" xmlns="http://www.w3.org/2000/svg"><path d="M21.75 7.5v3M20.25 9h3M2.25.75v3m-1.5-1.5h3m3.75 16.5H18a.75.75 0 0 1 .75.75v3a.75.75 0 0 1-.75.75H7.5a.75.75 0 0 1-.75-.75v-3a.75.75 0 0 1 .75-.75Zm1.5-4.5h10.5a.75.75 0 0 1 .75.75v3a.75.75 0 0 1-.75.75H9a.75.75 0 0 1-.75-.75v-3a.75.75 0 0 1 .75-.75Zm-4.5-4.5H15a.75.75 0 0 1 .75.75v3a.75.75 0 0 1-.75.75H4.5a.75.75 0 0 1-.75-.75v-3a.75.75 0 0 1 .75-.75ZM6 5.25h10.5a.75.75 0 0 1 .75.75v3a.75.75 0 0 1-.75.75H6A.75.75 0 0 1 5.25 9V6A.75.75 0 0 1 6 5.25Z" stroke="#000" stroke-width="1.5" stroke-linecap="round" stroke-linejoin="round"/></svg>