<svg width="25" height="25" viewBox="0 0 25 25" fill="none" xmlns="http://www.w3.org/2000/svg">
<path d="M0.90195 22.5406L1.57719 22.9022L1.57765 22.9014L0.90195 22.5406ZM1.10314 23.8969L0.560757 24.4377L0.5623 24.4393L1.10314 23.8969ZM2.46041 24.0981L2.10001 23.4222L2.09948 23.4225L2.46041 24.0981ZM10.0629 14.9424L9.52101 15.4837L9.52127 15.484L10.0629 14.9424ZM7.97233 9.26714L7.431 8.72525L7.42988 8.72637L7.97233 9.26714ZM13.6465 11.3577L14.1883 10.8162L14.1879 10.8158L13.6465 11.3577ZM16.5112 12.1686C16.212 12.4675 16.2117 12.9525 16.5107 13.2518C16.8097 13.5511 17.2946 13.5513 17.5939 13.2524L16.5112 12.1686ZM23.6785 13.2524C23.9778 13.5513 24.4628 13.5511 24.7618 13.2518C25.0607 12.9525 25.0605 12.4675 24.7612 12.1686L23.6785 13.2524ZM11.7329 7.3915C11.4337 7.69055 11.4335 8.17553 11.7326 8.47473C12.0316 8.77393 12.5166 8.77406 12.8158 8.47501L11.7329 7.3915ZM12.8162 0.224623C12.5173 -0.0746559 12.0323 -0.074906 11.733 0.224064C11.4337 0.523034 11.4335 1.00801 11.7325 1.30729L12.8162 0.224623ZM18.4732 7.93253C18.0718 8.06613 17.8548 8.49981 17.9884 8.90118C18.122 9.30256 18.5556 9.51963 18.957 9.38603L18.4732 7.93253ZM22.5407 8.19318C22.942 8.05958 23.1591 7.6259 23.0255 7.22453C22.8919 6.82315 22.4582 6.60608 22.0569 6.73968L22.5407 8.19318ZM15.5998 6.02943C15.466 6.43074 15.6829 6.86452 16.0842 6.99829C16.4856 7.13206 16.9193 6.91518 17.0531 6.51386L15.5998 6.02943ZM18.248 2.92919C18.3818 2.52787 18.1649 2.09409 17.7636 1.96032C17.3622 1.82655 16.9285 2.04344 16.7947 2.44476L18.248 2.92919ZM15.7919 8.29826L15.2503 7.75665L15.2489 7.75803L15.7919 8.29826ZM16.514 8.29826L17.057 7.75803L17.0556 7.75665L16.514 8.29826ZM8.92324 6.0343L8.38163 5.49269L8.38024 5.49407L8.92324 6.0343ZM8.2012 6.0343L8.7442 5.49407L8.74281 5.49269L8.2012 6.0343ZM20.9481 4.77762L21.4883 5.32063L21.4897 5.31923L20.9481 4.77762ZM20.2261 4.77762L19.6845 5.31924L19.6859 5.32062L20.2261 4.77762ZM6.93704 9.60906L0.226249 22.1799L1.57765 22.9014L8.28844 10.3305L6.93704 9.60906ZM0.226707 22.1791C-0.172111 22.9239 -0.0347994 23.8405 0.560759 24.4377L1.64552 23.3561C1.52415 23.2343 1.49806 23.05 1.57719 22.9022L0.226707 22.1791ZM0.5623 24.4393C1.15986 25.0351 2.07623 25.1717 2.82134 24.7737L2.09948 23.4225C1.94996 23.5024 1.7654 23.4756 1.64398 23.3545L0.5623 24.4393ZM2.82082 24.7739L15.4305 18.0499L14.7097 16.6981L2.10001 23.4222L2.82082 24.7739ZM15.1955 16.4913C15.0392 16.6476 14.5661 16.8009 13.5979 16.4443C12.6969 16.1123 11.6167 15.413 10.6045 14.4007L9.52127 15.484C10.6537 16.6164 11.9158 17.4571 13.0683 17.8817C14.1537 18.2816 15.4453 18.4079 16.2787 17.5745L15.1955 16.4913ZM10.6047 14.401C9.59286 13.3882 8.89367 12.3081 8.56174 11.4072C8.2052 10.4395 8.35783 9.96535 8.51478 9.80791L7.42988 8.72637C6.59824 9.56058 6.72431 10.8512 7.12429 11.9368C7.54886 13.0891 8.38924 14.3509 9.52101 15.4837L10.6047 14.401ZM8.51366 9.80903C8.66962 9.65324 9.14289 9.50015 10.1118 9.85728C11.0131 10.1895 12.0934 10.8888 13.1052 11.8996L14.1879 10.8158C13.056 9.68497 11.794 8.84468 10.6416 8.4199C9.55666 8.02001 8.26466 7.89245 7.431 8.72525L8.51366 9.80903ZM13.1048 11.8992C14.1171 12.9119 14.8165 13.9924 15.1484 14.8936C15.5051 15.8619 15.3517 16.335 15.1955 16.4913L16.2787 17.5745C17.112 16.7412 16.9857 15.4495 16.5859 14.3641C16.1613 13.2114 15.3207 11.9491 14.1883 10.8162L13.1048 11.8992ZM17.5939 13.2524C19.2741 11.5739 21.9984 11.5739 23.6785 13.2524L24.7612 12.1686C22.4829 9.89264 18.7895 9.89264 16.5112 12.1686L17.5939 13.2524ZM12.8158 8.47501C15.0946 6.19741 15.094 2.50472 12.8162 0.224623L11.7325 1.30729C13.4132 2.98973 13.4126 5.71268 11.7329 7.3915L12.8158 8.47501ZM18.957 9.38603L22.5407 8.19318L22.0569 6.73968L18.4732 7.93253L18.957 9.38603ZM17.0531 6.51386L18.248 2.92919L16.7947 2.44476L15.5998 6.02943L17.0531 6.51386ZM15.9723 8.48073C16.0723 8.38075 16.2336 8.38075 16.3335 8.48073L15.2503 9.56395C15.7486 10.0622 16.5573 10.0622 17.0556 9.56395L15.9723 8.48073ZM16.3335 8.48073C16.4343 8.58147 16.4323 8.74062 16.3349 8.83848L15.2489 7.75803C14.7533 8.25624 14.7513 9.06492 15.2503 9.56395L16.3335 8.48073ZM16.3335 8.83987C16.2336 8.93985 16.0723 8.93985 15.9723 8.83987L17.0556 7.75665C16.5573 7.25837 15.7486 7.25837 15.2503 7.75665L16.3335 8.83987ZM15.971 8.83848C15.8736 8.74062 15.8716 8.58147 15.9723 8.48073L17.0556 9.56395C17.5546 9.06492 17.5526 8.25624 17.057 7.75803L15.971 8.83848ZM8.38024 5.49407C8.48053 5.39327 8.64391 5.39327 8.7442 5.49407L7.6582 6.57452C8.15679 7.07567 8.96765 7.07567 9.46624 6.57452L8.38024 5.49407ZM8.74281 5.49269C8.84279 5.59266 8.84279 5.7539 8.74281 5.85387L7.65959 4.77065C7.16131 5.26892 7.16131 6.07764 7.65959 6.57591L8.74281 5.49269ZM8.74281 5.85387C8.64284 5.95385 8.4816 5.95385 8.38163 5.85387L9.46485 4.77065C8.96658 4.27237 8.15786 4.27237 7.65959 4.77065L8.74281 5.85387ZM8.38163 5.85387C8.28165 5.7539 8.28165 5.59266 8.38163 5.49269L9.46485 6.57591C9.96313 6.07764 9.96313 5.26892 9.46485 4.77065L8.38163 5.85387ZM20.4079 4.23462C20.5076 4.13548 20.6667 4.13548 20.7663 4.23462L19.6859 5.32062C20.1838 5.81602 20.9904 5.81602 21.4883 5.32062L20.4079 4.23462ZM20.7677 4.23601C20.8677 4.33599 20.8677 4.49722 20.7677 4.59719L19.6845 3.51397C19.1862 4.01224 19.1862 4.82096 19.6845 5.31923L20.7677 4.23601ZM20.7677 4.59719C20.6677 4.69717 20.5065 4.69717 20.4065 4.59719L21.4897 3.51397C20.9915 3.0157 20.1827 3.0157 19.6845 3.51397L20.7677 4.59719ZM20.4065 4.59719C20.3065 4.49722 20.3065 4.33599 20.4065 4.23601L21.4897 5.31923C21.988 4.82096 21.988 4.01224 21.4897 3.51397L20.4065 4.59719ZM19.7293 14.4527C19.8293 14.3528 19.9905 14.3528 20.0905 14.4527L19.0073 15.536C19.5055 16.0342 20.3143 16.0342 20.8125 15.536L19.7293 14.4527ZM20.0905 14.4527C20.1905 14.5527 20.1905 14.7139 20.0905 14.8139L19.0073 13.7307C18.509 14.229 18.509 15.0377 19.0073 15.536L20.0905 14.4527ZM20.0905 14.8139C19.9905 14.9139 19.8293 14.9139 19.7293 14.8139L20.8125 13.7307C20.3143 13.2324 19.5055 13.2324 19.0073 13.7307L20.0905 14.8139ZM19.7293 14.8139C19.6293 14.7139 19.6293 14.5527 19.7293 14.4527L20.8125 15.536C21.3108 15.0377 21.3108 14.229 20.8125 13.7307L19.7293 14.8139Z" fill="black"/>
</svg>
