<svg width="16" height="16" viewBox="0 0 16 16" fill="none" xmlns="http://www.w3.org/2000/svg"><path d="m1.081 13.99.661.354-.66-.354Zm.12.809-.53.53v.001l.53-.531Zm.81.12-.352-.662.352.662ZM6.55 9.457l-.53.53.53-.53ZM5.302 6.071l-.53-.53H4.77l.53.53ZM8.689 7.32l.53-.53v-.001l-.53.53Zm5.781 1.774a.75.75 0 0 0 1.06-1.061l-1.06 1.061ZM7.968.47a.75.75 0 1 0-1.061 1.06L7.967.47Zm3.836 4.306a.75.75 0 0 0 .392 1.448l-.392-1.448Zm2.246.945a.75.75 0 1 0-.393-1.448l.393 1.448ZM9.776 3.804a.75.75 0 1 0 1.448.392l-1.448-.392Zm1.95-1.462a.75.75 0 1 0-1.448-.392l1.447.392ZM7.33 4.162a.75.75 0 0 0 1.338.676L7.33 4.162Zm3.832 3.168a.75.75 0 0 0 .674 1.34l-.674-1.34ZM4.425 6.137l-4.005 7.5 1.323.706 4.005-7.499-1.323-.707ZM.42 13.636c-.3.558-.196 1.245.25 1.693l1.062-1.06a.063.063 0 0 1 .01.075L.42 13.636Zm.252 1.694a1.438 1.438 0 0 0 1.693.25l-.707-1.323a.062.062 0 0 1 .073.01L.67 15.33Zm1.692.25 7.527-4.01-.705-1.324-7.527 4.011.705 1.324Zm7.042-5.406c.036-.036-.09.109-.645-.096-.49-.18-1.1-.57-1.681-1.151l-1.06 1.06c.698.7 1.486 1.228 2.222 1.499.67.246 1.598.375 2.225-.251l-1.06-1.061ZM7.08 8.927c-.581-.582-.972-1.191-1.152-1.68-.204-.555-.06-.681-.095-.646L4.77 5.541c-.626.628-.497 1.554-.25 2.224.27.736.8 1.524 1.498 2.222l1.06-1.06ZM5.83 6.602c-.036.037.09-.108.647.097.49.18 1.1.57 1.68 1.15l1.06-1.061C8.52 6.09 7.733 5.562 6.997 5.29c-.67-.247-1.597-.376-2.224.25l1.06 1.061ZM8.158 7.85c.582.581.972 1.19 1.152 1.68.205.556.06.681.096.645l1.06 1.06c.628-.626.499-1.553.252-2.223-.271-.736-.8-1.524-1.5-2.223l-1.06 1.06Zm4.038-1.625 1.854-.503-.393-1.448-1.853.503.392 1.448Zm-.972-2.028.502-1.854-1.448-.392-.502 1.854 1.448.392Zm-2.555.642A3.774 3.774 0 0 0 7.968.47L6.907 1.53c.712.713.854 1.78.424 2.632l1.338.676Zm3.168 3.832a2.28 2.28 0 0 1 2.633.423l1.06-1.061a3.78 3.78 0 0 0-4.367-.702l.674 1.34Z" fill="#000"/></svg>