<svg width="24" height="24" viewBox="0 0 25 25" fill="none" xmlns="http://www.w3.org/2000/svg"><path d="m.902 22.54.675.362-.675-.361Zm.201 1.357-.542.541.001.002.541-.543Zm1.357.201-.36-.676.36.676Zm7.603-9.155-.542.54v.001l.542-.541Zm-2.09-5.676-.542-.542-.001.001.542.541Zm5.674 2.09.541-.54v-.001l-.541.542Zm2.864.812a.766.766 0 1 0 1.083 1.083l-1.083-1.083Zm7.168 1.083a.766.766 0 0 0 1.082-1.083l-1.082 1.083Zm-11.946-5.86a.766.766 0 1 0 1.083 1.083l-1.083-1.083ZM12.816.225a.766.766 0 1 0-1.084 1.082L12.816.225Zm5.657 7.708a.766.766 0 1 0 .484 1.453l-.484-1.453Zm4.068.26a.766.766 0 0 0-.484-1.453l.484 1.453ZM15.6 6.03a.766.766 0 0 0 1.453.485L15.6 6.029Zm2.648-3.1a.766.766 0 1 0-1.453-.484l1.453.484ZM15.792 8.3l-.542-.542-.001.001.543.54Zm.722 0 .543-.54-.001-.002-.542.541Zm-7.59-2.265-.542-.541-.002.001.543.54Zm-.723 0 .543-.54-.001-.001-.542.541Zm12.747-1.256.54.543.002-.002-.542-.541Zm-.722 0-.541.541.001.002.54-.543ZM6.937 9.609.227 22.18l1.35.722L8.29 10.33l-1.352-.722ZM.227 22.18a1.917 1.917 0 0 0 .334 2.259l1.085-1.082a.385.385 0 0 1-.069-.454l-1.35-.723Zm.335 2.26a1.918 1.918 0 0 0 2.26.335l-.723-1.351a.386.386 0 0 1-.455-.068L.562 24.439Zm2.259.335 12.61-6.724-.721-1.352L2.1 23.422l.72 1.352Zm12.375-8.283c-.157.157-.63.31-1.598-.047-.901-.331-1.981-1.03-2.993-2.043L9.52 15.484c1.133 1.133 2.395 1.973 3.547 2.398 1.086.4 2.377.526 3.21-.307l-1.082-1.084Zm-4.591-2.09c-1.012-1.013-1.711-2.093-2.043-2.994-.357-.967-.204-1.442-.047-1.599L7.43 8.726c-.832.835-.706 2.125-.306 3.21.425 1.153 1.265 2.415 2.397 3.548l1.084-1.083ZM8.514 9.81c.156-.156.629-.309 1.598.048.901.333 1.982 1.032 2.993 2.043l1.083-1.084c-1.132-1.13-2.394-1.971-3.546-2.396-1.085-.4-2.377-.527-3.211.305L8.514 9.81Zm4.59 2.09c1.013 1.013 1.713 2.094 2.045 2.995.356.968.203 1.441.047 1.597l1.083 1.084c.833-.834.707-2.125.307-3.21-.424-1.153-1.265-2.416-2.398-3.549L13.105 11.9Zm4.49 1.354a4.306 4.306 0 0 1 6.085 0l1.082-1.084a5.838 5.838 0 0 0-8.25 0l1.083 1.083Zm-4.778-4.778a5.834 5.834 0 0 0 0-8.25l-1.084 1.082a4.302 4.302 0 0 1 .001 6.085l1.083 1.083Zm6.141.911 3.584-1.193-.484-1.453-3.584 1.193.484 1.453Zm-1.904-2.872 1.195-3.585-1.453-.484L15.6 6.029l1.453.485Zm-1.08 1.967c.1-.1.26-.1.36 0L15.25 9.564a1.277 1.277 0 0 0 1.806 0l-1.084-1.083Zm.36 0c.101.1.1.26.002.358l-1.086-1.08a1.28 1.28 0 0 0 .001 1.805l1.084-1.083Zm0 .359c-.1.1-.26.1-.36 0l1.083-1.083a1.277 1.277 0 0 0-1.806 0l1.084 1.083Zm-.362-.001a.252.252 0 0 1 .002-.358l1.083 1.083a1.28 1.28 0 0 0 .001-1.806l-1.086 1.08Zm-7.59-3.345c.1-.1.263-.1.363 0l-1.086 1.08c.499.502 1.31.502 1.808 0L8.38 5.495Zm.362-.001c.1.1.1.26 0 .36L7.66 4.772a1.277 1.277 0 0 0 0 1.805l1.083-1.083Zm0 .36c-.1.1-.261.1-.361 0l1.083-1.082a1.277 1.277 0 0 0-1.805 0l1.083 1.083Zm-.361 0c-.1-.1-.1-.26 0-.36l1.083 1.083a1.277 1.277 0 0 0 0-1.805L8.382 5.854Zm12.026-1.618c.1-.1.259-.1.358 0l-1.08 1.086a1.279 1.279 0 0 0 1.802 0l-1.08-1.086Zm.36.001c.1.1.1.261 0 .361l-1.083-1.083a1.277 1.277 0 0 0 0 1.805l1.083-1.083Zm0 .361c-.1.1-.261.1-.361 0l1.083-1.083a1.277 1.277 0 0 0-1.805 0l1.083 1.083Zm-.361 0c-.1-.1-.1-.261 0-.361L21.49 5.32a1.277 1.277 0 0 0 0-1.805l-1.083 1.083Zm-.677 9.856c.1-.1.26-.1.36 0l-1.083 1.083a1.277 1.277 0 0 0 1.806 0l-1.083-1.083Zm.36 0c.1.1.1.261 0 .361l-1.083-1.083a1.277 1.277 0 0 0 0 1.805l1.084-1.083Zm0 .361c-.1.1-.26.1-.36 0l1.083-1.083a1.277 1.277 0 0 0-1.806 0l1.084 1.083Zm-.36 0c-.1-.1-.1-.261 0-.361l1.083 1.083a1.277 1.277 0 0 0 0-1.805l-1.083 1.083Z" fill="#000"/></svg>