<svg width="24" height="24" viewBox="0 0 24 24" fill="none" xmlns="http://www.w3.org/2000/svg"><path d="M4.3 9.2A2.8 2.8 0 0 0 1.5 12v2.8a2.8 2.8 0 0 0 2.8 2.8H5a.7.7 0 0 0 .7-.7v-7a.7.7 0 0 0-.7-.7h-.7Zm0 0a7.7 7.7 0 0 1 15.4 0m0 8.4H19a.7.7 0 0 1-.7-.7v-7a.7.7 0 0 1 .7-.7h.7m0 8.4a2.8 2.8 0 0 0 2.8-2.8V12a2.8 2.8 0 0 0-2.8-2.8m0 8.4v.7a2.8 2.8 0 0 1-2.8 2.8h-2.1m0 0a1.4 1.4 0 0 0-1.4-1.4H12a1.4 1.4 0 1 0 0 2.8h1.4a1.4 1.4 0 0 0 1.4-1.4Z" stroke="#000" stroke-width="1.5" stroke-linecap="round" stroke-linejoin="round"/></svg>