<svg xmlns="http://www.w3.org/2000/svg" width="24" height="24" fill="none" viewBox="0 0 24 24"><path fill="#000" d="M16.5 11.25a.75.75 0 0 0 1.5 0h-1.5ZM5.288 2.288l.53.53-.53-.53ZM4 24a.75.75 0 0 0 0-1.5V24Zm7-8.465-.208-.72.208.72Zm0 6.93-.208.72.208-.72Zm3.5-4.215a.75.75 0 0 0 0 1.5v-1.5Zm4 1.5a.75.75 0 0 0 0-1.5v1.5Zm-2.75-9.25a.75.75 0 0 1 .75.75H18A2.25 2.25 0 0 0 15.75 9v1.5Zm-13.5 12a.75.75 0 0 1-.75-.75H0A2.25 2.25 0 0 0 2.24 24v-1.5Zm-.75-.75v-10.5H0v10.5h1.5Zm0-10.5a.75.75 0 0 1 .75-.75V9A2.25 2.25 0 0 0 0 11.25h1.5ZM4.5 6a4.5 4.5 0 0 1 1.318-3.182l-1.06-1.06A6 6 0 0 0 3 6h1.5Zm1.318-3.182A4.5 4.5 0 0 1 9 1.5V0a6 6 0 0 0-4.243 1.757l1.061 1.061ZM9 1.5a4.5 4.5 0 0 1 3.182 1.318l1.06-1.06A6 6 0 0 0 9 0v1.5Zm3.182 1.318A4.5 4.5 0 0 1 13.5 6H15a6 6 0 0 0-1.757-4.243l-1.061 1.061ZM14.25 10.5h1.5V9h-1.5v1.5ZM13.5 6v3.75H15V6h-1.5ZM2.25 10.5h1.5V9h-1.5v1.5Zm1.5 0h10.5V9H3.75v1.5Zm.75-.75V6H3v3.75h1.5ZM4 22.5H2.25V24H4v-1.5ZM22.25 19c0 .667-.56 1.474-1.929 2.158-1.323.661-3.203 1.092-5.321 1.092v1.5c2.3 0 4.42-.465 5.992-1.25 1.528-.765 2.758-1.958 2.758-3.5h-1.5ZM15 15.75c2.118 0 3.998.43 5.321 1.092 1.368.684 1.929 1.49 1.929 2.158h1.5c0-1.542-1.23-2.735-2.758-3.5-1.572-.785-3.692-1.25-5.992-1.25v1.5ZM7.75 19c0-.447.24-.95.838-1.456.598-.507 1.493-.962 2.62-1.288l-.416-1.441c-1.264.365-2.369.902-3.174 1.585-.804.682-1.368 1.567-1.368 2.6h1.5Zm3.458-2.744c1.104-.32 2.4-.506 3.792-.506v-1.5c-1.522 0-2.959.203-4.208.565l.416 1.44ZM15 22.25c-1.392 0-2.688-.186-3.792-.506l-.416 1.441c1.25.362 2.686.565 4.208.565v-1.5Zm-3.792-.506c-1.127-.326-2.022-.781-2.62-1.288-.597-.507-.838-1.009-.838-1.456h-1.5c0 1.033.564 1.918 1.368 2.6.805.683 1.91 1.22 3.174 1.585l.416-1.44Zm-.894-5.906c.446 1.01 1.09 3.755-.004 6.334l1.38.586c1.306-3.078.55-6.273-.004-7.526l-1.372.606ZM14.5 19.75h4v-1.5h-4v1.5Z"/></svg>