<svg width="16" height="16" viewBox="0 0 16 16" fill="none" xmlns="http://www.w3.org/2000/svg"><path d="m8.083 14.929-.436.61a.75.75 0 0 0 .872 0l-.436-.61Zm2.436-.819a.75.75 0 0 0-.872-1.22l.872 1.22Zm-4-1.22a.75.75 0 1 0-.872 1.22l.872-1.22ZM4.75 6.583a.75.75 0 0 0 0 1.5v-1.5Zm6.333 1.5a.75.75 0 0 0 0-1.5v1.5ZM4.065 3.578a.75.75 0 1 0 0 1.5v-1.5Zm.022 1.5a.75.75 0 1 0 0-1.5v1.5Zm2.649-1.5a.75.75 0 1 0 0 1.5v-1.5Zm.022 1.5a.75.75 0 1 0 0-1.5v1.5Zm2.646-1.5a.75.75 0 1 0 0 1.5v-1.5Zm.022 1.5a.75.75 0 0 0 0-1.5v1.5Zm2.642-1.5a.75.75 0 0 0 0 1.5v-1.5Zm.022 1.5a.75.75 0 0 0 0-1.5v1.5Zm-3.57 10.46 2-1.428-.873-1.22-2 1.428.872 1.22ZM5.646 14.11l2 1.429.872-1.22-2-1.43-.872 1.221ZM1.417 1.75H14.75V.25H1.417v1.5Zm13.25-.083v8h1.5v-8h-1.5Zm.083 7.916H1.417v1.5H14.75v-1.5ZM1.5 9.667v-8H0v8h1.5Zm-.083-.084c.046 0 .083.038.083.084H0c0 .782.634 1.416 1.417 1.416v-1.5Zm13.25.084c0-.046.037-.084.083-.084v1.5c.782 0 1.417-.634 1.417-1.416h-1.5Zm.083-7.917a.083.083 0 0 1-.083-.083h1.5c0-.783-.635-1.417-1.417-1.417v1.5ZM1.417.25C.634.25 0 .884 0 1.667h1.5a.083.083 0 0 1-.083.083V.25ZM4.75 8.083h6.333v-1.5H4.75v1.5Zm-.685-3.005h.022v-1.5h-.022v1.5Zm2.67 0h.023v-1.5h-.022v1.5Zm2.669 0h.022v-1.5h-.022v1.5Zm2.664 0h.022v-1.5h-.022v1.5Z" fill="#000"/></svg>