<svg width="24" height="24" viewBox="0 0 24 24" fill="none" xmlns="http://www.w3.org/2000/svg"><path d="M4.5 6.5V2a1 1 0 0 1 1-1h10.036a1 1 0 0 1 .764.354l4.963 5.866a1 1 0 0 1 .237.646V22a1 1 0 0 1-1 1h-15a1 1 0 0 1-1-1v-2.5" stroke="#000" stroke-width="1.5" stroke-linecap="round" stroke-linejoin="round"/><path d="M8.304 13.176c0 .17-.016.315-.048.432h-5.76c.075.65.31 1.152.704 1.504.405.352.917.528 1.536.528.928 0 1.616-.395 2.064-1.184l1.296.912A2.895 2.895 0 0 1 6.8 16.696c-.576.299-1.264.448-2.064.448-.79 0-1.499-.176-2.128-.528a3.787 3.787 0 0 1-1.456-1.472C.811 14.514.64 13.8.64 13c0-.81.16-1.525.48-2.144A3.55 3.55 0 0 1 2.496 9.4c.587-.352 1.259-.528 2.016-.528.768 0 1.435.176 2 .528a3.445 3.445 0 0 1 1.328 1.504c.31.64.464 1.397.464 2.272Zm-3.792-2.8c-.544 0-.992.16-1.344.48-.341.31-.56.763-.656 1.36H6.48c-.107-.597-.33-1.05-.672-1.36-.33-.32-.763-.48-1.296-.48Z" fill="#000"/></svg>