<svg width="24" height="24" viewBox="0 0 24 24" fill="none" xmlns="http://www.w3.org/2000/svg"><path d="M11.25 13.5a.75.75 0 0 0 1.5 0h-1.5Zm1.5-7.25a.75.75 0 0 0-1.5 0h1.5Zm-.927 10.008a.75.75 0 1 0 0 1.5v-1.5Zm.346 1.5a.75.75 0 0 0 0-1.5v1.5ZM22.5 12c0 5.799-4.701 10.5-10.5 10.5V24c6.627 0 12-5.373 12-12h-1.5ZM12 22.5C6.201 22.5 1.5 17.799 1.5 12H0c0 6.627 5.373 12 12 12v-1.5ZM1.5 12C1.5 6.201 6.201 1.5 12 1.5V0C5.373 0 0 5.373 0 12h1.5ZM12 1.5c5.799 0 10.5 4.701 10.5 10.5H24c0-6.627-5.373-12-12-12v1.5Zm.75 12V6.25h-1.5v7.25h1.5Zm-1.252 3.508a.53.53 0 0 1 .212-.412.475.475 0 0 1 .29-.095v1.5c.184 0 .408-.055.604-.2a.975.975 0 0 0 .394-.793h-1.5Zm.502-.507c.09 0 .189.023.284.093a.53.53 0 0 1 .214.414h-1.5c0 .346.167.625.397.794.198.146.423.2.605.2v-1.5Zm.498.507a.49.49 0 0 1-.05.209.525.525 0 0 1-.151.183.477.477 0 0 1-.297.101v-1.5c-.183 0-.414.054-.618.21a.99.99 0 0 0-.384.797h1.5Zm-.498.493a.483.483 0 0 1-.303-.103.524.524 0 0 1-.148-.182.476.476 0 0 1-.05-.208h1.5A.992.992 0 0 0 12 16.001v1.5Zm-.177.257h.346v-1.5h-.346v1.5Z" fill="#000"/></svg>