<svg width="17" height="17" viewBox="0 0 17 17" fill="none" xmlns="http://www.w3.org/2000/svg">
<path fill-rule="evenodd" clip-rule="evenodd" d="M1.59331 8.49992C1.59331 4.68551 4.68551 1.59331 8.49992 1.59331C12.3143 1.59331 15.4065 4.68551 15.4065 8.49992C15.4065 12.3143 12.3143 15.4065 8.49992 15.4065C4.68551 15.4065 1.59331 12.3143 1.59331 8.49992ZM8.49992 0C3.80555 0 0 3.80555 0 8.49992C0 13.1943 3.80555 16.9998 8.49992 16.9998C13.1943 16.9998 16.9998 13.1943 16.9998 8.49992C16.9998 3.80555 13.1943 0 8.49992 0ZM9.29658 4.5627C9.29658 4.12272 8.9399 3.76604 8.49992 3.76604C8.05994 3.76604 7.70327 4.12272 7.70327 4.5627V9.52702C7.70327 9.96701 8.05994 10.3237 8.49992 10.3237C8.9399 10.3237 9.29658 9.96701 9.29658 9.52702V4.5627ZM8.11946 11.3543C8.23206 11.279 8.36445 11.2389 8.49988 11.2389C8.68148 11.2389 8.85565 11.311 8.98406 11.4394C9.11247 11.5678 9.18461 11.742 9.18461 11.9236C9.18461 12.059 9.14445 12.1914 9.06921 12.304C8.99397 12.4166 8.88703 12.5044 8.76191 12.5562C8.63679 12.608 8.49912 12.6216 8.36629 12.5952C8.23347 12.5687 8.11146 12.5035 8.0157 12.4078C7.91993 12.312 7.85472 12.19 7.8283 12.0572C7.80188 11.9244 7.81544 11.7867 7.86727 11.6616C7.91909 11.5364 8.00686 11.4295 8.11946 11.3543Z" fill="black"/>
</svg>
