<svg xmlns="http://www.w3.org/2000/svg" width="16" height="16" fill="none" viewBox="0 0 16 16"><path fill="#000" d="M10.718 4.985a.75.75 0 0 0 1.144-.97l-1.144.97ZM4 15.593a.75.75 0 0 0 0-1.5v1.5ZM2 1v.75V1Zm5.857 0v.75V1Zm.763.353-.572.485.572-.485Zm-6.87 12.49V2H.25v11.843h1.5ZM2 1.75h5.857V.25H2v1.5Zm6.048.088 2.67 3.147 1.144-.97L9.192.868l-1.144.97ZM2 15.593h2v-1.5H2v1.5ZM1.75 2A.25.25 0 0 1 2 1.75V.25A1.75 1.75 0 0 0 .25 2h1.5ZM.25 13.843c0 .966.784 1.75 1.75 1.75v-1.5a.25.25 0 0 1-.25-.25H.25ZM7.857 1.75a.25.25 0 0 1 .19.088l1.144-.97A1.75 1.75 0 0 0 7.857.25v1.5ZM5.698 8.07H4v4.86h.913v-1.874h.785c.919 0 1.455-.55 1.455-1.493 0-.945-.536-1.494-1.455-1.494Zm-.146 2.152h-.64v-1.32h.64c.463 0 .676.21.676.66 0 .452-.213.66-.676.66Zm4.76-2.152v2.944L8.347 8.069h-.585v4.862h.828v-2.855l1.966 2.855h.584V8.069h-.828Zm5.678 2.229h-2.124v.833h1.21c-.011.667-.389.965-.979.965-.67 0-1.175-.687-1.175-1.597 0-.91.505-1.597 1.175-1.597.688 0 .943.534.998.757l.755-.396C15.637 8.486 15.028 8 14.11 8c-1.242 0-2.119 1.035-2.119 2.5s.877 2.5 2.118 2.5c1.211 0 1.99-.896 1.88-2.701Z"/></svg>