<svg width="16" height="16" viewBox="0 0 16 16" fill="none" xmlns="http://www.w3.org/2000/svg"><path d="M10.718 4.985a.75.75 0 0 0 1.144-.97l-1.144.97ZM4 15.593a.75.75 0 0 0 0-1.5v1.5ZM2 1v.75V1Zm5.857 0v.75V1Zm.763.353-.572.485.572-.485Zm-6.87 12.49V2H.25v11.843h1.5ZM2 1.75h5.857V.25H2v1.5Zm6.048.088 2.67 3.147 1.144-.97L9.192.868l-1.144.97ZM2 15.593h2v-1.5H2v1.5ZM1.75 2A.25.25 0 0 1 2 1.75V.25A1.75 1.75 0 0 0 .25 2h1.5ZM.25 13.843c0 .966.784 1.75 1.75 1.75v-1.5a.25.25 0 0 1-.25-.25H.25ZM7.857 1.75a.25.25 0 0 1 .19.088l1.144-.97A1.75 1.75 0 0 0 7.857.25v1.5ZM5.81 8H4.138v4.667h1v-1.8h.674c1.006 0 1.593-.527 1.593-1.434C7.404 8.527 6.817 8 5.81 8Zm-.16 2.067h-.513V8.8h.514c.506 0 .74.2.74.633 0 .434-.234.634-.74.634ZM9.941 8H8.268v4.667h1v-1.8h.673c1.007 0 1.594-.527 1.594-1.434C11.535 8.527 10.948 8 9.94 8Zm-.16 2.067h-.513V8.8h.513c.507 0 .74.2.74.633 0 .434-.233.634-.74.634ZM15.765 8h-3.533v.8h1.267v3.867h1V8.8h1.266V8Z" fill="#000"/></svg>