<svg width="16" height="16" viewBox="0 0 16 16" fill="none" xmlns="http://www.w3.org/2000/svg"><path d="m14.295 9.727-.53-.53.53.53Zm-4.8 4.801.146.736a.75.75 0 0 0 .384-.206l-.53-.53ZM7.134 15l-.736-.147a.75.75 0 0 0 .883.882L7.135 15Zm.472-2.36-.53-.53a.75.75 0 0 0-.206.383l.736.147Zm4.8-4.8.53.53h.001l-.53-.53Zm1.883 0-.53.53.53-.53Zm.294.436-.693.288.693-.288Zm-1.077 2.24.53.53-.53-.53Zm-2.789-5.53a.75.75 0 0 0 1.144-.971l-1.144.97ZM4 15.592a.75.75 0 0 0 0-1.5v1.5ZM2 1v.75V1Zm5.857 0v.75V1Zm.763.353-.572.485.572-.485Zm.727 12.44-2.36.472.295 1.47 2.36-.471-.295-1.471ZM7.87 15.147l.472-2.36-1.47-.294-.473 2.36 1.471.294Zm5.068-6.778a.579.579 0 0 1 .189-.126l-.575-1.385a2.08 2.08 0 0 0-.675.452l1.061 1.06Zm.189-.126a.58.58 0 0 1 .222-.044V6.7a2.08 2.08 0 0 0-.797.159l.575 1.385Zm.222-.044a.58.58 0 0 1 .222.044l.575-1.385a2.08 2.08 0 0 0-.797-.159v1.5Zm.222.044a.58.58 0 0 1 .188.126l1.062-1.06a2.08 2.08 0 0 0-.675-.451l-.575 1.385Zm.32.32c.03.071.045.147.045.223h1.5a2.08 2.08 0 0 0-.16-.797l-1.385.575Zm.045.223a.579.579 0 0 1-.045.222l1.386.575a2.08 2.08 0 0 0 .159-.797h-1.5Zm-.045.222a.58.58 0 0 1-.126.188l1.06 1.062a2.08 2.08 0 0 0 .452-.675l-1.386-.575Zm-.131-.638a.6.6 0 0 1 .131.194l1.386-.575a2.101 2.101 0 0 0-.456-.68L13.76 8.37ZM1.75 13.843V2H.25v11.843h1.5ZM2 1.75h5.857V.25H2v1.5Zm6.137 11.42 4.013-4.012-1.06-1.06-4.014 4.012 1.061 1.06Zm4.84-3.185-4.013 4.013 1.06 1.06 4.014-4.012-1.061-1.061Zm-1.888-.827 1.888 1.888 1.06-1.061-1.887-1.888-1.06 1.06Zm2.676.039-.788.788 1.06 1.06.789-.787-1.061-1.061Zm-1.615-.04.788-.787-1.06-1.06-.789.787 1.061 1.06ZM8.048 1.839l2.67 3.147 1.144-.97L9.192.868l-1.144.97ZM2 15.593h2v-1.5H2v1.5ZM1.75 2A.25.25 0 0 1 2 1.75V.25A1.75 1.75 0 0 0 .25 2h1.5ZM.25 13.843c0 .966.784 1.75 1.75 1.75v-1.5a.25.25 0 0 1-.25-.25H.25ZM7.857 1.75a.25.25 0 0 1 .19.088l1.144-.97A1.75 1.75 0 0 0 7.857.25v1.5Z" fill="#000"/></svg>