<svg width="16" height="16" viewBox="0 0 16 16" fill="none" xmlns="http://www.w3.org/2000/svg">
<path d="M10.7181 4.98526C10.9861 5.30109 11.4594 5.33986 11.7753 5.07186C12.0911 4.80385 12.1299 4.33057 11.8619 4.01474L10.7181 4.98526ZM4 15.5927C4.41421 15.5927 4.75 15.2569 4.75 14.8427C4.75 14.4285 4.41421 14.0927 4 14.0927V15.5927ZM2 1.00001L2 1.75001L2 1.00001ZM7.85706 1L7.85706 1.75L7.85706 1ZM8.61953 1.35298L8.04768 1.83825L8.61953 1.35298ZM1.75 13.8427V2.00001H0.25V13.8427H1.75ZM2 1.75001L7.85706 1.75L7.85705 0.250001L2 0.250008L2 1.75001ZM8.04768 1.83825L10.7181 4.98526L11.8619 4.01474L9.19139 0.867723L8.04768 1.83825ZM2 15.5927H4V14.0927H2V15.5927ZM1.75 2.00001C1.75 1.86194 1.86193 1.75001 2 1.75001L2 0.250008C1.0335 0.250009 0.25 1.03351 0.25 2.00001H1.75ZM0.25 13.8427C0.25 14.8092 1.0335 15.5927 2 15.5927V14.0927C1.86193 14.0927 1.75 13.9807 1.75 13.8427H0.25ZM7.85706 1.75C7.93047 1.75 8.00017 1.78227 8.04768 1.83825L9.19139 0.867723C8.85889 0.475884 8.37096 0.25 7.85705 0.250001L7.85706 1.75Z" fill="black"/>
<path d="M5.81054 8H4.13721V12.6667H5.13721V10.8667H5.81054C6.81721 10.8667 7.40387 10.34 7.40387 9.43333C7.40387 8.52667 6.81721 8 5.81054 8ZM5.65054 10.0667H5.13721V8.8H5.65054C6.15721 8.8 6.39054 9 6.39054 9.43333C6.39054 9.86667 6.15721 10.0667 5.65054 10.0667Z" fill="black"/>
<path d="M9.94127 8H8.26794V12.6667H9.26794V10.8667H9.94127C10.9479 10.8667 11.5346 10.34 11.5346 9.43333C11.5346 8.52667 10.9479 8 9.94127 8ZM9.78127 10.0667H9.26794V8.8H9.78127C10.2879 8.8 10.5213 9 10.5213 9.43333C10.5213 9.86667 10.2879 10.0667 9.78127 10.0667Z" fill="black"/>
<path d="M15.7653 8H12.232V8.8H13.4987V12.6667H14.4987V8.8H15.7653V8Z" fill="black"/>
</svg>
