<svg width="24" height="24" viewBox="0 0 24 24" fill="none" xmlns="http://www.w3.org/2000/svg">
<path d="M12 11.231V14.231M12 17.231V14.231M12 14.231H9M12 14.231H15M7.5 6.75H4.5C2.84315 6.75 1.5 8.09315 1.5 9.75V18.75C1.5 20.4069 2.84315 21.75 4.5 21.75H19.5C21.1569 21.75 22.5 20.4069 22.5 18.75V9.75C22.5 8.09315 21.1569 6.75 19.5 6.75H16.5M7.5 6.75V3.75C7.5 2.92157 8.17157 2.25 9 2.25H15C15.8284 2.25 16.5 2.92157 16.5 3.75V6.75M7.5 6.75H16.5" stroke="black" stroke-width="1.5" stroke-linecap="round" stroke-linejoin="round"/>
</svg>
