<svg xmlns="http://www.w3.org/2000/svg" width="16" height="16" fill="none" viewBox="0 0 17 17"><path stroke="#000" stroke-linecap="round" stroke-linejoin="round" stroke-width="1.5" d="M8.362 2.7c-2.18.01-4.328 1.112-5.057 2.61a.997.997 0 0 0 .22 1.13L5.27 8.185m1.772 3.934c5.888-1.04 9.778-4.076 9.11-10.39a1.002 1.002 0 0 0-.882-.882C8.957.18 5.921 4.07 4.881 9.957m2.162 2.162-1.705 3.826a.51.51 0 0 1-.94-.069l-.597-2.679-2.679-.597a.51.51 0 0 1-.069-.94l3.828-1.703m2.162 2.162L4.881 9.957m9.42-1.319c-.012 2.18-1.113 4.328-2.61 5.057a.997.997 0 0 1-1.13-.219l-1.744-1.747"/><path fill="#000" fill-rule="evenodd" d="M11.848 4.38a.773.773 0 1 1 0-1.547.773.773 0 0 1 0 1.546Z" clip-rule="evenodd"/></svg>