<svg width="24" height="24" viewBox="0 0 24 24" fill="none" xmlns="http://www.w3.org/2000/svg">
<path d="M5.74469 10.8762C8.01057 11.2758 10.166 9.79648 10.5584 7.57099C10.9021 5.62188 9.77973 3.74741 7.97191 3.04398L1.56281 1L1.49177 1.40288C1.21714 2.96039 2.27968 4.44962 3.86687 4.72948L5.96408 5.10177M3.47535 7.42978C3.18764 9.06147 4.2763 10.6173 5.90883 10.9051M6.42977 7.95075L3.96775 7.51663C2.60872 7.27699 1.68064 6.09056 1.89644 4.86669L2.02668 4.12808M12.7235 18.6662C12.324 16.4003 13.8033 14.2449 16.0287 13.8525C17.9779 13.5088 19.8523 14.6312 20.5558 16.439L22.5997 22.8481L22.1969 22.9191C20.6393 23.1937 19.1501 22.1312 18.8703 20.544L18.498 18.4468M16.1699 20.9355C14.5382 21.2232 12.9824 20.1346 12.6946 18.5021M15.649 17.9811L16.0831 20.4431C16.3228 21.8022 17.5092 22.7302 18.7331 22.5144L19.4717 22.3842M10.6923 6.65977L15.2886 2.80304C15.7117 2.44804 16.3424 2.50322 16.6974 2.9263L21.1969 8.28861C21.5519 8.71168 21.4968 9.34244 21.0737 9.69744L16.4774 13.5542M12.6294 17.0702L8.47741 20.5542C8.05433 20.9092 7.42358 20.854 7.06857 20.4309L2.56906 15.0686C2.21406 14.6455 2.26924 14.0148 2.69232 13.6598L5.88301 10.9825" stroke="black" stroke-width="1.5" stroke-linecap="round" stroke-linejoin="round"/>
<path d="M10.4897 10.4099L9.66438 11.0973L9.77054 13.203L8.69157 11.9074L8 12.4834L10.6878 15.7107L11.3794 15.1348L10.5615 14.1527L10.5547 13.8539L12.3061 14.363L13.1775 13.6373L10.5388 13.0004L10.4897 10.4099Z" fill="black"/>
<path d="M15.269 11.8954L16.0712 11.2273L14.2938 10.49C14.5966 10.0192 14.5583 9.50447 14.1629 9.02959C13.6406 8.40257 12.9316 8.37624 12.2354 8.95604L10.9491 10.0273L13.6369 13.2547L14.3285 12.6787L13.2917 11.4339L13.6375 11.1459L15.269 11.8954ZM12.1014 10.0046L12.5855 9.60145C12.9359 9.30963 13.2125 9.31355 13.4621 9.61323C13.7116 9.91291 13.6655 10.1856 13.3151 10.4774L12.831 10.8806L12.1014 10.0046Z" fill="black"/>
</svg>
