<svg xmlns="http://www.w3.org/2000/svg" width="24" height="24" fill="none" viewBox="0 0 24 24"><path fill="#000" d="M.75 22.5a.75.75 0 0 0 0 1.5v-1.5Zm22.5 1.5a.75.75 0 0 0 0-1.5V24ZM21 11.5a.75.75 0 0 0 0-1.5v1.5ZM6.75 16h.75-.75ZM22.5 5.25a.75.75 0 0 0 1.5 0h-1.5Zm.75-4.5H24a.75.75 0 0 0-.75-.75v.75ZM18.75 0a.75.75 0 0 0 0 1.5V0Zm-.55 5.8-.53-.53.53.53Zm-2.237.564.216-.718a.78.78 0 0 0-.022-.007l-.194.725Zm-5.709-1.526.194-.725-.194.725Zm-2.172.583-.53-.53.53.53ZM1.72 10.723a.75.75 0 1 0 1.06 1.06l-1.06-1.06ZM22.5 22a.75.75 0 0 0-1.5 0h1.5Zm-6-9a.75.75 0 0 0 1.5 0h-1.5Zm1.5 7a.75.75 0 0 0-1.5 0H18Zm-4.5-7a.75.75 0 0 0 1.5 0h-1.5Zm1.5 7a.75.75 0 0 0-1.5 0H15Zm.5-4.25a.75.75 0 0 0 0 1.5v-1.5Zm4.47 2.72a.75.75 0 1 0 1.06 1.06l-1.06-1.06ZM23 16.5l.53.53a.75.75 0 0 0 0-1.06l-.53.53Zm-1.97-3.03a.75.75 0 1 0-1.06 1.06l1.06-1.06ZM21 10h-3v1.5h3V10Zm-3 0a1.5 1.5 0 0 0-1.06.44L18 11.5V10Zm-1.06.44a1.5 1.5 0 0 0-.44 1.06H18l-1.06-1.06ZM13.5 9h-3v1.5h3V9Zm-3 0a1.5 1.5 0 0 0-1.06.44l1.06 1.06V9Zm-1.06.44A1.5 1.5 0 0 0 9 10.5h1.5L9.44 9.44ZM15 10.5a1.5 1.5 0 0 0-.44-1.06L13.5 10.5H15Zm-.44-1.06A1.5 1.5 0 0 0 13.5 9v1.5l1.06-1.06ZM6 14.5H3V16h3v-1.5Zm-3 0a1.5 1.5 0 0 0-1.06.44L3 16v-1.5Zm-1.06.44A1.5 1.5 0 0 0 1.5 16H3l-1.06-1.06ZM7.5 16a1.5 1.5 0 0 0-.44-1.06L6 16h1.5Zm-.44-1.06A1.5 1.5 0 0 0 6 14.5V16l1.06-1.06ZM24 5.25V.75h-1.5v4.5H24ZM23.25 0h-4.5v1.5h4.5V0Zm-.53.22-5.05 5.05 1.06 1.06 5.05-5.05L22.72.22Zm-5.05 5.05a1.499 1.499 0 0 1-.694.393l.367 1.455a3 3 0 0 0 1.387-.788l-1.06-1.06Zm-.694.393a1.5 1.5 0 0 1-.797-.017l-.432 1.436a3 3 0 0 0 1.596.036l-.367-1.455Zm-.82-.024-5.708-1.526-.388 1.45 5.71 1.526.387-1.45Zm-5.709-1.526a3 3 0 0 0-1.551.001l.388 1.45c.255-.069.522-.07.777-.001l.386-1.45Zm-1.551.001a3.001 3.001 0 0 0-1.344.777l1.06 1.06a1.5 1.5 0 0 1 .672-.388l-.388-1.449Zm-1.344.777L1.72 10.723l1.06 1.06 5.832-5.832-1.06-1.06ZM.75 24h1.5v-1.5H.75V24Zm1.5 0h4.5v-1.5h-4.5V24Zm4.5 0h3v-1.5h-3V24Zm3 0h4.5v-1.5h-4.5V24Zm4.5 0h3v-1.5h-3V24Zm3 0h4.5v-1.5h-4.5V24Zm4.5 0h1.5v-1.5h-1.5V24ZM9 10.5v12.75h1.5V10.5H9ZM7.5 23.25V16H6v7.25h1.5ZM1.5 16v7.25H3V16H1.5Zm21 7.25V22H21v1.25h1.5Zm-6-11.75V13H18v-1.5h-1.5Zm0 8.5v3.25H18V20h-1.5ZM15 13v-2.5h-1.5V13H15Zm0 10.25V20h-1.5v3.25H15Zm6.03-3.72 2.5-2.5-1.06-1.06-2.5 2.5 1.06 1.06Zm2.5-3.56-2.5-2.5-1.06 1.06 2.5 2.5 1.06-1.06Zm-8.03 1.28H23v-1.5h-7.5v1.5Z"/></svg>