<svg xmlns="http://www.w3.org/2000/svg" width="16" height="16" fill="none" viewBox="0 0 16 16"><path stroke="#000" stroke-linecap="round" stroke-linejoin="round" stroke-width="1.5" d="M2.244 9.117h2.811a.234.234 0 0 0 .21-.13l1.071-2.144a.234.234 0 0 1 .436.037l1.046 3.485a.234.234 0 0 0 .436.025l.977-2.28a.234.234 0 0 1 .408-.038l.695 1.042h3.423M14.969 6a3.533 3.533 0 0 0-1.408-3.314 3.53 3.53 0 0 0-4.587.348L8 4.008l-.975-.971A3.53 3.53 0 0 0 1.031 6m8.608 6.54L8.336 13.9a.465.465 0 0 1-.673 0L6.36 12.54"/></svg>