<svg width="24" height="24" viewBox="0 0 24 24" fill="none" xmlns="http://www.w3.org/2000/svg"><g clip-path="url(#a)"><path d="M4.667 15.667V14.2c0-.81.656-1.467 1.466-1.467h11.734c.81 0 1.466.657 1.466 1.467v1.467M12 8.333v4.4M3.357 23h2.62a2.357 2.357 0 0 0 2.356-2.357v-2.62a2.357 2.357 0 0 0-2.357-2.356H3.357A2.357 2.357 0 0 0 1 18.024v2.619A2.357 2.357 0 0 0 3.357 23ZM10.69 8.333h2.62a2.357 2.357 0 0 0 2.357-2.357V3.357A2.357 2.357 0 0 0 13.31 1h-2.62a2.357 2.357 0 0 0-2.357 2.357v2.62a2.357 2.357 0 0 0 2.357 2.356ZM18.024 23h2.619A2.357 2.357 0 0 0 23 20.643v-2.62a2.357 2.357 0 0 0-2.357-2.356h-2.62a2.357 2.357 0 0 0-2.356 2.357v2.619A2.357 2.357 0 0 0 18.024 23Z" stroke="#000" stroke-width="1.5" stroke-linecap="round" stroke-linejoin="round"/></g><defs><clipPath id="a"><path fill="#fff" d="M0 0h24v24H0z"/></clipPath></defs></svg>