<svg width="24" height="24" viewBox="0 0 24 24" fill="none" xmlns="http://www.w3.org/2000/svg"><path d="M13.625 20.5a.75.75 0 0 0 0 1.5v-1.5Zm-9.375-7-.53.53a.75.75 0 0 0 1.06 0l-.53-.53Zm3.78-2.72a.75.75 0 1 0-1.06-1.06l1.06 1.06Zm-6.5-1.06a.75.75 0 0 0-1.06 1.06l1.06-1.06ZM13.5 7.247a.75.75 0 0 0-1.5 0h1.5Zm-.75 5.75H12c0 .414.336.75.75.75v-.75Zm4.25.75a.75.75 0 0 0 0-1.5v1.5Zm6.75-1.872c0-5.592-4.533-10.125-10.125-10.125v1.5a8.625 8.625 0 0 1 8.625 8.625h1.5ZM13.625 1.75C8.033 1.75 3.5 6.283 3.5 11.875H5a8.625 8.625 0 0 1 8.625-8.625v-1.5Zm0 20.25c5.592 0 10.125-4.533 10.125-10.125h-1.5a8.625 8.625 0 0 1-8.625 8.625V22ZM4.78 14.03l3.25-3.25-1.06-1.06-3.25 3.25 1.06 1.06Zm0-1.06L1.53 9.72.47 10.78l3.25 3.25 1.06-1.06ZM3.5 11.875V13.5H5v-1.625H3.5ZM12 7.247v5.75h1.5v-5.75H12Zm.75 6.5H17v-1.5h-4.25v1.5Z" fill="#000"/></svg>