<svg width="16" height="16" viewBox="0 0 16 16" fill="none" xmlns="http://www.w3.org/2000/svg"><path d="M9.034 13.182a.75.75 0 0 0 0 1.5v-1.5ZM3.068 9l-.53.53a.75.75 0 0 0 1.06 0L3.069 9Zm2.599-1.538a.75.75 0 1 0-1.061-1.06l1.06 1.06ZM1.53 6.402a.75.75 0 0 0-1.06 1.06l1.06-1.06ZM9.227 5.02a.75.75 0 1 0-1.5 0h1.5Zm-.75 3.659h-.75c0 .414.336.75.75.75v-.75Zm2.705.75a.75.75 0 0 0 0-1.5v1.5Zm4.568-1.464A6.716 6.716 0 0 0 9.034 1.25v1.5a5.216 5.216 0 0 1 5.216 5.216h1.5ZM9.034 1.25a6.716 6.716 0 0 0-6.716 6.716h1.5A5.216 5.216 0 0 1 9.034 2.75v-1.5Zm0 13.432a6.716 6.716 0 0 0 6.716-6.716h-1.5a5.216 5.216 0 0 1-5.216 5.216v1.5ZM3.6 9.53l2.068-2.068-1.061-1.06L2.538 8.47l1.06 1.06Zm0-1.06L1.53 6.4.47 7.462 2.538 9.53l1.06-1.06Zm-1.28-.504V9h1.5V7.966h-1.5ZM7.726 5.02v3.66h1.5V5.02h-1.5Zm.75 4.409h2.705v-1.5H8.477v1.5Z" fill="#000"/></svg>