<svg width="24" height="24" viewBox="0 0 24 24" fill="none" xmlns="http://www.w3.org/2000/svg">
<path d="M3.75 14.8787V19.6287C3.75 20.4457 4.433 21.1287 5.25 21.1287H18.75C19.567 21.1287 20.25 20.4457 20.25 19.6287V14.8787M0.75 13.3787L10.939 3.18968C11.0783 3.05029 11.2437 2.93971 11.4258 2.86427C11.6078 2.78883 11.8029 2.75 12 2.75C12.1971 2.75 12.3922 2.78883 12.5742 2.86427C12.7563 2.93971 12.9217 3.05029 13.061 3.18968L23.25 13.3787M17.25 7.37869V5.12869H20.25V10.3787" stroke="black" stroke-width="1.5" stroke-linecap="round" stroke-linejoin="round"/>
<path d="M11.6462 12.8789H10.4375L9.01283 14.886V12.8789H8V17.8789H9.01283V16.3575L9.22214 16.0789L10.37 17.8789H11.6462L9.82309 15.286L11.6462 12.8789Z" fill="black"/>
<path d="M14.8251 17.8789H16L14.9939 15.8503C15.5949 15.6503 15.9325 15.1503 15.9325 14.4146C15.9325 13.4432 15.3383 12.8789 14.3187 12.8789H12.4348V17.8789H13.4477V15.9503H13.9541L14.8251 17.8789ZM13.4477 13.736H14.1567C14.6698 13.736 14.9061 13.9503 14.9061 14.4146C14.9061 14.8789 14.6698 15.0932 14.1567 15.0932H13.4477V13.736Z" fill="black"/>
</svg>
