<svg width="16" height="16" viewBox="0 0 16 16" fill="none" xmlns="http://www.w3.org/2000/svg">
<path d="M11.2667 1H4.73333C2.67147 1 1 2.67147 1 4.73333V11.2667C1 13.3285 2.67147 15 4.73333 15H11.2667C13.3285 15 15 13.3285 15 11.2667V4.73333C15 2.67147 13.3285 1 11.2667 1Z" stroke="black" stroke-width="1.5" stroke-linecap="round" stroke-linejoin="round"/>
<path d="M8 11.1111C9.71822 11.1111 11.1111 9.71822 11.1111 8C11.1111 6.28178 9.71822 4.88889 8 4.88889C6.28178 4.88889 4.88889 6.28178 4.88889 8C4.88889 9.71822 6.28178 11.1111 8 11.1111Z" stroke="black" stroke-width="1.5" stroke-linecap="round" stroke-linejoin="round"/>
<ellipse cx="11.75" cy="3.75" rx="0.75" ry="0.75" fill="black"/>
</svg>
