<svg xmlns="http://www.w3.org/2000/svg" width="24" height="24" fill="none" viewBox="0 0 24 24"><path fill="#000" d="M12.75.75a.75.75 0 0 0-1.5 0h1.5Zm-1.5 1.5a.75.75 0 0 0 1.5 0h-1.5ZM1.5 10.5a.75.75 0 0 0 0 1.5v-1.5ZM3 12a.75.75 0 0 0 0-1.5V12Zm1.27-8.79a.75.75 0 1 0-1.04 1.08l1.04-1.08Zm.06 2.138a.75.75 0 1 0 1.04-1.082L4.33 5.348ZM22.5 12a.75.75 0 0 0 0-1.5V12ZM21 10.5a.75.75 0 0 0 0 1.5v-1.5Zm-.23-6.21a.75.75 0 0 0-1.04-1.08l1.04 1.08Zm-2.14-.024a.75.75 0 0 0 1.04 1.082l-1.04-1.082ZM14.322 17.59l-.258-.704.258.704Zm-4.644 0 .258-.704-.258.704Zm.822 2.66a.75.75 0 0 0 0 1.5v-1.5Zm3 1.5a.75.75 0 0 0 0-1.5v1.5Zm-2 .75a.75.75 0 0 0 0 1.5v-1.5Zm1 1.5a.75.75 0 0 0 0-1.5V24ZM11.25.75v1.5h1.5V.75h-1.5ZM1.5 12H3v-1.5H1.5V12Zm1.73-7.71 1.1 1.058 1.04-1.082-1.1-1.057-1.04 1.082ZM22.5 10.5H21V12h1.5v-1.5Zm-2.77-7.29-1.1 1.056 1.04 1.082 1.1-1.057-1.04-1.082ZM6 11.25a6 6 0 0 1 6-6v-1.5a7.5 7.5 0 0 0-7.5 7.5H6Zm6-6a6 6 0 0 1 6 6h1.5a7.5 7.5 0 0 0-7.5-7.5v1.5ZM9.936 16.886A6.003 6.003 0 0 1 6 11.25H4.5a7.503 7.503 0 0 0 4.92 7.044l.516-1.408ZM18 11.25a6.003 6.003 0 0 1-3.936 5.636l.516 1.408a7.503 7.503 0 0 0 4.92-7.044H18Zm-4.461 6.5H10.46v1.5h3.078v-1.5Zm-.289.289c0-.16.13-.289.289-.289v1.5a1.21 1.21 0 0 0 1.211-1.211h-1.5Zm-4 0a1.21 1.21 0 0 0 1.211 1.211v-1.5c.16 0 .289.13.289.289h-1.5Zm4.814-1.153c-.464.17-.814.614-.814 1.153h1.5a.268.268 0 0 1-.17.255l-.516-1.408ZM9.42 18.294a.268.268 0 0 1-.17-.255h1.5c0-.54-.35-.983-.814-1.153l-.516 1.408Zm1.08 3.456h3v-1.5h-3v1.5Zm1 2.25h1v-1.5h-1V24Z"/></svg>