<svg xmlns="http://www.w3.org/2000/svg" width="16" height="16" fill="none" viewBox="0 0 16 16"><path fill="#000" d="M8.683.75a.75.75 0 0 0-1.5 0h1.5Zm-1.5.5a.75.75 0 1 0 1.5 0h-1.5ZM1 7.033a.75.75 0 0 0 0 1.5v-1.5Zm.5 1.5a.75.75 0 1 0 0-1.5v1.5ZM2.964 2.22a.75.75 0 0 0-1.061 1.06l1.06-1.06Zm-.561 1.56a.75.75 0 0 0 1.06-1.06l-1.06 1.06ZM15 8.533a.75.75 0 0 0 0-1.5v1.5Zm-.5-1.5a.75.75 0 0 0 0 1.5v-1.5Zm-.47-3.82a.75.75 0 0 0-1.06-1.06l1.06 1.06Zm-1.56-.56a.75.75 0 0 0 1.06 1.06l-1.06-1.06Zm-3.092 9.075-.258-.704.258.704Zm-2.89 0 .258-.704-.258.704ZM7.622 14.5a.75.75 0 0 0 0 1.5v-1.5Zm.622 1.5a.75.75 0 0 0 0-1.5V16ZM7.184.75v.5h1.5v-.5h-1.5ZM1 8.533h.5v-1.5H1v1.5Zm.903-5.253.5.5 1.06-1.06-.5-.5-1.06 1.06ZM15 7.033h-.5v1.5h.5v-1.5Zm-2.03-4.88-.5.5 1.06 1.06.5-.5-1.06-1.06Zm-8.487 5.63a3.45 3.45 0 0 1 3.45-3.45v-1.5a4.95 4.95 0 0 0-4.95 4.95h1.5Zm3.45-3.45a3.45 3.45 0 0 1 3.45 3.45h1.5a4.95 4.95 0 0 0-4.95-4.95v1.5Zm-1.187 6.691a3.452 3.452 0 0 1-2.263-3.24h-1.5a4.952 4.952 0 0 0 3.247 4.648l.516-1.408Zm4.637-3.24a3.452 3.452 0 0 1-2.263 3.24l.516 1.408a4.952 4.952 0 0 0 3.247-4.649h-1.5ZM8.891 12.25H6.976v1.5H8.89v-1.5Zm-.463-.242c0-.02 0-.019-.002.013l-.013.101c-.012.084-.03.183-.05.275-.023.1-.042.157-.05.176-.006.014.008-.025.052-.08a.63.63 0 0 1 .152-.135.696.696 0 0 1 .374-.108v1.5a.826.826 0 0 0 .64-.315c.083-.101.133-.207.162-.274a2.62 2.62 0 0 0 .132-.431c.056-.248.103-.56.103-.723h-1.5Zm-2.49 0c0 .162.047.474.104.722.029.129.072.289.132.43.029.068.079.174.16.275a.826.826 0 0 0 .642.315v-1.5a.7.7 0 0 1 .374.108.63.63 0 0 1 .151.134c.045.056.059.095.053.081a1.26 1.26 0 0 1-.05-.176 3.627 3.627 0 0 1-.063-.377c-.003-.03-.002-.031-.002-.012h-1.5Zm3.182-.984a1.05 1.05 0 0 0-.692.984h1.5a.45.45 0 0 1-.292.424l-.516-1.408Zm-2.89 1.408a.45.45 0 0 1-.291-.425h1.5c0-.462-.3-.84-.693-.983l-.516 1.408ZM7.622 16h.622v-1.5h-.622V16Z"/></svg>