<svg width="16" height="16" viewBox="0 0 16 16" fill="none" xmlns="http://www.w3.org/2000/svg">
<path d="M4.02939 14.8271V15.5771C4.4436 15.5771 4.77939 15.2413 4.77939 14.8271H4.02939ZM1 14.8271H0.25C0.25 15.2413 0.585786 15.5771 1 15.5771L1 14.8271ZM1 6V5.25C0.585786 5.25 0.25 5.58579 0.25 6H1ZM4.02939 6H4.77939C4.77939 5.58579 4.4436 5.25 4.02939 5.25V6ZM8.98486 14.8271V15.5771C9.39907 15.5771 9.73486 15.2413 9.73486 14.8271H8.98486ZM5.79964 14.8271H5.04964C5.04964 15.2413 5.38543 15.5771 5.79964 15.5771V14.8271ZM5.79964 6V5.25C5.38543 5.25 5.04964 5.58579 5.04964 6H5.79964ZM8.98486 6H9.73486C9.73486 5.58579 9.39907 5.25 8.98486 5.25V6ZM8.98486 6.99359H8.23486C8.23486 7.28583 8.40461 7.55145 8.66981 7.67421C8.935 7.79697 9.24736 7.75451 9.47017 7.56541L8.98486 6.99359ZM11.6527 5.99375V5.24369L11.6429 5.24381L11.6527 5.99375ZM15 14.8271V15.5771C15.4142 15.5771 15.75 15.2413 15.75 14.8271H15ZM11.6527 14.8271H10.9027C10.9027 15.2413 11.2385 15.5771 11.6527 15.5771V14.8271ZM11.6527 10.1743L10.9027 10.1708V10.1743H11.6527ZM10.3188 8.8308V9.5808H10.3188L10.3188 8.8308ZM4.02939 14.0771H1V15.5771H4.02939V14.0771ZM1.75 14.8271V6H0.25V14.8271H1.75ZM1 6.75H4.02939V5.25H1V6.75ZM3.27939 6V14.8271H4.77939V6H3.27939ZM8.23486 10.1743V14.8271H9.73486V10.1743H8.23486ZM8.98486 14.0771H5.79964V15.5771H8.98486V14.0771ZM6.54964 14.8271V6H5.04964V14.8271H6.54964ZM5.79964 6.75H8.98486V5.25H5.79964V6.75ZM8.23486 6V6.99359H9.73486V6H8.23486ZM9.47017 7.56541C10.0839 7.04453 10.859 6.75415 11.6625 6.74369L11.6429 5.24381C10.4903 5.25883 9.37895 5.67543 8.49956 6.42177L9.47017 7.56541ZM11.6527 6.74375C12.4408 6.74375 13.0559 7.02851 13.4886 7.55345C13.935 8.09491 14.25 8.9703 14.25 10.2493H15.75C15.75 8.74129 15.3794 7.48889 14.6461 6.59933C13.8991 5.69325 12.8406 5.24375 11.6527 5.24375V6.74375ZM14.25 10.2493V14.8271H15.75V10.2493H14.25ZM15 14.0771H11.6527V15.5771H15V14.0771ZM12.4027 14.8271V10.1743H10.9027V14.8271H12.4027ZM10.3188 8.0808C9.16893 8.0808 8.23486 9.04969 8.23486 10.1743H9.73486C9.73486 9.8594 10.0159 9.5808 10.3188 9.5808V8.0808ZM12.4027 10.1778C12.408 9.0466 11.4689 8.08079 10.3188 8.0808L10.3188 9.5808C10.627 9.5808 10.9042 9.85994 10.9027 10.1708L12.4027 10.1778ZM3.20562 2.47778C3.20562 2.87972 2.87978 3.20556 2.47784 3.20556V4.70556C3.70821 4.70556 4.70562 3.70815 4.70562 2.47778H3.20562ZM2.47784 3.20556C2.0759 3.20556 1.75006 2.87972 1.75006 2.47778H0.250065C0.250065 3.70815 1.24747 4.70556 2.47784 4.70556V3.20556ZM1.75006 2.47778C1.75006 2.07584 2.0759 1.75 2.47784 1.75V0.25C1.24747 0.25 0.250065 1.24741 0.250065 2.47778H1.75006ZM2.47784 1.75C2.87978 1.75 3.20562 2.07584 3.20562 2.47778H4.70562C4.70562 1.24741 3.70821 0.25 2.47784 0.25V1.75Z" fill="black"/>
</svg>
