<svg xmlns="http://www.w3.org/2000/svg" width="24" height="24" fill="none" viewBox="0 0 24 24"><path fill="#000" d="M23.25 21a.75.75 0 0 0 0-1.5V21ZM.75 19.5a.75.75 0 0 0 0 1.5v-1.5ZM10.5 8a.75.75 0 0 0 0 1.5V8Zm-9 1A.75.75 0 0 0 3 9H1.5ZM3 16a.75.75 0 0 0-1.5 0H3ZM6 6a.75.75 0 0 0 1.5 0H6Zm1.5 13A.75.75 0 0 0 6 19h1.5Zm3-3A.75.75 0 0 0 9 16h1.5ZM1 11.75a.75.75 0 0 0 0 1.5v-1.5Zm4.47 2.72a.75.75 0 1 0 1.06 1.06l-1.06-1.06ZM8.5 12.5l.53.53a.75.75 0 0 0 0-1.06l-.53.53ZM6.53 9.47a.75.75 0 0 0-1.06 1.06l1.06-1.06ZM18 13.5h3V12h-3v1.5Zm3 0h1.5A1.5 1.5 0 0 0 21 12v1.5Zm-3 0V12a1.5 1.5 0 0 0-1.5 1.5H18Zm-7.5-4h3V8h-3v1.5Zm3 0H15A1.5 1.5 0 0 0 13.5 8v1.5ZM3 5.5h3V4H3v1.5Zm3 0h1.5A1.5 1.5 0 0 0 6 4v1.5Zm-3 0V4a1.5 1.5 0 0 0-1.5 1.5H3Zm-.75 14H.75V21h1.5v-1.5Zm4.5 0h-4.5V21h4.5v-1.5Zm3 0h-3V21h3v-1.5Zm4.5 0h-4.5V21h4.5v-1.5Zm-.75-10v10.75H15V9.5h-1.5Zm3.75 10h-3V21h3v-1.5Zm.75.75V13.5h-1.5v6.75H18Zm5.25-.75h-1.5V21h1.5v-1.5Zm-1.5 0h-4.5V21h4.5v-1.5Zm-.75-6v6.75h1.5V13.5H21ZM3 9V5.5H1.5V9H3Zm0 11.25V16H1.5v4.25H3ZM6 5.5V6h1.5v-.5H6ZM6 19v1.25h1.5V19H6Zm4.5 1.25V16H9v4.25h1.5Zm-3.97-4.72 2.5-2.5-1.06-1.06-2.5 2.5 1.06 1.06Zm2.5-3.56-2.5-2.5-1.06 1.06 2.5 2.5 1.06-1.06ZM1 13.25h7.5v-1.5H1v1.5Z"/></svg>