<svg xmlns="http://www.w3.org/2000/svg" width="24" height="24" fill="none" viewBox="0 0 24 24"><path fill="#000" d="M23.25 21a.75.75 0 0 0 0-1.5V21ZM.75 19.5a.75.75 0 0 0 0 1.5v-1.5Zm12.75-10a.75.75 0 0 0 0-1.5v1.5ZM15 16a.75.75 0 0 0-1.5 0H15Zm3 0a.75.75 0 0 0-1.5 0H18Zm4.5 2a.75.75 0 0 0-1.5 0h1.5Zm-7-6.25a.75.75 0 0 0 0 1.5v-1.5Zm4.47 2.72a.75.75 0 1 0 1.06 1.06l-1.06-1.06ZM23 12.5l.53.53a.75.75 0 0 0 0-1.06l-.53.53Zm-1.97-3.03a.75.75 0 1 0-1.06 1.06l1.06-1.06ZM10.5 9.5h3V8h-3v1.5Zm0 0V8A1.5 1.5 0 0 0 9 9.5h1.5ZM3 5.5h3V4H3v1.5Zm3 0h1.5A1.5 1.5 0 0 0 6 4v1.5Zm-3 0V4a1.5 1.5 0 0 0-1.5 1.5H3Zm-.75 14H.75V21h1.5v-1.5Zm.75.75V5.5H1.5v14.75H3Zm3.75-.75h-4.5V21h4.5v-1.5ZM6 5.5v14.75h1.5V5.5H6Zm3.75 14h-3V21h3v-1.5Zm.75.75V9.5H9v10.75h1.5Zm3.75-.75h-4.5V21h4.5v-1.5Zm3 0h-3V21h3v-1.5Zm6 0h-1.5V21h1.5v-1.5Zm-1.5 0h-4.5V21h4.5v-1.5ZM13.5 16v4.25H15V16h-1.5Zm4.5 4.25V16h-1.5v4.25H18ZM21 18v2.25h1.5V18H21Zm.03-2.47 2.5-2.5-1.06-1.06-2.5 2.5 1.06 1.06Zm2.5-3.56-2.5-2.5-1.06 1.06 2.5 2.5 1.06-1.06Zm-8.03 1.28H23v-1.5h-7.5v1.5Z"/></svg>