<svg width="24" height="24" viewBox="0 0 24 24" fill="none" xmlns="http://www.w3.org/2000/svg"><path d="M10 22.25a.75.75 0 0 0 0 1.5v-1.5Zm4 1.5a.75.75 0 0 0 0-1.5v1.5Zm4.406-13.065.658.36.015-.028.012-.028-.685-.304Zm-4.492 8.226.648.378.005-.01.006-.009-.659-.36ZM10.08 18.9l-.658.359.005.01.006.01.647-.38Zm-4.5-8.248-.687.303.013.029.015.027.658-.359ZM10 23.75h4v-1.5h-4v1.5ZM13.5 8A1.5 1.5 0 0 1 12 9.5V11a3 3 0 0 0 3-3h-1.5ZM12 9.5A1.5 1.5 0 0 1 10.5 8H9a3 3 0 0 0 3 3V9.5ZM10.5 8A1.5 1.5 0 0 1 12 6.5V5a3 3 0 0 0-3 3h1.5ZM12 6.5A1.5 1.5 0 0 1 13.5 8H15a3 3 0 0 0-3-3v1.5Zm6.25 1.402c0 .851-.176 1.68-.53 2.479l1.371.608a7.559 7.559 0 0 0 .659-3.087h-1.5Zm-.503 2.423-4.49 8.226 1.316.72 4.49-8.227-1.316-.719Zm-4.48 8.207A1.462 1.462 0 0 1 12 19.25v1.5a2.963 2.963 0 0 0 2.562-1.46l-1.295-.758ZM12 19.25a1.47 1.47 0 0 1-1.274-.73l-1.294.759A2.969 2.969 0 0 0 12 20.75v-1.5Zm-1.262-.71-4.501-8.247-1.317.718 4.5 8.248 1.318-.719Zm-4.474-8.19a6.043 6.043 0 0 1-.514-2.448h-1.5c0 1.062.22 2.097.642 3.053l1.372-.606ZM5.75 7.901C5.75 4.516 8.537 1.75 12 1.75V.25c-4.272 0-7.75 3.418-7.75 7.652h1.5ZM12 1.75c3.463 0 6.25 2.766 6.25 6.152h1.5C19.75 3.668 16.273.25 12 .25v1.5Z" fill="#000"/></svg>