<svg width="24" height="24" viewBox="0 0 24 24" fill="none" xmlns="http://www.w3.org/2000/svg"><path d="M18.03 16.97a.75.75 0 1 0-1.06 1.06l1.06-1.06Zm4.44 6.56a.75.75 0 1 0 1.06-1.06l-1.06 1.06Zm-5.5-5.5 5.5 5.5 1.06-1.06-5.5-5.5-1.06 1.06Zm.28-8.53a7.75 7.75 0 0 1-7.75 7.75v1.5a9.25 9.25 0 0 0 9.25-9.25h-1.5ZM9.5 17.25A7.75 7.75 0 0 1 1.75 9.5H.25a9.25 9.25 0 0 0 9.25 9.25v-1.5ZM1.75 9.5A7.75 7.75 0 0 1 9.5 1.75V.25A9.25 9.25 0 0 0 .25 9.5h1.5ZM9.5 1.75a7.75 7.75 0 0 1 7.75 7.75h1.5A9.25 9.25 0 0 0 9.5.25v1.5Z" fill="#000"/></svg>