<svg width="16" height="16" viewBox="0 0 16 16" fill="none" xmlns="http://www.w3.org/2000/svg"><path d="m7.925 3.482-.5.558.5-.558ZM5.918 5.844a.75.75 0 1 0 1.491.165l-1.49-.165Zm1.55-.18a.75.75 0 1 0-1.464-.332l1.463.332Zm.855-.226a.75.75 0 0 0 1.433-.443l-1.433.443Zm5.14 0a.75.75 0 0 0 1.433-.443l-1.433.443Zm-9.129 5.409a.75.75 0 0 0 .332-1.463l-.332 1.463ZM15 12h-.75.75Zm0-1.288h.75H15ZM2.25 6.355A3.105 3.105 0 0 1 5.355 3.25v-1.5A4.605 4.605 0 0 0 .75 6.355h1.5ZM5.355 3.25c.796 0 1.52.298 2.07.79l1-1.117a4.59 4.59 0 0 0-3.07-1.173v1.5Zm3.07.79a3.09 3.09 0 0 1 2.07-.79v-1.5a4.59 4.59 0 0 0-3.07 1.173l1 1.117ZM7.41 6.01c.013-.118.033-.233.058-.346l-1.463-.332a4.595 4.595 0 0 0-.086.512l1.491.165Zm.016-1.97c.416.372.73.854.898 1.398l1.433-.443a4.607 4.607 0 0 0-1.33-2.072L7.424 4.04Zm3.07-.79c1.395 0 2.576.92 2.968 2.188l1.433-.443a4.607 4.607 0 0 0-4.4-3.245v1.5Zm-5.83 6.134A3.107 3.107 0 0 1 2.25 6.355H.75a4.607 4.607 0 0 0 3.584 4.492l.332-1.463Zm3.803-.882H14v-1.5H8.468v1.5ZM14 12.25H8.468v1.5H14v-1.5ZM8.218 12v-1.288h-1.5V12h1.5Zm0-1.288v-1.96h-1.5v1.96h1.5Zm6.032-1.96v1.96h1.5v-1.96h-1.5Zm0 1.96V12h1.5v-1.288h-1.5Zm-6.782.75H15v-1.5H7.468v1.5Zm1 .788a.25.25 0 0 1-.25-.25h-1.5c0 .966.784 1.75 1.75 1.75v-1.5ZM14 13.75A1.75 1.75 0 0 0 15.75 12h-1.5a.25.25 0 0 1-.25.25v1.5Zm0-5.248a.25.25 0 0 1 .25.25h1.5A1.75 1.75 0 0 0 14 7.002v1.5Zm-5.532-1.5a1.75 1.75 0 0 0-1.75 1.75h1.5a.25.25 0 0 1 .25-.25v-1.5Z" fill="#000"/></svg>