<svg width="24" height="24" viewBox="0 0 24 24" fill="none" xmlns="http://www.w3.org/2000/svg"><path d="M10.5 3.75a.75.75 0 0 0 0 1.5v-1.5Zm3 1.5a.75.75 0 0 0 0-1.5v1.5Zm-7-3.5h11V.25h-11v1.5ZM17.75 2v20h1.5V2h-1.5Zm-.25 20.25h-11v1.5h11v-1.5ZM6.25 22V2h-1.5v20h1.5ZM10.5 5.25h3v-1.5h-3v1.5Zm-4 17a.25.25 0 0 1-.25-.25h-1.5c0 .966.784 1.75 1.75 1.75v-1.5ZM17.75 22a.25.25 0 0 1-.25.25v1.5A1.75 1.75 0 0 0 19.25 22h-1.5ZM17.5 1.75a.25.25 0 0 1 .25.25h1.5A1.75 1.75 0 0 0 17.5.25v1.5ZM6.5.25A1.75 1.75 0 0 0 4.75 2h1.5a.25.25 0 0 1 .25-.25V.25Zm6 18.75a.5.5 0 0 1-.5.5V21a2 2 0 0 0 2-2h-1.5Zm-.5.5a.5.5 0 0 1-.5-.5H10a2 2 0 0 0 2 2v-1.5Zm-.5-.5a.5.5 0 0 1 .5-.5V17a2 2 0 0 0-2 2h1.5Zm.5-.5a.5.5 0 0 1 .5.5H14a2 2 0 0 0-2-2v1.5Z" fill="#000"/></svg>