<svg width="16" height="16" viewBox="0 0 16 16" fill="none" xmlns="http://www.w3.org/2000/svg"><path d="M7.2 2.477a.75.75 0 1 0 0 1.5v-1.5Zm1.8 1.5a.75.75 0 1 0 0-1.5v1.5Zm-.88 7.27a.75.75 0 0 0 0 1.5v-1.5Zm.023 1.5a.75.75 0 0 0 0-1.5v1.5ZM4.636 1.75h7V.25h-7v1.5Zm6.887-.114v12.728h1.5V1.636h-1.5Zm.113 12.614h-7v1.5h7v-1.5Zm-6.886.114V1.636h-1.5v12.728h1.5Zm-.114-.114c.063 0 .114.05.114.114h-1.5c0 .765.62 1.386 1.386 1.386v-1.5Zm6.887.114c0-.063.05-.114.113-.114v1.5c.766 0 1.387-.62 1.387-1.386h-1.5Zm.113-12.614a.114.114 0 0 1-.113-.114h1.5c0-.765-.621-1.386-1.387-1.386v1.5Zm-7-1.5C3.871.25 3.25.87 3.25 1.636h1.5c0 .063-.05.114-.114.114V.25ZM7.2 3.977H9v-1.5H7.2v1.5Zm.92 8.77h.023v-1.5H8.12v1.5Z" fill="#000"/></svg>