<svg width="16" height="17" viewBox="0 0 16 17" fill="none" xmlns="http://www.w3.org/2000/svg">
<path d="M8.66663 10.4167C10.3253 10.4167 11.9839 10.4167 13.6425 10.4167M8.66663 7.41667C8.66663 7.41667 11.392 7.41667 13.1383 7.41667M13.6425 10.4167C13.6585 10.2464 13.6666 10.0747 13.6666 9.90224C13.6668 9.04099 13.4848 8.19461 13.1383 7.41667M13.6425 10.4167C13.427 11.8985 13.0649 12.6314 12.0557 13.7913C11.0243 14.8228 9.62532 15.4022 8.16663 15.4022C6.70794 15.4022 5.30899 14.8228 4.27754 13.7913C3.24609 12.7599 2.66663 11.3609 2.66663 9.90224C2.66641 8.60285 3.08072 7.33728 3.84929 6.28957C3.84929 6.28957 7.80739 0.75 8.16829 0.75L12.484 6.28957C12.7431 6.64285 12.962 7.0209 13.1383 7.41667" stroke="black" stroke-width="1.5" stroke-linecap="round" stroke-linejoin="round"/>
</svg>
