<svg width="24" height="24" viewBox="0 0 24 24" fill="none" xmlns="http://www.w3.org/2000/svg"><path d="M13 20h5.596M13 15.5h7.464M13 11h6.707M13 6.5h3.688m3.776 9c.024-.255.036-.513.036-.772A9.159 9.159 0 0 0 19.707 11m.757 4.5a8.251 8.251 0 0 1-1.868 4.5M16.688 6.5a283.871 283.871 0 0 1 2.038 2.81 9.16 9.16 0 0 1 .982 1.69m-3.02-4.5C14.917 4.089 12.583 1 12.253 1c-.542 0-6.479 8.31-6.479 8.31A9.16 9.16 0 0 0 4 14.727 8.25 8.25 0 0 0 18.596 20" stroke="#000" stroke-width="1.5" stroke-linecap="round" stroke-linejoin="round"/></svg>