<svg width="24" height="24" viewBox="0 0 24 24" fill="none" xmlns="http://www.w3.org/2000/svg">
<path d="M3.2641 22.4605C3.24228 22.8741 3.5599 23.2271 3.97354 23.249C4.38718 23.2708 4.74019 22.9532 4.76202 22.5395L3.2641 22.4605ZM10.2861 17.9269C10.6832 18.045 11.1007 17.8189 11.2189 17.4219C11.337 17.0249 11.1109 16.6073 10.7139 16.4892L10.2861 17.9269ZM13.5 15.5907H14.25L14.25 15.5856L13.5 15.5907ZM13.5 18.4931H12.75V18.4931L13.5 18.4931ZM16.8358 22.8817L17.1027 22.1808L16.8358 22.8817ZM17.6642 22.8817L17.9311 23.5826L17.6642 22.8817ZM21 18.4931L21.75 18.4931V18.4931H21ZM21 15.5907L20.25 15.5856V15.5907H21ZM20.6661 15.0715L20.976 14.3885C20.9047 14.3562 20.8288 14.3352 20.751 14.3263L20.6661 15.0715ZM17.25 14L17.6152 13.3449C17.3882 13.2184 17.1118 13.2184 16.8848 13.3449L17.25 14ZM13.8339 15.0715L13.749 14.3263C13.6712 14.3352 13.5953 14.3562 13.524 14.3885L13.8339 15.0715ZM4.76202 22.5395C4.83714 21.116 5.26011 19.9117 5.96179 19.078C6.64745 18.2634 7.64061 17.75 9.00001 17.75V16.25C7.21407 16.25 5.79502 16.9467 4.81417 18.1121C3.84934 19.2585 3.3515 20.8042 3.2641 22.4605L4.76202 22.5395ZM14.25 7C14.25 9.8995 11.8995 12.25 9 12.25V13.75C12.7279 13.75 15.75 10.7279 15.75 7H14.25ZM9 12.25C6.10051 12.25 3.75 9.8995 3.75 7H2.25C2.25 10.7279 5.27208 13.75 9 13.75V12.25ZM3.75 7C3.75 4.10051 6.10051 1.75 9 1.75V0.25C5.27208 0.25 2.25 3.27208 2.25 7H3.75ZM9 1.75C11.8995 1.75 14.25 4.10051 14.25 7H15.75C15.75 3.27208 12.7279 0.25 9 0.25V1.75ZM9.00001 17.75C9.47697 17.75 9.9046 17.8134 10.2861 17.9269L10.7139 16.4892C10.1834 16.3314 9.61092 16.25 9.00001 16.25V17.75ZM12.75 15.5907V18.4931H14.25V15.5907H12.75ZM16.5689 23.5826C16.7199 23.6401 16.9755 23.75 17.25 23.75C17.5245 23.75 17.7801 23.6401 17.9311 23.5826L17.3973 22.1808C17.2844 22.2238 17.2343 22.2424 17.1997 22.253C17.1745 22.2607 17.2009 22.25 17.25 22.25C17.2991 22.25 17.3255 22.2607 17.3003 22.253C17.2657 22.2424 17.2156 22.2238 17.1027 22.1808L16.5689 23.5826ZM21.75 18.4931V15.5907H20.25V18.4931H21.75ZM20.751 14.3263C19.8964 14.229 19.1076 13.9831 18.5261 13.7567C18.2372 13.6442 18.0043 13.5384 17.8456 13.4619C17.7664 13.4236 17.706 13.3929 17.6668 13.3724C17.6472 13.3621 17.6329 13.3545 17.6242 13.3498C17.6198 13.3474 17.6169 13.3458 17.6154 13.345C17.6146 13.3446 17.6142 13.3444 17.6142 13.3444C17.6142 13.3443 17.6142 13.3444 17.6144 13.3445C17.6145 13.3445 17.6146 13.3446 17.6147 13.3447C17.6148 13.3447 17.6149 13.3448 17.615 13.3448C17.6151 13.3448 17.6152 13.3449 17.25 14C16.8848 14.6551 16.8849 14.6552 16.8851 14.6552C16.8851 14.6553 16.8853 14.6554 16.8854 14.6554C16.8856 14.6555 16.8859 14.6557 16.8861 14.6558C16.8867 14.6561 16.8873 14.6565 16.8881 14.6569C16.8895 14.6577 16.8914 14.6587 16.8936 14.6599C16.898 14.6624 16.9039 14.6656 16.9113 14.6696C16.9261 14.6775 16.9466 14.6885 16.9728 14.7022C17.025 14.7294 17.0995 14.7673 17.1938 14.8128C17.3823 14.9038 17.6513 15.0258 17.9818 15.1545C18.639 15.4103 19.5582 15.7002 20.5813 15.8167L20.751 14.3263ZM17.25 14C16.8848 13.3449 16.8849 13.3449 16.885 13.3448C16.8851 13.3448 16.8852 13.3447 16.8853 13.3447C16.8854 13.3446 16.8855 13.3445 16.8856 13.3445C16.8857 13.3444 16.8858 13.3444 16.8858 13.3444C16.8858 13.3444 16.8854 13.3446 16.8846 13.345C16.8831 13.3458 16.8802 13.3474 16.8758 13.3498C16.8671 13.3545 16.8528 13.3621 16.8332 13.3724C16.794 13.3929 16.7336 13.4236 16.6544 13.4619C16.4957 13.5384 16.2628 13.6442 15.9739 13.7567C15.3925 13.9831 14.6036 14.229 13.749 14.3263L13.9187 15.8167C14.9418 15.7002 15.861 15.4103 16.5182 15.1545C16.8487 15.0258 17.1177 14.9038 17.3062 14.8128C17.4006 14.7673 17.475 14.7294 17.5272 14.7022C17.5534 14.6885 17.574 14.6775 17.5887 14.6696C17.5961 14.6656 17.602 14.6624 17.6064 14.6599C17.6086 14.6587 17.6105 14.6577 17.6119 14.6569C17.6127 14.6565 17.6133 14.6561 17.6139 14.6558C17.6141 14.6557 17.6144 14.6555 17.6146 14.6554C17.6147 14.6553 17.6149 14.6553 17.6149 14.6552C17.6151 14.6552 17.6152 14.6551 17.25 14ZM21.75 15.5958C21.7535 15.0783 21.4435 14.6006 20.976 14.3885L20.3563 15.7545C20.3171 15.7367 20.2926 15.7117 20.2779 15.6889C20.2633 15.6662 20.2497 15.6319 20.25 15.5856L21.75 15.5958ZM13.524 14.3885C13.0565 14.6006 12.7465 15.0783 12.75 15.5958L14.25 15.5856C14.2503 15.6319 14.2367 15.6662 14.2221 15.6889C14.2074 15.7117 14.1829 15.7367 14.1437 15.7545L13.524 14.3885ZM12.75 18.4931C12.75 20.9804 14.4313 22.7686 16.5689 23.5826L17.1027 22.1808C15.3808 21.5251 14.25 20.1973 14.25 18.4931L12.75 18.4931ZM17.9311 23.5826C20.0687 22.7686 21.75 20.9804 21.75 18.4931L20.25 18.4931C20.25 20.1973 19.1192 21.5251 17.3973 22.1808L17.9311 23.5826Z" fill="black"/>
</svg>
