<svg width="16" height="16" viewBox="0 0 16 16" fill="none" xmlns="http://www.w3.org/2000/svg">
<path d="M9.50001 10.8836H10.25L10.25 10.8781L9.50001 10.8836ZM9.50001 12.496H8.75001V12.496L9.50001 12.496ZM11.5015 14.9341L11.7509 14.2268L11.5015 14.9341ZM11.9985 14.9341L12.2479 15.6414L11.9985 14.9341ZM14 12.496L14.75 12.496V12.496H14ZM14 10.8836L13.25 10.8781V10.8836H14ZM13.7997 10.5951L14.0902 9.90367C14.0226 9.87528 13.9512 9.85695 13.8783 9.84926L13.7997 10.5951ZM11.75 9.99984L12.094 9.33339C11.8782 9.22199 11.6218 9.22199 11.406 9.33339L11.75 9.99984ZM9.70031 10.5951L9.62166 9.84926C9.54877 9.85695 9.4774 9.87528 9.40982 9.90367L9.70031 10.5951ZM1.88412 14.9621C1.86317 15.3757 2.18154 15.7281 2.59523 15.749C3.00891 15.77 3.36125 15.4516 3.3822 15.0379L1.88412 14.9621ZM6.46546 12.2704C6.8611 12.3931 7.28125 12.1718 7.40388 11.7761C7.52651 11.3805 7.30519 10.9603 6.90954 10.8377L6.46546 12.2704ZM8.75001 10.8836V12.496H10.25V10.8836H8.75001ZM11.2521 15.6414C11.3054 15.6602 11.3781 15.6863 11.4454 15.7052C11.5217 15.7268 11.6255 15.7498 11.75 15.7498C11.8745 15.7498 11.9782 15.7268 12.0546 15.7052C12.1219 15.6863 12.1946 15.6602 12.2479 15.6414L11.7491 14.2268C11.7334 14.2323 11.7198 14.2371 11.7073 14.2415C11.6948 14.2459 11.6845 14.2494 11.6755 14.2525C11.6666 14.2555 11.66 14.2576 11.6551 14.2592C11.6501 14.2608 11.6478 14.2615 11.6473 14.2616C11.6461 14.2619 11.6566 14.2589 11.6748 14.2558C11.6842 14.2543 11.6956 14.2527 11.7086 14.2516C11.7217 14.2505 11.7355 14.2498 11.75 14.2498C11.7645 14.2498 11.7783 14.2505 11.7914 14.2516C11.8044 14.2527 11.8158 14.2543 11.8252 14.2558C11.8434 14.2589 11.8539 14.2619 11.8527 14.2616C11.8522 14.2615 11.8499 14.2608 11.8449 14.2592C11.84 14.2577 11.8334 14.2555 11.8245 14.2525C11.8155 14.2494 11.8052 14.2459 11.7927 14.2415C11.7802 14.2371 11.7666 14.2323 11.7509 14.2268L11.2521 15.6414ZM14.75 12.496V10.8836H13.25V12.496H14.75ZM13.8783 9.84926C13.3934 9.79812 12.9421 9.66828 12.6067 9.54738C12.4408 9.48756 12.3075 9.43147 12.2178 9.39138C12.173 9.37137 12.1393 9.35548 12.1182 9.34526C12.1076 9.34016 12.1002 9.33648 12.0961 9.33443C12.0941 9.33341 12.0929 9.33279 12.0925 9.33261C12.0923 9.33252 12.0924 9.33254 12.0926 9.33267C12.0927 9.33273 12.0929 9.33282 12.0931 9.33294C12.0933 9.333 12.0934 9.33307 12.0935 9.33314C12.0936 9.33318 12.0937 9.33324 12.0938 9.33326C12.0939 9.33332 12.094 9.33339 11.75 9.99984C11.406 10.6663 11.4061 10.6664 11.4063 10.6664C11.4063 10.6665 11.4064 10.6665 11.4065 10.6666C11.4067 10.6667 11.407 10.6668 11.4072 10.6669C11.4076 10.6671 11.4082 10.6674 11.4087 10.6677C11.4099 10.6683 11.4113 10.669 11.4129 10.6698C11.4161 10.6714 11.4202 10.6735 11.4252 10.676C11.4351 10.681 11.4487 10.6877 11.4655 10.6958C11.4993 10.7121 11.5465 10.7344 11.6059 10.7609C11.7244 10.8139 11.8923 10.8843 12.098 10.9585C12.5059 11.1055 13.0794 11.2733 13.721 11.341L13.8783 9.84926ZM11.75 9.99984C11.406 9.33339 11.4061 9.33333 11.4062 9.33326C11.4063 9.33324 11.4064 9.33318 11.4065 9.33315C11.4066 9.33307 11.4067 9.333 11.4068 9.33294C11.4071 9.33282 11.4073 9.33273 11.4074 9.33267C11.4076 9.33254 11.4077 9.33252 11.4075 9.33261C11.4071 9.3328 11.4059 9.33341 11.4039 9.33443C11.3998 9.33648 11.3924 9.34016 11.3818 9.34526C11.3607 9.35548 11.327 9.37137 11.2822 9.39138C11.1925 9.43147 11.0592 9.48756 10.8933 9.54738C10.5579 9.66828 10.1066 9.79812 9.62166 9.84926L9.77897 11.341C10.4206 11.2733 10.9941 11.1055 11.402 10.9585C11.6077 10.8843 11.7756 10.8139 11.8941 10.7609C11.9535 10.7344 12.0007 10.7121 12.0345 10.6958C12.0514 10.6877 12.0649 10.681 12.0748 10.676C12.0798 10.6735 12.0839 10.6714 12.0871 10.6698C12.0887 10.669 12.0901 10.6683 12.0913 10.6677C12.0918 10.6674 12.0924 10.6671 12.0928 10.6669C12.093 10.6668 12.0933 10.6667 12.0935 10.6666C12.0936 10.6665 12.0937 10.6664 12.0938 10.6664C12.0939 10.6664 12.094 10.6663 11.75 9.99984ZM14.75 10.889C14.7533 10.4352 14.4634 10.0605 14.0902 9.90367L13.5092 11.2866C13.3764 11.2308 13.2485 11.0892 13.25 10.8781L14.75 10.889ZM9.40982 9.90367C9.03658 10.0605 8.74672 10.4352 8.75003 10.889L10.25 10.8781C10.2515 11.0892 10.1236 11.2308 9.9908 11.2866L9.40982 9.90367ZM8.75001 12.496C8.75002 14.0868 9.91129 15.1687 11.2521 15.6414L11.7509 14.2268C10.776 13.883 10.25 13.2338 10.25 12.496L8.75001 12.496ZM12.2479 15.6414C13.5887 15.1687 14.75 14.0868 14.75 12.496L13.25 12.496C13.25 13.2338 12.724 13.883 11.7491 14.2268L12.2479 15.6414ZM3.3822 15.0379C3.42741 14.1454 3.68128 13.4171 4.0759 12.9286C4.4532 12.4615 4.99192 12.1686 5.75001 12.1686V10.6686C4.54226 10.6686 3.57335 11.1637 2.90907 11.986C2.26212 12.7868 1.94049 13.8492 1.88412 14.9621L3.3822 15.0379ZM8.75 4.90698C8.75 6.67981 7.37816 8.06395 5.75 8.06395V9.56395C8.26397 9.56395 10.25 7.44967 10.25 4.90698H8.75ZM5.75 8.06395C4.12184 8.06395 2.75 6.67981 2.75 4.90698H1.25C1.25 7.44967 3.23603 9.56395 5.75 9.56395V8.06395ZM2.75 4.90698C2.75 3.13414 4.12184 1.75 5.75 1.75V0.25C3.23603 0.25 1.25 2.36428 1.25 4.90698H2.75ZM5.75 1.75C7.37816 1.75 8.75 3.13414 8.75 4.90698H10.25C10.25 2.36428 8.26397 0.25 5.75 0.25V1.75ZM5.75001 12.1686C6.02007 12.1686 6.25735 12.2059 6.46546 12.2704L6.90954 10.8377C6.54768 10.7255 6.15986 10.6686 5.75001 10.6686V12.1686Z" fill="black"/>
</svg>
