<svg xmlns="http://www.w3.org/2000/svg" width="16" height="16" fill="none" viewBox="0 0 16 16"><path fill="#000" d="M5.786 12.524a.75.75 0 0 0 .428-1.438l-.428 1.438Zm-4.83 2.394a.75.75 0 1 0 1.492.164l-1.491-.164ZM10 10.333h.75v-.005l-.75.005Zm0 1.662h-.75.75Zm2.224 2.926-.267.701.267-.7Zm.552 0 .267.701-.267-.7ZM15 11.995h.75H15Zm0-1.662-.75-.005v.005H15Zm-.223-.346.31-.683a.75.75 0 0 0-.225-.062l-.085.745ZM12.5 9l.477-.579a.75.75 0 0 0-.954 0L12.5 9Zm-2.277.987-.085-.745a.75.75 0 0 0-.225.062l.31.683ZM8.25 5A3.25 3.25 0 0 1 5 8.25v1.5A4.75 4.75 0 0 0 9.75 5h-1.5ZM5 8.25A3.25 3.25 0 0 1 1.75 5H.25A4.75 4.75 0 0 0 5 9.75v-1.5ZM1.75 5A3.25 3.25 0 0 1 5 1.75V.25A4.75 4.75 0 0 0 .25 5h1.5ZM5 1.75A3.25 3.25 0 0 1 8.25 5h1.5A4.75 4.75 0 0 0 5 .25v1.5Zm0 10.667c.296 0 .557.039.786.107l.428-1.438A4.242 4.242 0 0 0 5 10.916v1.5Zm-2.552 2.665c.09-.83.373-1.499.789-1.95.402-.435.971-.715 1.763-.715v-1.5c-1.19 0-2.166.44-2.866 1.198-.685.743-1.061 1.741-1.177 2.803l1.49.164Zm6.802-4.749v1.662h1.5v-1.662h-1.5Zm2.707 5.289c.06.023.139.053.212.076.083.025.196.052.331.052s.248-.027.33-.052c.074-.023.153-.053.213-.076l-.534-1.402-.046.018a2.316 2.316 0 0 1-.07.025.453.453 0 0 1 .186-.006c.02.003.03.007.027.006a1.327 1.327 0 0 1-.069-.025l-.046-.018-.534 1.402Zm3.793-3.627v-1.662h-1.5v1.662h1.5Zm-.888-2.753c-.492-.056-.963-.255-1.329-.458a4.716 4.716 0 0 1-.53-.343l-.024-.018a.119.119 0 0 1-.004-.003h.001L12.5 9c-.477.579-.477.58-.476.58l.002.002c.002 0 .003.002.005.003a2.208 2.208 0 0 0 .06.047 6.222 6.222 0 0 0 .715.464c.46.255 1.127.55 1.887.636l.17-1.49ZM12.5 9c-.477-.579-.477-.58-.476-.58h.001s-.002 0-.004.003l-.024.018a4.719 4.719 0 0 1-.53.343c-.366.203-.837.402-1.33.458l.17 1.49c.76-.086 1.427-.38 1.887-.636a6.222 6.222 0 0 0 .775-.51l.005-.005h.001l.001-.002L12.5 9Zm3.25 1.338a1.134 1.134 0 0 0-.663-1.034l-.62 1.366a.37.37 0 0 1-.217-.342l1.5.01ZM9.913 9.304c-.401.182-.666.59-.663 1.034l1.5-.01a.37.37 0 0 1-.217.342l-.62-1.366Zm-.663 2.691c0 1.79 1.213 3.058 2.707 3.627l.534-1.402c-1.079-.41-1.741-1.219-1.741-2.225h-1.5Zm3.793 3.627c1.494-.569 2.707-1.838 2.707-3.627h-1.5c0 1.006-.662 1.815-1.74 2.225l.533 1.402Z"/></svg>