<svg width="16" height="17" viewBox="0 0 16 17" fill="none" xmlns="http://www.w3.org/2000/svg">
<path fill-rule="evenodd" clip-rule="evenodd" d="M6.49996 13.4167C6.49996 13.7853 6.2011 14.0833 5.83329 14.0833C5.46549 14.0833 5.16663 13.7853 5.16663 13.4167C5.16663 13.048 5.46549 12.75 5.83329 12.75C6.2011 12.75 6.49996 13.048 6.49996 13.4167Z" fill="black"/>
<path d="M10.3334 3.58337V1.75C10.3334 1.19772 9.88566 0.75 9.33337 0.75H2.33337C1.78109 0.75 1.33337 1.19772 1.33337 1.75V14.4167C1.33337 14.969 1.78109 15.4167 2.33337 15.4167H9.33337C9.88566 15.4167 10.3334 14.969 10.3334 14.4167V11.0834" stroke="black" stroke-width="1.5" stroke-linecap="round" stroke-linejoin="round"/>
<path d="M5.25 7.2085C5.25 7.82982 4.74632 8.3335 4.125 8.3335C3.50368 8.3335 3 7.82982 3 7.2085C3 6.58718 3.50368 6.0835 4.125 6.0835C4.74632 6.0835 5.25 6.58718 5.25 7.2085Z" fill="black"/>
<path d="M8.75 7.2085C8.75 7.82982 8.24632 8.3335 7.625 8.3335C7.00368 8.3335 6.5 7.82982 6.5 7.2085C6.5 6.58718 7.00368 6.0835 7.625 6.0835C8.24632 6.0835 8.75 6.58718 8.75 7.2085Z" fill="black"/>
<path d="M12.25 7.2085C12.25 7.82982 11.7463 8.3335 11.125 8.3335C10.5037 8.3335 10 7.82982 10 7.2085C10 6.58718 10.5037 6.0835 11.125 6.0835C11.7463 6.0835 12.25 6.58718 12.25 7.2085Z" fill="black"/>
<path d="M15.75 7.2085C15.75 7.82982 15.2463 8.3335 14.625 8.3335C14.0037 8.3335 13.5 7.82982 13.5 7.2085C13.5 6.58718 14.0037 6.0835 14.625 6.0835C15.2463 6.0835 15.75 6.58718 15.75 7.2085Z" fill="black"/>
</svg>
