<svg xmlns="http://www.w3.org/2000/svg" width="24" height="24" fill="none" viewBox="0 0 24 24"><path fill="#000" d="M14.75 6a.75.75 0 0 0 1.5 0h-1.5Zm1.5 8a.75.75 0 0 0-1.5 0h1.5Zm-7.674 5.26a.75.75 0 0 0 0 1.5v-1.5Zm.346 1.5a.75.75 0 0 0 0-1.5v1.5ZM9.7 9.36a.75.75 0 0 0 0 1.5v-1.5Zm.346 1.5a.75.75 0 0 0 0-1.5v1.5Zm3.153-1.5a.75.75 0 0 0 0 1.5v-1.5Zm.347 1.5a.75.75 0 0 0 0-1.5v1.5Zm3.153-1.5a.75.75 0 0 0 0 1.5v-1.5Zm.346 1.5a.75.75 0 0 0 0-1.5v1.5Zm3.154-1.5a.75.75 0 0 0 0 1.5v-1.5Zm.346 1.5a.75.75 0 0 0 0-1.5v1.5ZM16.25 6V2h-1.5v4h1.5ZM14.5.25H3v1.5h11.5V.25ZM1.25 2v20h1.5V2h-1.5ZM3 23.75h11.5v-1.5H3v1.5ZM16.25 22v-8h-1.5v8h1.5Zm-1.75 1.75A1.75 1.75 0 0 0 16.25 22h-1.5a.25.25 0 0 1-.25.25v1.5ZM1.25 22c0 .966.784 1.75 1.75 1.75v-1.5a.25.25 0 0 1-.25-.25h-1.5ZM3 .25A1.75 1.75 0 0 0 1.25 2h1.5A.25.25 0 0 1 3 1.75V.25ZM16.25 2A1.75 1.75 0 0 0 14.5.25v1.5a.25.25 0 0 1 .25.25h1.5Zm-8 18.01a.53.53 0 0 1 .212-.412.475.475 0 0 1 .29-.095v1.5c.185 0 .409-.055.605-.2a.975.975 0 0 0 .394-.793h-1.5Zm.503-.507c.09 0 .189.023.284.094a.531.531 0 0 1 .214.413h-1.5c0 .346.166.625.397.794.198.147.423.2.605.2v-1.5Zm.498.507a.48.48 0 0 1-.051.209.526.526 0 0 1-.15.183.478.478 0 0 1-.297.101v-1.5c-.184 0-.415.054-.618.21a.99.99 0 0 0-.384.797h1.5Zm-.498.493a.483.483 0 0 1-.303-.102.525.525 0 0 1-.148-.183.476.476 0 0 1-.051-.208h1.5a.992.992 0 0 0-.998-1.007v1.5Zm-.177.257h.346v-1.5h-.346v1.5Zm.8-10.65a.53.53 0 0 1 .212-.412.475.475 0 0 1 .29-.095v1.5c.185 0 .409-.056.604-.201a.975.975 0 0 0 .394-.792h-1.5Zm.502-.507c.09 0 .19.023.284.093a.53.53 0 0 1 .214.414h-1.5c0 .345.167.624.397.794.199.146.423.199.605.199v-1.5Zm.498.507a.472.472 0 0 1-.05.208.526.526 0 0 1-.15.184.478.478 0 0 1-.298.1v-1.5c-.183 0-.414.054-.617.21a.99.99 0 0 0-.385.798h1.5Zm-.498.493a.484.484 0 0 1-.302-.103.525.525 0 0 1-.149-.183.476.476 0 0 1-.05-.207h1.5a.992.992 0 0 0-.999-1.007v1.5Zm-.177.257h.346v-1.5h-.346v1.5Zm3.175-.75a.53.53 0 0 1 .212-.412.475.475 0 0 1 .29-.095v1.5c.184 0 .408-.056.604-.201a.975.975 0 0 0 .394-.792h-1.5Zm.502-.507c.09 0 .189.023.284.093a.53.53 0 0 1 .214.414h-1.5c0 .345.166.624.397.794.198.146.423.199.605.199v-1.5Zm.498.507a.475.475 0 0 1-.051.208.525.525 0 0 1-.15.184.477.477 0 0 1-.297.1v-1.5c-.184 0-.415.054-.618.21a.99.99 0 0 0-.384.798h1.5Zm-.498.493a.484.484 0 0 1-.303-.103.526.526 0 0 1-.148-.183.476.476 0 0 1-.051-.207h1.5a.992.992 0 0 0-.998-1.007v1.5Zm-.178.257h.347v-1.5H13.2v1.5Zm3.175-.75a.53.53 0 0 1 .212-.412.474.474 0 0 1 .29-.095v1.5c.185 0 .409-.056.605-.201a.975.975 0 0 0 .393-.792h-1.5Zm.502-.507c.09 0 .19.023.285.093a.53.53 0 0 1 .213.414h-1.5c0 .345.167.624.397.794.199.146.423.199.605.199v-1.5Zm.498.507a.472.472 0 0 1-.05.208.526.526 0 0 1-.15.184.478.478 0 0 1-.298.1v-1.5c-.183 0-.414.054-.617.21a.99.99 0 0 0-.385.798h1.5Zm-.498.493a.484.484 0 0 1-.302-.103.524.524 0 0 1-.149-.183.476.476 0 0 1-.05-.207h1.5a.991.991 0 0 0-.999-1.007v1.5Zm-.177.257h.346v-1.5H16.7v1.5Zm3.175-.75a.53.53 0 0 1 .212-.412.475.475 0 0 1 .29-.095v1.5c.184 0 .408-.056.604-.201a.975.975 0 0 0 .394-.792h-1.5Zm.502-.507c.09 0 .189.023.284.093a.531.531 0 0 1 .214.414h-1.5c0 .345.166.624.397.794.198.146.423.199.605.199v-1.5Zm.498.507a.475.475 0 0 1-.051.208.525.525 0 0 1-.15.184.477.477 0 0 1-.297.1v-1.5c-.183 0-.415.054-.618.21a.99.99 0 0 0-.384.798h1.5Zm-.498.493a.484.484 0 0 1-.303-.103.526.526 0 0 1-.148-.183.476.476 0 0 1-.051-.207h1.5a.992.992 0 0 0-.998-1.007v1.5Zm-.177.257h.346v-1.5H20.2v1.5Z"/></svg>