<svg width="24" height="24" viewBox="0 0 24 24" fill="none" xmlns="http://www.w3.org/2000/svg">
<path d="M7.653 5.98379C7.653 5.98379 12.153 8.23379 12.903 15.7338C14.403 11.2338 16.653 9.73379 16.653 9.73379M10.653 8.98379C10.653 8.98379 9.123 11.6038 6.903 11.2338C2.403 10.4838 3.153 4.48379 1.653 2.23379C3.10593 1.63983 4.6788 1.39815 6.24302 1.5285C7.80725 1.65885 9.31842 2.15754 10.653 2.98379C12.9 4.48379 12.9 6.73379 10.653 8.98379ZM15.575 11.1818C15.575 11.1818 16.638 12.9998 18.18 12.7448C21.305 12.2238 20.78 8.05679 21.826 6.49379C20.8168 6.0816 19.7244 5.91394 18.638 6.00449C17.5516 6.09503 16.5021 6.44122 15.575 7.01479C14.013 8.05679 14.013 9.61979 15.575 11.1818ZM16.038 23.2338H9.768C9.5951 23.2338 9.4275 23.1741 9.29356 23.0648C9.15963 22.9555 9.06758 22.8032 9.033 22.6338L7.833 16.6338C7.81075 16.5248 7.81303 16.4122 7.83965 16.3043C7.86628 16.1963 7.91659 16.0955 7.98695 16.0094C8.0573 15.9232 8.14594 15.8538 8.24644 15.8062C8.34693 15.7585 8.45677 15.7338 8.568 15.7338H17.238C17.3493 15.7336 17.4593 15.7582 17.5599 15.8058C17.6605 15.8534 17.7493 15.9228 17.8197 16.009C17.8902 16.0952 17.9406 16.1959 17.9673 16.304C17.994 16.4121 17.9963 16.5247 17.974 16.6338L16.774 22.6338C16.7392 22.8033 16.647 22.9556 16.5129 23.0649C16.3788 23.1742 16.211 23.2339 16.038 23.2338Z" stroke="black" stroke-width="1.5" stroke-linecap="round" stroke-linejoin="round"/>
</svg>
