<svg xmlns="http://www.w3.org/2000/svg" width="24" height="24" fill="none" viewBox="0 0 24 24"><path fill="#000" d="M8.25 9a.75.75 0 0 0 1.5 0h-1.5ZM13 11.829l.25.707-.25-.707Zm-1 1.415h.75H12Zm-.75 1.006a.75.75 0 0 0 1.5 0h-1.5Zm.573 2.505a.75.75 0 1 0 0 1.5v-1.5Zm.346 1.5a.75.75 0 0 0 0-1.5v1.5ZM22.5 12c0 5.799-4.701 10.5-10.5 10.5V24c6.627 0 12-5.373 12-12h-1.5ZM12 22.5C6.201 22.5 1.5 17.799 1.5 12H0c0 6.627 5.373 12 12 12v-1.5ZM1.5 12C1.5 6.201 6.201 1.5 12 1.5V0C5.373 0 0 5.373 0 12h1.5ZM12 1.5c5.799 0 10.5 4.701 10.5 10.5H24c0-6.627-5.373-12-12-12v1.5ZM9.75 9c0-.412.114-.817.328-1.17l-1.281-.78A3.75 3.75 0 0 0 8.25 9h1.5Zm.328-1.17a2.25 2.25 0 0 1 .888-.828l-.69-1.332a3.75 3.75 0 0 0-1.48 1.38l1.282.78Zm.888-.828a2.25 2.25 0 0 1 1.19-.246l.103-1.497a3.75 3.75 0 0 0-1.982.411l.689 1.332Zm1.19-.246c.41.028.806.17 1.143.408l.866-1.225a3.75 3.75 0 0 0-1.906-.68l-.104 1.497Zm1.143.408c.337.238.602.564.766.942l1.376-.596a3.75 3.75 0 0 0-1.276-1.571L13.3 7.164Zm.766.942c.164.379.22.795.164 1.204l1.485.206a3.75 3.75 0 0 0-.273-2.006l-1.376.596Zm.164 1.204a2.25 2.25 0 0 1-.486 1.113l1.162.948a3.75 3.75 0 0 0 .81-1.855l-1.486-.206Zm-.486 1.113a2.25 2.25 0 0 1-.993.699l.5 1.414a3.751 3.751 0 0 0 1.655-1.165l-1.162-.948Zm-.993.699a2.25 2.25 0 0 0-1.088.823l1.225.865a.75.75 0 0 1 .363-.274l-.5-1.414Zm-1.088.823a2.25 2.25 0 0 0-.412 1.3l1.5-.001a.75.75 0 0 1 .137-.434l-1.225-.865Zm-.412 1.299v1.006h1.5v-1.006h-1.5Zm.248 4.26a.53.53 0 0 1 .212-.412A.475.475 0 0 1 12 17v1.5c.184 0 .408-.055.604-.2a.975.975 0 0 0 .394-.793h-1.5Zm.502-.506c.09 0 .189.023.284.093a.53.53 0 0 1 .214.414h-1.5c0 .346.167.625.397.794.198.146.423.2.605.2v-1.5Zm.498.507a.49.49 0 0 1-.05.209.525.525 0 0 1-.151.183.477.477 0 0 1-.297.101v-1.5c-.183 0-.414.054-.618.21a.99.99 0 0 0-.384.797h1.5Zm-.498.493a.483.483 0 0 1-.303-.103.524.524 0 0 1-.148-.182.476.476 0 0 1-.05-.208h1.5A.992.992 0 0 0 12 16.498v1.5Zm-.177.257h.346v-1.5h-.346v1.5Z"/></svg>