<svg width="16" height="16" viewBox="0 0 16 16" fill="none" xmlns="http://www.w3.org/2000/svg"><path d="M6.006 1a.75.75 0 1 0-1.5 0h1.5Zm-1.5 3.256a.75.75 0 1 0 1.5 0h-1.5ZM11.5 1A.75.75 0 0 0 10 1h1.5ZM10 4.256a.75.75 0 0 0 1.5 0H10ZM3 15.75a.75.75 0 0 0 0-1.5v1.5ZM14.25 4a.75.75 0 0 0 1.5 0h-1.5ZM4 8.25a.75.75 0 0 0 0-1.5v1.5Zm2.514 1.186a.75.75 0 0 0 1.416.494l-1.416-.494Zm8.264.247-.708.247.072.207.173.135.463-.59Zm.708 2.881a.75.75 0 0 0-1.416-.494l1.416.494Zm-8.264-.247.708-.247-.072-.207-.173-.135-.463.59ZM15 9.857v.75a.75.75 0 0 0 .75-.75H15Zm.75-2.476a.75.75 0 0 0-1.5 0h1.5Zm-3.226 1.726a.75.75 0 0 0 0 1.5v-1.5Zm-3.048 3.786a.75.75 0 0 0 0-1.5v1.5ZM7 12.143v-.75a.75.75 0 0 0-.75.75H7Zm-.75 2.476a.75.75 0 1 0 1.5 0h-1.5ZM4.506 1v1.628h1.5V1h-1.5Zm0 1.628v1.628h1.5V2.628h-1.5ZM10 1v1.628h1.5V1H10Zm0 1.628v1.628h1.5V2.628H10ZM2 15.75h1v-1.5H2v1.5ZM15.75 4v-.372h-1.5V4h1.5ZM14 1.878h-3.25v1.5H14v-1.5Zm-3.25 0H5.256v1.5h5.494v-1.5Zm-5.494 0H2v1.5h3.256v-1.5ZM.25 3.628V7.5h1.5V3.628H.25Zm0 3.872V14h1.5V7.5H.25Zm.75.75h3v-1.5H1v1.5Zm14.75-4.622A1.75 1.75 0 0 0 14 1.878v1.5a.25.25 0 0 1 .25.25h1.5ZM2 14.25a.25.25 0 0 1-.25-.25H.25c0 .966.784 1.75 1.75 1.75v-1.5ZM2 1.878a1.75 1.75 0 0 0-1.75 1.75h1.5a.25.25 0 0 1 .25-.25v-1.5ZM7.93 9.93A3.252 3.252 0 0 1 11 7.75v-1.5a4.752 4.752 0 0 0-4.486 3.186l1.416.494ZM11 7.75c1.419 0 2.627.91 3.07 2.18l1.416-.494A4.752 4.752 0 0 0 11 6.25v1.5Zm3.07 4.32A3.252 3.252 0 0 1 11 14.25v1.5a4.752 4.752 0 0 0 4.486-3.186l-1.416-.494ZM11 14.25a3.252 3.252 0 0 1-3.07-2.18l-1.416.494A4.752 4.752 0 0 0 11 15.75v-1.5Zm4.75-4.393V7.381h-1.5v2.476h1.5Zm-.75-.75h-2.476v1.5H15v-1.5Zm-5.524 2.286H7v1.5h2.476v-1.5Zm-3.226.75v2.476h1.5v-2.476h-1.5Zm8.065-1.87.222.174.926-1.18-.222-.174-.926 1.18Zm-6.63 1.455-.222-.175-.926 1.18.221.174.927-1.18Z" fill="#000"/></svg>