<svg xmlns="http://www.w3.org/2000/svg" width="24" height="24" fill="none" viewBox="0 0 24 24"><path fill="#000" d="M1.5 22.5a.75.75 0 0 0 1.5 0H1.5Zm21.751-8.75a.75.75 0 0 0 0-1.5v1.5ZM20.998 13v-.75.75Zm-.53-.219-.529.531.53-.53Zm-.22-.529h-.75v.002l.75-.002Zm1.56-10.289.692.287-.693-.287Zm1.442.287h-.75.75ZM22.5 22.5a.75.75 0 0 0 1.5 0h-1.5Zm-21-21a.75.75 0 1 0-1.5 0h1.5Zm-.75 6H0h.75Zm3.75-6a.75.75 0 1 0-1.5 0h1.5ZM1.5 9v13.5H3V9H1.5Zm21.751 3.25h-2.253v1.5h2.253v-1.5Zm-2.253 0-1.059 1.062a1.5 1.5 0 0 0 1.06.438v-1.5Zm0 0-1.5.004a1.5 1.5 0 0 0 .441 1.058L21 12.25Zm0 .002c0-2.762-.02-6.326 1.502-10.002l-1.386-.574c-1.65 3.986-1.616 7.834-1.616 10.576h1.5ZM22.5 2.25 21.793.927a1.5 1.5 0 0 0-.679.75l1.386.573Zm0 0 .293-1.471a1.5 1.5 0 0 0-1 .148L22.5 2.25Zm0 0 1.16-.951a1.5 1.5 0 0 0-.867-.52L22.5 2.25Zm0 0H24a1.5 1.5 0 0 0-.34-.951l-1.16.951Zm0 0V22.5H24V2.25h-1.5ZM0 1.5v6h1.5v-6H0Zm0 6c0 .597.237 1.17.659 1.591l1.06-1.06A.75.75 0 0 1 1.5 7.5H0Zm.659 1.591a2.25 2.25 0 0 0 1.591.66v-1.5a.75.75 0 0 1-.53-.22L.659 9.09Zm1.591.66a2.25 2.25 0 0 0 1.591-.66l-1.06-1.06a.75.75 0 0 1-.531.22v1.5Zm1.591-.66a2.25 2.25 0 0 0 .659-1.59H3a.75.75 0 0 1-.22.53l1.061 1.06Zm.659-1.59v-6H3v6h1.5Zm12.75 8a5.75 5.75 0 0 1-5.75 5.75v1.5a7.25 7.25 0 0 0 7.25-7.25h-1.5Zm-5.75 5.75a5.75 5.75 0 0 1-5.75-5.75h-1.5a7.25 7.25 0 0 0 7.25 7.25v-1.5ZM5.75 15.5a5.75 5.75 0 0 1 5.75-5.75v-1.5a7.25 7.25 0 0 0-7.25 7.25h1.5Zm5.75-5.75a5.75 5.75 0 0 1 5.75 5.75h1.5a7.25 7.25 0 0 0-7.25-7.25v1.5Z"/></svg>