<svg xmlns="http://www.w3.org/2000/svg" width="24" height="24" fill="none" viewBox="0 0 24 24"><path fill="#000" d="M3.737 7.013 4.42 6.7l-.682.313Zm.593-1.428.25.707-.25-.707Zm3.548.218-.338.669a.75.75 0 0 0 .69-.007l-.352-.662Zm11.724 16.78.701.266a.706.706 0 0 0 .017-.047l-.718-.219Zm-4.36-.175-.744.099a.713.713 0 0 0 .008.043l.736-.142Zm-.174-1.316.744-.098a.774.774 0 0 0-.007-.043l-.737.142Zm-3.767 0-.736-.141a.754.754 0 0 0-.011.075l.747.067Zm-.118 1.316.737.141a.744.744 0 0 0 .01-.074l-.747-.067Zm-4.297.114-.724.194.008.028.716-.222Zm-.877-3.284.724-.193a.7.7 0 0 0-.008-.028l-.716.221Zm-.657-.675.235-.713-.235.712Zm-2.418-8.284.097.743-.097-.743Zm.613-.353.577.48v-.002l-.577-.478Zm.56-.675-.577-.48.577.48Zm.146-1.112.682-.312-.682.312ZM11.25 2.25a.75.75 0 0 0 1.5 0h-1.5Zm3 0a.75.75 0 0 0 1.5 0h-1.5ZM10.5 7.5a.75.75 0 0 0 0 1.5V7.5ZM15.75 9a.75.75 0 0 0 0-1.5V9Zm5.05 12.218a.75.75 0 0 0-1.434-.436l1.435.436Zm.06-12.742a.75.75 0 0 0 1.159-.952l-1.159.952ZM15.5 13.75a.75.75 0 0 0 0 1.5v-1.5Zm4.47 2.72a.75.75 0 1 0 1.06 1.06l-1.06-1.06ZM23 14.5l.53.53a.75.75 0 0 0 0-1.06l-.53.53Zm-1.97-3.03a.75.75 0 1 0-1.06 1.06l1.06-1.06ZM4.42 6.7a.3.3 0 0 1 .16-.408l-.5-1.415c-1 .353-1.46 1.497-1.024 2.448L4.419 6.7Zm.16-.408a3.828 3.828 0 0 1 1.263-.222v-1.5c-.612 0-1.211.113-1.762.307l.498 1.415Zm1.263-.222c.612 0 1.193.147 1.697.402l.677-1.339a5.261 5.261 0 0 0-2.374-.563v1.5Zm2.387.395c1.427-.758 3.43-1.215 5.304-1.215v-1.5c-2.078 0-4.33.5-6.008 1.39l.704 1.325ZM18.9 22.318a.273.273 0 0 1-.252.182V24c.74 0 1.396-.464 1.655-1.151l-1.403-.531Zm-.252.182h-2.402V24h2.402v-1.5Zm-2.402 0a.278.278 0 0 1-.267-.233l-1.473.283c.16.833.882 1.45 1.74 1.45v-1.5Zm-.26-.19-.174-1.316-1.487.197.174 1.316 1.487-.197Zm-.181-1.358a1.778 1.778 0 0 0-1.74-1.452V21c.12 0 .239.089.267.233l1.473-.282Zm-1.74-1.452h-1.76V21h1.76v-1.5Zm-1.76 0c-.859 0-1.58.619-1.74 1.45l1.473.284a.279.279 0 0 1 .267-.234v-1.5Zm-1.751 1.526-.118 1.316 1.494.133.118-1.316-1.494-.133Zm-.107 1.241a.277.277 0 0 1-.267.233V24c.858 0 1.58-.617 1.74-1.45l-1.473-.283Zm-.267.233H7.862V24h2.318v-1.5Zm-2.318 0a.275.275 0 0 1-.26-.2l-1.432.444c.23.74.908 1.256 1.692 1.256v-1.5Zm-.251-.172-.878-3.283-1.449.387.878 3.284 1.449-.388Zm-.886-3.311a1.776 1.776 0 0 0-1.138-1.167l-.47 1.425c.078.025.146.09.175.185l1.433-.443ZM5.587 17.85a11 11 0 0 1-2.581-1.317c-.461-.324-.853-.67-1.123-1.017-.272-.35-.383-.652-.383-.907H0c0 .702.305 1.32.698 1.827.394.507.914.951 1.445 1.325 1.06.744 2.279 1.285 2.975 1.514l.469-1.425ZM1.5 14.61v-1.898H0v1.897h1.5Zm0-1.898c0-.847.651-1.575 1.53-1.69l-.194-1.487C1.251 9.742 0 11.071 0 12.712h1.5Zm1.532-1.69c.453-.06.832-.305 1.092-.617l-1.153-.96c-.055.066-.109.087-.136.09l.197 1.487Zm1.092-.618.56-.675-1.154-.957-.56.675 1.154.957Zm.56-.674a1.807 1.807 0 0 0 .25-1.904l-1.363.625a.307.307 0 0 1-.041.32l1.154.959Zm.25-1.904L4.42 6.7l-1.364.625.516 1.126 1.364-.625ZM12.75 2.25a.75.75 0 0 1 .75-.75V0a2.25 2.25 0 0 0-2.25 2.25h1.5Zm.75-.75a.75.75 0 0 1 .75.75h1.5A2.25 2.25 0 0 0 13.5 0v1.5Zm-3 7.5h5.25V7.5H10.5V9Zm8.866 11.782-.482 1.583 1.436.437.48-1.584-1.434-.436ZM13.534 5.25c3.118 0 5.742 1.3 7.326 3.226l1.159-.952c-1.889-2.297-4.95-3.774-8.485-3.774v1.5Zm7.496 12.28 2.5-2.5-1.06-1.06-2.5 2.5 1.06 1.06Zm2.5-3.56-2.5-2.5-1.06 1.06 2.5 2.5 1.06-1.06Zm-8.03 1.28H23v-1.5h-7.5v1.5Z"/></svg>