<svg width="16" height="16" viewBox="0 0 16 16" fill="none" xmlns="http://www.w3.org/2000/svg"><path d="m2.859 4.897.682-.313-.682.313Zm.369-.889.249.708-.25-.708Zm2.207.136-.338.67a.75.75 0 0 0 .69-.008l-.352-.662Zm8.234 7.586.544.517v-.001l-.544-.516Zm-.136.214-.7-.269a.802.802 0 0 0-.017.05l.717.219Zm-.803 2.641.702.265a.771.771 0 0 0 .016-.047l-.718-.218Zm-2.713-.109-.743.098.007.044.736-.142Zm-.108-.819.744-.098a.76.76 0 0 0-.007-.042l-.737.14Zm-2.344 0-.736-.141a.75.75 0 0 0-.011.075l.747.067Zm-.073.82.737.14a.746.746 0 0 0 .01-.074l-.747-.067Zm-2.674.07-.724.194.008.028.716-.222Zm-.546-2.043.725-.194a.812.812 0 0 0-.008-.028l-.717.222Zm-.408-.42.234-.713-.234.712ZM2.359 6.928l.097.744-.097-.744Zm.381-.22.577.48-.577-.48Zm.349-.42-.577-.479.577.48Zm.09-.692.683-.312-.682.312ZM7.068 5.5a.75.75 0 1 0 0 1.5V5.5ZM10.333 7a.75.75 0 0 0 0-1.5V7ZM7.764.722a.75.75 0 0 0 1.042 1.08L7.764.721Zm1.297 1.08a.75.75 0 0 0 1.042-1.08L9.06 1.802ZM3.54 4.583c.01.025.01.052.001.072a.111.111 0 0 1-.065.06L2.978 3.3a1.403 1.403 0 0 0-.801 1.908l1.364-.625Zm-.064.132c.224-.079.46-.122.692-.122v-1.5c-.415 0-.82.076-1.19.207l.498 1.415Zm.692-.122c.336 0 .653.08.928.22l.677-1.34a3.557 3.557 0 0 0-1.605-.38v1.5Zm1.618.212c.84-.446 2.04-.723 3.168-.723v-1.5c-1.332 0-2.78.319-3.872.899l.704 1.324Zm3.168-.723c3.114 0 5.295 2.134 5.295 4.5h1.5c0-3.365-3.035-6-6.795-6v1.5Zm5.295 4.5c0 .987-.4 1.866-1.125 2.63l1.088 1.033c.942-.993 1.537-2.228 1.537-3.663h-1.5Zm-1.124 2.63c-.124.13-.226.286-.293.462l1.4.537a.103.103 0 0 1-.02.035l-1.087-1.034Zm-.31.513-.804 2.641 1.436.436.803-2.641-1.435-.437Zm-.787 2.594a.114.114 0 0 1 .107-.07v1.5c.582 0 1.093-.364 1.296-.9l-1.403-.53Zm.107-.07h-1.494v1.5h1.494v-1.5Zm-1.494 0a.11.11 0 0 1 .112.085l-1.473.283a1.39 1.39 0 0 0 1.36 1.132v-1.5Zm.119.128-.108-.819-1.487.197.108.819 1.487-.197Zm-.115-.861a1.39 1.39 0 0 0-1.362-1.133v1.5a.11.11 0 0 1-.112-.085l1.474-.282Zm-1.362-1.133H8.19v1.5h1.095v-1.5Zm-1.094 0a1.39 1.39 0 0 0-1.361 1.132l1.473.283a.11.11 0 0 1-.112.085v-1.5ZM6.818 13.59l-.073.819 1.494.133.073-.819-1.494-.133Zm-.063.744a.111.111 0 0 1 .112-.085v1.5a1.39 1.39 0 0 0 1.362-1.133l-1.474-.282Zm.112-.085H5.425v1.5h1.442v-1.5Zm-1.442 0c.059 0 .098.038.11.075l-1.433.444c.179.576.708.981 1.323.981v-1.5Zm.118.103-.546-2.043-1.45.388.547 2.043 1.449-.388Zm-.554-2.07a1.388 1.388 0 0 0-.89-.912l-.47 1.425a.112.112 0 0 1-.073-.07l1.433-.444Zm-.89-.912a6.563 6.563 0 0 1-1.533-.782 2.995 2.995 0 0 1-.637-.575c-.146-.188-.179-.316-.179-.39H.25c0 .52.226.965.494 1.31.268.346.617.64.96.882.685.481 1.47.83 1.925.98l.47-1.425ZM1.75 9.624V8.443H.25v1.18h1.5Zm0-1.181c0-.377.292-.716.706-.77l-.194-1.488C1.142 6.331.25 7.272.25 8.443h1.5Zm.707-.77c.363-.048.66-.244.86-.484l-1.153-.96c.005-.005.033-.035.096-.044l.197 1.487Zm.86-.485.35-.42-1.155-.958-.349.42 1.155.958Zm.349-.42c.345-.416.42-.994.196-1.483l-1.364.624a.092.092 0 0 1 .014-.099l1.154.958Zm.195-1.483-.32-.7-1.364.624.32.7 1.364-.624ZM7.067 7h3.266V5.5H7.067V7Zm1.74-5.199a.18.18 0 0 1 .126-.051V.25c-.453 0-.867.18-1.169.472l1.042 1.08Zm.126-.051a.18.18 0 0 1 .128.051L10.103.722A1.68 1.68 0 0 0 8.933.25v1.5Z" fill="#000"/></svg>