<svg width="16" height="16" viewBox="0 0 16 16" fill="none" xmlns="http://www.w3.org/2000/svg">
<path d="M14.9999 2.90907L1.95453 10.9446M1.95453 10.9446C1.37752 11.3471 0.999992 12.0158 0.999992 12.7726C0.999992 14.0027 1.99717 14.9999 3.22725 14.9999C4.45733 14.9999 5.4545 14.0027 5.4545 12.7726C5.4545 11.5425 4.45733 10.5454 3.22725 10.5454C2.75404 10.5454 2.31529 10.6929 1.95453 10.9446ZM14.9999 13.0908L1.95453 5.05529M1.95453 5.05529C2.31529 5.30693 2.75404 5.4545 3.22725 5.4545C4.45733 5.4545 5.4545 4.45733 5.4545 3.22725C5.4545 1.99717 4.45733 0.999992 3.22725 0.999992C1.99717 0.999992 0.999992 1.99717 0.999992 3.22725C0.999992 3.98412 1.37752 4.65281 1.95453 5.05529Z" stroke="black" stroke-width="1.5" stroke-linecap="round"/>
</svg>
