<svg width="16" height="16" viewBox="0 0 16 16" fill="none" xmlns="http://www.w3.org/2000/svg">
<path d="M11.4 5.66667H12.3333C12.5809 5.66667 12.8183 5.765 12.9933 5.94003C13.1683 6.11507 13.2667 6.35246 13.2667 6.6V14.0667C13.2667 14.3142 13.1683 14.5516 12.9933 14.7266C12.8183 14.9017 12.5809 15 12.3333 15H3.93333C3.6858 15 3.4484 14.9017 3.27337 14.7266C3.09833 14.5516 3 14.3142 3 14.0667V6.6C3 6.35246 3.09833 6.11507 3.27337 5.94003C3.4484 5.765 3.6858 5.66667 3.93333 5.66667H4.86667M8.13333 1V7.53333M8.13333 1L5.8 3.33333M8.13333 1L10.4667 3.33333" stroke="black" stroke-width="1.5" stroke-linecap="round" stroke-linejoin="round"/>
</svg>
