<svg xmlns="http://www.w3.org/2000/svg" width="16" height="16" fill="none" viewBox="0 0 16 16"><path stroke="#000" stroke-linecap="round" stroke-linejoin="round" stroke-width="1.5" d="M6.154 6.539h3.692m-3.692 0a.923.923 0 0 0-.923.923v2.77c0 .51.413.922.923.922h3.692c.51 0 .923-.413.923-.923V7.462a.923.923 0 0 0-.923-.923m-3.692 0v-.923a1.846 1.846 0 0 1 3.692 0v.923M2 2.953V7.64a7.327 7.327 0 0 0 4.697 6.838l.64.247c.427.164.9.164 1.326 0l.64-.247A7.328 7.328 0 0 0 14 7.64V2.953a.915.915 0 0 0-.534-.838A13.354 13.354 0 0 0 8 1.001a13.354 13.354 0 0 0-5.466 1.114.915.915 0 0 0-.534.838Z"/></svg>