<svg width="24" height="24" viewBox="0 0 24 24" fill="none" xmlns="http://www.w3.org/2000/svg">
<path d="M18.7477 12.01H22.9064M23.25 17.2528C23.25 19.159 21.4911 19.4998 19.9984 19.4998M15.7462 19.4998H19.9984M11.9943 4.50815C12.9591 4.50815 14.1789 4.34741 14.6206 5.44987L15.5961 7.96545M9.36791 16.4919H10.1183M9.36791 16.4919C9.36791 16.2932 9.54408 16.1174 9.7431 16.1174C9.94211 16.1174 10.1183 16.2932 10.1183 16.4919M9.36791 16.4919C9.36791 16.6905 9.54408 16.8664 9.7431 16.8664C9.94211 16.8664 10.1183 16.6905 10.1183 16.4919M22.9064 12.01C22.1655 9.68039 20.6638 7.65145 18.6246 6.25877C17.2291 5.34219 16.2955 7.03465 15.5961 7.96545M22.9064 12.01C23.2641 13.1345 23.5212 15.0034 21.7482 15.0059H18.7477M15.5961 7.96545C15.0561 8.68409 14.5266 9.76301 13.495 9.76301H9.61403C8.02567 9.76268 7.66234 7.51639 6.12025 7.51606H2.44337C1.07583 7.50972 0.277352 9.12861 1.05566 10.2064C2.58946 11.6944 4.1554 13.1434 5.66525 14.6559M5.66525 14.6559L8.59251 13.5579C10.0557 13.0097 11.6834 13.7104 12.3883 15.0059M5.66525 14.6559L1.88908 16.0725C0.162396 16.7222 0.569496 19.4971 2.5124 19.4998H9.67006C11.9157 19.5019 13.4482 16.9539 12.3883 15.0059M12.3883 15.0059L18.7477 15.0059M18.7477 15.0059L19.9984 19.4998" stroke="black" stroke-width="1.5" stroke-linecap="round" stroke-linejoin="round"/>
</svg>
