<svg width="24" height="24" viewBox="0 0 24 24" fill="none" xmlns="http://www.w3.org/2000/svg">
<path d="M12.7223 1.24355L16.0529 7.84277L22.4633 8.4779C22.6159 8.49059 22.7617 8.54674 22.8834 8.63971C23.0051 8.73268 23.0976 8.85857 23.15 9.00249C23.2023 9.14641 23.2124 9.30232 23.1789 9.45176C23.1454 9.60121 23.0698 9.73792 22.961 9.84573L17.6854 15.0751L19.6413 22.1811C19.6814 22.3318 19.677 22.4909 19.6287 22.6392C19.5805 22.7875 19.4905 22.9187 19.3694 23.017C19.2484 23.1153 19.1015 23.1766 18.9465 23.1934C18.7915 23.2102 18.6349 23.1819 18.4956 23.1119L11.9966 19.8934L5.50655 23.1079C5.36724 23.1779 5.21066 23.2063 5.05564 23.1894C4.90062 23.1726 4.75377 23.1113 4.63274 23.013C4.51171 22.9147 4.42166 22.7835 4.37342 22.6352C4.32519 22.4869 4.32081 22.3278 4.36083 22.1771L6.31681 15.0712L1.03717 9.84175C0.928401 9.73394 0.8528 9.59722 0.819317 9.44778C0.785833 9.29834 0.795868 9.14243 0.848235 8.99851C0.900601 8.85459 0.993105 8.7287 1.11479 8.63573C1.23648 8.54276 1.38226 8.48661 1.53487 8.47392L7.9453 7.83879L11.271 1.24355C11.3393 1.10995 11.4433 0.997827 11.5713 0.919531C11.6994 0.841235 11.8465 0.799805 11.9966 0.799805C12.1467 0.799805 12.2938 0.841235 12.4219 0.919531C12.5499 0.997827 12.6539 1.10995 12.7223 1.24355V1.24355Z" stroke="black" stroke-width="1.5" stroke-linecap="round" stroke-linejoin="round"/>
</svg>
