<svg width="16" height="16" viewBox="0 0 16 16" fill="none" xmlns="http://www.w3.org/2000/svg">
<path d="M1 1.96683V6.00042C1.00011 6.51321 1.20392 7.00496 1.56659 7.36751L9.0631 14.8636C9.33158 15.1323 9.80653 14.9798 9.87915 14.6168L10.6688 10.6683L14.6175 9.87868C14.99 9.80418 15.1263 9.32437 14.8644 9.06268L7.36785 1.56656C7.00528 1.2039 6.51351 1.00011 6.00068 1H1.96688C1.44025 1 1 1.44023 1 1.96683Z" stroke="black" stroke-width="1.5" stroke-linecap="round" stroke-linejoin="round"/>
<path d="M4.38407 5.35071C4.91806 5.35071 5.35094 4.91785 5.35094 4.38389C5.35094 3.84992 4.91806 3.41706 4.38407 3.41706C3.85008 3.41706 3.41719 3.84992 3.41719 4.38389C3.41719 4.91785 3.85008 5.35071 4.38407 5.35071Z" stroke="black" stroke-width="1.5" stroke-linecap="round" stroke-linejoin="round"/>
</svg>
