<svg width="24" height="24" viewBox="0 0 24 24" fill="none" xmlns="http://www.w3.org/2000/svg">
<path d="M1.135 2.63379V8.89179C1.13517 9.68737 1.45135 10.4503 2.014 11.0128L13.644 22.6428C14.0605 23.0597 14.7973 22.8231 14.91 22.2598L16.135 16.1338L22.261 14.9088C22.8389 14.7932 23.0504 14.0488 22.644 13.6428L11.014 2.01279C10.4515 1.45014 9.68859 1.13396 8.893 1.13379H2.635C1.818 1.13379 1.135 1.81679 1.135 2.63379Z" stroke="black" stroke-width="1.5" stroke-linecap="round" stroke-linejoin="round"/>
<path d="M6.385 7.88379C7.21343 7.88379 7.885 7.21222 7.885 6.38379C7.885 5.55536 7.21343 4.88379 6.385 4.88379C5.55658 4.88379 4.885 5.55536 4.885 6.38379C4.885 7.21222 5.55658 7.88379 6.385 7.88379Z" stroke="black" stroke-width="1.5" stroke-linecap="round" stroke-linejoin="round"/>
</svg>
