<svg width="16" height="16" viewBox="0 0 16 16" fill="none" xmlns="http://www.w3.org/2000/svg"><path d="m1.007 8.43-.745-.08-.001.008v.008l.746.065Zm.52 1.4.528-.532-.528.532Zm.927.496.143-.736-.143.736Zm12.11-1.15-.034-.748.034.749Zm.423-.475-.74-.123.74.123ZM15 5.68h.75H15Zm-.02-3.032-.734.157.734-.157Zm-.486-.453.118-.74-.118.74Zm-2.841 0 .116.74-.116-.74Zm-.087 6.972-.002.75.002-.75Zm-6.254 1.196.686.304a.75.75 0 0 0-.695-1.054l.01.75Zm.82 4.622.126-.74H6.25l-.008-.002-.11.742Zm1.172-.556-.676-.324.676.324Zm3.322-5.187.475.581.004-.004-.479-.577Zm-2.564 2.863-.666-.344.666.344Zm2.722-9.899.423-.619-.423.62Zm-7.018-1.1L3.584.38l.182.728Zm-1.51 2.277.613.433.198-.28-.083-.334-.728.18ZM1.763 5.3l.639.393.155-.252-.059-.29-.735.149Zm-.26 1.938.637.395.176-.284-.093-.32-.72.21ZM.26 8.366a2.44 2.44 0 0 0 .738 1.997l1.057-1.065a.943.943 0 0 1-.3-.803L.26 8.366Zm.738 1.997c.373.37.8.6 1.313.7l.286-1.473a.98.98 0 0 1-.542-.292L.998 10.363Zm13.6-.437c.393-.018.67-.243.825-.432.158-.194.264-.433.304-.67l-1.48-.246a.061.061 0 0 1 .016-.036.368.368 0 0 1 .267-.114l.069 1.498Zm1.129-1.103a.633.633 0 0 0 .009-.08l.002-.033.002-.061.002-.176.005-.613c.002-.523.003-1.266.003-2.178h-1.5a548.26 548.26 0 0 1-.008 2.774 15.128 15.128 0 0 1-.003.191c-.001.027 0-.017.008-.069l1.48.245Zm.023-3.141c0-1.265 0-2.006-.004-2.44a21.429 21.429 0 0 0-.006-.464c-.002-.073-.005-.187-.027-.286l-1.467.314c-.012-.06-.009-.09-.005.017.002.081.004.213.005.428.003.429.004 1.164.004 2.43h1.5Zm-.037-3.19a1.348 1.348 0 0 0-1.1-1.037l-.238 1.481a.147.147 0 0 1-.079-.037.176.176 0 0 1-.05-.093l1.467-.314Zm-1.1-1.037c-.061-.01-.127-.011-.139-.012a110.676 110.676 0 0 0-2.685-.004c-.051.002-.173.003-.252.016l.232 1.482c-.049.007-.063.005.052.002l.317-.004a109.169 109.169 0 0 1 2.275.007c.039.002.007.002-.038-.006l.237-1.48Zm-3.076 0a1.342 1.342 0 0 0-1.122 1.172l1.489.18a.159.159 0 0 1-.135.13l-.232-1.482ZM10.469 9.03c.064.183.173.37.315.524.126.135.392.363.78.364l.005-1.5c.116 0 .2.037.244.061a.284.284 0 0 1 .068.051c.005.006.003.002.006.01l-1.418.49Zm-5.842 1.03c-.38.855-.666 2.064-.596 3.138.036.54.165 1.108.479 1.581.33.5.839.85 1.512.949l.22-1.484a.64.64 0 0 1-.481-.293c-.119-.178-.207-.46-.233-.851-.051-.785.168-1.751.47-2.432l-1.371-.608Zm1.38 5.665c.244.042.597.04.953-.079a1.712 1.712 0 0 0 1.02-.893l-1.352-.647a.197.197 0 0 1-.055.072.28.28 0 0 1-.088.046.538.538 0 0 1-.227.022l-.252 1.48Zm4.62-6.482a228.626 228.626 0 0 0-.476-.58l-.002.001-.005.005a1.83 1.83 0 0 0-.084.07 17.957 17.957 0 0 0-.986.904c-.564.558-1.277 1.343-1.678 2.119l1.333.688c.286-.554.854-1.2 1.4-1.741a16.431 16.431 0 0 1 .955-.871l.014-.011.002-.003c.001 0 0 0 0 0l-.474-.58Zm-3.231 2.519c-.262.506-.401 1.02-.505 1.433-.114.455-.172.72-.263.91l1.353.648c.175-.367.277-.84.366-1.194.099-.397.205-.766.382-1.109l-1.333-.688Zm-5.085-.7c.167.033.465.043.725.05.293.006.646.01.983.01a101.252 101.252 0 0 0 1.296-.008h.007l-.01-.75-.01-.75h-.026a61.362 61.362 0 0 1-.365.004 79.197 79.197 0 0 1-1.839-.007 11.15 11.15 0 0 1-.348-.012c-.105-.006-.137-.011-.127-.01l-.286 1.473Zm8.896-9.474C9.997.76 8.685.662 7.34.455l-.228 1.483c1.512.232 2.392.301 3.25.888l.846-1.238ZM7.34.455a17.22 17.22 0 0 0-2.097-.2C4.621.236 4.032.267 3.584.38l.365 1.455c.249-.062.676-.097 1.252-.081a15.73 15.73 0 0 1 1.91.184L7.34.455ZM3.584.38 3.58.382l-.01.003a4.955 4.955 0 0 0-.138.036 3.538 3.538 0 0 0-.304.1 3.064 3.064 0 0 0-.82.463c-.29.233-.574.563-.738 1.016-.165.457-.187.981-.042 1.566l1.456-.362c-.084-.34-.053-.557-.003-.694a.806.806 0 0 1 .266-.356c.27-.217.609-.294.702-.318L3.584.38Zm-1.94 2.571c-.252.357-.48.718-.6 1.137-.125.44-.114.873-.016 1.36l1.47-.296c-.066-.332-.052-.51-.012-.652.047-.162.148-.35.383-.683L1.644 2.95Zm-.52 1.956c-.251.41-.432.805-.488 1.25-.056.444.021.86.146 1.29l1.44-.418c-.1-.348-.117-.536-.098-.684.018-.147.081-.332.278-.652l-1.278-.786Zm-.26 1.936C.6 7.272.339 7.65.263 8.35l1.491.163c.035-.318.107-.427.387-.88L.865 6.844Zm10.7 3.075c.138 0 2.794.02 3.035.008l-.07-1.498h-.042l-.11.001h-.348c-.277 0-.629 0-.98-.003l-1.48-.008-.005 1.5Zm-.459-.098.552-.458-.958-1.154-.552.458.958 1.154Zm-.745-6.994c-.028-.02-.03-.028-.01-.003a1.444 1.444 0 0 1 .13.211l-.001-.001v-.001l.68-.315.681-.314V2.4l-.002-.002-.003-.007-.01-.02a3.17 3.17 0 0 0-.14-.253 1.792 1.792 0 0 0-.478-.53l-.847 1.237Zm.05-.107.018 6.069 1.5-.005-.019-6.068-1.5.004Z" fill="#000"/></svg>