<svg xmlns="http://www.w3.org/2000/svg" width="16" height="16" fill="none" viewBox="0 0 16 16"><path fill="#000" d="M1.076 6.54a.75.75 0 0 0-.152 1.49l.152-1.492Zm3.262 1.086.077-.746h-.001l-.076.746Zm.998.414.472-.584-.002-.001-.47.585Zm2.646 2.14-.471.583.012.01.46-.593Zm.557 1.08-.749.039.002.02.747-.06Zm-.537.93-.306-.684-.005.002.311.683Zm-1.335-.12.426-.616-.016-.01-.41.627Zm-1.305-1.748a.75.75 0 0 0-.82 1.256l.82-1.256Zm7.601 1.654v.75h.01l-.01-.75Zm1.599 1.35.241.71a.75.75 0 0 0 .509-.71h-.75Zm-7.48 1.427.048.749a.684.684 0 0 0 .038-.004l-.086-.745Zm-.952-.172-.37.653.058.03.312-.683Zm-4.761-3.55a.75.75 0 0 0-.738 1.307l.738-1.306Zm10.206-4.097v-.75h-.25l-.2.15.45.6ZM9.52 8.477h-.75a.75.75 0 0 0 1.2.6l-.45-.6Zm0-1.543h.75v-.75h-.75v.75ZM.924 8.03l3.337.341.153-1.492-3.338-.34L.924 8.03Zm3.336.34c.218.024.428.11.606.253l.94-1.169a2.659 2.659 0 0 0-1.39-.575L4.26 8.372Zm.605.252 2.646 2.14.943-1.166-2.646-2.14-.943 1.166Zm2.658 2.15a.71.71 0 0 1 .267.526l1.498-.079a2.211 2.211 0 0 0-.846-1.633l-.919 1.186Zm.168.735a.602.602 0 0 1-.598-.054l-.852 1.234a2.102 2.102 0 0 0 2.073.185l-.623-1.365Zm-.614-.065-1.715-1.12-.82 1.255 1.714 1.12.821-1.255Zm5.897 1.283a1.18 1.18 0 0 1 .603.17c.15.098.235.218.235.43h1.5c0-.8-.415-1.36-.916-1.686a2.663 2.663 0 0 0-1.443-.414l.02 1.5Zm1.588.6-.241-.71h-.003l-.018.007a10.907 10.907 0 0 1-.41.123c-.3.085-.755.206-1.365.345-1.22.279-3.064.63-5.53.917l.173 1.49c2.521-.292 4.418-.654 5.69-.944a28.558 28.558 0 0 0 1.441-.365 14.615 14.615 0 0 0 .5-.152h.004l-.241-.711Zm-7.53.679a1.239 1.239 0 0 1-.591-.106l-.623 1.364c.41.187.862.268 1.312.239l-.097-1.497Zm-.534-.077-5.13-2.896-.737 1.306 5.13 2.896.737-1.306Zm1.294-2.608a.202.202 0 0 1-.049.152l1.11 1.009c.31-.342.472-.805.434-1.282l-1.495.12Zm-.049.152a.14.14 0 0 1-.047.034l.612 1.37a1.64 1.64 0 0 0 .545-.395l-1.11-1.01Zm.555 1.254h4.665v-1.5H8.298v1.5Zm6.427-6.542h-3.15v1.5h3.15v-1.5Zm-3.6.15L9.07 7.877l.9 1.2 2.056-1.543-.9-1.2Zm-.857 2.143V6.934h-1.5v1.543h1.5Zm-.75-2.293H8.04v1.5h1.48v-1.5Zm-1.479 0c.13 0 .236.105.236.236h-1.5c0 .698.566 1.264 1.264 1.264v-1.5Zm.236.236V1.277h-1.5V6.42h1.5Zm0-5.143c0 .13-.106.236-.236.236v-1.5c-.698 0-1.264.566-1.264 1.264h1.5Zm-.236.236h6.686v-1.5H8.039v1.5Zm6.686 0a.236.236 0 0 1-.236-.236h1.5c0-.698-.566-1.264-1.264-1.264v1.5Zm-.236-.236V6.42h1.5V1.277h-1.5Zm0 5.143c0-.13.105-.236.236-.236v1.5c.698 0 1.264-.566 1.264-1.264h-1.5Z"/></svg>