<svg width="25" height="24" viewBox="0 0 25 24" fill="none" xmlns="http://www.w3.org/2000/svg">
<path d="M12 5.25096C7.96901 5.18296 3.80001 7.99996 1.17901 10.885C0.903894 11.1904 0.751648 11.5869 0.751648 11.998C0.751648 12.409 0.903894 12.8055 1.17901 13.111C3.74301 15.935 7.90001 18.817 12 18.748C16.1 18.817 20.258 15.935 22.824 13.111C23.0991 12.8055 23.2514 12.409 23.2514 11.998C23.2514 11.5869 23.0991 11.1904 22.824 10.885C20.2 7.99996 16.031 5.18296 12 5.25096Z" stroke="black" stroke-width="1.5" stroke-linecap="round" stroke-linejoin="round"/>
<path d="M15.75 12C15.7498 12.7416 15.5297 13.4665 15.1175 14.0831C14.7054 14.6996 14.1196 15.1801 13.4344 15.4638C12.7491 15.7475 11.9952 15.8216 11.2678 15.6768C10.5404 15.532 9.87235 15.1747 9.34801 14.6503C8.82366 14.1258 8.46661 13.4576 8.32199 12.7302C8.17738 12.0028 8.2517 11.2488 8.53556 10.5637C8.81942 9.8785 9.30006 9.29289 9.91673 8.88088C10.5334 8.46887 11.2584 8.24896 12 8.24896C12.4926 8.24883 12.9804 8.34577 13.4355 8.53424C13.8906 8.72271 14.304 8.99902 14.6523 9.34737C15.0006 9.69572 15.2768 10.1093 15.4651 10.5644C15.6535 11.0196 15.7503 11.5074 15.75 12Z" stroke="black" stroke-width="1.5" stroke-linecap="round" stroke-linejoin="round"/>
</svg>
