<svg width="296" height="80" viewBox="0 0 296 80" fill="none" xmlns="http://www.w3.org/2000/svg">
<rect x="8" y="20" width="128" height="40" rx="20" fill="#008484"/>
<path d="M32.696 45H36.264C39.176 45 40.264 43.656 40.264 41.784C40.264 40.104 39.064 39.256 37.88 39.048V39C38.824 38.664 39.448 37.752 39.448 36.536C39.448 34.888 38.344 33.688 35.784 33.688H32.696V45ZM34.008 43.912V39.72H35.784C37.704 39.72 38.92 40.296 38.92 41.832C38.92 43.56 37.592 43.912 36.024 43.912H34.008ZM34.008 38.664V34.712H35.448C37.144 34.712 38.104 35.208 38.104 36.744C38.104 37.976 37.4 38.664 35.96 38.664H34.008ZM44.7612 45.192C46.2332 45.192 47.0972 44.568 47.9292 43.976V45H49.1452V36.264H47.9292V42.952C47.2572 43.432 46.2332 44.04 45.1132 44.04C43.5452 44.04 43.4332 42.952 43.4332 41.576V36.264H42.1852V41.832C42.1852 43.304 42.3612 45.192 44.7612 45.192ZM54.5367 45.192C55.1287 45.192 55.9447 45.032 56.3927 44.872L56.1687 43.832C55.8007 43.96 55.1767 44.088 54.6967 44.088C53.6887 44.088 53.1287 43.752 53.1287 42.52V37.336H55.8487V36.264H53.1127V34.472H51.8807V36.264H50.6007V37.336H51.8807V42.568C51.8807 44.632 52.9047 45.192 54.5367 45.192ZM60.645 45.192C61.237 45.192 62.053 45.032 62.501 44.872L62.277 43.832C61.909 43.96 61.285 44.088 60.805 44.088C59.797 44.088 59.237 43.752 59.237 42.52V37.336H61.957V36.264H59.221V34.472H57.989V36.264H56.709V37.336H57.989V42.568C57.989 44.632 59.013 45.192 60.645 45.192ZM67.1693 45.192C69.4573 45.192 71.1533 43.736 71.1533 40.584C71.1533 37.704 69.8253 36.04 67.3453 36.04C64.9133 36.04 63.2813 37.704 63.2813 40.728C63.2813 43.592 64.7693 45.192 67.1693 45.192ZM67.2493 44.152C65.2013 44.152 64.5613 42.456 64.5613 40.664C64.5613 39 65.1053 37.08 67.2493 37.08C69.3933 37.08 69.8733 39.016 69.8733 40.664C69.8733 42.376 69.3613 44.152 67.2493 44.152ZM73.0732 45H74.3372V38.232C75.1212 37.688 76.0172 37.16 77.1372 37.16C78.6252 37.16 78.8652 38.104 78.8652 39.608V45H80.0972V39.368C80.0972 37.896 79.9372 36.04 77.4572 36.04C76.0972 36.04 75.2492 36.584 74.3372 37.256V36.264H73.0732V45ZM89.3127 45.192C89.9047 45.192 90.7207 45.032 91.1687 44.872L90.9447 43.832C90.5767 43.96 89.9527 44.088 89.4727 44.088C88.4647 44.088 87.9047 43.752 87.9047 42.52V37.336H90.6247V36.264H87.8887V34.472H86.6567V36.264H85.3767V37.336H86.6567V42.568C86.6567 44.632 87.6807 45.192 89.3127 45.192ZM96.109 45.192C97.213 45.192 98.205 45 98.861 44.728L98.637 43.704C97.821 43.96 97.165 44.104 96.317 44.104C94.653 44.104 93.277 43.576 93.245 40.872H99.005V40.408C99.005 37.496 97.997 36.04 95.773 36.04C93.645 36.04 91.965 37.4 91.965 40.808C91.965 44.136 93.565 45.192 96.109 45.192ZM93.261 39.928C93.405 37.976 94.381 37.032 95.645 37.032C97.069 37.032 97.693 38.152 97.693 39.928H93.261ZM99.9207 45H101.409L103.681 41.416L105.921 45H107.441L104.401 40.504L107.217 36.264H105.809L103.681 39.64L101.569 36.264H100.097L102.961 40.536L99.9207 45ZM111.825 45.192C112.417 45.192 113.233 45.032 113.681 44.872L113.457 43.832C113.089 43.96 112.465 44.088 111.985 44.088C110.977 44.088 110.417 43.752 110.417 42.52V37.336H113.137V36.264H110.401V34.472H109.169V36.264H107.889V37.336H109.169V42.568C109.169 44.632 110.193 45.192 111.825 45.192Z" fill="white"/>
<rect x="160" y="8" width="128" height="64" rx="20" fill="#008484"/>
<path d="M184.696 33H188.264C191.176 33 192.264 31.656 192.264 29.784C192.264 28.104 191.064 27.256 189.88 27.048V27C190.824 26.664 191.448 25.752 191.448 24.536C191.448 22.888 190.344 21.688 187.784 21.688H184.696V33ZM186.008 31.912V27.72H187.784C189.704 27.72 190.92 28.296 190.92 29.832C190.92 31.56 189.592 31.912 188.024 31.912H186.008ZM186.008 26.664V22.712H187.448C189.144 22.712 190.104 23.208 190.104 24.744C190.104 25.976 189.4 26.664 187.96 26.664H186.008ZM196.761 33.192C198.233 33.192 199.097 32.568 199.929 31.976V33H201.145V24.264H199.929V30.952C199.257 31.432 198.233 32.04 197.113 32.04C195.545 32.04 195.433 30.952 195.433 29.576V24.264H194.185V29.832C194.185 31.304 194.361 33.192 196.761 33.192ZM206.537 33.192C207.129 33.192 207.945 33.032 208.393 32.872L208.169 31.832C207.801 31.96 207.177 32.088 206.697 32.088C205.689 32.088 205.129 31.752 205.129 30.52V25.336H207.849V24.264H205.113V22.472H203.881V24.264H202.601V25.336H203.881V30.568C203.881 32.632 204.905 33.192 206.537 33.192ZM212.645 33.192C213.237 33.192 214.053 33.032 214.501 32.872L214.277 31.832C213.909 31.96 213.285 32.088 212.805 32.088C211.797 32.088 211.237 31.752 211.237 30.52V25.336H213.957V24.264H211.221V22.472H209.989V24.264H208.709V25.336H209.989V30.568C209.989 32.632 211.013 33.192 212.645 33.192ZM219.169 33.192C221.457 33.192 223.153 31.736 223.153 28.584C223.153 25.704 221.825 24.04 219.345 24.04C216.913 24.04 215.281 25.704 215.281 28.728C215.281 31.592 216.769 33.192 219.169 33.192ZM219.249 32.152C217.201 32.152 216.561 30.456 216.561 28.664C216.561 27 217.105 25.08 219.249 25.08C221.393 25.08 221.873 27.016 221.873 28.664C221.873 30.376 221.361 32.152 219.249 32.152ZM225.073 33H226.337V26.232C227.121 25.688 228.017 25.16 229.137 25.16C230.625 25.16 230.865 26.104 230.865 27.608V33H232.097V27.368C232.097 25.896 231.937 24.04 229.457 24.04C228.097 24.04 227.249 24.584 226.337 25.256V24.264H225.073V33ZM187.32 57.192C187.912 57.192 188.728 57.032 189.176 56.872L188.952 55.832C188.584 55.96 187.96 56.088 187.48 56.088C186.472 56.088 185.912 55.752 185.912 54.52V49.336H188.632V48.264H185.896V46.472H184.664V48.264H183.384V49.336H184.664V54.568C184.664 56.632 185.688 57.192 187.32 57.192ZM194.116 57.192C195.22 57.192 196.212 57 196.868 56.728L196.644 55.704C195.828 55.96 195.172 56.104 194.324 56.104C192.66 56.104 191.284 55.576 191.252 52.872H197.012V52.408C197.012 49.496 196.004 48.04 193.78 48.04C191.652 48.04 189.972 49.4 189.972 52.808C189.972 56.136 191.572 57.192 194.116 57.192ZM191.268 51.928C191.412 49.976 192.388 49.032 193.652 49.032C195.076 49.032 195.7 50.152 195.7 51.928H191.268ZM197.928 57H199.416L201.688 53.416L203.928 57H205.448L202.408 52.504L205.224 48.264H203.816L201.688 51.64L199.576 48.264H198.104L200.968 52.536L197.928 57ZM209.833 57.192C210.425 57.192 211.241 57.032 211.689 56.872L211.465 55.832C211.097 55.96 210.473 56.088 209.993 56.088C208.985 56.088 208.425 55.752 208.425 54.52V49.336H211.145V48.264H208.409V46.472H207.177V48.264H205.897V49.336H207.177V54.568C207.177 56.632 208.201 57.192 209.833 57.192ZM218.566 57H220.278L222.294 50.6L222.598 49.416L222.87 50.616L224.63 57H226.326L229.334 48.264H228.07L225.51 56.088L223.43 48.264H221.814L219.446 56.088L217.19 48.264H215.862L218.566 57ZM230.635 57H231.899V50.568C232.315 49.928 233.115 49.176 234.171 49.176C234.683 49.176 234.939 49.224 235.211 49.288L235.419 48.216C235.259 48.168 234.907 48.072 234.395 48.072C233.163 48.072 232.299 48.776 231.899 49.432V48.264H230.635V57ZM238.507 57.144C240.011 57.144 240.987 56.328 241.419 55.992C241.531 56.776 242.331 57.096 243.099 57.096C243.211 57.096 243.371 57.08 243.451 57.064L243.499 56.088C243.083 56.088 242.555 55.944 242.555 55.288V50.456C242.555 48.744 241.387 48.04 239.467 48.04C238.283 48.04 237.307 48.296 236.635 48.584L236.923 49.576C237.643 49.304 238.347 49.144 239.291 49.144C240.667 49.144 241.323 49.48 241.323 50.872V51.992L239.243 52.024C237.819 52.056 235.899 52.504 235.899 54.68C235.899 56.264 236.923 57.144 238.507 57.144ZM238.795 56.12C237.835 56.12 237.115 55.64 237.115 54.632C237.115 53.608 237.867 53 239.227 52.952L241.323 52.872V55.144C240.667 55.624 239.755 56.12 238.795 56.12ZM245.117 60.52H246.381V57.032C246.781 57.096 247.485 57.176 248.045 57.176C250.349 57.176 252.349 56.008 252.349 52.488C252.349 49.64 251.037 48.072 248.941 48.072C247.869 48.072 247.149 48.456 246.381 48.984V48.264H245.117V60.52ZM248.029 56.12C247.341 56.12 246.637 55.976 246.381 55.944V49.992C246.845 49.688 247.645 49.16 248.685 49.16C250.557 49.16 251.069 50.952 251.069 52.568C251.069 54.632 250.253 56.12 248.029 56.12Z" fill="white"/>
</svg>
