<svg width="664" height="72" viewBox="0 0 664 72" fill="none" xmlns="http://www.w3.org/2000/svg">
<rect x="8.5" y="17.5" width="95" height="39" rx="19.5" fill="white" stroke="#008484"/>
<path d="M32.696 41.125H36.264C39.176 41.125 40.264 39.781 40.264 37.909C40.264 36.229 39.064 35.381 37.88 35.173V35.125C38.824 34.789 39.448 33.877 39.448 32.661C39.448 31.013 38.344 29.813 35.784 29.813H32.696V41.125ZM34.008 40.037V35.845H35.784C37.704 35.845 38.92 36.421 38.92 37.957C38.92 39.685 37.592 40.037 36.024 40.037H34.008ZM34.008 34.789V30.837H35.448C37.144 30.837 38.104 31.333 38.104 32.869C38.104 34.101 37.4 34.789 35.96 34.789H34.008ZM44.7079 41.317C46.1799 41.317 47.0439 40.693 47.8759 40.101V41.125H49.0919V32.389H47.8759V39.077C47.2039 39.557 46.1799 40.165 45.0599 40.165C43.4919 40.165 43.3799 39.077 43.3799 37.701V32.389H42.1319V37.957C42.1319 39.429 42.3079 41.317 44.7079 41.317ZM54.43 41.317C55.022 41.317 55.838 41.157 56.286 40.997L56.062 39.957C55.694 40.085 55.07 40.213 54.59 40.213C53.582 40.213 53.022 39.877 53.022 38.645V33.461H55.742V32.389H53.006V30.597H51.774V32.389H50.494V33.461H51.774V38.693C51.774 40.757 52.798 41.317 54.43 41.317ZM60.485 41.317C61.077 41.317 61.893 41.157 62.341 40.997L62.117 39.957C61.749 40.085 61.125 40.213 60.645 40.213C59.637 40.213 59.077 39.877 59.077 38.645V33.461H61.797V32.389H59.061V30.597H57.829V32.389H56.549V33.461H57.829V38.693C57.829 40.757 58.853 41.317 60.485 41.317ZM66.956 41.317C69.244 41.317 70.94 39.861 70.94 36.709C70.94 33.829 69.612 32.165 67.132 32.165C64.7 32.165 63.068 33.829 63.068 36.853C63.068 39.717 64.556 41.317 66.956 41.317ZM67.036 40.277C64.988 40.277 64.348 38.581 64.348 36.789C64.348 35.125 64.892 33.205 67.036 33.205C69.18 33.205 69.66 35.141 69.66 36.789C69.66 38.501 69.148 40.277 67.036 40.277ZM72.8065 41.125H74.0705V34.357C74.8545 33.813 75.7505 33.285 76.8705 33.285C78.3585 33.285 78.5985 34.229 78.5985 35.733V41.125H79.8305V35.493C79.8305 34.021 79.6705 32.165 77.1905 32.165C75.8305 32.165 74.9825 32.709 74.0705 33.381V32.389H72.8065V41.125Z" fill="#007272"/>
<rect x="448.5" y="17.5" width="95" height="39" rx="19.5" fill="white" stroke="#008484"/>
<path d="M472.696 41.125H476.264C479.176 41.125 480.264 39.781 480.264 37.909C480.264 36.229 479.064 35.381 477.88 35.173V35.125C478.824 34.789 479.448 33.877 479.448 32.661C479.448 31.013 478.344 29.813 475.784 29.813H472.696V41.125ZM474.008 40.037V35.845H475.784C477.704 35.845 478.92 36.421 478.92 37.957C478.92 39.685 477.592 40.037 476.024 40.037H474.008ZM474.008 34.789V30.837H475.448C477.144 30.837 478.104 31.333 478.104 32.869C478.104 34.101 477.4 34.789 475.96 34.789H474.008ZM484.708 41.317C486.18 41.317 487.044 40.693 487.876 40.101V41.125H489.092V32.389H487.876V39.077C487.204 39.557 486.18 40.165 485.06 40.165C483.492 40.165 483.38 39.077 483.38 37.701V32.389H482.132V37.957C482.132 39.429 482.308 41.317 484.708 41.317ZM494.43 41.317C495.022 41.317 495.838 41.157 496.286 40.997L496.062 39.957C495.694 40.085 495.07 40.213 494.59 40.213C493.582 40.213 493.022 39.877 493.022 38.645V33.461H495.742V32.389H493.006V30.597H491.774V32.389H490.494V33.461H491.774V38.693C491.774 40.757 492.798 41.317 494.43 41.317ZM500.485 41.317C501.077 41.317 501.893 41.157 502.341 40.997L502.117 39.957C501.749 40.085 501.125 40.213 500.645 40.213C499.637 40.213 499.077 39.877 499.077 38.645V33.461H501.797V32.389H499.061V30.597H497.829V32.389H496.549V33.461H497.829V38.693C497.829 40.757 498.853 41.317 500.485 41.317ZM506.956 41.317C509.244 41.317 510.94 39.861 510.94 36.709C510.94 33.829 509.612 32.165 507.132 32.165C504.7 32.165 503.068 33.829 503.068 36.853C503.068 39.717 504.556 41.317 506.956 41.317ZM507.036 40.277C504.988 40.277 504.348 38.581 504.348 36.789C504.348 35.125 504.892 33.205 507.036 33.205C509.18 33.205 509.66 35.141 509.66 36.789C509.66 38.501 509.148 40.277 507.036 40.277ZM512.807 41.125H514.071V34.357C514.855 33.813 515.751 33.285 516.871 33.285C518.359 33.285 518.599 34.229 518.599 35.733V41.125H519.831V35.493C519.831 34.021 519.671 32.165 517.191 32.165C515.831 32.165 514.983 32.709 514.071 33.381V32.389H512.807V41.125Z" fill="#007272"/>
<rect x="560.5" y="17.5" width="95" height="39" rx="19.5" fill="white" stroke="#008484"/>
<path d="M584.696 41.125H588.264C591.176 41.125 592.264 39.781 592.264 37.909C592.264 36.229 591.064 35.381 589.88 35.173V35.125C590.824 34.789 591.448 33.877 591.448 32.661C591.448 31.013 590.344 29.813 587.784 29.813H584.696V41.125ZM586.008 40.037V35.845H587.784C589.704 35.845 590.92 36.421 590.92 37.957C590.92 39.685 589.592 40.037 588.024 40.037H586.008ZM586.008 34.789V30.837H587.448C589.144 30.837 590.104 31.333 590.104 32.869C590.104 34.101 589.4 34.789 587.96 34.789H586.008ZM596.708 41.317C598.18 41.317 599.044 40.693 599.876 40.101V41.125H601.092V32.389H599.876V39.077C599.204 39.557 598.18 40.165 597.06 40.165C595.492 40.165 595.38 39.077 595.38 37.701V32.389H594.132V37.957C594.132 39.429 594.308 41.317 596.708 41.317ZM606.43 41.317C607.022 41.317 607.838 41.157 608.286 40.997L608.062 39.957C607.694 40.085 607.07 40.213 606.59 40.213C605.582 40.213 605.022 39.877 605.022 38.645V33.461H607.742V32.389H605.006V30.597H603.774V32.389H602.494V33.461H603.774V38.693C603.774 40.757 604.798 41.317 606.43 41.317ZM612.485 41.317C613.077 41.317 613.893 41.157 614.341 40.997L614.117 39.957C613.749 40.085 613.125 40.213 612.645 40.213C611.637 40.213 611.077 39.877 611.077 38.645V33.461H613.797V32.389H611.061V30.597H609.829V32.389H608.549V33.461H609.829V38.693C609.829 40.757 610.853 41.317 612.485 41.317ZM618.956 41.317C621.244 41.317 622.94 39.861 622.94 36.709C622.94 33.829 621.612 32.165 619.132 32.165C616.7 32.165 615.068 33.829 615.068 36.853C615.068 39.717 616.556 41.317 618.956 41.317ZM619.036 40.277C616.988 40.277 616.348 38.581 616.348 36.789C616.348 35.125 616.892 33.205 619.036 33.205C621.18 33.205 621.66 35.141 621.66 36.789C621.66 38.501 621.148 40.277 619.036 40.277ZM624.807 41.125H626.071V34.357C626.855 33.813 627.751 33.285 628.871 33.285C630.359 33.285 630.599 34.229 630.599 35.733V41.125H631.831V35.493C631.831 34.021 631.671 32.165 629.191 32.165C627.831 32.165 626.983 32.709 626.071 33.381V32.389H624.807V41.125Z" fill="#007272"/>
<rect x="120" y="16" width="96" height="40" rx="20" fill="#008484"/>
<path d="M144.696 41H148.264C151.176 41 152.264 39.656 152.264 37.784C152.264 36.104 151.064 35.256 149.88 35.048V35C150.824 34.664 151.448 33.752 151.448 32.536C151.448 30.888 150.344 29.688 147.784 29.688H144.696V41ZM146.008 39.912V35.72H147.784C149.704 35.72 150.92 36.296 150.92 37.832C150.92 39.56 149.592 39.912 148.024 39.912H146.008ZM146.008 34.664V30.712H147.448C149.144 30.712 150.104 31.208 150.104 32.744C150.104 33.976 149.4 34.664 147.96 34.664H146.008ZM156.761 41.192C158.233 41.192 159.097 40.568 159.929 39.976V41H161.145V32.264H159.929V38.952C159.257 39.432 158.233 40.04 157.113 40.04C155.545 40.04 155.433 38.952 155.433 37.576V32.264H154.185V37.832C154.185 39.304 154.361 41.192 156.761 41.192ZM166.537 41.192C167.129 41.192 167.945 41.032 168.393 40.872L168.169 39.832C167.801 39.96 167.177 40.088 166.697 40.088C165.689 40.088 165.129 39.752 165.129 38.52V33.336H167.849V32.264H165.113V30.472H163.881V32.264H162.601V33.336H163.881V38.568C163.881 40.632 164.905 41.192 166.537 41.192ZM172.645 41.192C173.237 41.192 174.053 41.032 174.501 40.872L174.277 39.832C173.909 39.96 173.285 40.088 172.805 40.088C171.797 40.088 171.237 39.752 171.237 38.52V33.336H173.957V32.264H171.221V30.472H169.989V32.264H168.709V33.336H169.989V38.568C169.989 40.632 171.013 41.192 172.645 41.192ZM179.169 41.192C181.457 41.192 183.153 39.736 183.153 36.584C183.153 33.704 181.825 32.04 179.345 32.04C176.913 32.04 175.281 33.704 175.281 36.728C175.281 39.592 176.769 41.192 179.169 41.192ZM179.249 40.152C177.201 40.152 176.561 38.456 176.561 36.664C176.561 35 177.105 33.08 179.249 33.08C181.393 33.08 181.873 35.016 181.873 36.664C181.873 38.376 181.361 40.152 179.249 40.152ZM185.073 41H186.337V34.232C187.121 33.688 188.017 33.16 189.137 33.16C190.625 33.16 190.865 34.104 190.865 35.608V41H192.097V35.368C192.097 33.896 191.937 32.04 189.457 32.04C188.097 32.04 187.249 32.584 186.337 33.256V32.264H185.073V41Z" fill="white"/>
<rect x="104" y="16" width="16" height="40" fill="#DB00FF" fill-opacity="0.25"/>
<rect x="544" y="16" width="16" height="40" fill="#DB00FF" fill-opacity="0.25"/>
<rect x="216" y="16" width="232" height="40" fill="#DB00FF" fill-opacity="0.25"/>
</svg>
