<svg width="376" height="104" viewBox="0 0 376 104" fill="none" xmlns="http://www.w3.org/2000/svg">
<rect x="24" y="16" width="96" height="40" rx="20" fill="#008484"/>
<path d="M48.696 41H52.264C55.176 41 56.264 39.656 56.264 37.784C56.264 36.104 55.064 35.256 53.88 35.048V35C54.824 34.664 55.448 33.752 55.448 32.536C55.448 30.888 54.344 29.688 51.784 29.688H48.696V41ZM50.008 39.912V35.72H51.784C53.704 35.72 54.92 36.296 54.92 37.832C54.92 39.56 53.592 39.912 52.024 39.912H50.008ZM50.008 34.664V30.712H51.448C53.144 30.712 54.104 31.208 54.104 32.744C54.104 33.976 53.4 34.664 51.96 34.664H50.008ZM60.7612 41.192C62.2332 41.192 63.0972 40.568 63.9292 39.976V41H65.1452V32.264H63.9292V38.952C63.2572 39.432 62.2332 40.04 61.1132 40.04C59.5452 40.04 59.4332 38.952 59.4332 37.576V32.264H58.1852V37.832C58.1852 39.304 58.3612 41.192 60.7612 41.192ZM70.5367 41.192C71.1287 41.192 71.9447 41.032 72.3927 40.872L72.1687 39.832C71.8007 39.96 71.1767 40.088 70.6967 40.088C69.6887 40.088 69.1287 39.752 69.1287 38.52V33.336H71.8487V32.264H69.1127V30.472H67.8807V32.264H66.6007V33.336H67.8807V38.568C67.8807 40.632 68.9047 41.192 70.5367 41.192ZM76.645 41.192C77.237 41.192 78.053 41.032 78.501 40.872L78.277 39.832C77.909 39.96 77.285 40.088 76.805 40.088C75.797 40.088 75.237 39.752 75.237 38.52V33.336H77.957V32.264H75.221V30.472H73.989V32.264H72.709V33.336H73.989V38.568C73.989 40.632 75.013 41.192 76.645 41.192ZM83.1693 41.192C85.4573 41.192 87.1533 39.736 87.1533 36.584C87.1533 33.704 85.8253 32.04 83.3453 32.04C80.9133 32.04 79.2813 33.704 79.2813 36.728C79.2813 39.592 80.7693 41.192 83.1693 41.192ZM83.2493 40.152C81.2013 40.152 80.5613 38.456 80.5613 36.664C80.5613 35 81.1053 33.08 83.2493 33.08C85.3933 33.08 85.8733 35.016 85.8733 36.664C85.8733 38.376 85.3613 40.152 83.2493 40.152ZM89.0732 41H90.3372V34.232C91.1212 33.688 92.0172 33.16 93.1372 33.16C94.6252 33.16 94.8652 34.104 94.8652 35.608V41H96.0972V35.368C96.0972 33.896 95.9372 32.04 93.4572 32.04C92.0972 32.04 91.2492 32.584 90.3372 33.256V32.264H89.0732V41Z" fill="white"/>
<rect x="136" y="16" width="96" height="40" rx="20" fill="#008484"/>
<path d="M160.696 41H164.264C167.176 41 168.264 39.656 168.264 37.784C168.264 36.104 167.064 35.256 165.88 35.048V35C166.824 34.664 167.448 33.752 167.448 32.536C167.448 30.888 166.344 29.688 163.784 29.688H160.696V41ZM162.008 39.912V35.72H163.784C165.704 35.72 166.92 36.296 166.92 37.832C166.92 39.56 165.592 39.912 164.024 39.912H162.008ZM162.008 34.664V30.712H163.448C165.144 30.712 166.104 31.208 166.104 32.744C166.104 33.976 165.4 34.664 163.96 34.664H162.008ZM172.761 41.192C174.233 41.192 175.097 40.568 175.929 39.976V41H177.145V32.264H175.929V38.952C175.257 39.432 174.233 40.04 173.113 40.04C171.545 40.04 171.433 38.952 171.433 37.576V32.264H170.185V37.832C170.185 39.304 170.361 41.192 172.761 41.192ZM182.537 41.192C183.129 41.192 183.945 41.032 184.393 40.872L184.169 39.832C183.801 39.96 183.177 40.088 182.697 40.088C181.689 40.088 181.129 39.752 181.129 38.52V33.336H183.849V32.264H181.113V30.472H179.881V32.264H178.601V33.336H179.881V38.568C179.881 40.632 180.905 41.192 182.537 41.192ZM188.645 41.192C189.237 41.192 190.053 41.032 190.501 40.872L190.277 39.832C189.909 39.96 189.285 40.088 188.805 40.088C187.797 40.088 187.237 39.752 187.237 38.52V33.336H189.957V32.264H187.221V30.472H185.989V32.264H184.709V33.336H185.989V38.568C185.989 40.632 187.013 41.192 188.645 41.192ZM195.169 41.192C197.457 41.192 199.153 39.736 199.153 36.584C199.153 33.704 197.825 32.04 195.345 32.04C192.913 32.04 191.281 33.704 191.281 36.728C191.281 39.592 192.769 41.192 195.169 41.192ZM195.249 40.152C193.201 40.152 192.561 38.456 192.561 36.664C192.561 35 193.105 33.08 195.249 33.08C197.393 33.08 197.873 35.016 197.873 36.664C197.873 38.376 197.361 40.152 195.249 40.152ZM201.073 41H202.337V34.232C203.121 33.688 204.017 33.16 205.137 33.16C206.625 33.16 206.865 34.104 206.865 35.608V41H208.097V35.368C208.097 33.896 207.937 32.04 205.457 32.04C204.097 32.04 203.249 32.584 202.337 33.256V32.264H201.073V41Z" fill="white"/>
<rect x="120" y="16" width="16" height="40" fill="#DB00FF" fill-opacity="0.25"/>
<rect x="232" y="16" width="24" height="40" fill="#DB00FF" fill-opacity="0.25"/>
<rect x="256" y="16" width="96" height="40" rx="20" fill="#008484"/>
<path d="M280.696 41H284.264C287.176 41 288.264 39.656 288.264 37.784C288.264 36.104 287.064 35.256 285.88 35.048V35C286.824 34.664 287.448 33.752 287.448 32.536C287.448 30.888 286.344 29.688 283.784 29.688H280.696V41ZM282.008 39.912V35.72H283.784C285.704 35.72 286.92 36.296 286.92 37.832C286.92 39.56 285.592 39.912 284.024 39.912H282.008ZM282.008 34.664V30.712H283.448C285.144 30.712 286.104 31.208 286.104 32.744C286.104 33.976 285.4 34.664 283.96 34.664H282.008ZM292.761 41.192C294.233 41.192 295.097 40.568 295.929 39.976V41H297.145V32.264H295.929V38.952C295.257 39.432 294.233 40.04 293.113 40.04C291.545 40.04 291.433 38.952 291.433 37.576V32.264H290.185V37.832C290.185 39.304 290.361 41.192 292.761 41.192ZM302.537 41.192C303.129 41.192 303.945 41.032 304.393 40.872L304.169 39.832C303.801 39.96 303.177 40.088 302.697 40.088C301.689 40.088 301.129 39.752 301.129 38.52V33.336H303.849V32.264H301.113V30.472H299.881V32.264H298.601V33.336H299.881V38.568C299.881 40.632 300.905 41.192 302.537 41.192ZM308.645 41.192C309.237 41.192 310.053 41.032 310.501 40.872L310.277 39.832C309.909 39.96 309.285 40.088 308.805 40.088C307.797 40.088 307.237 39.752 307.237 38.52V33.336H309.957V32.264H307.221V30.472H305.989V32.264H304.709V33.336H305.989V38.568C305.989 40.632 307.013 41.192 308.645 41.192ZM315.169 41.192C317.457 41.192 319.153 39.736 319.153 36.584C319.153 33.704 317.825 32.04 315.345 32.04C312.913 32.04 311.281 33.704 311.281 36.728C311.281 39.592 312.769 41.192 315.169 41.192ZM315.249 40.152C313.201 40.152 312.561 38.456 312.561 36.664C312.561 35 313.105 33.08 315.249 33.08C317.393 33.08 317.873 35.016 317.873 36.664C317.873 38.376 317.361 40.152 315.249 40.152ZM321.073 41H322.337V34.232C323.121 33.688 324.017 33.16 325.137 33.16C326.625 33.16 326.865 34.104 326.865 35.608V41H328.097V35.368C328.097 33.896 327.937 32.04 325.457 32.04C324.097 32.04 323.249 32.584 322.337 33.256V32.264H321.073V41Z" fill="white"/>
<path d="M121.983 97H123.099L124.803 94.312L126.483 97H127.623L125.343 93.628L127.455 90.448H126.399L124.803 92.98L123.219 90.448H122.115L124.263 93.652L121.983 97ZM133.787 97V96.172H129.527C131.495 94.372 133.259 92.644 133.259 90.808C133.259 89.704 132.863 88.42 130.823 88.42C129.635 88.42 128.951 88.84 128.591 89.08L128.963 89.764C129.167 89.644 129.779 89.26 130.739 89.26C131.735 89.26 132.299 89.644 132.299 90.916C132.299 92.764 128.591 95.92 128.303 96.22V97H133.787Z" fill="black"/>
<rect x="136" y="64" width="8" height="1" transform="rotate(90 136 64)" fill="#DB00FF" fill-opacity="0.25"/>
<rect x="136" y="72" width="1" height="16" transform="rotate(90 136 72)" fill="#DB00FF" fill-opacity="0.25"/>
<rect x="121" y="64" width="8" height="1" transform="rotate(90 121 64)" fill="#DB00FF" fill-opacity="0.25"/>
<rect x="128.5" y="73" width="7" height="1" transform="rotate(90 128.5 73)" fill="#DB00FF" fill-opacity="0.25"/>
<path d="M238.688 96.9248H239.804L241.508 94.2368L243.188 96.9248H244.328L242.048 93.5528L244.16 90.3728H243.104L241.508 92.9048L239.924 90.3728H238.82L240.968 93.5768L238.688 96.9248ZM249.844 94.7048C249.844 93.3968 248.776 92.6408 247.876 92.4128C248.536 92.2208 249.448 91.4768 249.448 90.3248C249.448 89.0168 248.5 88.3448 247.12 88.3448C246.304 88.3448 245.716 88.5608 245.344 88.7288L245.632 89.4248C245.632 89.4248 246.256 89.1608 247.072 89.1608C247.84 89.1608 248.536 89.4488 248.536 90.4088C248.536 91.3448 247.624 92.0288 246.58 92.1128V92.9048C247.924 92.9888 248.908 93.6128 248.908 94.7168C248.908 96.0128 247.948 96.1808 246.988 96.1808C246.148 96.1808 245.464 95.9888 245.164 95.8928L244.936 96.6848C244.936 96.6848 245.692 97.0328 247.108 97.0328C248.644 97.0328 249.844 96.4688 249.844 94.7048Z" fill="black"/>
<rect x="256" y="64" width="8" height="1" transform="rotate(90 256 64)" fill="#DB00FF" fill-opacity="0.25"/>
<rect x="256" y="72" width="1" height="24" transform="rotate(90 256 72)" fill="#DB00FF" fill-opacity="0.25"/>
<rect x="233" y="64" width="8" height="1" transform="rotate(90 233 64)" fill="#DB00FF" fill-opacity="0.25"/>
<rect x="244.5" y="73" width="7" height="1" transform="rotate(90 244.5 73)" fill="#DB00FF" fill-opacity="0.25"/>
</svg>
