<svg width="400" height="128" viewBox="0 0 400 128" fill="none" xmlns="http://www.w3.org/2000/svg">
<rect width="400" height="128" fill="white"/>
<rect x="152" y="16" width="96" height="40" rx="20" fill="#008484"/>
<path d="M176.696 41H180.264C183.176 41 184.264 39.656 184.264 37.784C184.264 36.104 183.064 35.256 181.88 35.048V35C182.824 34.664 183.448 33.752 183.448 32.536C183.448 30.888 182.344 29.688 179.784 29.688H176.696V41ZM178.008 39.912V35.72H179.784C181.704 35.72 182.92 36.296 182.92 37.832C182.92 39.56 181.592 39.912 180.024 39.912H178.008ZM178.008 34.664V30.712H179.448C181.144 30.712 182.104 31.208 182.104 32.744C182.104 33.976 181.4 34.664 179.96 34.664H178.008ZM188.761 41.192C190.233 41.192 191.097 40.568 191.929 39.976V41H193.145V32.264H191.929V38.952C191.257 39.432 190.233 40.04 189.113 40.04C187.545 40.04 187.433 38.952 187.433 37.576V32.264H186.185V37.832C186.185 39.304 186.361 41.192 188.761 41.192ZM198.537 41.192C199.129 41.192 199.945 41.032 200.393 40.872L200.169 39.832C199.801 39.96 199.177 40.088 198.697 40.088C197.689 40.088 197.129 39.752 197.129 38.52V33.336H199.849V32.264H197.113V30.472H195.881V32.264H194.601V33.336H195.881V38.568C195.881 40.632 196.905 41.192 198.537 41.192ZM204.645 41.192C205.237 41.192 206.053 41.032 206.501 40.872L206.277 39.832C205.909 39.96 205.285 40.088 204.805 40.088C203.797 40.088 203.237 39.752 203.237 38.52V33.336H205.957V32.264H203.221V30.472H201.989V32.264H200.709V33.336H201.989V38.568C201.989 40.632 203.013 41.192 204.645 41.192ZM211.169 41.192C213.457 41.192 215.153 39.736 215.153 36.584C215.153 33.704 213.825 32.04 211.345 32.04C208.913 32.04 207.281 33.704 207.281 36.728C207.281 39.592 208.769 41.192 211.169 41.192ZM211.249 40.152C209.201 40.152 208.561 38.456 208.561 36.664C208.561 35 209.105 33.08 211.249 33.08C213.393 33.08 213.873 35.016 213.873 36.664C213.873 38.376 213.361 40.152 211.249 40.152ZM217.073 41H218.337V34.232C219.121 33.688 220.017 33.16 221.137 33.16C222.625 33.16 222.865 34.104 222.865 35.608V41H224.097V35.368C224.097 33.896 223.937 32.04 221.457 32.04C220.097 32.04 219.249 32.584 218.337 33.256V32.264H217.073V41Z" fill="white"/>
<rect x="152" y="72" width="96" height="40" rx="20" fill="#008484"/>
<path d="M176.696 97H180.264C183.176 97 184.264 95.656 184.264 93.784C184.264 92.104 183.064 91.256 181.88 91.048V91C182.824 90.664 183.448 89.752 183.448 88.536C183.448 86.888 182.344 85.688 179.784 85.688H176.696V97ZM178.008 95.912V91.72H179.784C181.704 91.72 182.92 92.296 182.92 93.832C182.92 95.56 181.592 95.912 180.024 95.912H178.008ZM178.008 90.664V86.712H179.448C181.144 86.712 182.104 87.208 182.104 88.744C182.104 89.976 181.4 90.664 179.96 90.664H178.008ZM188.761 97.192C190.233 97.192 191.097 96.568 191.929 95.976V97H193.145V88.264H191.929V94.952C191.257 95.432 190.233 96.04 189.113 96.04C187.545 96.04 187.433 94.952 187.433 93.576V88.264H186.185V93.832C186.185 95.304 186.361 97.192 188.761 97.192ZM198.537 97.192C199.129 97.192 199.945 97.032 200.393 96.872L200.169 95.832C199.801 95.96 199.177 96.088 198.697 96.088C197.689 96.088 197.129 95.752 197.129 94.52V89.336H199.849V88.264H197.113V86.472H195.881V88.264H194.601V89.336H195.881V94.568C195.881 96.632 196.905 97.192 198.537 97.192ZM204.645 97.192C205.237 97.192 206.053 97.032 206.501 96.872L206.277 95.832C205.909 95.96 205.285 96.088 204.805 96.088C203.797 96.088 203.237 95.752 203.237 94.52V89.336H205.957V88.264H203.221V86.472H201.989V88.264H200.709V89.336H201.989V94.568C201.989 96.632 203.013 97.192 204.645 97.192ZM211.169 97.192C213.457 97.192 215.153 95.736 215.153 92.584C215.153 89.704 213.825 88.04 211.345 88.04C208.913 88.04 207.281 89.704 207.281 92.728C207.281 95.592 208.769 97.192 211.169 97.192ZM211.249 96.152C209.201 96.152 208.561 94.456 208.561 92.664C208.561 91 209.105 89.08 211.249 89.08C213.393 89.08 213.873 91.016 213.873 92.664C213.873 94.376 213.361 96.152 211.249 96.152ZM217.073 97H218.337V90.232C219.121 89.688 220.017 89.16 221.137 89.16C222.625 89.16 222.865 90.104 222.865 91.608V97H224.097V91.368C224.097 89.896 223.937 88.04 221.457 88.04C220.097 88.04 219.249 88.584 218.337 89.256V88.264H217.073V97Z" fill="white"/>
</svg>
