<svg xmlns="http://www.w3.org/2000/svg" width="16" height="16" fill="none" viewBox="0 0 16 16"><path fill="#000" d="M3.097 4V2.65c0-.967.783-1.75 1.75-1.75h5.176a1.75 1.75 0 0 1 1.336.619l2.638 3.12c.268.315.414.716.414 1.13v7.582a1.75 1.75 0 0 1-1.75 1.75H4.847a1.75 1.75 0 0 1-1.75-1.75V13a.75.75 0 0 1 1.5 0v.352c0 .138.112.25.25.25h7.814a.25.25 0 0 0 .25-.25V5.77a.252.252 0 0 0-.06-.162L10.213 2.49a.25.25 0 0 0-.19-.09H4.847a.25.25 0 0 0-.25.25V4a.75.75 0 1 1-1.5 0Z"/><path fill="#000" d="M5.865 9.746V7.989c0-1.178-.76-1.834-2.128-1.834-1.007 0-1.681.38-1.985 1.112l1.045.532a.898.898 0 0 1 .864-.59c.504 0 .817.276.817.723v.076l-1.111.17C2.141 8.369 1.6 8.835 1.6 9.69c0 .845.636 1.406 1.615 1.406.636 0 1.14-.257 1.406-.675.123.428.465.675.969.675.228 0 .475-.038.598-.095l.02-.902c-.238 0-.343-.105-.343-.352Zm-2.384.38c-.314 0-.57-.218-.57-.494 0-.351.247-.551.798-.636l.77-.124c0 .779-.371 1.254-.998 1.254Z"/></svg>