<svg xmlns="http://www.w3.org/2000/svg" width="24" height="24" fill="none" viewBox="0 0 24 24"><path stroke="#000" stroke-linecap="round" stroke-linejoin="round" stroke-width="1.5" d="m10 11.44 8.569.001c1.17-.001 2.293.555 3.123 1.547.83.992 1.301 2.34 1.308 3.747 0 .468-.154.917-.43 1.248-.275.331-.648.517-1.037.517H20m-1.431-7.059S16.369 3.5 10.502 3.5c-.167 0-.334.005-.502.014m0 7.926V3.514m0 7.926H1.718m5.985 7.31a2 2 0 1 0-3.969-.5 2 2 0 0 0 3.969.5ZM10 3.514c-3.361.186-6.809 2.28-8.282 7.926-.39 1.493-.641 3.235-.717 5.255a2.05 2.05 0 0 0 .091.684c.068.219.173.418.307.587.134.168.295.303.473.394.178.092.37.14.564.14h1.282m12.297.25a2 2 0 1 1 3.969-.5 2 2 0 0 1-3.969.5Zm-8.312 0h8.313"/></svg>