<svg xmlns="http://www.w3.org/2000/svg" width="16" height="16" fill="none" viewBox="0 0 16 16"><path stroke="#000" stroke-linecap="round" stroke-linejoin="round" stroke-width="1.5" d="M1.933 12.666a.933.933 0 0 0 1.867 0v-.933m-1.867.933v-.933m0 .933v-.933m1.867 0h10.267a.933.933 0 0 0 .933-.934V8.466a1.126 1.126 0 0 0-.33-.795l-1.537-1.535m.934 5.597v.933a.933.933 0 0 1-1.867 0v-.933m-9.333-5.6 10.266.003M2.867 6.133 1.933 5.2H1m.933 6.533A.933.933 0 0 1 1 10.8V8.466a1.127 1.127 0 0 1 .33-.796l1.537-1.537m0 0 1.072-2.859A1.348 1.348 0 0 1 5.2 2.4h5.6a1.348 1.348 0 0 1 1.261.874l1.072 2.862m-11.2 5.597H3.8m9.333-5.597.934-.936H15m-2.874 3.634-.08-.159a.467.467 0 0 1 .418-.676h2.434M1.101 8h2.435a.467.467 0 0 1 .417.676l-.08.16M3.536 8H1.1"/></svg>