<svg xmlns="http://www.w3.org/2000/svg" width="16" height="16" fill="none" viewBox="0 0 16 16"><path stroke="#000" stroke-linecap="round" stroke-linejoin="round" stroke-width="1.5" d="M1 3.24v9.508M1 3.24c0 .878 2.137 1.59 4.773 1.59 2.636 0 4.773-.712 4.773-1.59M1 3.24c0-.878 2.137-1.59 4.773-1.59 2.636 0 4.773.712 4.773 1.59M1 3.24v3.144m0 6.364c0 .9 2.137 1.63 4.773 1.63h.67M1 12.747V9.566m9.546-6.325v4.753m0-4.753v3.143M1 9.566c0 .842 1.873 1.536 4.275 1.62h.18M1 9.567V6.384m0 0c0 .9 2.137 1.63 4.773 1.63 2.636 0 4.773-.73 4.773-1.63m0 0v1.61m0 0v.818M5.455 10.4c0-.879 2.136-1.591 4.772-1.591.107 0 .213.001.319.003M5.455 10.4c0 .9 2.136 1.63 4.772 1.63S15 11.3 15 10.4m-9.545 0v.787M15 10.4v2.984c0 .9-2.137 1.63-4.773 1.63-1.54 0-2.91-.25-3.784-.637M15 10.4c0-.843-1.967-1.533-4.454-1.588m-5.091 2.375v2.197c0 .374.368.718.988.993"/></svg>