<svg xmlns="http://www.w3.org/2000/svg" width="16" height="16" fill="none" viewBox="0 0 16 16"><path fill="#000" d="M10.632 7.607a.75.75 0 0 0 1.5 0h-1.5Zm-8.688 8.3a.75.75 0 0 0 0-1.5v1.5Zm1.911-13.94.53.53-.53-.53Zm3.594 8.336-.208-.72.208.72Zm0 4.36-.208.72.208-.72ZM10 11.733a.75.75 0 0 0 0 1.5v-1.5Zm2 1.5a.75.75 0 1 0 0-1.5v1.5Zm-1.562-5.82c.107 0 .194.087.194.194h1.5c0-.936-.758-1.694-1.694-1.694v1.5Zm-8.494 6.994a.194.194 0 0 1-.194-.194H.25c0 .936.758 1.694 1.694 1.694v-1.5Zm-.194-.194V7.607H.25v6.606h1.5Zm0-6.606c0-.107.087-.194.194-.194v-1.5C1.008 5.913.25 6.67.25 7.607h1.5Zm1.888-3.304c0-.677.269-1.326.748-1.805l-1.061-1.06a4.053 4.053 0 0 0-1.187 2.865h1.5Zm.748-1.805A2.553 2.553 0 0 1 6.19 1.75V.25a4.053 4.053 0 0 0-2.866 1.187l1.06 1.06ZM6.19 1.75c.677 0 1.327.269 1.806.748l1.06-1.06A4.053 4.053 0 0 0 6.191.25v1.5Zm1.806.748c.478.479.747 1.128.747 1.805h1.5a4.053 4.053 0 0 0-1.187-2.866l-1.06 1.06Zm1.497 4.915h.944v-1.5h-.944v1.5Zm-.75-3.11v2.36h1.5v-2.36h-1.5Zm-6.8 3.11h.944v-1.5h-.944v1.5Zm.944 0h6.606v-1.5H2.888v1.5Zm.75-.75v-2.36h-1.5v2.36h1.5Zm10.612 5.82c0 .258-.229.693-1.06 1.109-.786.393-1.925.658-3.224.658v1.5c1.482 0 2.86-.299 3.895-.816.99-.496 1.889-1.319 1.889-2.45h-1.5Zm-4.284-1.767c1.3 0 2.438.265 3.224.658.831.416 1.06.851 1.06 1.11h1.5c0-1.133-.898-1.956-1.889-2.451-1.035-.518-2.414-.817-3.895-.817v1.5Zm-4.283 1.767c0-.173.091-.418.429-.704.337-.286.861-.558 1.546-.755L7.24 9.582c-.82.237-1.554.59-2.1 1.052-.544.462-.958 1.09-.958 1.848h1.5Zm1.975-1.46a8.4 8.4 0 0 1 2.308-.307v-1.5c-.981 0-1.912.131-2.725.367l.417 1.44Zm2.308 3.227a8.4 8.4 0 0 1-2.308-.307l-.417 1.44a9.899 9.899 0 0 0 2.725.367v-1.5Zm-2.308-.307c-.685-.198-1.209-.47-1.546-.756-.338-.286-.43-.531-.43-.704h-1.5c0 .759.415 1.387.96 1.848.545.463 1.279.816 2.099 1.053l.417-1.441Zm-.895-3.337c.261.59.645 2.234-.004 3.764l1.38.586C9 12.927 8.503 10.834 8.134 10l-1.372.606ZM10 13.233h2v-1.5h-2v1.5Z"/></svg>