<svg xmlns="http://www.w3.org/2000/svg" width="16" height="16" fill="none" viewBox="0 0 16 16"><path fill="#000" d="M3.106 3v-.35c0-.967.784-1.75 1.75-1.75h5.176a1.75 1.75 0 0 1 1.336.619l2.639 3.12c.267.315.414.716.414 1.13v7.582a1.75 1.75 0 0 1-1.75 1.75H4.856a1.75 1.75 0 0 1-1.75-1.75V13a.75.75 0 0 1 1.5 0v.352c0 .138.112.25.25.25h7.815a.25.25 0 0 0 .25-.25V5.77a.252.252 0 0 0-.06-.162L10.222 2.49a.25.25 0 0 0-.19-.09H4.856a.25.25 0 0 0-.25.25V3a.75.75 0 1 1-1.5 0Z"/><path fill="#000" d="M5.229 4.35v2.394c-.342-.39-.827-.589-1.397-.589-1.254 0-2.232 1.083-2.232 2.47 0 1.387.978 2.47 2.232 2.47.656 0 1.197-.266 1.549-.788V11h1.235V4.35H5.229ZM4.06 9.993c-.646 0-1.073-.55-1.073-1.368 0-.817.427-1.368 1.073-1.368.703 0 1.169.551 1.169 1.368 0 .817-.466 1.368-1.169 1.368Z"/></svg>