<svg xmlns="http://www.w3.org/2000/svg" width="24" height="24" fill="none" viewBox="0 0 24 24"><path stroke="#000" stroke-linecap="round" stroke-width="1.5" d="M4.084 8.913C3.614 15.808 4.95 23 12.53 23s8.886-7.192 8.37-14.087m-16.816 0c.095-1.396.309-4.701.52-6.297a.82.82 0 0 1 .596-.681C6.545 1.55 9.262 1 12.53 1c3.264 0 5.912.549 7.213.933.316.093.54.354.585.67.218 1.549.455 4.734.564 6.194l.009.116m-16.817 0c1.124.278 4.522.832 8.534.832 4.011 0 7.193-.554 8.283-.832M9.668 5.583h5.667"/></svg>