<svg xmlns="http://www.w3.org/2000/svg" width="24" height="24" fill="none" viewBox="0 0 24 24"><path stroke="#000" stroke-linecap="round" stroke-linejoin="round" stroke-width="1.5" d="M.75 23.25h1.5m21 0h-1.5m-3-22.5h4.5v4.5m0-4.5L18.2 5.8a2.249 2.249 0 0 1-2.237.564l-5.709-1.526a2.251 2.251 0 0 0-2.172.583L2.25 11.253m0 11.997h4.5m-4.5 0V20m4.5 3.25h3m-3 0v-.75m3 .75h4.5m-4.5 0V20m4.5 3.25h3m-3 0V10.5a.75.75 0 0 0-.75-.75h-3a.75.75 0 0 0-.75.75V13m7.5 10.25h4.5m-4.5 0V11.5a.75.75 0 0 1 .75-.75h3a.75.75 0 0 1 .75.75v11.75M1 16.5h7.5M6 14l2.5 2.5L6 19"/></svg>