<svg xmlns="http://www.w3.org/2000/svg" width="24" height="24" fill="none" viewBox="0 0 24 24"><path stroke="#000" stroke-linecap="round" stroke-linejoin="round" stroke-width="1.5" d="M21.95 17.253A11.248 11.248 0 0 1 12 23.25c-2.646 0-5.079-.914-7-2.442A11.23 11.23 0 0 1 .75 12c0-.77.077-1.523.225-2.25m0 0C2.017 4.615 6.557.75 12 .75a11.23 11.23 0 0 1 9 4.5M.976 9.75H6.33c.68 0 1.29.476 1.455 1.136l.75 3c.233.93-.496 1.864-1.455 1.864H6l-1 5.058M21 5.25A11.2 11.2 0 0 1 23.25 12a11.2 11.2 0 0 1-1.3 5.253M21 5.25h-4.079c-.68 0-1.29.476-1.455 1.136l-.75 3c-.233.93.496 1.864 1.455 1.864h1.579l.791 4.75c.12.714.756 1.253 1.48 1.253h1.93"/></svg>