<svg xmlns="http://www.w3.org/2000/svg" width="16" height="16" fill="none" viewBox="0 0 16 16"><path stroke="#000" stroke-linecap="round" stroke-linejoin="round" stroke-width="1.5" d="M8.13 8.263A4.196 4.196 0 0 0 1 11.264m8.894 1.372a.233.233 0 0 0 .33-.33m0 0a.233.233 0 0 0-.165-.068m.165.068-.33.33m.33-.33v.33m0-.33-.276.37.075-.37.201.165m0-.165-.165-.068m.165.398-.165-.398m-.165.398a.233.233 0 0 1 0-.33m0 .33v-.33m0 0a.233.233 0 0 1 .165-.068M5.2 6.132A2.566 2.566 0 1 0 5.2 1a2.566 2.566 0 0 0 0 5.133Zm7.21 5.418 2.295-2.294a1.012 1.012 0 1 0-1.431-1.43L10.98 10.12a2.527 2.527 0 1 0 1.431 1.431l-.002-.002Z"/></svg>