<svg xmlns="http://www.w3.org/2000/svg" width="16" height="16" fill="none" viewBox="0 0 16 16"><path stroke="#000" stroke-linecap="round" stroke-linejoin="round" stroke-width="1.5" d="M1 12.373A4.39 4.39 0 0 1 5.833 8.01M2.427 2.32a4.45 4.45 0 0 0 4.966.998M6.833 15a4.16 4.16 0 0 1 1.691-3.352 4.06 4.06 0 0 1 2.476-.79m-1.346.202a4.05 4.05 0 0 1 3.674.588A4.16 4.16 0 0 1 15.018 15m-1.807-8.748c-.935.639-1.99.87-3.092.633-.554-.118-1.057-.299-1.52-.63m-1.18-2.574a2.68 2.68 0 1 1-5.362 0 2.68 2.68 0 0 1 5.362 0m5.995 3.073c0 1.399-1.12 2.532-2.502 2.532S8.409 8.153 8.409 6.754c0-1.398 1.12-2.532 2.502-2.532s2.502 1.134 2.502 2.532"/></svg>