<svg xmlns="http://www.w3.org/2000/svg" width="24" height="24" fill="none" viewBox="0 0 24 24"><g fill="#000" clip-path="url(#scan_medium_svg__a)"><path d="M2.25 4v3.5a.75.75 0 0 1-1.5 0V4c0-.837.291-1.627.764-2.219C1.984 1.194 2.683.75 3.5.75h4a.75.75 0 0 1 0 1.5h-4c-.25 0-.55.14-.814.469A2.08 2.08 0 0 0 2.25 4Zm13.5-2.5a.75.75 0 0 1 .75-.75H20c.837 0 1.627.291 2.218.764.588.47 1.032 1.169 1.032 1.986v4a.75.75 0 0 1-1.5 0v-4c0-.25-.14-.55-.468-.814A2.079 2.079 0 0 0 20 2.25h-3.5a.75.75 0 0 1-.75-.75ZM4 21.75h3.5a.75.75 0 0 1 0 1.5H4a3.578 3.578 0 0 1-2.219-.764C1.194 22.016.75 21.317.75 20.5v-4a.75.75 0 0 1 1.5 0v4c0 .25.14.55.469.814.325.26.785.436 1.281.436ZM21.75 20v-3.5a.75.75 0 0 1 1.5 0V20c0 .837-.291 1.627-.764 2.218-.47.588-1.169 1.032-1.986 1.032h-4a.75.75 0 0 1 0-1.5h4c.25 0 .55-.14.814-.468.26-.326.436-.786.436-1.282ZM6 11.25a.75.75 0 0 0 0 1.5h12a.75.75 0 0 0 0-1.5H6Z"/></g><defs><clipPath id="scan_medium_svg__a"><path fill="#fff" d="M0 0h24v24H0z"/></clipPath></defs></svg>