<svg xmlns="http://www.w3.org/2000/svg" width="16" height="16" fill="none" viewBox="0 0 16 16"><path fill="#000" d="M3.5 4v1.75a.75.75 0 0 1-1.5 0V4c0-.504.175-.981.464-1.344C2.751 2.298 3.2 2 3.75 2h2a.75.75 0 0 1 0 1.5H3.753c-.005.001-.051.01-.117.094A.665.665 0 0 0 3.5 4Zm6-1.25a.75.75 0 0 1 .75-.75H12c.504 0 .981.175 1.344.464.358.287.656.736.656 1.286v2a.75.75 0 0 1-1.5 0V3.753c-.001-.005-.01-.051-.094-.117A.665.665 0 0 0 12 3.5h-1.75a.75.75 0 0 1-.75-.75ZM4 12.5h1.75a.75.75 0 0 1 0 1.5H4a2.17 2.17 0 0 1-1.344-.464C2.298 13.249 2 12.8 2 12.25v-2a.75.75 0 0 1 1.5 0v1.997c.001.005.01.051.094.117A.664.664 0 0 0 4 12.5Zm8.5-.5v-1.75a.75.75 0 0 1 1.5 0V12c0 .504-.175.981-.464 1.344-.287.358-.736.656-1.286.656h-2a.75.75 0 0 1 0-1.5h1.997c.005-.001.051-.01.117-.094A.665.665 0 0 0 12.5 12ZM6 7.25a.75.75 0 0 0 0 1.5h4a.75.75 0 0 0 0-1.5H6Z"/></svg>