<svg xmlns="http://www.w3.org/2000/svg" width="16" height="16" fill="none" viewBox="0 0 16 16"><path fill="#000" d="M4.818 11.22a.75.75 0 0 0 0-1.5v1.5Zm8.16-4.316a.75.75 0 0 0 1.5 0h-1.5Zm-8.16 2.817H2.273v1.5h2.545v-1.5ZM1.75 9.059V3.412H.25v5.647h1.5Zm.523-6.309h10.181v-1.5H2.274v1.5Zm10.704.662v3.492h1.5V3.412h-1.5Zm-.523-.662c.218 0 .523.221.523.662h1.5c0-1.12-.834-2.162-2.023-2.162v1.5ZM1.75 3.412c0-.44.305-.662.523-.662v-1.5C1.084 1.25.25 2.293.25 3.412h1.5Zm.523 6.309c-.218 0-.523-.222-.523-.662H.25c0 1.119.834 2.162 2.023 2.162v-1.5Zm5.204 1.456c0 .05-.012.043.023-.036.031-.07.086-.169.171-.288.17-.239.43-.52.761-.788.672-.544 1.544-.962 2.432-.962v-1.5c-1.34 0-2.536.617-3.376 1.296A5.664 5.664 0 0 0 6.45 9.982c-.13.181-.24.369-.323.555-.078.178-.15.4-.15.64h1.5Zm3.387-2.074c.887 0 1.76.418 2.431.962.332.269.591.55.761.788.085.12.14.217.171.288.035.08.023.086.023.036h1.5a1.61 1.61 0 0 0-.15-.64 3.17 3.17 0 0 0-.322-.555A5.663 5.663 0 0 0 14.239 8.9c-.84-.68-2.035-1.296-3.375-1.296v1.5Zm3.386 2.074c0-.053 0 .057-.19.33a4.022 4.022 0 0 1-.744.783c-.659.54-1.53.96-2.452.96v1.5c1.369 0 2.565-.614 3.402-1.299a5.515 5.515 0 0 0 1.025-1.087c.228-.327.459-.759.459-1.188h-1.5Zm-3.386 2.073c-.922 0-1.794-.42-2.453-.96a4.023 4.023 0 0 1-.744-.783c-.19-.273-.19-.383-.19-.33h-1.5c0 .428.231.86.459 1.187.252.362.604.742 1.025 1.087.837.685 2.034 1.299 3.403 1.299v-1.5ZM3.532 5.983a.448.448 0 0 1 .332-.145c.135 0 .255.06.332.145L3.082 6.987a1.046 1.046 0 0 0 1.564 0L3.532 5.983Zm0 .505a.378.378 0 0 1-.1-.253c0-.077.026-.17.1-.252l1.114 1.004a1.13 1.13 0 0 0 0-1.503L3.532 6.488Zm.664 0a.448.448 0 0 1-.332.144.448.448 0 0 1-.332-.144l1.114-1.004a1.046 1.046 0 0 0-1.564 0l1.114 1.004ZM3.082 5.484a1.13 1.13 0 0 0 0 1.503l1.114-1.004a.38.38 0 0 1 .1.252.378.378 0 0 1-.1.253L3.082 5.484Zm3.95.499a.448.448 0 0 1 .332-.145c.135 0 .255.06.332.145L6.582 6.987a1.046 1.046 0 0 0 1.564 0L7.032 5.983Zm0 .505a.378.378 0 0 1-.1-.253c0-.077.026-.17.1-.252l1.114 1.004a1.13 1.13 0 0 0 0-1.503L7.032 6.488Zm.664 0a.448.448 0 0 1-.332.144.448.448 0 0 1-.332-.144l1.114-1.004a1.046 1.046 0 0 0-1.564 0l1.114 1.004ZM6.582 5.484a1.13 1.13 0 0 0 0 1.503l1.114-1.004a.38.38 0 0 1 .1.252.378.378 0 0 1-.1.253L6.582 5.484Zm1.395-.034-1.145.036.046 1.499 1.145-.035-.046-1.5Zm2.873.533a.448.448 0 0 1 .332-.145c.135 0 .255.06.332.145L10.4 6.987a1.046 1.046 0 0 0 1.564 0L10.85 5.983Zm0 .505a.378.378 0 0 1-.1-.253c0-.077.026-.17.1-.252l1.114 1.004a1.13 1.13 0 0 0 0-1.503L10.85 6.488Zm.664 0a.448.448 0 0 1-.332.144.448.448 0 0 1-.332-.144l1.114-1.004a1.046 1.046 0 0 0-1.564 0l1.114 1.004ZM10.4 5.484a1.13 1.13 0 0 0 0 1.503l1.114-1.004a.38.38 0 0 1 .1.252.378.378 0 0 1-.1.253L10.4 5.484Zm1.26.001h-.934v1.5h.935v-1.5Zm-1.128 5.439a.448.448 0 0 1 .332-.145c.135 0 .255.06.332.145l-1.114 1.004a1.046 1.046 0 0 0 1.564 0l-1.114-1.004Zm0 .505a.378.378 0 0 1-.1-.252c0-.078.026-.172.1-.253l1.114 1.004a1.13 1.13 0 0 0 0-1.503l-1.114 1.004Zm.664 0a.448.448 0 0 1-.332.144.448.448 0 0 1-.332-.144l1.114-1.004a1.046 1.046 0 0 0-1.564 0l1.114 1.004Zm-1.114-1.004a1.13 1.13 0 0 0 0 1.503l1.114-1.004a.38.38 0 0 1 .1.253.378.378 0 0 1-.1.252l-1.114-1.004Zm1.243.002h-.931v1.5h.931v-1.5ZM4.182 6.985h.287v-1.5h-.287v1.5Zm.287-1.5H3.324v1.5H4.47v-1.5Z"/></svg>