<svg xmlns="http://www.w3.org/2000/svg" width="24" height="24" fill="none" viewBox="0 0 24 24"><path fill="#000" d="M1.5.75a.75.75 0 0 0-1.5 0h1.5Zm-.75 22.5H0c0 .414.336.75.75.75v-.75Zm22.5.75a.75.75 0 0 0 0-1.5V24ZM4.416 14.307v-.75a.75.75 0 0 0-.581.276l.58.474Zm2.448 0v.75a.75.75 0 0 0 .622-.332l-.622-.418Zm1.248-1.859.212-.72a.75.75 0 0 0-.834.302l.622.418Zm1.78.523.659-.359a.75.75 0 0 0-.448-.36l-.211.719Zm1.937 3.56-.659.358a.75.75 0 0 0 1.364-.101l-.705-.257Zm.78-2.135-.348-.665a.75.75 0 0 0-.357.408l.704.257Zm1.107-.578.347.665a.75.75 0 0 0 .364-.427l-.711-.238Zm4.345-3.172-.732.163a.75.75 0 0 0 .581.572l.15-.735Zm1.043.214.706-.252a.75.75 0 0 0-.555-.483l-.151.735Zm1.096 3.072-.707.252a.75.75 0 0 0 1.38.08l-.673-.332Zm3.722-5.85a.75.75 0 1 0-1.345-.664l1.345.664ZM4.416 15.057h2.448v-1.5H4.416v1.5Zm3.07-.332 1.249-1.859-1.245-.836-1.249 1.859 1.245.836Zm.415-1.557 1.78.522.422-1.439-1.78-.522-.422 1.439Zm1.332.161 1.937 3.56 1.318-.717-1.937-3.56-1.318.717Zm3.3 3.459.78-2.135-1.409-.514-.78 2.134 1.41.515Zm.423-1.727 1.107-.578-.695-1.33-1.107.578.695 1.33Zm4.954-3.68 1.043.214.302-1.47-1.043-.214-.302 1.47Zm.488-.269 1.095 3.072 1.413-.504-1.096-3.072-1.412.504Zm2.474 3.152 3.05-6.182-1.345-.664-3.05 6.182 1.345.664ZM17.5 3.25a.75.75 0 0 1-.75.75v1.5A2.25 2.25 0 0 0 19 3.25h-1.5Zm-.75.75a.75.75 0 0 1-.75-.75h-1.5a2.25 2.25 0 0 0 2.25 2.25V4ZM16 3.25a.75.75 0 0 1 .75-.75V1a2.25 2.25 0 0 0-2.25 2.25H16Zm.75-.75a.75.75 0 0 1 .75.75H19A2.25 2.25 0 0 0 16.75 1v1.5ZM0 .75v18.043h1.5V.75H0Zm0 18.043v4.457h1.5v-4.457H0Zm1.33.474 3.666-4.485-1.161-.95-3.666 4.486 1.162.95ZM.75 24h16v-1.5h-16V24Zm16 0h6.5v-1.5h-6.5V24ZM16 4.75v18.5h1.5V4.75H16Zm-1.573 9.306 3.034-9.068-1.422-.476-3.035 9.068 1.423.476Zm4.366-3.573-1.311-5.896-1.464.326 1.31 5.896 1.465-.326Z"/></svg>