<svg width="24" height="24" viewBox="0 0 24 24" fill="none" xmlns="http://www.w3.org/2000/svg"><path d="M11.25 21a.75.75 0 001.5 0h-1.5zM12 9l.506-.554a.75.75 0 00-1.036.024L12 9zm-4.53 3.47a.75.75 0 101.06 1.06l-1.06-1.06zm7.973 1.032a.75.75 0 101.115-1.004l-1.115 1.004zM2 2.75a.75.75 0 000 1.5v-1.5zm2 1.5a.75.75 0 000-1.5v1.5zm4-1.5a.75.75 0 000 1.5v-1.5zm2 1.5a.75.75 0 000-1.5v1.5zm4-1.5a.75.75 0 000 1.5v-1.5zm2 1.5a.75.75 0 000-1.5v1.5zm4-1.5a.75.75 0 000 1.5v-1.5zm2 1.5a.75.75 0 000-1.5v1.5zM12.75 21V9h-1.5v12h1.5zM11.47 8.47l-4 4 1.06 1.06 4-4-1.06-1.06zM12 9l-.506.554.002.001.004.004.018.017a20.855 20.855 0 01.347.322c.236.22.568.534.954.909a57.35 57.35 0 012.623 2.695l1.116-1.004a58.832 58.832 0 00-2.695-2.769 78.379 78.379 0 00-1.33-1.258l-.02-.018-.005-.005-.002-.001L12 9zM2 4.25h2v-1.5H2v1.5zm6 0h2v-1.5H8v1.5zm6 0h2v-1.5h-2v1.5zm6 0h2v-1.5h-2v1.5z" fill="#000"/></svg>