<svg width="24" height="24" viewBox="0 0 24 24" fill="none" xmlns="http://www.w3.org/2000/svg"><path d="M14.622 9.75l.449-.601A.75.75 0 0014.622 9v.75zm-5.994 0V9a.75.75 0 00-.449.149l.449.601zm2.997 13.5V24v-.75zM8.25 6.75a.75.75 0 100 1.5v-1.5zM15 8.25a.75.75 0 000-1.5v1.5zm1.5-7.5l.496.562a.75.75 0 00-.62-1.302l.124.74zm-9 1.5l-.123-.74a.75.75 0 00-.236 1.398L7.5 2.25zm1.5 3h-.75c0 .414.336.75.75.75v-.75zm4.875 0V6a.75.75 0 00.75-.75h-.75zM6.392 21.46a.75.75 0 10-.784 1.28l.784-1.28zM7 10.114a.75.75 0 001 1.119l-1-1.119zM1 15.75a.75.75 0 000 1.5v-1.5zm4.47 2.72a.75.75 0 001.06 1.06l-1.06-1.06zM8.5 16.5l.53.53a.75.75 0 000-1.06l-.53.53zm-1.97-3.03a.75.75 0 00-1.06 1.06l1.06-1.06zM14.622 9H8.628v1.5h5.994V9zm-2.997 15c3.022 0 5.207-.524 6.638-1.702 1.468-1.209 1.987-2.971 1.987-5.048h-1.5c0 1.84-.454 3.078-1.44 3.89-1.025.843-2.777 1.36-5.685 1.36V24zm8.625-6.75c0-1.63-.717-3.215-1.688-4.582-.977-1.376-2.256-2.597-3.491-3.52l-.897 1.203c1.135.847 2.295 1.96 3.165 3.185.875 1.233 1.411 2.514 1.411 3.714h1.5zm-12-9H15v-1.5H8.25v1.5zM16.377.01l-9 1.5.246 1.48 9-1.5-.246-1.48zM7.5 2.25l-.36.658-.002-.001-.002-.001-.003-.002.023.014a2.361 2.361 0 01.504.477c.284.361.59.951.59 1.855h1.5c0-1.278-.444-2.188-.91-2.782a3.86 3.86 0 00-.641-.645 3.057 3.057 0 00-.333-.228l-.004-.002h-.001l-.001-.001-.36.658zM9 6h4.875V4.5H9V6zm5.625-.75c0-.828.518-1.782 1.157-2.61a11.01 11.01 0 011.211-1.325l.004-.003L16.5.75l-.497-.562-.001.001L16 .191l-.008.007a4.368 4.368 0 00-.12.11 12.514 12.514 0 00-1.28 1.416c-.673.876-1.467 2.172-1.467 3.526h1.5zM5.608 22.74C7.02 23.604 9.004 24 11.625 24v-1.5c-2.51 0-4.167-.386-5.233-1.04l-.784 1.28zM8.179 9.148c-.393.294-.79.617-1.179.964l1 1.119c.356-.318.718-.613 1.076-.881L8.18 9.149zM6.53 19.53l2.5-2.5-1.06-1.06-2.5 2.5 1.06 1.06zm2.5-3.56l-2.5-2.5-1.06 1.06 2.5 2.5 1.06-1.06zM1 17.25h7.5v-1.5H1v1.5zM15.45 14.91c-.576 0-1.071.306-1.323.774V15h-1.17v4.5h1.314v-2.457c0-.657.387-1 1.152-1 .189 0 .36.019.495.046v-1.125a1.733 1.733 0 00-.468-.054zM11.221 16.119l1.018-1.12h-1.44c.24.4.381.913.422 1.12zM10.799 19.5h1.575l-1.401-1.81c-.012.054-.18.327-.755.986l.581.824z" fill="#000"/></svg>