<svg width="16" height="17" viewBox="0 0 16 17" fill="none" xmlns="http://www.w3.org/2000/svg">
<path d="M7.76492 6.6L8.21351 5.99895C8.08394 5.90225 7.92659 5.85 7.76492 5.85V6.6ZM4.03508 6.6V5.85C3.87341 5.85 3.71606 5.90225 3.58649 5.99895L4.03508 6.6ZM8.93333 1L9.42979 1.56217C9.68061 1.34066 9.75435 0.979789 9.61052 0.677645C9.4667 0.375501 9.14011 0.205192 8.81003 0.260205L8.93333 1ZM3.33333 1.93333L3.21003 1.19354C2.89446 1.24613 2.64699 1.49312 2.59378 1.80859C2.54057 2.12406 2.69333 2.43856 2.97419 2.59176L3.33333 1.93333ZM4.26667 3.8H3.51667C3.51667 4.21421 3.85245 4.55 4.26667 4.55V3.8ZM7.3 3.8V4.55C7.71421 4.55 8.05 4.21421 8.05 3.8H7.3ZM4.94915 15.7195C5.36241 15.7476 5.72019 15.4353 5.74827 15.022C5.77636 14.6088 5.46412 14.251 5.05085 14.2229L4.94915 15.7195ZM7.99784 7.76097C8.30551 8.0383 8.77975 8.01371 9.05708 7.70605C9.33441 7.39838 9.30982 6.92414 9.00216 6.64681L7.99784 7.76097ZM8.26142 14.8446C7.96852 15.1375 7.96852 15.6124 8.26142 15.9052C8.55431 16.1981 9.02919 16.1981 9.32208 15.9052L8.26142 14.8446ZM14.7387 10.4886C15.0316 10.1957 15.0316 9.72081 14.7387 9.42792C14.4459 9.13503 13.971 9.13503 13.6781 9.42792L14.7387 10.4886ZM7.76492 5.85H4.03508V7.35H7.76492V5.85ZM3.58649 5.99895C2.79894 6.58674 1.98085 7.36705 1.35285 8.25143C0.730523 9.12781 0.25 10.1707 0.25 11.2667H1.75C1.75 10.6012 2.04944 9.86123 2.57586 9.11989C3.09662 8.38655 3.79606 7.71426 4.48368 7.20105L3.58649 5.99895ZM8.81003 0.260205L3.21003 1.19354L3.45663 2.67313L9.05663 1.7398L8.81003 0.260205ZM3.33333 1.93333C2.97419 2.59176 2.97384 2.59156 2.97348 2.59137C2.97337 2.5913 2.97302 2.59111 2.97279 2.59099C2.97234 2.59074 2.9719 2.5905 2.97147 2.59026C2.97061 2.58979 2.96981 2.58934 2.96906 2.58892C2.96755 2.58808 2.96625 2.58735 2.96514 2.58672C2.96293 2.58547 2.96151 2.58463 2.96082 2.58422C2.95945 2.5834 2.96097 2.58427 2.96498 2.58688C2.97308 2.59213 2.99077 2.60411 3.01501 2.62321C3.06392 2.66174 3.1362 2.72668 3.21026 2.82094C3.35216 3.00154 3.51667 3.30827 3.51667 3.8H5.01667C5.01667 2.93415 4.71451 2.30755 4.38974 1.89421C4.23047 1.69151 4.06941 1.54432 3.94332 1.44497C3.88006 1.39513 3.82484 1.35673 3.78189 1.32884C3.76038 1.31488 3.74185 1.30348 3.72681 1.29454C3.71928 1.29007 3.71262 1.28621 3.70688 1.28295C3.70401 1.28131 3.70137 1.27983 3.69896 1.27849C3.69776 1.27782 3.69662 1.27719 3.69554 1.27659C3.695 1.27629 3.69447 1.27601 3.69396 1.27573C3.6937 1.27559 3.69333 1.27538 3.6932 1.27531C3.69284 1.27511 3.69247 1.27491 3.33333 1.93333ZM4.26667 4.55H7.3V3.05H4.26667V4.55ZM8.05 3.8C8.05 3.38457 8.32064 2.85533 8.71091 2.34848C8.89248 2.11268 9.07579 1.91252 9.2141 1.77121C9.28283 1.701 9.33936 1.64642 9.37755 1.61042C9.39662 1.59245 9.41104 1.57919 9.42002 1.57101C9.42451 1.56692 9.42764 1.56411 9.4293 1.56261C9.43013 1.56187 9.43059 1.56146 9.43068 1.56138C9.43072 1.56134 9.43067 1.56139 9.43052 1.56152C9.43045 1.56158 9.43035 1.56167 9.43023 1.56178C9.43017 1.56183 9.43006 1.56193 9.43003 1.56195C9.42991 1.56206 9.42979 1.56217 8.93333 1C8.43688 0.437835 8.43674 0.437954 8.4366 0.438078C8.43654 0.438127 8.4364 0.438257 8.43629 0.438355C8.43607 0.438551 8.43582 0.43877 8.43555 0.43901C8.435 0.439492 8.43436 0.440063 8.43362 0.440723C8.43214 0.442043 8.43026 0.443719 8.428 0.445744C8.42348 0.449794 8.41743 0.455247 8.40996 0.462054C8.39502 0.475663 8.37434 0.494717 8.34875 0.518838C8.29762 0.567028 8.22654 0.635747 8.14215 0.721969C7.97421 0.893537 7.74919 1.13884 7.52242 1.43334C7.09603 1.98709 6.55 2.85785 6.55 3.8H8.05ZM0.25 11.2667C0.25 12.4846 0.526564 13.5915 1.35038 14.41C2.16112 15.2156 3.37379 15.6124 4.94915 15.7195L5.05085 14.2229C3.63687 14.1268 2.84954 13.785 2.40762 13.346C1.97877 12.9199 1.75 12.2761 1.75 11.2667H0.25ZM9.00216 6.64681C8.7425 6.41275 8.47707 6.19565 8.21351 5.99895L7.31632 7.20105C7.54317 7.37036 7.77283 7.55814 7.99784 7.76097L9.00216 6.64681ZM9.32208 15.9052L14.7387 10.4886L13.6781 9.42792L8.26142 14.8446L9.32208 15.9052Z" fill="black"/>
<circle cx="13.3999" cy="14.5" r="1.5" fill="black"/>
<circle cx="9.6499" cy="10.8" r="1.5" fill="black"/>
</svg>
