<svg width="24" height="24" viewBox="0 0 24 24" fill="none" xmlns="http://www.w3.org/2000/svg"><path d="M8.25 7.5H15m-.378 2.25H8.628c-2.371 1.77-4.878 4.67-4.878 7.5 0 3.917 1.945 6 7.875 6s7.875-2.083 7.875-6c0-2.83-2.507-5.73-4.878-7.5zm1.878-9l-9 1.5s1.5.818 1.5 3h4.875c0-2.182 2.625-4.5 2.625-4.5z" stroke="#000" stroke-width="1.5" stroke-linecap="round" stroke-linejoin="round"/><path d="M10.799 19.5h1.575l-1.944-2.511 1.809-1.99h-1.611l-1.314 1.639V13.2H8v6.3h1.314v-1.287l.324-.36 1.161 1.647zm4.651-4.59c-.576 0-1.071.306-1.323.774V15h-1.17v4.5h1.314v-2.457c0-.657.387-1 1.152-1 .189 0 .36.019.495.046v-1.125a1.733 1.733 0 00-.468-.054z" fill="#000"/></svg>