<svg width="24" height="24" viewBox="0 0 24 24" fill="none" xmlns="http://www.w3.org/2000/svg"><path d="M14.622 9.75l.449-.601A.75.75 0 0014.622 9v.75zm-5.994 0V9a.75.75 0 00-.449.149l.449.601zm2.997 13.5V24v-.75zM8.25 6.75a.75.75 0 100 1.5v-1.5zM15 8.25a.75.75 0 000-1.5v1.5zm1.5-7.5l.496.562a.75.75 0 00-.62-1.302l.124.74zm-9 1.5l-.123-.74a.75.75 0 00-.236 1.398L7.5 2.25zm1.5 3h-.75c0 .414.336.75.75.75v-.75zm4.875 0V6a.75.75 0 00.75-.75h-.75zm2.567 7.168a.75.75 0 101.116-1l-1.116 1zm2.071 9.66a.75.75 0 10-1.026-1.094l1.026 1.094zM15.5 15.75a.75.75 0 000 1.5v-1.5zm4.47 2.72a.75.75 0 001.06 1.06l-1.06-1.06zM23 16.5l.53.53a.75.75 0 000-1.06l-.53.53zm-1.97-3.03a.75.75 0 00-1.06 1.06l1.06-1.06zM14.622 9H8.628v1.5h5.994V9zm-6.443.149c-1.235.922-2.514 2.143-3.49 3.519C3.716 14.035 3 15.619 3 17.25h1.5c0-1.2.536-2.481 1.411-3.714.87-1.224 2.03-2.338 3.165-3.185L8.18 9.149zM3 17.25c0 2.077.519 3.84 1.987 5.048C6.417 23.476 8.603 24 11.625 24v-1.5c-2.908 0-4.66-.517-5.685-1.36-.986-.812-1.44-2.05-1.44-3.89H3zm5.25-9H15v-1.5H8.25v1.5zM16.377.01l-9 1.5.246 1.48 9-1.5-.246-1.48zM7.5 2.25l-.36.658-.002-.001-.002-.001-.003-.002.023.014a2.361 2.361 0 01.504.477c.284.361.59.951.59 1.855h1.5c0-1.278-.444-2.188-.91-2.782a3.86 3.86 0 00-.641-.645 3.057 3.057 0 00-.333-.228l-.004-.002h-.001l-.001-.001-.36.658zM9 6h4.875V4.5H9V6zm5.625-.75c0-.828.518-1.782 1.157-2.61a11.01 11.01 0 011.211-1.325l.004-.003L16.5.75l-.497-.562-.001.001L16 .191l-.008.007a4.368 4.368 0 00-.12.11 12.514 12.514 0 00-1.28 1.416c-.673.876-1.467 2.172-1.467 3.526h1.5zm2.933 6.167a17.182 17.182 0 00-2.487-2.268l-.897 1.202a15.7 15.7 0 012.268 2.067l1.116-1zM11.625 24c3.2 0 5.468-.589 6.888-1.922l-1.026-1.094c-.995.934-2.776 1.516-5.862 1.516V24zm9.405-4.47l2.5-2.5-1.06-1.06-2.5 2.5 1.06 1.06zm2.5-3.56l-2.5-2.5-1.06 1.06 2.5 2.5 1.06-1.06zm-8.03 1.28H23v-1.5h-7.5v1.5zm-4.701 2.25h1.575l-1.944-2.511 1.809-1.99h-1.611l-1.314 1.639V13.2H8v6.3h1.314v-1.287l.324-.36 1.161 1.647zm2.158 0h1.314v-.54c-.983-.43-1.286-1.122-1.314-1.413V19.5z" fill="#000"/></svg>