<svg width="24" height="24" viewBox="0 0 24 24" fill="none" xmlns="http://www.w3.org/2000/svg"><path d="M11.25 17a.75.75 0 001.5 0h-1.5zm1.5-10a.75.75 0 00-1.5 0h1.5zM17 12.75a.75.75 0 000-1.5v1.5zm-10-1.5a.75.75 0 000 1.5v-1.5zm15.5.75c0 5.799-4.701 10.5-10.5 10.5V24c6.627 0 12-5.373 12-12h-1.5zM12 22.5C6.201 22.5 1.5 17.799 1.5 12H0c0 6.627 5.373 12 12 12v-1.5zM1.5 12C1.5 6.201 6.201 1.5 12 1.5V0C5.373 0 0 5.373 0 12h1.5zM12 1.5c5.799 0 10.5 4.701 10.5 10.5H24c0-6.627-5.373-12-12-12v1.5zm.75 15.5V7h-1.5v10h1.5zM17 11.25H7v1.5h10v-1.5z" fill="#000"/></svg>