<svg width="16" height="16" viewBox="0 0 16 16" fill="none" xmlns="http://www.w3.org/2000/svg"><path d="M7.25 11.111a.75.75 0 001.5 0h-1.5zm1.5-6.222a.75.75 0 00-1.5 0h1.5zm2.361 3.861a.75.75 0 000-1.5v1.5zM4.89 7.25a.75.75 0 000 1.5v-1.5zm9.36.75A6.25 6.25 0 018 14.25v1.5A7.75 7.75 0 0015.75 8h-1.5zM8 14.25A6.25 6.25 0 011.75 8H.25A7.75 7.75 0 008 15.75v-1.5zM1.75 8A6.25 6.25 0 018 1.75V.25A7.75 7.75 0 00.25 8h1.5zM8 1.75A6.25 6.25 0 0114.25 8h1.5A7.75 7.75 0 008 .25v1.5zm.75 9.361V4.89h-1.5v6.222h1.5zm2.361-3.861H4.89v1.5h6.222v-1.5z" fill="#000"/></svg>