<svg width="24" height="24" viewBox="0 0 24 24" fill="none" xmlns="http://www.w3.org/2000/svg"><path fill-rule="evenodd" clip-rule="evenodd" d="M5.25 2a.25.25 0 01.25-.25h10.036a.25.25 0 01.191.089l4.964 5.866a.25.25 0 01.059.161V22a.25.25 0 01-.25.25h-15a.25.25 0 01-.25-.25v-2.5a.75.75 0 00-1.5 0V22c0 .966.784 1.75 1.75 1.75h15A1.75 1.75 0 0022.25 22V7.866a1.75 1.75 0 00-.414-1.13L16.872.87a1.75 1.75 0 00-1.336-.62H5.5A1.75 1.75 0 003.75 2v4.5a.75.75 0 001.5 0V2zM7.6 15.672c-.085-.096-.128-.245-.128-.448V11.88c0-.95-.288-1.69-.864-2.224-.576-.533-1.419-.8-2.528-.8-.853 0-1.536.155-2.048.464-.512.299-.885.741-1.12 1.328l1.472.752c.128-.33.315-.587.56-.768.256-.181.603-.272 1.04-.272.533 0 .933.128 1.2.384.277.256.416.603.416 1.04v.176l-2.096.32c-.992.16-1.723.448-2.192.864-.47.416-.704.981-.704 1.696 0 .693.245 1.253.736 1.68.49.416 1.141.624 1.952.624.49 0 .955-.107 1.392-.32a2.955 2.955 0 001.072-.864c.075.363.245.65.512.864.277.213.619.32 1.024.32.299 0 .544-.048.736-.144l.016-1.2c-.203 0-.352-.043-.448-.128zm-2.528-.544c-.352.384-.832.576-1.44.576-.363 0-.65-.085-.864-.256a.836.836 0 01-.304-.672c0-.341.117-.608.352-.8.245-.203.635-.347 1.168-.432l1.616-.256v.224c0 .683-.176 1.221-.528 1.616z" fill="#000"/></svg>