<svg width="24" height="24" viewBox="0 0 24 24" fill="none" xmlns="http://www.w3.org/2000/svg">
<path fill-rule="evenodd" clip-rule="evenodd" d="M5.56066 12.75L11.7803 18.9697C12.0732 19.2626 12.0732 19.7374 11.7803 20.0303C11.4874 20.3232 11.0126 20.3232 10.7197 20.0303L3.21967 12.5303C3.07902 12.3897 3 12.1989 3 12C3 11.8011 3.07902 11.6103 3.21967 11.4697L10.7197 3.96967C11.0126 3.67678 11.4874 3.67678 11.7803 3.96967C12.0732 4.26256 12.0732 4.73744 11.7803 5.03033L5.56066 11.25L20.25 11.25C20.6642 11.25 21 11.5858 21 12C21 12.4142 20.6642 12.75 20.25 12.75L5.56066 12.75Z" fill="black"/>
</svg>
