<svg width="24" height="24" viewBox="0 0 24 24" fill="none" xmlns="http://www.w3.org/2000/svg">
<path fill-rule="evenodd" clip-rule="evenodd" d="M12.75 18.4393L18.9697 12.2197C19.2626 11.9268 19.7374 11.9268 20.0303 12.2197C20.3232 12.5126 20.3232 12.9874 20.0303 13.2803L12.5303 20.7803C12.3897 20.921 12.1989 21 12 21C11.8011 21 11.6103 20.921 11.4697 20.7803L3.96967 13.2803C3.67678 12.9874 3.67678 12.5126 3.96967 12.2197C4.26256 11.9268 4.73744 11.9268 5.03033 12.2197L11.25 18.4393L11.25 3.75C11.25 3.33579 11.5858 3 12 3C12.4142 3 12.75 3.33579 12.75 3.75L12.75 18.4393Z" fill="black"/>
</svg>
