<svg fill="none" height="24" viewBox="0 0 24 24" width="24" xmlns="http://www.w3.org/2000/svg"><path d="m15.183594.11328125c-1.347938-.07024879-2.789139.45011898-3.980469 1.68359375l-9.0058594 9.003906c-2.92266834 2.922669-2.92266617 7.684756 0 10.607422 2.9226662 2.922666 7.6828004 2.922668 10.6054684 0l10.978516-10.978515a.75061092.75061092 0 1 0 -1.0625-1.0605474l-10.976562 10.9785154c-2.3494459 2.349446-6.1349316 2.349444-8.4843755 0-2.34944391-2.349444-2.34944543-6.134929 0-8.484375l9.0156255-9.0156248a.750075.750075 0 0 0 .0098-.00977c.929343-.96222 1.89336-1.2749731 2.822266-1.2265625.928905.048411 1.839157.4934546 2.52539 1.1796875s1.13323 1.5984382 1.181641 2.5273438c.04841.9289056-.264342 1.8929224-1.226562 2.8222656a.750075.750075 0 0 0 -.0098.00977l-9.0058605 9.0097654c-.3960459.382635-.7552738.4802-1.109375.457032-.3541012-.023169-.7180929-.198649-.9941406-.47461s-.4513301-.638093-.4746094-.992187.0745209-.715162.4570313-1.111329l9.0058592-9.0097651a.750075.750075 0 1 0 -1.060547-1.0585938l-9.0156248 9.0175779a.750075.750075 0 0 0 -.00977.0098c-.6414372.664337-.9230957 1.488724-.8730468 2.25.050049.761276.3997623 1.444845.9101562 1.955078s1.1957399.860347 1.9570312.910156c.7612914.04981 1.5839116-.231401 2.2480469-.873047a.750075.750075 0 0 0 .00977-.0098l9.0058593-9.011718c1.233475-1.1913298 1.753843-2.6305779 1.683594-3.9785156s-.695868-2.5864931-1.619141-3.5097656c-.923272-.9232726-2.159875-1.54693876-3.507812-1.61718755z" fill="#000"/></svg>