<svg fill="none" height="16" viewBox="0 0 16 16" width="16" xmlns="http://www.w3.org/2000/svg"><path d="m10.017578.38867188c-.8852522-.05207385-1.8354081.28072066-2.6191405 1.06445312l-5.7597656 5.7597656c-1.12492569 1.1224851-1.58443371 2.4550396-1.51171878 3.7011714.0727149 1.246133.65062207 2.39267 1.50781248 3.25.8571905.857331 2.0038796 1.436847 3.25 1.509766 1.2461204.07292 2.5785024-.38893 3.7011719-1.513672l7.0136715-7.0136716a.60006002.60006002 0 1 0 -.847656-.8476563l-7.0136718 7.0136719c-.9106622.912343-1.8678181 1.215675-2.7832031 1.162109-.9153849-.053565-1.802122-.491465-2.4707031-1.160156s-1.1067407-1.555309-1.1601562-2.470703c-.0534156-.9153937.249617-1.8707374 1.1621093-2.78125a.60006002.60006002 0 0 0 0-.00195l5.7617188-5.7597688c.5716003-.5716003 1.1444297-.7474785 1.6992187-.7148437.5547894.032635 1.1036094.3008746 1.5175784.7148437.413969.4139692.682209.9627891.714844 1.5175782.03263.5547891-.143244 1.1295715-.714844 1.7011718l-5.746094 5.7480468c-.23024.215427-.4210154.261822-.6132812.248047-.1922659-.013775-.3953537-.112227-.5507813-.267578s-.2537081-.358522-.2675781-.550781c-.0138701-.192259.0327329-.382936.2480468-.613282l5.7460938-5.7480465a.60007444.60007444 0 1 0 -.8496094-.8476563l-5.7597656 5.7617188a.60006002.60006002 0 0 0 -.013672.013672c-.4177756.4469423-.6054172 1.007807-.5683592 1.521484s.2733837.970818.6152343 1.3125c.3418506.341683.8007578.576476 1.3144531.613282.5136954.0368 1.0727945-.148411 1.5195313-.566407a.60006002.60006002 0 0 0 .013672-.01367l5.7597655-5.7636735c.783732-.7837325 1.116527-1.7338883 1.064453-2.6191406s-.461922-1.692391-1.064453-2.2949219c-.602531-.60253087-1.40967-1.01237928-2.294922-1.06445312z" fill="#000"/></svg>