<svg width="24" height="24" viewBox="0 0 24 24" fill="none" xmlns="http://www.w3.org/2000/svg"><path fill-rule="evenodd" clip-rule="evenodd" d="M9.75 20a1 1 0 11-2 0 1 1 0 012 0z" fill="#000"/><path d="M15.5 5V2a1 1 0 00-1-1H3a1 1 0 00-1 1v20a1 1 0 001 1h11.5a1 1 0 001-1v-5" stroke="#000" stroke-width="1.5" stroke-linecap="round" stroke-linejoin="round"/><path d="M10 7.5h2.4m-2.4 7h2.4M10 12.077h2.4M19.6 7.5H22m-2.4 7H22m-2.4-4.846H22m-7.2 0h2.4m-2.4 2.423h2.4" stroke="#000" stroke-width="1.5" stroke-linecap="round"/></svg>