<svg fill="none" height="24" viewBox="0 0 24 24" width="24" xmlns="http://www.w3.org/2000/svg"><path d="m12 0a.75.75 0 0 0 -.75.75v1.5332031a8.251 8.251 0 0 0 -7.5 8.2167969c0 3.109-.36875 5.099063-.71875 6.289062-.176.595001-.34875.98861-.46875 1.22461a2.892 2.892 0 0 1 -.1601562.28125v.001953a.75.75 0 0 0 .5976562 1.205078h18a.75.75 0 0 0 .501953-1.308594l-.003906-.003906c-.013-.015-.047656-.056719-.097656-.136719-.101-.161-.264547-.471718-.435547-1.011718-.345-1.085-.714844-3.065016-.714844-6.541016a8.251 8.251 0 0 0 -7.5-8.2167969v-1.5332031a.75.75 0 0 0 -.75-.75zm0 3.75a6.75 6.75 0 0 1 6.75 6.75c0 3.571.379156 5.714141.785156 6.994141a8.25 8.25 0 0 0 .177735.507812h-15.5078129c.086-.226.175625-.489062.265625-.789062.398-1.352.7792969-3.486891.7792969-6.712891a6.75 6.75 0 0 1 6.75-6.75zm2.015625 17.25a.75028061.75028061 0 0 0 -.730469.539062 1.337 1.337 0 0 1 -2.566406 0 .75.75 0 0 0 -.9296875-.507812.75.75 0 0 0 -.5097656.931641 2.837 2.837 0 0 0 5.4453121 0 .75028061.75028061 0 0 0 -.708984-.962891z" fill="#000"/></svg>