<svg fill="none" height="16" viewBox="0 0 16 16" width="16" xmlns="http://www.w3.org/2000/svg"><path d="m8 0a.75.75 0 0 0 -.75.75v.5488281a5.751 5.751 0 0 0 -5 5.703125c0 2.052-.24275 3.3531409-.46875 4.1191409a4.67 4.67 0 0 1 -.2949219.77539c-.037.072-.0631719.116672-.0761719.138672a.75.75 0 0 0 .5898438 1.214844h12a.75.75 0 0 0 .515625-1.292969c-.007-.009-.019109-.025687-.037109-.054687-.054-.086-.154672-.274188-.263672-.617188-.219-.691-.464844-1.9812029-.464844-4.2832029a5.75 5.75 0 0 0 -5-5.7011719v-.5507812a.75.75 0 0 0 -.75-.75zm0 2.75a4.25 4.25 0 0 1 4.25 4.25c0 2.396.255156 3.853281.535156 4.738281l.003906.011719h-9.632812l.0644531-.203125c.273-.928.5292969-2.376875.5292969-4.546875a4.25 4.25 0 0 1 4.25-4.25zm-1.3222656 10.75a.75.75 0 0 0 -.2226563.029297v.001953a.75.75 0 0 0 -.5078125.931641 2.141 2.141 0 0 0 4.1093754 0 .75028061.75028061 0 0 0 -1.4394535-.423829.641.641 0 0 1 -1.2304687 0 .75.75 0 0 0 -.7089844-.539062z" fill="#000"/></svg>