<svg width="24" height="24" viewBox="0 0 24 24" fill="none" xmlns="http://www.w3.org/2000/svg">
<path d="M11 16.4941H22.5C23.0336 16.4938 23.398 17.0704 23.186 17.549C22.8421 18.2882 22.4743 19.0805 21.757 19.864C19.2161 22.6394 16.261 23 12.5 23C8.73903 23 5.39352 22.3844 2.6 19.864C1.75238 19.0992 1.22972 18.4331 0.814004 17.549C0.597699 17.0607 0.976872 16.4938 1.5 16.4941H11ZM11 16.4941V12.6065M11 12.6065V2.20802C11.0003 1.06996 9.59042 0.551586 8.88994 1.47545L2.26971 11.4815C1.94771 11.9632 2.32517 12.6078 2.89168 12.6065H11ZM15.8527 5.8213L20.3839 12.8638C20.6923 13.3451 20.3221 13.9941 19.7658 13.9952H14.5V6.21864C14.4994 5.49647 15.4788 5.23982 15.8527 5.8213Z" stroke="black" stroke-width="1.5" stroke-linecap="round" stroke-linejoin="round"/>
</svg>
