<svg width="24" height="24" viewBox="0 0 24 24" fill="none" xmlns="http://www.w3.org/2000/svg"><path d="M17.5 15.5a1.25 1.25 0 11-2.5 0 1.25 1.25 0 012.5 0zM21.25 14.75a1.25 1.25 0 11-2.5 0 1.25 1.25 0 012.5 0zM18.25 11.75a1.25 1.25 0 11-2.5 0 1.25 1.25 0 012.5 0z" fill="#000"/><path d="M8.25 8.25V3a2.25 2.25 0 10-4.5 0v5.25m4.5 0a11.476 11.476 0 013 7.5 11.418 11.418 0 01-2.509 6.933 1.499 1.499 0 01-1.175.567H4.434a1.5 1.5 0 01-1.175-.567A11.418 11.418 0 01.75 15.75a11.476 11.476 0 013-7.5m4.5 0h-4.5m8.711 14.242a7.5 7.5 0 100-13.486M8.25 5.25h-4.5" stroke="#000" stroke-width="1.5" stroke-linecap="round" stroke-linejoin="round"/></svg>