<svg width="16" height="16" viewBox="0 0 16 16" fill="none" xmlns="http://www.w3.org/2000/svg">
<path d="M11.3056 10.3611C11.3056 10.7907 10.9573 11.1389 10.5278 11.1389C10.0982 11.1389 9.75 10.7907 9.75 10.3611C9.75 9.93156 10.0982 9.58333 10.5278 9.58333C10.9573 9.58333 11.3056 9.93156 11.3056 10.3611Z" fill="black"/>
<path d="M13.6389 9.89444C13.6389 10.324 13.2907 10.6722 12.8611 10.6722C12.4316 10.6722 12.0833 10.324 12.0833 9.89444C12.0833 9.46489 12.4316 9.11667 12.8611 9.11667C13.2907 9.11667 13.6389 9.46489 13.6389 9.89444Z" fill="black"/>
<path d="M11.7722 8.02778C11.7722 8.45733 11.424 8.80556 10.9944 8.80556C10.5649 8.80556 10.2167 8.45733 10.2167 8.02778C10.2167 7.59822 10.5649 7.25 10.9944 7.25C11.424 7.25 11.7722 7.59822 11.7722 8.02778Z" fill="black"/>
<path d="M5.66667 5.66667V2.4C5.66667 2.0287 5.51917 1.6726 5.25662 1.41005C4.99406 1.1475 4.63797 1 4.26667 1C3.89536 1 3.53927 1.1475 3.27672 1.41005C3.01417 1.6726 2.86667 2.0287 2.86667 2.4V5.66667M5.66667 5.66667C6.83388 6.9446 7.49723 8.60296 7.53333 10.3333C7.50431 11.9044 6.95529 13.4214 5.97218 14.6472C5.88475 14.7573 5.77358 14.8462 5.64699 14.9073C5.52039 14.9683 5.38163 15 5.24107 15H3.29227C3.1517 15 3.01294 14.9683 2.88635 14.9073C2.75975 14.8462 2.64859 14.7573 2.56116 14.6472C1.57804 13.4214 1.02902 11.9044 1 10.3333C1.03611 8.60296 1.69945 6.9446 2.86667 5.66667M5.66667 5.66667H2.86667M9.27873 5.78599C9.70218 5.68808 10.1389 5.64942 10.5764 5.67255C11.3666 5.71434 12.1332 5.95638 12.8042 6.37592C13.4751 6.79547 14.0283 7.37874 14.4119 8.0709C14.7954 8.76307 14.9966 9.54139 14.9966 10.3327C14.9966 11.124 14.7954 11.9024 14.4119 12.5945C14.0283 13.2867 13.4751 13.87 12.8042 14.2895C12.1332 14.709 11.3666 14.9511 10.5764 14.9929C10.1389 15.016 9.70218 14.9773 9.27873 14.8794" stroke="black" stroke-width="1.5" stroke-linecap="round" stroke-linejoin="round"/>
</svg>
