<svg width="24" height="24" viewBox="0 0 24 24" fill="none" xmlns="http://www.w3.org/2000/svg"><path d="M7.676 14.285a3.75 3.75 0 00-4.037.702A3.81 3.81 0 002.55 17.73C2.4 21.485.988 22.942.988 22.942a8.838 8.838 0 007.951-2.655 3.75 3.75 0 00.747-3.926m-2.01-2.076a3.748 3.748 0 012.01 2.076m-2.01-2.076l.824-1.063 2.314-2.722m-1.128 5.861l1.131-.961 2.64-2.258M10.814 10.5l7.319-8.609a2.77 2.77 0 014.69.788 2.772 2.772 0 01-.784 3.121l-8.582 7.342M10.814 10.5l2.643 2.642" stroke="#000" stroke-width="1.5" stroke-linecap="round" stroke-linejoin="round"/></svg>