<svg width="24" height="24" viewBox="0 0 24 24" fill="none" xmlns="http://www.w3.org/2000/svg">
<path d="M4.5 17C4.5 16.5858 4.16421 16.25 3.75 16.25C3.33579 16.25 3 16.5858 3 17H4.5ZM21 17C21 16.5858 20.6642 16.25 20.25 16.25C19.8358 16.25 19.5 16.5858 19.5 17H21ZM0.21967 14.9697C-0.0732233 15.2626 -0.0732233 15.7374 0.21967 16.0303C0.512563 16.3232 0.987437 16.3232 1.28033 16.0303L0.21967 14.9697ZM7.17095 10.1397C7.46384 9.84681 7.46384 9.37194 7.17095 9.07905C6.87806 8.78615 6.40318 8.78615 6.11029 9.07905L7.17095 10.1397ZM20.9053 12.0947C20.6124 11.8018 20.1376 11.8018 19.8447 12.0947C19.5518 12.3876 19.5518 12.8624 19.8447 13.1553L20.9053 12.0947ZM22.7197 16.0303C23.0126 16.3232 23.4874 16.3232 23.7803 16.0303C24.0732 15.7374 24.0732 15.2626 23.7803 14.9697L22.7197 16.0303ZM17.25 9.5H16.5C16.5 9.69891 16.579 9.88968 16.7197 10.0303L17.25 9.5ZM17.25 7.25V6.5C16.8358 6.5 16.5 6.83579 16.5 7.25H17.25ZM20.25 7.25H21C21 6.83579 20.6642 6.5 20.25 6.5V7.25ZM20.25 12.5L19.7197 13.0303C19.9342 13.2448 20.2568 13.309 20.537 13.1929C20.8173 13.0768 21 12.8033 21 12.5H20.25ZM3 17V21.75H4.5V17H3ZM21 21.75V17H19.5V21.75H21ZM1.28033 16.0303L7.17095 10.1397L6.11029 9.07905L0.21967 14.9697L1.28033 16.0303ZM19.8447 13.1553L22.7197 16.0303L23.7803 14.9697L20.9053 12.0947L19.8447 13.1553ZM18 9.5V7.25H16.5V9.5H18ZM17.25 8H20.25V6.5H17.25V8ZM19.5 7.25V12.5H21V7.25H19.5ZM16.7197 10.0303L19.7197 13.0303L20.7803 11.9697L17.7803 8.96967L16.7197 10.0303ZM12.25 6C12.25 7.30972 12.0363 8.46092 11.7179 9.25699C11.5578 9.65711 11.386 9.93057 11.2336 10.0917C11.0827 10.2513 11.0035 10.25 11 10.25V11.75C11.5488 11.75 11.9958 11.4688 12.3234 11.1224C12.6495 10.7775 12.9087 10.3188 13.1106 9.81408C13.516 8.80051 13.75 7.4517 13.75 6H12.25ZM11 10.25C10.9965 10.25 10.9173 10.2513 10.7664 10.0917C10.614 9.93057 10.4422 9.65711 10.2821 9.25699C9.96371 8.46092 9.75 7.30972 9.75 6H8.25C8.25 7.4517 8.484 8.80051 8.88943 9.81408C9.09131 10.3188 9.35046 10.7775 9.67659 11.1224C10.0042 11.4688 10.4512 11.75 11 11.75V10.25ZM9.75 6C9.75 4.69028 9.96371 3.53908 10.2821 2.74301C10.4422 2.34289 10.614 2.06943 10.7664 1.90826C10.9173 1.74867 10.9965 1.75 11 1.75V0.25C10.4512 0.25 10.0042 0.531153 9.67659 0.877594C9.35046 1.22245 9.09131 1.68122 8.88943 2.18592C8.484 3.19949 8.25 4.5483 8.25 6H9.75ZM11 1.75C11.0035 1.75 11.0827 1.74867 11.2336 1.90826C11.386 2.06943 11.5578 2.34289 11.7179 2.74301C12.0363 3.53908 12.25 4.69028 12.25 6H13.75C13.75 4.5483 13.516 3.19949 13.1106 2.18592C12.9087 1.68122 12.6495 1.22245 12.3234 0.877594C11.9958 0.531153 11.5488 0.25 11 0.25V1.75ZM11 11.75H13V10.25H11V11.75ZM13 11.75C13.5488 11.75 13.9958 11.4688 14.3234 11.1224C14.6495 10.7775 14.9087 10.3188 15.1106 9.81408C15.516 8.80051 15.75 7.4517 15.75 6H14.25C14.25 7.30972 14.0363 8.46092 13.7179 9.25699C13.5578 9.65711 13.386 9.93057 13.2336 10.0917C13.0827 10.2513 13.0035 10.25 13 10.25V11.75ZM15.75 6C15.75 4.5483 15.516 3.19949 15.1106 2.18592C14.9087 1.68122 14.6495 1.22245 14.3234 0.877594C13.9958 0.531153 13.5488 0.25 13 0.25V1.75C13.0035 1.75 13.0827 1.74867 13.2336 1.90826C13.386 2.06943 13.5578 2.34289 13.7179 2.74301C14.0363 3.53908 14.25 4.69028 14.25 6H15.75ZM13 0.25C12.9986 0.25 12.9971 0.25 12.9957 0.25C12.9942 0.25 12.9928 0.25 12.9914 0.25C12.9899 0.25 12.9885 0.25 12.9871 0.25C12.9856 0.25 12.9842 0.25 12.9828 0.25C12.9813 0.25 12.9799 0.25 12.9784 0.25C12.977 0.25 12.9756 0.25 12.9741 0.25C12.9727 0.25 12.9713 0.25 12.9698 0.25C12.9684 0.25 12.967 0.25 12.9655 0.25C12.9641 0.25 12.9627 0.25 12.9612 0.25C12.9598 0.25 12.9584 0.25 12.9569 0.25C12.9555 0.25 12.9541 0.25 12.9526 0.25C12.9512 0.25 12.9498 0.25 12.9483 0.25C12.9469 0.25 12.9455 0.25 12.944 0.25C12.9426 0.25 12.9412 0.25 12.9398 0.25C12.9383 0.25 12.9369 0.25 12.9355 0.25C12.934 0.25 12.9326 0.25 12.9312 0.25C12.9297 0.25 12.9283 0.25 12.9269 0.25C12.9255 0.25 12.924 0.25 12.9226 0.25C12.9212 0.25 12.9197 0.25 12.9183 0.25C12.9169 0.25 12.9155 0.25 12.914 0.25C12.9126 0.25 12.9112 0.25 12.9097 0.25C12.9083 0.25 12.9069 0.25 12.9055 0.25C12.904 0.25 12.9026 0.25 12.9012 0.25C12.8998 0.25 12.8983 0.25 12.8969 0.25C12.8955 0.25 12.8941 0.25 12.8926 0.25C12.8912 0.25 12.8898 0.25 12.8884 0.25C12.8869 0.25 12.8855 0.25 12.8841 0.25C12.8827 0.25 12.8812 0.25 12.8798 0.25C12.8784 0.25 12.877 0.25 12.8755 0.25C12.8741 0.25 12.8727 0.25 12.8713 0.25C12.8699 0.25 12.8684 0.25 12.867 0.25C12.8656 0.25 12.8642 0.25 12.8627 0.25C12.8613 0.25 12.8599 0.25 12.8585 0.25C12.8571 0.25 12.8556 0.25 12.8542 0.25C12.8528 0.25 12.8514 0.25 12.85 0.25C12.8485 0.25 12.8471 0.25 12.8457 0.25C12.8443 0.25 12.8429 0.25 12.8414 0.25C12.84 0.25 12.8386 0.25 12.8372 0.25C12.8358 0.25 12.8344 0.25 12.8329 0.25C12.8315 0.25 12.8301 0.25 12.8287 0.25C12.8273 0.25 12.8259 0.25 12.8244 0.25C12.823 0.25 12.8216 0.25 12.8202 0.25C12.8188 0.25 12.8174 0.25 12.8159 0.25C12.8145 0.25 12.8131 0.25 12.8117 0.25C12.8103 0.25 12.8089 0.25 12.8075 0.25C12.806 0.25 12.8046 0.25 12.8032 0.25C12.8018 0.25 12.8004 0.25 12.799 0.25C12.7976 0.25 12.7961 0.25 12.7947 0.25C12.7933 0.25 12.7919 0.25 12.7905 0.25C12.7891 0.25 12.7877 0.25 12.7863 0.25C12.7848 0.25 12.7834 0.25 12.782 0.25C12.7806 0.25 12.7792 0.25 12.7778 0.25C12.7764 0.25 12.775 0.25 12.7736 0.25C12.7722 0.25 12.7707 0.25 12.7693 0.25C12.7679 0.25 12.7665 0.25 12.7651 0.25C12.7637 0.25 12.7623 0.25 12.7609 0.25C12.7595 0.25 12.7581 0.25 12.7567 0.25C12.7552 0.25 12.7538 0.25 12.7524 0.25C12.751 0.25 12.7496 0.25 12.7482 0.25C12.7468 0.25 12.7454 0.25 12.744 0.25C12.7426 0.25 12.7412 0.25 12.7398 0.25C12.7384 0.25 12.737 0.25 12.7356 0.25C12.7341 0.25 12.7327 0.25 12.7313 0.25C12.7299 0.25 12.7285 0.25 12.7271 0.25C12.7257 0.25 12.7243 0.25 12.7229 0.25C12.7215 0.25 12.7201 0.25 12.7187 0.25C12.7173 0.25 12.7159 0.25 12.7145 0.25C12.7131 0.25 12.7117 0.25 12.7103 0.25C12.7089 0.25 12.7075 0.25 12.7061 0.25C12.7047 0.25 12.7033 0.25 12.7019 0.25C12.7005 0.25 12.6991 0.25 12.6977 0.25C12.6963 0.25 12.6949 0.25 12.6935 0.25C12.6921 0.25 12.6907 0.25 12.6893 0.25C12.6879 0.25 12.6865 0.25 12.6851 0.25C12.6837 0.25 12.6823 0.25 12.6809 0.25C12.6795 0.25 12.6781 0.25 12.6767 0.25C12.6753 0.25 12.6739 0.25 12.6725 0.25C12.6711 0.25 12.6697 0.25 12.6683 0.25C12.6669 0.25 12.6655 0.25 12.6641 0.25C12.6627 0.25 12.6613 0.25 12.6599 0.25C12.6585 0.25 12.6571 0.25 12.6557 0.25C12.6543 0.25 12.653 0.25 12.6516 0.25C12.6502 0.25 12.6488 0.25 12.6474 0.25C12.646 0.25 12.6446 0.25 12.6432 0.25C12.6418 0.25 12.6404 0.25 12.639 0.25C12.6376 0.25 12.6362 0.25 12.6348 0.25C12.6334 0.25 12.632 0.25 12.6307 0.25C12.6293 0.25 12.6279 0.25 12.6265 0.25C12.6251 0.25 12.6237 0.25 12.6223 0.25C12.6209 0.25 12.6195 0.25 12.6181 0.25C12.6167 0.25 12.6154 0.25 12.614 0.25C12.6126 0.25 12.6112 0.25 12.6098 0.25C12.6084 0.25 12.607 0.25 12.6056 0.25C12.6042 0.25 12.6029 0.25 12.6015 0.25C12.6001 0.25 12.5987 0.25 12.5973 0.25C12.5959 0.25 12.5945 0.25 12.5931 0.25C12.5918 0.25 12.5904 0.25 12.589 0.25C12.5876 0.25 12.5862 0.25 12.5848 0.25C12.5834 0.25 12.582 0.25 12.5807 0.25C12.5793 0.25 12.5779 0.25 12.5765 0.25C12.5751 0.25 12.5737 0.25 12.5724 0.25C12.571 0.25 12.5696 0.25 12.5682 0.25C12.5668 0.25 12.5654 0.25 12.564 0.25C12.5627 0.25 12.5613 0.25 12.5599 0.25C12.5585 0.25 12.5571 0.25 12.5557 0.25C12.5544 0.25 12.553 0.25 12.5516 0.25C12.5502 0.25 12.5488 0.25 12.5475 0.25C12.5461 0.25 12.5447 0.25 12.5433 0.25C12.5419 0.25 12.5406 0.25 12.5392 0.25C12.5378 0.25 12.5364 0.25 12.535 0.25C12.5337 0.25 12.5323 0.25 12.5309 0.25C12.5295 0.25 12.5281 0.25 12.5268 0.25C12.5254 0.25 12.524 0.25 12.5226 0.25C12.5212 0.25 12.5199 0.25 12.5185 0.25C12.5171 0.25 12.5157 0.25 12.5144 0.25C12.513 0.25 12.5116 0.25 12.5102 0.25C12.5089 0.25 12.5075 0.25 12.5061 0.25C12.5047 0.25 12.5033 0.25 12.502 0.25C12.5006 0.25 12.4992 0.25 12.4978 0.25C12.4965 0.25 12.4951 0.25 12.4937 0.25C12.4923 0.25 12.491 0.25 12.4896 0.25C12.4882 0.25 12.4869 0.25 12.4855 0.25C12.4841 0.25 12.4827 0.25 12.4814 0.25C12.48 0.25 12.4786 0.25 12.4772 0.25C12.4759 0.25 12.4745 0.25 12.4731 0.25C12.4718 0.25 12.4704 0.25 12.469 0.25C12.4676 0.25 12.4663 0.25 12.4649 0.25C12.4635 0.25 12.4622 0.25 12.4608 0.25C12.4594 0.25 12.458 0.25 12.4567 0.25C12.4553 0.25 12.4539 0.25 12.4526 0.25C12.4512 0.25 12.4498 0.25 12.4485 0.25C12.4471 0.25 12.4457 0.25 12.4444 0.25C12.443 0.25 12.4416 0.25 12.4403 0.25C12.4389 0.25 12.4375 0.25 12.4362 0.25C12.4348 0.25 12.4334 0.25 12.4321 0.25C12.4307 0.25 12.4293 0.25 12.428 0.25C12.4266 0.25 12.4252 0.25 12.4239 0.25C12.4225 0.25 12.4211 0.25 12.4198 0.25C12.4184 0.25 12.417 0.25 12.4157 0.25C12.4143 0.25 12.4129 0.25 12.4116 0.25C12.4102 0.25 12.4088 0.25 12.4075 0.25C12.4061 0.25 12.4048 0.25 12.4034 0.25C12.402 0.25 12.4007 0.25 12.3993 0.25C12.3979 0.25 12.3966 0.25 12.3952 0.25C12.3939 0.25 12.3925 0.25 12.3911 0.25C12.3898 0.25 12.3884 0.25 12.3871 0.25C12.3857 0.25 12.3843 0.25 12.383 0.25C12.3816 0.25 12.3803 0.25 12.3789 0.25C12.3775 0.25 12.3762 0.25 12.3748 0.25C12.3735 0.25 12.3721 0.25 12.3707 0.25C12.3694 0.25 12.368 0.25 12.3667 0.25C12.3653 0.25 12.364 0.25 12.3626 0.25C12.3612 0.25 12.3599 0.25 12.3585 0.25C12.3572 0.25 12.3558 0.25 12.3545 0.25C12.3531 0.25 12.3517 0.25 12.3504 0.25C12.349 0.25 12.3477 0.25 12.3463 0.25C12.345 0.25 12.3436 0.25 12.3423 0.25C12.3409 0.25 12.3395 0.25 12.3382 0.25C12.3368 0.25 12.3355 0.25 12.3341 0.25C12.3328 0.25 12.3314 0.25 12.3301 0.25C12.3287 0.25 12.3274 0.25 12.326 0.25C12.3247 0.25 12.3233 0.25 12.322 0.25C12.3206 0.25 12.3192 0.25 12.3179 0.25C12.3165 0.25 12.3152 0.25 12.3138 0.25C12.3125 0.25 12.3111 0.25 12.3098 0.25C12.3084 0.25 12.3071 0.25 12.3057 0.25C12.3044 0.25 12.303 0.25 12.3017 0.25C12.3003 0.25 12.299 0.25 12.2976 0.25C12.2963 0.25 12.2949 0.25 12.2936 0.25C12.2922 0.25 12.2909 0.25 12.2896 0.25C12.2882 0.25 12.2869 0.25 12.2855 0.25C12.2842 0.25 12.2828 0.25 12.2815 0.25C12.2801 0.25 12.2788 0.25 12.2774 0.25C12.2761 0.25 12.2747 0.25 12.2734 0.25C12.272 0.25 12.2707 0.25 12.2694 0.25C12.268 0.25 12.2667 0.25 12.2653 0.25C12.264 0.25 12.2626 0.25 12.2613 0.25C12.2599 0.25 12.2586 0.25 12.2573 0.25C12.2559 0.25 12.2546 0.25 12.2532 0.25C12.2519 0.25 12.2505 0.25 12.2492 0.25C12.2479 0.25 12.2465 0.25 12.2452 0.25C12.2438 0.25 12.2425 0.25 12.2411 0.25C12.2398 0.25 12.2385 0.25 12.2371 0.25C12.2358 0.25 12.2344 0.25 12.2331 0.25C12.2318 0.25 12.2304 0.25 12.2291 0.25C12.2277 0.25 12.2264 0.25 12.2251 0.25C12.2237 0.25 12.2224 0.25 12.221 0.25C12.2197 0.25 12.2184 0.25 12.217 0.25C12.2157 0.25 12.2144 0.25 12.213 0.25C12.2117 0.25 12.2103 0.25 12.209 0.25C12.2077 0.25 12.2063 0.25 12.205 0.25C12.2037 0.25 12.2023 0.25 12.201 0.25C12.1996 0.25 12.1983 0.25 12.197 0.25C12.1956 0.25 12.1943 0.25 12.193 0.25C12.1916 0.25 12.1903 0.25 12.189 0.25C12.1876 0.25 12.1863 0.25 12.185 0.25C12.1836 0.25 12.1823 0.25 12.181 0.25C12.1796 0.25 12.1783 0.25 12.177 0.25C12.1756 0.25 12.1743 0.25 12.173 0.25C12.1716 0.25 12.1703 0.25 12.169 0.25C12.1676 0.25 12.1663 0.25 12.165 0.25C12.1636 0.25 12.1623 0.25 12.161 0.25C12.1596 0.25 12.1583 0.25 12.157 0.25C12.1557 0.25 12.1543 0.25 12.153 0.25C12.1517 0.25 12.1503 0.25 12.149 0.25C12.1477 0.25 12.1464 0.25 12.145 0.25C12.1437 0.25 12.1424 0.25 12.141 0.25C12.1397 0.25 12.1384 0.25 12.1371 0.25C12.1357 0.25 12.1344 0.25 12.1331 0.25C12.1317 0.25 12.1304 0.25 12.1291 0.25C12.1278 0.25 12.1264 0.25 12.1251 0.25C12.1238 0.25 12.1225 0.25 12.1211 0.25C12.1198 0.25 12.1185 0.25 12.1172 0.25C12.1158 0.25 12.1145 0.25 12.1132 0.25C12.1119 0.25 12.1105 0.25 12.1092 0.25C12.1079 0.25 12.1066 0.25 12.1052 0.25C12.1039 0.25 12.1026 0.25 12.1013 0.25C12.0999 0.25 12.0986 0.25 12.0973 0.25C12.096 0.25 12.0947 0.25 12.0933 0.25C12.092 0.25 12.0907 0.25 12.0894 0.25C12.0881 0.25 12.0867 0.25 12.0854 0.25C12.0841 0.25 12.0828 0.25 12.0815 0.25C12.0801 0.25 12.0788 0.25 12.0775 0.25C12.0762 0.25 12.0749 0.25 12.0735 0.25C12.0722 0.25 12.0709 0.25 12.0696 0.25C12.0683 0.25 12.0669 0.25 12.0656 0.25C12.0643 0.25 12.063 0.25 12.0617 0.25C12.0604 0.25 12.059 0.25 12.0577 0.25C12.0564 0.25 12.0551 0.25 12.0538 0.25C12.0524 0.25 12.0511 0.25 12.0498 0.25C12.0485 0.25 12.0472 0.25 12.0459 0.25C12.0446 0.25 12.0432 0.25 12.0419 0.25C12.0406 0.25 12.0393 0.25 12.038 0.25C12.0367 0.25 12.0354 0.25 12.034 0.25C12.0327 0.25 12.0314 0.25 12.0301 0.25C12.0288 0.25 12.0275 0.25 12.0262 0.25C12.0248 0.25 12.0235 0.25 12.0222 0.25C12.0209 0.25 12.0196 0.25 12.0183 0.25C12.017 0.25 12.0157 0.25 12.0144 0.25C12.013 0.25 12.0117 0.25 12.0104 0.25C12.0091 0.25 12.0078 0.25 12.0065 0.25C12.0052 0.25 12.0039 0.25 12.0026 0.25C12.0012 0.25 11.9999 0.25 11.9986 0.25C11.9973 0.25 11.996 0.25 11.9947 0.25C11.9934 0.25 11.9921 0.25 11.9908 0.25C11.9895 0.25 11.9882 0.25 11.9869 0.25C11.9855 0.25 11.9842 0.25 11.9829 0.25C11.9816 0.25 11.9803 0.25 11.979 0.25C11.9777 0.25 11.9764 0.25 11.9751 0.25C11.9738 0.25 11.9725 0.25 11.9712 0.25C11.9699 0.25 11.9686 0.25 11.9673 0.25C11.966 0.25 11.9647 0.25 11.9634 0.25C11.962 0.25 11.9607 0.25 11.9594 0.25C11.9581 0.25 11.9568 0.25 11.9555 0.25C11.9542 0.25 11.9529 0.25 11.9516 0.25C11.9503 0.25 11.949 0.25 11.9477 0.25C11.9464 0.25 11.9451 0.25 11.9438 0.25C11.9425 0.25 11.9412 0.25 11.9399 0.25C11.9386 0.25 11.9373 0.25 11.936 0.25C11.9347 0.25 11.9334 0.25 11.9321 0.25C11.9308 0.25 11.9295 0.25 11.9282 0.25C11.9269 0.25 11.9256 0.25 11.9243 0.25C11.923 0.25 11.9217 0.25 11.9204 0.25C11.9191 0.25 11.9178 0.25 11.9165 0.25C11.9152 0.25 11.9139 0.25 11.9126 0.25C11.9113 0.25 11.91 0.25 11.9087 0.25C11.9074 0.25 11.9061 0.25 11.9048 0.25C11.9035 0.25 11.9023 0.25 11.901 0.25C11.8997 0.25 11.8984 0.25 11.8971 0.25C11.8958 0.25 11.8945 0.25 11.8932 0.25C11.8919 0.25 11.8906 0.25 11.8893 0.25C11.888 0.25 11.8867 0.25 11.8854 0.25C11.8841 0.25 11.8828 0.25 11.8815 0.25C11.8802 0.25 11.879 0.25 11.8777 0.25C11.8764 0.25 11.8751 0.25 11.8738 0.25C11.8725 0.25 11.8712 0.25 11.8699 0.25C11.8686 0.25 11.8673 0.25 11.866 0.25C11.8647 0.25 11.8635 0.25 11.8622 0.25C11.8609 0.25 11.8596 0.25 11.8583 0.25C11.857 0.25 11.8557 0.25 11.8544 0.25C11.8531 0.25 11.8518 0.25 11.8506 0.25C11.8493 0.25 11.848 0.25 11.8467 0.25C11.8454 0.25 11.8441 0.25 11.8428 0.25C11.8415 0.25 11.8403 0.25 11.839 0.25C11.8377 0.25 11.8364 0.25 11.8351 0.25C11.8338 0.25 11.8325 0.25 11.8312 0.25C11.83 0.25 11.8287 0.25 11.8274 0.25C11.8261 0.25 11.8248 0.25 11.8235 0.25C11.8222 0.25 11.821 0.25 11.8197 0.25C11.8184 0.25 11.8171 0.25 11.8158 0.25C11.8145 0.25 11.8133 0.25 11.812 0.25C11.8107 0.25 11.8094 0.25 11.8081 0.25C11.8068 0.25 11.8056 0.25 11.8043 0.25C11.803 0.25 11.8017 0.25 11.8004 0.25C11.7991 0.25 11.7979 0.25 11.7966 0.25C11.7953 0.25 11.794 0.25 11.7927 0.25C11.7915 0.25 11.7902 0.25 11.7889 0.25C11.7876 0.25 11.7863 0.25 11.7851 0.25C11.7838 0.25 11.7825 0.25 11.7812 0.25C11.7799 0.25 11.7787 0.25 11.7774 0.25C11.7761 0.25 11.7748 0.25 11.7735 0.25C11.7723 0.25 11.771 0.25 11.7697 0.25C11.7684 0.25 11.7672 0.25 11.7659 0.25C11.7646 0.25 11.7633 0.25 11.7621 0.25C11.7608 0.25 11.7595 0.25 11.7582 0.25C11.7569 0.25 11.7557 0.25 11.7544 0.25C11.7531 0.25 11.7518 0.25 11.7506 0.25C11.7493 0.25 11.748 0.25 11.7467 0.25C11.7455 0.25 11.7442 0.25 11.7429 0.25C11.7417 0.25 11.7404 0.25 11.7391 0.25C11.7378 0.25 11.7366 0.25 11.7353 0.25C11.734 0.25 11.7327 0.25 11.7315 0.25C11.7302 0.25 11.7289 0.25 11.7277 0.25C11.7264 0.25 11.7251 0.25 11.7238 0.25C11.7226 0.25 11.7213 0.25 11.72 0.25C11.7188 0.25 11.7175 0.25 11.7162 0.25C11.7149 0.25 11.7137 0.25 11.7124 0.25C11.7111 0.25 11.7099 0.25 11.7086 0.25C11.7073 0.25 11.7061 0.25 11.7048 0.25C11.7035 0.25 11.7023 0.25 11.701 0.25C11.6997 0.25 11.6984 0.25 11.6972 0.25C11.6959 0.25 11.6946 0.25 11.6934 0.25C11.6921 0.25 11.6908 0.25 11.6896 0.25C11.6883 0.25 11.687 0.25 11.6858 0.25C11.6845 0.25 11.6832 0.25 11.682 0.25C11.6807 0.25 11.6795 0.25 11.6782 0.25C11.6769 0.25 11.6757 0.25 11.6744 0.25C11.6731 0.25 11.6719 0.25 11.6706 0.25C11.6693 0.25 11.6681 0.25 11.6668 0.25C11.6655 0.25 11.6643 0.25 11.663 0.25C11.6618 0.25 11.6605 0.25 11.6592 0.25C11.658 0.25 11.6567 0.25 11.6554 0.25C11.6542 0.25 11.6529 0.25 11.6517 0.25C11.6504 0.25 11.6491 0.25 11.6479 0.25C11.6466 0.25 11.6454 0.25 11.6441 0.25C11.6428 0.25 11.6416 0.25 11.6403 0.25C11.6391 0.25 11.6378 0.25 11.6365 0.25C11.6353 0.25 11.634 0.25 11.6328 0.25C11.6315 0.25 11.6303 0.25 11.629 0.25C11.6277 0.25 11.6265 0.25 11.6252 0.25C11.624 0.25 11.6227 0.25 11.6214 0.25C11.6202 0.25 11.6189 0.25 11.6177 0.25C11.6164 0.25 11.6152 0.25 11.6139 0.25C11.6127 0.25 11.6114 0.25 11.6101 0.25C11.6089 0.25 11.6076 0.25 11.6064 0.25C11.6051 0.25 11.6039 0.25 11.6026 0.25C11.6014 0.25 11.6001 0.25 11.5989 0.25C11.5976 0.25 11.5963 0.25 11.5951 0.25C11.5938 0.25 11.5926 0.25 11.5913 0.25C11.5901 0.25 11.5888 0.25 11.5876 0.25C11.5863 0.25 11.5851 0.25 11.5838 0.25C11.5826 0.25 11.5813 0.25 11.5801 0.25C11.5788 0.25 11.5776 0.25 11.5763 0.25C11.5751 0.25 11.5738 0.25 11.5726 0.25C11.5713 0.25 11.5701 0.25 11.5688 0.25C11.5676 0.25 11.5663 0.25 11.5651 0.25C11.5638 0.25 11.5626 0.25 11.5613 0.25C11.5601 0.25 11.5588 0.25 11.5576 0.25C11.5563 0.25 11.5551 0.25 11.5538 0.25C11.5526 0.25 11.5513 0.25 11.5501 0.25C11.5488 0.25 11.5476 0.25 11.5464 0.25C11.5451 0.25 11.5439 0.25 11.5426 0.25C11.5414 0.25 11.5401 0.25 11.5389 0.25C11.5376 0.25 11.5364 0.25 11.5351 0.25C11.5339 0.25 11.5327 0.25 11.5314 0.25C11.5302 0.25 11.5289 0.25 11.5277 0.25C11.5264 0.25 11.5252 0.25 11.524 0.25C11.5227 0.25 11.5215 0.25 11.5202 0.25C11.519 0.25 11.5177 0.25 11.5165 0.25C11.5153 0.25 11.514 0.25 11.5128 0.25C11.5115 0.25 11.5103 0.25 11.509 0.25C11.5078 0.25 11.5066 0.25 11.5053 0.25C11.5041 0.25 11.5028 0.25 11.5016 0.25C11.5004 0.25 11.4991 0.25 11.4979 0.25C11.4966 0.25 11.4954 0.25 11.4942 0.25C11.4929 0.25 11.4917 0.25 11.4905 0.25C11.4892 0.25 11.488 0.25 11.4867 0.25C11.4855 0.25 11.4843 0.25 11.483 0.25C11.4818 0.25 11.4806 0.25 11.4793 0.25C11.4781 0.25 11.4768 0.25 11.4756 0.25C11.4744 0.25 11.4731 0.25 11.4719 0.25C11.4707 0.25 11.4694 0.25 11.4682 0.25C11.467 0.25 11.4657 0.25 11.4645 0.25C11.4633 0.25 11.462 0.25 11.4608 0.25C11.4596 0.25 11.4583 0.25 11.4571 0.25C11.4559 0.25 11.4546 0.25 11.4534 0.25C11.4522 0.25 11.4509 0.25 11.4497 0.25C11.4485 0.25 11.4472 0.25 11.446 0.25C11.4448 0.25 11.4435 0.25 11.4423 0.25C11.4411 0.25 11.4398 0.25 11.4386 0.25C11.4374 0.25 11.4361 0.25 11.4349 0.25C11.4337 0.25 11.4325 0.25 11.4312 0.25C11.43 0.25 11.4288 0.25 11.4275 0.25C11.4263 0.25 11.4251 0.25 11.4238 0.25C11.4226 0.25 11.4214 0.25 11.4202 0.25C11.4189 0.25 11.4177 0.25 11.4165 0.25C11.4152 0.25 11.414 0.25 11.4128 0.25C11.4116 0.25 11.4103 0.25 11.4091 0.25C11.4079 0.25 11.4067 0.25 11.4054 0.25C11.4042 0.25 11.403 0.25 11.4018 0.25C11.4005 0.25 11.3993 0.25 11.3981 0.25C11.3969 0.25 11.3956 0.25 11.3944 0.25C11.3932 0.25 11.392 0.25 11.3907 0.25C11.3895 0.25 11.3883 0.25 11.3871 0.25C11.3858 0.25 11.3846 0.25 11.3834 0.25C11.3822 0.25 11.381 0.25 11.3797 0.25C11.3785 0.25 11.3773 0.25 11.3761 0.25C11.3748 0.25 11.3736 0.25 11.3724 0.25C11.3712 0.25 11.37 0.25 11.3687 0.25C11.3675 0.25 11.3663 0.25 11.3651 0.25C11.3639 0.25 11.3626 0.25 11.3614 0.25C11.3602 0.25 11.359 0.25 11.3578 0.25C11.3565 0.25 11.3553 0.25 11.3541 0.25C11.3529 0.25 11.3517 0.25 11.3504 0.25C11.3492 0.25 11.348 0.25 11.3468 0.25C11.3456 0.25 11.3444 0.25 11.3431 0.25C11.3419 0.25 11.3407 0.25 11.3395 0.25C11.3383 0.25 11.3371 0.25 11.3358 0.25C11.3346 0.25 11.3334 0.25 11.3322 0.25C11.331 0.25 11.3298 0.25 11.3285 0.25C11.3273 0.25 11.3261 0.25 11.3249 0.25C11.3237 0.25 11.3225 0.25 11.3213 0.25C11.32 0.25 11.3188 0.25 11.3176 0.25C11.3164 0.25 11.3152 0.25 11.314 0.25C11.3128 0.25 11.3116 0.25 11.3103 0.25C11.3091 0.25 11.3079 0.25 11.3067 0.25C11.3055 0.25 11.3043 0.25 11.3031 0.25C11.3019 0.25 11.3007 0.25 11.2994 0.25C11.2982 0.25 11.297 0.25 11.2958 0.25C11.2946 0.25 11.2934 0.25 11.2922 0.25C11.291 0.25 11.2898 0.25 11.2886 0.25C11.2873 0.25 11.2861 0.25 11.2849 0.25C11.2837 0.25 11.2825 0.25 11.2813 0.25C11.2801 0.25 11.2789 0.25 11.2777 0.25C11.2765 0.25 11.2753 0.25 11.2741 0.25C11.2729 0.25 11.2716 0.25 11.2704 0.25C11.2692 0.25 11.268 0.25 11.2668 0.25C11.2656 0.25 11.2644 0.25 11.2632 0.25C11.262 0.25 11.2608 0.25 11.2596 0.25C11.2584 0.25 11.2572 0.25 11.256 0.25C11.2548 0.25 11.2536 0.25 11.2524 0.25C11.2512 0.25 11.25 0.25 11.2488 0.25C11.2476 0.25 11.2463 0.25 11.2451 0.25C11.2439 0.25 11.2427 0.25 11.2415 0.25C11.2403 0.25 11.2391 0.25 11.2379 0.25C11.2367 0.25 11.2355 0.25 11.2343 0.25C11.2331 0.25 11.2319 0.25 11.2307 0.25C11.2295 0.25 11.2283 0.25 11.2271 0.25C11.2259 0.25 11.2247 0.25 11.2235 0.25C11.2223 0.25 11.2211 0.25 11.2199 0.25C11.2187 0.25 11.2175 0.25 11.2163 0.25C11.2151 0.25 11.2139 0.25 11.2127 0.25C11.2115 0.25 11.2103 0.25 11.2091 0.25C11.2079 0.25 11.2068 0.25 11.2056 0.25C11.2044 0.25 11.2032 0.25 11.202 0.25C11.2008 0.25 11.1996 0.25 11.1984 0.25C11.1972 0.25 11.196 0.25 11.1948 0.25C11.1936 0.25 11.1924 0.25 11.1912 0.25C11.19 0.25 11.1888 0.25 11.1876 0.25C11.1864 0.25 11.1852 0.25 11.184 0.25C11.1828 0.25 11.1817 0.25 11.1805 0.25C11.1793 0.25 11.1781 0.25 11.1769 0.25C11.1757 0.25 11.1745 0.25 11.1733 0.25C11.1721 0.25 11.1709 0.25 11.1697 0.25C11.1685 0.25 11.1673 0.25 11.1662 0.25C11.165 0.25 11.1638 0.25 11.1626 0.25C11.1614 0.25 11.1602 0.25 11.159 0.25C11.1578 0.25 11.1566 0.25 11.1554 0.25C11.1543 0.25 11.1531 0.25 11.1519 0.25C11.1507 0.25 11.1495 0.25 11.1483 0.25C11.1471 0.25 11.1459 0.25 11.1447 0.25C11.1436 0.25 11.1424 0.25 11.1412 0.25C11.14 0.25 11.1388 0.25 11.1376 0.25C11.1364 0.25 11.1353 0.25 11.1341 0.25C11.1329 0.25 11.1317 0.25 11.1305 0.25C11.1293 0.25 11.1281 0.25 11.127 0.25C11.1258 0.25 11.1246 0.25 11.1234 0.25C11.1222 0.25 11.121 0.25 11.1198 0.25C11.1187 0.25 11.1175 0.25 11.1163 0.25C11.1151 0.25 11.1139 0.25 11.1127 0.25C11.1116 0.25 11.1104 0.25 11.1092 0.25C11.108 0.25 11.1068 0.25 11.1057 0.25C11.1045 0.25 11.1033 0.25 11.1021 0.25C11.1009 0.25 11.0997 0.25 11.0986 0.25C11.0974 0.25 11.0962 0.25 11.095 0.25C11.0938 0.25 11.0927 0.25 11.0915 0.25C11.0903 0.25 11.0891 0.25 11.0879 0.25C11.0868 0.25 11.0856 0.25 11.0844 0.25C11.0832 0.25 11.082 0.25 11.0809 0.25C11.0797 0.25 11.0785 0.25 11.0773 0.25C11.0762 0.25 11.075 0.25 11.0738 0.25C11.0726 0.25 11.0715 0.25 11.0703 0.25C11.0691 0.25 11.0679 0.25 11.0667 0.25C11.0656 0.25 11.0644 0.25 11.0632 0.25C11.062 0.25 11.0609 0.25 11.0597 0.25C11.0585 0.25 11.0573 0.25 11.0562 0.25C11.055 0.25 11.0538 0.25 11.0526 0.25C11.0515 0.25 11.0503 0.25 11.0491 0.25C11.048 0.25 11.0468 0.25 11.0456 0.25C11.0444 0.25 11.0433 0.25 11.0421 0.25C11.0409 0.25 11.0397 0.25 11.0386 0.25C11.0374 0.25 11.0362 0.25 11.0351 0.25C11.0339 0.25 11.0327 0.25 11.0315 0.25C11.0304 0.25 11.0292 0.25 11.028 0.25C11.0269 0.25 11.0257 0.25 11.0245 0.25C11.0234 0.25 11.0222 0.25 11.021 0.25C11.0198 0.25 11.0187 0.25 11.0175 0.25C11.0163 0.25 11.0152 0.25 11.014 0.25C11.0128 0.25 11.0117 0.25 11.0105 0.25C11.0093 0.25 11.0082 0.25 11.007 0.25C11.0058 0.25 11.0047 0.25 11.0035 0.25C11.0023 0.25 11.0012 0.25 11 0.25V1.75C11.0012 1.75 11.0023 1.75 11.0035 1.75C11.0047 1.75 11.0058 1.75 11.007 1.75C11.0082 1.75 11.0093 1.75 11.0105 1.75C11.0117 1.75 11.0128 1.75 11.014 1.75C11.0152 1.75 11.0163 1.75 11.0175 1.75C11.0187 1.75 11.0198 1.75 11.021 1.75C11.0222 1.75 11.0234 1.75 11.0245 1.75C11.0257 1.75 11.0269 1.75 11.028 1.75C11.0292 1.75 11.0304 1.75 11.0315 1.75C11.0327 1.75 11.0339 1.75 11.0351 1.75C11.0362 1.75 11.0374 1.75 11.0386 1.75C11.0397 1.75 11.0409 1.75 11.0421 1.75C11.0433 1.75 11.0444 1.75 11.0456 1.75C11.0468 1.75 11.048 1.75 11.0491 1.75C11.0503 1.75 11.0515 1.75 11.0526 1.75C11.0538 1.75 11.055 1.75 11.0562 1.75C11.0573 1.75 11.0585 1.75 11.0597 1.75C11.0609 1.75 11.062 1.75 11.0632 1.75C11.0644 1.75 11.0656 1.75 11.0667 1.75C11.0679 1.75 11.0691 1.75 11.0703 1.75C11.0715 1.75 11.0726 1.75 11.0738 1.75C11.075 1.75 11.0762 1.75 11.0773 1.75C11.0785 1.75 11.0797 1.75 11.0809 1.75C11.082 1.75 11.0832 1.75 11.0844 1.75C11.0856 1.75 11.0868 1.75 11.0879 1.75C11.0891 1.75 11.0903 1.75 11.0915 1.75C11.0927 1.75 11.0938 1.75 11.095 1.75C11.0962 1.75 11.0974 1.75 11.0986 1.75C11.0997 1.75 11.1009 1.75 11.1021 1.75C11.1033 1.75 11.1045 1.75 11.1057 1.75C11.1068 1.75 11.108 1.75 11.1092 1.75C11.1104 1.75 11.1116 1.75 11.1127 1.75C11.1139 1.75 11.1151 1.75 11.1163 1.75C11.1175 1.75 11.1187 1.75 11.1198 1.75C11.121 1.75 11.1222 1.75 11.1234 1.75C11.1246 1.75 11.1258 1.75 11.127 1.75C11.1281 1.75 11.1293 1.75 11.1305 1.75C11.1317 1.75 11.1329 1.75 11.1341 1.75C11.1353 1.75 11.1364 1.75 11.1376 1.75C11.1388 1.75 11.14 1.75 11.1412 1.75C11.1424 1.75 11.1436 1.75 11.1447 1.75C11.1459 1.75 11.1471 1.75 11.1483 1.75C11.1495 1.75 11.1507 1.75 11.1519 1.75C11.1531 1.75 11.1543 1.75 11.1554 1.75C11.1566 1.75 11.1578 1.75 11.159 1.75C11.1602 1.75 11.1614 1.75 11.1626 1.75C11.1638 1.75 11.165 1.75 11.1662 1.75C11.1673 1.75 11.1685 1.75 11.1697 1.75C11.1709 1.75 11.1721 1.75 11.1733 1.75C11.1745 1.75 11.1757 1.75 11.1769 1.75C11.1781 1.75 11.1793 1.75 11.1805 1.75C11.1817 1.75 11.1828 1.75 11.184 1.75C11.1852 1.75 11.1864 1.75 11.1876 1.75C11.1888 1.75 11.19 1.75 11.1912 1.75C11.1924 1.75 11.1936 1.75 11.1948 1.75C11.196 1.75 11.1972 1.75 11.1984 1.75C11.1996 1.75 11.2008 1.75 11.202 1.75C11.2032 1.75 11.2044 1.75 11.2056 1.75C11.2068 1.75 11.2079 1.75 11.2091 1.75C11.2103 1.75 11.2115 1.75 11.2127 1.75C11.2139 1.75 11.2151 1.75 11.2163 1.75C11.2175 1.75 11.2187 1.75 11.2199 1.75C11.2211 1.75 11.2223 1.75 11.2235 1.75C11.2247 1.75 11.2259 1.75 11.2271 1.75C11.2283 1.75 11.2295 1.75 11.2307 1.75C11.2319 1.75 11.2331 1.75 11.2343 1.75C11.2355 1.75 11.2367 1.75 11.2379 1.75C11.2391 1.75 11.2403 1.75 11.2415 1.75C11.2427 1.75 11.2439 1.75 11.2451 1.75C11.2463 1.75 11.2476 1.75 11.2488 1.75C11.25 1.75 11.2512 1.75 11.2524 1.75C11.2536 1.75 11.2548 1.75 11.256 1.75C11.2572 1.75 11.2584 1.75 11.2596 1.75C11.2608 1.75 11.262 1.75 11.2632 1.75C11.2644 1.75 11.2656 1.75 11.2668 1.75C11.268 1.75 11.2692 1.75 11.2704 1.75C11.2716 1.75 11.2729 1.75 11.2741 1.75C11.2753 1.75 11.2765 1.75 11.2777 1.75C11.2789 1.75 11.2801 1.75 11.2813 1.75C11.2825 1.75 11.2837 1.75 11.2849 1.75C11.2861 1.75 11.2873 1.75 11.2886 1.75C11.2898 1.75 11.291 1.75 11.2922 1.75C11.2934 1.75 11.2946 1.75 11.2958 1.75C11.297 1.75 11.2982 1.75 11.2994 1.75C11.3007 1.75 11.3019 1.75 11.3031 1.75C11.3043 1.75 11.3055 1.75 11.3067 1.75C11.3079 1.75 11.3091 1.75 11.3103 1.75C11.3116 1.75 11.3128 1.75 11.314 1.75C11.3152 1.75 11.3164 1.75 11.3176 1.75C11.3188 1.75 11.32 1.75 11.3213 1.75C11.3225 1.75 11.3237 1.75 11.3249 1.75C11.3261 1.75 11.3273 1.75 11.3285 1.75C11.3298 1.75 11.331 1.75 11.3322 1.75C11.3334 1.75 11.3346 1.75 11.3358 1.75C11.3371 1.75 11.3383 1.75 11.3395 1.75C11.3407 1.75 11.3419 1.75 11.3431 1.75C11.3444 1.75 11.3456 1.75 11.3468 1.75C11.348 1.75 11.3492 1.75 11.3504 1.75C11.3517 1.75 11.3529 1.75 11.3541 1.75C11.3553 1.75 11.3565 1.75 11.3578 1.75C11.359 1.75 11.3602 1.75 11.3614 1.75C11.3626 1.75 11.3639 1.75 11.3651 1.75C11.3663 1.75 11.3675 1.75 11.3687 1.75C11.37 1.75 11.3712 1.75 11.3724 1.75C11.3736 1.75 11.3748 1.75 11.3761 1.75C11.3773 1.75 11.3785 1.75 11.3797 1.75C11.381 1.75 11.3822 1.75 11.3834 1.75C11.3846 1.75 11.3858 1.75 11.3871 1.75C11.3883 1.75 11.3895 1.75 11.3907 1.75C11.392 1.75 11.3932 1.75 11.3944 1.75C11.3956 1.75 11.3969 1.75 11.3981 1.75C11.3993 1.75 11.4005 1.75 11.4018 1.75C11.403 1.75 11.4042 1.75 11.4054 1.75C11.4067 1.75 11.4079 1.75 11.4091 1.75C11.4103 1.75 11.4116 1.75 11.4128 1.75C11.414 1.75 11.4152 1.75 11.4165 1.75C11.4177 1.75 11.4189 1.75 11.4202 1.75C11.4214 1.75 11.4226 1.75 11.4238 1.75C11.4251 1.75 11.4263 1.75 11.4275 1.75C11.4288 1.75 11.43 1.75 11.4312 1.75C11.4325 1.75 11.4337 1.75 11.4349 1.75C11.4361 1.75 11.4374 1.75 11.4386 1.75C11.4398 1.75 11.4411 1.75 11.4423 1.75C11.4435 1.75 11.4448 1.75 11.446 1.75C11.4472 1.75 11.4485 1.75 11.4497 1.75C11.4509 1.75 11.4522 1.75 11.4534 1.75C11.4546 1.75 11.4559 1.75 11.4571 1.75C11.4583 1.75 11.4596 1.75 11.4608 1.75C11.462 1.75 11.4633 1.75 11.4645 1.75C11.4657 1.75 11.467 1.75 11.4682 1.75C11.4694 1.75 11.4707 1.75 11.4719 1.75C11.4731 1.75 11.4744 1.75 11.4756 1.75C11.4768 1.75 11.4781 1.75 11.4793 1.75C11.4806 1.75 11.4818 1.75 11.483 1.75C11.4843 1.75 11.4855 1.75 11.4867 1.75C11.488 1.75 11.4892 1.75 11.4905 1.75C11.4917 1.75 11.4929 1.75 11.4942 1.75C11.4954 1.75 11.4966 1.75 11.4979 1.75C11.4991 1.75 11.5004 1.75 11.5016 1.75C11.5028 1.75 11.5041 1.75 11.5053 1.75C11.5066 1.75 11.5078 1.75 11.509 1.75C11.5103 1.75 11.5115 1.75 11.5128 1.75C11.514 1.75 11.5153 1.75 11.5165 1.75C11.5177 1.75 11.519 1.75 11.5202 1.75C11.5215 1.75 11.5227 1.75 11.524 1.75C11.5252 1.75 11.5264 1.75 11.5277 1.75C11.5289 1.75 11.5302 1.75 11.5314 1.75C11.5327 1.75 11.5339 1.75 11.5351 1.75C11.5364 1.75 11.5376 1.75 11.5389 1.75C11.5401 1.75 11.5414 1.75 11.5426 1.75C11.5439 1.75 11.5451 1.75 11.5464 1.75C11.5476 1.75 11.5488 1.75 11.5501 1.75C11.5513 1.75 11.5526 1.75 11.5538 1.75C11.5551 1.75 11.5563 1.75 11.5576 1.75C11.5588 1.75 11.5601 1.75 11.5613 1.75C11.5626 1.75 11.5638 1.75 11.5651 1.75C11.5663 1.75 11.5676 1.75 11.5688 1.75C11.5701 1.75 11.5713 1.75 11.5726 1.75C11.5738 1.75 11.5751 1.75 11.5763 1.75C11.5776 1.75 11.5788 1.75 11.5801 1.75C11.5813 1.75 11.5826 1.75 11.5838 1.75C11.5851 1.75 11.5863 1.75 11.5876 1.75C11.5888 1.75 11.5901 1.75 11.5913 1.75C11.5926 1.75 11.5938 1.75 11.5951 1.75C11.5963 1.75 11.5976 1.75 11.5989 1.75C11.6001 1.75 11.6014 1.75 11.6026 1.75C11.6039 1.75 11.6051 1.75 11.6064 1.75C11.6076 1.75 11.6089 1.75 11.6101 1.75C11.6114 1.75 11.6127 1.75 11.6139 1.75C11.6152 1.75 11.6164 1.75 11.6177 1.75C11.6189 1.75 11.6202 1.75 11.6214 1.75C11.6227 1.75 11.624 1.75 11.6252 1.75C11.6265 1.75 11.6277 1.75 11.629 1.75C11.6303 1.75 11.6315 1.75 11.6328 1.75C11.634 1.75 11.6353 1.75 11.6365 1.75C11.6378 1.75 11.6391 1.75 11.6403 1.75C11.6416 1.75 11.6428 1.75 11.6441 1.75C11.6454 1.75 11.6466 1.75 11.6479 1.75C11.6491 1.75 11.6504 1.75 11.6517 1.75C11.6529 1.75 11.6542 1.75 11.6554 1.75C11.6567 1.75 11.658 1.75 11.6592 1.75C11.6605 1.75 11.6618 1.75 11.663 1.75C11.6643 1.75 11.6655 1.75 11.6668 1.75C11.6681 1.75 11.6693 1.75 11.6706 1.75C11.6719 1.75 11.6731 1.75 11.6744 1.75C11.6757 1.75 11.6769 1.75 11.6782 1.75C11.6795 1.75 11.6807 1.75 11.682 1.75C11.6832 1.75 11.6845 1.75 11.6858 1.75C11.687 1.75 11.6883 1.75 11.6896 1.75C11.6908 1.75 11.6921 1.75 11.6934 1.75C11.6946 1.75 11.6959 1.75 11.6972 1.75C11.6984 1.75 11.6997 1.75 11.701 1.75C11.7023 1.75 11.7035 1.75 11.7048 1.75C11.7061 1.75 11.7073 1.75 11.7086 1.75C11.7099 1.75 11.7111 1.75 11.7124 1.75C11.7137 1.75 11.7149 1.75 11.7162 1.75C11.7175 1.75 11.7188 1.75 11.72 1.75C11.7213 1.75 11.7226 1.75 11.7238 1.75C11.7251 1.75 11.7264 1.75 11.7277 1.75C11.7289 1.75 11.7302 1.75 11.7315 1.75C11.7327 1.75 11.734 1.75 11.7353 1.75C11.7366 1.75 11.7378 1.75 11.7391 1.75C11.7404 1.75 11.7417 1.75 11.7429 1.75C11.7442 1.75 11.7455 1.75 11.7467 1.75C11.748 1.75 11.7493 1.75 11.7506 1.75C11.7518 1.75 11.7531 1.75 11.7544 1.75C11.7557 1.75 11.7569 1.75 11.7582 1.75C11.7595 1.75 11.7608 1.75 11.7621 1.75C11.7633 1.75 11.7646 1.75 11.7659 1.75C11.7672 1.75 11.7684 1.75 11.7697 1.75C11.771 1.75 11.7723 1.75 11.7735 1.75C11.7748 1.75 11.7761 1.75 11.7774 1.75C11.7787 1.75 11.7799 1.75 11.7812 1.75C11.7825 1.75 11.7838 1.75 11.7851 1.75C11.7863 1.75 11.7876 1.75 11.7889 1.75C11.7902 1.75 11.7915 1.75 11.7927 1.75C11.794 1.75 11.7953 1.75 11.7966 1.75C11.7979 1.75 11.7991 1.75 11.8004 1.75C11.8017 1.75 11.803 1.75 11.8043 1.75C11.8056 1.75 11.8068 1.75 11.8081 1.75C11.8094 1.75 11.8107 1.75 11.812 1.75C11.8133 1.75 11.8145 1.75 11.8158 1.75C11.8171 1.75 11.8184 1.75 11.8197 1.75C11.821 1.75 11.8222 1.75 11.8235 1.75C11.8248 1.75 11.8261 1.75 11.8274 1.75C11.8287 1.75 11.83 1.75 11.8312 1.75C11.8325 1.75 11.8338 1.75 11.8351 1.75C11.8364 1.75 11.8377 1.75 11.839 1.75C11.8403 1.75 11.8415 1.75 11.8428 1.75C11.8441 1.75 11.8454 1.75 11.8467 1.75C11.848 1.75 11.8493 1.75 11.8506 1.75C11.8518 1.75 11.8531 1.75 11.8544 1.75C11.8557 1.75 11.857 1.75 11.8583 1.75C11.8596 1.75 11.8609 1.75 11.8622 1.75C11.8635 1.75 11.8647 1.75 11.866 1.75C11.8673 1.75 11.8686 1.75 11.8699 1.75C11.8712 1.75 11.8725 1.75 11.8738 1.75C11.8751 1.75 11.8764 1.75 11.8777 1.75C11.879 1.75 11.8802 1.75 11.8815 1.75C11.8828 1.75 11.8841 1.75 11.8854 1.75C11.8867 1.75 11.888 1.75 11.8893 1.75C11.8906 1.75 11.8919 1.75 11.8932 1.75C11.8945 1.75 11.8958 1.75 11.8971 1.75C11.8984 1.75 11.8997 1.75 11.901 1.75C11.9023 1.75 11.9035 1.75 11.9048 1.75C11.9061 1.75 11.9074 1.75 11.9087 1.75C11.91 1.75 11.9113 1.75 11.9126 1.75C11.9139 1.75 11.9152 1.75 11.9165 1.75C11.9178 1.75 11.9191 1.75 11.9204 1.75C11.9217 1.75 11.923 1.75 11.9243 1.75C11.9256 1.75 11.9269 1.75 11.9282 1.75C11.9295 1.75 11.9308 1.75 11.9321 1.75C11.9334 1.75 11.9347 1.75 11.936 1.75C11.9373 1.75 11.9386 1.75 11.9399 1.75C11.9412 1.75 11.9425 1.75 11.9438 1.75C11.9451 1.75 11.9464 1.75 11.9477 1.75C11.949 1.75 11.9503 1.75 11.9516 1.75C11.9529 1.75 11.9542 1.75 11.9555 1.75C11.9568 1.75 11.9581 1.75 11.9594 1.75C11.9607 1.75 11.962 1.75 11.9634 1.75C11.9647 1.75 11.966 1.75 11.9673 1.75C11.9686 1.75 11.9699 1.75 11.9712 1.75C11.9725 1.75 11.9738 1.75 11.9751 1.75C11.9764 1.75 11.9777 1.75 11.979 1.75C11.9803 1.75 11.9816 1.75 11.9829 1.75C11.9842 1.75 11.9855 1.75 11.9869 1.75C11.9882 1.75 11.9895 1.75 11.9908 1.75C11.9921 1.75 11.9934 1.75 11.9947 1.75C11.996 1.75 11.9973 1.75 11.9986 1.75C11.9999 1.75 12.0012 1.75 12.0026 1.75C12.0039 1.75 12.0052 1.75 12.0065 1.75C12.0078 1.75 12.0091 1.75 12.0104 1.75C12.0117 1.75 12.013 1.75 12.0144 1.75C12.0157 1.75 12.017 1.75 12.0183 1.75C12.0196 1.75 12.0209 1.75 12.0222 1.75C12.0235 1.75 12.0248 1.75 12.0262 1.75C12.0275 1.75 12.0288 1.75 12.0301 1.75C12.0314 1.75 12.0327 1.75 12.034 1.75C12.0354 1.75 12.0367 1.75 12.038 1.75C12.0393 1.75 12.0406 1.75 12.0419 1.75C12.0432 1.75 12.0446 1.75 12.0459 1.75C12.0472 1.75 12.0485 1.75 12.0498 1.75C12.0511 1.75 12.0524 1.75 12.0538 1.75C12.0551 1.75 12.0564 1.75 12.0577 1.75C12.059 1.75 12.0604 1.75 12.0617 1.75C12.063 1.75 12.0643 1.75 12.0656 1.75C12.0669 1.75 12.0683 1.75 12.0696 1.75C12.0709 1.75 12.0722 1.75 12.0735 1.75C12.0749 1.75 12.0762 1.75 12.0775 1.75C12.0788 1.75 12.0801 1.75 12.0815 1.75C12.0828 1.75 12.0841 1.75 12.0854 1.75C12.0867 1.75 12.0881 1.75 12.0894 1.75C12.0907 1.75 12.092 1.75 12.0933 1.75C12.0947 1.75 12.096 1.75 12.0973 1.75C12.0986 1.75 12.0999 1.75 12.1013 1.75C12.1026 1.75 12.1039 1.75 12.1052 1.75C12.1066 1.75 12.1079 1.75 12.1092 1.75C12.1105 1.75 12.1119 1.75 12.1132 1.75C12.1145 1.75 12.1158 1.75 12.1172 1.75C12.1185 1.75 12.1198 1.75 12.1211 1.75C12.1225 1.75 12.1238 1.75 12.1251 1.75C12.1264 1.75 12.1278 1.75 12.1291 1.75C12.1304 1.75 12.1317 1.75 12.1331 1.75C12.1344 1.75 12.1357 1.75 12.1371 1.75C12.1384 1.75 12.1397 1.75 12.141 1.75C12.1424 1.75 12.1437 1.75 12.145 1.75C12.1464 1.75 12.1477 1.75 12.149 1.75C12.1503 1.75 12.1517 1.75 12.153 1.75C12.1543 1.75 12.1557 1.75 12.157 1.75C12.1583 1.75 12.1596 1.75 12.161 1.75C12.1623 1.75 12.1636 1.75 12.165 1.75C12.1663 1.75 12.1676 1.75 12.169 1.75C12.1703 1.75 12.1716 1.75 12.173 1.75C12.1743 1.75 12.1756 1.75 12.177 1.75C12.1783 1.75 12.1796 1.75 12.181 1.75C12.1823 1.75 12.1836 1.75 12.185 1.75C12.1863 1.75 12.1876 1.75 12.189 1.75C12.1903 1.75 12.1916 1.75 12.193 1.75C12.1943 1.75 12.1956 1.75 12.197 1.75C12.1983 1.75 12.1996 1.75 12.201 1.75C12.2023 1.75 12.2037 1.75 12.205 1.75C12.2063 1.75 12.2077 1.75 12.209 1.75C12.2103 1.75 12.2117 1.75 12.213 1.75C12.2144 1.75 12.2157 1.75 12.217 1.75C12.2184 1.75 12.2197 1.75 12.221 1.75C12.2224 1.75 12.2237 1.75 12.2251 1.75C12.2264 1.75 12.2277 1.75 12.2291 1.75C12.2304 1.75 12.2318 1.75 12.2331 1.75C12.2344 1.75 12.2358 1.75 12.2371 1.75C12.2385 1.75 12.2398 1.75 12.2411 1.75C12.2425 1.75 12.2438 1.75 12.2452 1.75C12.2465 1.75 12.2479 1.75 12.2492 1.75C12.2505 1.75 12.2519 1.75 12.2532 1.75C12.2546 1.75 12.2559 1.75 12.2573 1.75C12.2586 1.75 12.2599 1.75 12.2613 1.75C12.2626 1.75 12.264 1.75 12.2653 1.75C12.2667 1.75 12.268 1.75 12.2694 1.75C12.2707 1.75 12.272 1.75 12.2734 1.75C12.2747 1.75 12.2761 1.75 12.2774 1.75C12.2788 1.75 12.2801 1.75 12.2815 1.75C12.2828 1.75 12.2842 1.75 12.2855 1.75C12.2869 1.75 12.2882 1.75 12.2896 1.75C12.2909 1.75 12.2922 1.75 12.2936 1.75C12.2949 1.75 12.2963 1.75 12.2976 1.75C12.299 1.75 12.3003 1.75 12.3017 1.75C12.303 1.75 12.3044 1.75 12.3057 1.75C12.3071 1.75 12.3084 1.75 12.3098 1.75C12.3111 1.75 12.3125 1.75 12.3138 1.75C12.3152 1.75 12.3165 1.75 12.3179 1.75C12.3192 1.75 12.3206 1.75 12.322 1.75C12.3233 1.75 12.3247 1.75 12.326 1.75C12.3274 1.75 12.3287 1.75 12.3301 1.75C12.3314 1.75 12.3328 1.75 12.3341 1.75C12.3355 1.75 12.3368 1.75 12.3382 1.75C12.3395 1.75 12.3409 1.75 12.3423 1.75C12.3436 1.75 12.345 1.75 12.3463 1.75C12.3477 1.75 12.349 1.75 12.3504 1.75C12.3517 1.75 12.3531 1.75 12.3545 1.75C12.3558 1.75 12.3572 1.75 12.3585 1.75C12.3599 1.75 12.3612 1.75 12.3626 1.75C12.364 1.75 12.3653 1.75 12.3667 1.75C12.368 1.75 12.3694 1.75 12.3707 1.75C12.3721 1.75 12.3735 1.75 12.3748 1.75C12.3762 1.75 12.3775 1.75 12.3789 1.75C12.3803 1.75 12.3816 1.75 12.383 1.75C12.3843 1.75 12.3857 1.75 12.3871 1.75C12.3884 1.75 12.3898 1.75 12.3911 1.75C12.3925 1.75 12.3939 1.75 12.3952 1.75C12.3966 1.75 12.3979 1.75 12.3993 1.75C12.4007 1.75 12.402 1.75 12.4034 1.75C12.4048 1.75 12.4061 1.75 12.4075 1.75C12.4088 1.75 12.4102 1.75 12.4116 1.75C12.4129 1.75 12.4143 1.75 12.4157 1.75C12.417 1.75 12.4184 1.75 12.4198 1.75C12.4211 1.75 12.4225 1.75 12.4239 1.75C12.4252 1.75 12.4266 1.75 12.428 1.75C12.4293 1.75 12.4307 1.75 12.4321 1.75C12.4334 1.75 12.4348 1.75 12.4362 1.75C12.4375 1.75 12.4389 1.75 12.4403 1.75C12.4416 1.75 12.443 1.75 12.4444 1.75C12.4457 1.75 12.4471 1.75 12.4485 1.75C12.4498 1.75 12.4512 1.75 12.4526 1.75C12.4539 1.75 12.4553 1.75 12.4567 1.75C12.458 1.75 12.4594 1.75 12.4608 1.75C12.4622 1.75 12.4635 1.75 12.4649 1.75C12.4663 1.75 12.4676 1.75 12.469 1.75C12.4704 1.75 12.4718 1.75 12.4731 1.75C12.4745 1.75 12.4759 1.75 12.4772 1.75C12.4786 1.75 12.48 1.75 12.4814 1.75C12.4827 1.75 12.4841 1.75 12.4855 1.75C12.4869 1.75 12.4882 1.75 12.4896 1.75C12.491 1.75 12.4923 1.75 12.4937 1.75C12.4951 1.75 12.4965 1.75 12.4978 1.75C12.4992 1.75 12.5006 1.75 12.502 1.75C12.5033 1.75 12.5047 1.75 12.5061 1.75C12.5075 1.75 12.5089 1.75 12.5102 1.75C12.5116 1.75 12.513 1.75 12.5144 1.75C12.5157 1.75 12.5171 1.75 12.5185 1.75C12.5199 1.75 12.5212 1.75 12.5226 1.75C12.524 1.75 12.5254 1.75 12.5268 1.75C12.5281 1.75 12.5295 1.75 12.5309 1.75C12.5323 1.75 12.5337 1.75 12.535 1.75C12.5364 1.75 12.5378 1.75 12.5392 1.75C12.5406 1.75 12.5419 1.75 12.5433 1.75C12.5447 1.75 12.5461 1.75 12.5475 1.75C12.5488 1.75 12.5502 1.75 12.5516 1.75C12.553 1.75 12.5544 1.75 12.5557 1.75C12.5571 1.75 12.5585 1.75 12.5599 1.75C12.5613 1.75 12.5627 1.75 12.564 1.75C12.5654 1.75 12.5668 1.75 12.5682 1.75C12.5696 1.75 12.571 1.75 12.5724 1.75C12.5737 1.75 12.5751 1.75 12.5765 1.75C12.5779 1.75 12.5793 1.75 12.5807 1.75C12.582 1.75 12.5834 1.75 12.5848 1.75C12.5862 1.75 12.5876 1.75 12.589 1.75C12.5904 1.75 12.5918 1.75 12.5931 1.75C12.5945 1.75 12.5959 1.75 12.5973 1.75C12.5987 1.75 12.6001 1.75 12.6015 1.75C12.6029 1.75 12.6042 1.75 12.6056 1.75C12.607 1.75 12.6084 1.75 12.6098 1.75C12.6112 1.75 12.6126 1.75 12.614 1.75C12.6154 1.75 12.6167 1.75 12.6181 1.75C12.6195 1.75 12.6209 1.75 12.6223 1.75C12.6237 1.75 12.6251 1.75 12.6265 1.75C12.6279 1.75 12.6293 1.75 12.6307 1.75C12.632 1.75 12.6334 1.75 12.6348 1.75C12.6362 1.75 12.6376 1.75 12.639 1.75C12.6404 1.75 12.6418 1.75 12.6432 1.75C12.6446 1.75 12.646 1.75 12.6474 1.75C12.6488 1.75 12.6502 1.75 12.6516 1.75C12.653 1.75 12.6543 1.75 12.6557 1.75C12.6571 1.75 12.6585 1.75 12.6599 1.75C12.6613 1.75 12.6627 1.75 12.6641 1.75C12.6655 1.75 12.6669 1.75 12.6683 1.75C12.6697 1.75 12.6711 1.75 12.6725 1.75C12.6739 1.75 12.6753 1.75 12.6767 1.75C12.6781 1.75 12.6795 1.75 12.6809 1.75C12.6823 1.75 12.6837 1.75 12.6851 1.75C12.6865 1.75 12.6879 1.75 12.6893 1.75C12.6907 1.75 12.6921 1.75 12.6935 1.75C12.6949 1.75 12.6963 1.75 12.6977 1.75C12.6991 1.75 12.7005 1.75 12.7019 1.75C12.7033 1.75 12.7047 1.75 12.7061 1.75C12.7075 1.75 12.7089 1.75 12.7103 1.75C12.7117 1.75 12.7131 1.75 12.7145 1.75C12.7159 1.75 12.7173 1.75 12.7187 1.75C12.7201 1.75 12.7215 1.75 12.7229 1.75C12.7243 1.75 12.7257 1.75 12.7271 1.75C12.7285 1.75 12.7299 1.75 12.7313 1.75C12.7327 1.75 12.7341 1.75 12.7356 1.75C12.737 1.75 12.7384 1.75 12.7398 1.75C12.7412 1.75 12.7426 1.75 12.744 1.75C12.7454 1.75 12.7468 1.75 12.7482 1.75C12.7496 1.75 12.751 1.75 12.7524 1.75C12.7538 1.75 12.7552 1.75 12.7567 1.75C12.7581 1.75 12.7595 1.75 12.7609 1.75C12.7623 1.75 12.7637 1.75 12.7651 1.75C12.7665 1.75 12.7679 1.75 12.7693 1.75C12.7707 1.75 12.7722 1.75 12.7736 1.75C12.775 1.75 12.7764 1.75 12.7778 1.75C12.7792 1.75 12.7806 1.75 12.782 1.75C12.7834 1.75 12.7848 1.75 12.7863 1.75C12.7877 1.75 12.7891 1.75 12.7905 1.75C12.7919 1.75 12.7933 1.75 12.7947 1.75C12.7961 1.75 12.7976 1.75 12.799 1.75C12.8004 1.75 12.8018 1.75 12.8032 1.75C12.8046 1.75 12.806 1.75 12.8075 1.75C12.8089 1.75 12.8103 1.75 12.8117 1.75C12.8131 1.75 12.8145 1.75 12.8159 1.75C12.8174 1.75 12.8188 1.75 12.8202 1.75C12.8216 1.75 12.823 1.75 12.8244 1.75C12.8259 1.75 12.8273 1.75 12.8287 1.75C12.8301 1.75 12.8315 1.75 12.8329 1.75C12.8344 1.75 12.8358 1.75 12.8372 1.75C12.8386 1.75 12.84 1.75 12.8414 1.75C12.8429 1.75 12.8443 1.75 12.8457 1.75C12.8471 1.75 12.8485 1.75 12.85 1.75C12.8514 1.75 12.8528 1.75 12.8542 1.75C12.8556 1.75 12.8571 1.75 12.8585 1.75C12.8599 1.75 12.8613 1.75 12.8627 1.75C12.8642 1.75 12.8656 1.75 12.867 1.75C12.8684 1.75 12.8699 1.75 12.8713 1.75C12.8727 1.75 12.8741 1.75 12.8755 1.75C12.877 1.75 12.8784 1.75 12.8798 1.75C12.8812 1.75 12.8827 1.75 12.8841 1.75C12.8855 1.75 12.8869 1.75 12.8884 1.75C12.8898 1.75 12.8912 1.75 12.8926 1.75C12.8941 1.75 12.8955 1.75 12.8969 1.75C12.8983 1.75 12.8998 1.75 12.9012 1.75C12.9026 1.75 12.904 1.75 12.9055 1.75C12.9069 1.75 12.9083 1.75 12.9097 1.75C12.9112 1.75 12.9126 1.75 12.914 1.75C12.9155 1.75 12.9169 1.75 12.9183 1.75C12.9197 1.75 12.9212 1.75 12.9226 1.75C12.924 1.75 12.9255 1.75 12.9269 1.75C12.9283 1.75 12.9297 1.75 12.9312 1.75C12.9326 1.75 12.934 1.75 12.9355 1.75C12.9369 1.75 12.9383 1.75 12.9398 1.75C12.9412 1.75 12.9426 1.75 12.944 1.75C12.9455 1.75 12.9469 1.75 12.9483 1.75C12.9498 1.75 12.9512 1.75 12.9526 1.75C12.9541 1.75 12.9555 1.75 12.9569 1.75C12.9584 1.75 12.9598 1.75 12.9612 1.75C12.9627 1.75 12.9641 1.75 12.9655 1.75C12.967 1.75 12.9684 1.75 12.9698 1.75C12.9713 1.75 12.9727 1.75 12.9741 1.75C12.9756 1.75 12.977 1.75 12.9784 1.75C12.9799 1.75 12.9813 1.75 12.9828 1.75C12.9842 1.75 12.9856 1.75 12.9871 1.75C12.9885 1.75 12.9899 1.75 12.9914 1.75C12.9928 1.75 12.9942 1.75 12.9957 1.75C12.9971 1.75 12.9986 1.75 13 1.75V0.25ZM5.25 24H18.75V22.5H5.25V24ZM3 21.75C3 22.9812 4.01879 24 5.25 24V22.5C4.84721 22.5 4.5 22.1528 4.5 21.75H3ZM18.75 24C19.9812 24 21 22.9812 21 21.75H19.5C19.5 22.1528 19.1528 22.5 18.75 22.5V24Z" fill="black"/>
</svg>
