<svg fill="none" height="24" viewBox="0 0 25 24" width="24" xmlns="http://www.w3.org/2000/svg"><path clip-rule="evenodd" d="m12.748047 0c-8.6227561-.00949925-13.9403224 9.3598284-9.7363282 16.757812l-2.93945318 6.169922a.750075.750075 0 0 0 .99999998 1l6.1601563-2.933593c6.2822811 3.568422 14.3561401.361086 16.3554691-6.664063 2.041011-7.1716089-3.380252-14.34034855-10.835938-14.330078zm0 1.5a.750075.750075 0 0 0 .0039 0c6.500254-.011193 11.173816 6.1660001 9.394531 12.417969-1.779285 6.251968-9.007062 9.043517-14.5273434 5.611328a.750075.750075 0 0 0 -.7167968-.03906l-4.5664063 2.173828 2.1738281-4.566406a.750075.750075 0 0 0 -.039063-.71875c-4.05960571-6.5231288.5941542-14.8899871 8.2773504-14.878909z" fill="#000"/></svg>