<svg fill="none" height="16" viewBox="0 0 16 16" width="16" xmlns="http://www.w3.org/2000/svg"><path clip-rule="evenodd" d="m8.4765625 0c-2.7252292-.00329911-5.2405498 1.4752546-6.5644531 3.8574219-1.25017485 2.2491369-1.21343089 4.95736 0 7.2031251l-1.83984378 3.867187a.750075.750075 0 0 0 .99999998 1l3.875-1.847656c2.6410988 1.42337 5.8854344 1.19424 8.2460934-.705078 2.483828-1.998711 3.437755-5.354844 2.376953-8.3613281-1.059822-3.0042034-3.906082-5.01769602-7.0917964-5.0136719zm0 1.5a.750075.750075 0 0 0 .00195 0c2.5557354-.0039 4.8283444 1.603208 5.6777344 4.0136719.850818 2.411356.08981 5.0902891-1.902344 6.6933591-1.990822 1.601758-4.7701151 1.770098-6.9394529.419922a.750075.750075 0 0 0 -.71875-.04101l-2.2597625 1.078119 1.0761719-2.265624a.750075.750075 0 0 0 -.0410156-.716797c-1.1535743-1.8551175-1.209766-4.1863122-.1484376-6.0957035 1.0605211-1.90825 3.0707635-3.0891524 5.2539063-3.0859375z" fill="#000"/></svg>