<svg fill="none" height="24" viewBox="0 0 25 24" width="24" xmlns="http://www.w3.org/2000/svg"><path d="m6.4824219.48046875a.72.72 0 0 0 -.7207031.71875005v2.1601562h-3.5996094a2.16 2.16 0 0 0 -2.16015627 2.1601562v15.8398438a2.16 2.16 0 0 0 2.16015627 2.160156h18.7207026a2.16 2.16 0 0 0 2.158204-2.160156v-15.8398438a2.16 2.16 0 0 0 -2.158204-2.1601562h-3.601562v-2.1601562a.72.72 0 0 0 -1.439453 0v2.1601562h-8.6406251v-2.1601562a.72.72 0 0 0 -.71875-.71875005zm-4.3203125 4.32031245h3.5996094v1.4394532a.72.72 0 0 0 1.4394531 0v-1.4394532h8.6406251v1.4394532a.72.72 0 0 0 1.439453 0v-1.4394532h3.601562a.72.72 0 0 1 .71875.71875v3.5996094h-20.1601558v-3.5996094a.72.72 0 0 1 .7207032-.71875zm-.7207032 5.7597658h20.1601558v10.798828a.72.72 0 0 1 -.71875.720703h-18.7207026a.72.72 0 0 1 -.7207032-.720703z" fill="#000" stroke-width=".96" transform="matrix(1.0416667 0 0 1.0416667 0 -.5)"/></svg>