<svg width="17" height="17" viewBox="0 0 17 17" fill="none" xmlns="http://www.w3.org/2000/svg"><path fill-rule="evenodd" clip-rule="evenodd" d="M4.905 0c.44 0 .797.357.797.797v1.257h5.596V.797a.797.797 0 1 1 1.594 0v1.257h1.718A2.39 2.39 0 0 1 17 4.444V14.61A2.39 2.39 0 0 1 14.61 17H2.39A2.39 2.39 0 0 1 0 14.61V4.444a2.39 2.39 0 0 1 2.39-2.39h1.719V.797c0-.44.356-.797.796-.797zm6.393 3.648v.744a.797.797 0 1 0 1.594 0v-.744h1.718c.44 0 .797.356.797.796v1.719H1.593V4.444c0-.44.357-.796.797-.796h1.719v.744a.797.797 0 1 0 1.593 0v-.744h5.596zM1.593 7.756h13.814v6.854c0 .44-.357.797-.797.797H2.39a.797.797 0 0 1-.797-.797V7.756z" fill="#000"/></svg>