<svg width="16" height="16" viewBox="0 0 16 16" fill="none" xmlns="http://www.w3.org/2000/svg"><path d="M6.006 1a.75.75 0 10-1.5 0h1.5zm-1.5 3.256a.75.75 0 101.5 0h-1.5zM11.5 1A.75.75 0 0010 1h1.5zM10 4.256a.75.75 0 001.5 0H10zM2 15.75h12v-1.5H2v1.5zM4.506 1v3.256h1.5V1h-1.5zM10 1v3.256h1.5V1H10zm4 .878H2v1.5h12v-1.5zM.25 3.628V7.5h1.5V3.628H.25zm0 3.872V14h1.5V7.5H.25zm15.5 6.5V7.5h-1.5V14h1.5zm0-6.5V3.628h-1.5V7.5h1.5zM1 8.25h14v-1.5H1v1.5zm13-4.872a.25.25 0 01.25.25h1.5A1.75 1.75 0 0014 1.878v1.5zm0 12.372A1.75 1.75 0 0015.75 14h-1.5a.25.25 0 01-.25.25v1.5zm-12-1.5a.25.25 0 01-.25-.25H.25c0 .966.784 1.75 1.75 1.75v-1.5zM2 1.878a1.75 1.75 0 00-1.75 1.75h1.5a.25.25 0 01.25-.25v-1.5z" fill="#000"/></svg>