<svg fill="none" height="16" viewBox="0 0 17 17" width="16" xmlns="http://www.w3.org/2000/svg"><path d="m4.6171875 0c-.4141176 0-.75.33588235-.75.75v1.1835938h-1.6171875a2.2494118 2.2494118 0 0 0 -2.25 2.2480468v9.5683594a2.2494118 2.2494118 0 0 0 2.25 2.25h11.5a2.2494118 2.2494118 0 0 0 2.25-2.25v-9.5683594a2.2494118 2.2494118 0 0 0 -2.25-2.2480468h-1.617188v-1.1835938a.75011765.75011765 0 0 0 -1.5 0v1.1835938h-5.2656245v-1.1835938c0-.41411765-.3358824-.75-.75-.75zm-2.3671875 3.4335938h1.6171875v.6992187a.75011765.75011765 0 0 0 1.5 0v-.6992187h5.2656245v.6992187a.75011765.75011765 0 0 0 1.5 0v-.6992187h1.617188c.414118 0 .75.3339292.75.7480468v1.6191406h-13v-1.6191406c0-.4141176.3358824-.7480468.75-.7480468zm-.75 3.8652343h13v6.4511719c0 .414118-.335882.75-.75.75h-11.5a.75011765.75011765 0 0 1 -.75-.75z" fill="#000" stroke-width=".941176" transform="scale(1.0625)"/></svg>