<svg width="24" height="24" viewBox="0 0 24 24" fill="none" xmlns="http://www.w3.org/2000/svg"><path d="M18.569 11.441c1.17-.001 2.293.555 3.123 1.547.83.992 1.301 2.34 1.308 3.747 0 .468-.154.917-.43 1.248-.275.331-.648.517-1.037.517H20m-1.431-7.059S16.369 3.5 10.502 3.5c-.167 0-.334.005-.502.014m8.569 7.927L10 11.44m0 0V3.514m0 7.926H1.718m2 7.06a2 2 0 003.985.25m-3.985-.25a2 2 0 113.985.25m-3.985-.25H2.436c-.194 0-.386-.048-.564-.14a1.465 1.465 0 01-.473-.394 1.81 1.81 0 01-.307-.587 2.05 2.05 0 01-.09-.684c.075-2.02.326-3.762.716-5.255M20 18.5a2 2 0 01-3.985.25M20 18.5a2 2 0 10-3.985.25M10 3.514c-3.361.186-6.809 2.28-8.282 7.926m5.985 7.31h8.313" stroke="#000" stroke-width="1.5" stroke-linecap="round" stroke-linejoin="round"/></svg>