<svg width="24" height="24" viewBox="0 0 24 24" fill="none" xmlns="http://www.w3.org/2000/svg"><path d="M4.5 7.25a.75.75 0 000 1.5v-1.5zm3.75 1.5a.75.75 0 000-1.5v1.5zm-3.75 6.5a.75.75 0 000 1.5v-1.5zm15 1.5a.75.75 0 000-1.5v1.5zM2.75 5.25h18.5v-1.5H2.75v1.5zM22.5 6.5v11H24v-11h-1.5zm-1.25 12.25H2.75v1.5h18.5v-1.5zM1.5 17.5v-11H0v11h1.5zm3-8.75h3.75v-1.5H4.5v1.5zm0 8h15v-1.5h-15v1.5zm-1.75 2c-.69 0-1.25-.56-1.25-1.25H0a2.75 2.75 0 002.75 2.75v-1.5zM22.5 17.5c0 .69-.56 1.25-1.25 1.25v1.5A2.75 2.75 0 0024 17.5h-1.5zM21.25 5.25c.69 0 1.25.56 1.25 1.25H24a2.75 2.75 0 00-2.75-2.75v1.5zm-18.5-1.5A2.75 2.75 0 000 6.5h1.5c0-.69.56-1.25 1.25-1.25v-1.5z" fill="#000"/></svg>