<svg width="16" height="16" viewBox="0 0 16 16" fill="none" xmlns="http://www.w3.org/2000/svg"><path d="M15 4.244h.75H15zm0 7.012h-.75.75zm-7-1.85a.75.75 0 000 1.5v-1.5zm4.667 1.5a.75.75 0 000-1.5v1.5zM1.156 7.228a.75.75 0 100 1.5v-1.5zm2.58 1.775a.75.75 0 001.061 1.06l-1.06-1.06zm2.086-1.025l.53.53a.75.75 0 000-1.06l-.53.53zM4.797 5.892a.75.75 0 00-1.06 1.06l1.06-1.06zM.647 3.05a.75.75 0 101.2.898l-1.2-.898zm1.2 8.5a.75.75 0 00-1.2.898l1.2-.898zm.397-7.801h11.511v-1.5H2.245v1.5zm12.006.494v7.012h1.5V4.244h-1.5zm-.495 7.506H2.245v1.5h11.51v-1.5zM8 10.906h4.667v-1.5H8v1.5zm6.25.35a.494.494 0 01-.495.494v1.5a1.994 1.994 0 001.995-1.994h-1.5zm-.495-7.506c.274 0 .495.221.495.494h1.5a1.994 1.994 0 00-1.995-1.994v1.5zm-8.958 6.314l1.556-1.556-1.061-1.06-1.556 1.555 1.061 1.06zm1.556-2.617L4.797 5.892l-1.06 1.06 1.555 1.556 1.06-1.06zm-5.197 1.28h4.666v-1.5H1.156v1.5zM2.244 2.25c-.654 0-1.235.316-1.598.8l1.202.9a.493.493 0 01.396-.2v-1.5zm0 9.5a.493.493 0 01-.396-.2l-1.202.9c.363.484.944.8 1.598.8v-1.5z" fill="#000"/></svg>