<svg width="16" height="16" viewBox="0 0 16 16" fill="none" xmlns="http://www.w3.org/2000/svg">
<path d="M4 5.25C3.58579 5.25 3.25 5.58579 3.25 6C3.25 6.41421 3.58579 6.75 4 6.75V5.25ZM6 6.75C6.41421 6.75 6.75 6.41421 6.75 6C6.75 5.58579 6.41421 5.25 6 5.25V6.75ZM4 9.25C3.58579 9.25 3.25 9.58579 3.25 10C3.25 10.4142 3.58579 10.75 4 10.75V9.25ZM12 10.75C12.4142 10.75 12.75 10.4142 12.75 10C12.75 9.58579 12.4142 9.25 12 9.25V10.75ZM2 4H14V2.5H2V4ZM14.25 4.25V11.5833H15.75V4.25H14.25ZM14 11.8333H2V13.3333H14V11.8333ZM1.75 11.5833V4.25H0.25V11.5833H1.75ZM4 6.75H6V5.25H4V6.75ZM4 10.75H12V9.25H4V10.75ZM2 11.8333C1.86193 11.8333 1.75 11.7214 1.75 11.5833H0.25C0.25 12.5498 1.0335 13.3333 2 13.3333V11.8333ZM14.25 11.5833C14.25 11.7214 14.1381 11.8333 14 11.8333V13.3333C14.9665 13.3333 15.75 12.5498 15.75 11.5833H14.25ZM14 4C14.1381 4 14.25 4.11193 14.25 4.25H15.75C15.75 3.2835 14.9665 2.5 14 2.5V4ZM2 2.5C1.0335 2.5 0.25 3.2835 0.25 4.25H1.75C1.75 4.11193 1.86193 4 2 4V2.5Z" fill="black"/>
</svg>
