<svg fill="none" height="16" viewBox="0 0 16 16" width="16" xmlns="http://www.w3.org/2000/svg"><g fill="#000"><path d="m2.613 8.794a.75.75 0 1 0 -1.226.864z"/><path d="m4.45 12.704.623-.418-.005-.007-.005-.008-.613.432z"/><path d="m6.157 12.754-.588-.465-.005.006-.004.006z"/><path d="m14.588 3.296a.75.75 0 0 0 -1.176-.93z"/><path d="m1.387 9.658 2.45 3.477 1.226-.864-2.45-3.477z"/><path d="m3.827 13.121c.323.483.86.78 1.441.797l.045-1.5a.299.299 0 0 1 -.24-.132z"/><path d="m5.268 13.918a1.799 1.799 0 0 0 1.486-.71l-1.194-.907a.3.3 0 0 1 -.247.118z"/><path d="m6.745 13.219 7.843-9.923-1.176-.93-7.843 9.923z"/></g></svg>