<svg fill="none" height="24" viewBox="0 0 24 24" width="24" xmlns="http://www.w3.org/2000/svg"><g fill="#000"><path d="m3.613 13.407a.75.75 0 0 0 -1.226.864z"/><path d="m6.675 19.055.623-.417-.01-.015z"/><path d="m9.235 19.131-.588-.465a.39.39 0 0 0 -.009.012l.598.453z"/><path d="m21.588 4.712a.75.75 0 0 0 -1.176-.93z"/><path d="m2.387 14.272 3.675 5.215 1.226-.864-3.675-5.216-1.226.864z"/><path d="m6.052 19.472a2.324 2.324 0 0 0 1.861 1.03l.045-1.5a.823.823 0 0 1 -.66-.364z"/><path d="m7.913 20.502c.75.023 1.466-.32 1.92-.917l-1.195-.907a.823.823 0 0 1 -.68.325l-.045 1.5z"/><path d="m9.823 19.597 11.766-14.886-1.176-.93-11.766 14.885 1.177.93z"/></g></svg>