<svg width="16" height="16" viewBox="0 0 16 16" fill="none" xmlns="http://www.w3.org/2000/svg"><g clip-path="url(#clip0)"><path fill-rule="evenodd" clip-rule="evenodd" d="M15.828 1.514a.75.75 0 10-1.152-.96L6.772 10.04a.368.368 0 01-.582-.022L3.777 6.641a.75.75 0 10-1.22.872l2.412 3.377a1.868 1.868 0 002.955.11l7.904-9.486zM1.498 8.517c0-3.168 2.53-5.699 5.699-5.699.9 0 1.787.194 2.53.566a.75.75 0 00.672-1.342c-.976-.488-2.096-.724-3.202-.724a7.172 7.172 0 00-7.2 7.2c0 3.996 3.203 7.198 7.2 7.198 3.997 0 7.2-3.202 7.2-7.199a9.54 9.54 0 00-.154-1.556.75.75 0 10-1.48.246c.07.422.133.873.133 1.31 0 3.169-2.53 5.7-5.699 5.7s-5.7-2.531-5.7-5.7z" fill="#000"/></g><defs/></svg>