<svg fill="none" height="16" viewBox="0 0 16 16" width="16" xmlns="http://www.w3.org/2000/svg"><g fill="#000"><path d="m15.828 1.514a.75.75 0 1 0 -1.152-.96l-7.904 9.486a.368.368 0 0 1 -.582-.022l-2.413-3.377a.75.75 0 1 0 -1.22.872l2.412 3.377a1.868 1.868 0 0 0 2.955.11z"/><path d="m1.498 8.517a5.672 5.672 0 0 1 5.699-5.699c.9 0 1.787.194 2.53.566a.75042455.75042455 0 0 0 .672-1.342c-.976-.488-2.096-.724-3.202-.724a7.172 7.172 0 0 0 -7.2 7.2 7.173 7.173 0 0 0 7.2 7.198c3.997 0 7.2-3.202 7.2-7.199a9.54 9.54 0 0 0 -.154-1.556.75015265.75015265 0 1 0 -1.48.246c.07.422.133.873.133 1.31 0 3.169-2.53 5.7-5.699 5.7s-5.7-2.531-5.7-5.7z"/></g></svg>