<svg fill="none" height="24" viewBox="0 0 24 24" width="24" xmlns="http://www.w3.org/2000/svg"><g fill="#000"><path d="m23.827 1.672a.75.75 0 0 0 -1.152-.96l-12.263 14.718a.984.984 0 0 1 -1.557-.058l-3.743-5.24a.75.75 0 1 0 -1.22.872l3.743 5.24a2.484 2.484 0 0 0 3.93.146l12.261-14.718z"/><path d="m1.5 12.802a9.214 9.214 0 0 1 9.255-9.255c1.454 0 2.894.312 4.112.921a.75.75 0 1 0 .67-1.341c-1.45-.725-3.123-1.08-4.782-1.08a10.714 10.714 0 0 0 -10.755 10.755 10.714 10.714 0 0 0 10.755 10.756 10.714 10.714 0 0 0 10.755-10.756c0-.842-.12-1.671-.233-2.346a.75015265.75015265 0 1 0 -1.48.246c.11.659.213 1.387.213 2.1a9.214 9.214 0 0 1 -9.256 9.256 9.214 9.214 0 0 1 -9.254-9.256z"/></g></svg>