<svg width="24" height="24" viewBox="0 0 24 24" fill="none" xmlns="http://www.w3.org/2000/svg">
<path fill-rule="evenodd" clip-rule="evenodd" d="M4.78033 3.91449C4.48744 3.6216 4.01256 3.6216 3.71967 3.91449C3.42678 4.20739 3.42678 4.68226 3.71967 4.97515L10.9393 12.1948L3.71967 19.4145C3.42678 19.7074 3.42678 20.1823 3.71967 20.4752C4.01256 20.768 4.48744 20.768 4.78033 20.4752L12 13.2555L19.2197 20.4752C19.5126 20.768 19.9874 20.768 20.2803 20.4752C20.5732 20.1823 20.5732 19.7074 20.2803 19.4145L13.0607 12.1948L20.2803 4.97515C20.5732 4.68226 20.5732 4.20739 20.2803 3.91449C19.9874 3.6216 19.5126 3.6216 19.2197 3.91449L12 11.1342L4.78033 3.91449Z" fill="black"/>
</svg>
