<svg width="16" height="16" viewBox="0 0 16 16" fill="none" xmlns="http://www.w3.org/2000/svg"><path d="M1 2.59v9.508M1 2.59c0 .879 2.137 1.59 4.773 1.59 2.636 0 4.773-.711 4.773-1.59M1 2.59C1 1.712 3.137 1 5.773 1c2.636 0 4.773.712 4.773 1.59M1 2.59v3.144m0 6.364c0 .9 2.137 1.63 4.773 1.63h.67M1 12.097V8.916m9.546-6.325v4.753m0-4.753v3.143M1 8.916c0 .842 1.873 1.536 4.275 1.62h.18M1 8.917V5.734m0 0c0 .9 2.137 1.63 4.773 1.63 2.636 0 4.773-.73 4.773-1.63m0 0v1.61m0 0v.819M5.455 9.75c0-.879 2.136-1.59 4.772-1.59.107 0 .213 0 .319.003M5.455 9.75c0 .9 2.136 1.63 4.772 1.63S15 10.65 15 9.75m-9.545 0v.787M15 9.75v2.984c0 .9-2.137 1.63-4.773 1.63-1.54 0-2.91-.25-3.784-.637M15 9.75c0-.843-1.967-1.533-4.454-1.587m-5.091 2.374v2.197c0 .374.368.718.988.993" stroke="#000" stroke-width="1.5" stroke-linecap="round" stroke-linejoin="round"/></svg>