<svg width="16" height="16" viewBox="0 0 16 16" fill="none" xmlns="http://www.w3.org/2000/svg">
<path d="M13.9298 4.05014L14.5899 3.38996C14.7199 3.25996 14.8231 3.10562 14.8934 2.93577C14.9638 2.76591 15 2.58386 15 2.40001C15 2.21616 14.9638 2.0341 14.8934 1.86425C14.8231 1.69439 14.7199 1.54006 14.5899 1.41005C14.4599 1.28005 14.3056 1.17693 14.1358 1.10657C13.9659 1.03621 13.7838 1 13.6 1C13.2287 1 12.8726 1.1475 12.61 1.41005L11.9499 2.07023M13.9298 4.05014L8.65022 9.32969L6.34053 9.66009L6.67031 7.34978L11.9499 2.07023M13.9298 4.05014L11.9499 2.07023M6 3.80063H1.93333C1.6858 3.80063 1.4484 3.89896 1.27337 4.074C1.09833 4.24903 1 4.48643 1 4.73396V14.0673C1 14.3148 1.09833 14.5522 1.27337 14.7273C1.4484 14.9023 1.6858 15.0006 1.93333 15.0006H11.2667C11.5142 15.0006 11.7516 14.9023 11.9266 14.7273C12.1017 14.5522 12.2 14.3148 12.2 14.0673V10" stroke="black" stroke-width="1.5" stroke-linecap="round" stroke-linejoin="round"/>
</svg>
