<svg width="24" height="24" viewBox="0 0 25 25" fill="none" xmlns="http://www.w3.org/2000/svg"><path d="M.902 22.54l.675.362-.675-.361zm.201 1.357l-.542.54.001.002.541-.542zm1.357.201l-.36-.676.36.676zm7.603-9.156l-.542.542.542-.542zm-2.09-5.675l-.542-.542-.001.001.542.541zm5.673 2.09l.542-.54v-.001l-.542.542zm2.865.812a.766.766 0 101.083 1.083L16.51 12.17zm7.168 1.083a.766.766 0 001.082-1.083l-1.082 1.083zm-11.946-5.86a.766.766 0 101.083 1.083l-1.083-1.083zM12.816.224a.766.766 0 10-1.084 1.082L12.816.225zm5.657 7.708a.766.766 0 10.484 1.453l-.484-1.453zm4.068.26a.766.766 0 10-.484-1.453l.484 1.453zM15.6 6.03a.766.766 0 101.453.485L15.6 6.029zm2.648-3.1a.766.766 0 00-1.453-.484l1.453.484zM15.792 8.3l-.542-.542-.001.001.543.54zm.722 0l.543-.541-.002-.001-.541.541zm-7.59-2.265l-.542-.541-.002.001.543.54zm-.723 0l.543-.54-.001-.001-.542.541zm12.747-1.256l.54.543.002-.002-.542-.541zm-.722 0l-.542.541.002.002.54-.543zM6.937 9.609L.227 22.18l1.35.722 6.711-12.57-1.351-.722zM.227 22.18a1.917 1.917 0 00.334 2.259l1.084-1.082a.385.385 0 01-.068-.454l-1.35-.723zm.335 2.26a1.919 1.919 0 002.26.335l-.723-1.352a.386.386 0 01-.455-.067L.562 24.439zm2.259.335l12.61-6.724-.721-1.352L2.1 23.422l.72 1.352zm12.374-8.283c-.156.157-.629.31-1.597-.047-.901-.332-1.981-1.031-2.994-2.043l-1.083 1.083c1.133 1.132 2.395 1.973 3.547 2.398 1.086.4 2.377.526 3.21-.308l-1.083-1.083zm-4.59-2.09c-1.012-1.013-1.711-2.093-2.043-2.994-.357-.967-.204-1.442-.047-1.6L7.43 8.728c-.832.834-.706 2.124-.306 3.21.425 1.152 1.265 2.414 2.397 3.547l1.084-1.083zM8.514 9.809c.156-.156.629-.309 1.598.048.901.333 1.981 1.032 2.993 2.043l1.083-1.084c-1.132-1.131-2.394-1.971-3.546-2.396-1.085-.4-2.377-.528-3.211.305L8.514 9.81zm4.59 2.09c1.013 1.013 1.713 2.093 2.044 2.995.357.968.204 1.441.047 1.597l1.084 1.084c.833-.834.707-2.125.307-3.21-.425-1.154-1.265-2.416-2.398-3.549L13.105 11.9zm4.49 1.353a4.306 4.306 0 016.084 0l1.083-1.083a5.838 5.838 0 00-8.25 0l1.083 1.083zm-4.778-4.777a5.834 5.834 0 000-8.25l-1.084 1.082a4.302 4.302 0 010 6.085l1.084 1.083zm6.141.911l3.584-1.193-.484-1.453-3.584 1.193.484 1.453zm-1.904-2.872l1.195-3.585-1.453-.484L15.6 6.029l1.453.485zm-1.08 1.967c.1-.1.26-.1.36 0L15.25 9.564a1.277 1.277 0 001.805 0L15.972 8.48zm.36 0c.101.1.1.26.002.357l-1.086-1.08a1.28 1.28 0 00.001 1.806l1.084-1.083zm0 .359c-.1.1-.26.1-.36 0l1.082-1.083a1.277 1.277 0 00-1.805 0l1.084 1.083zm-.362-.002a.253.253 0 01.001-.357l1.083 1.083a1.28 1.28 0 00.002-1.806l-1.086 1.08zM8.38 5.494c.1-.1.263-.1.363 0l-1.086 1.08c.499.502 1.31.502 1.808 0L8.38 5.495zm.362-.001c.1.1.1.26 0 .36L7.66 4.772a1.277 1.277 0 000 1.805l1.083-1.083zm0 .36c-.1.1-.261.1-.361 0l1.083-1.082a1.277 1.277 0 00-1.805 0l1.083 1.083zm-.361 0c-.1-.1-.1-.26 0-.36l1.083 1.083a1.277 1.277 0 000-1.805L8.382 5.854zm12.026-1.618c.1-.1.259-.1.358 0l-1.08 1.086a1.279 1.279 0 001.802 0l-1.08-1.086zm.36.001c.1.1.1.261 0 .361l-1.084-1.083a1.277 1.277 0 000 1.805l1.084-1.083zm0 .361c-.1.1-.262.1-.361 0l1.083-1.083a1.277 1.277 0 00-1.805 0l1.083 1.083zm-.361 0c-.1-.1-.1-.261 0-.361l1.083 1.083a1.277 1.277 0 000-1.805l-1.083 1.083zm-.678 9.856c.1-.1.262-.1.361 0l-1.083 1.083a1.277 1.277 0 001.805 0l-1.083-1.083zm.361 0c.1.1.1.26 0 .36l-1.083-1.082a1.277 1.277 0 000 1.805l1.083-1.083zm0 .36c-.1.1-.26.1-.36 0l1.082-1.082a1.277 1.277 0 00-1.805 0l1.083 1.083zm-.36 0c-.1-.1-.1-.26 0-.36l1.082 1.083a1.277 1.277 0 000-1.805l-1.083 1.083z" fill="#000"/></svg>