<svg width="16" height="16" viewBox="0 0 16 16" fill="none" xmlns="http://www.w3.org/2000/svg">
<path d="M13.5992 6.12722C13.2915 6.12739 12.9868 6.06666 12.7026 5.94853C12.4184 5.8304 12.1604 5.6572 11.9434 5.4389C11.7264 5.22061 11.5547 4.96153 11.4383 4.67658C11.3218 4.39163 11.2628 4.08645 11.2647 3.77859C10.8622 4.08784 10.3694 4.2562 9.86191 4.25779C9.47523 4.25811 9.09453 4.16232 8.75402 3.97901C8.41351 3.79571 8.12386 3.53064 7.9111 3.20762C7.69833 2.88461 7.56912 2.51377 7.53508 2.12844C7.50104 1.7431 7.56323 1.35534 7.71607 1C6.25237 1.05944 4.84421 1.57678 3.68992 2.47912C2.53564 3.38147 1.69342 4.62335 1.28189 6.02984C0.870366 7.43632 0.910278 8.93652 1.396 10.3191C1.88173 11.7017 2.7888 12.897 3.98942 13.7367C5.19005 14.5763 6.62373 15.018 8.08851 14.9994C9.55329 14.9809 10.9754 14.5031 12.1544 13.6334C13.3334 12.7636 14.2099 11.5458 14.6606 10.1513C15.1112 8.75687 15.1132 7.25614 14.6662 5.86052C14.3372 6.03407 13.9712 6.12557 13.5992 6.12722Z" stroke="black" stroke-width="1.5" stroke-linecap="round" stroke-linejoin="round"/>
<path d="M5.5 8C6.32843 8 7 7.32843 7 6.5C7 5.67157 6.32843 5 5.5 5C4.67157 5 4 5.67157 4 6.5C4 7.32843 4.67157 8 5.5 8Z" stroke="black" stroke-width="1.5" stroke-linecap="round" stroke-linejoin="round"/>
<path d="M8 11C8 11.5523 7.55228 12 7 12C6.44772 12 6 11.5523 6 11C6 10.4477 6.44772 10 7 10C7.55228 10 8 10.4477 8 11Z" fill="black"/>
<path d="M12 9C12 9.55228 11.5523 10 11 10C10.4477 10 10 9.55228 10 9C10 8.44772 10.4477 8 11 8C11.5523 8 12 8.44772 12 9Z" fill="black"/>
</svg>
