<svg width="24" height="24" viewBox="0 0 24 24" fill="none" xmlns="http://www.w3.org/2000/svg">
<path d="M20.7988 9.05706C20.3152 9.05733 19.8364 8.9619 19.3898 8.77626C18.9432 8.59063 18.5378 8.31846 18.1968 7.97542C17.8558 7.63239 17.586 7.22526 17.403 6.77748C17.2199 6.32971 17.1272 5.85013 17.1302 5.36636C16.4978 5.85231 15.7233 6.11689 14.9259 6.11939C14.3182 6.11989 13.72 5.96935 13.1849 5.6813C12.6498 5.39325 12.1946 4.97671 11.8603 4.46912C11.526 3.96153 11.3229 3.37878 11.2694 2.77326C11.2159 2.16773 11.3136 1.55839 11.5538 1C9.25373 1.09341 7.04089 1.90636 5.22702 3.32433C3.41315 4.74231 2.08966 6.69384 1.44297 8.90403C0.796289 11.1142 0.859008 13.4717 1.62229 15.6443C2.38558 17.817 3.81097 19.6953 5.69766 21.0148C7.58436 22.3342 9.83729 23.0282 12.1391 22.9991C14.4409 22.97 16.6756 22.2192 18.5283 20.8524C20.381 19.4857 21.7585 17.5719 22.4666 15.3806C23.1747 13.1894 23.1779 10.8311 22.4755 8.63795C21.9585 8.91068 21.3833 9.05446 20.7988 9.05706Z" stroke="black" stroke-width="1.5" stroke-linecap="round" stroke-linejoin="round"/>
<path d="M7.5 13C8.88071 13 10 11.8807 10 10.5C10 9.11929 8.88071 8 7.5 8C6.11929 8 5 9.11929 5 10.5C5 11.8807 6.11929 13 7.5 13Z" stroke="black" stroke-width="1.5" stroke-linecap="round" stroke-linejoin="round"/>
<path d="M14.5 19C15.3284 19 16 18.3284 16 17.5C16 16.6716 15.3284 16 14.5 16C13.6716 16 13 16.6716 13 17.5C13 18.3284 13.6716 19 14.5 19Z" stroke="black" stroke-width="1.5" stroke-linecap="round" stroke-linejoin="round"/>
<path d="M8 17C8 17.5523 7.55228 18 7 18C6.44772 18 6 17.5523 6 17C6 16.4477 6.44772 16 7 16C7.55228 16 8 16.4477 8 17Z" fill="black"/>
<path d="M15 10C15 10.5523 14.5523 11 14 11C13.4477 11 13 10.5523 13 10C13 9.44772 13.4477 9 14 9C14.5523 9 15 9.44772 15 10Z" fill="black"/>
<path d="M20 13C20 13.5523 19.5523 14 19 14C18.4477 14 18 13.5523 18 13C18 12.4477 18.4477 12 19 12C19.5523 12 20 12.4477 20 13Z" fill="black"/>
</svg>
