<svg width="16" height="16" viewBox="0 0 16 16" fill="none" xmlns="http://www.w3.org/2000/svg"><path d="M13.6 6.127a2.333 2.333 0 01-2.335-2.348 2.314 2.314 0 01-2.511.2A2.334 2.334 0 017.716 1a6.998 6.998 0 00-6.434 5.03 7.006 7.006 0 002.707 7.707 6.998 6.998 0 0010.672-3.586 7.005 7.005 0 00.005-4.29 2.309 2.309 0 01-1.067.266z" stroke="#000" stroke-width="1.5" stroke-linecap="round" stroke-linejoin="round"/><path d="M5.5 8a1.5 1.5 0 100-3 1.5 1.5 0 000 3z" stroke="#000" stroke-width="1.5" stroke-linecap="round" stroke-linejoin="round"/><path d="M8 11a1 1 0 11-2 0 1 1 0 012 0zm4-2a1 1 0 11-2 0 1 1 0 012 0z" fill="#000"/></svg>