<svg width="16" height="16" viewBox="0 0 16 16" fill="none" xmlns="http://www.w3.org/2000/svg">
<path d="M13.4545 6.11538L12.5455 5.13636M13.4545 6.11538C13.4545 6.45453 13.4545 6.79367 13.4545 7.13281M13.4545 6.11538V7.13281M5.13585 15H12.4545C13.0068 15 13.4545 14.5523 13.4545 14C13.4545 11.7109 13.4545 9.42187 13.4545 7.13281M6.5303 1H3C2.44772 1 2 1.44538 2 1.99766C2 5.08466 2 9.80581 2 11.8478C2 12.4001 2.44772 12.8462 3 12.8462H9.36364C9.91592 12.8462 10.3636 12.3984 10.3636 11.8462V4.96154M6.5303 1H7.10307C7.37596 1 7.637 1.11152 7.82565 1.30871L10.0862 3.67156C10.2643 3.85767 10.3636 4.10529 10.3636 4.36285V4.96154M6.5303 1V3.96154C6.5303 4.51382 6.97802 4.96154 7.5303 4.96154H10.3636M13.4545 7.13281H12.5455" stroke="black" stroke-width="1.5" stroke-linecap="round" stroke-linejoin="round"/>
</svg>
