<svg width="16" height="16" viewBox="0 0 16 16" fill="none" xmlns="http://www.w3.org/2000/svg"><path d="M1.156 3.333l1.4 2.334 2.333-1.4m.74-3.174A4.201 4.201 0 002.88 5.378m11.964 7.289l-1.4-2.334-2.333 1.4m-.74 3.174a4.201 4.201 0 002.749-4.284m-1.256-8.056h-1.849c-.283 0-.557.099-.776.277a1.207 1.207 0 00-.294 1.51c.135.247.353.44.616.544l1.876.744c.263.105.48.297.616.544a1.2 1.2 0 01-.294 1.51 1.227 1.227 0 01-.776.277H9.136M10.5 2.568V1.5m0 7.5V7.973M5.608 14a2.74 2.74 0 01-1.929-.792 2.69 2.69 0 01-.799-1.91c0-.718.288-1.405.8-1.912a2.74 2.74 0 011.928-.791m-4.091 2.702h4.09" stroke="#000" stroke-width="1.5" stroke-linecap="round" stroke-linejoin="round"/></svg>