<svg width="24" height="24" viewBox="0 0 24 24" fill="none" xmlns="http://www.w3.org/2000/svg"><path d="M18.75 3.75h-2.033a1.342 1.342 0 00-.5 2.587l2.064.826a1.342 1.342 0 01-.5 2.587H15.75m1.5-6V3m0 7.5v-.75m-9 10.5a3 3 0 010-6m-3.75 3h3.75M1 4.5l2.25 3.75m0 0L7 6M3.25 8.25l.522-.464A6.752 6.752 0 018.189.9M23 19.5l-2.25-3.75m0 0L17 18m3.75-2.25l-.522.466a6.752 6.752 0 01-4.417 6.884M23.25 6.75a6 6 0 11-12 0 6 6 0 0112 0zm-10.5 10.5a6 6 0 11-12 0 6 6 0 0112 0z" stroke="#000" stroke-width="1.5" stroke-linecap="round" stroke-linejoin="round"/></svg>