<svg width="24" height="24" viewBox="0 0 24 24" fill="none" xmlns="http://www.w3.org/2000/svg"><path d="M12 22l-.436.61a.75.75 0 00.872 0L12 22zm3.436-1.533a.75.75 0 10-.872-1.22l.872 1.22zm-6-1.22a.75.75 0 00-.872 1.22l.872-1.22zM7 13.25a.75.75 0 000 1.5v-1.5zm9.5 1.5a.75.75 0 000-1.5v1.5zm-4.064 7.86l3-2.143-.872-1.22-3 2.143.872 1.22zm-3.872-2.143l3 2.143.872-1.22-3-2.143-.872 1.22zM2 3.75h20v-1.5H2v1.5zM22.25 4v12h1.5V4h-1.5zM22 16.25H2v1.5h20v-1.5zM1.75 16V4H.25v12h1.5zm.25.25a.25.25 0 01-.25-.25H.25c0 .966.784 1.75 1.75 1.75v-1.5zM22.25 16a.25.25 0 01-.25.25v1.5A1.75 1.75 0 0023.75 16h-1.5zM22 3.75a.25.25 0 01.25.25h1.5A1.75 1.75 0 0022 2.25v1.5zM2 2.25A1.75 1.75 0 00.25 4h1.5A.25.25 0 012 3.75v-1.5zm5 12.5h9.5v-1.5H7v1.5zM5 6.5a1 1 0 11-2 0 1 1 0 012 0zM13 6.5a1 1 0 11-2 0 1 1 0 012 0zM9 6.5a1 1 0 11-2 0 1 1 0 012 0zM17 6.5a1 1 0 11-2 0 1 1 0 012 0zM21 6.5a1 1 0 11-2 0 1 1 0 012 0zM7 9.5a1 1 0 11-2 0 1 1 0 012 0zM15 9.5a1 1 0 11-2 0 1 1 0 012 0zM11 9.5a1 1 0 11-2 0 1 1 0 012 0zM19 9.5a1 1 0 11-2 0 1 1 0 012 0z" fill="#000"/></svg>