<svg width="16" height="16" viewBox="0 0 16 16" fill="none" xmlns="http://www.w3.org/2000/svg"><path d="M10.59 3.5L8.618 1.328A1 1 0 007.878 1H2a1 1 0 00-1 1v12a1 1 0 001 1h1m7.5-3.273v-2m4.36 3.405a1.258 1.258 0 01-.059 1.256 1.314 1.314 0 01-.484.449 1.363 1.363 0 01-.648.163H7.331a1.37 1.37 0 01-.649-.163 1.313 1.313 0 01-.484-.449 1.262 1.262 0 01-.057-1.256L9.31 7.714a1.3 1.3 0 01.49-.521 1.361 1.361 0 011.4 0c.21.126.38.306.49.52l3.17 5.42z" stroke="#000" stroke-width="1.5" stroke-linecap="round" stroke-linejoin="round"/><path d="M10.512 12.86a.528.528 0 100 1.055.528.528 0 000-1.056z" fill="#000"/></svg>