<svg width="16" height="16" viewBox="0 0 16 16" fill="none" xmlns="http://www.w3.org/2000/svg"><path d="M10.59 3.5L8.618 1.328A1 1 0 007.878 1H2a1 1 0 00-1 1v12a1 1 0 001 1h4m4.242-3.645l-.394 3.4a.406.406 0 00.215.435.42.42 0 00.486-.073L11.683 14l1.135 1.117a.42.42 0 00.486.073.407.407 0 00.216-.436l-.4-3.42m-1.453.5c1.288 0 2.333-1.03 2.333-2.299 0-1.27-1.045-2.298-2.333-2.298-1.29 0-2.334 1.029-2.334 2.298 0 1.27 1.045 2.298 2.334 2.298z" stroke="#000" stroke-width="1.5" stroke-linecap="round" stroke-linejoin="round"/></svg>