<svg width="16" height="16" viewBox="0 0 16 16" fill="none" xmlns="http://www.w3.org/2000/svg"><path d="M8.62 1.354l-.573.484.573-.484zm.398 1.63a.75.75 0 101.144-.969l-1.144.97zM5 15.75a.75.75 0 000-1.5v1.5zm9.47-.22a.75.75 0 101.06-1.06l-1.06 1.06zm-.494-2.615a.75.75 0 00-1.06 1.06l1.06-1.06zM2 1.75h5.856V.25H2v1.5zM1.75 14V2H.25v12h1.5zM8.047 1.838l.97 1.147 1.145-.97L9.192.87l-1.145.97zM5 14.25H2v1.5h3v-1.5zM.25 14c0 .966.784 1.75 1.75 1.75v-1.5a.25.25 0 01-.25-.25H.25zM7.856 1.75a.25.25 0 01.191.088L9.192.87A1.75 1.75 0 007.856.25v1.5zM2 .25A1.75 1.75 0 00.25 2h1.5A.25.25 0 012 1.75V.25zm10.204 9.227a2.727 2.727 0 01-2.727 2.727v1.5a4.227 4.227 0 004.227-4.227h-1.5zm-2.727 2.727A2.727 2.727 0 016.75 9.477h-1.5a4.227 4.227 0 004.227 4.227v-1.5zM6.75 9.477A2.727 2.727 0 019.477 6.75v-1.5A4.227 4.227 0 005.25 9.477h1.5zM9.477 6.75a2.727 2.727 0 012.727 2.727h1.5A4.227 4.227 0 009.477 5.25v1.5zm3.438 7.226l1.555 1.554 1.06-1.06-1.554-1.555-1.06 1.06z" fill="#000"/></svg>