<svg width="16" height="16" viewBox="0 0 16 16" fill="none" xmlns="http://www.w3.org/2000/svg"><path d="M10.718 4.985a.75.75 0 001.144-.97l-1.144.97zM4 15.593a.75.75 0 000-1.5v1.5zM2 1v.75V1zm5.857 0v.75V1zm.763.353l-.572.485.572-.485zm-6.87 12.49V2H.25v11.843h1.5zM2 1.75h5.857V.25H2v1.5zm6.048.088l2.67 3.147 1.144-.97L9.192.868l-1.144.97zM2 15.593h2v-1.5H2v1.5zM1.75 2A.25.25 0 012 1.75V.25A1.75 1.75 0 00.25 2h1.5zM.25 13.843c0 .966.784 1.75 1.75 1.75v-1.5a.25.25 0 01-.25-.25H.25zM7.857 1.75a.25.25 0 01.19.088l1.144-.97A1.75 1.75 0 007.857.25v1.5zM6.11 8H4.25v4.667h1v-1.8h.86c1.007 0 1.593-.527 1.593-1.434C7.703 8.527 7.117 8 6.11 8zm-.16 2.067h-.7V8.8h.7c.507 0 .74.2.74.633 0 .434-.233.634-.74.634zM9.738 8H8.37v4.667h1.367c1.453 0 2.38-.927 2.38-2.334C12.118 8.927 11.19 8 9.738 8zm-.094 3.867h-.273V8.8h.273c.914 0 1.454.6 1.454 1.533 0 .934-.54 1.534-1.454 1.534zM15.906 8.8V8h-2.867v4.667h1V10.74h1.6v-.8h-1.6V8.8h1.867z" fill="#000"/></svg>