<svg width="24" height="24" viewBox="0 0 24 24" fill="none" xmlns="http://www.w3.org/2000/svg"><path d="M2.5 1v.75V1zm10.036 0V.25 1zm4.968 6.484a.75.75 0 001.145-.968l-1.145.968zM13.3 1.354l.572-.484-.572.484zm8.67 21.676a.75.75 0 101.06-1.06l-1.06 1.06zm-1.44-3.56a.75.75 0 10-1.06 1.06l1.06-1.06zM5 5.75h5.5v-1.5H5v1.5zm0 3h6.5v-1.5H5v1.5zm0 11h3.5v-1.5H5v1.5zm-2.5-18h10.036V.25H2.5v1.5zm0 22H12v-1.5H2.5v1.5zM.75 2v20h1.5V2H.75zm17.9 4.516L13.872.87l-1.145.969 4.777 5.645 1.145-.968zM2.5 22.25a.25.25 0 01-.25-.25H.75c0 .966.784 1.75 1.75 1.75v-1.5zm10.036-20.5a.25.25 0 01.191.089l1.145-.97A1.75 1.75 0 0012.536.25v1.5zM2.5.25A1.75 1.75 0 00.75 2h1.5a.25.25 0 01.25-.25V.25zm16.523 14.886a3.886 3.886 0 01-3.887 3.887v1.5a5.386 5.386 0 005.387-5.387h-1.5zm-3.887 3.887a3.886 3.886 0 01-3.886-3.887h-1.5a5.386 5.386 0 005.386 5.387v-1.5zm-3.886-3.887a3.886 3.886 0 013.886-3.886v-1.5a5.386 5.386 0 00-5.386 5.386h1.5zm3.886-3.886a3.886 3.886 0 013.887 3.886h1.5a5.386 5.386 0 00-5.387-5.386v1.5zm4.334 9.28l2.5 2.5 1.06-1.06-2.5-2.5-1.06 1.06z" fill="#000"/></svg>