<svg width="24" height="24" viewBox="0 0 24 24" fill="none" xmlns="http://www.w3.org/2000/svg">
<path fill-rule="evenodd" clip-rule="evenodd" d="M12.75 16.1893L12.75 1.5C12.75 1.08579 12.4142 0.75 12 0.75C11.5858 0.75 11.25 1.08579 11.25 1.5L11.25 16.1893L5.03033 9.96967C4.73744 9.67678 4.26257 9.67678 3.96967 9.96967C3.67678 10.2626 3.67678 10.7374 3.96967 11.0303L11.4697 18.5303C11.6103 18.671 11.8011 18.75 12 18.75C12.1989 18.75 12.3897 18.671 12.5303 18.5303L20.0303 11.0303C20.3232 10.7374 20.3232 10.2626 20.0303 9.96967C19.7374 9.67678 19.2626 9.67678 18.9697 9.96967L12.75 16.1893ZM3 22C3 21.5858 3.33579 21.25 3.75 21.25H20.25C20.6642 21.25 21 21.5858 21 22C21 22.4142 20.6642 22.75 20.25 22.75H3.75C3.33579 22.75 3 22.4142 3 22Z" fill="black"/>
</svg>
