<svg width="16" height="16" viewBox="0 0 16 16" fill="none" xmlns="http://www.w3.org/2000/svg">
<path d="M14.06 5.13414L5.29631 13.8979L1 14.9998L2.1013 10.7035L10.8653 1.93944M14.06 5.13414L14.3183 4.87592C14.5322 4.66694 14.7026 4.41763 14.8196 4.14239C14.9366 3.86715 14.9979 3.57145 14.9999 3.27238C15.002 2.97331 14.9447 2.6768 14.8314 2.40001C14.7182 2.12321 14.5511 1.87161 14.34 1.65975C14.1281 1.44871 13.8764 1.28175 13.5996 1.16851C13.3227 1.05528 13.0262 0.998027 12.7271 1.00005C12.428 1.00208 12.1323 1.06334 11.857 1.18031C11.5817 1.29728 11.3323 1.46763 11.1232 1.68153L10.8653 1.93944M14.06 5.13414L10.8653 1.93944" stroke="black" stroke-width="1.5" stroke-linecap="round" stroke-linejoin="round"/>
</svg>
