<svg width="16" height="16" viewBox="0 0 16 16" fill="none" xmlns="http://www.w3.org/2000/svg"><path d="M14.067 1L9.493 5.573a.933.933 0 01-1.202.1L6.24 4.21a.933.933 0 00-1.126.03L1 7.534M14.067 1h-3.734m3.734 0v3.733m-4.2 7.3h4.666c.258 0 .467.21.467.467v2.033a.467.467 0 01-.467.467H9.867a.467.467 0 01-.467-.467V12.5c0-.258.209-.467.467-.467zM2.4 12h4.667c.257 0 .466.209.466.467v2.066a.467.467 0 01-.466.467H2.4a.467.467 0 01-.467-.467v-2.066c0-.258.21-.467.467-.467zm6.667-3.5h4.666c.258 0 .467.209.467.467v2.1a.467.467 0 01-.467.466H9.067a.467.467 0 01-.467-.466v-2.1c0-.258.209-.467.467-.467z" stroke="#000" stroke-width="1.5" stroke-linecap="round" stroke-linejoin="round"/></svg>