<svg fill="none" height="32" viewBox="0 0 32 32" width="32" xmlns="http://www.w3.org/2000/svg"><g fill="#000"><path d="m16 24.25a.750075.750075 0 0 0 -.564453.246094c-.122475.06617-.2835.06357-.371094.162109-.220788.248387-.314453.55013-.314453.841797s.09366.59341.314453.841797c.220788.248386.58138.408203.935547.408203s.714759-.159817.935547-.408203c.220788-.248387.314453-.55013.314453-.841797s-.09367-.59341-.314453-.841797c-.08721-.09811-.247321-.09607-.369141-.162109a.750075.750075 0 0 0 -.566406-.246094z"/><path d="m15.988281 10.240234a.750075.750075 0 0 0 -.738281.759766v10a.750075.750075 0 1 0 1.5 0v-10a.750075.750075 0 0 0 -.761719-.759766z"/><path clip-rule="evenodd" d="m16 .28320312c-1.13321.00000001-2.266336.57770629-2.833984 1.73242188l-12.63085975 25.730469c-.89453069 1.818869.46720515 4.005082 2.49414065 4.003906h25.9414061c2.026936.0012 3.388671-2.185037 2.494141-4.003906l-12.628906-25.730469a.750075.750075 0 0 0 -.294922-.3164062c-.612112-.89078151-1.545705-1.41601568-2.541016-1.41601568zm0 1.43554688c.586776 0 1.173902.319472 1.488281.9589844a.750075.750075 0 0 0 .66211.4199218h-.455079l12.423829 25.3105468c.431437.877251-.170835 1.842364-1.148438 1.841797h-25.9414061c-.9776028.000567-1.5798749-.964546-1.1484375-1.841797l12.6308596-25.7304686c.314379-.6395124.901505-.9589844 1.488281-.9589844z"/></g></svg>