<svg fill="none" height="24" viewBox="0 0 24 24" width="24" xmlns="http://www.w3.org/2000/svg"><g fill="#000"><path d="m12 17.25a.750075.750075 0 0 0 -.566406.248047c-.07705.04956-.185966.04198-.244141.107422-.193038.217167-.273437.478474-.273437.728515 0 .250042.0804.509395.273437.726563.193038.217168.51188.357422.810547.357422s.617509-.140254.810547-.357422.273437-.476521.273437-.726563c0-.250041-.0804-.511348-.273437-.728515-.05778-.06501-.165756-.05808-.242188-.107422a.750075.750075 0 0 0 -.568359-.248047z"/><path d="m11.988281 7.90625a.750075.750075 0 0 0 -.738281.7597656v6.6660154a.750075.750075 0 1 0 1.5 0v-6.6660154a.750075.750075 0 0 0 -.761719-.7597656z"/><path clip-rule="evenodd" d="m12 1.4257812c-.792393.0000001-1.585563.4018938-1.980469 1.2070313l-8.4179685 17.1542965c-.6259908 1.274609.3319207 2.81193 1.7519531 2.8125h17.2929684c1.421205.0015 2.380415-1.536838 1.753907-2.8125l-8.414063-17.1367184v-.00195a.60006002.60006002 0 0 0 -.0059-.015625c-.394865-.8051406-1.188035-1.2070344-1.980428-1.2070344zm0 1.1484376c.354901-.0000001.709838.1954071.902344.5878906l8.421875 17.1542966c.256456.522183-.09402 1.084611-.675781 1.083985a.60006002.60006002 0 0 0 -.002 0h-17.2929224c-.5811871-.000234-.9319851-.562316-.6757812-1.083985l8.4199216-17.1542966c.192506-.3924835.547443-.5878906.902344-.5878906z"/></g></svg>