<svg width="16" height="16" viewBox="0 0 16 16" fill="none" xmlns="http://www.w3.org/2000/svg">
<path fill-rule="evenodd" clip-rule="evenodd" d="M8.75 2C8.75 1.58579 8.41421 1.25 8 1.25C7.58579 1.25 7.25 1.58579 7.25 2V10.412C7.25 10.8262 7.58579 11.162 8 11.162C8.41421 11.162 8.75 10.8262 8.75 10.412V2ZM7.44443 12.6685C7.60888 12.5586 7.80222 12.5 8 12.5C8.26522 12.5 8.51957 12.6054 8.70711 12.7929C8.89464 12.9804 9 13.2348 9 13.5C9 13.6978 8.94135 13.8911 8.83147 14.0556C8.72159 14.22 8.56541 14.3482 8.38268 14.4239C8.19996 14.4996 7.99889 14.5194 7.80491 14.4808C7.61093 14.4422 7.43274 14.347 7.29289 14.2071C7.15304 14.0673 7.0578 13.8891 7.01922 13.6951C6.98063 13.5011 7.00043 13.3 7.07612 13.1173C7.15181 12.9346 7.27998 12.7784 7.44443 12.6685Z" fill="black"/>
</svg>
