<svg fill="none" height="16" viewBox="0 0 16 16" width="16" xmlns="http://www.w3.org/2000/svg"><path d="m8 1.75a.75.75 0 0 0 -.75.75v7a.75.75 0 0 0 1.5 0v-7a.75.75 0 0 0 -.75-.75zm0 10a1.25 1.25 0 0 0 -.8925781.357422c-.247.247-.3574219.572578-.3574219.892578a1.249 1.249 0 0 0 .3574219.892578c.247.247.5725781.357422.8925781.357422a1.249 1.249 0 0 0 .8925781-.357422c.247-.247.3574219-.572578.3574219-.892578s-.1104219-.645578-.3574219-.892578-.5725781-.357422-.8925781-.357422z" fill="#000"/></svg>