<svg width="16" height="16" viewBox="0 0 16 16" fill="none" xmlns="http://www.w3.org/2000/svg">
<path d="M7.99976 9.52051V6.33901M14.7811 11.7561C14.9391 12.0691 15.0137 12.4169 14.9979 12.7666C14.9821 13.1162 14.8765 13.456 14.691 13.7538C14.5054 14.0515 14.2462 14.2972 13.938 14.4676C13.6297 14.638 13.2827 14.7274 12.9298 14.7273H3.06979C2.71687 14.7275 2.36976 14.6382 2.06148 14.4678C1.7532 14.2974 1.49401 14.0516 1.30857 13.7538C1.12312 13.456 1.01759 13.1161 1.00202 12.7664C0.98644 12.4168 1.06134 12.069 1.21958 11.7561L6.14841 3.13527C6.32022 2.79416 6.58444 2.50726 6.91145 2.30674C7.23845 2.10622 7.61531 2 7.99978 2C8.38424 2 8.7611 2.10622 9.08811 2.30674C9.41511 2.50726 9.67934 2.79416 9.85115 3.13527L14.7811 11.7561Z" stroke="black" stroke-width="1.5" stroke-linecap="round" stroke-linejoin="round"/>
<path d="M7.99995 11.0908C7.83812 11.0908 7.67994 11.1388 7.54539 11.2287C7.41084 11.3186 7.30597 11.4464 7.24404 11.5959C7.18212 11.7454 7.16591 11.9099 7.19748 12.0686C7.22905 12.2273 7.30698 12.3731 7.42141 12.4875C7.53583 12.602 7.68162 12.6799 7.84033 12.7115C7.99904 12.743 8.16355 12.7268 8.31305 12.6649C8.46256 12.603 8.59034 12.4981 8.68024 12.3636C8.77014 12.229 8.81813 12.0708 8.81813 11.909C8.81813 11.692 8.73193 11.4839 8.57849 11.3305C8.42505 11.177 8.21694 11.0908 7.99995 11.0908Z" fill="black"/>
</svg>
