<svg fill="none" height="24" viewBox="0 0 24 24" width="24" xmlns="http://www.w3.org/2000/svg"><path d="m6.045 16.5a.75.75 0 0 0 0 1.5h6a.75.75 0 0 0 0-1.5zm-.75-3.75a.75.75 0 0 1 .75-.75h12a.75.75 0 0 1 0 1.5h-12a.75.75 0 0 1 -.75-.75zm.75-5.25a.75.75 0 0 0 0 1.5h12a.75.75 0 0 0 0-1.5zm13.572-6.861a2.25 2.25 0 0 0 -1.572-.639h-15.045a2.25 2.25 0 0 0 -2.25 2.25v19.5a2.25 2.25 0 0 0 2.25 2.25h18a2.25 2.25 0 0 0 2.25-2.25v-16.617a2.25 2.25 0 0 0 -.68-1.611zm-1.572.861a.75.75 0 0 1 .524.213l2.954 2.883a.75.75 0 0 1 .227.537v16.617a.75.75 0 0 1 -.75.75h-18a.75.75 0 0 1 -.75-.75v-19.5a.75.75 0 0 1 .75-.75z" fill="#000"/></svg>