<svg viewBox="0 0 16 17" fill="none" xmlns="http://www.w3.org/2000/svg"><path fill-rule="evenodd" clip-rule="evenodd" d="M11.641 1.5c.057 0 .111.022.152.062l1.904 1.858c.042.041.065.097.065.155v10.712c0 .12-.097.217-.217.217H1.942a.217.217 0 0 1-.217-.217V1.717c0-.12.097-.217.217-.217h9.699zM12.84.488A1.717 1.717 0 0 0 11.64 0H1.942C.994 0 .225.769.225 1.717v12.57c0 .948.769 1.717 1.717 1.717h11.603c.949 0 1.717-.769 1.717-1.717V3.575c0-.462-.187-.906-.518-1.229L12.84.488zM3.905 4.985a.6.6 0 1 0 0 1.2h7.736a.6.6 0 1 0 0-1.2H3.905zm-.6 3.5a.6.6 0 0 1 .6-.6h7.736a.6.6 0 1 1 0 1.2H3.905a.6.6 0 0 1-.6-.6zm.6 2.301a.6.6 0 1 0 0 1.2h3.868a.6.6 0 1 0 0-1.2H3.905z" fill="#000"/></svg>