<svg fill="none" height="16" viewBox="0 0 16 17" width="16" xmlns="http://www.w3.org/2000/svg"><path d="m4.18 10.886a.5.5 0 0 0 0 1h3.868a.5.5 0 0 0 0-1zm-.5-2.401a.5.5 0 0 1 .5-.5h7.736a.5.5 0 1 1 0 1h-7.736a.5.5 0 0 1 -.5-.5zm.5-3.4a.5.5 0 1 0 0 1h7.736a.5.5 0 1 0 0-1zm8.935-4.597a1.717 1.717 0 0 0 -1.2-.488h-9.698c-.948 0-1.717.769-1.717 1.717v12.57c0 .948.769 1.717 1.717 1.717h11.603c.949 0 1.717-.769 1.717-1.717v-10.712c0-.462-.187-.906-.518-1.229zm-1.199 1.012c.056 0 .11.022.151.062l1.904 1.858a.213.213 0 0 1 .066.155v10.712c0 .12-.097.217-.217.217h-11.603a.217.217 0 0 1 -.217-.217v-12.57c0-.12.097-.217.217-.217h9.698z" fill="#000"/></svg>