<svg width="24" height="24" viewBox="0 0 24 24" fill="none" xmlns="http://www.w3.org/2000/svg">
<path d="M9.5 20H21.5M9.5 20C9.5 21.3807 8.38071 22.5 7 22.5C5.61929 22.5 4.5 21.3807 4.5 20M9.5 20C9.5 18.6193 8.38071 17.5 7 17.5C5.61929 17.5 4.5 18.6193 4.5 20M4.5 20H2.5M19.5 12H21.5M19.5 12C19.5 13.3807 18.3807 14.5 17 14.5C15.6193 14.5 14.5 13.3807 14.5 12M19.5 12C19.5 10.6193 18.3807 9.5 17 9.5C15.6193 9.5 14.5 10.6193 14.5 12M14.5 12H2.5M12.5 4H21.5M12.5 4C12.5 5.38071 11.3807 6.5 10 6.5C8.61929 6.5 7.5 5.38071 7.5 4M12.5 4C12.5 2.61929 11.3807 1.5 10 1.5C8.61929 1.5 7.5 2.61929 7.5 4M7.5 4H2.5" stroke="black" stroke-width="1.5" stroke-linecap="round"/>
</svg>
