<svg viewBox="0 0 17 17" xmlns="http://www.w3.org/2000/svg"><path fill-rule="evenodd" clip-rule="evenodd" d="M0 .797C0 .357.357 0 .797 0h3.517a.797.797 0 1 1 0 1.593H2.72l3.843 3.843a.797.797 0 1 1-1.127 1.127L1.593 2.72v1.594a.797.797 0 1 1-1.593 0V.797zm12.686.797h1.594l-3.842 3.842a.797.797 0 0 0 1.127 1.127l3.841-3.842v1.593a.797.797 0 0 0 1.594 0V.797a.797.797 0 0 0-.797-.796h-3.517a.797.797 0 0 0 0 1.593zm-6.123 8.844a.797.797 0 0 1 0 1.127L2.72 15.407h1.594a.797.797 0 0 1 0 1.593H.797a.797.797 0 0 1-.796-.797v-3.516a.797.797 0 1 1 1.593 0v1.593l3.842-3.842a.797.797 0 0 1 1.127 0zm3.875 0a.797.797 0 0 1 1.127 0l3.841 3.842v-1.593a.797.797 0 0 1 1.594 0v3.516c0 .44-.357.797-.797.797h-3.517a.797.797 0 0 1 0-1.593h1.594l-3.842-3.842a.797.797 0 0 1 0-1.127z"/></svg>