<svg fill="none" height="24" viewBox="0 0 24 24" width="24" xmlns="http://www.w3.org/2000/svg"><path clip-rule="evenodd" d="m.75 0a.748.748 0 0 0 -.69335937.46289062.748.748 0 0 0 -.05664063.28710938v5a.75.75 0 0 0 1.5 0v-3.1894531l6.7207031 6.71875a.75.75 0 0 0 1.0585938-1.0585938l-6.71875-6.7207031h3.1894531a.75.75 0 0 0 0-1.5zm17.5 0a.75.75 0 0 0 0 1.5h3.189453l-6.71875 6.7207031a.75.75 0 0 0 1.058594 1.0585938l6.720703-6.71875v3.1894531a.75.75 0 0 0 1.5 0v-5a.747.747 0 0 0 -.75-.75zm-9.4882812 14.480469a.75.75 0 0 0 -.5410157.240234l-6.7207031 6.71875v-3.189453a.75.75 0 0 0 -1.5 0v5a.748.748 0 0 0 .75.75h5a.75.75 0 0 0 0-1.5h-3.1894531l6.71875-6.720703a.75.75 0 0 0 -.5175781-1.298828zm6.4843752.001953a.75.75 0 0 0 -.525391 1.296875l6.71875 6.720703h-3.189453a.75.75 0 0 0 0 1.5h5a.747.747 0 0 0 .75-.75v-5a.75.75 0 0 0 -1.5 0v3.189453l-6.720703-6.71875a.75.75 0 0 0 -.533203-.238281z" fill="#000" fill-rule="evenodd"/></svg>