<svg fill="none" height="16" viewBox="0 0 16 16" width="16" xmlns="http://www.w3.org/2000/svg"><path clip-rule="evenodd" d="m.75 0a.748.748 0 0 0 -.69335937.46289062.748.748 0 0 0 -.05664063.28710938v3.3320312a.75.75 0 0 0 1.5 0v-1.5214843l4.0527344 4.0527343a.75.75 0 1 0 1.0605468-1.0605468l-4.0507812-4.0527344h1.5214844a.75.75 0 0 0 0-1.5zm11.167969 0a.75.75 0 0 0 0 1.5h1.521484l-4.0527342 4.0527344a.75.75 0 1 0 1.0605472 1.0605468l4.052734-4.0507812v1.5214844a.75.75 0 0 0 1.5 0v-3.3339844a.75.75 0 0 0 -.056641-.28710938.75.75 0 0 0 -.162109-.2421875h-.001953v-.00195312a.748.748 0 0 0 -.529297-.21875zm-2.0078128 9.1582031a.75.75 0 0 0 -.5234374 1.2890629l4.0527342 4.052734h-1.521484a.75.75 0 0 0 0 1.5h3.332031a.75.75 0 0 0 .525391-.214844l.009765-.009765a.748.748 0 0 0 .214844-.525391v-3.332031a.75.75 0 0 0 -1.5 0v1.521484l-4.052734-4.0527342a.75.75 0 0 0 -.5371098-.2285157zm-3.8828124.0195313a.75.75 0 0 0 -.4746094.2089844l-4.0527344 4.0507812v-1.521484a.75.75 0 0 0 -1.5 0v3.332031a.747.747 0 0 0 .21875.529297l.00195312.001953v.001953a.75.75 0 0 0 .52929688.21875h3.3320312a.75.75 0 0 0 0-1.5h-1.5214843l4.0527343-4.052734a.75.75 0 0 0 -.5859374-1.2695316z" fill="#000" fill-rule="evenodd"/></svg>