<svg width="24" height="24" viewBox="0 0 24 24" fill="none" xmlns="http://www.w3.org/2000/svg"><path d="M.75 22.5a.75.75 0 000 1.5v-1.5zm22.5 1.5a.75.75 0 000-1.5V24zM21 11.5a.75.75 0 000-1.5v1.5zM6.75 16h.75-.75zM22.5 5.25a.75.75 0 001.5 0h-1.5zm.75-4.5H24a.75.75 0 00-.75-.75v.75zM18.75 0a.75.75 0 000 1.5V0zm-.55 5.8l-.53-.53.53.53zm-2.237.564l.216-.718a.78.78 0 00-.022-.007l-.194.725zm-5.709-1.526l.194-.725-.194.725zm-2.172.583l-.53-.53.53.53zM1.72 10.723a.75.75 0 101.06 1.06l-1.06-1.06zM22.5 22a.75.75 0 00-1.5 0h1.5zm-6-9a.75.75 0 001.5 0h-1.5zm1.5 7a.75.75 0 00-1.5 0H18zm-4.5-7a.75.75 0 001.5 0h-1.5zm1.5 7a.75.75 0 00-1.5 0H15zm.5-4.25a.75.75 0 000 1.5v-1.5zm4.47 2.72a.75.75 0 101.06 1.06l-1.06-1.06zM23 16.5l.53.53a.75.75 0 000-1.06l-.53.53zm-1.97-3.03a.75.75 0 10-1.06 1.06l1.06-1.06zM21 10h-3v1.5h3V10zm-3 0a1.5 1.5 0 00-1.06.44L18 11.5V10zm-1.06.44a1.5 1.5 0 00-.44 1.06H18l-1.06-1.06zM13.5 9h-3v1.5h3V9zm-3 0a1.5 1.5 0 00-1.06.44l1.06 1.06V9zm-1.06.44A1.5 1.5 0 009 10.5h1.5L9.44 9.44zM15 10.5a1.5 1.5 0 00-.44-1.06L13.5 10.5H15zm-.44-1.06A1.5 1.5 0 0013.5 9v1.5l1.06-1.06zM6 14.5H3V16h3v-1.5zm-3 0a1.5 1.5 0 00-1.06.44L3 16v-1.5zm-1.06.44A1.5 1.5 0 001.5 16H3l-1.06-1.06zM7.5 16a1.5 1.5 0 00-.44-1.06L6 16h1.5zm-.44-1.06A1.5 1.5 0 006 14.5V16l1.06-1.06zM24 5.25V.75h-1.5v4.5H24zM23.25 0h-4.5v1.5h4.5V0zm-.53.22l-5.05 5.05 1.06 1.06 5.05-5.05L22.72.22zm-5.05 5.05a1.499 1.499 0 01-.694.393l.367 1.455a3 3 0 001.387-.788l-1.06-1.06zm-.694.393a1.5 1.5 0 01-.797-.017l-.432 1.436a3 3 0 001.596.036l-.367-1.455zm-.82-.024l-5.708-1.526-.388 1.45 5.71 1.526.387-1.45zm-5.709-1.526a3 3 0 00-1.551.001l.388 1.45c.255-.069.522-.07.777-.001l.386-1.45zm-1.551.001a3.001 3.001 0 00-1.344.777l1.06 1.06c.186-.186.418-.32.672-.388l-.388-1.449zm-1.344.777L1.72 10.723l1.06 1.06 5.832-5.832-1.06-1.06zM.75 24h1.5v-1.5H.75V24zm1.5 0h4.5v-1.5h-4.5V24zm4.5 0h3v-1.5h-3V24zm3 0h4.5v-1.5h-4.5V24zm4.5 0h3v-1.5h-3V24zm3 0h4.5v-1.5h-4.5V24zm4.5 0h1.5v-1.5h-1.5V24zM9 10.5v12.75h1.5V10.5H9zM7.5 23.25V16H6v7.25h1.5zM1.5 16v7.25H3V16H1.5zm21 7.25V22H21v1.25h1.5zm-6-11.75V13H18v-1.5h-1.5zm0 8.5v3.25H18V20h-1.5zM15 13v-2.5h-1.5V13H15zm0 10.25V20h-1.5v3.25H15zm6.03-3.72l2.5-2.5-1.06-1.06-2.5 2.5 1.06 1.06zm2.5-3.56l-2.5-2.5-1.06 1.06 2.5 2.5 1.06-1.06zm-8.03 1.28H23v-1.5h-7.5v1.5z" fill="#000"/></svg>