<svg width="24" height="24" viewBox="0 0 24 24" fill="none" xmlns="http://www.w3.org/2000/svg"><path d="M.75 23.25h1.5m21 0h-1.5m1.5-18V.75m0 0h-4.5m4.5 0L18.2 5.8a2.249 2.249 0 01-2.237.564l-5.709-1.526a2.251 2.251 0 00-2.172.583L2.25 11.253m0 11.997h4.5m-4.5 0V16a.75.75 0 01.75-.75h3a.75.75 0 01.75.75v7.25m0 0h3m0 0h4.5m-4.5 0V10.5a.75.75 0 01.75-.75h3a.75.75 0 01.75.75v12.75m0 0h3m0 0h4.5m-4.5 0V11.5a.75.75 0 01.75-.75h3a.75.75 0 01.75.75v11.75" stroke="#000" stroke-width="1.5" stroke-linecap="round" stroke-linejoin="round"/></svg>