<svg width="16" height="16" viewBox="0 0 16 16" fill="none" xmlns="http://www.w3.org/2000/svg">
<path d="M1 15H1.93333M15 15H14.0667M15 3.8V1M15 1H12.2M15 1L11.8578 4.14222C11.6791 4.32096 11.4553 4.44797 11.2102 4.50976C10.9652 4.57155 10.7079 4.56581 10.4659 4.49316L6.9136 3.54364C6.6763 3.48031 6.42653 3.48049 6.18932 3.54416C5.95211 3.60783 5.73582 3.73275 5.56213 3.9064L1.93333 7.5352M1.93333 15H4.73333M1.93333 15V10.4889C1.93333 10.3651 1.9825 10.2464 2.07002 10.1589C2.15753 10.0714 2.27623 10.0222 2.4 10.0222H4.26667C4.39043 10.0222 4.50913 10.0714 4.59665 10.1589C4.68417 10.2464 4.73333 10.3651 4.73333 10.4889V15M4.73333 15H6.6M6.6 15H9.4M6.6 15V7.06667C6.6 6.9429 6.64917 6.8242 6.73668 6.73668C6.8242 6.64917 6.9429 6.6 7.06667 6.6H8.93333C9.0571 6.6 9.1758 6.64917 9.26332 6.73668C9.35083 6.8242 9.4 6.9429 9.4 7.06667V7.68889M9.4 15H11.2667M9.4 15V14.2222M11.2667 15H14.0667M11.2667 15V14.2222M14.0667 15V14.2222M10.1778 10.8H14.8444M13.2889 12.3556L14.8444 10.8M14.8444 10.8L13.2889 9.24444" stroke="black" stroke-width="1.5" stroke-linecap="round" stroke-linejoin="round"/>
</svg>
