<svg width="24" height="24" viewBox="0 0 24 24" fill="none" xmlns="http://www.w3.org/2000/svg">
<path d="M11.9997 23.2494C18.2128 23.2494 23.2494 18.2127 23.2494 11.9997C23.2494 5.78665 18.2128 0.749981 11.9997 0.749981C5.78667 0.749981 0.75 5.78665 0.75 11.9997C0.75 18.2127 5.78667 23.2494 11.9997 23.2494Z" stroke="black" stroke-width="1.5" stroke-linecap="round" stroke-linejoin="round"/>
<path d="M7.07884 15.7496C7.30679 15.7496 7.53173 15.6976 7.73658 15.5976C7.94144 15.4976 8.12081 15.3523 8.26107 15.1726C8.40133 14.9929 8.49879 14.7836 8.54605 14.5606C8.59331 14.3376 8.58912 14.1068 8.5338 13.8856L7.78382 10.8857C7.70266 10.5613 7.51539 10.2732 7.25177 10.0674C6.98816 9.8616 6.66331 9.74979 6.32886 9.74975H0.975995C0.562382 11.7816 0.718561 13.8882 1.42727 15.8368C2.13598 17.7854 3.36963 19.5001 4.99189 20.7915L5.99987 15.7496H7.07884Z" stroke="black" stroke-width="1.5" stroke-linecap="round" stroke-linejoin="round"/>
<path d="M20.9845 5.24987H16.9206C16.5861 5.2499 16.2613 5.36172 15.9977 5.56754C15.7341 5.77336 15.5468 6.06138 15.4656 6.38584L14.7156 9.38576C14.6603 9.6069 14.6561 9.83773 14.7034 10.0607C14.7507 10.2837 14.8481 10.493 14.9884 10.6727C15.1286 10.8524 15.308 10.9977 15.5129 11.0977C15.7177 11.1977 15.9427 11.2497 16.1706 11.2497H17.7496L18.5405 15.9996C18.599 16.3498 18.7798 16.668 19.0508 16.8974C19.3218 17.1268 19.6654 17.2527 20.0205 17.2526H21.9455C22.9443 15.3684 23.3845 13.2383 23.2143 11.1126C23.044 8.98692 22.2705 6.954 20.9845 5.25287V5.24987Z" stroke="black" stroke-width="1.5" stroke-linecap="round" stroke-linejoin="round"/>
</svg>
