<svg width="24" height="24" viewBox="0 0 24 24" fill="none" xmlns="http://www.w3.org/2000/svg"><path d="M12 23.25c6.213 0 11.25-5.037 11.25-11.25S18.212.75 12 .75.75 5.787.75 12 5.787 23.25 12 23.25z" stroke="#000" stroke-width="1.5" stroke-linecap="round" stroke-linejoin="round"/><path d="M7.079 15.75a1.5 1.5 0 001.455-1.864l-.75-3A1.5 1.5 0 006.329 9.75H.976a11.246 11.246 0 004.016 11.04L6 15.75h1.079zm13.906-10.5H16.92a1.5 1.5 0 00-1.455 1.136l-.75 3a1.5 1.5 0 001.455 1.864h1.579l.79 4.75a1.5 1.5 0 001.48 1.253h1.925a11.2 11.2 0 00-.96-12V5.25z" stroke="#000" stroke-width="1.5" stroke-linecap="round" stroke-linejoin="round"/></svg>