<svg width="16" height="16" viewBox="0 0 16 16" fill="none" xmlns="http://www.w3.org/2000/svg"><path d="M1.076 6.607a.75.75 0 00-.152 1.492l.152-1.492zm3.37 1.098l.077-.746h-.001l-.077.746zm1.03.426l.472-.583-.002-.001-.47.584zm2.732 2.21l-.472.583a.681.681 0 00.013.01l.459-.593zm.575 1.114l-.75.04.002.02.748-.06zm-.554.962l-.306-.685-.006.002.312.683zm-1.38-.124l.427-.617a.91.91 0 00-.016-.01l-.41.627zm-1.36-1.785a.75.75 0 10-.82 1.256l.82-1.256zm3.163.937a.75.75 0 000 1.5v-1.5zm4.698.75v.75h.01l-.01-.75zM15 13.59l.086.745a.75.75 0 00.664-.745H15zm-7.722.896l.049.749a.797.797 0 00.038-.004l-.087-.745zm-.983-.177l.312-.683-.312.683zm-4.984-3.096a.75.75 0 10-.622 1.365l.622-1.365zm6.193-5.17v-.75.75zm0-4.542V.75v.75zm4.218 7.461v-.75.75zm0-4.541v-.75.75zM.924 8.099l3.445.352.153-1.493-3.446-.351-.152 1.492zm3.444.351c.23.024.45.115.638.266l.94-1.17a2.72 2.72 0 00-1.423-.587L4.368 8.45zm.637.265l2.731 2.21.944-1.167-2.732-2.21-.943 1.167zm2.744 2.219c.163.127.273.33.285.56l1.498-.078a2.258 2.258 0 00-.865-1.668l-.918 1.186zm.286.582c.009.109-.052.189-.112.216l.612 1.37a1.714 1.714 0 00.995-1.707l-1.495.12zm-.118.218a.646.646 0 01-.641-.058l-.852 1.234a2.146 2.146 0 002.116.189l-.623-1.365zm-.657-.069l-1.77-1.157-.82 1.256 1.77 1.157.82-1.256zm1.392 1.28h4.698v-1.5H8.652v1.5zm4.708 0c.184-.002.445.055.636.18.16.104.254.236.254.464h1.5c0-.818-.424-1.387-.934-1.72a2.725 2.725 0 00-1.477-.424l.021 1.5zm1.64.644l-.086-.745h-.001-.007l-.023.003-.09.01-.362.043-1.448.168-5.791.673.173 1.49 5.791-.673 1.448-.168.362-.042c.04-.005.07-.009.09-.01l.023-.003.006-.001h.001L15 13.589zm-7.77.148a1.305 1.305 0 01-.623-.112l-.623 1.365c.418.191.882.274 1.343.244l-.098-1.497zm-.624-.112l-5.295-2.413-.622 1.365 5.295 2.413.622-1.365zm1.446-9.854c0 .52-.122.955-.281 1.234a.83.83 0 01-.208.255.204.204 0 01-.059.032v1.5c.744 0 1.27-.52 1.569-1.043.31-.544.479-1.245.479-1.978h-1.5zm-.548 1.52h-.001l-.008-.001a.204.204 0 01-.05-.03.83.83 0 01-.207-.255c-.16-.279-.282-.713-.282-1.234h-1.5c0 .733.169 1.434.48 1.978.298.522.825 1.043 1.568 1.043v-1.5zm-.548-1.52c0-.52.123-.955.282-1.234a.83.83 0 01.207-.256.204.204 0 01.06-.031V.75c-.744 0-1.271.52-1.57 1.043-.31.544-.479 1.244-.479 1.978h1.5zm.548-1.521h.002l.007.002c.008.003.025.01.05.03a.83.83 0 01.208.255c.159.279.28.713.28 1.234h1.5c0-.734-.167-1.434-.478-1.978C8.774 1.271 8.248.75 7.504.75v1.5zm4.765 4.44c0 .521-.122.956-.281 1.234a.83.83 0 01-.208.256.206.206 0 01-.057.031h-.002v1.5c.744 0 1.27-.52 1.57-1.043.31-.543.478-1.244.478-1.977h-1.5zm-.547 1.521h-.002l-.007-.002a.206.206 0 01-.05-.029.83.83 0 01-.208-.256c-.159-.278-.281-.713-.281-1.233h-1.5c0 .733.168 1.434.479 1.977.298.523.825 1.043 1.569 1.043v-1.5zm-.548-1.52c0-.521.122-.956.281-1.234a.83.83 0 01.208-.256.206.206 0 01.059-.031v-1.5c-.744 0-1.27.52-1.57 1.043-.31.543-.478 1.244-.478 1.978h1.5zm.548-1.521l.008.002c.008.003.025.01.05.029a.83.83 0 01.208.256c.159.278.281.713.281 1.234h1.5c0-.734-.168-1.435-.479-1.978-.298-.523-.825-1.043-1.568-1.043v1.5z" fill="#000"/></svg>