<svg width="24" height="24" viewBox="0 0 24 24" fill="none" xmlns="http://www.w3.org/2000/svg"><path d="M12 21.5l-9.59-9.907A5.6 5.6 0 01.823 8.52a5.571 5.571 0 01.527-3.413 5.632 5.632 0 011.713-2.014 5.723 5.723 0 015.103-.82 5.682 5.682 0 012.268 1.374L12 5.196l1.565-1.55a5.683 5.683 0 012.269-1.374 5.726 5.726 0 015.104.82 5.634 5.634 0 011.713 2.014v0a5.575 5.575 0 01.526 3.414 5.604 5.604 0 01-1.589 3.073L12 21.5z" stroke="#000" stroke-width="1.5" stroke-linecap="round" stroke-linejoin="round"/></svg>