<svg width="24" height="24" viewBox="0 0 24 24" fill="none" xmlns="http://www.w3.org/2000/svg"><path d="M17.033 16.583l-4.492 4.686a.749.749 0 01-1.082 0l-4.493-4.687m-5.495-5.995a5.675 5.675 0 011.592-7.333 5.673 5.673 0 017.371.559L12 5.373l1.566-1.565a5.673 5.673 0 018.966 6.774m-19.782 3h4.518a.377.377 0 00.336-.206l1.723-3.447a.376.376 0 01.7.06l1.681 5.6a.376.376 0 00.7.04l1.57-3.664a.376.376 0 01.657-.061l1.116 1.674h5.5" stroke="#000" stroke-width="1.5" stroke-linecap="round" stroke-linejoin="round"/></svg>