<svg width="24" height="24" viewBox="0 0 25 24" fill="none" xmlns="http://www.w3.org/2000/svg"><path d="M12 5.251l-.013.75h.026L12 5.25zM1.179 10.885l-.555-.504-.002.002.557.502zm0 2.226l-.557.502.002.002.555-.504zM12 18.748l.013-.75h-.026l.013.75zm10.824-5.637l.555.504.002-.002-.557-.502zm0-2.226l.557-.502-.002-.003-.555.505zm-8.445-4.589a.75.75 0 00.372-1.453l-.372 1.453zm5.787 1.208a.75.75 0 10-.881 1.214l.881-1.214zM9.588 17.696a.75.75 0 00-.375 1.453l.375-1.453zm-5.756-1.203a.75.75 0 10.883-1.212l-.883 1.213zm11.285-2.41l-.623-.417.623.417zm-1.683 1.38l-.286-.692.286.693zm-4.898-4.9l-.693-.286.693.287zm1.38-1.682L9.5 8.257l.417.624zm1.99.12a.75.75 0 10-.047-1.5l.047 1.5zM7.502 11.86a.75.75 0 001.5.046l-1.5-.046zm8.996.28a.75.75 0 00-1.5-.047l1.5.047zm-4.404 2.857a.75.75 0 00.047 1.5l-.047-1.5zM22.53 2.53a.75.75 0 00-1.06-1.06l1.06 1.06zM1.47 21.47a.75.75 0 101.06 1.06l-1.06-1.06zM12.013 4.5c-4.349-.073-8.71 2.93-11.39 5.88l1.111 1.008c2.562-2.82 6.54-5.45 10.253-5.388l.026-1.5zM.622 10.383c-.4.443-.62 1.019-.62 1.615h1.5c0-.226.083-.443.234-.611L.622 10.383zm-.62 1.615c0 .597.22 1.172.62 1.615l1.114-1.004a.913.913 0 01-.234-.611h-1.5zm11.985 7.5c4.421.074 8.77-2.998 11.392-5.883l-1.11-1.008c-2.51 2.763-6.477 5.455-10.256 5.391l-.026 1.5zm11.394-5.885c.4-.443.62-1.018.62-1.615h-1.5a.912.912 0 01-.234.611l1.114 1.004zm.62-1.615c0-.596-.22-1.172-.62-1.615l-1.114 1.004a.912.912 0 01.234.611h1.5zm-9.25-7.155a10.434 10.434 0 00-2.764-.342l.026 1.5a8.936 8.936 0 012.366.295l.372-1.453zm8.628 5.537a21.363 21.363 0 00-3.213-2.876l-.881 1.214a19.876 19.876 0 012.984 2.672l1.11-1.01zM9.213 19.15c.915.236 1.854.365 2.8.349l-.026-1.5a8.985 8.985 0 01-2.399-.302l-.375 1.453zm-8.59-5.534a21.417 21.417 0 003.21 2.879l.882-1.213a19.915 19.915 0 01-2.98-2.674L.623 13.615zm13.871.051a3 3 0 01-1.346 1.105l.573 1.386a4.5 4.5 0 002.02-1.657l-1.247-.834zm-5.266-2.815a3 3 0 011.105-1.346L9.5 8.257a4.5 4.5 0 00-1.657 2.02l1.385.574zm1.105-1.346A3 3 0 0111.906 9l-.047-1.499a4.5 4.5 0 00-2.359.756l.833 1.248zm-1.332 2.401a3 3 0 01.227-1.055l-1.385-.574a4.5 4.5 0 00-.34 1.583L9 11.906zm5.998.187a3 3 0 01-.505 1.573l1.247.834a4.5 4.5 0 00.757-2.36l-1.5-.047zm-1.851 2.678a3 3 0 01-1.054.226l.047 1.5a4.5 4.5 0 001.58-.34l-.573-1.386zM21.47 1.47l-20 20 1.06 1.06 20-20-1.06-1.06z" fill="#000"/></svg>