<svg width="16" height="16" viewBox="0 0 16 16" fill="none" xmlns="http://www.w3.org/2000/svg"><path d="M15 15h-3.702M1 15H4.703M8 8c-2.546-.946-3.987-2.811-4.397-5.534a1.458 1.458 0 01.03-.545c.044-.177.121-.34.226-.48.104-.14.234-.25.38-.327A.985.985 0 014.703 1M8 8c2.546-.946 3.987-2.811 4.397-5.534a1.456 1.456 0 00-.03-.545 1.341 1.341 0 00-.226-.48 1.134 1.134 0 00-.38-.327.985.985 0 00-.463-.114M8 8c-2.546.947-3.987 2.812-4.397 5.535-.024.181-.014.367.03.544.044.177.121.34.226.48.105.14.234.25.38.327a.986.986 0 00.464.114M8 8c2.546.947 3.987 2.812 4.397 5.535.024.181.014.367-.03.544-.045.177-.122.34-.226.48-.104.14-.234.25-.38.327a.986.986 0 01-.463.114m0-14H4.702m6.594 0H15M4.703 1H1m3.703 14h6.594" stroke="#000" stroke-width="1.5" stroke-linecap="round" stroke-linejoin="round"/></svg>