<svg width="16" height="16" viewBox="0 0 16 16" fill="none" xmlns="http://www.w3.org/2000/svg"><path d="M2.867 12.75v1.317c0 .508.425.933.933.933h1.8a1 1 0 001-1v-2.267c0-.508.425-.933.933-.933h.934c.508 0 .933.425.933.933V14a1 1 0 001 1h1.8a.943.943 0 00.933-.933V12.75M1 10.8l6.34-6.34a.933.933 0 011.32 0l2.144 2.144M15 10.8l-1.867-1.867M11.187 1l-.253.338a.65.65 0 00.1.893.65.65 0 01.099.894l-.253.338M13.52 1l-.253.338a.65.65 0 00.1.893.65.65 0 01.1.894l-.254.338m-2.409 3.141l-.004-.937h2.333v3.266m-2.329-2.329l2.33 2.33" stroke="#000" stroke-width="1.5" stroke-linecap="round" stroke-linejoin="round"/></svg>