<svg width="16" height="16" viewBox="0 0 16 16" fill="none" xmlns="http://www.w3.org/2000/svg">
<path fill-rule="evenodd" clip-rule="evenodd" d="M7.16603 4.66532C7.71799 4.66532 8.16544 4.21787 8.16544 3.66591C8.16544 3.11395 7.71799 2.6665 7.16603 2.6665C6.61408 2.6665 6.16663 3.11395 6.16663 3.66591C6.16663 4.21787 6.61408 4.66532 7.16603 4.66532ZM6.16663 6.41384C5.75241 6.41384 5.41663 6.74963 5.41663 7.16384C5.41663 7.57805 5.75241 7.91384 6.16663 7.91384H6.91574V11.6612C6.91574 12.9033 7.9227 13.9103 9.16485 13.9103H9.91441C10.3286 13.9103 10.6644 13.5745 10.6644 13.1603C10.6644 12.7461 10.3286 12.4103 9.91441 12.4103H9.16485C8.75113 12.4103 8.41574 12.0749 8.41574 11.6612V7.9134C8.41574 7.08522 7.74436 6.41384 6.91618 6.41384H6.16663Z" fill="black"/>
</svg>
