<svg width="24" height="24" viewBox="0 0 24 24" fill="none" xmlns="http://www.w3.org/2000/svg">
<path fill-rule="evenodd" clip-rule="evenodd" d="M10.7491 6.99822C11.577 6.99822 12.2482 6.32705 12.2482 5.49911C12.2482 4.67118 11.577 4 10.7491 4C9.92118 4 9.25 4.67118 9.25 5.49911C9.25 6.32705 9.92118 6.99822 10.7491 6.99822ZM9.25 9.99602C8.83579 9.99602 8.5 10.3318 8.5 10.746C8.5 11.1602 8.83579 11.496 9.25 11.496H10.3743C10.5811 11.496 10.7487 11.6636 10.7487 11.8703V17.492C10.7487 19.1481 12.0912 20.4907 13.7473 20.4907H14.8717C15.2859 20.4907 15.6217 20.1549 15.6217 19.7407C15.6217 19.3265 15.2859 18.9907 14.8717 18.9907H13.7473C12.9196 18.9907 12.2487 18.3197 12.2487 17.492V11.8703C12.2487 10.8352 11.4095 9.99602 10.3743 9.99602H9.25Z" fill="black"/>
</svg>
