<svg width="16" height="16" viewBox="0 0 16 16" fill="none" xmlns="http://www.w3.org/2000/svg">
<path d="M7.52287 0.750009C8.72778 0.74827 9.91121 1.06927 10.9503 1.67971C11.9895 2.29015 12.8464 3.16777 13.4323 4.2215C14.0182 5.27524 14.3116 6.46669 14.2821 7.67221C14.2527 8.87773 13.9014 10.0534 13.2648 11.0772L15.25 15.25L11.0812 13.2632C10.1921 13.8164 9.18684 14.1554 8.14454 14.2536C7.10224 14.3517 6.05141 14.2063 5.07484 13.8287C4.09827 13.4512 3.22265 12.8518 2.51696 12.0779C1.81127 11.304 1.29479 10.3766 1.00823 9.36886C0.721662 8.36114 0.672836 7.30058 0.865596 6.27075C1.05836 5.24092 1.48743 4.26996 2.11903 3.43436C2.75062 2.59877 3.56746 1.92138 4.50521 1.45555C5.44295 0.989729 6.47597 0.748205 7.52287 0.750009Z" stroke="black" stroke-width="1.5" stroke-linecap="round" stroke-linejoin="round"/>
<path d="M8.99999 10.6665H8.49999C7.94771 10.6665 7.49999 10.2188 7.49999 9.66649V7.16649C7.49999 6.89035 7.27613 6.6665 6.99999 6.6665H6.49999" stroke="black" stroke-width="1.5" stroke-linecap="round" stroke-linejoin="round"/>
<ellipse cx="7.16666" cy="4.33316" rx="0.666666" ry="0.666666" fill="black"/>
</svg>
