<svg width="16" height="16" viewBox="0 0 16 16" fill="none" xmlns="http://www.w3.org/2000/svg">
<path d="M8 1.93333C9.85652 1.93333 11.637 2.67083 12.9497 3.98359C14.2625 5.29634 15 7.07682 15 8.93333L14.4954 8.51271C14.1961 8.26334 13.8501 8.07617 13.4776 7.96217C13.1051 7.84817 12.7136 7.80962 12.326 7.84879C11.9384 7.88796 11.5626 8.00406 11.2204 8.19028C10.8782 8.37651 10.5767 8.62912 10.3333 8.93333C10.0271 8.62667 9.66333 8.38339 9.26295 8.21741C8.86258 8.05142 8.43342 7.96598 8 7.96598M8 1.93333C6.14348 1.93333 4.36301 2.67083 3.05025 3.98359C1.7375 5.29634 1 7.07682 1 8.93333L1.50462 8.51271C1.8039 8.26334 2.14991 8.07617 2.52241 7.96217C2.89491 7.84817 3.28641 7.80962 3.674 7.84879C4.06158 7.88796 4.43745 8.00406 4.77961 8.19028C5.12177 8.37651 5.42334 8.62912 5.66667 8.93333C5.97295 8.62667 6.33667 8.38339 6.73705 8.21741C7.13742 8.05142 7.56658 7.96598 8 7.96598M8 1.93333V1M8 7.96598V14.0648C8 14.3123 7.90167 14.5497 7.72663 14.7248C7.5516 14.8998 7.3142 14.9981 7.06667 14.9981C6.81913 14.9981 6.58173 14.8998 6.4067 14.7248C6.23167 14.5497 6.13333 14.3123 6.13333 14.0648" stroke="black" stroke-width="1.5" stroke-linecap="round" stroke-linejoin="round"/>
</svg>
