<svg width="24" height="24" viewBox="0 0 24 24" fill="none" xmlns="http://www.w3.org/2000/svg">
<path d="M12 2.25C14.9837 2.25 17.8452 3.43526 19.955 5.54505C22.0647 7.65483 23.25 10.5163 23.25 13.5L22.439 12.824C21.958 12.4232 21.4019 12.1224 20.8033 11.9392C20.2046 11.756 19.5754 11.694 18.9525 11.757C18.3296 11.8199 17.7255 12.0065 17.1756 12.3058C16.6257 12.6051 16.1411 13.0111 15.75 13.5C15.2578 13.0071 14.6732 12.6162 14.0297 12.3494C13.3863 12.0826 12.6966 11.9453 12 11.9453M12 2.25C9.01631 2.25 6.15483 3.43526 4.04505 5.54505C1.93526 7.65483 0.75 10.5163 0.75 13.5L1.561 12.824C2.04198 12.4232 2.59807 12.1224 3.19674 11.9392C3.7954 11.756 4.42459 11.694 5.04749 11.757C5.67039 11.8199 6.27447 12.0065 6.82437 12.3058C7.37427 12.6051 7.85894 13.0111 8.25 13.5C8.74224 13.0071 9.3268 12.6162 9.97025 12.3494C10.6137 12.0826 11.3034 11.9453 12 11.9453M12 2.25V0.75M12 11.9453V21.747C12 22.1448 11.842 22.5264 11.5607 22.8077C11.2794 23.089 10.8978 23.247 10.5 23.247C10.1022 23.247 9.72064 23.089 9.43934 22.8077C9.15804 22.5264 9 22.1448 9 21.747" stroke="black" stroke-width="1.5" stroke-linecap="round" stroke-linejoin="round"/>
</svg>
