<svg width="16" height="16" viewBox="0 0 16 16" fill="none" xmlns="http://www.w3.org/2000/svg"><path fill-rule="evenodd" clip-rule="evenodd" d="M2.25 1.75A1.75 1.75 0 00.5 3.5v9.045c0 .966.784 1.75 1.75 1.75h11.499a1.75 1.75 0 001.75-1.75V3.5a1.75 1.75 0 00-1.75-1.75H2.25zM2 3.5a.25.25 0 01.25-.25h11.499a.25.25 0 01.25.25v9.045a.25.25 0 01-.25.25H2.25a.25.25 0 01-.25-.25V3.5zm4.66 2.402H5.597L4.344 7.57V5.902h-.89v4.157h.89V8.794l.184-.232 1.01 1.497H6.66L5.057 7.903 6.66 5.902zm.651 4.157h.89V5.902h-.89v4.157zm1.9-4.157h1.218c1.295 0 2.12.825 2.12 2.078s-.825 2.079-2.12 2.079H9.212V5.902zm.892 3.444h.243c.814 0 1.295-.534 1.295-1.366 0-.831-.481-1.366-1.295-1.366h-.243v2.732z" fill="#000"/></svg>