<svg fill="none" height="16" viewBox="0 0 17 17" width="16" xmlns="http://www.w3.org/2000/svg"><path d="m7.444 13.938a.792.792 0 0 0 0 1.584h8.447a.792.792 0 0 0 0-1.584zm-.792-5.438c0-.437.355-.792.792-.792h8.447a.792.792 0 0 1 0 1.584h-8.447a.792.792 0 0 1 -.792-.792zm.792-7.022a.792.792 0 0 0 0 1.584h8.447a.792.792 0 0 0 0-1.584zm-5.078 12.354a.787.787 0 0 0 -.782.792c0 .442.355.792.782.792s.782-.35.782-.792a.787.787 0 0 0 -.782-.792zm-2.366.792a2.37 2.37 0 0 1 2.366-2.376 2.37 2.37 0 0 1 2.366 2.376 2.37 2.37 0 0 1 -2.366 2.376 2.37 2.37 0 0 1 -2.366-2.376zm1.584-6.125c0-.443.355-.792.782-.792s.782.35.782.792a.787.787 0 0 1 -.782.791.787.787 0 0 1 -.782-.791zm.782-2.376a2.37 2.37 0 0 0 -2.366 2.376 2.37 2.37 0 0 0 2.366 2.375 2.37 2.37 0 0 0 2.366-2.374 2.37 2.37 0 0 0 -2.366-2.376zm-.782-3.747c0-.442.355-.792.782-.792s.782.35.782.792a.787.787 0 0 1 -.782.792.787.787 0 0 1 -.782-.792zm.782-2.376a2.37 2.37 0 0 0 -2.366 2.376 2.37 2.37 0 0 0 2.366 2.376 2.37 2.37 0 0 0 2.366-2.376 2.37 2.37 0 0 0 -2.366-2.376z" fill="#000"/></svg>