<svg width="16" height="16" viewBox="0 0 16 16" fill="none" xmlns="http://www.w3.org/2000/svg">
<path d="M6.5 2.40125H15M6.5 8.00125H15M6.5 13.6013H15M2.4 3.8C3.1732 3.8 3.8 3.1732 3.8 2.4C3.8 1.6268 3.1732 1 2.4 1C1.6268 1 1 1.6268 1 2.4C1 3.1732 1.6268 3.8 2.4 3.8ZM2.4 9.4C3.1732 9.4 3.8 8.7732 3.8 8C3.8 7.2268 3.1732 6.6 2.4 6.6C1.6268 6.6 1 7.2268 1 8C1 8.7732 1.6268 9.4 2.4 9.4ZM2.4 15C3.1732 15 3.8 14.3732 3.8 13.6C3.8 12.8268 3.1732 12.2 2.4 12.2C1.6268 12.2 1 12.8268 1 13.6C1 14.3732 1.6268 15 2.4 15Z" stroke="black" stroke-width="1.5" stroke-linecap="round" stroke-linejoin="round"/>
</svg>
