<svg width="24" height="25" viewBox="0 0 24 25" fill="none" xmlns="http://www.w3.org/2000/svg">
<path fill-rule="evenodd" clip-rule="evenodd" d="M3 0C1.34315 0 0 1.34315 0 3C0 4.65685 1.34315 6 3 6C4.65685 6 6 4.65685 6 3C6 1.34315 4.65685 0 3 0ZM1.5 3C1.5 2.17157 2.17157 1.5 3 1.5C3.82843 1.5 4.5 2.17157 4.5 3C4.5 3.82843 3.82843 4.5 3 4.5C2.17157 4.5 1.5 3.82843 1.5 3ZM3 9C1.34315 9 0 10.3431 0 12C0 13.6569 1.34315 15 3 15C4.65685 15 6 13.6569 6 12C6 10.3431 4.65685 9 3 9ZM1.5 12C1.5 11.1716 2.17157 10.5 3 10.5C3.82843 10.5 4.5 11.1716 4.5 12C4.5 12.8284 3.82843 13.5 3 13.5C2.17157 13.5 1.5 12.8284 1.5 12ZM0 21C0 19.3431 1.34315 18 3 18C4.65685 18 6 19.3431 6 21C6 22.6569 4.65685 24 3 24C1.34315 24 0 22.6569 0 21ZM3 19.5C2.17157 19.5 1.5 20.1716 1.5 21C1.5 21.8284 2.17157 22.5 3 22.5C3.82843 22.5 4.5 21.8284 4.5 21C4.5 20.1716 3.82843 19.5 3 19.5ZM8.25 2.25201C7.83579 2.25201 7.5 2.5878 7.5 3.00201C7.5 3.41623 7.83579 3.75201 8.25 3.75201H23.25C23.6642 3.75201 24 3.41623 24 3.00201C24 2.5878 23.6642 2.25201 23.25 2.25201H8.25ZM7.5 12.002C7.5 11.5878 7.83579 11.252 8.25 11.252H23.25C23.6642 11.252 24 11.5878 24 12.002C24 12.4162 23.6642 12.752 23.25 12.752H8.25C7.83579 12.752 7.5 12.4162 7.5 12.002ZM8.25 20.252C7.83579 20.252 7.5 20.5878 7.5 21.002C7.5 21.4162 7.83579 21.752 8.25 21.752H23.25C23.6642 21.752 24 21.4162 24 21.002C24 20.5878 23.6642 20.252 23.25 20.252H8.25Z" fill="black"/>
</svg>
