<svg fill="none" height="24" viewBox="0 0 24 25" width="24" xmlns="http://www.w3.org/2000/svg"><path d="m8.25 20.252a.75.75 0 0 0 0 1.5h15a.75.75 0 0 0 0-1.5zm-.75-8.25a.75.75 0 0 1 .75-.75h15a.75.75 0 0 1 0 1.5h-15a.75.75 0 0 1 -.75-.75zm.75-9.75a.75.75 0 0 0 0 1.5h15a.75.75 0 0 0 0-1.5zm-5.25 17.248a1.5 1.5 0 1 0 0 3 1.5 1.5 0 0 0 0-3zm-3 1.5a3 3 0 1 1 6 0 3 3 0 0 1 -6 0zm1.5-9a1.5 1.5 0 1 1 3 0 1.5 1.5 0 0 1 -3 0zm1.5-3a3 3 0 1 0 0 6 3 3 0 0 0 0-6zm-1.5-6a1.5 1.5 0 1 1 3 0 1.5 1.5 0 0 1 -3 0zm1.5-3a3 3 0 1 0 0 6 3 3 0 0 0 0-6z" fill="#000"/></svg>