<svg width="24" height="24" viewBox="0 0 24 24" fill="none" xmlns="http://www.w3.org/2000/svg"><path d="M23.25 21a.75.75 0 000-1.5V21zM.75 19.5a.75.75 0 000 1.5v-1.5zM10.5 8a.75.75 0 000 1.5V8zm-9 1A.75.75 0 003 9H1.5zM3 16a.75.75 0 00-1.5 0H3zM6 6a.75.75 0 001.5 0H6zm1.5 13A.75.75 0 006 19h1.5zm3-3A.75.75 0 009 16h1.5zM1 11.75a.75.75 0 000 1.5v-1.5zm4.47 2.72a.75.75 0 101.06 1.06l-1.06-1.06zM8.5 12.5l.53.53a.75.75 0 000-1.06l-.53.53zM6.53 9.47a.75.75 0 00-1.06 1.06l1.06-1.06zM18 13.5h3V12h-3v1.5zm3 0h1.5A1.5 1.5 0 0021 12v1.5zm-3 0V12a1.5 1.5 0 00-1.5 1.5H18zm-7.5-4h3V8h-3v1.5zm3 0H15A1.5 1.5 0 0013.5 8v1.5zM3 5.5h3V4H3v1.5zm3 0h1.5A1.5 1.5 0 006 4v1.5zm-3 0V4a1.5 1.5 0 00-1.5 1.5H3zm-.75 14H.75V21h1.5v-1.5zm4.5 0h-4.5V21h4.5v-1.5zm3 0h-3V21h3v-1.5zm4.5 0h-4.5V21h4.5v-1.5zm-.75-10v10.75H15V9.5h-1.5zm3.75 10h-3V21h3v-1.5zm.75.75V13.5h-1.5v6.75H18zm5.25-.75h-1.5V21h1.5v-1.5zm-1.5 0h-4.5V21h4.5v-1.5zm-.75-6v6.75h1.5V13.5H21zM3 9V5.5H1.5V9H3zm0 11.25V16H1.5v4.25H3zM6 5.5V6h1.5v-.5H6zM6 19v1.25h1.5V19H6zm4.5 1.25V16H9v4.25h1.5zm-3.97-4.72l2.5-2.5-1.06-1.06-2.5 2.5 1.06 1.06zm2.5-3.56l-2.5-2.5-1.06 1.06 2.5 2.5 1.06-1.06zM1 13.25h7.5v-1.5H1v1.5z" fill="#000"/></svg>