<svg width="16" height="16" viewBox="0 0 16 16" fill="none" xmlns="http://www.w3.org/2000/svg"><path d="M6.714 14.25a.75.75 0 000 1.5v-1.5zm2.572 1.5a.75.75 0 000-1.5v1.5zm2.832-8.524l.658.36.015-.028.012-.028-.685-.304zM9.23 12.514l.647.379.006-.01.005-.01-.658-.359zm-2.466-.007l-.658.36.005.01.006.009.647-.38zM3.872 7.205l-.686.303.012.028.015.028.659-.36zm2.842 8.545h2.572v-1.5H6.714v1.5zM8.696 5.5A.696.696 0 018 6.196v1.5A2.196 2.196 0 0010.196 5.5h-1.5zM8 6.196a.696.696 0 01-.696-.696h-1.5c0 1.213.983 2.196 2.196 2.196v-1.5zM7.304 5.5c0-.385.311-.696.696-.696v-1.5A2.196 2.196 0 005.804 5.5h1.5zM8 4.804c.385 0 .696.311.696.696h1.5A2.196 2.196 0 008 3.304v1.5zm3.75.633c0 .51-.105 1.005-.318 1.485l1.371.608c.297-.669.447-1.37.447-2.093h-1.5zm-.29 1.43l-2.888 5.288 1.317.718 2.887-5.288-1.316-.718zm-2.877 5.269a.672.672 0 01-.583.328v1.5c.78 0 1.492-.411 1.878-1.072l-1.295-.756zM8 12.464a.676.676 0 01-.588-.336l-1.294.758c.39.665 1.1 1.078 1.882 1.078v-1.5zm-.576-.316L4.53 6.846l-1.317.718 2.894 5.302 1.317-.718zM4.558 6.902a3.617 3.617 0 01-.308-1.465h-1.5c0 .72.15 1.422.436 2.07l1.372-.605zM4.25 5.437C4.25 3.412 5.918 1.75 8 1.75V.25c-2.891 0-5.25 2.314-5.25 5.187h1.5zM8 1.75c2.082 0 3.75 1.662 3.75 3.687h1.5C13.25 2.564 10.891.25 8 .25v1.5z" fill="#000"/></svg>