<svg fill="none" height="24" viewBox="0 0 25 24" width="24" xmlns="http://www.w3.org/2000/svg"><g fill="#000"><path d="m2.115.75a2.186 2.186 0 0 0 -2.113 2.265v17.97a2.187 2.187 0 0 0 2.113 2.265h12.31a2.187 2.187 0 0 0 2.077-2.265v-4.485a.75.75 0 0 0 -1.5 0v4.534a.687.687 0 0 1 -.636.716h-12.23a.687.687 0 0 1 -.634-.75v-18l-.002-.034a.686.686 0 0 1 .636-.716h12.229a.687.687 0 0 1 .636.75v4.5a.75.75 0 0 0 1.5 0v-4.485a2.187 2.187 0 0 0 -2.113-2.265h-12.274z"/><path d="m18.730469 7.6835938a.72.72 0 0 0 -.519531.2109374.72.72 0 0 0 0 1.0175782l2.371093 2.3710936h-13.3828122a.72.72 0 0 0 0 1.441406h13.3828122l-2.371093 2.371094a.72.72 0 0 0 1.017578 1.017578l3.599609-3.601562a.71808.71808 0 0 0 0-1.017578l-3.599609-3.5996098a.72.72 0 0 0 -.498047-.2109374z" stroke-width=".96" transform="matrix(1.0416667 0 0 1.0416667 0 -.5)"/></g></svg>