<svg fill="none" height="16" viewBox="0 0 16 16" width="16" xmlns="http://www.w3.org/2000/svg"><path d="m1.5683594.25a.75.75 0 0 0 -.0429688.00195312c-.94599998.053-1.5523906.90571878-1.5253906 1.76171878v11.9726561c-.026.856.57939062 1.708719 1.5253906 1.761719l.0429688.001953h7.3613281a.82.82 0 0 0 .0429687-.001953c.947-.053 1.5513908-.905719 1.5253908-1.761719v-2.986328a.75.75 0 0 0 -1.498047 0v3.029297a.271.271 0 0 1 -.0546875.183594c-.022.026-.0388281.035109-.0488281.037109h-7.2929688c-.01-.002-.0258281-.010109-.0488281-.037109a.271.271 0 0 1 -.0546875-.181641v-12.0605469a.27.27 0 0 1 .0546875-.1835937.105.105 0 0 1 .046875-.0371094h7.2949219c.01.003.0268281.0101094.0488281.0371094.03.038.0586875.1005937.0546875.1835937v3.0292969a.75.75 0 0 0 1.5 0v-2.9863281c.026-.856-.5803438-1.70971877-1.5273438-1.76171878a.75.75 0 0 0 -.0429687-.00195312zm11.0761716 4.3144531a.75.75 0 0 0 -.527343 1.2988281l1.322265 1.3242188h-8.376953a.75.75 0 1 0 0 1.5h8.376953l-1.324219 1.324219a.75.75 0 0 0 1.060547 1.060547l2.59961-2.5996098.005859-.0039062a.747.747 0 0 0 0-1.0605469l-.005859-.0058593-2.597657-2.5996094h-.001953a.75.75 0 0 0 -.53125-.2382813z" fill="#000"/></svg>