<svg width="16" height="16" viewBox="0 0 16 16" fill="none" xmlns="http://www.w3.org/2000/svg"><g clip-path="url(#clip0)"><path fill-rule="evenodd" clip-rule="evenodd" d="M1.568.25a.75.75 0 00-.042.001C.58.304-.027 1.157 0 2.013v11.974c-.026.856.58 1.709 1.526 1.762l.042.001H8.93a.82.82 0 00.042-.001c.947-.053 1.553-.906 1.527-1.762V11A.75.75 0 009 11v3.03a.271.271 0 01-.054.183c-.022.026-.04.035-.05.037H1.604c-.01-.002-.027-.01-.05-.037a.271.271 0 01-.054-.182L1.5 14V2v-.03a.27.27 0 01.054-.183c.021-.026.039-.034.048-.037h7.295c.01.003.027.01.049.037.03.038.058.1.054.183V5a.75.75 0 001.5 0V2.013c.026-.856-.58-1.71-1.527-1.762A.75.75 0 008.93.25H1.568zm11.609 4.553a.75.75 0 10-1.06 1.06l1.323 1.324H5.063a.75.75 0 100 1.5h8.377l-1.324 1.324a.75.75 0 001.06 1.061l2.6-2.6.005-.004a.747.747 0 000-1.06l-.005-.006-2.6-2.599z" fill="#000"/></g><defs/></svg>