<svg width="24" height="24" viewBox="0 0 24 24" fill="none" xmlns="http://www.w3.org/2000/svg"><path d="M18.03 16.97a.75.75 0 10-1.06 1.06l1.06-1.06zm4.44 6.56a.75.75 0 101.06-1.06l-1.06 1.06zm-5.5-5.5l5.5 5.5 1.06-1.06-5.5-5.5-1.06 1.06zm.28-8.53a7.75 7.75 0 01-7.75 7.75v1.5a9.25 9.25 0 009.25-9.25h-1.5zM9.5 17.25A7.75 7.75 0 011.75 9.5H.25a9.25 9.25 0 009.25 9.25v-1.5zM1.75 9.5A7.75 7.75 0 019.5 1.75V.25A9.25 9.25 0 00.25 9.5h1.5zM9.5 1.75a7.75 7.75 0 017.75 7.75h1.5A9.25 9.25 0 009.5.25v1.5z" fill="#000"/></svg>