<svg width="16" height="16" viewBox="0 0 16 16" fill="none" xmlns="http://www.w3.org/2000/svg"><path d="M12.03 10.97a.75.75 0 10-1.06 1.06l1.06-1.06zm2.44 4.56a.75.75 0 101.06-1.06l-1.06 1.06zm-3.5-3.5l3.5 3.5 1.06-1.06-3.5-3.5-1.06 1.06zm.098-5.62a4.66 4.66 0 01-4.659 4.658v1.5a6.16 6.16 0 006.16-6.159h-1.5zM6.41 11.067A4.66 4.66 0 011.75 6.41H.25a6.16 6.16 0 006.16 6.16v-1.5zM1.75 6.41A4.66 4.66 0 016.41 1.75V.25A6.16 6.16 0 00.25 6.41h1.5zM6.41 1.75a4.66 4.66 0 014.658 4.66h1.5A6.16 6.16 0 006.41.25v1.5z" fill="#000"/></svg>