<svg width="24" height="24" viewBox="0 0 24 24" fill="none" xmlns="http://www.w3.org/2000/svg">
<path d="M10.4802 8.9433C10.0132 9.86102 9.75 10.8998 9.75 12C9.75 13.0776 10.0025 14.0963 10.4516 15M12 6.96876C13.1942 5.89992 14.7712 5.25 16.5 5.25C20.2279 5.25 23.25 8.27208 23.25 12C23.25 15.7279 20.2279 18.75 16.5 18.75C14.7712 18.75 13.1942 18.1001 12 17.0312M12 6.96876C10.8058 5.89992 9.2288 5.25 7.5 5.25C3.77208 5.25 0.75 8.27208 0.75 12C0.75 15.7279 3.77208 18.75 7.5 18.75C9.2288 18.75 10.8058 18.1001 12 17.0312M12 6.96876C13.3809 8.20473 14.25 10.0009 14.25 12C14.25 13.9991 13.3809 15.7953 12 17.0312" stroke="black" stroke-width="1.5" stroke-linecap="round"/>
</svg>
