<svg width="16" height="16" viewBox="0 0 16 16" fill="none" xmlns="http://www.w3.org/2000/svg"><path d="M7.925 3.482l-.5.558.5-.558zM5.918 5.844a.75.75 0 101.491.165l-1.49-.165zm1.55-.18a.75.75 0 10-1.464-.332l1.463.332zm.855-.226a.75.75 0 001.433-.443l-1.433.443zm5.14 0a.75.75 0 001.433-.443l-1.433.443zm-9.129 5.409a.75.75 0 00.332-1.463l-.332 1.463zM2.25 6.355A3.105 3.105 0 015.355 3.25v-1.5A4.605 4.605 0 00.75 6.355h1.5zM5.355 3.25c.796 0 1.52.298 2.07.79l1-1.117a4.59 4.59 0 00-3.07-1.173v1.5zm3.07.79a3.09 3.09 0 012.07-.79v-1.5a4.59 4.59 0 00-3.07 1.173l1 1.117zM7.41 6.01c.013-.118.033-.233.058-.346l-1.463-.332a4.595 4.595 0 00-.086.512l1.491.165zm.016-1.97c.416.372.73.854.898 1.398l1.433-.443a4.607 4.607 0 00-1.33-2.072L7.424 4.04zm3.07-.79c1.395 0 2.576.92 2.968 2.188l1.433-.443a4.607 4.607 0 00-4.4-3.245v1.5zm-5.83 6.134A3.107 3.107 0 012.25 6.355H.75a4.607 4.607 0 003.584 4.492l.332-1.463zM9 8.75h5v-1.5H9v1.5zm5 3.5H9v1.5h5v-1.5zM8.75 12v-.944h-1.5V12h1.5zm0-.944V9h-1.5v2.056h1.5zM14.25 9v2.056h1.5V9h-1.5zm0 2.056V12h1.5v-.944h-1.5zm-6.25.75h7v-1.5H8v1.5zm1 .444a.25.25 0 01-.25-.25h-1.5c0 .966.784 1.75 1.75 1.75v-1.5zm5 1.5A1.75 1.75 0 0015.75 12h-1.5a.25.25 0 01-.25.25v1.5zm0-5a.25.25 0 01.25.25h1.5A1.75 1.75 0 0014 7.25v1.5zm-5-1.5A1.75 1.75 0 007.25 9h1.5A.25.25 0 019 8.75v-1.5z" fill="#000"/></svg>