<svg width="24" height="24" viewBox="0 0 24 24" fill="none" xmlns="http://www.w3.org/2000/svg">
<path d="M11.5 17.8667V23M11.5 17.8667C13.4453 17.9011 15.3256 17.1819 16.7306 15.8659C18.1357 14.55 18.9515 12.7441 19 10.8423V8.33333M11.5 17.8667C9.55469 17.9011 7.6744 17.1819 6.26935 15.8659C4.8643 14.55 4.04853 12.7441 4 10.8423V8.33333M11.5 23H15.5M11.5 23H7.5M11.5 1C13.9853 1 16 2.96995 16 5.4V10.5333C16 12.9634 13.9853 14.9333 11.5 14.9333C9.01472 14.9333 7 12.9634 7 10.5333V5.4C7 2.96995 9.01472 1 11.5 1Z" stroke="black" stroke-width="1.5" stroke-linecap="round" stroke-linejoin="round"/>
</svg>
