<svg fill="none" height="16" viewBox="0 0 17 17" width="16" xmlns="http://www.w3.org/2000/svg"><path d="m12.998047 6.4980469a1.4997647 1.4997647 0 0 0 0 3 1.4997647 1.4997647 0 1 0 0-3zm-9.9531251.0019531a1.4992941 1.4992941 0 0 0 -1.5429688 1.4980469 1.4992941 1.4992941 0 1 0 2.9980469 0 1.4992941 1.4992941 0 0 0 -1.4550781-1.4980469zm4.9980469 0a1.4992941 1.4992941 0 0 0 -1.5429688 1.4980469 1.4992941 1.4992941 0 0 0 3 0 1.4992941 1.4992941 0 0 0 -1.4570312-1.4980469z" fill="#000" stroke-width=".941176" transform="scale(1.0625)"/></svg>