<svg width="16" height="16" viewBox="0 0 16 16" fill="none" xmlns="http://www.w3.org/2000/svg"><path d="M1 9.5V7.727a1 1 0 011-1h5a1 1 0 011 1V14a1 1 0 01-1 1H5.773a.955.955 0 01-.955-.954v0a.955.955 0 00-.954-.955v0a.955.955 0 00-.955.955v0a.955.955 0 01-.954.954v0A.955.955 0 011 14.046V9.5zm0 0h2.864M9.59 4H8.364a1 1 0 01-1-1V2a1 1 0 011-1H14a1 1 0 011 1v12a1 1 0 01-1 1h-1.227a.955.955 0 01-.955-.954v0a.955.955 0 00-.954-.955v0a.955.955 0 00-.955.955V15h-.318" stroke="#000" stroke-width="1.5" stroke-linecap="round" stroke-linejoin="round"/></svg>