<svg width="16" height="16" viewBox="0 0 16 16" fill="none" xmlns="http://www.w3.org/2000/svg"><path d="M10.194 1.062l.322.677-.322-.677zm.883.392l-.719.215.719-.215zm-.85 7.13a.75.75 0 100 1.5v-1.5zm2.652 1.81a.75.75 0 101.06 1.061l-1.06-1.06zM15 9.335l.53.53a.75.75 0 000-1.06l-.53.53zm-1.06-2.121a.75.75 0 10-1.061 1.06l1.06-1.06zm-1.262-2.488a.75.75 0 10.644-1.355l-.644 1.355zm.966 10.381a.75.75 0 10-.883-1.212l.883 1.212zm-1.19-1.113H2.274v1.5h10.181v-1.5zM1.75 13.47V5.198H.25v8.272h1.5zm.523.523a.523.523 0 01-.523-.523H.25c0 1.117.906 2.023 2.023 2.023v-1.5zm0-10.818A2.023 2.023 0 00.25 5.198h1.5c0-.29.234-.523.523-.523v-1.5zm0 1.5h1.909v-1.5h-1.91v1.5zm2.231-.073l6.012-2.863L9.871.385 3.86 3.248l.645 1.354zm-.322.073h7.636v-1.5H4.182v1.5zm7.636 0h.636v-1.5h-.636v1.5zm-1.46-3.006L11.1 4.14l1.437-.43-.742-2.472-1.437.431zm.158.07a.114.114 0 01-.158-.07l1.437-.43A1.386 1.386 0 009.871.384l.645 1.354zm3.423 9.716l1.591-1.59-1.06-1.061-1.591 1.59 1.06 1.061zm1.591-2.651l-1.59-1.591-1.061 1.06 1.59 1.591 1.061-1.06zm-5.303 1.28H15v-1.5h-4.773v1.5zm2.227-5.41c.082 0 .157.02.224.05l.644-1.354a2.017 2.017 0 00-.867-.195v1.5zm0 10.82c.444 0 .856-.144 1.19-.388l-.883-1.212a.518.518 0 01-.306.1v1.5z" fill="#000"/></svg>