<svg width="24" height="24" viewBox="0 0 24 24" fill="none" xmlns="http://www.w3.org/2000/svg"><path d="M20.25 8.5a.75.75 0 001.5 0h-1.5zm1.5 12a.75.75 0 00-1.5 0h1.5zM15.447 1.501l.323.677-.323-.677zm1.388.616l-.718.215.718-.215zM15.5 13.75a.75.75 0 000 1.5v-1.5zm4.47 2.72a.75.75 0 101.06 1.06l-1.06-1.06zM23 14.5l.53.53a.75.75 0 000-1.06l-.53.53zm-1.97-3.03a.75.75 0 10-1.06 1.06l1.06-1.06zM19 22.25H3v1.5h16v-1.5zM1.75 21V8H.25v13h1.5zM3 22.25c-.69 0-1.25-.56-1.25-1.25H.25A2.75 2.75 0 003 23.75v-1.5zm16 1.5A2.75 2.75 0 0021.75 21h-1.5c0 .69-.56 1.25-1.25 1.25v1.5zm0-17c.69 0 1.25.56 1.25 1.25h1.5A2.75 2.75 0 0019 5.25v1.5zM3 5.25A2.75 2.75 0 00.25 8h1.5c0-.69.56-1.25 1.25-1.25v-1.5zM20.25 8v.5h1.5V8h-1.5zm0 12.5v.5h1.5v-.5h-1.5zM3 6.75h3v-1.5H3v1.5zm3.322-.073l9.448-4.499-.645-1.354-9.447 4.499.644 1.354zM6 6.75h12v-1.5H6v1.5zm12 0h1v-1.5h-1v1.5zm-1.883-4.418l1.165 3.883 1.436-.43L17.553 1.9l-1.436.431zm-.347-.154a.25.25 0 01.347.154l1.436-.43A1.75 1.75 0 0015.125.823l.645 1.354zm5.26 15.352l2.5-2.5-1.06-1.06-2.5 2.5 1.06 1.06zm2.5-3.56l-2.5-2.5-1.06 1.06 2.5 2.5 1.06-1.06zm-8.03 1.28H23v-1.5h-7.5v1.5z" fill="#000"/></svg>