<svg fill="none" height="16" viewBox="0 0 16 16" width="16" xmlns="http://www.w3.org/2000/svg"><path clip-rule="evenodd" d="m12.890625.00585938c-.797986.00550996-1.593398.31402724-2.191406.92578124l-.169922.16992188a.750075.750075 0 0 0 -.183594.1835937l-8.9121092 8.9101558a.750075.750075 0 0 0 -.2929688.509766l-1.1171875 4.359375a.750075.750075 0 0 0 .91210938.912109l4.33398432-1.113281a.750075.750075 0 0 0 .5683594-.332031.750075.750075 0 0 0 .0058594-.007812l8.857422-8.8554692.005859-.0039063a.750075.750075 0 0 0 .203125-.2050781.750075.750075 0 0 0 .00586-.0078125l.152343-.1503907c1.186638-1.1603757 1.223622-3.0597777.123047-4.2792968a.750075.750075 0 0 0 -.09375-.11718752.750075.750075 0 0 0 -.001953-.00195313c-.606355-.6034379-1.407092-.90199434-2.205078-.89648437zm.009766 1.49023442c.407956-.0028201.81763.1522516 1.134765.4667968 0 0 .001953.0019532.001953.0019532.541219.545213.607773 1.3623536.210938 1.9785156l-2.191406-2.1914063c.258148-.1666222.549315-.2538264.84375-.2558593zm-1.931641 1.2890624 2.246094 2.2460938-8.0136721 8.013672-2.25-2.244141zm-8.6777344 9.4726558 1.4511719 1.449219-1.9511719.501953z" fill="#000"/></svg>