<svg fill="none" height="24" viewBox="0 0 24 24" width="24" xmlns="http://www.w3.org/2000/svg"><path d="m19.591797.00390625c-1.131193.00765798-2.257883.44726636-3.107422 1.31640625l-.310547.3125-.007812.0058594a.750075.750075 0 0 0 -.175782.1757812l-13.9023434 13.9042969-.0078125.005859a.750075.750075 0 0 0 -.3125.535157l-1.7441406 6.804687a.750075.750075 0 0 0 .91210938.912109l6.82421872-1.75a.750075.750075 0 0 0 .515625-.30664l13.9179684-13.9179689a.750075.750075 0 0 0 .154297-.1542969l.332032-.3320312c1.664304-1.6262292 1.705895-4.2508063.205078-5.984375a.750075.750075 0 0 0 -.164063-.25.750075.750075 0 0 0 -.001953-.0019531c-.861181-.85756145-1.99576-1.28304863-3.126953-1.27539065zm.011719 1.49023435c.741074-.00502 1.482686.2771907 2.054687.8457032 0 0 .001953.0019531.001953.0019531 1.095602 1.1011116 1.066256 2.8148179.03711 3.9492187l-3.988282-3.9863281c.545805-.4953002 1.207738-.8058974 1.894532-.8105469zm-2.998047 1.8261719 4.074219 4.0742187-13.0214849 13.0195308-4.0761719-4.070312zm-13.6855471 14.4824215 3.28125 3.273438-4.4101563 1.132812z" fill="#000"/></svg>