<svg width="16" height="16" viewBox="0 0 16 16" fill="none" xmlns="http://www.w3.org/2000/svg"><path d="M10.405 15.04a.75.75 0 001.498-.08l-1.498.08zm-6.494-.08a.75.75 0 001.498.08l-1.498-.08zm3.996-2.791c.81 0 1.383.302 1.778.771.411.489.674 1.213.72 2.1l1.498-.08c-.059-1.119-.396-2.185-1.07-2.986-.69-.82-1.689-1.305-2.926-1.305v1.5zm-2.498 2.87c.046-.886.309-1.61.72-2.099.395-.47.967-.771 1.778-.771v-1.5c-1.237 0-2.236.485-2.926 1.305-.674.801-1.011 1.867-1.07 2.986l1.498.08zm5.655-10.132a3.157 3.157 0 01-3.157 3.157v1.5a4.657 4.657 0 004.657-4.657h-1.5zM7.907 8.064A3.157 3.157 0 014.75 4.907h-1.5a4.657 4.657 0 004.657 4.657v-1.5zM4.75 4.907A3.157 3.157 0 017.907 1.75V.25A4.657 4.657 0 003.25 4.907h1.5zM7.907 1.75a3.157 3.157 0 013.157 3.157h1.5A4.657 4.657 0 007.907.25v1.5z" fill="#000"/></svg>