<svg width="16" height="16" viewBox="0 0 16 17" fill="none" xmlns="http://www.w3.org/2000/svg"><path fill-rule="evenodd" clip-rule="evenodd" d="M6.5 13.417a.667.667 0 11-1.333 0 .667.667 0 011.333 0z" fill="#000"/><path d="M10.333 3.583V1.75a1 1 0 00-1-1h-7a1 1 0 00-1 1v12.667a1 1 0 001 1h7a1 1 0 001-1v-3.334" stroke="#000" stroke-width="1.5" stroke-linecap="round" stroke-linejoin="round"/><path d="M5.25 7.208a1.125 1.125 0 11-2.25 0 1.125 1.125 0 012.25 0zM8.75 7.208a1.125 1.125 0 11-2.25 0 1.125 1.125 0 012.25 0zM12.25 7.208a1.125 1.125 0 11-2.25 0 1.125 1.125 0 012.25 0zM15.75 7.208a1.125 1.125 0 11-2.25 0 1.125 1.125 0 012.25 0z" fill="#000"/></svg>