<svg width="24" height="24" viewBox="0 0 24 24" fill="none" xmlns="http://www.w3.org/2000/svg"><path fill-rule="evenodd" clip-rule="evenodd" d="M9.75 20a1 1 0 11-2 0 1 1 0 012 0z" fill="#000"/><path d="M15.5 6V2a1 1 0 00-1-1H3a1 1 0 00-1 1v20a1 1 0 001 1h11.5a1 1 0 001-1v-8" stroke="#000" stroke-width="1.5" stroke-linecap="round" stroke-linejoin="round"/><path d="M11 10.125a1.125 1.125 0 11-2.25 0 1.125 1.125 0 012.25 0zm3.5 0a1.125 1.125 0 11-2.25 0 1.125 1.125 0 012.25 0zm3.5 0a1.125 1.125 0 11-2.25 0 1.125 1.125 0 012.25 0zm3.5 0a1.125 1.125 0 11-2.25 0 1.125 1.125 0 012.25 0z" fill="#000"/></svg>