<svg fill="none" height="16" viewBox="0 0 17 16" width="16" xmlns="http://www.w3.org/2000/svg"><path d="m4.3554688.47070312c-.8941177 0-1.6171876.72401108-1.6171876 1.61718748v2.0332032h-1.1191406c-.89411762-.0000001-1.6191406.7250229-1.6191406 1.6191406v4.5624996c0 .893177.72502298 1.619141 1.6191406 1.619141h1.2617188v2.945313a.56470588.56470588 0 0 0 .5644531.564453h8.2109375a.56470588.56470588 0 0 0 .564453-.564453v-2.945313h1.261719c.894118 0 1.61914-.725023 1.61914-1.619141v-4.5624996c0-.8941177-.725022-1.6191406-1.61914-1.6191406h-1.119141v-2.03125c0-.8941177-.725023-1.61914068-1.61914-1.61914068zm-.0117188 1.41210938a.20705882.20705882 0 0 1 .0136719 0h6.3886721a.20705882.20705882 0 0 1 .207031.2070313v2.03125h-6.8046875v-2.0332032l.0019531.0019532a.20705882.20705882 0 0 1 .1933594-.2070313zm-2.7246094 3.6503906h1.8242188.0019531 10.0371095a.20705882.20705882 0 0 1 .207031.2070313v4.5624996a.20705882.20705882 0 0 1 -.207031.207032h-1.259766v-2.0332035a.56470588.56470588 0 0 0 -.564453-.5644531h-8.2128905a.56470588.56470588 0 0 0 -.5644531.5644531v2.0332035h-1.2617188c-.1148235 0-.2070312-.093149-.2070312-.207032v-4.5624996a.20705882.20705882 0 0 1 .2070312-.2070313zm1.3671875.6484375a.47058824.47058824 0 0 0 0 .9414063h.9140625a.47058824.47058824 0 0 0 0-.9414063zm1.0234375 2.8613282h7.0839844v5.2578122h-7.0839844zm1.2617188 1.2441402a.47058824.47058824 0 0 0 -.4707032.470703h-.0019531a.47058824.47058824 0 0 0 .4707031.470704h4.5644532a.47058824.47058824 0 0 0 0-.941407zm-.0019532 1.826172a.47058824.47058824 0 0 0 .0019532.941407h3.1933594a.47058824.47058824 0 0 0 0-.941407h-3.1933594z" fill="#000" stroke-width=".941176" transform="matrix(1.0625 0 0 1.0625 0 -.5)"/></svg>