<svg fill="none" height="24" viewBox="0 0 24 24" width="24" xmlns="http://www.w3.org/2000/svg"><path d="m6.75 0a2.25 2.25 0 0 0 -2.25 2.25v3.75h-2.25a2.25 2.25 0 0 0 -2.25 2.25v7.5a2.25 2.25 0 0 0 2.25 2.25h2.25v5.248047a.75.75 0 0 0 .75.75h13.5a.75.75 0 0 0 .75-.748047v-5.25h2.248047a2.25 2.25 0 0 0 2.25-2.25v-7.5a2.25 2.25 0 0 0 -2.248047-2.25h-2.25v-3.75a2.25 2.25 0 0 0 -2.25-2.25zm0 1.5h10.5a.75.75 0 0 1 .75.75v3.75h-12v-3.75a.75.75 0 0 1 .75-.75zm-4.5 6h3 16.5a.75.75 0 0 1 .75.75v7.5a.75.75 0 0 1 -.75.75h-2.25v-3.75a.75.75 0 0 0 -.75-.75h-13.5a.75.75 0 0 0 -.75.75v3.75h-2.25c-.414 0-.75-.336-.75-.75v-7.5a.75.75 0 0 1 .75-.75zm1.5 1.5a.75.75 0 0 0 0 1.5h1.5a.75.75 0 0 0 0-1.5zm2.25 4.5h12v9h-12zm2.25 1.5a.75.75 0 0 0 -.75.75.75.75 0 0 0 .75.75h7.5a.75.75 0 0 0 0-1.5zm0 3a.75.75 0 0 0 0 1.5h5.25a.75.75 0 0 0 0-1.5z" fill="#000"/></svg>