<svg fill="none" height="24" viewBox="0 0 24 24" width="24" xmlns="http://www.w3.org/2000/svg"><path d="m11.929688.375c-4.1120005 0-7.2773442 3.1633906-7.2773442 7.2753906a.75.75 0 0 0 1.5 0c0-3.283 2.4933437-5.7753906 5.7773442-5.7753906 3.283999 0 5.773437 2.4913906 5.773437 5.7753906 0 3.2830004-2.490437 5.7753904-5.773437 5.7753904a.75.75 0 0 0 -.75.75v3.998047a.75.75 0 0 0 1.5 0v-3.283203c3.74-.359 6.523437-3.382234 6.523437-7.2402344 0-4.112-3.161437-7.2753906-7.273437-7.2753906zm0 20.332031c-.987001 0-1.646485.657532-1.646485 1.644531 0 .987.659484 1.644532 1.646485 1.644532.987 0 1.644531-.657532 1.644531-1.644532 0-.986999-.657531-1.644531-1.644531-1.644531z" fill="#000"/></svg>