<svg width="24" height="24" viewBox="0 0 24 24" fill="none" xmlns="http://www.w3.org/2000/svg">
<path fill-rule="evenodd" clip-rule="evenodd" d="M10.5064 5.15603C11.0355 4.88221 11.6298 4.75913 12.2242 4.80022C12.8186 4.84132 13.3902 5.04501 13.8766 5.38905C14.3631 5.73308 14.7456 6.20421 14.9824 6.75095C15.2191 7.29769 15.301 7.89899 15.2192 8.48914C15.1373 9.07929 14.8947 9.63557 14.5181 10.0972C14.1414 10.5588 13.6451 10.908 13.0833 11.1066C12.5469 11.2963 12.0826 11.6476 11.7542 12.1122C11.4259 12.5767 11.2498 13.1316 11.25 13.7004L11.25 13.7008L11.25 15.0417C11.25 15.4559 11.5858 15.7917 12 15.7917C12.4142 15.7917 12.75 15.4559 12.75 15.0417V13.7004V13.7C12.7499 13.4414 12.8299 13.1891 12.9792 12.9779C13.1284 12.7667 13.3395 12.607 13.5833 12.5208C14.4043 12.2306 15.1297 11.7202 15.6802 11.0455C16.2308 10.3708 16.5852 9.55781 16.7049 8.69529C16.8246 7.83276 16.7049 6.95393 16.3588 6.15486C16.0128 5.35578 15.4537 4.6672 14.7428 4.16439C14.0318 3.66157 13.1963 3.36386 12.3276 3.30379C11.4589 3.24373 10.5904 3.42363 9.81702 3.82382C9.04364 4.22401 8.39515 4.8291 7.94243 5.57295C7.4897 6.3168 7.25017 7.17078 7.25 8.04157C7.24992 8.45579 7.58564 8.79164 7.99986 8.79172C8.41407 8.7918 8.74992 8.45607 8.75 8.04186C8.75011 7.44606 8.91401 6.86175 9.22376 6.3528C9.53352 5.84385 9.97723 5.42984 10.5064 5.15603ZM12 21.0002C12.8284 21.0002 13.5 20.3286 13.5 19.5002C13.5 18.6717 12.8284 18.0002 12 18.0002C11.1716 18.0002 10.5 18.6717 10.5 19.5002C10.5 20.3286 11.1716 21.0002 12 21.0002Z" fill="black"/>
</svg>
