<svg width="24" height="24" viewBox="0 0 24 24" fill="none" xmlns="http://www.w3.org/2000/svg">
<path fill-rule="evenodd" clip-rule="evenodd" d="M1.5 12C1.5 6.20101 6.20101 1.5 12 1.5C17.799 1.5 22.5 6.20101 22.5 12C22.5 17.799 17.799 22.5 12 22.5C6.20101 22.5 1.5 17.799 1.5 12ZM12 0C5.37258 0 0 5.37258 0 12C0 18.6274 5.37258 24 12 24C18.6274 24 24 18.6274 24 12C24 5.37258 18.6274 0 12 0ZM10.966 7.00225C11.3323 6.81269 11.7437 6.72747 12.1552 6.75592C12.5667 6.78438 12.9624 6.9254 13.2992 7.16357C13.636 7.40175 13.9008 7.72792 14.0647 8.10643C14.2286 8.48494 14.2853 8.90123 14.2286 9.30979C14.172 9.71836 14.0041 10.1035 13.7433 10.4231C13.4825 10.7426 13.1389 10.9844 12.75 11.1219C12.3111 11.277 11.9312 11.5645 11.6625 11.9447C11.394 12.3247 11.2498 12.7786 11.25 13.244V13.2444V14.25C11.25 14.6642 11.5858 15 12 15C12.4142 15 12.75 14.6642 12.75 14.25V13.244V13.2436C12.7499 13.0884 12.798 12.9371 12.8875 12.8104C12.9771 12.6836 13.1037 12.5878 13.25 12.5361C13.8981 12.3069 14.4708 11.904 14.9055 11.3714C15.3401 10.8387 15.6199 10.1969 15.7144 9.51594C15.8089 8.835 15.7144 8.14119 15.4412 7.51034C15.168 6.87948 14.7266 6.33587 14.1654 5.93891C13.6041 5.54195 12.9445 5.30691 12.2587 5.2595C11.5728 5.21208 10.8872 5.3541 10.2766 5.67004C9.66603 5.98598 9.15407 6.46368 8.79665 7.05093C8.43924 7.63818 8.25013 8.31238 8.25 8.99985C8.24992 9.41406 8.58564 9.74991 8.99986 9.74999C9.41407 9.75007 9.74992 9.41435 9.75 9.00014C9.75008 8.58766 9.86354 8.18314 10.078 7.83079C10.2924 7.47844 10.5996 7.19182 10.966 7.00225ZM12 18.5C12.5523 18.5 13 18.0523 13 17.5C13 16.9477 12.5523 16.5 12 16.5C11.4477 16.5 11 16.9477 11 17.5C11 18.0523 11.4477 18.5 12 18.5Z" fill="black"/>
</svg>
