<svg fill="none" height="16" viewBox="0 0 16 16" width="16" xmlns="http://www.w3.org/2000/svg"><path d="m7.953125.00195313c-2.88 0-5.0996094 2.22060937-5.0996094 5.09960937a.75.75 0 0 0 1.5 0l-.0019531-.0019531c0-2.05 1.5496094-3.5996094 3.5996094-3.5996094 2.0520001 0 3.6015621 1.5496094 3.6015621 3.5996094 0 2.051-1.549609 3.5996094-3.599609 3.5996094a.75.75 0 0 0 -.75.75v2.6660152a.75.75 0 0 0 1.5 0v-1.964843c2.506-.3480008 4.349609-2.4248285 4.349609-5.0488285 0-2.879-2.219609-5.09960937-5.099609-5.09960937zm0 13.80273487c-.658 0-1.0976562.438703-1.0976562 1.095703 0 .657305.4408123 1.096731 1.0976562 1.097656.6578455-.000921 1.0976563-.440348 1.0976562-1.097656 0-.658-.4406562-1.095703-1.0976562-1.095703z" fill="#000"/></svg>