<svg width="17" height="17" viewBox="0 0 17 17" fill="none" xmlns="http://www.w3.org/2000/svg">
<path fill-rule="evenodd" clip-rule="evenodd" d="M1.59333 8.5C1.59333 4.68555 4.68555 1.59333 8.5 1.59333C12.3145 1.59333 15.4067 4.68555 15.4067 8.5C15.4067 12.3145 12.3145 15.4067 8.5 15.4067C4.68555 15.4067 1.59333 12.3145 1.59333 8.5ZM8.5 0C3.80558 0 0 3.80558 0 8.5C0 13.1944 3.80558 17 8.5 17C13.1944 17 17 13.1944 17 8.5C17 3.80558 13.1944 0 8.5 0ZM7.92206 5.32928C8.12681 5.22332 8.35675 5.1757 8.58674 5.1916C8.81673 5.2075 9.03793 5.28632 9.22615 5.41944C9.41437 5.55256 9.56238 5.73486 9.654 5.94642C9.74561 6.15797 9.77731 6.39064 9.74563 6.61899C9.71394 6.84735 9.6201 7.0626 9.47434 7.24122C9.32859 7.41984 9.13654 7.55496 8.91919 7.6318C8.56345 7.75757 8.25549 7.99058 8.03773 8.29871C7.82005 8.60672 7.70322 8.97465 7.70334 9.35181V9.35223V10.0407C7.70334 10.4806 8.06001 10.8373 8.5 10.8373C8.93998 10.8373 9.29666 10.4806 9.29666 10.0407V9.35181V9.3514C9.29664 9.30372 9.3114 9.25721 9.33892 9.21827C9.36643 9.17934 9.40535 9.1499 9.4503 9.13401C9.94304 8.95979 10.3784 8.65348 10.7088 8.24855C11.0393 7.84362 11.252 7.35565 11.3238 6.83797C11.3957 6.32029 11.3238 5.79283 11.1161 5.31324C10.9084 4.83364 10.5729 4.42037 10.1462 4.11858C9.71948 3.8168 9.21803 3.63812 8.69664 3.60207C8.17525 3.56602 7.65398 3.67399 7.18981 3.91418C6.72563 4.15437 6.33642 4.51753 6.0647 4.96398C5.79298 5.41043 5.64921 5.92298 5.64911 6.44562C5.64903 6.8856 6.00564 7.24235 6.44562 7.24243C6.88561 7.24252 7.24236 6.88591 7.24244 6.44592C7.24248 6.21538 7.3059 5.98929 7.42576 5.79236C7.54562 5.59542 7.71731 5.43523 7.92206 5.32928ZM8.49996 12.9508C8.87813 12.9508 9.1847 12.6443 9.1847 12.2661C9.1847 11.8879 8.87813 11.5813 8.49996 11.5813C8.12178 11.5813 7.81521 11.8879 7.81521 12.2661C7.81521 12.6443 8.12178 12.9508 8.49996 12.9508Z" fill="black"/>
</svg>
