<svg width="16" height="16" viewBox="0 0 16 16" fill="none" xmlns="http://www.w3.org/2000/svg"><path fill-rule="evenodd" clip-rule="evenodd" d="M6.142 4.876c0-1.205 1.081-2.203 2.272-2.12 1.202.082 2.123 1.23 1.96 2.412A2.174 2.174 0 018.975 6.88c-.961.34-1.313 1.123-1.426 1.826-.054.34-.059.685-.053.985.002.154.007.28.011.396.005.143.01.27.01.413a.75.75 0 001.5 0c0-.15-.006-.338-.012-.516l-.01-.32a4.196 4.196 0 01.036-.72c.062-.393.19-.56.444-.65a3.673 3.673 0 002.383-2.92c.283-2.038-1.267-3.972-3.341-4.115-2.053-.142-3.876 1.537-3.876 3.616a.75.75 0 101.5 0zM8.25 14.5a1 1 0 100-2 1 1 0 000 2z" fill="#000"/></svg>