<svg width="24" height="24" viewBox="0 0 24 24" fill="none" xmlns="http://www.w3.org/2000/svg"><path d="M7.25 1a.75.75 0 00-1.5 0h1.5zm-1.5 5a.75.75 0 001.5 0h-1.5zm12.5-5a.75.75 0 00-1.5 0h1.5zm-1.5 5a.75.75 0 001.5 0h-1.5zM9 23.25a.75.75 0 000-1.5v1.5zm3.333-7.226a.75.75 0 001.416.494l-1.416-.494zm10.626.247l-.709.247.073.207.172.136.464-.59zm.708 3.705a.75.75 0 00-1.417-.494l1.417.494zm-10.626-.247l.708-.247-.072-.207-.172-.136-.464.59zM23.25 16.5v.75a.75.75 0 00.75-.75h-.75zm.75-3.25a.75.75 0 00-1.5 0H24zm-4 2.5a.75.75 0 000 1.5v-1.5zm-4 4.5a.75.75 0 000-1.5v1.5zm-3.25-.75v-.75a.75.75 0 00-.75.75h.75zM12 22.75a.75.75 0 001.5 0H12zM5.75 1v2.5h1.5V1h-1.5zm0 2.5V6h1.5V3.5h-1.5zm11-2.5v2.5h1.5V1h-1.5zm0 2.5V6h1.5V3.5h-1.5zM2.5 23.25H9v-1.5H2.5v1.5zm19-20.5h-4v1.5h4v-1.5zm-4 0h-11v1.5h11v-1.5zm-11 0h-4v1.5h4v-1.5zM.75 4.5v5h1.5v-5H.75zm0 5v12h1.5v-12H.75zm22.5-1v-4h-1.5v4h1.5zM1.5 10.25h20v-1.5h-20v1.5zM21.75 8.5a.25.25 0 01-.25.25v1.5a1.75 1.75 0 001.75-1.75h-1.5zm-.25-4.25a.25.25 0 01.25.25h1.5a1.75 1.75 0 00-1.75-1.75v1.5zm-19 17.5a.25.25 0 01-.25-.25H.75c0 .966.784 1.75 1.75 1.75v-1.5zm0-19A1.75 1.75 0 00.75 4.5h1.5a.25.25 0 01.25-.25v-1.5zm11.25 13.768A4.502 4.502 0 0118 13.5V12a6.002 6.002 0 00-5.667 4.024l1.416.494zM18 13.5a4.502 4.502 0 014.25 3.018l1.417-.494A6.002 6.002 0 0018 12v1.5zm4.25 5.982A4.502 4.502 0 0118 22.5V24a6.002 6.002 0 005.667-4.024l-1.417-.494zM18 22.5a4.502 4.502 0 01-4.25-3.018l-1.417.494A6.002 6.002 0 0018 24v-1.5zm6-6v-3.25h-1.5v3.25H24zm-.75-.75H20v1.5h3.25v-1.5zm-7.25 3h-3.25v1.5H16v-1.5zm-4 .75v3.25h1.5V19.5H12zm10.495-2.64l.292.23.926-1.18-.291-.229-.927 1.18zm-8.99 2.28l-.292-.23-.926 1.18.29.229.928-1.18z" fill="#000"/></svg>