<svg width="24" height="24" viewBox="0 0 24 24" fill="none" xmlns="http://www.w3.org/2000/svg"><path d="M10.375 22a.75.75 0 000-1.5V22zm9.375-8.5l-.53.53a.75.75 0 001.06 0l-.53-.53zm-2.72-3.78a.75.75 0 10-1.06 1.06l1.06-1.06zm6.5 1.06a.75.75 0 10-1.06-1.06l1.06 1.06zM1.75 11.875a8.625 8.625 0 018.625-8.625v-1.5C4.783 1.75.25 6.283.25 11.875h1.5zm8.625-8.625A8.625 8.625 0 0119 11.875h1.5c0-5.592-4.533-10.125-10.125-10.125v1.5zm0 17.25a8.625 8.625 0 01-8.625-8.625H.25C.25 17.467 4.783 22 10.375 22v-1.5zm9.905-7.53l-3.25-3.25-1.06 1.06 3.25 3.25 1.06-1.06zm0 1.06l3.25-3.25-1.06-1.06-3.25 3.25 1.06 1.06zM19 11.875V13.5h1.5v-1.625H19z" fill="#000"/></svg>