<svg width="16" height="16" viewBox="0 0 16 16" fill="none" xmlns="http://www.w3.org/2000/svg"><path d="M12.182 7.966a.75.75 0 001.5 0h-1.5zm-5.216 6.716a.75.75 0 000-1.5v1.5zM12.932 9l-.53.53a.75.75 0 001.06 0l-.53-.53zm-1.538-2.599a.75.75 0 00-1.06 1.061l1.06-1.06zm4.136 1.061a.75.75 0 00-1.06-1.06l1.06 1.06zm-13.78.504A5.216 5.216 0 016.966 2.75v-1.5A6.716 6.716 0 00.25 7.966h1.5zM6.966 2.75a5.216 5.216 0 015.216 5.216h1.5A6.716 6.716 0 006.966 1.25v1.5zm0 10.432A5.216 5.216 0 011.75 7.966H.25a6.716 6.716 0 006.716 6.716v-1.5zm6.496-4.712L11.394 6.4l-1.06 1.061 2.068 2.068 1.06-1.06zm0 1.06l2.068-2.068-1.06-1.06L12.4 8.47l1.061 1.06z" fill="#000"/></svg>