<svg width="16" height="16" viewBox="0 0 16 16" fill="none" xmlns="http://www.w3.org/2000/svg">
<path d="M3.28044 5.75048C4.39793 4.96785 5.70892 4.50723 7.07035 4.41887C8.43177 4.33052 9.79131 4.61784 11.0006 5.24947C12.2098 5.8811 13.2224 6.83278 13.9277 8.00062C14.6329 9.16846 15.0039 10.5076 15 11.8719C15 10.6342 14.5083 9.44723 13.6331 8.57206C12.758 7.6969 11.571 7.20523 10.3333 7.20523C9.60955 7.20577 8.89608 7.37659 8.25055 7.70389C7.60503 8.03119 7.04557 8.50579 6.61741 9.08932L8.60354 11.0754C8.66876 11.1407 8.71315 11.2239 8.7311 11.3144C8.74906 11.405 8.73976 11.4988 8.7044 11.584C8.66903 11.6693 8.60919 11.7421 8.53242 11.7934C8.45566 11.8446 8.36543 11.8719 8.27314 11.8719H1.93333C1.6858 11.8719 1.4484 11.7736 1.27337 11.5985C1.09833 11.4235 1 11.1861 1 10.9386V4.59688C0.999958 4.50459 1.02728 4.41436 1.07852 4.3376C1.12976 4.26083 1.2026 4.20099 1.28785 4.16562C1.3731 4.13026 1.46691 4.12097 1.55744 4.13892C1.64797 4.15687 1.73114 4.20126 1.79644 4.26648L3.28044 5.75048Z" stroke="black" stroke-width="1.5" stroke-linecap="round" stroke-linejoin="round"/>
</svg>
