<svg fill="none" height="24" viewBox="0 0 24 24" width="24" xmlns="http://www.w3.org/2000/svg"><path d="m11.980469.75a.75000267.75000267 0 0 0 -.730469.7480469l-.037109 14.6542971-6.1835941-6.1816409a.75.75 0 0 0 -1.0585938 1.0585939l7.4999999 7.5a.75.75 0 0 0 1.058594 0l7.5-7.5a.75.75 0 1 0 -1.058594-1.0585939l-6.257812 6.2558589.037109-14.7246089a.75000267.75000267 0 0 0 -.769531-.7519531zm-8.261719 20.25a.75.75 0 0 0 .03125 1.5h16.5a.75.75 0 0 0 .75-.75.75.75 0 0 0 -.75-.75h-16.5a.75.75 0 0 0 -.03125 0z" fill="#000"/></svg>