<svg fill="none" height="16" viewBox="0 0 16 16" width="16" xmlns="http://www.w3.org/2000/svg"><path d="m7.9804688.25a.75000267.75000267 0 0 0 -.7304688.74804688l-.0234375 9.16796912-3.6972656-3.6953129a.75.75 0 0 0 -1.0585938 1.0585938l5 5.0000001a.75.75 0 0 0 1.0585938 0l5.0000001-5.0000001a.75.75 0 1 0 -1.058594-1.0585938l-3.7441405 3.7421879.0234375-9.2109379a.75000267.75000267 0 0 0 -.7695312-.7519531zm-5.2089844 14.25a.83.83 0 0 0 -.8144532.746094.678.678 0 0 0 .6894532.748047h10.4999996a.83.83 0 0 0 .810547-.748047c.035-.412-.271547-.746094-.685547-.746094z" fill="#000"/></svg>