<svg fill="none" height="16" viewBox="0 0 16 16" width="16" xmlns="http://www.w3.org/2000/svg"><path d="m12.5 10.375a.625.625 0 1 0 0 1.25.625.625 0 0 0 0-1.25zm-10.25-.375a.75.75 0 0 0 -.75.75v3c0 .414.336.75.75.75h11.5a.75.75 0 0 0 .75-.75v-3a.75.75 0 0 0 -.75-.75zm-2.25.75a2.25 2.25 0 0 1 2.25-2.25h11.5a2.25 2.25 0 0 1 2.25 2.25v3a2.25 2.25 0 0 1 -2.25 2.25h-11.5a2.25 2.25 0 0 1 -2.25-2.25zm3.25 1.5a.5.5 0 0 0 0 1h9.5a.5.5 0 0 0 0-1zm4.75-12.25a.75.75 0 0 1 .75.75v4.44l.72-.72a.75.75 0 1 1 1.06 1.06l-2 2a.75.75 0 0 1 -1.06 0l-2-2a.75.75 0 0 1 1.06-1.06l.72.72v-4.44a.75.75 0 0 1 .75-.75z" fill="#000"/></svg>