<svg fill="none" height="24" viewBox="0 0 24 24" width="24" xmlns="http://www.w3.org/2000/svg"><path d="m1.5 15.75a.75.75 0 0 1 .75-.75h19.5a.75.75 0 0 1 .75.75v6a.75.75 0 0 1 -.75.75h-19.5a.75.75 0 0 1 -.75-.75zm.75-2.25a2.25 2.25 0 0 0 -2.25 2.25v6a2.25 2.25 0 0 0 2.25 2.25h19.5a2.25 2.25 0 0 0 2.25-2.25v-6a2.25 2.25 0 0 0 -2.25-2.25zm15.75 4.125a1.125 1.125 0 1 1 2.25 0 1.125 1.125 0 0 1 -2.25 0zm-13.5 1.875a.75.75 0 0 0 0 1.5h15a.75.75 0 0 0 0-1.5zm7.5-19.5a.75.75 0 0 1 .75.75v7.94l1.72-1.72a.75.75 0 1 1 1.06 1.06l-3 3a.748.748 0 0 1 -1.06 0l-3-3a.75.75 0 0 1 1.06-1.06l1.72 1.72v-7.94a.75.75 0 0 1 .75-.75z" fill="#000"/></svg>