<svg width="16" height="16" viewBox="0 0 16 16" fill="none" xmlns="http://www.w3.org/2000/svg"><path d="M2.859 4.897l.682-.313-.682.313zm.369-.889l.249.708-.25-.708zm2.207.136l-.338.67a.75.75 0 00.69-.008l-.352-.662zm8.234 7.586l.544.517v-.001l-.544-.516zm-.136.214l-.7-.269a.802.802 0 00-.017.05l.717.219zm-.803 2.641l.702.265a.771.771 0 00.016-.047l-.718-.218zm-2.713-.109l-.743.098.007.044.736-.142zm-.108-.819l.744-.098a.76.76 0 00-.007-.042l-.737.14zm-2.344 0l-.736-.141a.75.75 0 00-.011.075l.747.067zm-.073.82l.737.14a.746.746 0 00.01-.074l-.747-.067zm-2.674.07l-.724.194.008.028.716-.222zm-.546-2.043l.725-.194a.812.812 0 00-.008-.028l-.717.222zm-.408-.42l.234-.713-.234.712zM2.359 6.928l.097.744-.097-.744zm.381-.22l.577.48-.577-.48zm.349-.42l-.577-.479.577.48zm.09-.692l.683-.312-.682.312zM7.068 5.5a.75.75 0 100 1.5V5.5zM10.333 7a.75.75 0 000-1.5V7zM7.764.722a.75.75 0 101.042 1.08L7.764.721zm1.297 1.08a.75.75 0 001.041-1.08l-1.041 1.08zM3.54 4.583c.01.025.01.052.001.072a.111.111 0 01-.065.06L2.978 3.3a1.403 1.403 0 00-.801 1.908l1.364-.625zm-.064.132c.224-.079.46-.122.692-.122v-1.5c-.415 0-.82.076-1.19.207l.498 1.415zm.692-.122c.336 0 .653.08.928.22l.677-1.34a3.557 3.557 0 00-1.605-.38v1.5zm1.618.212c.84-.446 2.04-.723 3.168-.723v-1.5c-1.332 0-2.78.319-3.872.899l.704 1.324zm3.168-.723c3.114 0 5.295 2.134 5.295 4.5h1.5c0-3.365-3.035-6-6.795-6v1.5zm5.295 4.5c0 .987-.4 1.866-1.125 2.63l1.088 1.033c.942-.993 1.537-2.228 1.537-3.663h-1.5zm-1.124 2.63c-.124.13-.226.286-.293.462l1.4.537a.103.103 0 01-.02.035l-1.087-1.034zm-.31.513l-.804 2.641 1.436.436.803-2.641-1.435-.437zm-.787 2.594a.114.114 0 01.107-.07v1.5c.582 0 1.093-.364 1.296-.9l-1.403-.53zm.107-.07h-1.494v1.5h1.494v-1.5zm-1.494 0a.11.11 0 01.112.085l-1.473.283a1.39 1.39 0 001.36 1.132v-1.5zm.119.128l-.108-.819-1.487.197.108.819 1.487-.197zm-.115-.861a1.39 1.39 0 00-1.362-1.133v1.5a.11.11 0 01-.112-.085l1.474-.282zm-1.362-1.133H8.19v1.5h1.095v-1.5zm-1.094 0a1.39 1.39 0 00-1.361 1.132l1.473.283a.11.11 0 01-.112.085v-1.5zM6.818 13.59l-.073.819 1.494.133.073-.819-1.494-.133zm-.063.744a.111.111 0 01.112-.085v1.5a1.39 1.39 0 001.362-1.133l-1.474-.282zm.112-.085H5.425v1.5h1.442v-1.5zm-1.442 0c.059 0 .098.038.11.075l-1.433.444c.179.576.708.981 1.323.981v-1.5zm.118.103l-.546-2.043-1.45.388.547 2.043 1.449-.388zm-.554-2.07a1.388 1.388 0 00-.89-.912l-.47 1.425a.112.112 0 01-.073-.07l1.433-.444zm-.89-.912a6.563 6.563 0 01-1.533-.782 2.995 2.995 0 01-.637-.575c-.146-.188-.179-.316-.179-.39H.25c0 .52.226.965.494 1.31.268.346.617.64.96.882.685.481 1.47.83 1.925.98l.47-1.425zM1.75 9.624V8.443H.25v1.18h1.5zm0-1.181c0-.377.292-.716.706-.77l-.194-1.488C1.142 6.331.25 7.272.25 8.443h1.5zm.707-.77c.363-.048.66-.244.86-.484l-1.153-.96c.005-.005.033-.035.096-.044l.197 1.487zm.86-.485l.35-.42-1.155-.958-.349.42 1.155.958zm.349-.42c.345-.416.42-.994.196-1.483l-1.364.624a.092.092 0 01.014-.099l1.154.958zm.195-1.483l-.32-.7-1.364.624.32.7 1.364-.624zM7.067 7h3.266V5.5H7.067V7zm1.74-5.199a.18.18 0 01.126-.051V.25c-.454 0-.867.18-1.169.472l1.042 1.08zm.126-.051a.18.18 0 01.128.051L10.102.722A1.68 1.68 0 008.933.25v1.5z" fill="#000"/></svg>