<svg width="24" height="24" viewBox="0 0 24 24" fill="none" xmlns="http://www.w3.org/2000/svg"><path d="M1 13.75a.75.75 0 000 1.5v-1.5zm4.47 2.72a.75.75 0 101.06 1.06l-1.06-1.06zM8.5 14.5l.53.53a.75.75 0 000-1.06l-.53.53zm-1.97-3.03a.75.75 0 00-1.06 1.06l1.06-1.06zM3.737 7.012L4.42 6.7l-.682.313zm.593-1.427l.25.707-.25-.707zm3.548.218l-.338.669a.75.75 0 00.69-.007l-.352-.662zm13.233 12.191l.543.517h.001l-.544-.517zm-.218.344l-.7-.268a.725.725 0 00-.018.05l.718.218zm-1.291 4.245l.701.266a.706.706 0 00.017-.047l-.718-.219zm-4.36-.175l-.744.099a.713.713 0 00.008.043l.736-.142zm-.174-1.316l.744-.098a.774.774 0 00-.007-.043l-.737.142zm-3.767 0l-.736-.141a.754.754 0 00-.011.075l.747.067zm-.118 1.316l.737.141a.744.744 0 00.01-.074l-.747-.067zm-4.297.114l-.724.194.008.028.716-.222zM2.934 10.279l.097.743-.097-.743zm.613-.353l.577.48v-.002l-.577-.478zm.56-.675l-.577-.48.577.48zm.146-1.112l.682-.312-.682.312zM11.25 2.25a.75.75 0 001.5 0h-1.5zm3 0a.75.75 0 001.5 0h-1.5zM10.5 7.5a.75.75 0 000 1.5V7.5zM15.75 9a.75.75 0 000-1.5V9zM.934 10.47a.75.75 0 001.06 1.06l-1.06-1.06zm6.27 10.336a.75.75 0 00-1.449.388l1.45-.388zM6.53 17.53l2.5-2.5-1.06-1.06-2.5 2.5 1.06 1.06zm2.5-3.56l-2.5-2.5-1.06 1.06 2.5 2.5 1.06-1.06zM1 15.25h7.5v-1.5H1v1.5zM4.42 6.7a.3.3 0 01.16-.408l-.5-1.415c-1 .353-1.46 1.497-1.024 2.448L4.419 6.7zm.16-.408a3.828 3.828 0 011.263-.222v-1.5c-.612 0-1.211.113-1.762.307l.498 1.415zm1.263-.222c.612 0 1.193.147 1.697.402l.677-1.339a5.261 5.261 0 00-2.374-.563v1.5zm2.387.395c1.427-.758 3.43-1.215 5.304-1.215v-1.5c-2.078 0-4.33.5-6.008 1.39l.704 1.325zm5.304-1.215c5.201 0 8.966 3.582 8.966 7.688H24c0-5.106-4.619-9.188-10.466-9.188v1.5zm8.966 7.688c0 1.721-.702 3.242-1.933 4.54l1.088 1.032C23.103 16.985 24 15.107 24 12.938h-1.5zm-1.933 4.54a1.79 1.79 0 00-.375.592l1.401.536a.288.288 0 01.061-.095l-1.087-1.034zm-.392.642l-1.29 4.245 1.434.437 1.291-4.246-1.435-.436zM18.9 22.318a.273.273 0 01-.252.182V24c.74 0 1.396-.464 1.655-1.151l-1.403-.531zm-.252.182h-2.402V24h2.402v-1.5zm-2.402 0a.278.278 0 01-.267-.233l-1.473.283c.16.833.882 1.45 1.74 1.45v-1.5zm-.26-.19l-.174-1.316-1.487.197.174 1.316 1.487-.197zm-.181-1.358a1.778 1.778 0 00-1.74-1.452V21c.12 0 .239.089.267.233l1.473-.282zm-1.74-1.452h-1.76V21h1.76v-1.5zm-1.76 0c-.859 0-1.58.619-1.74 1.45l1.473.284a.279.279 0 01.267-.234v-1.5zm-1.751 1.526l-.118 1.316 1.494.133.118-1.316-1.494-.133zm-.107 1.241a.277.277 0 01-.267.233V24c.858 0 1.58-.617 1.74-1.45l-1.473-.283zm-.267.233H7.862V24h2.318v-1.5zm-2.318 0a.275.275 0 01-.26-.2l-1.432.444c.23.74.908 1.256 1.692 1.256v-1.5zm-4.83-11.478c.453-.06.832-.305 1.092-.617l-1.153-.96c-.055.066-.109.087-.136.09l.197 1.487zm1.092-.618l.56-.675-1.154-.957-.56.675 1.154.957zm.56-.674a1.807 1.807 0 00.25-1.904l-1.363.625a.307.307 0 01-.041.32l1.154.959zm.25-1.904L4.42 6.7l-1.364.625.516 1.126 1.364-.625zM12.75 2.25a.75.75 0 01.75-.75V0a2.25 2.25 0 00-2.25 2.25h1.5zm.75-.75a.75.75 0 01.75.75h1.5A2.25 2.25 0 0013.5 0v1.5zm-3 7.5h5.25V7.5H10.5V9zm-8.505 2.53c.27-.27.63-.455 1.036-.508l-.195-1.487a3.29 3.29 0 00-1.902.935l1.06 1.06zM7.61 22.328l-.407-1.522-1.449.388.407 1.521 1.449-.387z" fill="#000"/></svg>