<svg width="24" height="24" viewBox="0 0 24 24" fill="none" xmlns="http://www.w3.org/2000/svg">
<path d="M22.9999 3.99998L2.49999 16.6273M2.49999 16.6273C1.59325 17.2597 0.999995 18.3105 0.999995 19.4999C0.999995 21.4329 2.56699 22.9999 4.49998 22.9999C6.43297 22.9999 7.99996 21.4329 7.99996 19.4999C7.99996 17.5669 6.43297 15.9999 4.49998 15.9999C3.75636 15.9999 3.0669 16.2318 2.49999 16.6273ZM22.9999 19.9999L2.49999 7.37262M2.49999 7.37262C3.0669 7.76806 3.75636 7.99996 4.49998 7.99996C6.43297 7.99996 7.99996 6.43297 7.99996 4.49998C7.99996 2.56699 6.43297 0.999995 4.49998 0.999995C2.56699 0.999995 0.999995 2.56699 0.999995 4.49998C0.999995 5.68935 1.59325 6.74015 2.49999 7.37262Z" stroke="black" stroke-width="1.5" stroke-linecap="round"/>
</svg>
