<svg fill="none" height="16" viewBox="0 0 17 17" width="16" xmlns="http://www.w3.org/2000/svg"><path d="m6.9082031.73046875c-.8046643.00060222-1.6210471.16041178-2.40625.49414065-1.84306.7833418-3.0098287 2.1225431-3.51171872 3.6132812-.50188999 1.4907381-.36527112 3.1054566.23242182 4.5117188.597693 1.4062626 1.6662761 2.6236696 3.0878907 3.2968746 1.4216146.673206 3.1940493.763811 5.0371093-.019531.5100735-.216793.8992138-.575557 1.3164058-.902344l3.806641 3.804688a.750075.750075 0 1 0 1.058594-1.060547l-3.792969-3.792969c1.329128-1.7182641 1.798014-4.0389088.890625-6.1738279-1.001186-2.3556068-3.3047569-3.77329101-5.7187499-3.77148435zm.00977 1.49609375c1.830115-.0056 3.5647612 1.0672256 4.3281252 2.8632813.759379 1.7866798.330973 3.7641803-.927735 5.0781252a.750075.750075 0 0 0 -.07617.06445c-.4150979.415046-.9052348.769185-1.4804745 1.013675-1.4979386.636657-2.7629122.541029-3.8105469.044922-1.0476347-.496108-1.8803493-1.4298094-2.3476563-2.5292972-.467307-1.0994879-.5612655-2.3467385-.1914062-3.4453126.3698593-1.098574 1.1778427-2.0762331 2.6757812-2.7128906.5986856-.2544548 1.2200398-.3750875 1.8300782-.3769531z" fill="#000"/></svg>