<svg fill="none" height="24" viewBox="0 0 25 25" width="24" xmlns="http://www.w3.org/2000/svg"><path d="m9.7929688 0c-1.2745351.00219-2.5696063.25523625-3.8164063.78515625-4.9872 2.11967995-7.3110862 7.87899435-5.19140625 12.86523475 2.11967995 4.9872 7.87899435 7.313039 12.86523475 5.193359a9.80544 9.80544 0 0 0 2.552734-1.580078l6.515625 6.515625a.75009887.75009887 0 0 0 1.060547-1.060547l-6.515625-6.515625a9.8112 9.8112 0 0 0 1.580078-10.2265625c-1.58976-3.73968-5.227176-5.9831325-9.0507812-5.9765625zm.1542968 1.4433594a8.31168 8.31168 0 0 1 7.5156254 5.1191406 8.31168 8.31168 0 0 1 -15.2988285 6.503906 8.31168 8.31168 0 0 1 7.7832031-11.6230466z" fill="#000" stroke-width=".96" transform="scale(1.0416667)"/></svg>