<svg width="24" height="25" viewBox="0 0 24 25" fill="none" xmlns="http://www.w3.org/2000/svg">
<path fill-rule="evenodd" clip-rule="evenodd" d="M2.75884 15.6323C2.01654 15.6323 1.36402 15.1406 1.15936 14.4271C0.954702 13.7135 1.2474 12.9508 1.87684 12.5573L20.3598 1.00329C20.9201 0.65265 21.6349 0.667116 22.1806 1.04014C22.7262 1.41316 22.9992 2.07392 22.8758 2.72329L19.2758 21.8963C19.1538 22.5444 18.6605 23.0593 18.0181 23.2089C17.3758 23.3585 16.7058 23.1147 16.3098 22.5873L11.0998 15.6323H2.75884Z" stroke="black" stroke-width="1.5" stroke-linecap="round" stroke-linejoin="round"/>
<path fill-rule="evenodd" clip-rule="evenodd" d="M11.0996 15.6323H8.59961V20.8033C8.59957 21.4197 8.94056 21.9856 9.4856 22.2737C10.0306 22.5617 10.6903 22.5246 11.1996 22.1773L14.3776 20.0113L11.0996 15.6323Z" stroke="black" stroke-width="1.5" stroke-linecap="round" stroke-linejoin="round"/>
<path d="M11.0986 15.6323L22.1786 1.0423" stroke="black" stroke-width="1.5" stroke-linecap="round" stroke-linejoin="round"/>
</svg>
