<svg width="24" height="25" viewBox="0 0 24 25" fill="none" xmlns="http://www.w3.org/2000/svg">
<path d="M11.1 15.6323L16.31 22.5873C16.7059 23.1147 17.376 23.3585 18.0183 23.2089C18.6606 23.0593 19.1539 22.5444 19.276 21.8963L22.876 2.72329C22.9993 2.07392 22.7264 1.41316 22.1807 1.04014C21.6351 0.667116 20.9203 0.65265 20.36 1.00329L1.877 12.5573C1.24756 12.9508 0.954863 13.7135 1.15952 14.4271C1.36418 15.1406 2.0167 15.6323 2.759 15.6323H11.1ZM11.1 15.6323L8.6 15.6323V20.8033C8.59996 21.4198 8.94095 21.9857 9.48599 22.2737C10.031 22.5617 10.6907 22.5246 11.2 22.1773L14.378 20.0113L11.1 15.6323ZM11.099 15.6323L22.179 1.04229" stroke="black" stroke-width="1.5" stroke-linecap="round" stroke-linejoin="round"/>
</svg>
