<svg fill="none" height="16" viewBox="0 0 16 16" width="16" xmlns="http://www.w3.org/2000/svg"><g fill="#000"><path d="m1.0019531 2.5a.750075.750075 0 1 0 0 1.5h13.9999999a.750075.750075 0 1 0 0-1.5z"/><path clip-rule="evenodd" d="m6.5019531 0c-.9576148 0-1.75.79238516-1.75 1.75v1.5a.750075.750075 0 0 0 .75.75h4.9999999a.750075.750075 0 0 0 .75-.75v-1.5c0-.95761484-.792385-1.75-1.7499999-1.75zm0 1.5h3c.1469547 0 .25.1030453.25.25v.75h-3.5v-.75c0-.1469547.1030454-.25.25-.25z"/><path d="m6.4921875 6.140625a.60006002.60006002 0 0 0 -.5898437.609375v5a.60006002.60006002 0 1 0 1.1992187 0v-5a.60006002.60006002 0 0 0 -.609375-.609375zm3 0a.60006002.60006002 0 0 0 -.5898437.609375v5a.60006002.60006002 0 1 0 1.1992182 0v-5a.60006002.60006002 0 0 0 -.6093745-.609375z"/><path clip-rule="evenodd" d="m2.5019531 2.5a.750075.750075 0 0 0 -.7480469.8125l.9238282 11.082031c.0750049.900557.8424189 1.605876 1.7460937 1.605469h7.1562499c.904324.0013 1.672989-.704264 1.748047-1.605469a.750075.750075 0 0 0 0-.03516l.921875-11.046871a.750075.750075 0 0 0 -.748047-.8125zm.8164063 1.5h9.3671876l-.853516 10.271484c-.011371.13653-.111045.228715-.248047.228516a.750075.750075 0 0 0 -.002 0h-7.1581559a.750075.750075 0 0 0 -.00195 0c-.1368835.000062-.2366856-.0921-.2480469-.228516z"/></g></svg>