<svg fill="none" height="24" viewBox="0 0 24 24" width="24" xmlns="http://www.w3.org/2000/svg"><g fill="#000"><path d="m1.5 3.75a.750075.750075 0 1 0 0 1.5h21a.750075.750075 0 1 0 0-1.5z"/><path clip-rule="evenodd" d="m9.75.75c-1.2337572 0-2.25 1.0162428-2.25 2.25v1.5a.750075.750075 0 0 0 .75.75h7.5a.750075.750075 0 0 0 .75-.75v-1.5c0-1.2337572-1.016243-2.25-2.25-2.25zm0 1.5h4.5c.423097 0 .75.326903.75.75v.75h-6v-.75c0-.423097.326903-.75.75-.75z"/><path d="m9.7382812 8.9902344a.750075.750075 0 0 0 -.7382812.7597656v7.5a.750075.750075 0 1 0 1.5 0v-7.5a.750075.750075 0 0 0 -.7617188-.7597656zm4.4999998 0a.750075.750075 0 0 0 -.738281.7597656v7.5a.750075.750075 0 1 0 1.5 0v-7.5a.750075.750075 0 0 0 -.761719-.7597656z"/><path clip-rule="evenodd" d="m3.75 3.75a.750075.750075 0 0 0 -.7480469.8125l1.3867188 16.623047c.0962068 1.159809 1.0783954 2.064557 2.2421875 2.064453h10.7382816c1.163792.000104 2.147933-.904644 2.24414-2.064453l1.384766-16.623047a.750075.750075 0 0 0 -.748047-.8125zm.8164062 1.5h14.8671878l-1.316406 15.8125c-.03282.395656-.351033.687535-.748047.6875h-10.7382816c-.3970149.000035-.715227-.291844-.7480469-.6875z"/></g></svg>