<svg width="16" height="16" viewBox="0 0 16 16" fill="none" xmlns="http://www.w3.org/2000/svg"><path d="M3.818 7.966a.75.75 0 11-1.5 0h1.5zm5.216 6.716a.75.75 0 010-1.5v1.5zM3.068 9l.53.53a.75.75 0 01-1.06 0l.53-.53zm1.538-2.599a.75.75 0 011.06 1.061l-1.06-1.06zM.47 7.462a.75.75 0 011.06-1.06L.47 7.461zm13.78.504A5.216 5.216 0 009.034 2.75v-1.5a6.716 6.716 0 016.716 6.716h-1.5zM9.034 2.75a5.216 5.216 0 00-5.216 5.216h-1.5A6.716 6.716 0 019.034 1.25v1.5zm0 10.432a5.216 5.216 0 005.216-5.216h1.5a6.716 6.716 0 01-6.716 6.716v-1.5zM2.538 8.47L4.606 6.4l1.06 1.061L3.6 9.53 2.538 8.47zm0 1.06L.47 7.462l1.06-1.06L3.6 8.47 2.538 9.53z" fill="#000"/></svg>