<svg width="16" height="16" viewBox="0 0 16 16" fill="none" xmlns="http://www.w3.org/2000/svg"><path d="M4.811 6.143A.75.75 0 005.876 7.2L4.811 6.143zM8 3.993l.533-.528a.75.75 0 00-1.065 0L8 3.993zM10.124 7.2a.75.75 0 101.065-1.056L10.124 7.2zM7.25 12.5a.75.75 0 001.5 0h-1.5zM3 .25a.75.75 0 000 1.5V.25zm10 1.5a.75.75 0 000-1.5v1.5zM5.876 7.2l2.657-2.68-1.065-1.055L4.81 6.143 5.876 7.2zm1.591-2.68l2.658 2.68 1.065-1.056-2.656-2.678-1.065 1.056zM8.75 12.5V3.993h-1.5V12.5h1.5zM3 1.75h10V.25H3v1.5z" fill="#000"/></svg>