<svg width="16" height="16" viewBox="0 0 16 16" fill="none" xmlns="http://www.w3.org/2000/svg">
<path fill-rule="evenodd" clip-rule="evenodd" d="M7.99903 3.65092C5.40125 3.6071 2.71452 5.42252 1.02541 7.28177C0.658195 7.68945 0.658195 8.30864 1.02541 8.71632C2.67779 10.5363 5.35678 12.3936 7.99903 12.3491C10.6413 12.3936 13.3209 10.5363 14.9746 8.71632C15.3418 8.30864 15.3418 7.68945 14.9746 7.28177C13.2835 5.42252 10.5968 3.6071 7.99903 3.65092Z" stroke="black" stroke-width="1.2" stroke-linecap="round" stroke-linejoin="round"/>
<path fill-rule="evenodd" clip-rule="evenodd" d="M10.4158 8.00033C10.4155 9.33495 9.33334 10.4166 7.99871 10.4164C6.66409 10.4161 5.58233 9.33409 5.58245 7.99947C5.58257 6.66485 6.66452 5.58299 7.99914 5.58299C8.64026 5.58282 9.25515 5.83747 9.70842 6.29086C10.1617 6.74425 10.4162 7.35922 10.4158 8.00033Z" stroke="black" stroke-width="1.2" stroke-linecap="round" stroke-linejoin="round"/>
</svg>
