<svg width="24" height="24" viewBox="0 0 24 24" fill="none" xmlns="http://www.w3.org/2000/svg">
<path d="M23.25 12C23.25 18.2132 18.2132 23.25 12 23.25C5.7868 23.25 0.75 18.2132 0.75 12M23.25 12C23.25 5.7868 18.2132 0.75 12 0.75C5.7868 0.75 0.75 5.7868 0.75 12M23.25 12H0.75M9.289 22.921C7.767 20.689 6.75 16.633 6.75 12C6.75 7.367 7.767 3.311 9.289 1.079M2.482 18H21.518M2.482 6H21.518M14.711 1.079C16.233 3.311 17.25 7.367 17.25 12C17.25 16.633 16.233 20.689 14.711 22.921" stroke="black" stroke-width="1.5" stroke-linecap="round" stroke-linejoin="round"/>
</svg>
