<svg width="24" height="24" viewBox="0 0 24 24" fill="none" xmlns="http://www.w3.org/2000/svg"><path d="M2 3.62c0-.565.457-1.022 1.021-1.022h6.127c.564 0 1.021.457 1.021 1.021v6.127c0 .564-.457 1.021-1.021 1.021H3.021A1.021 1.021 0 012 9.747V3.618zM12.934 7.405a1.021 1.021 0 010-1.444l3.661-3.662a1.021 1.021 0 011.444 0l3.662 3.662a1.021 1.021 0 010 1.444l-3.662 3.661a1.021 1.021 0 01-1.444 0l-3.661-3.661zM2 14.852c0-.564.457-1.021 1.021-1.021h6.127c.564 0 1.021.457 1.021 1.021v6.127c0 .564-.457 1.021-1.021 1.021H3.021A1.021 1.021 0 012 20.979v-6.127zM13.233 14.852c0-.564.457-1.021 1.02-1.021h6.128c.564 0 1.02.457 1.02 1.021v6.127c0 .564-.456 1.021-1.02 1.021h-6.127a1.021 1.021 0 01-1.021-1.021v-6.127z" stroke="#000" stroke-width="1.5"/></svg>