<svg width="16" height="16" viewBox="0 0 16 16" fill="none" xmlns="http://www.w3.org/2000/svg"><path d="M1.333 2.413a.68.68 0 01.681-.681H5.82a.68.68 0 01.681.68V6.32a.68.68 0 01-.68.68H2.013a.68.68 0 01-.68-.68V2.413zM9 4.559a.68.68 0 010-.963l2.441-2.441a.68.68 0 01.963 0l2.44 2.441a.68.68 0 010 .963l-2.44 2.44a.68.68 0 01-.963 0L9 4.56zM1.333 10.18a.68.68 0 01.681-.68H5.82a.68.68 0 01.681.68v3.806a.68.68 0 01-.68.68H2.013a.68.68 0 01-.68-.68V10.18zm7.667 0a.68.68 0 01.68-.68h3.907a.68.68 0 01.68.68v3.806a.68.68 0 01-.68.68H9.681a.68.68 0 01-.681-.68V10.18z" stroke="#000" stroke-width="1.5"/></svg>