<?xml version="1.0" encoding="utf-8"?>
<svg version="1.1" id="Layer_1" xmlns="http://www.w3.org/2000/svg" xmlns:xlink="http://www.w3.org/1999/xlink" x="0px" y="0px"
	 viewBox="0 0 16 15.2" style="enable-background:new 0 0 16 15.2;" xml:space="preserve">
<path d="M0.6,14h14.8c0.3,0,0.6,0.3,0.6,0.6l0,0c0,0.3-0.3,0.6-0.6,0.6H0.6c-0.3,0-0.6-0.3-0.6-0.6
	l0,0C0,14.3,0.3,14,0.6,14z"/>
<path d="M0.6,7h14.8C15.7,7,16,7.3,16,7.6l0,0c0,0.3-0.3,0.6-0.6,0.6H0.6C0.3,8.2,0,7.9,0,7.6l0,0
	C0,7.3,0.3,7,0.6,7z"/>
<path d="M0.6,0h14.8C15.7,0,16,0.3,16,0.6l0,0c0,0.3-0.3,0.6-0.6,0.6H0.6C0.3,1.2,0,0.9,0,0.6l0,0
	C0,0.3,0.3,0,0.6,0z"/>
</svg>
