<?xml version="1.0" encoding="utf-8"?>
<!-- Generator: Adobe Illustrator 21.1.0, SVG Export Plug-In . SVG Version: 6.00 Build 0)  -->
<svg version="1.1" id="Layer_1" xmlns="http://www.w3.org/2000/svg" xmlns:xlink="http://www.w3.org/1999/xlink" x="0px" y="0px"
	 viewBox="0 0 24 24" style="enable-background:new 0 0 24 24;" xml:space="preserve">
<path d="M21.4,22c-0.2,0-0.3-0.1-0.4-0.2l-4-4c-0.1-0.1-0.2-0.3-0.2-0.4c0-0.2,0.1-0.3,0.2-0.4c0.2-0.2,0.6-0.2,0.8,0
	l4,4c0.1,0.1,0.2,0.3,0.2,0.4c0,0.2-0.1,0.3-0.2,0.4S21.6,22,21.4,22z M9.9,17.8c-2.1,0-4.1-0.8-5.6-2.3C2.8,14,2,12.1,2,10
	c0,0,0,0,0,0C2,5.6,5.6,2,9.9,2c4.4,0,7.9,3.6,7.9,7.9S14.3,17.8,9.9,17.8C9.9,17.8,9.9,17.8,9.9,17.8z M9.9,3.2
	c-3.7,0-6.7,3-6.7,6.7v0c0,1.8,0.7,3.5,2,4.7c1.3,1.3,3,2,4.7,2c0,0,0,0,0,0c3.7,0,6.7-3,6.7-6.7S13.6,3.2,9.9,3.2z"/>
</svg>